<?xml version="1.0" encoding="utf-8"?>
<!-- Generator: Adobe Illustrator 22.0.1, SVG Export Plug-In . SVG Version: 6.00 Build 0)  -->
<svg version="1.1" id="Layer_1" xmlns="http://www.w3.org/2000/svg" xmlns:xlink="http://www.w3.org/1999/xlink" x="0px" y="0px"
	 viewBox="0 0 9.1 9.1" style="enable-background:new 0 0 9.1 9.1;" xml:space="preserve">
<style type="text/css">
	.st0{fill:#aacd6e;}
</style>
<path class="st0" d="M8.8,3.6c-0.2,0-0.3,0.1-0.3,0.3c0,0,0,0,0,0v0.3H7.8C7.7,3.6,7.5,3,7.1,2.6L7.7,2l0.2,0.2
	c0.1,0.1,0.3,0.1,0.4,0c0.1-0.1,0.1-0.3,0-0.4c0,0,0,0,0,0l-1-1C7.2,0.7,7,0.7,6.9,0.8C6.8,1,6.8,1.1,6.9,1.2l0,0l0.2,0.2L6.6,2
	c-0.5-0.4-1-0.6-1.6-0.7V0.6h0.3c0.2,0,0.3-0.1,0.3-0.3S5.4,0,5.2,0l0,0H3.9C3.7,0,3.6,0.1,3.6,0.3s0.1,0.3,0.3,0.3h0.3v0.8
	C3.6,1.4,3,1.7,2.6,2L2,1.5l0.2-0.2c0.1-0.1,0.1-0.3,0-0.4c-0.1-0.1-0.3-0.1-0.4,0l0,0l-0.9,1c-0.1,0.1-0.1,0.3,0,0.4
	c0.1,0.1,0.3,0.1,0.4,0L1.5,2L2,2.6C1.7,3,1.4,3.6,1.4,4.2H0.6V3.9c0-0.2-0.1-0.3-0.3-0.3S0,3.7,0,3.9v1.3c0,0.2,0.1,0.3,0.3,0.3
	s0.3-0.1,0.3-0.3l0,0V4.9h0.8C1.4,5.5,1.7,6.1,2,6.6L1.5,7.1L1.2,6.9C1.1,6.8,1,6.8,0.8,6.9C0.7,7,0.7,7.2,0.8,7.3l1,1
	c0.1,0.1,0.3,0.1,0.4,0c0.1-0.1,0.1-0.3,0-0.4l0,0L2,7.7l0.6-0.6c0.5,0.4,1,0.6,1.6,0.7v0.8H3.9c-0.2,0-0.3,0.1-0.3,0.3
	s0.1,0.3,0.3,0.3h1.3c0.2,0,0.3-0.1,0.3-0.3S5.4,8.6,5.2,8.6l0,0H4.9V7.8c0.6-0.1,1.2-0.3,1.6-0.7l0.6,0.6L6.9,7.9
	C6.8,8,6.8,8.2,6.9,8.3c0.1,0.1,0.3,0.1,0.4,0l1-1c0.1-0.1,0.1-0.3,0-0.4C8.2,6.8,8,6.8,7.9,6.9L7.7,7.1L7.1,6.6
	c0.4-0.5,0.6-1,0.7-1.6h0.8v0.3c0,0.2,0.1,0.3,0.3,0.3s0.3-0.1,0.3-0.3l0,0V3.9C9.1,3.7,9,3.6,8.8,3.6C8.8,3.6,8.8,3.6,8.8,3.6z
	 M3.5,3.8c-0.4,0-0.7-0.3-0.7-0.7s0.3-0.7,0.7-0.7s0.7,0.3,0.7,0.7C4.2,3.5,3.9,3.8,3.5,3.8C3.5,3.8,3.5,3.8,3.5,3.8z M5.7,6.3
	c-0.2,0-0.4-0.2-0.4-0.4c0-0.2,0.2-0.4,0.4-0.4s0.4,0.2,0.4,0.4C6.1,6.1,5.9,6.3,5.7,6.3z"/>
</svg>
