<?xml version="1.0" encoding="utf-8"?>
<!-- Generator: Adobe Illustrator 21.0.2, SVG Export Plug-In . SVG Version: 6.00 Build 0)  -->
<svg version="1.1" id="OBJECTS" xmlns="http://www.w3.org/2000/svg" xmlns:xlink="http://www.w3.org/1999/xlink" x="0px" y="0px"
	 width="197.1px" height="55.3px" viewBox="0 0 197.1 55.3" style="enable-background:new 0 0 197.1 55.3;" xml:space="preserve">
<g>
	<g>
		<g>
			<g>
				<path style="fill:#2E5163;" d="M183.1,53.3h-64.4l-6.9-8.6H85.3l-6.9,8.6H14c-6.6,0-12-5.4-12-12V15C2,8.4,7.4,3,14,3h169.1
					c6.6,0,12,5.4,12,12v26.3C195.1,47.9,189.7,53.3,183.1,53.3z M120.6,49.3h62.5c4.4,0,8-3.6,8-8V15c0-4.4-3.6-8-8-8H14
					c-4.4,0-8,3.6-8,8v26.3c0,4.4,3.6,8,8,8h62.5l6.9-8.6h30.3L120.6,49.3z"/>
			</g>
			<g>
				<rect x="14" style="fill:#BCDEDB;" width="169.1" height="10"/>
			</g>
			<g>
				<g>
					<path style="fill:#66B5AD;" d="M24.1,55.3H14c-7.7,0-14-6.3-14-14v-8.7h8v8.7c0,3.3,2.7,6,6,6h10.1V55.3z"/>
				</g>
				<g>
					<path style="fill:#66B5AD;" d="M183.1,55.3H173v-8h10.1c3.3,0,6-2.7,6-6v-8.7h8v8.7C197.1,49,190.8,55.3,183.1,55.3z"/>
				</g>
			</g>
		</g>
	</g>
</g>
</svg>
