<?xml version="1.0" encoding="utf-8"?>
<!-- Generator: Adobe Illustrator 22.0.1, SVG Export Plug-In . SVG Version: 6.00 Build 0)  -->
<svg version="1.1" id="Layer_1" xmlns="http://www.w3.org/2000/svg" xmlns:xlink="http://www.w3.org/1999/xlink" x="0px" y="0px"
	 viewBox="0 0 6.8 9.8" style="enable-background:new 0 0 6.8 9.8;" xml:space="preserve">
<style type="text/css">
	.st0{fill:#aacd6e;}
</style>
<path class="st0" d="M2.3,9.3V5.2c0-0.3-0.2-0.5-0.5-0.5H0.5C0.2,4.7,0,4.5,0,4.2V2.9c0-0.3,0.2-0.5,0.5-0.5h1.3
	c0.3,0,0.5-0.2,0.5-0.5V0.5C2.3,0.2,2.5,0,2.8,0H4c0.3,0,0.5,0.2,0.5,0.5v1.4c0,0.3,0.2,0.5,0.5,0.5h1.3c0.3,0,0.5,0.2,0.5,0.5v1.3
	c0,0.3-0.2,0.5-0.5,0.5H5c-0.3,0-0.5,0.2-0.5,0.5v4.1c0,0.3-0.2,0.5-0.5,0.5H2.8C2.5,9.8,2.3,9.6,2.3,9.3z"/>
</svg>
