<?xml version="1.0" encoding="utf-8"?>
<!-- Generator: Adobe Illustrator 22.0.1, SVG Export Plug-In . SVG Version: 6.00 Build 0)  -->
<svg version="1.1" id="Layer_1" xmlns="http://www.w3.org/2000/svg" xmlns:xlink="http://www.w3.org/1999/xlink" x="0px" y="0px"
	 viewBox="0 0 92.7 85.1" style="enable-background:new 0 0 92.7 85.1;" xml:space="preserve">
<style type="text/css">
	.st0{fill:#FFFFFF;}
</style>
<path class="st0" d="M67.5,85.1h22.3c1.6,0,2.8-1.3,2.8-2.8V2.8c0-1.6-1.3-2.8-2.8-2.8L67.5,0c-1.6,0-2.8,1.3-2.8,2.8v79.4
	C64.7,83.8,65.9,85.1,67.5,85.1z M35.2,85.1h22.3c1.6,0,2.8-1.3,2.8-2.8V33.5c0-1.6-1.3-2.8-2.8-2.8H35.2c-1.6,0-2.8,1.3-2.8,2.8
	v48.7C32.3,83.8,33.6,85.1,35.2,85.1z M0,58.5l0,23.7c0,1.6,1.3,2.8,2.8,2.8h22.3c1.6,0,2.8-1.3,2.8-2.8V58.5c0-1.6-1.3-2.8-2.8-2.8
	H2.8C1.3,55.7,0,57,0,58.5z"/>
</svg>
