<?xml version="1.0" encoding="utf-8"?>
<!-- Generator: Adobe Illustrator 22.0.1, SVG Export Plug-In . SVG Version: 6.00 Build 0)  -->
<svg version="1.1" xmlns="http://www.w3.org/2000/svg" xmlns:xlink="http://www.w3.org/1999/xlink" x="0px" y="0px"
	 viewBox="0 0 15.5 15.6" style="enable-background:new 0 0 15.5 15.6;" xml:space="preserve">
<style type="text/css">
	.st0{fill:#FFFFFF;}
</style>
<g>
	<path class="st0" d="M11.5,8c0,2-1.7,3.7-3.7,3.7c-2,0-3.7-1.7-3.7-3.7c0-0.6,0.1-1.1,0.4-1.6H0v5.3c0,2.1,1.7,3.9,3.9,3.9h7.8
		c2.1,0,3.9-1.7,3.9-3.9V6.4h-4.4C11.4,6.9,11.5,7.4,11.5,8z"/>
	<path class="st0" d="M9.4,8c0-0.8-0.7-1.5-1.5-1.5C7,6.4,6.3,7.1,6.3,8c0,0.8,0.7,1.5,1.5,1.5C8.7,9.5,9.4,8.8,9.4,8z"/>
	<path class="st0" d="M11.7,0H3.9C1.7,0,0,1.7,0,3.9V5h5.7c0.6-0.4,1.3-0.7,2.1-0.7C8.6,4.3,9.4,4.5,10,5h2.9h2.7V3.9
		C15.5,1.7,13.8,0,11.7,0z M13.2,3.7c0,0.2-0.2,0.4-0.4,0.4h-1.3c-0.2,0-0.4-0.2-0.4-0.4V2.4c0-0.2,0.2-0.4,0.4-0.4h1.3
		c0.2,0,0.4,0.2,0.4,0.4V3.7z"/>
</g>
</svg>
