<?xml version="1.0" encoding="utf-8"?>
<!-- Generator: Adobe Illustrator 22.0.1, SVG Export Plug-In . SVG Version: 6.00 Build 0)  -->
<svg version="1.1" xmlns="http://www.w3.org/2000/svg" xmlns:xlink="http://www.w3.org/1999/xlink" x="0px" y="0px"
	 viewBox="0 0 17 17" style="enable-background:new 0 0 17 17;" xml:space="preserve">
<style type="text/css">
	.st0{fill:#00B5AD;}
	.st1{fill:#E0F1EF;}
</style>
<g>
	<path class="st0" d="M8.5,0C3.8,0,0,3.8,0,8.5C0,13.2,3.8,17,8.5,17c4.7,0,8.5-3.8,8.5-8.5C17,3.8,13.2,0,8.5,0z"/>
	<g>
		<rect x="4.6" y="6.5" class="st1" width="1.7" height="5.5"/>
		<path class="st1" d="M5.5,5.8c-0.5,0-1-0.4-1-1c0-0.5,0.4-1,1-1c0.5,0,1,0.4,1,1C6.5,5.3,6,5.8,5.5,5.8z"/>
		<path class="st1" d="M12.7,12H11V9.3c0-0.6,0-1.5-0.9-1.5c-0.9,0-1,0.7-1,1.4V12H7.4V6.5H9v0.8h0c0.2-0.4,0.8-0.9,1.6-0.9
			c1.7,0,2,1.1,2,2.6V12z"/>
	</g>
</g>
</svg>
