<svg id="Layer_1" data-name="Layer 1" xmlns="http://www.w3.org/2000/svg" xmlns:xlink="http://www.w3.org/1999/xlink" viewBox="0 0 279.85 345.1">
  <defs>
    <clipPath id="clip-path" transform="translate(0 0)">
      <rect width="279.85" height="345.1" style="fill: none"/>
    </clipPath>
  </defs>
  <title>logo</title>
  <g style="clip-path: url(#clip-path)">
    <path d="M139.93,0A139.92,139.92,0,0,0,0,139.92c0,61.15,87.61,159.87,124.18,198.41a21.68,21.68,0,0,0,31.48,0c36.57-38.54,124.18-137.26,124.18-198.41A139.92,139.92,0,0,0,139.93,0" transform="translate(0 0)" style="fill: #a1ce5e"/>
    <path d="M145.65,81.68l-16.18,19.7c-8.44-9.68-20.58-16-32-16C76.35,85.37,60,101.73,60,123.19s16.36,38,37.47,38c11.08,0,23.22-5.63,32-14.42l16.36,17.76c-13,13.37-31.84,22-49.78,22-36.76,0-64.55-27.26-64.55-63C31.49,88,59.81,61.27,97.1,61.27c17.77,0,36.41,7.92,48.55,20.4" transform="translate(0 0)" style="fill: #ebf3f0"/>
    <polygon points="164.8 125.67 164.8 73.54 152.66 73.54 152.66 61.31 179.33 61.31 179.33 125.67 164.8 125.67" style="fill: #ebf3f0"/>
    <path d="M193.67,121.17l5.52-10.66A24.61,24.61,0,0,0,213,114.64c11,0,16.27-7.26,16-18.66-3.13,4.69-8.64,7.54-16.09,7.54-12.78,0-20.69-8.28-20.69-20.78,0-13.61,9.29-22.07,23.54-22.07,16.92,0,27.31,12,27.31,31.81,0,20.5-11.4,33.84-29.15,33.84-6.9,0-14.9-2-20.23-5.15m33.56-38.62c.09-5-3.4-9.75-10.85-9.75-6.53,0-10.67,3.59-10.67,10,0,6,3.77,9.56,10.3,9.56,7.17,0,11.31-4.32,11.22-9.84" transform="translate(0 0)" style="fill: #ebf3f0"/>
    <rect x="152.66" y="139.79" width="90.38" height="10.38" style="fill: #ebf3f0"/>
    <polygon points="127.21 269.15 100.45 233.71 100.45 269.15 88.53 269.15 88.53 213.89 99.89 213.89 126.74 249.42 126.74 213.89 138.58 213.89 138.58 269.15 127.21 269.15" style="fill: #ebf3f0"/>
    <polygon points="163.92 258.73 195.26 258.73 195.18 269.15 147.1 269.15 147.1 260.71 178.05 224.31 148.13 224.31 148.13 213.89 194.78 213.89 194.78 222.26 163.92 258.73" style="fill: #ebf3f0"/>
  </g>
</svg>
