<?xml version="1.0" encoding="utf-8"?>
<!-- Generator: Adobe Illustrator 21.0.2, SVG Export Plug-In . SVG Version: 6.00 Build 0)  -->
<svg version="1.1" id="Layer_1" xmlns="http://www.w3.org/2000/svg" xmlns:xlink="http://www.w3.org/1999/xlink" x="0px" y="0px"
	 width="65.4px" height="84.9px" viewBox="0 0 65.4 84.9" style="enable-background:new 0 0 65.4 84.9;" xml:space="preserve">
<g>
	<defs>
		<rect id="SVGID_1_" y="0" width="65.4" height="84.9"/>
	</defs>
	<clipPath id="SVGID_2_">
		<use xlink:href="#SVGID_1_"  style="overflow:visible;"/>
	</clipPath>
	<path style="clip-path:url(#SVGID_2_);fill:#00B6AE;" d="M41.4,44.7c-0.1-0.4-0.4-0.3-0.9-0.4c-0.5-0.1-0.6-0.1-0.9-0.4
		c-0.3-0.3,0.1-0.6,0.4-1c0.3-0.4,0.8-0.9,0.5-1c-0.3-0.1-1,0.4-1.5,0.5c-0.5,0.1-0.9,0.5-1.5,0.8c-0.6,0.4-0.5,0.4-0.8,1.1
		c-0.3,0.7-1,0-1.2-0.3c-0.2-0.3,0.2-0.9,0.2-1.8c0-0.9-0.4-1-0.7-1.2c-0.3-0.2-0.9,0-1.3-0.2s-0.1-0.6,0.2-1.1
		c0.2-0.4,0.9-0.1,1.2-0.2c0.3-0.1-0.1-0.4-0.6-0.5c-0.5-0.1-0.9,0-1.7,0.1c-0.7,0.1-0.5,0.3-1.1,0.8c-0.7,0.5-0.4,0.3-1.2,0.9
		s-0.3,0.7-0.3,1.7c0,1-0.1,1.4-0.5,2.4c-0.4,0.9-0.5,0.8-1.2,1.2c-0.7,0.4-0.9,0.4-1.8,0.8c-0.8,0.4-0.4,0.5-0.7,1.4
		c-0.3,0.8-0.4,0.8-0.7,1.8c-0.4,1-0.3,1.6-0.5,2.6c-0.1,1-1,0.6-1.9,1.4c-0.9,0.8-1.3,1-1.9,1.6c-1.2,1.1-2,1.4-3,2.3
		c-1,0.9-1.8,1.4-2.9,1.9c-1.1,0.5-2.1,1.7-2.9,2.3s-1.5,0-2.3,0.4c-0.8,0.3-0.7,0.5-1.4,1.1c-0.7,0.7-0.7,0.8-1.4,1.5
		c-0.7,0.7-0.3,0.4-0.5,1.1s0,0.7-0.5,1c-0.5,0.4-0.8,0.2-1.6,0.6c-0.8,0.3-0.6,0.3-0.7,0.6c-0.1,0.3-0.1,0.3-0.5,0.5
		c-0.3,0.3-0.6,0.5-0.9,1c-0.3,0.5,0,0.5-0.1,1.3c-0.1,0.7,0,0.7,0,1.1c0,0.4-0.2,0.1-0.6,0c-0.4-0.1-0.4-0.5-0.9-0.5
		c-0.5,0-0.6,0.3-0.6,0.5c-0.1,0.2-0.2,0.8,0.3,0.9c0.5,0.1,0.5,0.2,0.8,0.7c0.3,0.6-0.1,0.5-0.5,0.7c-0.4,0.3-0.7,0.3-0.9,0.6
		C-0.1,75.4,0,75.6,0.3,76c0.3,0.4,0.7,0.1,0.9,0.3c0.1,0.3-0.2,0.3-0.6,0.4c-0.4,0.2-0.4,0.4-0.3,0.7c0.2,0.3,1.2,0.3,2.1,0.3
		c0.9,0,2.6-0.6,3.3,0c0.8,0.6,0.9,1.1,1.5,1.2c0.6,0.2,1.4,0.1,2.1,0.7c0.7,0.6,0.3,0.7,1.1,1c0.8,0.3,1.7,0.2,2.5,0.1
		c0.8-0.1,1.7-0.1,2.7-0.3c1-0.2,1.6-0.7,2.8-1.9c1.2-1.2,0.9-1,1.4-1.5c0.5-0.5,1-0.6,1.5-0.9c0.5-0.3,1.4-0.2,1.4-0.4
		c0.1-0.2-0.2-0.3-0.7-0.4c-0.4-0.2-0.2,0-0.2-0.9c-0.1-0.9,0.7-1.5,1-2.1c0.3-0.6,1.5-1.4,2.1-2.7c0.5-1.3,0.3-1.3,0.5-2.7
		c0.2-1.3,0.2-1.2,0.7-2.2c0.5-1,1.8-0.8,2.3-1.4c0.4-0.6,1.3-0.8,1.8-1.2c0.5-0.4,1.5-1.1,2.3-1.1c0.8,0,0.8,0.6,1.1,0.7
		c0.3,0.1,1.3,0.3,1.7,0c0.4-0.3,0.1-0.5-0.2-1.1c-0.2-0.6-0.7-0.2-1.2-0.2c-0.6,0-0.4-0.1-0.6-1c-0.2-0.9,0.2-0.7,0.7-1.6
		c0.5-0.8,1.2-1.2,1.9-1.9c0.7-0.7,1.7-1.7,2.9-3.4c1.2-1.6,0.7-1.2,1-2.4c0.3-1.2,0.8-1.2,1.6-1.8c0.8-0.6,0.7-0.3,0.9-0.8
		c0.1-0.5-0.6-1.1-0.8-1.7C41.3,45,41.5,45.2,41.4,44.7"/>
	<path style="clip-path:url(#SVGID_2_);fill:#00B6AE;" d="M64.9,20.9c-0.6,0-0.6-0.9-1.5-0.7c-0.8,0.2-1.5,0.5-2.2,1.2
		c-0.6,0.7-2.8,1.6-3.5,1.7c-0.7,0.1-1.4-0.4-2.5-0.9c-1.1-0.4-2.4-0.7-3.1-1.5c-0.7-0.8-1.1-2.4-1.1-3.6c0-1.2-0.6-1.6-0.8-2
		c-0.2-0.4,0-0.9-0.4-1.1c-0.4-0.2-0.3-0.4-0.8-0.6c-0.5-0.2-0.8,0.1-0.5,0.6c0.3,0.5,0.4,0.6,0.4,1.5c0,0.9,0.4,1.8-0.1,1.8
		c-0.5,0-0.7-0.3-1.3-0.9c-0.6-0.5-0.8-0.3-1.5-0.6c-0.7-0.3-1-0.4-1-0.8c0-0.4,0.2-0.5-0.2-0.9c-0.4-0.4-0.5-0.7-0.2-1.2
		c0.4-0.5,0-1.2-0.5-1.6c-0.5-0.4-0.7-0.2-0.9-0.9c-0.2-0.7-0.3-0.8-0.7-1.4c-0.4-0.6-0.3-0.9-0.3-1.8c0-0.9,0.1-1.3-0.1-1.6
		c-0.2-0.2-0.2-0.1-0.5,0.1c-0.3,0.2-0.7,0.5-1,0c-0.3-0.5-0.1-0.6-0.3-1.2c-0.3-0.5-0.2-0.6-0.9-0.6C38.8,3.8,38.2,4,38,3.7
		c-0.2-0.3-0.7-1-0.9-0.8c-0.2,0.2-0.1,0.7-0.3,0.7c-0.2,0.1-0.6-0.2-0.9-0.5c-0.4-0.3-0.3-0.3-0.5-0.8c-0.2-0.6-0.5-0.7-0.5-1
		c0-0.3,0-0.4,0.2-0.6c0.3-0.2,0.5-0.3,0.3-0.5C35.2-0.1,34.8,0,34.3,0c-0.6,0-0.9-0.2-0.9,0.2c-0.1,0.4,0.3,0.9,0.7,1.2
		c0.4,0.3,0.6,0.4,0.8,1C35,3,34.9,3.1,35.5,3.6C36,4.2,35.8,3.8,36,4.8c0.2,0.9,0.5,1.7,0.9,1.9c0.4,0.3,0.7,0,0.7-0.2
		c0-0.3,0.1-0.6,0.5-0.5c0.4,0.1,0.7,0.4,0.5,0.6c-0.2,0.2-0.6,0-0.4,0.6c0.2,0.6,0,1.1,0.7,1.8c0.7,0.7,1.1,0.9,1.1,1.5
		c0.1,0.6,0.1,1.2,0.4,1.4c0.4,0.3,1,0.2,1-0.2c0-0.3,0.3-1,1-0.5c0.7,0.5,0.3,1.1,0,1.2c-0.3,0.1-0.3,0.6-0.2,0.8
		c0.2,0.1,0.4,0.5,0.2,0.5c-0.2,0.1-0.6-0.3-0.8-0.1c-0.2,0.2,0.3,1,0.6,1.2c0.3,0.2,0.4,0.5,0.5,0.9c0.1,0.4,0.4,0.9,0.6,1
		c0.2,0.1,0.7,0.2,0.8-0.2s0.2-0.8,0.6-0.4s0.7,0.7,0.7,1c0,0.3-0.3,0.7-0.7,0.7c-0.3,0-0.8,0-0.6,0.4c0.2,0.4,0,0.6,0.5,1.3
		c0.5,0.7,0.8,1,0.9,1.6c0.1,0.6,0.2,1.1-0.2,1.8c-0.4,0.7-0.6,1.7-0.6,2.5c0,0.8-0.6,2.1-0.9,2.4s-0.4,0.5-1.3,1.1
		c-0.9,0.6-1.6,1.2-2.3,1.4c-0.6,0.2-0.9,0.5-0.8,1c0.1,0.5,0.3,1.1,1.3,1.5c1,0.4,1.6,1.1,2.3,1.5c0.8,0.4,1.1,0.3,1.8,0.7
		c0.7,0.4,1,0.4,1.6,1c0.6,0.6,0.8,1,0.9,2c0,0.9,0.3,1.1-0.4,2.1c-0.7,1-0.8,1.1-1.4,2.3c-0.6,1.1-1.2,1-1.4,1.7
		c-0.2,0.6,0.5,0.6,0.9,0.6c0.4,0,0.5,0.1,1,0.3c0.5,0.2,0.6-0.2,0.8,0.2c0.2,0.4-0.2,0.9,0.4,1c0.7,0.1,0.5,0,1.1-0.6
		c0.6-0.6,0.8-0.6,1.7-1.1c0.9-0.5,1.3-0.3,1.7-1.1c0.4-0.8,0-0.8,1.2-2.1c1.2-1.3,1.9-1.1,2-2c0.1-1,1.2-2.3,1.6-3.2
		c0.4-0.9,1.1-1.5,0.8-2.3c-0.3-0.8-0.7-0.9-0.6-1.7c0-0.8,1.3-2,1.7-2c0.5,0,1.5-0.2,2.3-0.1c0.8,0.1,0.8,0.7,1.4,0.4
		c0.6-0.4,1-0.4,0.6-0.7c-0.4-0.3-1-0.3-0.7-0.8c0.3-0.5,0.6-0.9,1.4-1.5c0.7-0.5,0.7-0.9,0.7-1.9c-0.1-1-0.4-1.7,0.1-2.5
		c0.5-0.8,0.6-0.6,0.7-1.1C65.4,21.3,65.5,20.9,64.9,20.9"/>
	<path style="clip-path:url(#SVGID_2_);fill:#00B6AE;" d="M8.1,83c-0.6-0.2-1.1-0.4-0.9-0.7c0.2-0.3,0.6-0.2,0.4-0.6
		c-0.2-0.4-1.4-0.8-1.5-0.2c-0.2,0.7,0,0.6-0.3,1.3c-0.3,0.7-0.7,0.4-0.8,1.2C5,85,5,85,5.4,84.7c0.5-0.3,0.5-0.4,1.2-0.6
		s1.3,0,1.5-0.3C8.3,83.6,8.6,83.2,8.1,83"/>
</g>
</svg>
