<?xml version="1.0" encoding="UTF-8"?>
<svg width="81px" height="95px" viewBox="0 0 81 95" version="1.1" xmlns="http://www.w3.org/2000/svg" xmlns:xlink="http://www.w3.org/1999/xlink">
    <!-- Generator: Sketch 55.2 (78181) - https://sketchapp.com -->
    <title>Path</title>
    <desc>Created with Sketch.</desc>
    <g id="Page-1" stroke="none" stroke-width="1" fill="none" fill-rule="evenodd">
        <g id="refresh" fill="#FFFFFF" fill-rule="nonzero">
            <path d="M-0.000142590557,54.86 C-0.043964189,71.4103871 10.0820252,86.2884018 25.4946442,92.3190252 C40.9072633,98.3496486 58.4414102,94.2944452 69.6411291,82.1090629 C80.840848,69.9236806 83.4061891,52.110483 76.1,37.26 C75.7769085,36.626059 75.1951585,36.1630628 74.5048769,35.9904924 C73.8145953,35.817922 73.0834059,35.9526834 72.5,36.36 L64.9,41.76 C63.9787532,42.4142116 63.6444701,43.6259879 64.1,44.66 C65.4813395,47.9325074 66.1952983,51.4479047 66.2,55 C66.1525606,69.1364555 54.8550773,80.6635006 40.7224357,80.9952615 C26.5897941,81.3270224 14.7638632,70.3427948 14.0531407,56.224137 C13.3424183,42.1054792 24.0054859,29.9891726 38.1,28.9 L38.1,41.4 C38.1055569,42.2256415 38.5791811,42.9765938 39.3218693,43.337328 C40.0645574,43.6980622 40.9476125,43.6060685 41.6,43.1 L66.4,23.5 C66.9223583,23.0905582 67.2274836,22.4637023 67.2274836,21.8 C67.2274836,21.1362977 66.9223583,20.5094418 66.4,20.1 L41.6,0.46 C40.9476125,-0.0460685173 40.0645574,-0.138062233 39.3218693,0.222671992 C38.5791811,0.583406218 38.1055569,1.33435847 38.1,2.16 L38.1,14.76 C16.7563107,15.8663787 0.013897127,33.4876592 -0.000142590557,54.86" id="Path"></path>
        </g>
    </g>
</svg>