<?xml version="1.0" encoding="utf-8"?>
<!-- Generator: Adobe Illustrator 21.0.2, SVG Export Plug-In . SVG Version: 6.00 Build 0)  -->
<svg version="1.1" id="Layer_1" xmlns="http://www.w3.org/2000/svg" xmlns:xlink="http://www.w3.org/1999/xlink" x="0px" y="0px"
	 width="32px" height="32px" viewBox="0 0 32 32" style="enable-background:new 0 0 32 32;" xml:space="preserve">
<g>
	<defs>
		<rect id="SVGID_1_" width="32" height="32"/>
	</defs>
	<clipPath id="SVGID_2_">
		<use xlink:href="#SVGID_1_"  style="overflow:visible;"/>
	</clipPath>
	<path style="clip-path:url(#SVGID_2_);fill:#055065;" d="M16,0C7.2,0,0,7.2,0,16s7.2,16,16,16c8.8,0,16-7.2,16-16S24.8,0,16,0
		 M23.5,12.4c0,0.2,0,0.3,0,0.5c0,4.8-3.7,10.4-10.4,10.4c-2.1,0-4-0.6-5.6-1.6c0.3,0,0.6,0.1,0.9,0.1c1.7,0,3.3-0.6,4.5-1.6
		c-1.6,0-2.9-1.1-3.4-2.5c0.2,0,0.5,0.1,0.7,0.1c0.3,0,0.7,0,1-0.1c-1.7-0.3-2.9-1.8-2.9-3.6c0,0,0,0,0,0c0.5,0.3,1.1,0.4,1.7,0.5
		c-1-0.7-1.6-1.8-1.6-3c0-0.7,0.2-1.3,0.5-1.8c1.8,2.2,4.5,3.7,7.5,3.8c-0.1-0.3-0.1-0.5-0.1-0.8c0-2,1.6-3.7,3.7-3.7
		c1.1,0,2,0.4,2.7,1.2c0.8-0.2,1.6-0.5,2.3-0.9c-0.3,0.9-0.9,1.6-1.6,2c0.7-0.1,1.4-0.3,2.1-0.6C24.8,11.2,24.2,11.9,23.5,12.4"/>
</g>
</svg>
