<?xml version="1.0" encoding="utf-8"?>
<!-- Generator: Adobe Illustrator 21.0.2, SVG Export Plug-In . SVG Version: 6.00 Build 0)  -->
<svg version="1.1" id="Layer_1" xmlns="http://www.w3.org/2000/svg" xmlns:xlink="http://www.w3.org/1999/xlink" x="0px" y="0px"
	 width="184.9px" height="186.1px" viewBox="0 0 184.9 186.1" style="enable-background:new 0 0 184.9 186.1;" xml:space="preserve"
	>
<g>
	<defs>
		<rect id="SVGID_1_" x="-55.5" width="369" height="186.1"/>
	</defs>
	<clipPath id="SVGID_2_">
		<use xlink:href="#SVGID_1_"  style="overflow:visible;"/>
	</clipPath>
	<g style="clip-path:url(#SVGID_2_);">
		<defs>
			<rect id="SVGID_3_" x="-55.5" width="369" height="186.1"/>
		</defs>
		<clipPath id="SVGID_4_">
			<use xlink:href="#SVGID_3_"  style="overflow:visible;"/>
		</clipPath>
		<path style="clip-path:url(#SVGID_4_);fill-rule:evenodd;clip-rule:evenodd;fill:#00B6AE;" d="M91.9,0.2
			c51.3,0,92.9,41.6,92.9,92.9s-41.6,92.9-92.9,92.9C40.6,186.1-1,144.5-1,93.2S40.6,0.2,91.9,0.2"/>
	</g>
	<g style="clip-path:url(#SVGID_2_);">
		<defs>
			<path id="SVGID_5_" d="M-1,93.2c0,51.3,41.6,92.9,92.9,92.9c51.3,0,92.9-41.6,92.9-92.9c0-51.3-41.6-92.9-92.9-92.9
				C40.6,0.2-1,41.8-1,93.2"/>
		</defs>
		<clipPath id="SVGID_6_">
			<use xlink:href="#SVGID_5_"  style="overflow:visible;"/>
		</clipPath>
		<path style="clip-path:url(#SVGID_6_);fill-rule:evenodd;clip-rule:evenodd;fill:#A0CD5E;" d="M291.5,32c-8.8-1.8-28.3-5-41.4-4.8
			c-13.1,0.3-11.6-11.4-24.2-10.1c-12.6,1.3-26,5.6-33.1,12.1c-7.1,6.6-29.8,8.3-37.6,10.1c-7.8,1.8-7.8-9.3-15.7-9.8
			c-7.8-0.5-23,15.1-17.2,19.2c5.8,4,10.6,5.1,10.1-1.8c-0.5-6.8,9.1-10.6,7.8-6.1c-1.3,4.5-0.8,9.3,3.5,8.1
			c4.3-1.3-0.3,6.8-6.6,7.3c-6.3,0.5-16.1,1.5-19.9,6.8c-0.5,0.7-4.7,0.8-5.1,1.5c-1.1,2.1,3.3,2.1,2.6,5c-0.4,1.6-2.6,2.9-4.9,2.2
			c-4.8-1.5-5.6,1.3-3.6,4.9c2,3.5,5.9,3.9,9.7,0.1c3.8-3.8,5.8-8.1,8.8-6.3c3,1.8,6.6,9.8,7.6,7.6c1-2.3-0.3-4-3-7.3
			c-2.8-3.3,2.5-4.5,6.1,1c3.5,5.6,2.8,10.6,6.1,3.5c3.3-7.1,8.3-10.1,12.9-7.3s3.3,7.1-1,6.6c-4.3-0.5-9.6,3.5-6.1,4.3
			c3.5,0.8,8.6,5.8,4.3,7.6c-4.3,1.8-5.8-0.5-11.1-1.3c-5.3-0.8-7.6,2-11.4-0.8c-1.4-1-1.3-4.6-3.8-5.1c-4.4-0.9-12.1,1.8-15.1,2.8
			c-4.8,1.5-10.6,14.6-10.6,20.7c0,6.1,4,14.1,11.1,11.9c7.1-2.3,13.1-1,13.9,2.5c0.8,3.5,2.5,20.4,6.1,26.5
			c3.5,6.1,7.6,21,14.6,11.6c7.1-9.3,7.6-16.2,10.9-18.9c3.3-2.8-3-13.4,4.5-17.7c7.6-4.3,14.6-7.1,7.3-10.1
			c-7.3-3-11.6-5-14.4-10.9c-2.8-5.8-2-12.4,1.8-5.3c3.8,7.1,5,16.2,11.4,12.1c6.3-4,10.3-6.8,7.1-9.8c-3.3-3-8.1-7.1-6.6-8.3
			c1.5-1.3,8.1,4,12.6,5c4.5,1,12.6,11.6,14.9,16.7c2.3,5,4.3-4.8,9.3-9.8c5-5,9.8-0.3,12.4,3.5c2.5,3.8,6.1,10.1,11.1,6.6
			c5-3.5-0.3-10.1,5.8-12.1c6.1-2,10.9-9.8,6.6-14.4c-4.3-4.5,3.3-10.9,7.1-6.3c3.8,4.5,5.3,7.6,4.8-1.3c-0.5-8.8,1.8-1.5,6.1-5.6
			c4.3-4,9.1-10.1,2-12.6c-7.1-2.5,2.8-7.6,9.8-9.3c7.1-1.8,13.6-6.6,15.1-4.3c1.5,2.3-7.3,13.1-6.6,15.4c0.8,2.3,3.5,1,7.3-5.6
			c3.8-6.6,4-3.3,11.1-6.8c7.1-3.5,2.5-9.1,7.1-6.8c4.5,2.3,9.1,2,9.6-2C314,32.5,298.6,34.6,291.5,32 M172.6,67.3
			c1.4,1.2-5.7,0.6-4.3,3c1.4,2.4,3.6,1.5,4.2,3.4c0.7,1.8-2.1,2-0.7,3.2c1.3,1.2,1.9,2.6-1.8,2.8c-3.7,0.2-4-2-3.2-2.5
			c0.7-0.5-3.5-7.8-2.7-8.5C164.8,67.9,171.4,65.9,172.6,67.3"/>
		<path style="clip-path:url(#SVGID_6_);fill-rule:evenodd;clip-rule:evenodd;fill:#A0CD5E;" d="M186.5,15.1c1,2.3-6.6,5.6-7.9,8.1
			c-1.2,2.5-1.4,6.3-4.5,7.1C173.4,31,181.2,9.3,186.5,15.1"/>
		<path style="clip-path:url(#SVGID_6_);fill-rule:evenodd;clip-rule:evenodd;fill:#A0CD5E;" d="M128.9,12.1
			c4.3,3.8,15.4,1.8,15.7-2.5C144.9,5.3,128.4,7.3,128.9,12.1"/>
		<path style="clip-path:url(#SVGID_6_);fill-rule:evenodd;clip-rule:evenodd;fill:#A0CD5E;" d="M166.4,133.1
			c3.5,1.6,0.5,14.1-3.5,14.4C159,147.7,162.4,131.9,166.4,133.1"/>
		<path style="clip-path:url(#SVGID_6_);fill-rule:evenodd;clip-rule:evenodd;fill:#A0CD5E;" d="M111.6,50.3
			c2.6,0.5,1.7,1.3,1.4,2.7c-0.3,1.4,1.8,2.7,3.1,4c1.3,1.3,1.6,4.4-0.6,4.2c-2.2-0.2-5.5,1.2-4.5-0.7c1-1.9,2.2-3.5,0.5-5
			C109.9,54.1,107.5,49.4,111.6,50.3"/>
		<path style="clip-path:url(#SVGID_6_);fill-rule:evenodd;clip-rule:evenodd;fill:#A0CD5E;" d="M108.6,54.9c1.6,0.2,1.9,4,0.2,4.7
			c-1.6,0.7-2.3,1.5-3.3,0.3C104.6,58.8,106.5,54.5,108.6,54.9"/>
		<path style="clip-path:url(#SVGID_6_);fill-rule:evenodd;clip-rule:evenodd;fill:#A0CD5E;" d="M44.1,15.7c3,3.9,9.2,0.6,14,6.1
			c4.8,5.5,6.3,9.8,3.3,12.4c-3,2.6,5.2,15.9,9.2,14.2c4.1-1.7,0.9-10,7.8-12.9c6.8-3,17.4-2,12-5.2c-5.4-3.1,8.1-7.4,6.1-11.4
			c-2-4.1,2.4-12,5.7-13.5c3.3-1.5-5.9-0.4-9.4,1.5c-3.5,1.8-0.2-2-5.7-6.1C81.6-3.3,40.6,10.3,44.1,15.7"/>
		<path style="clip-path:url(#SVGID_6_);fill-rule:evenodd;clip-rule:evenodd;fill:#A0CD5E;" d="M92.1,38.4c0-1.8,8.5-1.7,9,0.2
			C101.7,40.4,91.7,41.5,92.1,38.4"/>
		<path style="clip-path:url(#SVGID_6_);fill-rule:evenodd;clip-rule:evenodd;fill:#A0CD5E;" d="M27.8,24.4
			c6.1,0.2,16.4,6.1,18.5,8.7c2,2.6,8.1,4.2,5.4,5.7c-2.8,1.5-6.5-3.5-6.5-1.7s3.5,5.2,2,7.8c-1.5,2.6-4.4-2.2-8.7-3.3
			c-4.2-1.1,0.2-1.7,1.3-4.4c1.1-2.8-3.5-5.9-9-6.1C25.3,30.8,22.9,24.4,27.8,24.4"/>
		<path style="clip-path:url(#SVGID_6_);fill-rule:evenodd;clip-rule:evenodd;fill:#A0CD5E;" d="M-54.2,35.8
			c3.2,5-3.4,11.6,1.6,12.2c5,0.5,0.8,11.1,5.3,7.7c4.5-3.4,1.9-12.4,11.1-7.7c9.3,4.8,15.3,6.3,20.6,12.7s0.8,15.3,6.3,19.8
			C-3.7,85,2.1,103.8,0,95.1c-2.1-8.7,3.2-6.3,5.3-1.1c2.1,5.3,3.7,4.2,9.5,8.5c5.8,4.2,9.3,2.4,12.7,6.1c3.4,3.7,7.9,2.6,8.2,6.1
			c0.3,3.4-3.4,11.9-1.6,14.5c1.9,2.6,9.5,11.1,7.9,16.9c-1.6,5.8,0.5,19.3-1.9,24.6c-2.4,5.3-1.9,11.4,3.2,13.5
			c5,2.1,2.6-1.1,2.4-6.1c-0.3-5,1.6-12.2,6.6-13.8c5-1.6,1.3-7.7,5.8-6.6c4.5,1.1,2.6-6.6,7.9-9.5c5.3-2.9,10.6-8.2,9-12.7
			c-1.6-4.5,4.5-11.1-2.6-13.5c-7.1-2.4-7.7,0.3-9.5-3.7c-1.9-4-5.6-3.7-11.1-7.1c-5.6-3.4-5-5-12.4-2.9c-7.4,2.1-10.1,3.4-10.1-1.3
			s-2.1-2.4-4.2-3.4c-2.1-1.1,3.2-3.7,0.3-6.3c-2.9-2.6-4.5,7.7-7.9,2.6c-3.4-5-2.1-11.4,2.6-11.9s7.7-1.3,9.8,3.4
			c2.1,4.8,4.2,4.2,2.1,0c-2.1-4.2,0.3-5.8,2.1-7.9c1.9-2.1,3.7-9.5,9.5-11.6c5.8-2.1,11.1-1.9,6.9-4.8c-4.2-2.9,0.5-4.2,4-5
			c3.4-0.8,3.2-2.9-0.8-7.1c-4-4.2-4.8-3.7-7.7-4.8c-2.9-1.1-7.1-7.7-10.3-6.3c-3.2,1.3,2.1,6.6-0.3,10.3c-2.4,3.7-2.4,8.2-5.6,4.2
			c-3.2-4-10.3-6.6-11.9-9.3c-1.6-2.6,1.9-6.6,6.1-9.5c4.2-2.9,10.3-2.6,6.3-5.6c-4-2.9-5.8-1.1-9.3-3.4c-3.4-2.4-9-4.2-5.6,0.8
			c3.4,5-2.6,4.8-7.9,4c-5.3-0.8-19.6-6.3-29.1-2.9c-9.5,3.4-19-0.5-24.6-2.4C-51.6,28.2-58.5,30.6-54.2,35.8 M28.8,96.8
			c2-1.1,6.1-0.1,8.6,0.5c2.5,0.6,1.7,2.1-0.2,2.1C35.4,99.4,28,97.5,28.8,96.8 M25.7,64.6c2.1-0.5,5.7,2.4,7,3.7
			c1.3,1.2-0.2,1.7-1.4,2.8c-1.2,1.1-0.9-1.1-2.1-1.9c-1.2-0.8-2,2.3-2.3,4.2c-0.3,1.9-2.1-0.7-1.6-3.1s1.2-2.6-2.9-3.3
			C18.2,66.3,22,65.5,25.7,64.6 M31.1,72.4c1.7-0.4,2.4,0.8,0.7,1.4C30.1,74.4,28.9,73,31.1,72.4 M33.5,71.1c0-1.7,3.9-0.9,3.6,0.1
			C36.9,72.2,33.3,71.6,33.5,71.1"/>
		<path style="clip-path:url(#SVGID_6_);fill-rule:evenodd;clip-rule:evenodd;fill:#A0CD5E;" d="M57.3,61.3
			c-1.5,1.3-3.3,4.5-1.2,4.6c2.1,0.1,4.1,2.8,5.6,1c1.6-1.8,0.1-2.2-2.3-3C57.1,63.1,59.4,60,57.3,61.3"/>
		<path style="clip-path:url(#SVGID_6_);fill-rule:evenodd;clip-rule:evenodd;fill:#A0CD5E;" d="M41.4,99.2c1.4-1.5,4.8,0.2,4,1.1
			C44.6,101.1,40.5,100,41.4,99.2"/>
		<path style="clip-path:url(#SVGID_6_);fill-rule:evenodd;clip-rule:evenodd;fill:#A0CD5E;" d="M25.3,3.8c-3.4,3.2,2.5,3.9,5.1,3.9
			c2.6,0-3.6,3.6-4.8,6.2c-1.2,2.6-3.9,4.8,2,4.8c5.9,0,7-0.9,9.1-4.3c2.2-3.4,7.4-5.9,11.8-8.7C52.8,2.8,29,0.8,25.3,3.8"/>
		<path style="clip-path:url(#SVGID_6_);fill-rule:evenodd;clip-rule:evenodd;fill:#A0CD5E;" d="M-3.9,24.9
			c-1.9,1.7-2.8,2.7-0.8,3.1c2,0.4,4.5,2.5,2.4,2.3C-4.4,30-5,30.3-1.5,31.6c3.5,1.3,4.7-0.1,7.3,1.2c2.5,1.3,3.6,0.9,4.3-0.4
			c0.7-1.3-0.9-2.3-2.5-4.4c-1.5-2.1,1.1-2.7-0.5-4.3c-1.6-1.6-1.2,0.3-2.3,0.5c-1.1,0.2-0.1,4-1.5,4s-2.1-1.6-3.9-2.5
			C-2.5,24.8-2.5,23.7-3.9,24.9"/>
		<path style="clip-path:url(#SVGID_6_);fill-rule:evenodd;clip-rule:evenodd;fill:#A0CD5E;" d="M-1.9,13.5c0,0.5,4,1.6,4.2,0.1
			C2.5,12.2-1.5,12.1-1.9,13.5"/>
		<path style="clip-path:url(#SVGID_6_);fill-rule:evenodd;clip-rule:evenodd;fill:#A0CD5E;" d="M-4.9,19c-2.2,1.5-2.1,3.3,0.3,2.8
			c2.5-0.5,1.3,1.5,4.3,0.7c2.9-0.8,6.1-0.7,6.7-2.2c0.5-1.5-0.9-0.4-2.2-1.3c-1.3-0.9-1.5-1.9-3-1.8c-1.5,0.1,3.8,2.2,0.4,2.6
			C-1.8,20.3-3.7,17.9-4.9,19"/>
		<path style="clip-path:url(#SVGID_6_);fill-rule:evenodd;clip-rule:evenodd;fill:#A0CD5E;" d="M6.4,11.7c-1.3,1.3-0.6,1.9,1.1,2
			c1.7,0.1,4.1,1.9,4.9,1.6s0.6-1.1-0.8-2.4C10.3,11.6,7.8,10.5,6.4,11.7"/>
		<path style="clip-path:url(#SVGID_6_);fill-rule:evenodd;clip-rule:evenodd;fill:#A0CD5E;" d="M7.8,17.3c-0.8,0.4,0.8,2.3,1.8,2.3
			c1,0.1,2.7-0.3,2.1,0.5c-0.6,0.7-0.5,1.1,1.3,0.9c1.9-0.2,1.7-1.4,1.3-2.7C14,17,10.4,16.7,11,17.8C11.6,18.9,8.6,16.3,7.8,17.3"
			/>
		<path style="clip-path:url(#SVGID_6_);fill-rule:evenodd;clip-rule:evenodd;fill:#A0CD5E;" d="M16.4,19.9c-1.6,1,0.7,2.8,1.8,2
			C19.3,21.1,17.5,19.2,16.4,19.9"/>
		<path style="clip-path:url(#SVGID_6_);fill-rule:evenodd;clip-rule:evenodd;fill:#A0CD5E;" d="M12.2,23.1c-1.5,1,0.4,2.3-0.3,2.7
			c-0.7,0.4-2.5-0.7-2.7-0.3c-0.2,0.4,3,4.1,4.5,2.8c1.5-1.3,0.1-2.1,1.3-3.3C16.2,23.7,13.7,22.4,12.2,23.1"/>
		<path style="clip-path:url(#SVGID_6_);fill-rule:evenodd;clip-rule:evenodd;fill:#A0CD5E;" d="M17.3,27c2,0.9,0.4-0.9,2.3-1.5
			c1.9-0.6,2.6-0.3,2.3-2.2c-0.3-1.9-3.2-1.1-4.6-0.1C15.8,24.1,16.1,26.4,17.3,27"/>
		<path style="clip-path:url(#SVGID_6_);fill-rule:evenodd;clip-rule:evenodd;fill:#A0CD5E;" d="M14.3,12.4
			c-0.7,0.4,2.2,3.5,2.9,2.2C18,13.3,15.2,11.2,14.3,12.4"/>
		<path style="clip-path:url(#SVGID_6_);fill-rule:evenodd;clip-rule:evenodd;fill:#A0CD5E;" d="M18.4,6.9c-1.7,0.7-2,3.1-0.2,3.7
			c1.8,0.7,4.1,1.5,3.1,1.7c-1.1,0.1-2.7,1-1,1.9c1.7,0.9,3-0.7,4-1.9s1.8-1.9-0.5-3.1C21.4,8,19.7,6.2,18.4,6.9"/>
		<path style="clip-path:url(#SVGID_6_);fill-rule:evenodd;clip-rule:evenodd;fill:#A0CD5E;" d="M16.6,16.3c-1.5,0.1-0.6,1,1.4,1.6
			c2,0.6,0.9,1.8,2.6,2.9c1.7,1.1,2.2,0.5,4.5,1.4c2.3,0.9,5.4,0.4,6.3-0.9c0.9-1.3-4.7-0.1-6-0.7C24.1,19.9,18.4,16.5,16.6,16.3"/>
	</g>
	<g style="clip-path:url(#SVGID_2_);">
		<defs>
			<rect id="SVGID_7_" x="-55.5" width="369" height="186.1"/>
		</defs>
		<clipPath id="SVGID_8_">
			<use xlink:href="#SVGID_7_"  style="overflow:visible;"/>
		</clipPath>
		<g style="opacity:0.2;clip-path:url(#SVGID_8_);">
			<g>
				<defs>
					<rect id="SVGID_9_" x="1.8" y="27.5" width="183" height="158.6"/>
				</defs>
				<clipPath id="SVGID_10_">
					<use xlink:href="#SVGID_9_"  style="overflow:visible;"/>
				</clipPath>
				<path style="clip-path:url(#SVGID_10_);fill-rule:evenodd;clip-rule:evenodd;fill:#00B6AE;" d="M157.7,27.5
					c16.8,16.8,27.2,40,27.2,65.7c0,51.3-41.6,92.9-92.9,92.9c-43.4,0-79.9-29.8-90.1-70c16.8,16.8,40.1,27.2,65.7,27.2
					c51.3,0,92.9-41.6,92.9-92.9C160.5,42.5,159.5,34.8,157.7,27.5"/>
			</g>
		</g>
	</g>
</g>
</svg>
