<?xml version="1.0" encoding="utf-8"?>
<!-- Generator: Adobe Illustrator 22.0.1, SVG Export Plug-In . SVG Version: 6.00 Build 0)  -->
<svg version="1.1" id="Layer_1" xmlns="http://www.w3.org/2000/svg" xmlns:xlink="http://www.w3.org/1999/xlink" x="0px" y="0px"
	 viewBox="0 0 9.1 11.8" style="enable-background:new 0 0 9.1 11.8;" xml:space="preserve">
<style type="text/css">
	.st0{fill:#FFFFFF;}
</style>
<g>
	<g>
		<path class="st0" d="M5.7,6.2c0-0.1-0.1,0-0.1-0.1c-0.1,0-0.1,0-0.1-0.1c0,0,0-0.1,0.1-0.1c0-0.1,0.1-0.1,0.1-0.1
			c0,0-0.1,0.1-0.2,0.1C5.3,5.9,5.3,5.9,5.2,6C5.1,6,5.1,6,5.1,6.1c0,0.1-0.1,0-0.2,0c0,0,0-0.1,0-0.3c0-0.1-0.1-0.1-0.1-0.2
			c0,0-0.1,0-0.2,0c-0.1,0,0-0.1,0-0.1c0-0.1,0.1,0,0.2,0c0,0,0-0.1-0.1-0.1c-0.1,0-0.1,0-0.2,0c-0.1,0-0.1,0-0.2,0.1
			c-0.1,0.1-0.1,0-0.2,0.1c-0.1,0.1,0,0.1,0,0.2c0,0.1,0,0.2-0.1,0.3C4.1,6.4,4.1,6.4,4,6.4C3.9,6.5,3.8,6.5,3.7,6.5
			C3.6,6.6,3.7,6.6,3.6,6.7c0,0.1-0.1,0.1-0.1,0.3c-0.1,0.1,0,0.2-0.1,0.4c0,0.1-0.1,0.1-0.3,0.2C3.1,7.6,3,7.7,2.9,7.7
			C2.8,7.9,2.7,7.9,2.5,8.1C2.4,8.2,2.3,8.3,2.1,8.3C2,8.4,1.8,8.5,1.7,8.6c-0.1,0.1-0.2,0-0.3,0c-0.1,0-0.1,0.1-0.2,0.2
			C1.1,8.9,1.1,9,1,9C0.9,9.1,1,9.1,0.9,9.2c0,0.1,0,0.1-0.1,0.1c-0.1,0-0.1,0-0.2,0.1c-0.1,0-0.1,0-0.1,0.1c0,0,0,0-0.1,0.1
			S0.4,9.6,0.4,9.7c0,0.1,0,0.1,0,0.2c0,0.1,0,0.1,0,0.2c0,0.1,0,0-0.1,0C0.2,10,0.2,10,0.1,9.9c-0.1,0-0.1,0-0.1,0.1
			c0,0,0,0.1,0,0.1c0.1,0,0.1,0,0.1,0.1c0,0.1,0,0.1-0.1,0.1c-0.1,0-0.1,0-0.1,0.1c0,0,0,0.1,0,0.1c0,0.1,0.1,0,0.1,0
			c0,0,0,0-0.1,0.1c-0.1,0-0.1,0.1,0,0.1c0,0,0.2,0,0.3,0c0.1,0,0.4-0.1,0.5,0c0.1,0.1,0.1,0.1,0.2,0.2c0.1,0,0.2,0,0.3,0.1
			c0.1,0.1,0,0.1,0.2,0.1c0.1,0,0.2,0,0.3,0c0.1,0,0.2,0,0.4,0c0.1,0,0.2-0.1,0.4-0.3c0.2-0.2,0.1-0.1,0.2-0.2
			c0.1-0.1,0.1-0.1,0.2-0.1c0.1,0,0.2,0,0.2-0.1c0,0,0,0-0.1-0.1c-0.1,0,0,0,0-0.1c0-0.1,0.1-0.2,0.1-0.3c0-0.1,0.2-0.2,0.3-0.4
			c0.1-0.2,0-0.2,0.1-0.4c0-0.2,0-0.2,0.1-0.3c0.1-0.1,0.3-0.1,0.3-0.2C4,8.7,4.1,8.6,4.2,8.6c0.1-0.1,0.2-0.2,0.3-0.2
			c0.1,0,0.1,0.1,0.1,0.1c0,0,0.2,0,0.2,0c0.1,0,0-0.1,0-0.2c0-0.1-0.1,0-0.2,0c-0.1,0-0.1,0-0.1-0.1c0-0.1,0-0.1,0.1-0.2
			C4.8,7.9,4.9,7.8,5,7.7c0.1-0.1,0.2-0.2,0.4-0.5C5.5,7,5.5,7.1,5.5,6.9c0-0.2,0.1-0.2,0.2-0.3c0.1-0.1,0.1,0,0.1-0.1
			c0-0.1-0.1-0.2-0.1-0.2C5.7,6.2,5.7,6.3,5.7,6.2L5.7,6.2z"/>
		<path class="st0" d="M9,2.9c-0.1,0-0.1-0.1-0.2-0.1C8.7,2.8,8.6,2.9,8.5,3C8.4,3.1,8.1,3.2,8,3.2c-0.1,0-0.2-0.1-0.3-0.1
			C7.5,3,7.3,3,7.2,2.9C7.1,2.8,7.1,2.5,7.1,2.4S7,2.1,7,2.1C6.9,2,7,2,6.9,1.9c-0.1,0,0-0.1-0.1-0.1c-0.1,0-0.1,0-0.1,0.1
			C6.8,2,6.8,2,6.8,2.2c0,0.1,0.1,0.3,0,0.2c-0.1,0-0.1,0-0.2-0.1c-0.1-0.1-0.1,0-0.2-0.1c-0.1,0-0.1-0.1-0.1-0.1c0-0.1,0-0.1,0-0.1
			c-0.1-0.1-0.1-0.1,0-0.2c0.1-0.1,0-0.2-0.1-0.2C6.1,1.5,6,1.5,6,1.4c0-0.1,0-0.1-0.1-0.2c-0.1-0.1,0-0.1,0-0.2c0-0.1,0-0.2,0-0.2
			c0,0,0,0-0.1,0c0,0-0.1,0.1-0.1,0c0-0.1,0-0.1,0-0.2c0-0.1,0-0.1-0.1-0.1c-0.1,0-0.2,0-0.2,0c0,0-0.1-0.1-0.1-0.1c0,0,0,0.1,0,0.1
			c0,0-0.1,0-0.1-0.1c0,0,0,0-0.1-0.1c0-0.1-0.1-0.1-0.1-0.1c0,0,0,0,0-0.1c0,0,0.1,0,0-0.1c0,0-0.1,0-0.2,0C4.7,0,4.6,0,4.6,0
			c0,0.1,0,0.1,0.1,0.2c0.1,0,0.1,0.1,0.1,0.1c0,0.1,0,0.1,0.1,0.2C5,0.6,5,0.5,5,0.7c0,0.1,0.1,0.2,0.1,0.3c0.1,0,0.1,0,0.1,0
			c0,0,0-0.1,0.1-0.1c0.1,0,0.1,0.1,0.1,0.1c0,0-0.1,0-0.1,0.1c0,0.1,0,0.1,0.1,0.3c0.1,0.1,0.1,0.1,0.2,0.2c0,0.1,0,0.2,0.1,0.2
			c0,0,0.1,0,0.1,0c0,0,0-0.1,0.1-0.1s0,0.2,0,0.2c0,0,0,0.1,0,0.1c0,0,0.1,0.1,0,0.1c0,0-0.1,0-0.1,0c0,0,0,0.1,0.1,0.2
			c0,0,0,0.1,0.1,0.1C6,2.2,6,2.3,6,2.3c0,0,0.1,0,0.1,0c0,0,0-0.1,0.1-0.1c0.1,0.1,0.1,0.1,0.1,0.1c0,0,0,0.1-0.1,0.1
			c0,0-0.1,0-0.1,0.1c0,0.1,0,0.1,0.1,0.2c0.1,0.1,0.1,0.1,0.1,0.2c0,0.1,0,0.1,0,0.3C6.2,3.3,6.2,3.4,6.2,3.5
			c0,0.1-0.1,0.3-0.1,0.3S6,3.9,5.9,4C5.8,4.1,5.7,4.2,5.6,4.2c-0.1,0-0.1,0.1-0.1,0.1c0,0.1,0,0.2,0.2,0.2C5.8,4.6,5.9,4.7,6,4.8
			c0.1,0.1,0.2,0,0.3,0.1C6.3,4.9,6.4,4.9,6.5,5c0.1,0.1,0.1,0.1,0.1,0.3c0,0.1,0,0.1-0.1,0.3C6.4,5.7,6.4,5.7,6.4,5.9
			C6.3,6.1,6.2,6,6.2,6.1c0,0.1,0.1,0.1,0.1,0.1c0.1,0,0.1,0,0.1,0c0.1,0,0.1,0,0.1,0c0,0.1,0,0.1,0.1,0.1c0.1,0,0.1,0,0.2-0.1
			C6.8,6.2,6.9,6.3,7,6.2c0.1-0.1,0.2,0,0.2-0.2c0.1-0.1,0-0.1,0.2-0.3c0.2-0.2,0.3-0.1,0.3-0.3c0-0.1,0.2-0.3,0.2-0.4
			C7.9,4.9,8,4.8,8,4.7c0-0.1-0.1-0.1-0.1-0.2c0-0.1,0.2-0.3,0.2-0.3c0.1,0,0.2,0,0.3,0c0.1,0,0.1,0.1,0.2,0.1
			c0.1-0.1,0.1-0.1,0.1-0.1c-0.1,0-0.1,0-0.1-0.1c0-0.1,0.1-0.1,0.2-0.2C9,3.7,9,3.7,8.9,3.5c0-0.1-0.1-0.2,0-0.3C9,3.1,9,3.1,9.1,3
			C9.1,3,9.1,2.9,9,2.9L9,2.9z"/>
	</g>
	<path class="st0" d="M1.1,11.5C1,11.5,1,11.5,1,11.4c0,0,0.1,0,0.1-0.1c0-0.1-0.2-0.1-0.2,0c0,0.1,0,0.1,0,0.2
		c0,0.1-0.1,0.1-0.1,0.2c0,0.1,0,0.1,0.1,0.1c0.1,0,0.1-0.1,0.2-0.1c0.1,0,0.2,0,0.2,0C1.1,11.6,1.2,11.5,1.1,11.5L1.1,11.5z"/>
</g>
</svg>
