<?xml version="1.0" encoding="utf-8"?>
<!-- Generator: Adobe Illustrator 22.0.1, SVG Export Plug-In . SVG Version: 6.00 Build 0)  -->
<svg version="1.1" id="Layer_1" xmlns="http://www.w3.org/2000/svg" xmlns:xlink="http://www.w3.org/1999/xlink" x="0px" y="0px"
	 viewBox="0 0 100 100" style="enable-background:new 0 0 100 100;" xml:space="preserve">
<style type="text/css">
	.st0{fill:#FFDC7F;}
	.st1{fill:#FFFFFF;}
	.st2{fill:#FFCA07;}
</style>
<g>
	<path id="XMLID_156_" class="st0" d="M48.9,30.4l-0.1-0.7c-0.1-1.1-1.1-2-2.2-1.9l-21.6,1.7c-1.1,0.1-2,1.1-1.9,2.2L26,68.9l51.4-4
		l-2.7-34.5c-0.1-1.1-1.1-2-2.2-1.9L48.9,30.4z"/>
	
		<rect id="XMLID_154_" x="27" y="33.3" transform="matrix(0.997 -7.715106e-02 7.715106e-02 0.997 -3.7303 4.0602)" class="st1" width="47.4" height="34.1"/>
	<path id="XMLID_149_" class="st2" d="M48.7,37.6l-0.6,2.2L26,41.5c-1.1,0.1-2,1.1-1.9,2.2l2,26.3c0.1,1.1,1.1,2,2.2,1.9l47.3-3.7
		c1.1-0.1,2-1.1,1.9-2.2l-2.3-29.8c-0.1-1.1-1.1-2-2.2-1.9l-22.4,1.7C49.7,36.2,49,36.8,48.7,37.6z"/>
	<g>
		<path class="st0" d="M44.9,41.7l-17.5,1.4c-0.9,0.1-1.6,0.9-1.5,1.8l0.3,3.7C29,46.3,35.4,43.3,44.9,41.7z"/>
	</g>
</g>
</svg>
