<?xml version="1.0" encoding="utf-8"?>
<!-- Generator: Adobe Illustrator 22.0.1, SVG Export Plug-In . SVG Version: 6.00 Build 0)  -->
<svg version="1.1" id="Layer_1" xmlns="http://www.w3.org/2000/svg" xmlns:xlink="http://www.w3.org/1999/xlink" x="0px" y="0px"
	 viewBox="0 0 54.4 44.1" style="enable-background:new 0 0 54.4 44.1;" xml:space="preserve">
<style type="text/css">
	.st0{fill:#FFDC7F;}
	.st1{fill:#FFFFFF;}
	.st2{fill:#FFCA07;}
</style>
<g>
	<path id="XMLID_156_" class="st0" d="M25.8,2.6l-0.1-0.7c-0.1-1.1-1.1-2-2.2-1.9L1.9,1.7C0.8,1.8-0.1,2.8,0,3.9l2.9,37.2l51.4-4
		L51.6,2.6c-0.1-1.1-1.1-2-2.2-1.9L25.8,2.6z"/>
	
		<rect id="XMLID_154_" x="3.9" y="5.5" transform="matrix(0.997 -7.715256e-02 7.715256e-02 0.997 -1.6579 2.1974)" class="st1" width="47.4" height="34.1"/>
	<path id="XMLID_149_" class="st2" d="M25.6,9.8L25,12L2.9,13.7c-1.1,0.1-2,1.1-1.9,2.2l2,26.3c0.1,1.1,1.1,2,2.2,1.9l47.3-3.7
		c1.1-0.1,2-1.1,1.9-2.2L52.1,8.4c-0.1-1.1-1.1-2-2.2-1.9L27.5,8.2C26.6,8.4,25.9,9,25.6,9.8z"/>
	<g>
		<path class="st0" d="M21.8,13.9L4.3,15.3c-0.9,0.1-1.6,0.9-1.5,1.8l0.3,3.7C5.9,18.5,12.3,15.5,21.8,13.9z"/>
	</g>
</g>
</svg>
