<?xml version="1.0" encoding="utf-8"?>
<!-- Generator: Adobe Illustrator 22.0.1, SVG Export Plug-In . SVG Version: 6.00 Build 0)  -->
<svg version="1.1" id="Layer_1" xmlns="http://www.w3.org/2000/svg" xmlns:xlink="http://www.w3.org/1999/xlink" x="0px" y="0px"
	 viewBox="0 0 184 192.5" style="enable-background:new 0 0 184 192.5;" xml:space="preserve">
<style type="text/css">
	.st0{fill:#FFCA07;}
</style>
<g>
	<path class="st0" d="M112.4,104.2H62.8c-1.3,0-2.4-1.1-2.4-2.4v-8.9c0-1.3,1.1-2.4,2.4-2.4h49.6c1.3,0,2.4,1.1,2.4,2.4v8.9
		C114.8,103.2,113.7,104.2,112.4,104.2z"/>
	<path class="st0" d="M95.3,82.3H79.9c-2.5,0-4.5,2-4.5,4.5v6.7h24.3v-6.7C99.8,84.3,97.8,82.3,95.3,82.3z M94.3,88.9
		c-0.2,0.2-0.4,0.2-0.6,0.2H81.5c-0.5,0-0.8-0.4-0.8-0.8c0-0.2,0.1-0.4,0.2-0.6c0.2-0.2,0.4-0.2,0.6-0.2h12.2c0.5,0,0.8,0.4,0.8,0.8
		C94.6,88.5,94.5,88.7,94.3,88.9z"/>
</g>
</svg>
