<?xml version="1.0" encoding="utf-8"?>
<!-- Generator: Adobe Illustrator 22.0.1, SVG Export Plug-In . SVG Version: 6.00 Build 0)  -->
<svg version="1.1" id="Layer_1" xmlns="http://www.w3.org/2000/svg" xmlns:xlink="http://www.w3.org/1999/xlink" x="0px" y="0px"
	 viewBox="0 0 54.4 21.9" style="enable-background:new 0 0 54.4 21.9;" xml:space="preserve">
<style type="text/css">
	.st0{fill:#FFCA07;}
</style>
<g>
	<path class="st0" d="M52,21.9H2.4c-1.3,0-2.4-1.1-2.4-2.4v-8.9c0-1.3,1.1-2.4,2.4-2.4H52c1.3,0,2.4,1.1,2.4,2.4v8.9
		C54.4,20.9,53.3,21.9,52,21.9z"/>
	<path class="st0" d="M34.9,0H19.5C17,0,15,2,15,4.5v6.7h24.3V4.5C39.4,2,37.4,0,34.9,0z M33.9,6.6c-0.2,0.2-0.4,0.2-0.6,0.2H21.1
		c-0.5,0-0.8-0.4-0.8-0.8c0-0.2,0.1-0.4,0.2-0.6c0.2-0.2,0.4-0.2,0.6-0.2h12.2c0.5,0,0.8,0.4,0.8,0.8C34.2,6.2,34.1,6.4,33.9,6.6z"
		/>
</g>
</svg>
