<?xml version="1.0" encoding="utf-8"?>
<!-- Generator: Adobe Illustrator 22.0.1, SVG Export Plug-In . SVG Version: 6.00 Build 0)  -->
<svg version="1.1" id="Layer_1" xmlns="http://www.w3.org/2000/svg" xmlns:xlink="http://www.w3.org/1999/xlink" x="0px" y="0px"
	 viewBox="0 0 184 192.5" style="enable-background:new 0 0 184 192.5;" xml:space="preserve">
<style type="text/css">
	.st0{fill:#055065;}
</style>
<g>
	<g>
		<g>
			<path class="st0" d="M90.7,94.5c0-0.2-0.1-0.1-0.3-0.2c-0.2,0-0.2,0-0.3-0.1c-0.1-0.1,0-0.2,0.1-0.4c0.1-0.2,0.3-0.3,0.2-0.4
				c-0.1,0-0.4,0.1-0.5,0.2c-0.2,0-0.3,0.2-0.5,0.3C89.1,94,89.2,94,89,94.3c-0.1,0.3-0.4,0-0.4-0.1c-0.1-0.1,0.1-0.3,0.1-0.7
				c0-0.3-0.1-0.4-0.2-0.4c-0.1-0.1-0.3,0-0.5-0.1c-0.1-0.1,0-0.2,0.1-0.4c0.1-0.2,0.3,0,0.4-0.1c0.1,0,0-0.1-0.2-0.2
				c-0.2,0-0.3,0-0.6,0c-0.3,0-0.2,0.1-0.4,0.3c-0.2,0.2-0.1,0.1-0.4,0.3c-0.3,0.2-0.1,0.3-0.1,0.6c0,0.4,0,0.5-0.2,0.8
				c-0.1,0.3-0.2,0.3-0.4,0.4c-0.3,0.1-0.3,0.2-0.6,0.3c-0.3,0.1-0.1,0.2-0.2,0.5c-0.1,0.3-0.1,0.3-0.3,0.7
				c-0.1,0.4-0.1,0.6-0.2,0.9c0,0.4-0.4,0.2-0.7,0.5c-0.3,0.3-0.5,0.4-0.7,0.6c-0.4,0.4-0.7,0.5-1.1,0.8c-0.4,0.3-0.6,0.5-1,0.7
				c-0.4,0.2-0.8,0.6-1.1,0.8c-0.3,0.2-0.5,0-0.8,0.1c-0.3,0.1-0.3,0.2-0.5,0.4c-0.2,0.2-0.3,0.3-0.5,0.5c-0.3,0.2-0.1,0.2-0.2,0.4
				c-0.1,0.2,0,0.2-0.2,0.4c-0.2,0.1-0.3,0.1-0.6,0.2c-0.3,0.1-0.2,0.1-0.3,0.2c0,0.1,0,0.1-0.2,0.2c-0.1,0.1-0.2,0.2-0.3,0.3
				c-0.1,0.2,0,0.2,0,0.5c0,0.3,0,0.2,0,0.4c0,0.2-0.1,0-0.2,0c-0.1,0-0.1-0.2-0.3-0.2c-0.2,0-0.2,0.1-0.2,0.2
				c0,0.1-0.1,0.3,0.1,0.3c0.2,0,0.2,0.1,0.3,0.3c0.1,0.2,0,0.2-0.2,0.3c-0.1,0.1-0.3,0.1-0.3,0.2c-0.1,0.1,0,0.2,0,0.3
				c0.1,0.1,0.3,0,0.3,0.1c0,0.1-0.1,0.1-0.2,0.1c-0.1,0.1-0.2,0.1-0.1,0.3c0.1,0.1,0.4,0.1,0.8,0.1c0.3,0,0.9-0.2,1.2,0
				c0.3,0.2,0.3,0.4,0.6,0.4c0.2,0.1,0.5,0,0.8,0.2c0.2,0.2,0.1,0.3,0.4,0.4c0.3,0.1,0.6,0.1,0.9,0c0.3,0,0.6,0,1-0.1
				c0.3-0.1,0.6-0.3,1-0.7c0.4-0.4,0.3-0.4,0.5-0.6c0.2-0.2,0.4-0.2,0.5-0.3c0.2-0.1,0.5-0.1,0.5-0.2s-0.1-0.1-0.2-0.2
				c-0.2-0.1-0.1,0-0.1-0.3c0-0.3,0.3-0.5,0.4-0.7c0.1-0.2,0.6-0.5,0.7-1c0.2-0.5,0.1-0.5,0.2-1c0.1-0.5,0.1-0.4,0.3-0.8
				c0.2-0.4,0.7-0.3,0.8-0.5c0.2-0.2,0.5-0.3,0.7-0.4c0.2-0.1,0.5-0.4,0.8-0.4c0.3,0,0.3,0.2,0.4,0.2c0.1,0,0.5,0.1,0.6,0
				c0.2-0.1,0-0.2-0.1-0.4c-0.1-0.2-0.2-0.1-0.4-0.1c-0.2,0-0.1,0-0.2-0.4c-0.1-0.3,0.1-0.3,0.2-0.6c0.2-0.3,0.4-0.4,0.7-0.7
				c0.2-0.2,0.6-0.6,1.1-1.2c0.4-0.6,0.3-0.4,0.4-0.9c0.1-0.4,0.3-0.4,0.6-0.7c0.3-0.2,0.3-0.1,0.3-0.3c0-0.2-0.2-0.4-0.3-0.6
				C90.7,94.5,90.7,94.6,90.7,94.5L90.7,94.5z"/>
			<path class="st0" d="M99.2,85.9c-0.2,0-0.2-0.3-0.5-0.2c-0.3,0.1-0.6,0.2-0.8,0.4c-0.2,0.3-1,0.6-1.3,0.6c-0.3,0-0.5-0.2-0.9-0.3
				c-0.4-0.2-0.9-0.3-1.1-0.6c-0.3-0.3-0.4-0.9-0.4-1.3s-0.2-0.6-0.3-0.7c-0.1-0.1,0-0.3-0.2-0.4c-0.2-0.1-0.1-0.1-0.3-0.2
				c-0.2-0.1-0.3,0-0.2,0.2c0.1,0.2,0.2,0.2,0.2,0.6c0,0.3,0.2,0.7,0,0.6c-0.2,0-0.3-0.1-0.5-0.3c-0.2-0.2-0.3-0.1-0.5-0.2
				c-0.3-0.1-0.4-0.2-0.4-0.3c0-0.1,0.1-0.2-0.1-0.3c-0.1-0.2-0.2-0.3-0.1-0.4c0.1-0.2,0-0.4-0.2-0.6c-0.2-0.1-0.2-0.1-0.3-0.3
				c-0.1-0.2-0.1-0.3-0.2-0.5c-0.1-0.2-0.1-0.3-0.1-0.6c0-0.3,0-0.5,0-0.6c-0.1-0.1-0.1,0-0.2,0c-0.1,0.1-0.2,0.2-0.4,0
				c-0.1-0.2,0-0.2-0.1-0.4c-0.1-0.2-0.1-0.2-0.3-0.2c-0.3,0-0.5,0.1-0.5-0.1c-0.1-0.1-0.2-0.4-0.3-0.3c-0.1,0.1,0,0.2-0.1,0.3
				c-0.1,0-0.2-0.1-0.3-0.2c-0.1-0.1-0.1-0.1-0.2-0.3c-0.1-0.2-0.2-0.3-0.2-0.4c0-0.1,0-0.1,0.1-0.2c0.1-0.1,0.2-0.1,0.1-0.2
				c-0.1-0.1-0.2-0.1-0.4-0.1c-0.2,0-0.3-0.1-0.3,0.1c0,0.1,0.1,0.3,0.2,0.4c0.1,0.1,0.2,0.1,0.3,0.3c0.1,0.2,0,0.2,0.2,0.4
				c0.2,0.2,0.1,0.1,0.2,0.4c0.1,0.3,0.2,0.6,0.3,0.7c0.2,0.1,0.2,0,0.3-0.1c0-0.1,0-0.2,0.2-0.2c0.2,0,0.2,0.2,0.2,0.2
				c-0.1,0.1-0.2,0-0.1,0.2c0.1,0.2,0,0.4,0.2,0.7c0.2,0.3,0.4,0.3,0.4,0.5c0,0.2,0,0.4,0.2,0.5c0.1,0.1,0.4,0.1,0.4-0.1
				c0-0.1,0.1-0.4,0.4-0.2c0.3,0.2,0.1,0.4,0,0.4c-0.1,0-0.1,0.2-0.1,0.3c0.1,0,0.1,0.2,0.1,0.2c-0.1,0-0.2-0.1-0.3,0
				c-0.1,0.1,0.1,0.4,0.2,0.4c0.1,0.1,0.1,0.2,0.2,0.3c0,0.2,0.1,0.3,0.2,0.4c0.1,0,0.3,0.1,0.3-0.1c0-0.1,0.1-0.3,0.2-0.1
				c0.1,0.2,0.3,0.2,0.3,0.4c0,0.1-0.1,0.2-0.2,0.2c-0.1,0-0.3,0-0.2,0.2c0.1,0.1,0,0.2,0.2,0.5c0.2,0.2,0.3,0.4,0.3,0.6
				c0,0.2,0.1,0.4-0.1,0.7s-0.2,0.6-0.2,0.9c0,0.3-0.2,0.7-0.3,0.9c-0.1,0.1-0.2,0.2-0.5,0.4c-0.3,0.2-0.6,0.4-0.8,0.5
				c-0.2,0.1-0.3,0.2-0.3,0.4c0,0.2,0.1,0.4,0.5,0.6c0.4,0.1,0.6,0.4,0.8,0.5c0.3,0.2,0.4,0.1,0.7,0.2c0.3,0.1,0.4,0.1,0.6,0.4
				c0.2,0.2,0.3,0.4,0.3,0.7c0,0.3,0.1,0.4-0.1,0.7c-0.3,0.4-0.3,0.4-0.5,0.8c-0.2,0.4-0.4,0.4-0.5,0.6c-0.1,0.2,0.2,0.2,0.3,0.2
				c0.2,0,0.2,0,0.4,0.1c0.2,0.1,0.2-0.1,0.3,0.1c0.1,0.1-0.1,0.3,0.2,0.4c0.2,0,0.2,0,0.4-0.2c0.2-0.2,0.3-0.2,0.6-0.4
				c0.3-0.2,0.5-0.1,0.6-0.4c0.1-0.3,0-0.3,0.4-0.8c0.4-0.5,0.7-0.4,0.7-0.7c0-0.4,0.4-0.8,0.6-1.2c0.1-0.3,0.4-0.5,0.3-0.8
				c-0.1-0.3-0.2-0.3-0.2-0.6c0-0.3,0.5-0.7,0.6-0.7c0.2,0,0.6-0.1,0.8,0c0.3,0,0.3,0.3,0.5,0.1c0.2-0.1,0.4-0.2,0.2-0.3
				c-0.1-0.1-0.4-0.1-0.2-0.3c0.1-0.2,0.2-0.3,0.5-0.5c0.3-0.2,0.3-0.3,0.2-0.7c0-0.4-0.1-0.6,0-0.9c0.2-0.3,0.2-0.2,0.2-0.4
				C99.4,86,99.4,85.9,99.2,85.9L99.2,85.9z"/>
		</g>
		<path class="st0" d="M78.7,108.2c-0.2-0.1-0.4-0.1-0.3-0.3c0.1-0.1,0.2-0.1,0.2-0.2c-0.1-0.1-0.5-0.3-0.5-0.1
			c-0.1,0.3,0,0.2-0.1,0.5c-0.1,0.2-0.3,0.2-0.3,0.4c0,0.3,0,0.3,0.1,0.2c0.2-0.1,0.2-0.1,0.4-0.2c0.2-0.1,0.5,0,0.5-0.1
			C78.8,108.4,78.9,108.3,78.7,108.2L78.7,108.2z"/>
	</g>
</g>
</svg>
