<?xml version="1.0" encoding="utf-8"?>
<!-- Generator: Adobe Illustrator 22.0.1, SVG Export Plug-In . SVG Version: 6.00 Build 0)  -->
<svg version="1.1" id="Layer_1" xmlns="http://www.w3.org/2000/svg" xmlns:xlink="http://www.w3.org/1999/xlink" x="0px" y="0px"
	 viewBox="0 0 61.5 54.5" style="enable-background:new 0 0 61.5 54.5;" xml:space="preserve">
<style type="text/css">
	.st0{fill:#FFCA07;}
	.st1{fill:#A0CE5E;}
	.st2{fill:#055065;}
	.st3{fill:#C3E4E1;}
	.st4{fill:#6A8091;}
	.st5{fill:#FFFFFF;}
</style>
<g>
	<path class="st0" d="M21.9,12.2c0.5-0.6,0.8-1.3,0.8-2.2c0-1.8-1.5-3.3-3.3-3.3c-1.8,0-3.3,1.5-3.3,3.3c0,0.4,0.1,0.8,0.2,1.2
		l-5.4,3.7c-0.7-0.7-1.7-1.1-2.7-1.1L6.9,8.3C8.2,7.5,9,6.1,9,4.5C9,2,7,0,4.5,0S0,2,0,4.5C0,7,2,9,4.5,9c0.1,0,0.1,0,0.2,0l1.2,5.3
		c-1.4,0.8-2.4,2.2-2.4,4c0,2.5,2,4.5,4.5,4.5c2.5,0,4.5-2,4.5-4.5c0-0.5-0.1-0.9-0.2-1.4l5.8-4c0.4,0.2,0.9,0.4,1.5,0.4
		c0.1,0,0.2,0,0.3,0l1.3,4.5l2.3-0.6L21.9,12.2z M4.5,6.6c-1.2,0-2.1-1-2.1-2.1c0-1.2,1-2.1,2.1-2.1c1.2,0,2.1,1,2.1,2.1
		C6.6,5.7,5.7,6.6,4.5,6.6z M7.9,20.4c-1.2,0-2.1-1-2.1-2.1s1-2.1,2.1-2.1c1.2,0,2.1,1,2.1,2.1S9.1,20.4,7.9,20.4z M19.4,10.9
		c-0.5,0-0.9-0.4-0.9-1c0-0.5,0.4-0.9,0.9-0.9c0.5,0,0.9,0.4,0.9,0.9C20.4,10.5,19.9,10.9,19.4,10.9z"/>
	<path class="st0" d="M55.2,37.9c0-0.1,0.1-0.1,0.1-0.2c0.4,0.1,0.7,0.2,1.1,0.2c2.2,0,4-1.8,4-4c0-2.2-1.8-4-4-4
		c-0.1,0-0.1,0-0.2,0l-3.8-6.5c1.3-1.1,2.1-2.7,2.1-4.6c0-1.4-0.5-2.6-1.2-3.6l3.6-3.5c0.4,0.2,0.8,0.2,1.2,0.2
		c1.8,0,3.3-1.5,3.3-3.3c0-1.8-1.5-3.3-3.3-3.3c-1.8,0-3.3,1.5-3.3,3.3c0,0.5,0.1,1,0.3,1.5l-3.6,3.6c-0.9-0.5-1.9-0.8-2.9-0.8
		c-3.3,0-6,2.7-6,6c0,0.7,0.1,1.4,0.4,2.1L40,22.7l1.6,1.8l2.7-1.6c1.1,1.1,2.6,1.9,4.3,1.9c0.6,0,1.2-0.1,1.7-0.3l3.7,6.2
		c-1,0.7-1.6,1.9-1.6,3.2c0,1,0.4,1.8,0.9,2.5 M58.2,7.7c0.5,0,0.9,0.4,0.9,0.9c0,0.5-0.4,0.9-0.9,0.9c-0.5,0-0.9-0.4-0.9-0.9
		C57.2,8.1,57.7,7.7,58.2,7.7z M56.4,32.3c0.9,0,1.6,0.7,1.6,1.6c0,0.9-0.7,1.6-1.6,1.6c-0.9,0-1.6-0.7-1.6-1.6
		C54.8,33,55.5,32.3,56.4,32.3z M48.6,22.4c-2,0-3.6-1.6-3.6-3.6c0-2,1.6-3.6,3.6-3.6s3.6,1.6,3.6,3.6
		C52.2,20.8,50.6,22.4,48.6,22.4z"/>
	<g>
		<g>
			<g>
				<rect x="35.4" y="13.4" class="st1" width="3.5" height="8.8"/>
			</g>
			<g>
				<path class="st2" d="M39.2,13.8h-4.1c-0.2,0-0.4-0.2-0.4-0.4v-0.9c0-0.2,0.2-0.4,0.4-0.4h4.1c0.2,0,0.4,0.2,0.4,0.4v0.9
					C39.6,13.7,39.4,13.8,39.2,13.8z"/>
			</g>
			<g>
				<rect x="35.4" y="15.3" class="st2" width="3.5" height="0.3"/>
			</g>
			<g>
				<rect x="37" y="13.4" class="st2" width="0.3" height="2.1"/>
			</g>
			<g>
				<rect x="37" y="17" class="st2" width="0.3" height="1.9"/>
			</g>
			<g>
				<rect x="35.4" y="17" class="st2" width="3.5" height="0.3"/>
			</g>
			<g>
				<rect x="35.4" y="18.8" class="st2" width="3.5" height="0.3"/>
			</g>
			<g>
				<rect x="35.4" y="20.3" class="st2" width="3.5" height="0.3"/>
			</g>
		</g>
		<g>
			<polygon class="st1" points="26.5,11.2 13.9,23.8 13.9,27.4 13.9,44 40.6,44 40.6,27.4 40.6,25 			"/>
		</g>
		<g>
			<rect x="12.8" y="44" class="st2" width="28.9" height="2.1"/>
		</g>
		<g>
			<rect x="17.2" y="30.6" class="st3" width="10.3" height="8.6"/>
		</g>
		<g>
			<rect x="31.1" y="30.2" class="st2" width="6.8" height="13.8"/>
		</g>
		<g>
			<rect x="31.6" y="31.1" class="st4" width="5.7" height="12.2"/>
		</g>
		<g>
			<path class="st2" d="M38.1,30.6h-7.2c-0.2,0-0.3-0.1-0.3-0.3v-0.6c0-0.2,0.1-0.3,0.3-0.3h7.2c0.2,0,0.3,0.1,0.3,0.3v0.6
				C38.4,30.4,38.2,30.6,38.1,30.6z"/>
		</g>
		<g>
			<path class="st2" d="M26.6,10.3l-14,13.6c-0.6,0.5-0.2,1.5,0.6,1.5l0,0c0.2,0,0.4-0.1,0.6-0.2L26.7,13c0.3-0.3,0.9-0.3,1.2,0
				l12.8,12.1c0.2,0.2,0.4,0.2,0.6,0.2l0,0c0.8,0,1.2-0.9,0.6-1.5l-14-13.6C27.5,10,27,10,26.6,10.3z"/>
		</g>
		<g>
			<rect x="17" y="30.2" class="st2" width="10.9" height="0.4"/>
		</g>
		<g>
			<g>
				<g>
					<g>
						<rect x="19.8" y="30.6" class="st2" width="0.3" height="7.8"/>
					</g>
				</g>
				<g>
					<g>
						<rect x="22.2" y="30.6" class="st2" width="0.3" height="7.8"/>
					</g>
				</g>
				<g>
					<g>
						<rect x="24.7" y="30.6" class="st2" width="0.3" height="7.8"/>
					</g>
				</g>
			</g>
			<g>
				<g>
					<rect x="17.2" y="34.7" class="st2" width="10.3" height="0.3"/>
				</g>
			</g>
		</g>
		<g>
			<g>
				<ellipse transform="matrix(0.1644 -0.9864 0.9864 0.1644 2.7358 43.8549)" class="st3" cx="27.3" cy="20.3" rx="2.6" ry="2.6"/>
			</g>
			<g>
				<g>
					<path class="st2" d="M27.3,23.3c-1.7,0-3-1.4-3-3c0-1.7,1.4-3,3-3c1.7,0,3,1.4,3,3C30.3,22,28.9,23.3,27.3,23.3z M27.3,18
						c-1.3,0-2.3,1-2.3,2.3c0,1.3,1,2.3,2.3,2.3c1.3,0,2.3-1,2.3-2.3C29.5,19.1,28.5,18,27.3,18z"/>
				</g>
			</g>
			<g>
				<rect x="26.9" y="17.8" class="st2" width="0.7" height="5"/>
			</g>
			<g>
				
					<rect x="26.9" y="17.8" transform="matrix(-1.836970e-16 1 -1 -1.836970e-16 47.5642 -6.9386)" class="st2" width="0.7" height="5"/>
			</g>
		</g>
		<g>
			<path class="st1" d="M18.5,39.2c-0.5-0.1-0.8-0.5-0.9-1c0-0.1,0-0.2,0-0.2c0.1-0.2,0.3-0.2,0.5-0.2c0.2,0,0.3,0.1,0.5,0.2
				c-0.4-0.5-0.7-1.2-0.4-1.7c0.1-0.2,0.2-0.3,0.4-0.3c0.2,0,0.3,0.2,0.4,0.3c0.2,0.4,0.5,0.8,0.6,1.2c0.1-0.4,0.2-0.9,0.6-1.1
				c0.1,0,0.1-0.1,0.2-0.1c0.1,0,0.1,0,0.2,0.1c0.3,0.3,0.3,0.8,0.2,1.3c0.1-0.3,0.5-0.4,0.8-0.3c0.3,0.1,0.4,0.4,0.5,0.7
				c0.1,0.2,0,0.5-0.1,0.7c-0.1,0.2-0.4,0.4-0.6,0.4"/>
		</g>
		<g>
			<path class="st1" d="M22.3,38.8c-0.1,0-0.1-0.1-0.2-0.2c-0.1-0.3-0.1-0.7,0.2-0.9c0.2-0.1,0.4-0.1,0.6,0c0.2,0.1,0.4,0.2,0.5,0.3
				c0-0.3,0.1-0.6,0.3-0.8c0.2-0.2,0.6-0.3,0.8-0.1c0.2,0.2,0.2,0.5,0.5,0.6c0-0.2,0-0.4,0-0.6c0-0.2,0-0.4,0.2-0.5
				c0.2-0.2,0.6,0,0.7,0.2c0.1,0.2,0.1,0.6,0.1,0.8c0.1-0.2,0.2-0.4,0.3-0.4c0.2,0,0.3,0.1,0.4,0.2c0.3,0.4,0.2,1-0.1,1.3"/>
		</g>
		<g>
			<path class="st2" d="M17.3,38.4h10.2c0.4,0,0.6,0.3,0.6,0.6v1.1c0,0.4-0.3,0.6-0.6,0.6H17.3c-0.4,0-0.6-0.3-0.6-0.6v-1.1
				C16.6,38.7,16.9,38.4,17.3,38.4z"/>
		</g>
	</g>
	<path class="st0" d="M56.1,37.1l-1.8-1.6l-11.9,8.8c-1.9-2.1-5-2.8-7.6-1.3c-3,1.6-4.1,5.4-2.5,8.4c1.6,3,5.4,4.1,8.4,2.5
		c2.7-1.5,3.8-4.6,2.9-7.4L56.1,37.1z"/>
	<path class="st5" d="M39.6,51.7c-1.8,1-4.2,0.3-5.2-1.5c-1-1.8-0.3-4.2,1.5-5.2c1.8-1,4.2-0.3,5.2,1.5
		C42.1,48.4,41.5,50.7,39.6,51.7z"/>
</g>
</svg>
