<?xml version="1.0" encoding="utf-8"?>
<!-- Generator: Adobe Illustrator 22.0.1, SVG Export Plug-In . SVG Version: 6.00 Build 0)  -->
<svg version="1.1" id="Layer_1" xmlns="http://www.w3.org/2000/svg" xmlns:xlink="http://www.w3.org/1999/xlink" x="0px" y="0px"
	 viewBox="0 0 93.4 47.7" style="enable-background:new 0 0 93.4 47.7;" xml:space="preserve">
<style type="text/css">
	.st0{fill:#00B6AE;}
	.st1{fill:#F8F8F8;}
	.st2{fill:#025064;}
	.st3{fill:#D1D1D1;}
	.st4{fill-rule:evenodd;clip-rule:evenodd;fill:#A0CD5E;}
	.st5{fill-rule:evenodd;clip-rule:evenodd;fill:#025064;}
	.st6{fill-rule:evenodd;clip-rule:evenodd;fill:#FFFFFF;}
</style>
<g>
	<g>
		<g>
			<path class="st0" d="M6.3,31.2c0,0.1,0.2,0.2,0.3,0.2l20.1-4.8c0.1,0,0.2-0.2,0.2-0.3l-6.3-26c0-0.1-0.2-0.2-0.3-0.2L0.2,4.8
				C0.1,4.9,0,5,0,5.2L6.3,31.2z"/>
			<rect x="4.5" y="3.8" transform="matrix(0.9723 -0.2338 0.2338 0.9723 -3.2967 3.5839)" class="st1" width="18" height="23.9"/>
			<g>
				<path class="st2" d="M5.5,2.8l0.2,1C5.8,3.9,5.9,4,6.1,4l8.7-2.1c0.1,0,0.2-0.2,0.2-0.3l-0.2-1c0-0.1-0.2-0.2-0.3-0.2l-3.1,0.8
					c0-0.1,0-0.1,0-0.2C11.1,0.3,10.4-0.1,9.7,0C9,0.2,8.6,0.9,8.8,1.6c0,0.1,0,0.1,0.1,0.2L5.7,2.5C5.6,2.5,5.5,2.7,5.5,2.8z
					 M9.4,1.4C9.3,1,9.5,0.7,9.8,0.6c0.3-0.1,0.7,0.1,0.7,0.5c0.1,0.3-0.1,0.7-0.5,0.7C9.8,1.9,9.5,1.7,9.4,1.4z"/>
			</g>
			<g>
				<g>
					<path class="st0" d="M5.4,7.9l0.9-0.2L6.1,6.9c0-0.1,0-0.1,0.1-0.2l0.6-0.1c0.1,0,0.1,0,0.2,0.1l0.2,0.9L8,7.3
						c0.1,0,0.1,0,0.2,0.1L8.3,8c0,0.1,0,0.1-0.1,0.2L7.3,8.4l0.2,0.9c0,0.1,0,0.1-0.1,0.2L6.8,9.5c-0.1,0-0.1,0-0.2-0.1L6.5,8.6
						L5.6,8.8c-0.1,0-0.1,0-0.2-0.1L5.3,8.1C5.3,8,5.3,7.9,5.4,7.9z"/>
					
						<rect x="4.5" y="10.2" transform="matrix(0.9723 -0.2338 0.2338 0.9723 -2.2689 2.024)" class="st3" width="5.7" height="0.8"/>
				</g>
				<g>
					
						<rect x="5.3" y="12.8" transform="matrix(0.9723 -0.2338 0.2338 0.9723 -2.7382 3.3776)" class="st3" width="15.1" height="0.8"/>
					
						<rect x="5.8" y="15" transform="matrix(0.9723 -0.2338 0.2338 0.9723 -3.2337 3.5606)" class="st3" width="15.1" height="0.8"/>
					
						<rect x="6.4" y="17.2" transform="matrix(0.9723 -0.2338 0.2338 0.9723 -3.7291 3.7437)" class="st3" width="15.1" height="0.8"/>
					
						<rect x="6.9" y="19.4" transform="matrix(0.9723 -0.2338 0.2338 0.9723 -4.2246 3.9267)" class="st3" width="15.1" height="0.8"/>
					
						<rect x="7.4" y="21.6" transform="matrix(0.9723 -0.2338 0.2338 0.9723 -4.7199 4.1097)" class="st3" width="15.1" height="0.8"/>
				</g>
			</g>
		</g>
		<g>
			<path class="st2" d="M11.5,31.6c0.1,0.1,0.2,0.1,0.3,0.1l0.5-0.3c0.1-0.1,0.1-0.2,0.1-0.4L5,21c-0.1-0.1-0.2-0.1-0.3-0.1
				l-0.5,0.3c-0.1,0.1-0.1,0.2-0.1,0.4L11.5,31.6z"/>
			<g>
				<path class="st2" d="M5.5,23.7c0.1,0.1,0.2,0.1,0.3,0.1l0.7-0.5c0.1-0.1,0.1-0.2,0.1-0.4l-2.5-3.3c-0.1-0.1-0.2-0.1-0.3-0.1
					L3.1,20C3,20.1,2.9,20.3,3,20.4L5.5,23.7z"/>
			</g>
		</g>
	</g>
	<g>
		<path class="st4" d="M88.6,0.5L88.6,0.5c1.6,1,2.1,3.2,1.1,4.8l-9.5,14.9c-1,1.6-3.2,2.1-4.8,1.1h0c-1.6-1-2.1-3.2-1.1-4.8
			l9.5-14.9C84.8,0,87-0.5,88.6,0.5z"/>
		<rect x="23" y="28.7" class="st5" width="70.4" height="2.9"/>
		<path class="st5" d="M93.4,2.8v27.4c0,0.8-0.7,1.4-1.4,1.4h0c-0.8,0-1.4-0.7-1.4-1.4V2.8c0-0.8,0.7-1.4,1.4-1.4h0
			C92.7,1.3,93.4,2,93.4,2.8z"/>
		<path class="st4" d="M90.5,25.3L90.5,25.3c0,1.9-1.6,3.5-3.5,3.5H34.8c-1.9,0-3.5-1.6-3.5-3.5l0,0c0-1.9,1.6-3.5,3.5-3.5l52.2,0
			C88.9,21.8,90.5,23.3,90.5,25.3z"/>
		<g>
			<g>
				<rect x="43.7" y="29.7" class="st5" width="1.7" height="15.5"/>
				<rect x="70.9" y="29.7" class="st5" width="1.7" height="15.5"/>
			</g>
			<rect x="43.7" y="41.9" class="st5" width="29" height="1.8"/>
			<path class="st4" d="M44.5,47.7c1.8,0,3.2-1.4,3.2-3.2c0-1.8-1.4-3.2-3.2-3.2c-1.8,0-3.2,1.4-3.2,3.2
				C41.3,46.2,42.8,47.7,44.5,47.7z"/>
			<circle class="st6" cx="44.5" cy="44.5" r="1.5"/>
			<path class="st4" d="M71.8,47.7c1.8,0,3.2-1.4,3.2-3.2c0-1.8-1.4-3.2-3.2-3.2c-1.8,0-3.2,1.4-3.2,3.2
				C68.6,46.2,70,47.7,71.8,47.7z"/>
			<path class="st6" d="M71.8,45.9c0.8,0,1.5-0.7,1.5-1.5c0-0.8-0.7-1.5-1.5-1.5c-0.8,0-1.5,0.7-1.5,1.5
				C70.3,45.3,71,45.9,71.8,45.9z"/>
		</g>
		<path class="st5" d="M25.9,17v13.2c0,0.8-0.7,1.4-1.4,1.4l0,0c-0.8,0-1.4-0.7-1.4-1.4V17c0-0.8,0.7-1.4,1.4-1.4l0,0
			C25.2,15.6,25.9,16.2,25.9,17z"/>
		<path class="st4" d="M58.3,14.8v14l-32.5,0v-8.7c0-2.6,5.4-5.3,8.8-5.3H58.3z"/>
		<path class="st2" d="M38.3,15.6h23.4c1.6,0,3,0.6,4,1.7c1,1,1.7,2.4,1.7,4v8.8h-1.9v-8.8c0-1-0.4-1.9-1.1-2.6
			c-0.7-0.7-1.6-1.1-2.6-1.1H38.3c-1,0-1.9,0.4-2.6,1.1c-0.7,0.7-1.1,1.6-1.1,2.6v8.8h-1.9v-8.8c0-1.6,0.6-3,1.7-4
			C35.3,16.3,36.7,15.6,38.3,15.6z"/>
		<rect x="36.7" y="16.7" class="st2" width="1.9" height="13.4"/>
		<rect x="40.8" y="16.7" class="st2" width="1.9" height="13.4"/>
		<rect x="44.9" y="16.7" class="st2" width="1.9" height="13.4"/>
		<rect x="49" y="16.7" class="st2" width="1.9" height="13.4"/>
		<rect x="53.1" y="16.7" class="st2" width="1.9" height="13.4"/>
		<rect x="57.2" y="16.7" class="st2" width="1.9" height="13.4"/>
		<rect x="61.3" y="16.7" class="st2" width="1.9" height="13.4"/>
	</g>
</g>
</svg>
