<?xml version="1.0" encoding="utf-8"?>
<!-- Generator: Adobe Illustrator 22.0.1, SVG Export Plug-In . SVG Version: 6.00 Build 0)  -->
<svg version="1.1" id="Layer_1" xmlns="http://www.w3.org/2000/svg" xmlns:xlink="http://www.w3.org/1999/xlink" x="0px" y="0px"
	 viewBox="0 0 78.2 52.9" style="enable-background:new 0 0 78.2 52.9;" xml:space="preserve">
<style type="text/css">
	.st0{fill-rule:evenodd;clip-rule:evenodd;fill:#A0CD5E;}
	.st1{fill-rule:evenodd;clip-rule:evenodd;fill:#025064;}
	.st2{fill-rule:evenodd;clip-rule:evenodd;fill:#FFFFFF;}
	.st3{fill:#025064;}
</style>
<g>
	<path class="st0" d="M72.8,0.6L72.8,0.6c1.8,1.1,2.3,3.5,1.2,5.3L63.5,22.4c-1.1,1.8-3.5,2.3-5.3,1.2h0c-1.8-1.1-2.3-3.5-1.2-5.3
		L67.5,1.8C68.7,0,71.1-0.5,72.8,0.6z"/>
	<rect y="31.9" class="st1" width="78.2" height="3.2"/>
	<path class="st1" d="M78.2,3.1v30.4c0,0.9-0.7,1.6-1.6,1.6h0c-0.9,0-1.6-0.7-1.6-1.6V3.1c0-0.9,0.7-1.6,1.6-1.6h0
		C77.5,1.5,78.2,2.2,78.2,3.1z"/>
	<path class="st0" d="M75,28L75,28c0,2.1-1.7,3.9-3.9,3.9H13.2c-2.1,0-3.9-1.7-3.9-3.9l0,0c0-2.1,1.7-3.9,3.9-3.9l57.9,0
		C73.2,24.2,75,25.9,75,28z"/>
	<g>
		<g>
			<rect x="23" y="33" class="st1" width="1.9" height="17.2"/>
			<rect x="53.3" y="33" class="st1" width="1.9" height="17.2"/>
		</g>
		<rect x="23" y="46.5" class="st1" width="32.2" height="2"/>
		<path class="st0" d="M24,52.9c2,0,3.6-1.6,3.6-3.6c0-2-1.6-3.6-3.6-3.6c-2,0-3.6,1.6-3.6,3.6C20.4,51.3,22,52.9,24,52.9z"/>
		<circle class="st2" cx="24" cy="49.4" r="1.6"/>
		<path class="st0" d="M54.2,52.9c2,0,3.6-1.6,3.6-3.6c0-2-1.6-3.6-3.6-3.6c-2,0-3.6,1.6-3.6,3.6C50.7,51.3,52.3,52.9,54.2,52.9z"/>
		<path class="st2" d="M54.2,51c0.9,0,1.6-0.7,1.6-1.6c0-0.9-0.7-1.6-1.6-1.6c-0.9,0-1.6,0.7-1.6,1.6C52.6,50.3,53.3,51,54.2,51z"/>
	</g>
	<path class="st1" d="M3.2,18.9v14.6c0,0.9-0.7,1.6-1.6,1.6l0,0c-0.9,0-1.6-0.7-1.6-1.6V18.9c0-0.9,0.7-1.6,1.6-1.6l0,0
		C2.5,17.3,3.2,18,3.2,18.9z"/>
	<path class="st0" d="M39.3,16.4v15.5l-36,0v-9.6c0-2.9,6-5.9,9.7-5.9H39.3z"/>
	<path class="st3" d="M17,17.4h26c1.7,0,3.3,0.7,4.4,1.8c1.1,1.1,1.8,2.7,1.8,4.4v9.8h-2.1v-9.8c0-1.1-0.5-2.2-1.2-2.9
		c-0.7-0.7-1.8-1.2-2.9-1.2H17c-1.1,0-2.2,0.5-2.9,1.2c-0.7,0.7-1.2,1.8-1.2,2.9v9.8h-2.1v-9.8c0-1.7,0.7-3.3,1.8-4.4
		C13.7,18.1,15.3,17.4,17,17.4z"/>
	<rect x="15.3" y="18.6" class="st3" width="2.1" height="14.8"/>
	<rect x="19.8" y="18.6" class="st3" width="2.1" height="14.8"/>
	<rect x="24.4" y="18.6" class="st3" width="2.1" height="14.8"/>
	<rect x="28.9" y="18.6" class="st3" width="2.1" height="14.8"/>
	<rect x="33.5" y="18.6" class="st3" width="2.1" height="14.8"/>
	<rect x="38" y="18.6" class="st3" width="2.1" height="14.8"/>
	<rect x="42.5" y="18.6" class="st3" width="2.1" height="14.8"/>
</g>
</svg>
