<?xml version="1.0" encoding="utf-8"?>
<!-- Generator: Adobe Illustrator 22.0.1, SVG Export Plug-In . SVG Version: 6.00 Build 0)  -->
<svg version="1.1" id="Layer_1" xmlns="http://www.w3.org/2000/svg" xmlns:xlink="http://www.w3.org/1999/xlink" x="0px" y="0px"
	 viewBox="0 0 181.6 185.1" style="enable-background:new 0 0 181.6 185.1;" xml:space="preserve">
<style type="text/css">
	.st0{fill-rule:evenodd;clip-rule:evenodd;fill:#A0CD5E;}
	.st1{fill-rule:evenodd;clip-rule:evenodd;fill:#025064;}
	.st2{fill-rule:evenodd;clip-rule:evenodd;fill:#FFFFFF;}
	.st3{fill:#025064;}
	.st4{fill:#4B8391;}
	.st5{fill:#5ED1CD;}
	.st6{fill:none;stroke:#212237;stroke-width:0.6206;stroke-miterlimit:10;}
	.st7{fill:#FFFFFF;}
	.st8{fill:#00B7AF;}
	.st9{fill:#BFEDEB;}
	.st10{fill:#EDF3F0;}
	.st11{fill:none;stroke:#025064;stroke-width:1.5516;stroke-miterlimit:10;}
	.st12{fill:#1B2C1F;}
	.st13{fill:#E9E8E6;}
	.st14{fill:#BD7157;}
	.st15{fill:#C78771;}
	.st16{fill:#212237;}
	.st17{fill:#A1CE5E;}
</style>
<g>
	<g>
		<path class="st0" d="M169.9,64.3L169.9,64.3c3.9,2.5,5.1,7.7,2.6,11.6l-23,36.1c-2.5,3.9-7.7,5.1-11.6,2.6h0
			c-3.9-2.5-5.1-7.7-2.6-11.6l23-36.1C160.7,63,166,61.8,169.9,64.3z"/>
		<rect x="10.6" y="132.7" class="st1" width="171" height="7"/>
		<path class="st1" d="M181.6,69.7v66.5c0,1.9-1.6,3.5-3.5,3.5h0c-1.9,0-3.5-1.6-3.5-3.5V69.7c0-1.9,1.6-3.5,3.5-3.5h0
			C180,66.2,181.6,67.8,181.6,69.7z"/>
		<path class="st0" d="M174.5,124.3L174.5,124.3c0,4.6-3.8,8.4-8.4,8.4H39.4c-4.6,0-8.4-3.8-8.4-8.4l0,0c0-4.6,3.8-8.4,8.4-8.4
			l126.7,0C170.8,115.9,174.5,119.7,174.5,124.3z"/>
		<g>
			<g>
				<rect x="60.9" y="135.2" class="st1" width="4.2" height="37.5"/>
				<rect x="127.1" y="135.2" class="st1" width="4.2" height="37.5"/>
			</g>
			<rect x="60.9" y="164.7" class="st1" width="70.5" height="4.3"/>
			<path class="st0" d="M63,178.7c4.3,0,7.8-3.5,7.8-7.8c0-4.3-3.5-7.8-7.8-7.8c-4.3,0-7.8,3.5-7.8,7.8
				C55.2,175.2,58.7,178.7,63,178.7z"/>
			<circle class="st2" cx="63" cy="170.9" r="3.6"/>
			<path class="st0" d="M129.2,178.7c4.3,0,7.8-3.5,7.8-7.8c0-4.3-3.5-7.8-7.8-7.8c-4.3,0-7.8,3.5-7.8,7.8
				C121.4,175.2,124.9,178.7,129.2,178.7z"/>
			<path class="st2" d="M129.2,174.5c2,0,3.6-1.6,3.6-3.6c0-2-1.6-3.6-3.6-3.6c-2,0-3.6,1.6-3.6,3.6
				C125.6,172.9,127.2,174.5,129.2,174.5z"/>
		</g>
		<path class="st1" d="M17.6,104.3v32c0,1.9-1.6,3.5-3.5,3.5l0,0c-1.9,0-3.5-1.6-3.5-3.5v-32c0-1.9,1.6-3.5,3.5-3.5l0,0
			C16,100.8,17.6,102.4,17.6,104.3z"/>
		<path class="st0" d="M96.4,98.9v33.9l-78.8,0v-21c0-6.4,13.1-12.8,21.3-12.8H96.4z"/>
		<path class="st3" d="M47.8,100.9h56.8c3.8,0,7.2,1.5,9.7,4c2.5,2.5,4,5.9,4,9.7V136h-4.7v-21.4c0-2.5-1-4.7-2.6-6.4
			c-1.6-1.6-3.9-2.6-6.4-2.6H47.8c-2.5,0-4.7,1-6.4,2.6c-1.6,1.6-2.6,3.9-2.6,6.4V136h-4.7v-21.4c0-3.8,1.5-7.2,4-9.7
			C40.6,102.5,44,100.9,47.8,100.9z"/>
		<rect x="44" y="103.6" class="st3" width="4.7" height="32.4"/>
		<rect x="53.9" y="103.6" class="st3" width="4.7" height="32.4"/>
		<rect x="63.9" y="103.6" class="st3" width="4.7" height="32.4"/>
		<rect x="73.8" y="103.6" class="st3" width="4.7" height="32.4"/>
		<rect x="83.7" y="103.6" class="st3" width="4.7" height="32.4"/>
		<rect x="93.7" y="103.6" class="st3" width="4.7" height="32.4"/>
		<rect x="103.6" y="103.6" class="st3" width="4.7" height="32.4"/>
	</g>
	<g>
		<path class="st3" d="M24.3,10.5c-1.3-0.2-2.7-0.2-4,0.1c-2.5,0.6-6.7,2.2-8.4,6.4c-0.6,1.5-1.4,2.8-2.2,3.9
			c-3,4.3,0.1,10.2,5.3,10.3l11.2,0.1c4.3,0,7.7-3.6,7.2-7.9C32.7,18.1,30.6,11.7,24.3,10.5z"/>
		<g>
			<path class="st3" d="M4.9,185.1h15.6l0.1-4.5h-9.4c-1.7,0-3.3,0.5-4.6,1.5C4.7,183.6,4.9,185.1,4.9,185.1z"/>
			<polygon class="st4" points="11.1,96.4 11.6,180.6 20.7,180.6 23.1,94.9 			"/>
		</g>
		<g>
			<path class="st3" d="M36.4,180.6h-9.5l0.2,4.5h15.6c0,0,0.2-1.5-1.7-3C39.7,181.1,38,180.6,36.4,180.6z"/>
			<polygon class="st4" points="35.2,96.4 23.1,94.9 26.9,180.6 36,180.6 			"/>
		</g>
		<path class="st5" d="M41.9,130.3l-5.9-71.2c0-3.6,1.8-23.5-12.9-23.5c-8.5,0-13.7,3-13.3,13.6c0.4,11.9-3.6,81.1-3.6,81.1H41.9z"
			/>
		<g>
			<path class="st6" d="M22.9,34.2L22.9,34.2c-0.7,0-6.6,0.4-6.6,6.1c0,5.6,6,14.1,6.7,15c0.7-0.8,6.6-9.3,6.6-15
				C29.6,34.7,23.6,34.3,22.9,34.2z"/>
			<rect x="19.2" y="55.9" class="st7" width="7.4" height="4.4"/>
			<line class="st6" x1="22.9" y1="55.2" x2="22.9" y2="56.5"/>
			<rect x="20" y="57" class="st8" width="1.7" height="1.7"/>
			<rect x="22.6" y="57" class="st9" width="3.5" height="0.3"/>
			<rect x="22.6" y="57.7" class="st9" width="3.5" height="0.3"/>
			<rect x="22.6" y="58.4" class="st9" width="3.5" height="0.3"/>
			<rect x="22.6" y="59.2" class="st9" width="3.5" height="0.3"/>
			<rect x="20" y="59.2" class="st8" width="1.7" height="0.3"/>
		</g>
		<path class="st10" d="M17.1,36.3c0,0-17.1,2.2-17.1,36C0,85,10.2,92.6,10.2,92.6l4-4c0,0-16.3-16.6,2.8-35.7V36.3z"/>
		<path class="st10" d="M29.2,36.6c0,0,17.1,1.9,17.1,35.7C46.2,85,36,92.6,36,92.6l-4-4c0,0,16.3-16.6-2.8-35.7V36.6z"/>
		<polygon class="st10" points="17.1,36.3 10.7,45.9 3.5,126 17.8,126 18.7,35.6 		"/>
		<polygon class="st10" points="37,45.9 28.1,36.3 27.3,35.8 27.2,126 44.1,126 		"/>
		<polygon class="st8" points="18.2,86.2 15.9,36.6 18.7,34.3 		"/>
		<path class="st8" d="M30.3,61.4h6.8c0,0,0.3,7.4-3.3,7.4C30.1,68.9,30.3,61.4,30.3,61.4z"/>
		<polygon class="st8" points="27.2,86.2 30,36.6 27.3,34.3 		"/>
		<g>
			<path class="st11" d="M15.2,56.3c0,0-3.8,1.1-2.8-9.3c0,0,0.5-4.5,2.1-4.1c1.6,0.4,0.7,4.6,0.7,4.6c-1.8,10.4-5.2,8.2-5.2,8.2"/>
			<path class="st11" d="M14.5,42.9c0,0-0.6-8.1,9-8.1c9.5,0,6.3,12.5,8.7,16.6"/>
			<circle class="st12" cx="10" cy="55.8" r="1"/>
			<path class="st12" d="M30.6,51.4c0,0.8,0.7,1.5,1.5,1.5s1.5-0.7,1.5-1.5c0-0.8-0.7-1.5-1.5-1.5S30.6,50.5,30.6,51.4z"/>
			<path class="st13" d="M31.4,51.4c0,0.4,0.4,0.8,0.8,0.8c0.4,0,0.8-0.4,0.8-0.8c0-0.4-0.4-0.8-0.8-0.8
				C31.7,50.6,31.4,50.9,31.4,51.4z"/>
			<path class="st12" d="M14.3,56.4c0,0.6,0.4,1,1,1c0.6,0,1-0.4,1-1c0-0.6-0.4-1-1-1C14.7,55.4,14.3,55.8,14.3,56.4z"/>
		</g>
		<g>
			<path class="st14" d="M23,42.5L23,42.5c2.4,0,4.3-1.9,4.3-4.3v-7.4h-8.7v7.4C18.7,40.5,20.6,42.5,23,42.5z"/>
			<path class="st15" d="M15.6,24.8c0,5.5,2.6,8.6,6.7,8.6c4.1,0,8.1-3.1,8.1-8.6c0-5.5,0-11.3-7.4-11.3
				C15.6,13.5,15.6,19.3,15.6,24.8z"/>
			<path class="st15" d="M32.4,24.4c0,2.9-2.9,3.1-2.9,3.1v-5C29.6,22.5,32.4,21.5,32.4,24.4z"/>
			<path class="st14" d="M31.5,24.6c0,1.5-1.4,1.7-1.4,1.7v-2.7C30.1,23.6,31.5,23.1,31.5,24.6z"/>
		</g>
		<path class="st3" d="M13.4,22.3c0,0,7.2,0.7,14-6.1c0,3.9,3,6.2,3,6.2s2.1-10.2-7.4-10.2S13.4,22.3,13.4,22.3z"/>
		<polygon class="st8" points="7.9,92.5 13.8,86.6 15.8,88.5 9.9,94.4 		"/>
		<polygon class="st8" points="37.6,92.5 31.7,86.6 29.8,88.5 35.7,94.4 		"/>
		<line class="st6" x1="7.9" y1="92.5" x2="13.8" y2="86.6"/>
		<line class="st6" x1="31.7" y1="86.6" x2="37.6" y2="92.5"/>
	</g>
	<g>
		<g>
			<path class="st3" d="M46.9,179.9l15.1,4.8c0,0,1.3-2.2-2.2-5.7l-11.4-3.8C47.5,178.1,46.9,179.9,46.9,179.9z"/>
			<g>
				<path class="st8" d="M94.1,96.4l0-17.5H63.3c0,0-0.6,38.1-2.3,50.4c-1.4,9.7-9.3,35.3-12.6,45.8l11.4,3.8
					c9.7-24.4,19.3-60.8,19.3-84.1l2.1,85.7h12.2L94.1,96.4z"/>
				<path class="st3" d="M93.4,180.6H81.2l0.1,4.5H98C98,185.1,98.4,182.5,93.4,180.6z"/>
			</g>
		</g>
		<polygon class="st10" points="60.3,98.7 60.3,101 95.1,101 95.1,98.7 		"/>
		<path class="st5" d="M52.1,50.3l0.6,0.1l11.7,2.3l5.5,1.1l3.9-26.9C73.7,26.8,53.7,25.5,52.1,50.3z"/>
		<path class="st5" d="M59.5,99.6l3.7-68.1c0,0,4.6-5.1,15.9-5.1s15,8.8,15,18.2s1.7,55,1.7,55H59.5z"/>
		<g>
			<rect x="72" y="47.1" class="st7" width="7.4" height="4.4"/>
			<g>
				<g>
					<path class="st16" d="M75.8,46.9l-0.2-0.3c-0.7-0.8-6.8-9.4-6.8-15.2c0-5.4,5.2-6.2,6.6-6.3v0l0.3,0c0.7,0,7,0.4,7,6.4
						c0,5.8-6,14.4-6.7,15.2L75.8,46.9z M75.7,25.7L75.7,25.7c-0.7,0-6.4,0.4-6.4,5.7c0,5.1,5.1,12.7,6.4,14.5
						c1.3-1.7,6.3-9.4,6.3-14.5C82.1,26.2,76.5,25.8,75.7,25.7z"/>
				</g>
				<g>
					<rect x="75.4" y="46.5" class="st16" width="0.6" height="1.2"/>
				</g>
			</g>
			<rect x="72.8" y="48.2" class="st17" width="1.7" height="1.7"/>
			<rect x="75.4" y="48.2" class="st17" width="3.5" height="0.3"/>
			<rect x="75.4" y="48.9" class="st17" width="3.5" height="0.3"/>
			<rect x="75.4" y="49.7" class="st17" width="3.5" height="0.3"/>
			<rect x="75.4" y="50.4" class="st17" width="3.5" height="0.3"/>
			<rect x="72.8" y="50.4" class="st17" width="1.7" height="0.3"/>
		</g>
		<path class="st3" d="M90.3,72.1H74.1c-1.4,0-2.4-1.3-2.1-2.6L77,46.3c0.2-1,1.1-1.7,2.1-1.7h16.2c1.4,0,2.4,1.3,2.1,2.6l-5.1,23.2
			C92.2,71.4,91.3,72.1,90.3,72.1z"/>
		<path class="st14" d="M61.3,60.4c0,0,1.3-3.1,3-7.7l-11.7-2.3c-2.1,15.1-0.7,18.7,4.5,18.7c5.5,0,21.6-1.4,21.6-1.4v-5.5
			L61.3,60.4z"/>
		<g>
			<path class="st14" d="M75.7,32.9L75.7,32.9c-2.4,0-4.3-1.9-4.3-4.3v-7.4h8.7v7.4C80.1,30.9,78.1,32.9,75.7,32.9z"/>
			<path class="st15" d="M83.1,15.3c0,5.5-2.6,8.6-6.7,8.6c-4.1,0-8.1-3.1-8.1-8.6c0-5.5,0-11.3,7.4-11.3
				C83.1,3.9,83.1,9.7,83.1,15.3z"/>
			<path class="st15" d="M66.3,14.8c0,2.9,2.9,3.1,2.9,3.1v-5C69.2,12.9,66.3,11.9,66.3,14.8z"/>
			<path class="st14" d="M67.3,15.1c0,1.5,1.4,1.7,1.4,1.7V14C68.6,14,67.3,13.5,67.3,15.1z"/>
		</g>
		<path class="st14" d="M77.8,62.5c0,0,7.2-3.1,8-2c0.8,1-1.7,1.7-1.7,1.7s5.2-0.3,5.1,0.6c-0.1,0.9-1.5,1-1.5,1s0.6,0.1,0.5,0.6
			c-0.1,0.5-1,0.6-1,0.7c0.9,0.3,0.4,1.2-0.8,1c0.9,0.6,0,1.1-1.7,1.2c-1.6,0.1-7.7,0.5-7.7,0.5"/>
		<path class="st14" d="M87.3,53.5c0-0.9,5.2,0.1,5.2,0.1s-2.3-1-1.4-1.9c0.7-0.6,4,1.1,6,2.3c1,0.5,1.5,1.6,1.5,2.7l0,0
			c-0.1,1.9-1.8,3.2-3.6,2.8c-1.6-0.3-3.3-0.7-4-0.9c-1.6-0.3-2.4-1-1.4-1.5c-1.1,0-1.5-1-0.6-1.1c0-0.1-0.9-0.4-0.9-0.9
			c0-0.5,0.6-0.5,0.6-0.5S87.3,54.4,87.3,53.5z"/>
		<path class="st3" d="M66.9,12.6c0.2,0.8,0.9,1.4,1.7,1.3c0.3,0,0.6-0.1,0.8-0.4c0.9-0.9-0.2-7.3,6.8-6.6c7,0.8,4.9,4.1,7.2,3.7
			c2.4-0.5,0.8-3.7,0.8-3.7s2,0.8,2.4-0.8c0.5-1.6-1.8-2.3-1.8-2.3s1.9-0.7,1.5-2.4c-0.4-1.7-2.2-2-3.2-1c-1,1-6.2,1.1-9,0.5
			C71.2,0.5,64.4,2.6,66.9,12.6z"/>
		<path class="st10" d="M71.4,27.5c0,0,1,4.4,4.3,4.4s4.4-4.4,4.4-4.4s2.1,4.9-4.4,11.4C69.4,32.5,71.4,27.5,71.4,27.5z"/>
		<polygon class="st8" points="61.9,89.1 68.3,82.7 70.4,84.9 64,91.3 		"/>
		<polygon class="st8" points="94.1,89.1 87.7,82.7 85.6,84.9 92,91.3 		"/>
		<line class="st6" x1="61.9" y1="89.1" x2="68.3" y2="82.7"/>
		<line class="st6" x1="87.7" y1="82.7" x2="94.1" y2="89.1"/>
	</g>
</g>
</svg>
