<?xml version="1.0" encoding="utf-8"?>
<!-- Generator: Adobe Illustrator 22.0.1, SVG Export Plug-In . SVG Version: 6.00 Build 0)  -->
<svg version="1.1" id="Layer_1" xmlns="http://www.w3.org/2000/svg" xmlns:xlink="http://www.w3.org/1999/xlink" x="0px" y="0px"
	 viewBox="0 0 218.5 282" style="enable-background:new 0 0 218.5 282;" xml:space="preserve">
<style type="text/css">
	.st0{fill:#00B5AD;}
	.st1{fill:#A0CD5D;}
	.st2{clip-path:url(#SVGID_2_);}
	.st3{fill:#FFCA07;}
	.st4{opacity:0.14;fill:#055065;}
	.st5{fill:#BAE0DD;}
	.st6{fill:#FFFFFF;}
	.st7{opacity:0.14;fill:#3F499B;}
	.st8{opacity:7.000000e-02;fill:#EDF1F7;}
	.st9{fill:#055065;}
	.st10{opacity:0.65;fill:#FFFFFF;}
	.st11{opacity:0.58;fill:#3F499B;}
	.st12{fill:none;}
	.st13{fill:#4F66AF;}
	.st14{fill:#4C6C7E;}
	.st15{fill:#D0E5B0;}
</style>
<g>
	<ellipse transform="matrix(0.2347 -0.9721 0.9721 0.2347 3.7427 181.4004)" class="st0" cx="117.1" cy="88.3" rx="69" ry="69"/>
	<path class="st1" d="M153.9,30c-5.5-3.5-11.5-6.2-17.9-8c-0.4,0.1-0.8,0.2-1.1,0.2c-1.3,0-2.6-0.3-4-0.1c-2.8,0.3-4.9-0.2-7.7-0.8
		c-2.6-0.6-5-1.4-7.8-1c-1.1,0.1-2.3,0.5-3.3,0.8c-1.3,0.3-2.4,0.3-3.7,0.5c-1.1,0.2-1.9,0.4-2.9,0.7c-0.7,0.2-2.1,0.8-2.8,0.8
		c0.2-0.7,1.1-1.5,1.6-1.9c-1.8,0.3-3.2,1.6-4.8,1.9c-1,0.2-1.8,0.1-2.9,0.4c-1.2,0.4-2.4,1.3-3.6,1.5c1-0.5,1.9-1.2,2.5-2.2
		c-10.7,3.6-20.3,9.7-28,17.6c1-0.2,3.2-1.7,3.8-2.4c1.5,0.7-0.4,2.8-0.7,3.8c-0.2,0.8,0,1.1-0.6,1.7c-0.3,0.4-1,0.3-1.4,0.7
		c0.2-0.2,0.4,0.2,0.9,0.1c0.6-0.2,0.8-0.4,1.4-0.7c0.9-0.3,1.3-0.4,2,0.2c0.4-1,0-2.2,0.7-3c1-1.2,3.6-1.1,4.2-2.5
		c-0.5,1.1-1.6,2.2-2.4,3.2c-1,1.3-0.9,2.5-1.4,4c-0.4,1.5-1.6,2.3-2.4,3.6c-2.3-1-0.7-2.9,0-4.4c-0.8,0-1.6,0.5-2.2,0.8
		c0-0.3-0.2-0.5-0.2-0.8c-0.8,0.2-2.1,0.5-2.1-0.8c-1.3-0.3-4.8,2.9-4.4,4.3c0.3,0,0.6,0.3,0.9,0.3c0.3,0.9-0.7,1.8-1.2,2.4
		c-0.3,0.3-0.6,0.6-0.8,0.9c-0.3,0.4-0.4,1.3-0.7,1.8c-1.1,1.7-1.9,0.4-1.8-0.9c0-1.2,0.2-1.3-0.2-1.6c-6.8,10.7-10.8,23.4-10.8,37
		c0,16.4,5.7,31.4,15.3,43.3c-0.3-0.7-0.5-1.4-0.8-1.9c-0.8-1.7-1.5-3.3-2.6-4.7c-0.8-1.1-1.8-2.7-2.3-3.9c-0.5-1.2-0.2-3.2-1.3-4.1
		c0.8-1,0.4-1.1,0.2-2c-0.1-0.4-0.3-0.5-0.3-1c0-0.6,0.4-0.8,0.4-1.2c0.1-1.9-1.3-4.4-2-6.2c-0.5-1.2-1.3-2.2-1.5-3.5
		c-0.2-1.4,0-3.1,0.2-4.4c0.7-4,1.8-7.6,3.4-11.3c0.8-1.8,0.8-3.3,1.4-5.1c0.4-1.2,1.4-2,1.4-3.4c-1.5-0.3-2.6,2.3-4,1.5
		c-1-0.6-0.3-2.7-0.4-3.7c-0.1-1.3-0.5-2.7-0.6-4c-0.1-1.1,0.6-1.8,0.7-2.8c0.1-0.9-0.1-1.5,0.3-2.5c0.6-1.9,0.8-3.4,0.9-5.4
		c0.1-1.4,0.5-2.7,1.5-3.7c-0.5,1.6-0.2,3.9-0.5,5.6c-0.4,2-0.2,4.1-0.7,6c-0.7,2.6-0.6,5-0.9,7.5c1.9-0.7,3.1-1.9,4.7-3.2
		c0.4-0.3,0.9-0.4,1.2-0.9c0.3-0.4,0.3-1.1,0.6-1.3c0.5-0.4,1.7-0.6,2.3-0.8c1-0.4,1.9-0.8,2.5-1.9c0.3-0.6,0.3-1.3,0.5-1.8
		c0.4-0.8,1.4-0.9,1.5-2c0-0.2-0.3-0.8-0.5-1.2c-0.3-0.5-1.1-0.2-1.4-0.5c-0.6-0.8,0.3-2,0.5-2.8c-0.6,0.8-2.1,2.4-3.2,2.2
		c-0.2-1.1-0.5-1.2-0.3-2.3c-1.6-0.6,0.1-4.6,0.6-5.5c1.1,1.2,0.1,3.4,1.1,4.5c1.3,1.5,2.2,0.1,3.1-0.6c0,0.5,0,1.7,0.3,2
		c0.3,0.3,1.8,0.5,2.2,0.6c0.7,0.2,1.7,0.8,2.5,0.7c0.9-0.1,1.3-1.2,2.2-1c0.1,0.2,0.2,0.3,0.3,0.5c1.6,0.9,0.3,1.6,0.6,2.9
		c0.5,0,1,0,1.5,0.2c-0.1,0.4-0.4,0.8-0.7,1.1c1.1,0,1.7,1.1,2.3,1.9c0.9,1.1,0.7,2.1,0.9,3.6c0.4,3.6,1.6,6.9,2.3,10.3
		c0.3,1.4,0.5,2.5,1.7,3.6c0.7-0.5,0.9-1.4,1.7-1.6c-0.1-0.7,0.9-2.6,1.1-3.5c0.4-1.4,0.7-2.3,0.7-3.9c0-2.7,2.4-3.7,4.5-4.9
		c1.6-0.9,2.5-1.7,3.5-3.2c0.6-0.8,1-1.1,2-1.5c1.3-0.4,4.4,0.3,5.2-0.7c-0.1,0.6,1.5,0.9,1.9,1.3c0.8,0.8,0.6,1.6,1,2.6
		c0.3,0.8,1,1.3,1.1,2.2c0.2,1.1-0.3,1.8-0.5,2.8c1.3,0.2,2.8-0.9,3.9-0.5c1.3,0.5,1.6,2,1.7,3.3c0.1,1.4,0.3,2.7,0.3,3.9
		c0,1.4-0.5,2.6-0.6,3.8c1,1.1,1.9,1.2,2.5,2.6c0.7,1.4,0.5,2.6,1.1,3.9c0.5,1.4,1.8,1.5,2.8,2.4c0.6,0.5,1,0.9,1.6,1.4
		c0.4,0.3,0.9,0.4,1.3,0.9c0.6-1-1-2-1.2-3c-0.3-1.2,0.2-2.3-0.6-3.4c-0.9-1.4-2.9-2-3.9-3.2c-0.9-1-1.1-1.7-1.1-3
		c-0.3,0-0.5-0.2-0.8-0.2c-0.1-1.2-0.1-5.6,1.4-6c0.9-0.2,1.5,0.7,1.6,1.5c1.7,0,1.2,0.1,2.1,1.3c0.6,0.9,0.9,1.2,1.3,2.4
		c0.6-0.2,1-0.8,1.5-0.2c0.5,0.6-0.4,1.3,0,1.8c0.6,0.9,2.3-1.8,2.9-2.3c1.6-1.2,2.9-1.3,2.9-3.6c0-0.9,0.2-2.1,0-2.9
		c-0.3-1.1-1-1.2-2-2c-1.8-1.5-2.8-2.5-3.1-4.7c-0.1-1.4,2.5-3,4-2.8c3.2,0.5,0.4,2.6,0.4,4c0.9,0.2,1.2-0.6,2.1-0.7
		c0.7-1.4-0.5-2.7,1.4-3.6c0.8-0.4,1.7-0.2,2.6-0.5c0.9-0.3,1.4-1.1,2.1-1.7c0.9-0.6,1.8-0.9,2.5-1.7c1-1.1,1.6-2.5,2.3-3.8
		c0.9-1.9,1.1-3.6,0.5-5.7c-0.2-0.8-0.3-2.5-1.1-3.1c-0.7-0.5-1.6,0.2-1.9-0.9c-0.1-0.1-0.3-0.4-0.1-0.8c0.8-0.1,1.4-0.6,1.2-1.4
		c-0.7,0-1.6-0.1-2.2,0.2c-0.4-0.7-1.5-1.3-1.3-2.3c0.2-0.8,1.3-0.8,1.3-2c0.7,0.5,0.3,1.3,1,1.6c1,0.5,1.2-0.5,2.1-0.7
		c1.2-0.2,1.3,0.5,1.7,1.3c0.6,1.2,0.5,0.7,1.4,1.4c0.8,0.6,0.8,0.4,0.8,1.7c0,0.8-0.3,1.9,0.6,2.2c1.1,0.4,2.4-1.5,2.5-2.4
		c0.1-1.5-1.2-1.2-2.2-2c-0.6-0.4-0.6,0-0.8-0.8c0.1,0.2-0.1-1.9-0.2-1.6c0.3-1.1,1.5-1.2,1-2.6c2.2-0.5,3.3-0.7,3.2-3.2
		c0-0.4,0-1.7-0.1-2.1c-0.2-0.9-1.1-1.3-1.3-2.3c0.5,0.6,1.3,0.7,1.8,1.2c0.4,0.4,0.3,0.7,0.5,1.1c0.6,0.8,1,1.4,2,1.9
		c-0.3-0.6-1-1.1-1.4-1.8c-0.3-0.6-0.2-1.5-0.6-2.1c-0.4-0.5-3.5-2.5-4.1-2.6c-1.1-0.1-1.2,0.8-2.4,0.4c-1.2-0.4-2.3-1.5-1.5-2.8
		c0.7-1,3.5-0.3,4.9-0.3c-0.1-0.5-0.5-0.9-0.8-1.4c1.6,0.4,4.1,2.2,5,3.6c0.8,1.2,0.9,1.8,2.2,2.4c0.8,0.4,1.8,0.5,2.4,1.1
		c-0.7-0.9-1.9-1.6-2.5-2.5c-0.4-0.6-0.4-1.3-0.8-1.8C151.9,30.1,153,30.2,153.9,30z"/>
	<path class="st1" d="M152,39.3c-0.1-0.1-0.2-0.1-0.4,0c0.2,0.3,0.5,0.7,0.7,1.1c0.2,0.5,0,0.3-0.1,0.6c-0.2,0.4-0.4,0.9,0.3,1
		c0.1-0.2,0.1-0.4,0.1-0.6c0.4,0,0.7-0.3,1.1-0.2c0.3,0.1,0.4,0.4,0.7,0.3c0.2-0.1,0.3-0.6,0.2-0.7c-0.1-0.6-1.1-0.7-1.6-0.9
		C152.6,39.7,152.4,39.4,152,39.3z"/>
	<path class="st1" d="M153.4,43c-0.6,0.4,0.6,1.6,0.8,2.1c0.1,0.3,0.1,0.8,0.1,1.2c-0.1,0.7-0.2,0.2-0.6,0.2c-0.3,0-0.7,0.4-0.8,0.7
		c-0.1,0.3,0.2,0.7,0.1,0.9c-0.1,0.2-0.3,0.1-0.5,0.2c-0.1,0.1-0.2,0.4-0.4,0.4c-0.3,0.1-0.8-0.1-1.1,0c-0.9,0-2.2,0.7-2.2,1.7
		c0.8-0.2,2,0,2.6-0.5c0.3-0.3,0.7-0.8,1.3-0.5c0.3,0.2,0.5,0.8,0.8,1.1c0.3-0.3-0.2-0.6-0.2-1c0.1-0.3,0.5-0.4,0.8-0.3
		c0.3,0.2,0.2,0.4,0.7,0.4c0.6,0,0.5-0.4,0.6-0.8c0.2-0.5,0.2-0.1,0.6-0.3c0.5-0.2,0.3-0.6,0.1-1c-0.2-0.4-0.6-0.6-0.6-1.1
		c0-0.4,0.2-0.8,0.1-1.3C155.3,44.2,154.6,43.2,153.4,43z"/>
	<path class="st1" d="M149.6,51.3c-0.4-0.1-0.4,0.6-0.4,0.9c0,0,0.2,0.3,0.2,0.4c0.1,0.2-0.1,0.4,0.1,0.6c0.4,0.5,0.8-0.1,0.9-0.6
		c0.1-0.2,0-0.5,0-0.7c0-0.2,0.3-0.4,0.2-0.6C150.4,51.3,149.9,51.2,149.6,51.3z"/>
	<path class="st1" d="M142.1,61.7c-0.9,0.4-1.2,1.7-0.9,2.5c0.1,0.2,0.1,0.4,0.2,0.6c0.1,0.2,0.3,0.2,0.4,0.4
		c0.2,0.3,0.2,0.4,0.2,0.8c0-0.5,0.2-0.9,0.4-1.3c0.3-0.6,0.1-0.4,0-1C142.3,63.1,143.4,61.6,142.1,61.7z"/>
	<path class="st1" d="M143.4,70.2c-1.3,0.1,0.1,2.5-0.2,3.1c-0.2,0.5-0.5,0.8-0.6,1.3c-0.1,0.6-0.1,1.3,0.4,1.7
		c0.4-0.5,0.8,0.5,0.9,0.8c0.1,0.6-0.1,1.2,0.8,1.2c0-0.3,0-0.7,0-1c0-0.3,0-0.4,0.1-0.6c0-0.1,0.2-0.2,0.3-0.3
		c0.1-0.5-0.2-0.3-0.4-0.7c-0.1-0.2-0.1-0.7-0.1-0.9c0.1-0.3,0.4-0.7,0.6-1c0.2-0.5,0.2-1.1,0.1-1.7C145,71.4,144.4,70.3,143.4,70.2
		z"/>
	<path class="st1" d="M139.2,87.3c-0.9-0.2-1.2,1.7-1.6,2.2c-0.3,0.3-0.5,0.3-0.9,0.4c-0.4,0.1-0.7,0.3-1,0.6
		c-0.6,0.4-0.6,0.5-0.8,1.2c-0.1,0.5-0.4,0.6-0.8,0.9c-0.7,0.5-1.4,0.1-2.1,0.4c-0.8,0.4-0.2,0.8-0.2,1.3c0,0.4-0.6,0.3-1,0.3
		c-0.5,0.1-0.6,0-1-0.1c-0.8-0.2-1.2,0.4-1.1,1.2c0.1,0.4,0.4,0.6,0.4,1c0,0.4-0.2,0.8-0.2,1.2c0,0.6,0.1,1.5,0.8,1.7
		c0.1,0,0.5,0,0.6,0c0.3,0.2,0,0.7,0,1c0,0.6,0.3,0.9,0.7,1.2c0.3,0.2,0.2,0.2,0.6,0.2c0.3,0,0.4-0.2,0.7-0.1c0.2,0,0.3,0.2,0.5,0.3
		c1,0.5,1.7,0.1,2.7,0.1c0.8,0,1,0.6,1.7,0.7c0.6,0.1,1.3,0,1.2-0.7c0.3,0.1,0.8,0.5,1,0.1c0.3-0.4-0.4-1-0.4-1.4
		c0-0.3,0.3-0.7,0.3-1c0-0.3,0-0.7,0-1c0.5-0.3,1.3-0.1,1.6-0.7c0.2-0.4-0.1-1.2-0.1-1.6c0-0.3,0-0.7,0.3-0.9
		c0.3-0.2,1.1,0.2,1.2-0.3c0.1-0.4-0.9-0.6-1.1-1c-0.2-0.4,0-0.7,0.1-1.1c0.1-0.8-0.8-1.3-0.2-2.2c0.2-0.3,1.3-0.2,1.2-0.6
		c-0.1-0.3-0.6-0.1-0.6-0.6c0.5-0.1,1-0.3,1.6-0.4c-0.1-0.8-1.5-0.4-2-0.8c-0.3-0.3-0.4-0.7-0.8-1C139.9,87.4,139.7,87.4,139.2,87.3
		z"/>
	<path class="st1" d="M124.2,105.5c-0.3-0.2,0.4-2.1,0.5-2.5c0-0.2,0-0.3-0.1-0.5c-0.1-0.2-0.3-0.3-0.4-0.4c-0.1-0.3,0.1-0.6,0-0.8
		c-0.2-0.6-1.1-0.5-1.5-0.8c-0.4-0.3-0.6-0.7-0.9-1.1c-0.2-0.3-0.7-0.6-0.8-0.9c-0.2-0.7,0.7-1.2-0.3-1.7c-0.3-0.2-0.5-0.1-0.8-0.3
		c-0.3-0.2-0.5-0.5-0.8-0.6c-0.6-0.4-1.3-1-2-1.3c-0.3-0.1-0.6-0.1-0.9-0.2c-0.2-0.1-0.4-0.4-0.5-0.6c-0.3-0.3-0.7-0.5-1.1-0.8
		c-0.5-0.4-0.9-0.7-1.4-1c-0.8-0.5-0.5-1.5-1.3-2c-1.2-0.8-2.7,0.2-4-0.3c0.5,0.4,0.6,1.3,1.1,1.7c0.4,0.3,0.9,0.2,1.2,0.6
		c0.4,0.5,0.4,1,1,1.5c0.5,0.4,0.6,0.7,1,1.1c0.4,0.5,0.7,0.2,1.2,0.5c0.3,0.2,0.4,0.6,0.5,0.9c0.1,0.5,0.3,0.7,0.5,1.1
		c0.4,0.9,0.5,1.6,1.4,2.1c1.1,0.7,0.9,1.6,1.6,2.6c0.4,0.6,0.9,1.2,1.4,1.7c0.5,0.5,1.3,0.8,1.9,1.3c0.5,0.4,0.8,0.6,1.2,1.1
		c0.2,0.3,0.5,0.6,0.9,0.6c0-0.4,0-0.8,0-1.2C123.3,105.1,123.7,105.5,124.2,105.5z"/>
	<path class="st1" d="M124.8,106.4c-0.5,0-1.1,0-0.9,0.7c-0.3,0-0.5,0.1-0.8,0.2c0.3,0.2,1,0.3,1.4,0.3c0.2,0,0.5-0.3,0.5,0.1
		c0,0.2-0.2,0.4-0.3,0.5c0.3,0,0.5,0.1,0.8,0.1c0.5,0.1,0.8,0.1,1.3,0c0.4,0,0.8,0.1,1.2,0.2c0.5,0.1,1.1,0.5,1.6,0.5
		c0.4,0,0.7-0.2,1.1-0.2c0.4,0,0.9,0.1,1.3,0.1c0.5,0,1-0.1,1.5,0c0.5,0,0.8,0.3,1.3,0.4c0.7,0.2,1.9,0.3,2.7,0.2
		c-0.3-0.5-0.9-0.4-1.2-0.8c-0.3-0.3-0.1-0.5-0.7-0.4c-0.3,0-1.1,0.3-1.3-0.2c-0.2-0.6,0.7-0.4,0.7-0.8c-0.3-0.1-0.6,0-1,0
		c-0.4-0.1-0.6-0.4-1.1-0.4c-1-0.1-2-0.4-3-0.1c-1.2,0.4-2.3,0.4-3.5-0.1c-0.3-0.2-0.6-0.4-1-0.3
		C125.1,106.2,124.9,106.4,124.8,106.4z"/>
	<path class="st1" d="M142.9,104.7c-0.1-0.7,0.7-3.3-0.5-3.2c-0.1,0.4-0.3,0.5-0.6,0.2c-0.3-0.4,0-0.8,0.2-1.1
		c0.4-0.6,0.9-1.1,1-1.9c0-0.4,0-0.8,0-1.1c0-0.5,0.2-1.1,0.3-1.6c0.2-0.9,0.7-1.2,1.5-1.1c0.5,0,1-0.1,1.5,0c0.5,0,0.9,0.2,1.5,0.2
		c1.1-0.2,2.3-0.2,2.7-1.4c0.2,1.2-1.2,2.6-2.3,2.8c-1,0.1-3.1-0.9-3.9,0.2c-0.5,0.6-0.3,1.7,0.4,2c0.8,0.5,1.2-0.4,2-0.7
		c0.2-0.1,1.9-0.6,1.9-0.2c0,0.3-1.2,0.7-1.4,0.8c-0.3,0.1-0.7,0.4-1,0.7c-0.3,0.4-0.2,0.3,0,0.8c0.1,0.4,0.2,0.8,0.3,1.2
		c0.1,0.4,0.3,0.5,0.4,0.9c0.1,0.4,0,0.9-0.1,1.2c-0.5-0.2-0.6,0.1-1,0.2c0-0.5-0.2-1.3-0.4-1.8c-0.2-0.4-0.5-1.5-1.1-1.3
		c-0.2,0.8,0,1.8-0.1,2.6c-0.1,0.6-0.2,1.3-0.1,1.8C143.6,105.2,143.1,105.1,142.9,104.7z"/>
	<path class="st1" d="M139.2,108.9c-0.3,0.6,0.7,1,1.2,0.7c-0.2-0.2-1.1-0.7-1.2-0.5"/>
	<path class="st1" d="M142,110.1c0.4,0.1,0.8,0.2,1.2,0.5c0.3,0.2,0.4,0.7,0.8,0.6C144.1,110.5,142.4,109.7,142,110.1z"/>
	<path class="st1" d="M143.2,108.9c0.5,0.4,1.3,0.4,1.9,0.4c0.6,0,1.2,0.2,1.8,0.1c0.7-0.1,1-0.7,1.5-0.9c0.4-0.2,0.7-0.2,0.9-0.8
		c-0.6,0-1.2,0.4-1.8,0.5c-0.7,0.1-1.3,0.4-2,0.4c-0.5,0-1.1-0.3-1.6-0.3C143.7,108.3,143,108.5,143.2,108.9z"/>
	<path class="st1" d="M147.6,110.6c0.4,0,0.6-0.4,0.8-0.6c0.4-0.4,0.9-0.8,1.3-1.1c0.6-0.4,1.3-0.4,1.8-0.9
		c-0.2,0.6-1.3,1.2-1.8,1.6c-0.3,0.3-0.6,0.8-0.9,1c-0.3,0.2-0.6,0.2-0.9,0.4c-0.3,0.2-0.6,0.6-1,0.7
		C146.8,111.1,147.1,110.9,147.6,110.6z"/>
	<path class="st1" d="M174,107.2c-0.8-0.7-1.1-1.4-1.3-2.4c-0.1-0.6-1.4-1.2-1.1-1.8c0.2-0.5,1.1-0.1,0.6-0.9
		c-0.3-0.4-0.6-0.5-0.8-0.9c-0.1-0.2-0.2-0.5-0.3-0.7c-0.1-0.4-0.1-0.8-0.4-1.1c-0.5-0.5-1.5-0.7-2.2-0.9c-1.5-0.5-3-1.4-4.6-1.1
		c-0.8,0.2-1,0.9-1.5,1.5c-0.2,0.2-1.2,1.2-1.4,1.2c-0.3,0-0.4-0.9-0.4-1.2c-0.1-0.4-0.2-0.9-0.1-1.4c0.1-0.4,0.3-0.5,0.1-0.8
		c-0.1-0.2-0.7-0.2-0.9-0.3c-0.4-0.1-1-0.2-1.2,0c-0.3,0.3-0.1,0.5-0.6,0.6c-0.4,0.1-0.7,0.1-1.1,0c0.1,1,1,0.4,1.3,1.1
		c0.1,0.2-0.1,0.5,0.1,0.6c0.1,0.1,0.6,0.3,0.7,0.3c0.4,0,0.4-0.3,0.7-0.3c0.3-0.1,0.6,0,0.5,0.4c-0.2,0.6-1.1,0.2-1.5,0.3
		c-1,0.4,0.7,0.8,0.8,1.1c0.1,0.2-0.5,0.9-0.2,1.1c0.5,0.5,1-0.6,1-1c0.6,0.1,1,0.7,1.5,0.9c1.1,0.3,1.7,0.2,2.6,1.1
		c0.7,0.7,0.6,1.7,0,2.3c-0.3,0.4-0.4,0.9-0.7,1.3c-0.1,0.1-0.8,0.6-0.1,0.7c0.2,0,1-0.5,1.3-0.6c0.3-0.1,0.6-0.3,1-0.3
		c1.1,0.1,0.3,1.6,1.5,1.2c0.9-0.3,2-0.8,2.3-1.8c0.2-0.7,0.3-1.2,1.2-0.8c0.3,0.1,0.8,0.7,1,1c0.2,0.4,0.1,1,0.4,1.4
		C172.4,107.3,173.4,107.2,174,107.2z"/>
	<path class="st1" d="M156.5,101c-0.6-0.2-1.2-0.7-1.9-0.8c-0.7-0.1-1.7,0.1-0.7,0.6c0.7,0.3,1.4,0.1,2,0.4c0.2,0.1,0.7,0.4,0.8,0.4
		C157.2,101.6,156.8,101.2,156.5,101z"/>
	<path class="st1" d="M154.3,92.7c-0.5-0.1-1.1,0.9-1.1,1.4c0,0.2,0.2,0.4,0.3,0.6c0.1,0.3,0,0.5-0.1,0.8c0,0.3-0.2,1.2,0,1.4
		c0.6,0.4,0.5-0.7,0.5-0.9c0.2-1,0.6,0.1,1.1,0.1c-0.1-0.5-0.7-0.7-0.8-1.2c0-0.6,0.6-0.5,0.7-1.1c-0.4-0.1-1.1,0.8-1.1,0.1
		c0-0.4,0.4-0.9,0.7-0.9C154.5,92.9,154.5,92.8,154.3,92.7z"/>
	<path class="st1" d="M163.6,117.8c-0.3,0.1-0.9-0.3-1.2-0.5c-0.6-0.4-1.1-0.7-1.6-0.9c-0.3-0.1-0.8-0.5-1-0.8
		c-0.4-0.5,0-0.9,0.3-1.4c0.2-0.2,0.4-0.3,0.5-0.5c0.2-0.2,0.3-0.5,0.5-0.8c0.2-0.2,0.9-0.8,0.8-1.2c-0.2-0.9-2.1,0.1-2.4,0
		c-0.6-0.1-2.3-1.6-2.7-0.5c-0.1,0.4,0.1,0.5-0.3,0.8c-0.2,0.1-0.4,0-0.6,0.1c-0.4,0.1-0.5,0.4-0.7,0.8c-0.4,0.6-0.8,1.2-1.2,1.8
		c-0.2,0.4-0.3,0.6-0.7,0.8c-0.8,0.5-1.1-0.3-2-0.5c-0.5-0.2-0.6,0-1,0.4c-0.6,0.6-1.2,1.1-1.8,1.7c-0.4,0.5-0.6,0.8-0.8,1.4
		c-0.1,0.3-0.1,0.4-0.3,0.5c-0.3,0.1-0.7-0.2-1,0.2c-0.2,0.2-0.2,0.7-0.2,0.9c-0.6-0.1-0.6-1-1.4-0.6c-0.7,0.3-0.7,1.5-1,2.1
		c-0.4,1-0.8,1.3-1.9,1.6c-0.9,0.3-1.5,0.8-2.4,1.2c-0.8,0.3-1.3,0.2-2.1,0.3c-1,0.1-2.5,0.7-3.2,1.4c-0.7,0.8-1,1.9-1.4,2.8
		c-0.1,0.3-0.3,0.7-0.2,0.9c0,0.2,0.1,0.3,0.2,0.5c0.1,0.6-0.4,1-0.4,1.6c0.1,0.6,0.9,1.3,1.2,1.8c0.3,0.5,0.7,1.1,0.9,1.6
		c0.1,0.3,0.2,1.1,0.1,1.4c-0.1,0.2-0.4,0.2-0.4,0.5c0,0.5-0.1,1.7-1,1.7c0.1,0.7,0.5,0.6,1.2,0.7c0.3,0,0.6,0.1,0.9,0.1
		c0.5,0,0.8,0.2,1.2,0.2c0.4,0,0.4-0.1,0.7-0.3c0.4-0.2,0.8-0.3,1.2-0.4c0.7-0.2,1.1-0.7,1.9-0.9c0.6-0.1,1.2-0.2,1.8-0.1
		c0.6,0.1,1.3,0.3,1.8,0.2c0.8-0.2,1.1-1.3,1.8-1.7c0.9-0.6,1.9-1.3,2.9-1.8c0.8-0.4,2.2-0.5,3-0.2c1,0.5,1,1.5,1.7,2.2
		c0.1-0.4,0.9-1.4,1.4-1.4c0,0.6-0.5,0.9,0,1.4c0.2,0.2,0.5,0.1,0.6,0.4c0.1,0.2-0.1,0.6-0.2,0.8c-0.1,0.5-0.3,1,0.3,1.2
		c0.8,0.3,1.6-0.6,2.2-1c0.3-0.2,0.6-0.5,0.9-0.6c0.6-0.2,1.1,0,1.5-0.4c0.4-0.3,0.6-0.8,0.9-1.1c0.6-0.5,1.2-1,1.8-1.5
		c1.2-1.2,1.8-2.9,2.9-4.2c0.7-0.8,1.5-1.5,2-2.4c0.2-0.4,0.3-0.9,0.5-1.4c0.4-0.9,1-1.8,1.2-2.8c0.1-0.6,0-1.2,0-1.8
		c-0.1-0.7-0.1-1.2-0.5-1.8c-0.1-0.2-0.3-0.4-0.2-0.7c-0.7-0.1-0.4-1.5-0.3-1.9c-0.2-0.1-0.3-0.2-0.5-0.3c-0.1-0.7,0.4-1.4,0.5-2.2
		c0.1-0.7,0-1.3,0-2c-1,0-0.9-0.3-0.9-1.3c0-1-0.3-2-0.4-3c-0.7,0.7-0.7,2.2-1.1,3c-0.3,0.7-0.7,1.3-0.7,2.1c0,0.3,0,0.6,0,0.9
		c-0.1,0.7-0.6,1.3-0.9,1.9C164.5,117.4,164,118.2,163.6,117.8z"/>
	<path class="st1" d="M157.3,140.2c-0.9,0.4-1.7,0.7-2.2,1.5c-0.4,0.7-0.2,0.9,0.4,0.3c0.5-0.4,0.6-0.3,1.1-0.3c0.4,0,0.3,0,0.6-0.3
		C157.6,141,157.8,140.8,157.3,140.2z"/>
	<path class="st1" d="M148.4,78.1c-0.3,0.7,0.3,0.9,0.7,1.3c0.4,0.4,0.2,0.8,0,1.2c-0.2,0.4-0.5,0.7-0.1,1.1
		c0.3,0.4,0.8,0.4,0.6,1.1c-0.1,0.2-0.2,0.4-0.2,0.6c0,0.2,0,0.7,0.1,0.9c-0.5,0-1,0-1.4-0.1c0.1,0.7-0.9,0.2-1.3,0.4
		c-0.9,0.5-0.2,1.6-0.7,2.2c0.3,0.3,0.7-0.1,1-0.3c0.2-0.1,0.4-0.5,0.6-0.6c0.2-0.1,0.2,0.1,0.4,0.1c0.6,0,0.8,0,0.8,0.7
		c0,0.3-0.2,0.7-0.1,1c0.2,0.4,1,0.6,1.4,0.5c1.2,0,0.1-0.8,0.3-1.4c0.2-0.6,1.4-0.6,1.3-1.5c0-0.4-0.4-0.7-0.6-1.1
		c-0.1-0.2-0.1-0.5-0.2-0.7c-0.1-0.3-0.2-0.4-0.3-0.7c-0.1-0.3-0.3-0.6-0.4-0.9c-0.1-0.4-0.1-0.7-0.2-1.1c-0.2-0.8,0-1.2-0.8-1.8
		C149.1,78.6,148.6,78.4,148.4,78.1z"/>
	<path class="st1" d="M146.2,79.7c-0.4,0.3-0.7,0.7-0.6,1.2c0,0.1,0.2,0.6,0.3,0.6c0.2,0,0.3-0.4,0.5-0.5c0.1,0.3,0.1,0.7,0,1
		c0.4-0.3,0.5-1,0.5-1.5C146.6,80.4,146.7,80.1,146.2,79.7z"/>
</g>
<g>
	<defs>
		<rect id="SVGID_1_" x="20.5" y="122.9" width="171.9" height="147.8"/>
	</defs>
	<clipPath id="SVGID_2_">
		<use xlink:href="#SVGID_1_"  style="overflow:visible;"/>
	</clipPath>
	<g class="st2">
		<g>
			<g>
				<g>
					<path class="st3" d="M184.7,313.7l-60.7,4.7c-0.5,0-0.9-0.3-1-0.8l-6.4-82.7c0-0.5,0.3-0.9,0.8-1l60.7-4.7c0.5,0,0.9,0.3,1,0.8
						l6.4,82.7C185.5,313.2,185.2,313.7,184.7,313.7z"/>
				</g>
			</g>
			<g>
				<g>
					<path class="st4" d="M107.2,286.7l-52.4-31.1c-0.4-0.2-0.6-0.8-0.3-1.2l42.3-71.3c0.2-0.4,0.8-0.6,1.2-0.3l52.4,31.1
						c0.4,0.2,0.6,0.8,0.3,1.2l-42.3,71.3C108.1,286.8,107.6,286.9,107.2,286.7z"/>
					<path class="st1" d="M106.3,284.6l-52.4-31.1c-0.4-0.2-0.6-0.8-0.3-1.2L95.9,181c0.2-0.4,0.8-0.6,1.2-0.3l52.4,31.1
						c0.4,0.2,0.6,0.8,0.3,1.2l-42.3,71.3C107.3,284.7,106.7,284.8,106.3,284.6z"/>
				</g>
				<g>
					<path class="st4" d="M121.3,283.7l-59.9-11c-0.5-0.1-0.8-0.6-0.7-1l15-81.6c0.1-0.5,0.6-0.8,1-0.7l59.9,11
						c0.5,0.1,0.8,0.6,0.7,1l-15,81.6C122.3,283.5,121.8,283.8,121.3,283.7z"/>
					<path class="st5" d="M120.1,281.4l-59.9-11c-0.5-0.1-0.8-0.6-0.7-1l15-81.6c0.1-0.5,0.6-0.8,1-0.7l59.9,11
						c0.5,0.1,0.8,0.6,0.7,1l-15,81.6C121,281.2,120.5,281.5,120.1,281.4z"/>
					<path class="st6" d="M127,208.1C126.9,208.1,126.9,208.1,127,208.1l-15.1-2.8c-0.3,0-0.4-0.3-0.4-0.6s0.3-0.4,0.6-0.4l15,2.8
						c0.3,0,0.4,0.3,0.4,0.6C127.4,207.9,127.2,208.1,127,208.1z"/>
					<path class="st6" d="M126.1,212.9C126,212.9,126,212.9,126.1,212.9l-15.1-2.8c-0.3,0-0.4-0.3-0.4-0.6c0-0.3,0.3-0.4,0.6-0.4
						l15,2.8c0.3,0,0.4,0.3,0.4,0.6C126.5,212.7,126.3,212.9,126.1,212.9z"/>
					<path class="st6" d="M125.1,218.1C125.1,218.1,125.1,218.1,125.1,218.1l-15.1-2.8c-0.3,0-0.4-0.3-0.4-0.6
						c0-0.3,0.3-0.4,0.6-0.4l15,2.8c0.3,0,0.4,0.3,0.4,0.6C125.5,217.9,125.3,218.1,125.1,218.1z"/>
					<g>
						<path class="st7" d="M101.9,222.5l-25.7-4.7c-0.5-0.1-0.9-0.6-0.8-1.1l5.1-27.6c0.1-0.5,0.6-0.9,1.1-0.8l25.7,4.7
							c0.5,0.1,0.9,0.6,0.8,1.1l-5.1,27.6C102.9,222.3,102.4,222.6,101.9,222.5z"/>
						<path class="st0" d="M101,220.9l-24.5-4.5c-0.5-0.1-0.9-0.6-0.8-1.1l4.8-26.2c0.1-0.5,0.6-0.9,1.1-0.8l24.5,4.5
							c0.5,0.1,0.9,0.6,0.8,1.1l-4.8,26.2C102,220.7,101.5,221,101,220.9z"/>
						<path class="st8" d="M106.5,196.5l-26.4-4.9l0.5-2.5c0.1-0.5,0.6-0.8,1.1-0.7l24.6,4.5c0.5,0.1,0.8,0.6,0.7,1L106.5,196.5z"/>
						<path class="st9" d="M87.5,204.6c-0.2,0-0.4,0-0.6-0.1l-0.4-0.1c-1.9-0.4-3.2-2.2-2.9-4.2l0.9-5c0.1-0.4,0.4-0.6,0.8-0.6
							c0.4,0.1,0.6,0.4,0.6,0.8l-0.9,5c-0.2,1.2,0.6,2.3,1.7,2.5l0.4,0.1c0.9,0.2,1.8-0.4,1.9-1.3l2.3-12.7c0.2-0.9-0.4-1.8-1.4-2
							l-0.6-0.1c-1-0.2-1.9,0.5-2.1,1.5l-0.1,0.3c-0.1,0.4-0.5,0.6-0.8,0.6c-0.4-0.1-0.6-0.4-0.6-0.8l0.1-0.3c0.3-1.8,2-2.9,3.8-2.6
							l0.6,0.1c1.7,0.3,2.8,2,2.5,3.7l-2.3,12.7C90.2,203.6,88.9,204.6,87.5,204.6z"/>
						<path class="st6" d="M89.9,194C89.9,194,89.9,194,89.9,194l-9.6-1.8c-0.1,0-0.2-0.1-0.2-0.3c0-0.1,0.1-0.2,0.3-0.2l9.6,1.8
							c0.1,0,0.2,0.1,0.2,0.3C90.2,193.9,90.1,194,89.9,194z"/>
					</g>
					<g>
						<path class="st6" d="M119.2,243.5C119.2,243.5,119.2,243.5,119.2,243.5L73.3,235c-0.3,0-0.4-0.3-0.4-0.6
							c0-0.3,0.3-0.4,0.6-0.4l45.8,8.4c0.3,0,0.4,0.3,0.4,0.6C119.6,243.3,119.4,243.5,119.2,243.5z"/>
						<path class="st6" d="M115.9,261.2C115.9,261.2,115.9,261.2,115.9,261.2L70,252.8c-0.3,0-0.4-0.3-0.4-0.6
							c0-0.3,0.3-0.4,0.6-0.4l45.8,8.4c0.3,0,0.4,0.3,0.4,0.6C116.4,261.1,116.2,261.2,115.9,261.2z"/>
						<path class="st6" d="M93.4,247.9C93.4,247.9,93.4,247.9,93.4,247.9l-21.7-4c-0.3,0-0.4-0.3-0.4-0.6c0-0.3,0.3-0.4,0.6-0.4
							l21.7,4c0.3,0,0.4,0.3,0.4,0.6C93.8,247.7,93.6,247.9,93.4,247.9z"/>
						<path class="st6" d="M96.4,231.7C96.4,231.7,96.3,231.7,96.4,231.7l-21.7-4c-0.3,0-0.4-0.3-0.4-0.6c0-0.3,0.3-0.4,0.6-0.4
							l21.7,4c0.3,0,0.4,0.3,0.4,0.6C96.8,231.5,96.6,231.7,96.4,231.7z"/>
						<path class="st6" d="M117.6,252.3C117.6,252.3,117.5,252.3,117.6,252.3l-20.7-3.8c-0.3,0-0.4-0.3-0.4-0.6
							c0-0.3,0.3-0.4,0.6-0.4l20.6,3.8c0.3,0,0.4,0.3,0.4,0.6C118,252.1,117.8,252.3,117.6,252.3z"/>
					</g>
				</g>
			</g>
		</g>
		<g>
			<g>
				
					<ellipse transform="matrix(0.7071 -0.7071 0.7071 0.7071 -98.466 103.0527)" class="st10" cx="75.2" cy="170.4" rx="32.2" ry="32.2"/>
			</g>
			<g>
				<g>
					<path class="st11" d="M42,170.4c0-18.3,14.9-33.2,33.2-33.2c18.3,0,33.2,14.9,33.2,33.2c0,18.3-14.9,33.2-33.2,33.2
						C56.9,203.6,42,188.7,42,170.4z M44,170.4c0,17.2,14,31.2,31.2,31.2s31.2-14,31.2-31.2s-14-31.2-31.2-31.2S44,153.2,44,170.4z"
						/>
					<g>
						<g>
							<circle class="st12" cx="75.2" cy="170.4" r="32.2"/>
							<g>
								<path class="st9" d="M48,195.8l4.3,4.3c6.3,4.9,14.3,7.8,22.9,7.8c20.7,0,37.6-16.8,37.6-37.6c0-20.7-16.8-37.6-37.6-37.6
									s-37.6,16.8-37.6,37.6c0,8.6,2.9,16.6,7.8,22.9c0.1,0,0.1,0.1,0.2,0.1L48,195.8z M43,170.4c0-17.8,14.4-32.2,32.2-32.2
									s32.2,14.4,32.2,32.2c0,17.8-14.4,32.2-32.2,32.2S43,188.2,43,170.4z"/>
								<path class="st9" d="M52,200.6l-6.8-6.8c0,0,0,0-0.1-0.1l-0.1-0.1c-5.2-6.7-7.9-14.8-7.9-23.2c0-21,17.1-38.1,38.1-38.1
									c21,0,38.1,17.1,38.1,38.1c0,21-17.1,38.1-38.1,38.1C66.7,208.5,58.7,205.7,52,200.6z M38.1,170.4c0,8.2,2.7,16,7.7,22.6
									c0.1,0,0.1,0.1,0.2,0.1l6.7,6.7c6.5,5,14.3,7.6,22.5,7.6c20.4,0,37.1-16.6,37.1-37.1s-16.6-37.1-37.1-37.1
									S38.1,150,38.1,170.4z M42.5,170.4c0-18,14.7-32.7,32.7-32.7s32.7,14.7,32.7,32.7s-14.7,32.7-32.7,32.7
									S42.5,188.4,42.5,170.4z M43.5,170.4c0,17.5,14.2,31.7,31.7,31.7c17.5,0,31.7-14.2,31.7-31.7c0-17.5-14.2-31.7-31.7-31.7
									C57.7,138.7,43.5,152.9,43.5,170.4z"/>
							</g>
							<path class="st13" d="M48,195.8c0.6,0.6,0.6,1.5,0,2l-1.5,1.5c-1.8-1.8-3.6-3.5-4.7-4.2l1.7-1.7c0.5-0.5,1.3-0.6,1.9-0.1
								c0.1,0,0.1,0.1,0.2,0.1L48,195.8z"/>
							<g>
								<path class="st14" d="M46.5,199.3l1.5-1.5c0.6-0.6,0.6-1.5,0-2l4.3,4.3l0.1,0.1c0.6,0.6,0.6,1.5,0,2l-1.8,1.8
									C50,203.1,48.3,201.2,46.5,199.3z"/>
								<path class="st14" d="M48,195.8c0.6,0.6,0.6,1.5,0,2l-1.5,1.5c-1.8-1.8-3.6-3.5-4.7-4.2l1.7-1.7c0.5-0.5,1.3-0.6,1.9-0.1
									c0.1,0,0.1,0.1,0.2,0.1L48,195.8z"/>
							</g>
							<path class="st9" d="M2.2,234l38.9-39.2c0.1-0.1,0.4,0,0.8,0.3c1,0.7,2.9,2.4,4.7,4.2c1.8,1.8,3.5,3.8,4.1,4.7
								c0.2,0.3,0.3,0.5,0.2,0.6l-38.9,39.2c-2.7,2.7-7,2.7-9.7,0C-0.5,241.1-0.5,236.7,2.2,234z"/>
						</g>
						<g>
							<path class="st4" d="M2.2,243.8L2.2,243.8c2.7,2.7,47-41.7,44.8-44c-2.6-2.7-5.6-5.4-6-5L2.2,234
								C-0.5,236.7-0.5,241.1,2.2,243.8z"/>
						</g>
					</g>
				</g>
			</g>
		</g>
	</g>
</g>
<g>
	<g>
		<g>
			
				<ellipse transform="matrix(0.7557 -0.6549 0.6549 0.7557 8.0064 129.2477)" class="st1" cx="177.2" cy="53.9" rx="8.6" ry="8.6"/>
			<g>
				<g>
					<path class="st1" d="M185.4,59.4L185.4,59.4c0.6-0.9,1.8-1.1,2.7-0.5l0,0l-2.1,3.2l0,0C185,61.5,184.8,60.3,185.4,59.4z"/>
					
						<rect x="183" y="55.2" transform="matrix(-0.5598 0.8286 -0.8286 -0.5598 334.4232 -61.3947)" class="st1" width="1" height="5.8"/>
				</g>
				<g>
					<path class="st1" d="M169.1,48.4L169.1,48.4c-0.6,0.9-1.8,1.1-2.7,0.5l0,0l2.1-3.2l0,0C169.4,46.3,169.7,47.5,169.1,48.4z"/>
					
						<rect x="170.5" y="46.8" transform="matrix(0.5598 -0.8286 0.8286 0.5598 34.1149 163.5293)" class="st1" width="1" height="5.8"/>
				</g>
			</g>
			<g>
				<g>
					<path class="st1" d="M188.8,51.6L188.8,51.6c-0.2-1,0.5-2,1.5-2.2l0,0l0.7,3.8l0,0C190,53.3,189,52.6,188.8,51.6z"/>
					<polygon class="st1" points="181.9,53.5 181.7,52.5 189.3,51 189.5,52 					"/>
				</g>
				<g>
					<path class="st1" d="M167.6,55.8L167.6,55.8c0.2,1-0.5,2-1.5,2.2l0,0l-0.7-3.8h0C166.4,54,167.4,54.7,167.6,55.8z"/>
					
						<rect x="169.3" y="52.4" transform="matrix(-0.1901 -0.9818 0.9818 -0.1901 147.7724 232.568)" class="st1" width="1" height="5.8"/>
				</g>
			</g>
			<g>
				<g>
					<path class="st1" d="M182.8,45.7L182.8,45.7c-0.9-0.6-1.1-1.8-0.5-2.7l0,0l3.2,2.1l0,0C184.8,46.1,183.6,46.3,182.8,45.7z"/>
					
						<rect x="181" y="44.7" transform="matrix(0.8286 0.5598 -0.5598 0.8286 57.7664 -93.4403)" class="st1" width="1" height="5.8"/>
				</g>
				<g>
					<path class="st1" d="M170.5,63.8L170.5,63.8c0.9,0.6,1.1,1.8,0.5,2.7l0,0l-3.2-2.1l0,0C168.4,63.4,169.6,63.2,170.5,63.8z"/>
					<polygon class="st1" points="174.2,57.5 175,58.1 170.5,64.5 169.7,64 					"/>
				</g>
			</g>
			<g>
				<g>
					<path class="st1" d="M175,42.7L175,42.7c-1,0.2-2-0.5-2.2-1.5l0,0l3.8-0.7l0,0C176.7,41.5,176,42.5,175,42.7z"/>
					<polygon class="st1" points="176.9,49.2 175.9,49.4 174.4,42.2 175.4,42 					"/>
				</g>
				<g>
					<path class="st1" d="M179.1,63.6L179.1,63.6c1-0.2,2,0.5,2.2,1.5l0,0l-3.8,0.7l0,0C177.4,64.8,178.1,63.8,179.1,63.6z"/>
					
						<rect x="178.2" y="58.4" transform="matrix(-0.9818 0.19 -0.19 -0.9818 365.7686 87.5726)" class="st1" width="1" height="5.8"/>
				</g>
			</g>
		</g>
	</g>
	<path class="st15" d="M178.7,47.5c0.3,0.8-1,2.1-2.9,2.9c-1.9,0.8-3.8,0.7-4.1-0.1c-0.3-0.8,1-2.1,2.9-2.9
		C176.5,46.6,178.4,46.7,178.7,47.5z"/>
	<path class="st15" d="M174.8,53.5c-0.1,0.3-0.8,0.4-1.5,0.3c-0.8-0.2-1.3-0.6-1.3-0.9c0.1-0.3,0.8-0.4,1.5-0.3
		C174.3,52.8,174.8,53.2,174.8,53.5z"/>
	<path class="st15" d="M177.6,51.2c0,0.3-0.3,0.7-0.9,0.7c-0.5,0.1-1-0.1-1-0.5c0-0.3,0.3-0.7,0.9-0.7
		C177.1,50.6,177.5,50.8,177.6,51.2z"/>
	<path class="st15" d="M171,51.8c-0.1,0.1-0.3,0.1-0.5,0c-0.2-0.1-0.3-0.4-0.2-0.5c0.1-0.1,0.3-0.1,0.5,0
		C171,51.5,171.1,51.7,171,51.8z"/>
	<path class="st15" d="M172,55.3c-0.1,0.3-0.6,0.5-1.1,0.4c-0.5-0.1-0.9-0.5-0.8-0.8c0.1-0.3,0.6-0.5,1.1-0.4
		C171.7,54.6,172.1,55,172,55.3z"/>
</g>
<g>
	<g>
		<g>
			<ellipse transform="matrix(0.9286 -0.3711 0.3711 0.9286 -17.6622 75.5318)" class="st1" cx="187.4" cy="83.7" rx="4" ry="4"/>
			<g>
				<g>
					<path class="st1" d="M190.2,87.3L190.2,87.3c0.4-0.3,1-0.2,1.2,0.2l0,0l-1.4,1.1l0,0C189.7,88.2,189.8,87.6,190.2,87.3z"/>
					
						<rect x="189.3" y="85.1" transform="matrix(-0.8005 0.5994 -0.5994 -0.8005 393.1169 42.0922)" class="st1" width="0.5" height="2.7"/>
				</g>
				<g>
					<path class="st1" d="M184.7,80L184.7,80c-0.4,0.3-1,0.2-1.2-0.2l0,0l1.4-1.1l0,0C185.2,79.1,185.1,79.7,184.7,80z"/>
					
						<rect x="185.1" y="79.5" transform="matrix(0.8005 -0.5994 0.5994 0.8005 -11.474 127.2145)" class="st1" width="0.5" height="2.7"/>
				</g>
			</g>
			<g>
				<g>
					<path class="st1" d="M192.9,84.4L192.9,84.4c0.1-0.5,0.5-0.8,1-0.8l0,0l-0.3,1.8l0,0C193.1,85.4,192.8,84.9,192.9,84.4z"/>
					<polygon class="st1" points="189.6,84.2 189.6,83.7 193.2,84.2 193.1,84.7 					"/>
				</g>
				<g>
					<path class="st1" d="M182.9,83L182.9,83c-0.1,0.5-0.5,0.8-1,0.8l0,0l0.3-1.8l0,0C182.6,82.1,183,82.5,182.9,83z"/>
					
						<rect x="183.7" y="81.8" transform="matrix(0.1422 -0.9898 0.9898 0.1422 75.4844 253.4205)" class="st1" width="0.5" height="2.7"/>
				</g>
			</g>
			<g>
				<g>
					<path class="st1" d="M191.1,80.9L191.1,80.9c-0.3-0.4-0.2-1,0.2-1.2l0,0l1.1,1.4l0,0C192,81.4,191.4,81.3,191.1,80.9z"/>
					
						<rect x="190" y="80.2" transform="matrix(0.5994 0.8005 -0.8005 0.5994 141.5006 -119.6272)" class="st1" width="0.5" height="2.7"/>
				</g>
				<g>
					<path class="st1" d="M182.9,87L182.9,87c0.3,0.4,0.2,1-0.2,1.2l0,0l-1.1-1.4l0,0C182.1,86.5,182.7,86.6,182.9,87z"/>
					<polygon class="st1" points="185.6,84.8 185.8,85.2 182.9,87.3 182.6,87 					"/>
				</g>
			</g>
			<g>
				<g>
					<path class="st1" d="M188.2,78.4L188.2,78.4c-0.5-0.1-0.8-0.5-0.8-1l0,0l1.8,0.3l0,0C189.1,78.1,188.6,78.5,188.2,78.4z"/>
					<polygon class="st1" points="188,81.5 187.5,81.5 188,78.1 188.4,78.2 					"/>
				</g>
				<g>
					<path class="st1" d="M186.8,88.2L186.8,88.2c0.5,0.1,0.8,0.5,0.8,1l0,0l-1.8-0.3l0,0C185.8,88.5,186.3,88.1,186.8,88.2z"/>
					
						<rect x="186.7" y="85.8" transform="matrix(-0.9898 -0.1422 0.1422 -0.9898 359.5834 199.9984)" class="st1" width="0.5" height="2.7"/>
				</g>
			</g>
		</g>
	</g>
	<path class="st15" d="M189.1,81.1c0,0.4-0.8,0.8-1.7,0.8c-1,0-1.8-0.3-1.8-0.7c0-0.4,0.8-0.8,1.7-0.8S189,80.7,189.1,81.1z"/>
	<path class="st15" d="M186.4,83.1c-0.1,0.1-0.4,0.1-0.7-0.1c-0.3-0.2-0.5-0.5-0.4-0.6c0.1-0.1,0.4-0.1,0.7,0.1
		C186.3,82.7,186.5,83,186.4,83.1z"/>
	<path class="st15" d="M188,82.5c0,0.2-0.2,0.2-0.5,0.2c-0.2,0-0.4-0.2-0.4-0.4c0-0.2,0.2-0.2,0.5-0.2C187.9,82.2,188,82.4,188,82.5
		z"/>
	<path class="st15" d="M185,81.8c-0.1,0-0.2,0-0.2-0.1c-0.1-0.1-0.1-0.2,0-0.2c0.1,0,0.2,0,0.2,0.1C185.1,81.7,185.1,81.8,185,81.8z
		"/>
	<path class="st15" d="M184.9,83.5c-0.1,0.1-0.3,0.1-0.5,0c-0.2-0.1-0.3-0.3-0.2-0.5c0.1-0.1,0.3-0.1,0.5,0
		C184.9,83.1,185,83.3,184.9,83.5z"/>
</g>
<g>
	<g>
		<g>
			
				<ellipse transform="matrix(0.6946 -0.7194 0.7194 0.6946 -72.0962 166.0734)" class="st1" cx="159.5" cy="167.9" rx="6.2" ry="6.2"/>
			<g>
				<g>
					<path class="st1" d="M165.8,171.4L165.8,171.4c0.4-0.7,1.2-0.9,1.9-0.5l0,0l-1.3,2.4l0,0C165.6,172.9,165.4,172.1,165.8,171.4z
						"/>
					
						<rect x="164" y="168.5" transform="matrix(-0.484 0.8751 -0.8751 -0.484 393.1432 109.3704)" class="st1" width="0.7" height="4.2"/>
				</g>
				<g>
					<path class="st1" d="M153.3,164.5L153.3,164.5c-0.4,0.7-1.2,0.9-1.9,0.5l0,0l1.3-2.4l0,0C153.4,163,153.7,163.8,153.3,164.5z"
						/>
					
						<rect x="154.4" y="163.2" transform="matrix(0.484 -0.8751 0.8751 0.484 -64.7969 220.6942)" class="st1" width="0.7" height="4.2"/>
				</g>
			</g>
			<g>
				<g>
					<path class="st1" d="M167.7,165.6L167.7,165.6c-0.2-0.7,0.2-1.5,0.9-1.7l0,0l0.8,2.7l0,0C168.7,166.7,167.9,166.3,167.7,165.6z
						"/>
					<polygon class="st1" points="162.9,167.4 162.7,166.7 168,165.1 168.2,165.8 					"/>
				</g>
				<g>
					<path class="st1" d="M152.7,169.9L152.7,169.9c0.2,0.7-0.2,1.5-0.9,1.7l0,0L151,169h0C151.7,168.8,152.5,169.2,152.7,169.9z"/>
					
						<rect x="153.9" y="167.4" transform="matrix(-0.2765 -0.961 0.961 -0.2765 34.0779 364.5703)" class="st1" width="0.7" height="4.2"/>
				</g>
			</g>
			<g>
				<g>
					<path class="st1" d="M163,161.7L163,161.7c-0.7-0.4-0.9-1.2-0.5-1.9l0,0l2.4,1.3l0,0C164.5,161.8,163.7,162.1,163,161.7z"/>
					
						<rect x="161.8" y="161.1" transform="matrix(0.875 0.484 -0.484 0.875 99.2369 -58.1175)" class="st1" width="0.7" height="4.2"/>
				</g>
				<g>
					<path class="st1" d="M155.3,175.5L155.3,175.5c0.7,0.4,0.9,1.2,0.5,1.9l0,0l-2.4-1.3l0,0C153.8,175.4,154.6,175.1,155.3,175.5z
						"/>
					<polygon class="st1" points="157.6,170.7 158.2,171.1 155.4,176.1 154.7,175.7 					"/>
				</g>
			</g>
			<g>
				<g>
					<path class="st1" d="M157.2,160L157.2,160c-0.7,0.2-1.5-0.2-1.7-0.9l0,0l2.7-0.8l0,0C158.4,159.1,157.9,159.8,157.2,160z"/>
					<polygon class="st1" points="158.9,164.6 158.2,164.8 156.7,159.7 157.4,159.5 					"/>
				</g>
				<g>
					<path class="st1" d="M161.5,174.8L161.5,174.8c0.7-0.2,1.5,0.2,1.7,0.9l0,0l-2.7,0.8l0,0C160.3,175.8,160.8,175,161.5,174.8z"
						/>
					
						<rect x="160.7" y="171.1" transform="matrix(-0.961 0.2765 -0.2765 -0.961 363.7054 295.137)" class="st1" width="0.7" height="4.2"/>
				</g>
			</g>
		</g>
	</g>
	<path class="st15" d="M160.2,163.2c0.3,0.6-0.6,1.6-1.9,2.3c-1.4,0.7-2.7,0.8-3,0.2c-0.3-0.6,0.6-1.6,1.9-2.3
		C158.6,162.8,159.9,162.7,160.2,163.2z"/>
	<path class="st15" d="M157.7,167.8c0,0.2-0.5,0.4-1.1,0.3c-0.6-0.1-1-0.3-1-0.6s0.5-0.4,1.1-0.3
		C157.3,167.3,157.8,167.6,157.7,167.8z"/>
	<path class="st15" d="M159.6,166c0.1,0.2-0.2,0.5-0.6,0.6c-0.4,0.1-0.7,0-0.8-0.3c-0.1-0.2,0.2-0.5,0.6-0.6
		C159.2,165.6,159.6,165.7,159.6,166z"/>
	<path class="st15" d="M154.9,166.9c-0.1,0.1-0.2,0.1-0.4,0c-0.2-0.1-0.2-0.2-0.2-0.3c0.1-0.1,0.2-0.1,0.4,0
		C154.9,166.6,155,166.8,154.9,166.9z"/>
	<path class="st15" d="M155.9,169.3c0,0.2-0.4,0.4-0.8,0.4c-0.4,0-0.7-0.3-0.6-0.5c0-0.2,0.4-0.4,0.8-0.4
		C155.6,168.8,155.9,169,155.9,169.3z"/>
</g>
</svg>
