<?xml version="1.0" encoding="utf-8"?>
<!-- Generator: Adobe Illustrator 22.0.1, SVG Export Plug-In . SVG Version: 6.00 Build 0)  -->
<svg version="1.1" id="Layer_1" xmlns="http://www.w3.org/2000/svg" xmlns:xlink="http://www.w3.org/1999/xlink" x="0px" y="0px"
	 viewBox="0 0 161.7 138.4" style="enable-background:new 0 0 161.7 138.4;" xml:space="preserve">
<style type="text/css">
	.st0{fill:#FFCA07;}
	.st1{opacity:0.14;fill:#055065;enable-background:new    ;}
	.st2{fill:#A0CD5D;}
	.st3{fill:#BAE0DD;}
	.st4{fill:#FFFFFF;}
	.st5{opacity:0.14;fill:#3F499B;enable-background:new    ;}
	.st6{fill:#00B5AD;}
	.st7{opacity:7.000000e-02;fill:#EDF1F7;enable-background:new    ;}
	.st8{fill:#055065;}
	.st9{opacity:0.65;fill:#FFFFFF;enable-background:new    ;}
	.st10{opacity:0.58;fill:#3F499B;enable-background:new    ;}
	.st11{fill:none;}
	.st12{fill:#4F66AF;}
	.st13{fill:#4C6C7E;}
</style>
<g>
	<path class="st0" d="M161.7,138.4l-3.1-40.7c-0.1-0.5-0.5-0.8-1-0.8l-60.7,4.7c-0.5,0.1-0.8,0.5-0.8,1l2.8,35.8H161.7z"/>
	<path class="st1" d="M34.3,123.3l25.4,15.1h37.5l33-55.6c0.3-0.4,0.1-1-0.3-1.2L77.5,50.5c-0.4-0.3-1-0.1-1.2,0.3L34,122.1
		C33.7,122.5,33.9,123.1,34.3,123.3z"/>
	<path class="st2" d="M33.4,121.2l29,17.2h32.7l34.2-57.7c0.3-0.4,0.1-1-0.3-1.2L76.6,48.4c-0.4-0.3-1-0.1-1.2,0.3L33.1,120
		C32.8,120.4,33,121,33.4,121.2z"/>
	<path class="st1" d="M104.1,138.4l12.7-69.3c0.1-0.4-0.2-0.9-0.7-1l-59.9-11c-0.4-0.1-0.9,0.2-1,0.7l-14.8,80.6H104.1z"/>
	<path class="st3" d="M39.7,138.1l1.6,0.3h61.1l13.2-71.6c0.1-0.4-0.2-0.9-0.7-1L55,54.8c-0.4-0.1-0.9,0.2-1,0.7l-15,81.6
		C38.9,137.5,39.2,138,39.7,138.1z"/>
	<g>
		<path class="st4" d="M106.5,75.8C106.4,75.8,106.4,75.8,106.5,75.8L91.4,73c-0.3,0-0.4-0.3-0.4-0.6s0.3-0.4,0.6-0.4l15,2.8
			c0.3,0,0.4,0.3,0.4,0.6C106.9,75.6,106.7,75.8,106.5,75.8z"/>
		<path class="st4" d="M105.6,80.6C105.5,80.6,105.5,80.6,105.6,80.6l-15.1-2.8c-0.3,0-0.4-0.3-0.4-0.6s0.3-0.4,0.6-0.4l15,2.8
			c0.3,0,0.4,0.3,0.4,0.6C106,80.4,105.8,80.6,105.6,80.6z"/>
		<path class="st4" d="M104.6,85.8L104.6,85.8L89.5,83c-0.3,0-0.4-0.3-0.4-0.6s0.3-0.4,0.6-0.4l15,2.8c0.3,0,0.4,0.3,0.4,0.6
			C105,85.6,104.8,85.8,104.6,85.8z"/>
		<g>
			<path class="st5" d="M81.4,90.2l-25.7-4.7c-0.5-0.1-0.9-0.6-0.8-1.1L60,56.8c0.1-0.5,0.6-0.9,1.1-0.8l25.7,4.7
				c0.5,0.1,0.9,0.6,0.8,1.1l-5.1,27.6C82.4,90,81.9,90.3,81.4,90.2z"/>
			<path class="st6" d="M80.5,88.6L56,84.1c-0.5-0.1-0.9-0.6-0.8-1.1L60,56.8c0.1-0.5,0.6-0.9,1.1-0.8l24.5,4.5
				c0.5,0.1,0.9,0.6,0.8,1.1l-4.8,26.2C81.5,88.4,81,88.7,80.5,88.6z"/>
			<path class="st7" d="M86,64.2l-26.4-4.9l0.5-2.5c0.1-0.5,0.6-0.8,1.1-0.7l24.6,4.5c0.5,0.1,0.8,0.6,0.7,1L86,64.2z"/>
			<path class="st8" d="M67,72.3c-0.2,0-0.4,0-0.6-0.1L66,72.1c-1.9-0.4-3.2-2.2-2.9-4.2l0.9-5c0.1-0.4,0.4-0.6,0.8-0.6
				c0.4,0.1,0.6,0.4,0.6,0.8l-0.9,5c-0.2,1.2,0.6,2.3,1.7,2.5l0.4,0.1c0.9,0.2,1.8-0.4,1.9-1.3l2.3-12.7c0.2-0.9-0.4-1.8-1.4-2
				l-0.6-0.1c-1-0.2-1.9,0.5-2.1,1.5l-0.1,0.3c-0.1,0.4-0.5,0.6-0.8,0.6c-0.4-0.1-0.6-0.4-0.6-0.8l0.1-0.3c0.3-1.8,2-2.9,3.8-2.6
				l0.6,0.1c1.7,0.3,2.8,2,2.5,3.7l-2.3,12.7C69.7,71.3,68.4,72.3,67,72.3z"/>
			<path class="st4" d="M69.4,61.7L69.4,61.7l-9.6-1.8c-0.1,0-0.2-0.1-0.2-0.3c0-0.1,0.1-0.2,0.3-0.2l9.6,1.8c0.1,0,0.2,0.1,0.2,0.3
				C69.7,61.6,69.6,61.7,69.4,61.7z"/>
		</g>
		<g>
			<path class="st4" d="M98.7,111.2L98.7,111.2l-45.9-8.5c-0.3,0-0.4-0.3-0.4-0.6s0.3-0.4,0.6-0.4l45.8,8.4c0.3,0,0.4,0.3,0.4,0.6
				C99.1,111,98.9,111.2,98.7,111.2z"/>
			<path class="st4" d="M95.4,128.9L95.4,128.9l-45.9-8.4c-0.3,0-0.4-0.3-0.4-0.6s0.3-0.4,0.6-0.4l45.8,8.4c0.3,0,0.4,0.3,0.4,0.6
				C95.9,128.8,95.7,128.9,95.4,128.9z"/>
			<path class="st4" d="M72.9,115.6L72.9,115.6l-21.7-4c-0.3,0-0.4-0.3-0.4-0.6s0.3-0.4,0.6-0.4l21.7,4c0.3,0,0.4,0.3,0.4,0.6
				C73.3,115.4,73.1,115.6,72.9,115.6z"/>
			<path class="st4" d="M75.9,99.4C75.9,99.4,75.8,99.4,75.9,99.4l-21.7-4c-0.3,0-0.4-0.3-0.4-0.6s0.3-0.4,0.6-0.4l21.7,4
				c0.3,0,0.4,0.3,0.4,0.6C76.3,99.2,76.1,99.4,75.9,99.4z"/>
			<path class="st4" d="M97.1,120C97.1,120,97,120,97.1,120l-20.7-3.8c-0.3,0-0.4-0.3-0.4-0.6s0.3-0.4,0.6-0.4l20.6,3.8
				c0.3,0,0.4,0.3,0.4,0.6C97.5,119.8,97.3,120,97.1,120z"/>
		</g>
	</g>
	<g>
		<g>
			<ellipse class="st9" cx="54.7" cy="38.1" rx="32.2" ry="32.2"/>
		</g>
		<g>
			<g>
				<path class="st10" d="M21.5,38.1c0-18.3,14.9-33.2,33.2-33.2s33.2,14.9,33.2,33.2S73,71.3,54.7,71.3S21.5,56.4,21.5,38.1z
					 M23.5,38.1c0,17.2,14,31.2,31.2,31.2s31.2-14,31.2-31.2S71.9,6.9,54.7,6.9S23.5,20.9,23.5,38.1z"/>
				<g>
					<g>
						<circle class="st11" cx="54.7" cy="38.1" r="32.2"/>
						<g>
							<path class="st8" d="M27.5,63.5l4.3,4.3c6.3,4.9,14.3,7.8,22.9,7.8c20.7,0,37.6-16.8,37.6-37.6c0-20.7-16.8-37.6-37.6-37.6
								S17.1,17.2,17.1,38c0,8.6,2.9,16.6,7.8,22.9c0.1,0,0.1,0.1,0.2,0.1L27.5,63.5z M22.5,38.1c0-17.8,14.4-32.2,32.2-32.2
								s32.2,14.4,32.2,32.2S72.5,70.3,54.7,70.3S22.5,55.9,22.5,38.1z"/>
							<path class="st8" d="M31.5,68.3l-6.8-6.8c0,0,0,0-0.1-0.1l-0.1-0.1c-5.2-6.7-7.9-14.8-7.9-23.2C16.6,17.1,33.7,0,54.7,0
								s38.1,17.1,38.1,38.1S75.7,76.2,54.7,76.2C46.2,76.2,38.2,73.4,31.5,68.3z M17.6,38.1c0,8.2,2.7,16,7.7,22.6
								c0.1,0,0.1,0.1,0.2,0.1l6.7,6.7c6.5,5,14.3,7.6,22.5,7.6c20.4,0,37.1-16.6,37.1-37.1S75.2,0.9,54.7,0.9S17.6,17.7,17.6,38.1z
								 M22,38.1c0-18,14.7-32.7,32.7-32.7s32.7,14.7,32.7,32.7S72.7,70.8,54.7,70.8S22,56.1,22,38.1z M23,38.1
								c0,17.5,14.2,31.7,31.7,31.7s31.7-14.2,31.7-31.7S72.2,6.4,54.7,6.4S23,20.6,23,38.1z"/>
						</g>
						<path class="st12" d="M27.5,63.5c0.6,0.6,0.6,1.5,0,2L26,67c-1.8-1.8-3.6-3.5-4.7-4.2l1.7-1.7c0.5-0.5,1.3-0.6,1.9-0.1
							c0.1,0,0.1,0.1,0.2,0.1L27.5,63.5z"/>
						<g>
							<path class="st13" d="M26,67l1.5-1.5c0.6-0.6,0.6-1.5,0-2l4.3,4.3l0.1,0.1c0.6,0.6,0.6,1.5,0,2l-1.8,1.8
								C29.5,70.8,27.8,68.9,26,67z"/>
							<path class="st13" d="M27.5,63.5c0.6,0.6,0.6,1.5,0,2L26,67c-1.8-1.8-3.6-3.5-4.7-4.2l1.7-1.7c0.5-0.5,1.3-0.6,1.9-0.1
								c0.1,0,0.1,0.1,0.2,0.1L27.5,63.5z"/>
						</g>
					</g>
				</g>
			</g>
		</g>
	</g>
	<path class="st8" d="M30.2,71.7c-0.6-0.9-2.3-2.9-4.1-4.7c-1.8-1.8-3.7-3.5-4.7-4.2c-0.4-0.3-0.7-0.4-0.8-0.3L0,83.3v19.7
		l30.4-30.6C30.5,72.2,30.4,72,30.2,71.7z"/>
</g>
</svg>
