<?xml version="1.0" encoding="utf-8"?>
<!-- Generator: Adobe Illustrator 22.0.1, SVG Export Plug-In . SVG Version: 6.00 Build 0)  -->
<svg version="1.1" id="Layer_1" xmlns="http://www.w3.org/2000/svg" xmlns:xlink="http://www.w3.org/1999/xlink" x="0px" y="0px"
	 viewBox="0 0 173.4 251.4" style="enable-background:new 0 0 173.4 251.4;" xml:space="preserve">
<style type="text/css">
	.st0{fill:#00B5AD;}
	.st1{fill:#A0CD5D;}
	.st2{clip-path:url(#SVGID_2_);}
	.st3{fill:#FFCA07;}
	.st4{opacity:0.14;fill:#055065;enable-background:new    ;}
	.st5{fill:#BAE0DD;}
	.st6{fill:#FFFFFF;}
	.st7{opacity:0.14;fill:#3F499B;enable-background:new    ;}
	.st8{opacity:7.000000e-02;fill:#EDF1F7;enable-background:new    ;}
	.st9{fill:#055065;}
	.st10{opacity:0.65;fill:#FFFFFF;enable-background:new    ;}
	.st11{opacity:0.58;fill:#3F499B;enable-background:new    ;}
	.st12{fill:none;}
	.st13{fill:#4F66AF;}
	.st14{fill:#4C6C7E;}
	.st15{fill:#D0E5B0;}
</style>
<g>
	<ellipse class="st0" cx="96.6" cy="69" rx="69" ry="69"/>
	<path class="st1" d="M133.4,10.7c-5.5-3.5-11.5-6.2-17.9-8c-0.4,0.1-0.8,0.2-1.1,0.2c-1.3,0-2.6-0.3-4-0.1
		c-2.8,0.3-4.9-0.2-7.7-0.8c-2.6-0.6-5-1.4-7.8-1c-1.1,0.1-2.3,0.5-3.3,0.8c-1.3,0.3-2.4,0.3-3.7,0.5C86.8,2.5,86,2.7,85,3
		c-0.7,0.2-2.1,0.8-2.8,0.8c0.2-0.7,1.1-1.5,1.6-1.9C82,2.2,80.6,3.5,79,3.8c-1,0.2-1.8,0.1-2.9,0.4c-1.2,0.4-2.4,1.3-3.6,1.5
		c1-0.5,1.9-1.2,2.5-2.2c-10.7,3.6-20.3,9.7-28,17.6c1-0.2,3.2-1.7,3.8-2.4c1.5,0.7-0.4,2.8-0.7,3.8c-0.2,0.8,0,1.1-0.6,1.7
		c-0.3,0.4-1,0.3-1.4,0.7c0.2-0.2,0.4,0.2,0.9,0.1c0.6-0.2,0.8-0.4,1.4-0.7c0.9-0.3,1.3-0.4,2,0.2c0.4-1,0-2.2,0.7-3
		c1-1.2,3.6-1.1,4.2-2.5c-0.5,1.1-1.6,2.2-2.4,3.2c-1,1.3-0.9,2.5-1.4,4c-0.4,1.5-1.6,2.3-2.4,3.6c-2.3-1-0.7-2.9,0-4.4
		c-0.8,0-1.6,0.5-2.2,0.8c0-0.3-0.2-0.5-0.2-0.8c-0.8,0.2-2.1,0.5-2.1-0.8c-1.3-0.3-4.8,2.9-4.4,4.3c0.3,0,0.6,0.3,0.9,0.3
		c0.3,0.9-0.7,1.8-1.2,2.4c-0.3,0.3-0.6,0.6-0.8,0.9c-0.3,0.4-0.4,1.3-0.7,1.8c-1.1,1.7-1.9,0.4-1.8-0.9c0-1.2,0.2-1.3-0.2-1.6
		c-6.8,10.7-10.8,23.4-10.8,37c0,16.4,5.7,31.4,15.3,43.3c-0.3-0.7-0.5-1.4-0.8-1.9c-0.8-1.7-1.5-3.3-2.6-4.7
		c-0.8-1.1-1.8-2.7-2.3-3.9c-0.5-1.2-0.2-3.2-1.3-4.1c0.8-1,0.4-1.1,0.2-2c-0.1-0.4-0.3-0.5-0.3-1c0-0.6,0.4-0.8,0.4-1.2
		c0.1-1.9-1.3-4.4-2-6.2c-0.5-1.2-1.3-2.2-1.5-3.5c-0.2-1.4,0-3.1,0.2-4.4c0.7-4,1.8-7.6,3.4-11.3c0.8-1.8,0.8-3.3,1.4-5.1
		c0.4-1.2,1.4-2,1.4-3.4c-1.5-0.3-2.6,2.3-4,1.5c-1-0.6-0.3-2.7-0.4-3.7c-0.1-1.3-0.5-2.7-0.6-4c-0.1-1.1,0.6-1.8,0.7-2.8
		c0.1-0.9-0.1-1.5,0.3-2.5c0.6-1.9,0.8-3.4,0.9-5.4c0.1-1.4,0.5-2.7,1.5-3.7c-0.5,1.6-0.2,3.9-0.5,5.6c-0.4,2-0.2,4.1-0.7,6
		c-0.7,2.6-0.6,5-0.9,7.5c1.9-0.7,3.1-1.9,4.7-3.2c0.4-0.3,0.9-0.4,1.2-0.9c0.3-0.4,0.3-1.1,0.6-1.3c0.5-0.4,1.7-0.6,2.3-0.8
		c1-0.4,1.9-0.8,2.5-1.9c0.3-0.6,0.3-1.3,0.5-1.8c0.4-0.8,1.4-0.9,1.5-2c0-0.2-0.3-0.8-0.5-1.2c-0.3-0.5-1.1-0.2-1.4-0.5
		c-0.6-0.8,0.3-2,0.5-2.8c-0.6,0.8-2.1,2.4-3.2,2.2c-0.2-1.1-0.5-1.2-0.3-2.3c-1.6-0.6,0.1-4.6,0.6-5.5c1.1,1.2,0.1,3.4,1.1,4.5
		c1.3,1.5,2.2,0.1,3.1-0.6c0,0.5,0,1.7,0.3,2s1.8,0.5,2.2,0.6c0.7,0.2,1.7,0.8,2.5,0.7c0.9-0.1,1.3-1.2,2.2-1
		c0.1,0.2,0.2,0.3,0.3,0.5c1.6,0.9,0.3,1.6,0.6,2.9c0.5,0,1,0,1.5,0.2c-0.1,0.4-0.4,0.8-0.7,1.1c1.1,0,1.7,1.1,2.3,1.9
		c0.9,1.1,0.7,2.1,0.9,3.6c0.4,3.6,1.6,6.9,2.3,10.3c0.3,1.4,0.5,2.5,1.7,3.6c0.7-0.5,0.9-1.4,1.7-1.6c-0.1-0.7,0.9-2.6,1.1-3.5
		c0.4-1.4,0.7-2.3,0.7-3.9c0-2.7,2.4-3.7,4.5-4.9c1.6-0.9,2.5-1.7,3.5-3.2c0.6-0.8,1-1.1,2-1.5c1.3-0.4,4.4,0.3,5.2-0.7
		c-0.1,0.6,1.5,0.9,1.9,1.3c0.8,0.8,0.6,1.6,1,2.6c0.3,0.8,1,1.3,1.1,2.2c0.2,1.1-0.3,1.8-0.5,2.8c1.3,0.2,2.8-0.9,3.9-0.5
		c1.3,0.5,1.6,2,1.7,3.3c0.1,1.4,0.3,2.7,0.3,3.9c0,1.4-0.5,2.6-0.6,3.8c1,1.1,1.9,1.2,2.5,2.6c0.7,1.4,0.5,2.6,1.1,3.9
		c0.5,1.4,1.8,1.5,2.8,2.4c0.6,0.5,1,0.9,1.6,1.4c0.4,0.3,0.9,0.4,1.3,0.9c0.6-1-1-2-1.2-3c-0.3-1.2,0.2-2.3-0.6-3.4
		c-0.9-1.4-2.9-2-3.9-3.2c-0.9-1-1.1-1.7-1.1-3c-0.3,0-0.5-0.2-0.8-0.2c-0.1-1.2-0.1-5.6,1.4-6c0.9-0.2,1.5,0.7,1.6,1.5
		c1.7,0,1.2,0.1,2.1,1.3c0.6,0.9,0.9,1.2,1.3,2.4c0.6-0.2,1-0.8,1.5-0.2c0.5,0.6-0.4,1.3,0,1.8c0.6,0.9,2.3-1.8,2.9-2.3
		c1.6-1.2,2.9-1.3,2.9-3.6c0-0.9,0.2-2.1,0-2.9c-0.3-1.1-1-1.2-2-2c-1.8-1.5-2.8-2.5-3.1-4.7c-0.1-1.4,2.5-3,4-2.8
		c3.2,0.5,0.4,2.6,0.4,4c0.9,0.2,1.2-0.6,2.1-0.7c0.7-1.4-0.5-2.7,1.4-3.6c0.8-0.4,1.7-0.2,2.6-0.5c0.9-0.3,1.4-1.1,2.1-1.7
		c0.9-0.6,1.8-0.9,2.5-1.7c1-1.1,1.6-2.5,2.3-3.8c0.9-1.9,1.1-3.6,0.5-5.7c-0.2-0.8-0.3-2.5-1.1-3.1c-0.7-0.5-1.6,0.2-1.9-0.9
		c-0.1-0.1-0.3-0.4-0.1-0.8c0.8-0.1,1.4-0.6,1.2-1.4c-0.7,0-1.6-0.1-2.2,0.2c-0.4-0.7-1.5-1.3-1.3-2.3c0.2-0.8,1.3-0.8,1.3-2
		c0.7,0.5,0.3,1.3,1,1.6c1,0.5,1.2-0.5,2.1-0.7c1.2-0.2,1.3,0.5,1.7,1.3c0.6,1.2,0.5,0.7,1.4,1.4c0.8,0.6,0.8,0.4,0.8,1.7
		c0,0.8-0.3,1.9,0.6,2.2c1.1,0.4,2.4-1.5,2.5-2.4c0.1-1.5-1.2-1.2-2.2-2c-0.6-0.4-0.6,0-0.8-0.8c0.1,0.2-0.1-1.9-0.2-1.6
		c0.3-1.1,1.5-1.2,1-2.6c2.2-0.5,3.3-0.7,3.2-3.2c0-0.4,0-1.7-0.1-2.1c-0.2-0.9-1.1-1.3-1.3-2.3c0.5,0.6,1.3,0.7,1.8,1.2
		c0.4,0.4,0.3,0.7,0.5,1.1c0.6,0.8,1,1.4,2,1.9c-0.3-0.6-1-1.1-1.4-1.8c-0.3-0.6-0.2-1.5-0.6-2.1c-0.4-0.5-3.5-2.5-4.1-2.6
		c-1.1-0.1-1.2,0.8-2.4,0.4s-2.3-1.5-1.5-2.8c0.7-1,3.5-0.3,4.9-0.3c-0.1-0.5-0.5-0.9-0.8-1.4c1.6,0.4,4.1,2.2,5,3.6
		c0.8,1.2,0.9,1.8,2.2,2.4c0.8,0.4,1.8,0.5,2.4,1.1c-0.7-0.9-1.9-1.6-2.5-2.5c-0.4-0.6-0.4-1.3-0.8-1.8
		C131.4,10.8,132.5,10.9,133.4,10.7z"/>
	<path class="st1" d="M131.5,20c-0.1-0.1-0.2-0.1-0.4,0c0.2,0.3,0.5,0.7,0.7,1.1c0.2,0.5,0,0.3-0.1,0.6c-0.2,0.4-0.4,0.9,0.3,1
		c0.1-0.2,0.1-0.4,0.1-0.6c0.4,0,0.7-0.3,1.1-0.2c0.3,0.1,0.4,0.4,0.7,0.3c0.2-0.1,0.3-0.6,0.2-0.7c-0.1-0.6-1.1-0.7-1.6-0.9
		C132.1,20.4,131.9,20.1,131.5,20z"/>
	<path class="st1" d="M132.9,23.7c-0.6,0.4,0.6,1.6,0.8,2.1c0.1,0.3,0.1,0.8,0.1,1.2c-0.1,0.7-0.2,0.2-0.6,0.2
		c-0.3,0-0.7,0.4-0.8,0.7s0.2,0.7,0.1,0.9c-0.1,0.2-0.3,0.1-0.5,0.2c-0.1,0.1-0.2,0.4-0.4,0.4c-0.3,0.1-0.8-0.1-1.1,0
		c-0.9,0-2.2,0.7-2.2,1.7c0.8-0.2,2,0,2.6-0.5c0.3-0.3,0.7-0.8,1.3-0.5c0.3,0.2,0.5,0.8,0.8,1.1c0.3-0.3-0.2-0.6-0.2-1
		c0.1-0.3,0.5-0.4,0.8-0.3c0.3,0.2,0.2,0.4,0.7,0.4c0.6,0,0.5-0.4,0.6-0.8c0.2-0.5,0.2-0.1,0.6-0.3c0.5-0.2,0.3-0.6,0.1-1
		s-0.6-0.6-0.6-1.1c0-0.4,0.2-0.8,0.1-1.3C134.8,24.9,134.1,23.9,132.9,23.7z"/>
	<path class="st1" d="M129.1,32c-0.4-0.1-0.4,0.6-0.4,0.9c0,0,0.2,0.3,0.2,0.4c0.1,0.2-0.1,0.4,0.1,0.6c0.4,0.5,0.8-0.1,0.9-0.6
		c0.1-0.2,0-0.5,0-0.7s0.3-0.4,0.2-0.6C129.9,32,129.4,31.9,129.1,32z"/>
	<path class="st1" d="M121.6,42.4c-0.9,0.4-1.2,1.7-0.9,2.5c0.1,0.2,0.1,0.4,0.2,0.6c0.1,0.2,0.3,0.2,0.4,0.4
		c0.2,0.3,0.2,0.4,0.2,0.8c0-0.5,0.2-0.9,0.4-1.3c0.3-0.6,0.1-0.4,0-1C121.8,43.8,122.9,42.3,121.6,42.4z"/>
	<path class="st1" d="M122.9,50.9c-1.3,0.1,0.1,2.5-0.2,3.1c-0.2,0.5-0.5,0.8-0.6,1.3c-0.1,0.6-0.1,1.3,0.4,1.7
		c0.4-0.5,0.8,0.5,0.9,0.8c0.1,0.6-0.1,1.2,0.8,1.2c0-0.3,0-0.7,0-1s0-0.4,0.1-0.6c0-0.1,0.2-0.2,0.3-0.3c0.1-0.5-0.2-0.3-0.4-0.7
		c-0.1-0.2-0.1-0.7-0.1-0.9c0.1-0.3,0.4-0.7,0.6-1c0.2-0.5,0.2-1.1,0.1-1.7C124.5,52.1,123.9,51,122.9,50.9z"/>
	<path class="st1" d="M118.7,68c-0.9-0.2-1.2,1.7-1.6,2.2c-0.3,0.3-0.5,0.3-0.9,0.4s-0.7,0.3-1,0.6c-0.6,0.4-0.6,0.5-0.8,1.2
		c-0.1,0.5-0.4,0.6-0.8,0.9c-0.7,0.5-1.4,0.1-2.1,0.4c-0.8,0.4-0.2,0.8-0.2,1.3c0,0.4-0.6,0.3-1,0.3c-0.5,0.1-0.6,0-1-0.1
		c-0.8-0.2-1.2,0.4-1.1,1.2c0.1,0.4,0.4,0.6,0.4,1s-0.2,0.8-0.2,1.2c0,0.6,0.1,1.5,0.8,1.7c0.1,0,0.5,0,0.6,0c0.3,0.2,0,0.7,0,1
		c0,0.6,0.3,0.9,0.7,1.2c0.3,0.2,0.2,0.2,0.6,0.2c0.3,0,0.4-0.2,0.7-0.1c0.2,0,0.3,0.2,0.5,0.3c1,0.5,1.7,0.1,2.7,0.1
		c0.8,0,1,0.6,1.7,0.7c0.6,0.1,1.3,0,1.2-0.7c0.3,0.1,0.8,0.5,1,0.1c0.3-0.4-0.4-1-0.4-1.4c0-0.3,0.3-0.7,0.3-1s0-0.7,0-1
		c0.5-0.3,1.3-0.1,1.6-0.7c0.2-0.4-0.1-1.2-0.1-1.6c0-0.3,0-0.7,0.3-0.9c0.3-0.2,1.1,0.2,1.2-0.3c0.1-0.4-0.9-0.6-1.1-1
		c-0.2-0.4,0-0.7,0.1-1.1c0.1-0.8-0.8-1.3-0.2-2.2c0.2-0.3,1.3-0.2,1.2-0.6c-0.1-0.3-0.6-0.1-0.6-0.6c0.5-0.1,1-0.3,1.6-0.4
		c-0.1-0.8-1.5-0.4-2-0.8c-0.3-0.3-0.4-0.7-0.8-1C119.4,68.1,119.2,68.1,118.7,68z"/>
	<path class="st1" d="M103.7,86.2c-0.3-0.2,0.4-2.1,0.5-2.5c0-0.2,0-0.3-0.1-0.5s-0.3-0.3-0.4-0.4c-0.1-0.3,0.1-0.6,0-0.8
		c-0.2-0.6-1.1-0.5-1.5-0.8s-0.6-0.7-0.9-1.1c-0.2-0.3-0.7-0.6-0.8-0.9c-0.2-0.7,0.7-1.2-0.3-1.7c-0.3-0.2-0.5-0.1-0.8-0.3
		c-0.3-0.2-0.5-0.5-0.8-0.6c-0.6-0.4-1.3-1-2-1.3c-0.3-0.1-0.6-0.1-0.9-0.2c-0.2-0.1-0.4-0.4-0.5-0.6c-0.3-0.3-0.7-0.5-1.1-0.8
		c-0.5-0.4-0.9-0.7-1.4-1c-0.8-0.5-0.5-1.5-1.3-2c-1.2-0.8-2.7,0.2-4-0.3c0.5,0.4,0.6,1.3,1.1,1.7c0.4,0.3,0.9,0.2,1.2,0.6
		c0.4,0.5,0.4,1,1,1.5c0.5,0.4,0.6,0.7,1,1.1c0.4,0.5,0.7,0.2,1.2,0.5c0.3,0.2,0.4,0.6,0.5,0.9c0.1,0.5,0.3,0.7,0.5,1.1
		c0.4,0.9,0.5,1.6,1.4,2.1c1.1,0.7,0.9,1.6,1.6,2.6c0.4,0.6,0.9,1.2,1.4,1.7s1.3,0.8,1.9,1.3c0.5,0.4,0.8,0.6,1.2,1.1
		c0.2,0.3,0.5,0.6,0.9,0.6c0-0.4,0-0.8,0-1.2C102.8,85.8,103.2,86.2,103.7,86.2z"/>
	<path class="st1" d="M104.3,87.1c-0.5,0-1.1,0-0.9,0.7c-0.3,0-0.5,0.1-0.8,0.2c0.3,0.2,1,0.3,1.4,0.3c0.2,0,0.5-0.3,0.5,0.1
		c0,0.2-0.2,0.4-0.3,0.5c0.3,0,0.5,0.1,0.8,0.1c0.5,0.1,0.8,0.1,1.3,0c0.4,0,0.8,0.1,1.2,0.2c0.5,0.1,1.1,0.5,1.6,0.5
		c0.4,0,0.7-0.2,1.1-0.2c0.4,0,0.9,0.1,1.3,0.1c0.5,0,1-0.1,1.5,0c0.5,0,0.8,0.3,1.3,0.4c0.7,0.2,1.9,0.3,2.7,0.2
		c-0.3-0.5-0.9-0.4-1.2-0.8c-0.3-0.3-0.1-0.5-0.7-0.4c-0.3,0-1.1,0.3-1.3-0.2c-0.2-0.6,0.7-0.4,0.7-0.8c-0.3-0.1-0.6,0-1,0
		c-0.4-0.1-0.6-0.4-1.1-0.4c-1-0.1-2-0.4-3-0.1c-1.2,0.4-2.3,0.4-3.5-0.1c-0.3-0.2-0.6-0.4-1-0.3C104.6,86.9,104.4,87.1,104.3,87.1z
		"/>
	<path class="st1" d="M122.4,85.4c-0.1-0.7,0.7-3.3-0.5-3.2c-0.1,0.4-0.3,0.5-0.6,0.2c-0.3-0.4,0-0.8,0.2-1.1c0.4-0.6,0.9-1.1,1-1.9
		c0-0.4,0-0.8,0-1.1c0-0.5,0.2-1.1,0.3-1.6c0.2-0.9,0.7-1.2,1.5-1.1c0.5,0,1-0.1,1.5,0c0.5,0,0.9,0.2,1.5,0.2
		c1.1-0.2,2.3-0.2,2.7-1.4c0.2,1.2-1.2,2.6-2.3,2.8c-1,0.1-3.1-0.9-3.9,0.2c-0.5,0.6-0.3,1.7,0.4,2c0.8,0.5,1.2-0.4,2-0.7
		c0.2-0.1,1.9-0.6,1.9-0.2c0,0.3-1.2,0.7-1.4,0.8c-0.3,0.1-0.7,0.4-1,0.7c-0.3,0.4-0.2,0.3,0,0.8c0.1,0.4,0.2,0.8,0.3,1.2
		c0.1,0.4,0.3,0.5,0.4,0.9c0.1,0.4,0,0.9-0.1,1.2c-0.5-0.2-0.6,0.1-1,0.2c0-0.5-0.2-1.3-0.4-1.8c-0.2-0.4-0.5-1.5-1.1-1.3
		c-0.2,0.8,0,1.8-0.1,2.6c-0.1,0.6-0.2,1.3-0.1,1.8C123.1,85.9,122.6,85.8,122.4,85.4z"/>
	<path class="st1" d="M118.7,89.6c-0.3,0.6,0.7,1,1.2,0.7c-0.2-0.2-1.1-0.7-1.2-0.5"/>
	<path class="st1" d="M121.5,90.8c0.4,0.1,0.8,0.2,1.2,0.5c0.3,0.2,0.4,0.7,0.8,0.6C123.6,91.2,121.9,90.4,121.5,90.8z"/>
	<path class="st1" d="M122.7,89.6c0.5,0.4,1.3,0.4,1.9,0.4c0.6,0,1.2,0.2,1.8,0.1c0.7-0.1,1-0.7,1.5-0.9c0.4-0.2,0.7-0.2,0.9-0.8
		c-0.6,0-1.2,0.4-1.8,0.5c-0.7,0.1-1.3,0.4-2,0.4c-0.5,0-1.1-0.3-1.6-0.3C123.2,89,122.5,89.2,122.7,89.6z"/>
	<path class="st1" d="M127.1,91.3c0.4,0,0.6-0.4,0.8-0.6c0.4-0.4,0.9-0.8,1.3-1.1c0.6-0.4,1.3-0.4,1.8-0.9c-0.2,0.6-1.3,1.2-1.8,1.6
		c-0.3,0.3-0.6,0.8-0.9,1c-0.3,0.2-0.6,0.2-0.9,0.4c-0.3,0.2-0.6,0.6-1,0.7C126.3,91.8,126.6,91.6,127.1,91.3z"/>
	<path class="st1" d="M153.5,87.9c-0.8-0.7-1.1-1.4-1.3-2.4c-0.1-0.6-1.4-1.2-1.1-1.8c0.2-0.5,1.1-0.1,0.6-0.9
		c-0.3-0.4-0.6-0.5-0.8-0.9c-0.1-0.2-0.2-0.5-0.3-0.7c-0.1-0.4-0.1-0.8-0.4-1.1c-0.5-0.5-1.5-0.7-2.2-0.9c-1.5-0.5-3-1.4-4.6-1.1
		c-0.8,0.2-1,0.9-1.5,1.5c-0.2,0.2-1.2,1.2-1.4,1.2c-0.3,0-0.4-0.9-0.4-1.2c-0.1-0.4-0.2-0.9-0.1-1.4c0.1-0.4,0.3-0.5,0.1-0.8
		c-0.1-0.2-0.7-0.2-0.9-0.3c-0.4-0.1-1-0.2-1.2,0c-0.3,0.3-0.1,0.5-0.6,0.6c-0.4,0.1-0.7,0.1-1.1,0c0.1,1,1,0.4,1.3,1.1
		c0.1,0.2-0.1,0.5,0.1,0.6c0.1,0.1,0.6,0.3,0.7,0.3c0.4,0,0.4-0.3,0.7-0.3c0.3-0.1,0.6,0,0.5,0.4c-0.2,0.6-1.1,0.2-1.5,0.3
		c-1,0.4,0.7,0.8,0.8,1.1c0.1,0.2-0.5,0.9-0.2,1.1c0.5,0.5,1-0.6,1-1c0.6,0.1,1,0.7,1.5,0.9c1.1,0.3,1.7,0.2,2.6,1.1
		c0.7,0.7,0.6,1.7,0,2.3c-0.3,0.4-0.4,0.9-0.7,1.3c-0.1,0.1-0.8,0.6-0.1,0.7c0.2,0,1-0.5,1.3-0.6s0.6-0.3,1-0.3
		c1.1,0.1,0.3,1.6,1.5,1.2c0.9-0.3,2-0.8,2.3-1.8c0.2-0.7,0.3-1.2,1.2-0.8c0.3,0.1,0.8,0.7,1,1c0.2,0.4,0.1,1,0.4,1.4
		C151.9,88,152.9,87.9,153.5,87.9z"/>
	<path class="st1" d="M136,81.7c-0.6-0.2-1.2-0.7-1.9-0.8c-0.7-0.1-1.7,0.1-0.7,0.6c0.7,0.3,1.4,0.1,2,0.4c0.2,0.1,0.7,0.4,0.8,0.4
		C136.7,82.3,136.3,81.9,136,81.7z"/>
	<path class="st1" d="M133.8,73.4c-0.5-0.1-1.1,0.9-1.1,1.4c0,0.2,0.2,0.4,0.3,0.6c0.1,0.3,0,0.5-0.1,0.8c0,0.3-0.2,1.2,0,1.4
		c0.6,0.4,0.5-0.7,0.5-0.9c0.2-1,0.6,0.1,1.1,0.1c-0.1-0.5-0.7-0.7-0.8-1.2c0-0.6,0.6-0.5,0.7-1.1c-0.4-0.1-1.1,0.8-1.1,0.1
		c0-0.4,0.4-0.9,0.7-0.9C134,73.6,134,73.5,133.8,73.4z"/>
	<path class="st1" d="M143.1,98.5c-0.3,0.1-0.9-0.3-1.2-0.5c-0.6-0.4-1.1-0.7-1.6-0.9c-0.3-0.1-0.8-0.5-1-0.8
		c-0.4-0.5,0-0.9,0.3-1.4c0.2-0.2,0.4-0.3,0.5-0.5c0.2-0.2,0.3-0.5,0.5-0.8c0.2-0.2,0.9-0.8,0.8-1.2c-0.2-0.9-2.1,0.1-2.4,0
		c-0.6-0.1-2.3-1.6-2.7-0.5c-0.1,0.4,0.1,0.5-0.3,0.8c-0.2,0.1-0.4,0-0.6,0.1c-0.4,0.1-0.5,0.4-0.7,0.8c-0.4,0.6-0.8,1.2-1.2,1.8
		c-0.2,0.4-0.3,0.6-0.7,0.8c-0.8,0.5-1.1-0.3-2-0.5c-0.5-0.2-0.6,0-1,0.4c-0.6,0.6-1.2,1.1-1.8,1.7c-0.4,0.5-0.6,0.8-0.8,1.4
		c-0.1,0.3-0.1,0.4-0.3,0.5c-0.3,0.1-0.7-0.2-1,0.2c-0.2,0.2-0.2,0.7-0.2,0.9c-0.6-0.1-0.6-1-1.4-0.6c-0.7,0.3-0.7,1.5-1,2.1
		c-0.4,1-0.8,1.3-1.9,1.6c-0.9,0.3-1.5,0.8-2.4,1.2c-0.8,0.3-1.3,0.2-2.1,0.3c-1,0.1-2.5,0.7-3.2,1.4c-0.7,0.8-1,1.9-1.4,2.8
		c-0.1,0.3-0.3,0.7-0.2,0.9c0,0.2,0.1,0.3,0.2,0.5c0.1,0.6-0.4,1-0.4,1.6c0.1,0.6,0.9,1.3,1.2,1.8s0.7,1.1,0.9,1.6
		c0.1,0.3,0.2,1.1,0.1,1.4c-0.1,0.2-0.4,0.2-0.4,0.5c0,0.5-0.1,1.7-1,1.7c0.1,0.7,0.5,0.6,1.2,0.7c0.3,0,0.6,0.1,0.9,0.1
		c0.5,0,0.8,0.2,1.2,0.2s0.4-0.1,0.7-0.3c0.4-0.2,0.8-0.3,1.2-0.4c0.7-0.2,1.1-0.7,1.9-0.9c0.6-0.1,1.2-0.2,1.8-0.1
		c0.6,0.1,1.3,0.3,1.8,0.2c0.8-0.2,1.1-1.3,1.8-1.7c0.9-0.6,1.9-1.3,2.9-1.8c0.8-0.4,2.2-0.5,3-0.2c1,0.5,1,1.5,1.7,2.2
		c0.1-0.4,0.9-1.4,1.4-1.4c0,0.6-0.5,0.9,0,1.4c0.2,0.2,0.5,0.1,0.6,0.4c0.1,0.2-0.1,0.6-0.2,0.8c-0.1,0.5-0.3,1,0.3,1.2
		c0.8,0.3,1.6-0.6,2.2-1c0.3-0.2,0.6-0.5,0.9-0.6c0.6-0.2,1.1,0,1.5-0.4c0.4-0.3,0.6-0.8,0.9-1.1c0.6-0.5,1.2-1,1.8-1.5
		c1.2-1.2,1.8-2.9,2.9-4.2c0.7-0.8,1.5-1.5,2-2.4c0.2-0.4,0.3-0.9,0.5-1.4c0.4-0.9,1-1.8,1.2-2.8c0.1-0.6,0-1.2,0-1.8
		c-0.1-0.7-0.1-1.2-0.5-1.8c-0.1-0.2-0.3-0.4-0.2-0.7c-0.7-0.1-0.4-1.5-0.3-1.9c-0.2-0.1-0.3-0.2-0.5-0.3c-0.1-0.7,0.4-1.4,0.5-2.2
		c0.1-0.7,0-1.3,0-2c-1,0-0.9-0.3-0.9-1.3s-0.3-2-0.4-3c-0.7,0.7-0.7,2.2-1.1,3c-0.3,0.7-0.7,1.3-0.7,2.1c0,0.3,0,0.6,0,0.9
		c-0.1,0.7-0.6,1.3-0.9,1.9C144,98.1,143.5,98.9,143.1,98.5z"/>
	<path class="st1" d="M136.8,120.9c-0.9,0.4-1.7,0.7-2.2,1.5c-0.4,0.7-0.2,0.9,0.4,0.3c0.5-0.4,0.6-0.3,1.1-0.3c0.4,0,0.3,0,0.6-0.3
		C137.1,121.7,137.3,121.5,136.8,120.9z"/>
	<path class="st1" d="M127.9,58.8c-0.3,0.7,0.3,0.9,0.7,1.3s0.2,0.8,0,1.2c-0.2,0.4-0.5,0.7-0.1,1.1c0.3,0.4,0.8,0.4,0.6,1.1
		c-0.1,0.2-0.2,0.4-0.2,0.6c0,0.2,0,0.7,0.1,0.9c-0.5,0-1,0-1.4-0.1c0.1,0.7-0.9,0.2-1.3,0.4c-0.9,0.5-0.2,1.6-0.7,2.2
		c0.3,0.3,0.7-0.1,1-0.3c0.2-0.1,0.4-0.5,0.6-0.6c0.2-0.1,0.2,0.1,0.4,0.1c0.6,0,0.8,0,0.8,0.7c0,0.3-0.2,0.7-0.1,1
		c0.2,0.4,1,0.6,1.4,0.5c1.2,0,0.1-0.8,0.3-1.4s1.4-0.6,1.3-1.5c0-0.4-0.4-0.7-0.6-1.1c-0.1-0.2-0.1-0.5-0.2-0.7
		c-0.1-0.3-0.2-0.4-0.3-0.7c-0.1-0.3-0.3-0.6-0.4-0.9c-0.1-0.4-0.1-0.7-0.2-1.1c-0.2-0.8,0-1.2-0.8-1.8
		C128.6,59.3,128.1,59.1,127.9,58.8z"/>
	<path class="st1" d="M125.7,60.4c-0.4,0.3-0.7,0.7-0.6,1.2c0,0.1,0.2,0.6,0.3,0.6c0.2,0,0.3-0.4,0.5-0.5c0.1,0.3,0.1,0.7,0,1
		c0.4-0.3,0.5-1,0.5-1.5C126.1,61.1,126.2,60.8,125.7,60.4z"/>
</g>
<g>
	<g>
		<defs>
			<rect id="SVGID_1_" y="103.6" width="171.9" height="147.8"/>
		</defs>
		<clipPath id="SVGID_2_">
			<use xlink:href="#SVGID_1_"  style="overflow:visible;"/>
		</clipPath>
		<g class="st2">
			<g>
				<g>
					<g>
						<path class="st3" d="M164.2,294.4l-60.7,4.7c-0.5,0-0.9-0.3-1-0.8l-6.4-82.7c0-0.5,0.3-0.9,0.8-1l60.7-4.7
							c0.5,0,0.9,0.3,1,0.8l6.4,82.7C165,293.9,164.7,294.4,164.2,294.4z"/>
					</g>
				</g>
				<g>
					<g>
						<path class="st4" d="M86.7,267.4l-52.4-31.1c-0.4-0.2-0.6-0.8-0.3-1.2l42.3-71.3c0.2-0.4,0.8-0.6,1.2-0.3l52.4,31.1
							c0.4,0.2,0.6,0.8,0.3,1.2l-42.3,71.3C87.6,267.5,87.1,267.6,86.7,267.4z"/>
						<path class="st1" d="M85.8,265.3l-52.4-31.1c-0.4-0.2-0.6-0.8-0.3-1.2l42.3-71.3c0.2-0.4,0.8-0.6,1.2-0.3l52.4,31.1
							c0.4,0.2,0.6,0.8,0.3,1.2L87,265C86.8,265.4,86.2,265.5,85.8,265.3z"/>
					</g>
					<g>
						<path class="st4" d="M100.8,264.4l-59.9-11c-0.5-0.1-0.8-0.6-0.7-1l15-81.6c0.1-0.5,0.6-0.8,1-0.7l59.9,11
							c0.5,0.1,0.8,0.6,0.7,1l-15,81.6C101.8,264.2,101.3,264.5,100.8,264.4z"/>
						<path class="st5" d="M99.6,262.1l-59.9-11c-0.5-0.1-0.8-0.6-0.7-1l15-81.6c0.1-0.5,0.6-0.8,1-0.7l59.9,11
							c0.5,0.1,0.8,0.6,0.7,1l-15,81.6C100.5,261.9,100,262.2,99.6,262.1z"/>
						<path class="st6" d="M106.5,188.8C106.4,188.8,106.4,188.8,106.5,188.8L91.4,186c-0.3,0-0.4-0.3-0.4-0.6s0.3-0.4,0.6-0.4
							l15,2.8c0.3,0,0.4,0.3,0.4,0.6C106.9,188.6,106.7,188.8,106.5,188.8z"/>
						<path class="st6" d="M105.6,193.6C105.5,193.6,105.5,193.6,105.6,193.6l-15.1-2.8c-0.3,0-0.4-0.3-0.4-0.6s0.3-0.4,0.6-0.4
							l15,2.8c0.3,0,0.4,0.3,0.4,0.6C106,193.4,105.8,193.6,105.6,193.6z"/>
						<path class="st6" d="M104.6,198.8L104.6,198.8L89.5,196c-0.3,0-0.4-0.3-0.4-0.6s0.3-0.4,0.6-0.4l15,2.8c0.3,0,0.4,0.3,0.4,0.6
							C105,198.6,104.8,198.8,104.6,198.8z"/>
						<g>
							<path class="st7" d="M81.4,203.2l-25.7-4.7c-0.5-0.1-0.9-0.6-0.8-1.1l5.1-27.6c0.1-0.5,0.6-0.9,1.1-0.8l25.7,4.7
								c0.5,0.1,0.9,0.6,0.8,1.1l-5.1,27.6C82.4,203,81.9,203.3,81.4,203.2z"/>
							<path class="st0" d="M80.5,201.6L56,197.1c-0.5-0.1-0.9-0.6-0.8-1.1l4.8-26.2c0.1-0.5,0.6-0.9,1.1-0.8l24.5,4.5
								c0.5,0.1,0.9,0.6,0.8,1.1l-4.8,26.2C81.5,201.4,81,201.7,80.5,201.6z"/>
							<path class="st8" d="M86,177.2l-26.4-4.9l0.5-2.5c0.1-0.5,0.6-0.8,1.1-0.7l24.6,4.5c0.5,0.1,0.8,0.6,0.7,1L86,177.2z"/>
							<path class="st9" d="M67,185.3c-0.2,0-0.4,0-0.6-0.1l-0.4-0.1c-1.9-0.4-3.2-2.2-2.9-4.2l0.9-5c0.1-0.4,0.4-0.6,0.8-0.6
								c0.4,0.1,0.6,0.4,0.6,0.8l-0.9,5c-0.2,1.2,0.6,2.3,1.7,2.5l0.4,0.1c0.9,0.2,1.8-0.4,1.9-1.3l2.3-12.7c0.2-0.9-0.4-1.8-1.4-2
								l-0.6-0.1c-1-0.2-1.9,0.5-2.1,1.5l-0.1,0.3c-0.1,0.4-0.5,0.6-0.8,0.6c-0.4-0.1-0.6-0.4-0.6-0.8l0.1-0.3
								c0.3-1.8,2-2.9,3.8-2.6l0.6,0.1c1.7,0.3,2.8,2,2.5,3.7l-2.3,12.7C69.7,184.3,68.4,185.3,67,185.3z"/>
							<path class="st6" d="M69.4,174.7L69.4,174.7l-9.6-1.8c-0.1,0-0.2-0.1-0.2-0.3c0-0.1,0.1-0.2,0.3-0.2l9.6,1.8
								c0.1,0,0.2,0.1,0.2,0.3C69.7,174.6,69.6,174.7,69.4,174.7z"/>
						</g>
						<g>
							<path class="st6" d="M98.7,224.2L98.7,224.2l-45.9-8.5c-0.3,0-0.4-0.3-0.4-0.6s0.3-0.4,0.6-0.4l45.8,8.4
								c0.3,0,0.4,0.3,0.4,0.6C99.1,224,98.9,224.2,98.7,224.2z"/>
							<path class="st6" d="M95.4,241.9L95.4,241.9l-45.9-8.4c-0.3,0-0.4-0.3-0.4-0.6s0.3-0.4,0.6-0.4l45.8,8.4
								c0.3,0,0.4,0.3,0.4,0.6C95.9,241.8,95.7,241.9,95.4,241.9z"/>
							<path class="st6" d="M72.9,228.6L72.9,228.6l-21.7-4c-0.3,0-0.4-0.3-0.4-0.6s0.3-0.4,0.6-0.4l21.7,4c0.3,0,0.4,0.3,0.4,0.6
								C73.3,228.4,73.1,228.6,72.9,228.6z"/>
							<path class="st6" d="M75.9,212.4C75.9,212.4,75.8,212.4,75.9,212.4l-21.7-4c-0.3,0-0.4-0.3-0.4-0.6s0.3-0.4,0.6-0.4l21.7,4
								c0.3,0,0.4,0.3,0.4,0.6C76.3,212.2,76.1,212.4,75.9,212.4z"/>
							<path class="st6" d="M97.1,233C97.1,233,97,233,97.1,233l-20.7-3.8c-0.3,0-0.4-0.3-0.4-0.6s0.3-0.4,0.6-0.4l20.6,3.8
								c0.3,0,0.4,0.3,0.4,0.6C97.5,232.8,97.3,233,97.1,233z"/>
						</g>
					</g>
				</g>
			</g>
			<g>
				<g>
					<ellipse class="st10" cx="54.7" cy="151.1" rx="32.2" ry="32.2"/>
				</g>
				<g>
					<g>
						<path class="st11" d="M21.5,151.1c0-18.3,14.9-33.2,33.2-33.2s33.2,14.9,33.2,33.2S73,184.3,54.7,184.3
							C36.4,184.3,21.5,169.4,21.5,151.1z M23.5,151.1c0,17.2,14,31.2,31.2,31.2s31.2-14,31.2-31.2s-14-31.2-31.2-31.2
							S23.5,133.9,23.5,151.1z"/>
						<g>
							<g>
								<circle class="st12" cx="54.7" cy="151.1" r="32.2"/>
								<g>
									<path class="st9" d="M27.5,176.5l4.3,4.3c6.3,4.9,14.3,7.8,22.9,7.8c20.7,0,37.6-16.8,37.6-37.6
										c0-20.7-16.8-37.6-37.6-37.6S17.1,130.2,17.1,151c0,8.6,2.9,16.6,7.8,22.9c0.1,0,0.1,0.1,0.2,0.1L27.5,176.5z M22.5,151.1
										c0-17.8,14.4-32.2,32.2-32.2s32.2,14.4,32.2,32.2s-14.4,32.2-32.2,32.2S22.5,168.9,22.5,151.1z"/>
									<path class="st9" d="M31.5,181.3l-6.8-6.8c0,0,0,0-0.1-0.1l-0.1-0.1c-5.2-6.7-7.9-14.8-7.9-23.2c0-21,17.1-38.1,38.1-38.1
										s38.1,17.1,38.1,38.1s-17.1,38.1-38.1,38.1C46.2,189.2,38.2,186.4,31.5,181.3z M17.6,151.1c0,8.2,2.7,16,7.7,22.6
										c0.1,0,0.1,0.1,0.2,0.1l6.7,6.7c6.5,5,14.3,7.6,22.5,7.6c20.4,0,37.1-16.6,37.1-37.1s-16.6-37.1-37.1-37.1
										S17.6,130.7,17.6,151.1z M22,151.1c0-18,14.7-32.7,32.7-32.7s32.7,14.7,32.7,32.7s-14.7,32.7-32.7,32.7S22,169.1,22,151.1z
										 M23,151.1c0,17.5,14.2,31.7,31.7,31.7s31.7-14.2,31.7-31.7s-14.2-31.7-31.7-31.7S23,133.6,23,151.1z"/>
								</g>
								<path class="st13" d="M27.5,176.5c0.6,0.6,0.6,1.5,0,2L26,180c-1.8-1.8-3.6-3.5-4.7-4.2l1.7-1.7c0.5-0.5,1.3-0.6,1.9-0.1
									c0.1,0,0.1,0.1,0.2,0.1L27.5,176.5z"/>
								<g>
									<path class="st14" d="M26,180l1.5-1.5c0.6-0.6,0.6-1.5,0-2l4.3,4.3l0.1,0.1c0.6,0.6,0.6,1.5,0,2l-1.8,1.8
										C29.5,183.8,27.8,181.9,26,180z"/>
									<path class="st14" d="M27.5,176.5c0.6,0.6,0.6,1.5,0,2L26,180c-1.8-1.8-3.6-3.5-4.7-4.2l1.7-1.7c0.5-0.5,1.3-0.6,1.9-0.1
										c0.1,0,0.1,0.1,0.2,0.1L27.5,176.5z"/>
								</g>
								<path class="st9" d="M-18.3,214.7l38.9-39.2c0.1-0.1,0.4,0,0.8,0.3c1,0.7,2.9,2.4,4.7,4.2s3.5,3.8,4.1,4.7
									c0.2,0.3,0.3,0.5,0.2,0.6l-38.9,39.2c-2.7,2.7-7,2.7-9.7,0C-21,221.8-21,217.4-18.3,214.7z"/>
							</g>
							<g>
								<path class="st4" d="M-18.3,224.5L-18.3,224.5c2.7,2.7,47-41.7,44.8-44c-2.6-2.7-5.6-5.4-6-5l-38.8,39.2
									C-21,217.4-21,221.8-18.3,224.5z"/>
							</g>
						</g>
					</g>
				</g>
			</g>
		</g>
	</g>
</g>
<g>
	<g>
		<g>
			<ellipse class="st1" cx="156.7" cy="34.7" rx="8.6" ry="8.6"/>
			<g>
				<g>
					<path class="st1" d="M164.9,40.1L164.9,40.1c0.6-0.9,1.8-1.1,2.7-0.5l0,0l-2.1,3.2l0,0C164.5,42.2,164.3,41,164.9,40.1z"/>
					
						<rect x="162.6" y="36" transform="matrix(0.5598 -0.8286 0.8286 0.5598 39.5797 152.2169)" class="st1" width="1" height="5.8"/>
				</g>
				<g>
					<path class="st1" d="M148.6,29.1L148.6,29.1c-0.6,0.9-1.8,1.1-2.7,0.5l0,0l2.1-3.2l0,0C148.9,27,149.2,28.2,148.6,29.1z"/>
					
						<rect x="150" y="27.5" transform="matrix(0.5598 -0.8286 0.8286 0.5598 41.0784 138.1016)" class="st1" width="1" height="5.8"/>
				</g>
			</g>
			<g>
				<g>
					<path class="st1" d="M168.3,32.3L168.3,32.3c-0.2-1,0.5-2,1.5-2.2l0,0l0.7,3.8l0,0C169.5,34,168.5,33.3,168.3,32.3z"/>
					<polygon class="st1" points="161.4,34.2 161.2,33.2 168.8,31.7 169,32.7 					"/>
				</g>
				<g>
					<path class="st1" d="M147.1,36.5L147.1,36.5c0.2,1-0.5,2-1.5,2.2l0,0l-0.7-3.8l0,0C145.9,34.7,146.9,35.4,147.1,36.5z"/>
					
						<rect x="146.4" y="35.6" transform="matrix(0.9818 -0.1901 0.1901 0.9818 -4.135 29.0362)" class="st1" width="5.8" height="1"/>
				</g>
			</g>
			<g>
				<g>
					<path class="st1" d="M162.3,26.4L162.3,26.4c-0.9-0.6-1.1-1.8-0.5-2.7l0,0l3.2,2.1l0,0C164.3,26.8,163.1,27,162.3,26.4z"/>
					
						<rect x="158.1" y="27.8" transform="matrix(0.5598 -0.8286 0.8286 0.5598 47.399 145.8877)" class="st1" width="5.8" height="1"/>
				</g>
				<g>
					<path class="st1" d="M150,44.5L150,44.5c0.9,0.6,1.1,1.8,0.5,2.7l0,0l-3.2-2.1l0,0C147.9,44.1,149.1,43.9,150,44.5z"/>
					<polygon class="st1" points="153.7,38.2 154.5,38.8 150,45.2 149.2,44.7 					"/>
				</g>
			</g>
			<g>
				<g>
					<path class="st1" d="M154.5,23.4L154.5,23.4c-1,0.2-2-0.5-2.2-1.5l0,0l3.8-0.7l0,0C156.2,22.2,155.5,23.2,154.5,23.4z"/>
					<polygon class="st1" points="156.4,29.9 155.4,30.1 153.9,22.9 154.9,22.7 					"/>
				</g>
				<g>
					<path class="st1" d="M158.6,44.3L158.6,44.3c1-0.2,2,0.5,2.2,1.5l0,0l-3.8,0.7l0,0C156.9,45.5,157.6,44.5,158.6,44.3z"/>
					<rect x="157.7" y="39.2" transform="matrix(0.9818 -0.19 0.19 0.9818 -5.1116 30.8189)" class="st1" width="1" height="5.8"/>
				</g>
			</g>
		</g>
	</g>
	<path class="st15" d="M158.2,28.2c0.3,0.8-1,2.1-2.9,2.9c-1.9,0.8-3.8,0.7-4.1-0.1s1-2.1,2.9-2.9C156,27.3,157.9,27.4,158.2,28.2z"
		/>
	<path class="st15" d="M154.3,34.2c-0.1,0.3-0.8,0.4-1.5,0.3c-0.8-0.2-1.3-0.6-1.3-0.9c0.1-0.3,0.8-0.4,1.5-0.3
		C153.8,33.5,154.3,33.9,154.3,34.2z"/>
	<path class="st15" d="M157.1,31.9c0,0.3-0.3,0.7-0.9,0.7c-0.5,0.1-1-0.1-1-0.5c0-0.3,0.3-0.7,0.9-0.7
		C156.6,31.3,157,31.5,157.1,31.9z"/>
	<path class="st15" d="M150.5,32.5c-0.1,0.1-0.3,0.1-0.5,0s-0.3-0.4-0.2-0.5s0.3-0.1,0.5,0C150.5,32.2,150.6,32.4,150.5,32.5z"/>
	<path class="st15" d="M151.5,36c-0.1,0.3-0.6,0.5-1.1,0.4s-0.9-0.5-0.8-0.8c0.1-0.3,0.6-0.5,1.1-0.4S151.6,35.7,151.5,36z"/>
</g>
<g>
	<g>
		<g>
			<ellipse class="st1" cx="166.9" cy="64.4" rx="4" ry="4"/>
			<g>
				<g>
					<path class="st1" d="M169.7,68L169.7,68c0.4-0.3,1-0.2,1.2,0.2l0,0l-1.4,1.1l0,0C169.2,68.9,169.3,68.3,169.7,68z"/>
					
						<rect x="168.8" y="65.9" transform="matrix(0.8005 -0.5994 0.5994 0.8005 -6.5634 114.7478)" class="st1" width="0.5" height="2.7"/>
				</g>
				<g>
					<path class="st1" d="M164.2,60.7L164.2,60.7c-0.4,0.3-1,0.2-1.2-0.2l0,0l1.4-1.1l0,0C164.7,59.8,164.6,60.4,164.2,60.7z"/>
					
						<rect x="164.6" y="60.2" transform="matrix(0.8005 -0.5994 0.5994 0.8005 -4.0043 111.0969)" class="st1" width="0.5" height="2.7"/>
				</g>
			</g>
			<g>
				<g>
					<path class="st1" d="M172.4,65.1L172.4,65.1c0.1-0.5,0.5-0.8,1-0.8l0,0l-0.3,1.8l0,0C172.6,66.1,172.3,65.6,172.4,65.1z"/>
					<polygon class="st1" points="169.1,64.9 169.1,64.4 172.7,64.9 172.6,65.4 					"/>
				</g>
				<g>
					<path class="st1" d="M162.4,63.7L162.4,63.7c-0.1,0.5-0.5,0.8-1,0.8l0,0l0.3-1.8l0,0C162.1,62.8,162.5,63.2,162.4,63.7z"/>
					
						<rect x="163.2" y="62.5" transform="matrix(0.1422 -0.9898 0.9898 0.1422 76.9535 216.5936)" class="st1" width="0.5" height="2.7"/>
				</g>
			</g>
			<g>
				<g>
					<path class="st1" d="M170.6,61.6L170.6,61.6c-0.3-0.4-0.2-1,0.2-1.2l0,0l1.1,1.4l0,0C171.5,62.1,170.9,62,170.6,61.6z"/>
					
						<rect x="168.4" y="62" transform="matrix(0.8005 -0.5994 0.5994 0.8005 -3.4547 114.1734)" class="st1" width="2.7" height="0.5"/>
				</g>
				<g>
					<path class="st1" d="M162.4,67.7L162.4,67.7c0.3,0.4,0.2,1-0.2,1.2l0,0l-1.1-1.4l0,0C161.6,67.2,162.2,67.3,162.4,67.7z"/>
					<polygon class="st1" points="165.1,65.5 165.3,65.9 162.4,68 162.1,67.7 					"/>
				</g>
			</g>
			<g>
				<g>
					<path class="st1" d="M167.7,59.1L167.7,59.1c-0.5-0.1-0.8-0.5-0.8-1l0,0l1.8,0.3l0,0C168.6,58.8,168.1,59.2,167.7,59.1z"/>
					<polygon class="st1" points="167.5,62.2 167,62.2 167.5,58.8 167.9,58.9 					"/>
				</g>
				<g>
					<path class="st1" d="M166.3,68.9L166.3,68.9c0.5,0.1,0.8,0.5,0.8,1l0,0l-1.8-0.3l0,0C165.3,69.2,165.8,68.8,166.3,68.9z"/>
					
						<rect x="165.1" y="67.6" transform="matrix(0.1422 -0.9898 0.9898 0.1422 75.5756 222.9684)" class="st1" width="2.7" height="0.5"/>
				</g>
			</g>
		</g>
	</g>
	<path class="st15" d="M168.6,61.8c0,0.4-0.8,0.8-1.7,0.8c-1,0-1.8-0.3-1.8-0.7c0-0.4,0.8-0.8,1.7-0.8S168.5,61.4,168.6,61.8z"/>
	<path class="st15" d="M165.9,63.8c-0.1,0.1-0.4,0.1-0.7-0.1s-0.5-0.5-0.4-0.6s0.4-0.1,0.7,0.1S166,63.7,165.9,63.8z"/>
	<path class="st15" d="M167.5,63.2c0,0.2-0.2,0.2-0.5,0.2c-0.2,0-0.4-0.2-0.4-0.4c0-0.2,0.2-0.2,0.5-0.2
		C167.4,62.9,167.5,63.1,167.5,63.2z"/>
	<path class="st15" d="M164.5,62.5c-0.1,0-0.2,0-0.2-0.1c-0.1-0.1-0.1-0.2,0-0.2s0.2,0,0.2,0.1C164.6,62.4,164.6,62.5,164.5,62.5z"
		/>
	<path class="st15" d="M164.4,64.2c-0.1,0.1-0.3,0.1-0.5,0s-0.3-0.3-0.2-0.5c0.1-0.1,0.3-0.1,0.5,0S164.5,64,164.4,64.2z"/>
</g>
<g>
	<g>
		<g>
			<ellipse class="st1" cx="139" cy="148.7" rx="6.2" ry="6.2"/>
			<g>
				<g>
					<path class="st1" d="M145.3,152.1L145.3,152.1c0.4-0.7,1.2-0.9,1.9-0.5l0,0l-1.3,2.4l0,0C145.1,153.6,144.9,152.8,145.3,152.1z
						"/>
					
						<rect x="143.5" y="149.2" transform="matrix(0.484 -0.8751 0.8751 0.484 -58.2363 203.9391)" class="st1" width="0.7" height="4.2"/>
				</g>
				<g>
					<path class="st1" d="M132.8,145.2L132.8,145.2c-0.4,0.7-1.2,0.9-1.9,0.5l0,0l1.3-2.4l0,0C132.9,143.7,133.2,144.5,132.8,145.2z
						"/>
					
						<rect x="133.9" y="143.9" transform="matrix(0.484 -0.8751 0.8751 0.484 -58.4867 192.8244)" class="st1" width="0.7" height="4.2"/>
				</g>
			</g>
			<g>
				<g>
					<path class="st1" d="M147.2,146.3L147.2,146.3c-0.2-0.7,0.2-1.5,0.9-1.7l0,0l0.8,2.7l0,0C148.2,147.4,147.4,147,147.2,146.3z"
						/>
					<polygon class="st1" points="142.4,148.1 142.2,147.4 147.5,145.8 147.7,146.5 					"/>
				</g>
				<g>
					<path class="st1" d="M132.2,150.6L132.2,150.6c0.2,0.7-0.2,1.5-0.9,1.7l0,0l-0.8-2.6l0,0C131.2,149.5,132,149.9,132.2,150.6z"
						/>
					
						<rect x="131.7" y="149.8" transform="matrix(0.961 -0.2765 0.2765 0.961 -36.3126 42.8567)" class="st1" width="4.2" height="0.7"/>
				</g>
			</g>
			<g>
				<g>
					<path class="st1" d="M142.5,142.4L142.5,142.4c-0.7-0.4-0.9-1.2-0.5-1.9l0,0l2.4,1.3l0,0C144,142.5,143.2,142.8,142.5,142.4z"
						/>
					
						<rect x="139.5" y="143.5" transform="matrix(0.484 -0.8751 0.8751 0.484 -52.8343 198.176)" class="st1" width="4.2" height="0.7"/>
				</g>
				<g>
					<path class="st1" d="M134.8,156.2L134.8,156.2c0.7,0.4,0.9,1.2,0.5,1.9l0,0l-2.4-1.3l0,0C133.3,156.1,134.1,155.8,134.8,156.2z
						"/>
					<polygon class="st1" points="137.1,151.4 137.7,151.8 134.9,156.8 134.2,156.4 					"/>
				</g>
			</g>
			<g>
				<g>
					<path class="st1" d="M136.7,140.7L136.7,140.7c-0.7,0.2-1.5-0.2-1.7-0.9l0,0l2.7-0.8l0,0C137.9,139.8,137.4,140.5,136.7,140.7z
						"/>
					<polygon class="st1" points="138.4,145.3 137.7,145.5 136.2,140.4 136.9,140.2 					"/>
				</g>
				<g>
					<path class="st1" d="M141,155.5L141,155.5c0.7-0.2,1.5,0.2,1.7,0.9l0,0l-2.7,0.8l0,0C139.8,156.5,140.3,155.7,141,155.5z"/>
					
						<rect x="140.2" y="151.8" transform="matrix(0.961 -0.2765 0.2765 0.961 -37.0879 44.8637)" class="st1" width="0.7" height="4.2"/>
				</g>
			</g>
		</g>
	</g>
	<path class="st15" d="M139.7,143.9c0.3,0.6-0.6,1.6-1.9,2.3c-1.4,0.7-2.7,0.8-3,0.2s0.6-1.6,1.9-2.3
		C138.1,143.5,139.4,143.4,139.7,143.9z"/>
	<path class="st15" d="M137.2,148.5c0,0.2-0.5,0.4-1.1,0.3c-0.6-0.1-1-0.3-1-0.6s0.5-0.4,1.1-0.3C136.8,148,137.3,148.3,137.2,148.5
		z"/>
	<path class="st15" d="M139.1,146.7c0.1,0.2-0.2,0.5-0.6,0.6c-0.4,0.1-0.7,0-0.8-0.3c-0.1-0.2,0.2-0.5,0.6-0.6
		C138.7,146.3,139.1,146.4,139.1,146.7z"/>
	<path class="st15" d="M134.4,147.6c-0.1,0.1-0.2,0.1-0.4,0s-0.2-0.2-0.2-0.3c0.1-0.1,0.2-0.1,0.4,0
		C134.4,147.3,134.5,147.5,134.4,147.6z"/>
	<path class="st15" d="M135.4,150c0,0.2-0.4,0.4-0.8,0.4c-0.4,0-0.7-0.3-0.6-0.5c0-0.2,0.4-0.4,0.8-0.4
		C135.1,149.5,135.4,149.7,135.4,150z"/>
</g>
</svg>
