<?xml version="1.0" encoding="utf-8"?>
<!-- Generator: Adobe Illustrator 22.0.1, SVG Export Plug-In . SVG Version: 6.00 Build 0)  -->
<svg version="1.1" id="Layer_1" xmlns="http://www.w3.org/2000/svg" xmlns:xlink="http://www.w3.org/1999/xlink" x="0px" y="0px"
	 viewBox="0 0 59.8 78.1" style="enable-background:new 0 0 59.8 78.1;" xml:space="preserve">
<style type="text/css">
	.st0{fill:#00B5AD;}
	.st1{fill:#A0CD5D;}
	.st2{fill:#D0E5B0;}
</style>
<g>
	<g>
		<g>
			<g>
				<path class="st0" d="M37.7,41.3c-0.1-0.4-0.4-0.3-0.8-0.4c-0.4-0.1-0.6-0.1-0.9-0.4c-0.3-0.2,0.1-0.6,0.4-1
					c0.3-0.4,0.8-0.8,0.5-0.9c-0.3-0.1-0.9,0.3-1.4,0.4c-0.4,0.1-0.8,0.4-1.4,0.8c-0.6,0.3-0.5,0.4-0.8,1.1c-0.3,0.7-1,0-1.1-0.3
					c-0.2-0.2,0.2-0.9,0.2-1.7s-0.3-0.9-0.6-1.1c-0.3-0.2-0.8,0-1.2-0.2s-0.1-0.6,0.2-1c0.2-0.4,0.8-0.1,1.1-0.2
					c0.3-0.1-0.1-0.3-0.5-0.4c-0.4-0.1-0.9,0-1.5,0.1c-0.7,0.1-0.4,0.3-1.1,0.8c-0.6,0.5-0.4,0.3-1.1,0.8c-0.8,0.5-0.2,0.6-0.2,1.6
					s-0.1,1.3-0.5,2.2c-0.3,0.8-0.4,0.8-1.1,1.1C25.3,43,25,43,24.3,43.3c-0.8,0.3-0.3,0.5-0.6,1.3s-0.3,0.8-0.7,1.7
					c-0.3,0.9-0.3,1.5-0.4,2.4c-0.1,0.9-0.9,0.6-1.7,1.3s-1.2,0.9-1.7,1.5c-1.1,1-1.9,1.3-2.7,2.1c-0.9,0.8-1.6,1.3-2.7,1.7
					c-1,0.4-1.9,1.5-2.7,2.1s-1.4,0-2.1,0.3c-0.8,0.3-0.6,0.4-1.3,1c-0.6,0.6-0.7,0.8-1.3,1.4c-0.7,0.6-0.3,0.4-0.4,1
					c-0.2,0.6,0,0.6-0.4,0.9s-0.7,0.2-1.4,0.5c-0.7,0.3-0.5,0.2-0.6,0.6c-0.1,0.3-0.1,0.2-0.4,0.5c-0.3,0.2-0.6,0.4-0.8,0.9
					c-0.2,0.4,0,0.5-0.1,1.2s0,0.6,0,1s-0.2,0.1-0.5,0S1.4,66.3,1,66.2c-0.5,0-0.5,0.3-0.6,0.4s-0.2,0.7,0.3,0.8
					c0.4,0.1,0.5,0.2,0.7,0.7c0.3,0.5-0.1,0.4-0.4,0.7c-0.4,0.2-0.7,0.3-0.9,0.5S0,69.7,0.2,70.1c0.2,0.3,0.7,0.1,0.8,0.3
					c0.1,0.2-0.2,0.2-0.6,0.4C0,70.9,0,71.2,0.2,71.4c0.1,0.3,1.1,0.3,1.9,0.2c0.8,0,2.4-0.5,3.1,0c0.7,0.6,0.8,1,1.4,1.1
					c0.6,0.2,1.3,0,1.9,0.6s0.3,0.7,1,0.9c0.8,0.3,1.5,0.2,2.3,0.1c0.7-0.1,1.6-0.1,2.4-0.3c0.9-0.2,1.4-0.7,2.6-1.8
					c1.1-1.1,0.8-1,1.3-1.4c0.5-0.5,0.9-0.5,1.4-0.8c0.4-0.3,1.3-0.2,1.3-0.4s-0.2-0.2-0.6-0.4c-0.4-0.2-0.1,0-0.2-0.8
					c-0.1-0.8,0.7-1.4,0.9-1.9s1.4-1.3,1.9-2.5s0.3-1.2,0.4-2.5c0.2-1.2,0.2-1.1,0.7-2s1.7-0.7,2.1-1.3c0.4-0.6,1.2-0.8,1.7-1.1
					c0.5-0.4,1.3-1,2.1-1s0.7,0.5,1,0.6s1.2,0.3,1.6,0c0.4-0.3,0.1-0.5-0.2-1.1c-0.2-0.6-0.6-0.2-1.1-0.2s-0.4-0.1-0.6-0.9
					c-0.2-0.9,0.2-0.7,0.6-1.5c0.5-0.8,1.1-1.1,1.7-1.7c0.6-0.6,1.5-1.6,2.7-3.1c1.1-1.5,0.6-1.1,1-2.2c0.3-1.1,0.8-1.1,1.5-1.7
					c0.7-0.6,0.7-0.2,0.8-0.7s-0.5-1-0.7-1.6C37.6,41.5,37.8,41.7,37.7,41.3L37.7,41.3z"/>
				<path class="st0" d="M59.4,19.4c-0.6,0-0.6-0.8-1.4-0.6c-0.8,0.2-1.4,0.4-2,1.1s-2.6,1.5-3.2,1.5c-0.6,0.1-1.3-0.4-2.3-0.8
					s-2.2-0.7-2.9-1.4c-0.6-0.7-1-2.2-1-3.3S46,14.4,45.9,14c-0.2-0.4,0-0.8-0.4-1s-0.3-0.4-0.7-0.6c-0.4-0.2-0.7,0.1-0.4,0.5
					c0.3,0.4,0.4,0.6,0.4,1.4s0.4,1.7-0.1,1.6c-0.5,0-0.6-0.3-1.2-0.8c-0.6-0.5-0.7-0.3-1.4-0.6c-0.6-0.3-1-0.4-0.9-0.8
					c0-0.4,0.2-0.4-0.2-0.8s-0.5-0.6-0.2-1.1s0-1.1-0.5-1.5c-0.4-0.4-0.6-0.2-0.8-0.8c-0.2-0.6-0.3-0.8-0.6-1.3
					c-0.4-0.6-0.3-0.8-0.3-1.6c0-0.8,0.1-1.2-0.1-1.5c-0.2-0.2-0.1-0.1-0.4,0.1s-0.6,0.5-0.9,0c-0.3-0.5-0.1-0.6-0.3-1.1
					S36.7,3.6,36,3.5c-0.7,0-1.2,0.1-1.4-0.2S34,2.4,33.8,2.6s-0.1,0.6-0.3,0.7c-0.2,0.1-0.5-0.2-0.9-0.4c-0.3-0.2-0.3-0.2-0.5-0.8
					c-0.2-0.5-0.5-0.6-0.5-0.9c0-0.3,0-0.3,0.2-0.5s0.5-0.3,0.3-0.5s-0.5-0.2-1-0.1c-0.5,0-0.8-0.2-0.8,0.2
					c-0.1,0.4,0.3,0.9,0.6,1.1c0.4,0.2,0.6,0.3,0.7,0.9c0.2,0.5,0.1,0.6,0.6,1.1s0.3,0.2,0.5,1s0.4,1.5,0.8,1.8
					c0.4,0.2,0.6,0,0.7-0.2c0-0.2,0.1-0.5,0.5-0.5c0.4,0.1,0.6,0.4,0.4,0.6c-0.2,0.2-0.5,0-0.4,0.5c0.1,0.6,0,1,0.6,1.7s1,0.8,1,1.3
					c0.1,0.5,0.1,1.1,0.4,1.3c0.3,0.2,0.9,0.1,0.9-0.1c0-0.3,0.2-0.9,0.9-0.4s0.3,1,0,1.1c-0.2,0.1-0.3,0.6-0.1,0.7
					c0.1,0.1,0.4,0.4,0.2,0.5s-0.6-0.3-0.7-0.1c-0.1,0.2,0.3,0.9,0.5,1.1s0.3,0.4,0.4,0.8c0.1,0.4,0.3,0.8,0.6,0.9
					c0.2,0.1,0.7,0.2,0.7-0.1c0.1-0.3,0.1-0.8,0.5-0.4s0.6,0.6,0.7,0.9c0,0.3-0.3,0.6-0.6,0.6s-0.8,0-0.6,0.4s0,0.6,0.5,1.2
					s0.7,0.9,0.8,1.5s0.2,1-0.2,1.7c-0.4,0.7-0.6,1.5-0.6,2.3s-0.6,1.9-0.8,2.2s-0.4,0.4-1.2,1s-1.5,1.1-2.1,1.3s-0.8,0.5-0.7,0.9
					c0.1,0.5,0.3,1.1,1.2,1.4c1,0.4,1.4,1,2.1,1.4c0.7,0.4,1.1,0.2,1.7,0.6c0.6,0.4,1,0.3,1.5,0.9c0.5,0.6,0.8,1,0.8,1.8
					c0,0.9,0.3,1-0.3,1.9s-0.7,1-1.3,2.1c-0.5,1.1-1.1,1-1.3,1.5c-0.2,0.6,0.5,0.6,0.9,0.6s0.5,0.1,0.9,0.3c0.5,0.2,0.5-0.2,0.7,0.2
					c0.2,0.3-0.2,0.9,0.4,0.9c0.6,0.1,0.5,0,1-0.6c0.6-0.6,0.7-0.5,1.6-1c0.8-0.5,1.2-0.3,1.6-1c0.3-0.7,0-0.7,1.1-1.9
					s1.8-1,1.9-1.9s1.1-2.1,1.5-3c0.3-0.8,1-1.4,0.7-2.1c-0.2-0.7-0.6-0.8-0.6-1.6c0-0.7,1.2-1.8,1.6-1.9c0.4,0,1.4-0.2,2.1-0.1
					c0.7,0.1,0.7,0.7,1.3,0.3c0.6-0.3,0.9-0.4,0.6-0.7c-0.1,0.1-0.7,0.1-0.4-0.3c0.3-0.5,0.6-0.9,1.3-1.4s0.7-0.8,0.6-1.8
					c-0.1-0.9-0.4-1.6,0.1-2.3s0.5-0.6,0.6-1C59.8,19.7,59.9,19.4,59.4,19.4L59.4,19.4z"/>
			</g>
			<path class="st0" d="M7.1,76.5c-0.5-0.2-1-0.3-0.8-0.6c0.2-0.3,0.5-0.2,0.4-0.5c-0.2-0.4-1.3-0.7-1.4-0.2c-0.2,0.6,0,0.6-0.2,1.2
				c-0.3,0.6-0.7,0.4-0.7,1.1S4.3,78.3,4.7,78c0.4-0.2,0.5-0.3,1.1-0.6c0.6-0.2,1.2,0,1.3-0.2C7.3,77,7.6,76.7,7.1,76.5L7.1,76.5z"
				/>
		</g>
	</g>
	<g>
		<g>
			<g>
				<ellipse class="st1" cx="47.8" cy="11.4" rx="4.5" ry="4.5"/>
				<g>
					<g>
						<path class="st1" d="M52.1,14.3L52.1,14.3c0.3-0.5,0.9-0.6,1.4-0.3l0,0l-1.1,1.7l0,0C51.9,15.4,51.8,14.8,52.1,14.3z"/>
						
							<rect x="50.9" y="12.1" transform="matrix(0.5598 -0.8286 0.8286 0.5598 11.2237 48.3768)" class="st1" width="0.5" height="3"/>
					</g>
					<g>
						<path class="st1" d="M43.5,8.5L43.5,8.5c-0.3,0.5-0.9,0.6-1.4,0.3l0,0l1.1-1.7l0,0C43.7,7.4,43.8,8,43.5,8.5z"/>
						
							<rect x="44.2" y="7.6" transform="matrix(0.5598 -0.8286 0.8286 0.5598 11.9832 40.8471)" class="st1" width="0.5" height="3"/>
					</g>
				</g>
				<g>
					<g>
						<path class="st1" d="M53.9,10.2L53.9,10.2c-0.1-0.5,0.3-1.1,0.8-1.2l0,0l0.4,2l0,0C54.5,11.1,54,10.7,53.9,10.2z"/>
						<polygon class="st1" points="50.3,11.2 50.2,10.7 54.2,9.9 54.3,10.4 						"/>
					</g>
					<g>
						<path class="st1" d="M42.7,12.4L42.7,12.4c0.1,0.5-0.3,1.1-0.8,1.2l0,0l-0.4-2l0,0C42.1,11.5,42.6,11.8,42.7,12.4z"/>
						
							<rect x="42.4" y="11.9" transform="matrix(0.9818 -0.1901 0.1901 0.9818 -1.5144 8.5618)" class="st1" width="3" height="0.5"/>
					</g>
				</g>
				<g>
					<g>
						<path class="st1" d="M50.7,7.1L50.7,7.1c-0.5-0.3-0.6-0.9-0.3-1.4l0,0l1.7,1.1l0,0C51.8,7.3,51.2,7.4,50.7,7.1z"/>
						
							<rect x="48.6" y="7.8" transform="matrix(0.5598 -0.8286 0.8286 0.5598 15.3552 45.0215)" class="st1" width="3" height="0.5"/>
					</g>
					<g>
						<path class="st1" d="M44.2,16.6L44.2,16.6c0.5,0.3,0.6,0.9,0.3,1.4l0,0l-1.7-1.1l0,0C43.2,16.4,43.8,16.3,44.2,16.6z"/>
						<polygon class="st1" points="46.2,13.3 46.7,13.6 44.3,17 43.8,16.7 						"/>
					</g>
				</g>
				<g>
					<g>
						<path class="st1" d="M46.6,5.5L46.6,5.5c-0.5,0.1-1.1-0.3-1.2-0.8l0,0l2-0.4l0,0C47.5,4.9,47.2,5.4,46.6,5.5z"/>
						<polygon class="st1" points="47.6,8.9 47.1,9 46.3,5.2 46.8,5.1 						"/>
					</g>
					<g>
						<path class="st1" d="M48.8,16.5L48.8,16.5c0.5-0.1,1.1,0.3,1.2,0.8l0,0l-2,0.4l0,0C47.9,17.1,48.3,16.6,48.8,16.5z"/>
						<rect x="48.4" y="13.8" transform="matrix(0.9818 -0.19 0.19 0.9818 -2.0166 9.5152)" class="st1" width="0.5" height="3"/>
					</g>
				</g>
			</g>
		</g>
		<path class="st2" d="M48.6,8c0.2,0.4-0.5,1.1-1.5,1.5s-2,0.4-2.2-0.1c-0.2-0.4,0.5-1.1,1.5-1.5C47.5,7.6,48.4,7.6,48.6,8z"/>
		<path class="st2" d="M46.5,11.2c0,0.2-0.4,0.2-0.8,0.1S45,11,45,10.8s0.4-0.2,0.8-0.1C46.3,10.8,46.6,11,46.5,11.2z"/>
		<path class="st2" d="M48,10c0,0.2-0.2,0.3-0.5,0.4c-0.3,0-0.5-0.1-0.5-0.2c0-0.2,0.2-0.3,0.5-0.4C47.7,9.7,48,9.8,48,10z"/>
		<path class="st2" d="M44.6,10.3c0,0.1-0.2,0.1-0.3,0c-0.1-0.1-0.2-0.2-0.1-0.3c0-0.1,0.2-0.1,0.3,0C44.5,10.1,44.6,10.2,44.6,10.3
			z"/>
		<path class="st2" d="M45.1,12.1c0,0.2-0.3,0.3-0.6,0.2c-0.3-0.1-0.5-0.3-0.4-0.4c0-0.2,0.3-0.3,0.6-0.2
			C44.9,11.8,45.1,12,45.1,12.1z"/>
	</g>
	<g>
		<g>
			<g>
				<circle class="st1" cx="36.7" cy="27.5" r="3.2"/>
				<g>
					<g>
						<path class="st1" d="M39.7,29.6L39.7,29.6c0.2-0.3,0.7-0.4,1-0.2l0,0l-0.8,1.2l0,0C39.6,30.3,39.5,29.9,39.7,29.6z"/>
						
							<rect x="38.9" y="28" transform="matrix(0.5598 -0.8286 0.8286 0.5598 -6.8806 45.1552)" class="st1" width="0.4" height="2.1"/>
					</g>
					<g>
						<path class="st1" d="M33.7,25.5L33.7,25.5c-0.2,0.3-0.7,0.4-1,0.2l0,0l0.8-1.2l0,0C33.8,24.7,33.9,25.1,33.7,25.5z"/>
						
							<rect x="34.2" y="24.8" transform="matrix(0.5598 -0.8286 0.8286 0.5598 -6.3068 39.8982)" class="st1" width="0.4" height="2.1"/>
					</g>
				</g>
				<g>
					<g>
						<path class="st1" d="M41,26.7L41,26.7c-0.1-0.4,0.2-0.8,0.6-0.8l0,0l0.3,1.4l0,0C41.4,27.3,41,27,41,26.7z"/>
						<polygon class="st1" points="38.4,27.4 38.4,27 41.2,26.4 41.2,26.8 						"/>
					</g>
					<g>
						<path class="st1" d="M33.1,28.2L33.1,28.2c0.1,0.4-0.2,0.8-0.6,0.8l0,0l-0.3-1.4l0,0C32.7,27.6,33,27.8,33.1,28.2z"/>
						
							<rect x="32.9" y="27.7" transform="matrix(0.9818 -0.1901 0.1901 0.9818 -4.6936 6.9613)" class="st1" width="2.1" height="0.4"/>
					</g>
				</g>
				<g>
					<g>
						<path class="st1" d="M38.7,24.5L38.7,24.5c-0.3-0.2-0.4-0.7-0.2-1l0,0l1.2,0.8l0,0C39.5,24.6,39.1,24.7,38.7,24.5z"/>
						
							<rect x="37.3" y="24.9" transform="matrix(0.5598 -0.8286 0.8286 0.5598 -3.9625 42.8242)" class="st1" width="2.1" height="0.4"/>
					</g>
					<g>
						<path class="st1" d="M34.2,31.2L34.2,31.2c0.3,0.2,0.4,0.7,0.2,1l0,0l-1.2-0.8l0,0C33.4,31,33.9,30.9,34.2,31.2z"/>
						<polygon class="st1" points="35.6,28.8 35.9,29.1 34.2,31.5 33.9,31.3 						"/>
					</g>
				</g>
				<g>
					<g>
						<path class="st1" d="M35.9,23.4L35.9,23.4c-0.4,0.1-0.8-0.2-0.8-0.6l0,0l1.4-0.3l0,0C36.5,22.9,36.2,23.3,35.9,23.4z"/>
						<polygon class="st1" points="36.5,25.8 36.2,25.8 35.6,23.2 36,23.1 						"/>
					</g>
					<g>
						<path class="st1" d="M37.4,31.1L37.4,31.1c0.4-0.1,0.8,0.2,0.8,0.6l0,0l-1.4,0.2l0,0C36.7,31.5,37,31.2,37.4,31.1z"/>
						<rect x="37.1" y="29.2" transform="matrix(0.9818 -0.19 0.19 0.9818 -5.0666 7.63)" class="st1" width="0.4" height="2.1"/>
					</g>
				</g>
			</g>
		</g>
		<path class="st2" d="M37.2,25.1c0.1,0.3-0.4,0.8-1.1,1.1c-0.7,0.3-1.4,0.3-1.5,0s0.4-0.8,1.1-1.1S37.1,24.8,37.2,25.1z"/>
		<path class="st2" d="M35.8,27.4c0,0.1-0.3,0.2-0.6,0.1c-0.3-0.1-0.5-0.2-0.5-0.3s0.3-0.2,0.6-0.1C35.6,27.1,35.8,27.2,35.8,27.4z"
			/>
		<path class="st2" d="M36.8,26.5c0,0.1-0.1,0.2-0.3,0.3c-0.2,0-0.4-0.1-0.4-0.2c0-0.1,0.1-0.2,0.3-0.3
			C36.6,26.3,36.8,26.4,36.8,26.5z"/>
		<path class="st2" d="M34.4,26.7c0,0-0.1,0-0.2,0c-0.1-0.1-0.1-0.1-0.1-0.2s0.1,0,0.2,0C34.4,26.6,34.4,26.7,34.4,26.7z"/>
		<path class="st2" d="M34.8,28c0,0.1-0.2,0.2-0.4,0.2s-0.3-0.2-0.3-0.3s0.2-0.2,0.4-0.2C34.6,27.8,34.8,27.9,34.8,28z"/>
	</g>
	<g>
		<g>
			<g>
				<circle class="st1" cx="24.1" cy="59.5" r="2"/>
				<g>
					<g>
						<path class="st1" d="M25.9,60.8L25.9,60.8c0.1-0.2,0.4-0.3,0.6-0.1l0,0L26,61.4l0,0C25.9,61.2,25.8,61,25.9,60.8z"/>
						
							<rect x="25.4" y="59.8" transform="matrix(0.5598 -0.8286 0.8286 0.5598 -38.8312 47.7499)" class="st1" width="0.2" height="1.3"/>
					</g>
					<g>
						<path class="st1" d="M22.2,58.2L22.2,58.2c-0.1,0.2-0.4,0.3-0.6,0.1l0,0l0.5-0.7l0,0C22.3,57.7,22.3,58,22.2,58.2z"/>
						
							<rect x="22.5" y="57.8" transform="matrix(0.5598 -0.8286 0.8286 0.5598 -38.4913 44.4273)" class="st1" width="0.2" height="1.3"/>
					</g>
				</g>
				<g>
					<g>
						<path class="st1" d="M26.7,58.9L26.7,58.9c0-0.2,0.1-0.5,0.4-0.5l0,0l0.2,0.9l0,0C27,59.3,26.8,59.2,26.7,58.9z"/>
						<polygon class="st1" points="25.1,59.4 25.1,59.2 26.8,58.8 26.9,59 						"/>
					</g>
					<g>
						<path class="st1" d="M21.8,59.9L21.8,59.9c0,0.2-0.1,0.5-0.4,0.5l0,0l-0.2-0.9l0,0C21.5,59.5,21.8,59.7,21.8,59.9z"/>
						
							<rect x="21.6" y="59.7" transform="matrix(0.9818 -0.1901 0.1901 0.9818 -10.9655 5.3294)" class="st1" width="1.3" height="0.2"/>
					</g>
				</g>
				<g>
					<g>
						<path class="st1" d="M25.3,57.6L25.3,57.6c-0.2-0.1-0.3-0.4-0.1-0.6l0,0l0.7,0.5l0,0C25.8,57.7,25.5,57.7,25.3,57.6z"/>
						
							<rect x="24.4" y="57.9" transform="matrix(0.5598 -0.8286 0.8286 0.5598 -37.0441 46.247)" class="st1" width="1.3" height="0.2"/>
					</g>
					<g>
						<path class="st1" d="M22.5,61.8L22.5,61.8c0.2,0.1,0.3,0.4,0.1,0.6l0,0l-0.7-0.5l0,0C22,61.7,22.3,61.6,22.5,61.8z"/>
						<polygon class="st1" points="23.4,60.3 23.5,60.4 22.5,61.9 22.3,61.8 						"/>
					</g>
				</g>
				<g>
					<g>
						<path class="st1" d="M23.5,56.9L23.5,56.9c-0.2,0-0.5-0.1-0.5-0.4l0,0l0.9-0.2l0,0C23.9,56.6,23.8,56.9,23.5,56.9z"/>
						<polygon class="st1" points="24,58.4 23.7,58.4 23.4,56.8 23.6,56.7 						"/>
					</g>
					<g>
						<path class="st1" d="M24.5,61.7L24.5,61.7c0.2,0,0.5,0.1,0.5,0.4l0,0l-0.9,0.2l0,0C24.1,62,24.2,61.8,24.5,61.7z"/>
						
							<rect x="24.3" y="60.6" transform="matrix(0.9818 -0.19 0.19 0.9818 -11.1844 5.7504)" class="st1" width="0.2" height="1.3"/>
					</g>
				</g>
			</g>
		</g>
		<path class="st2" d="M24.4,58c0.1,0.2-0.2,0.5-0.7,0.7c-0.4,0.2-0.9,0.2-0.9,0c-0.1-0.2,0.2-0.5,0.7-0.7
			C23.9,57.8,24.3,57.8,24.4,58z"/>
		<path class="st2" d="M23.5,59.4c0,0.1-0.2,0.1-0.4,0.1s-0.3-0.1-0.3-0.2s0.2-0.1,0.4-0.1C23.4,59.2,23.5,59.3,23.5,59.4z"/>
		<path class="st2" d="M24.1,58.8c0,0.1-0.1,0.2-0.2,0.2c-0.1,0-0.2,0-0.2-0.1s0.1-0.2,0.2-0.2S24.1,58.8,24.1,58.8z"/>
		<path class="st2" d="M22.6,59L22.6,59C22.5,59,22.4,58.9,22.6,59L22.6,59L22.6,59z"/>
		<path class="st2" d="M22.9,59.8c0,0.1-0.1,0.1-0.3,0.1c-0.1,0-0.2-0.1-0.2-0.2s0.1-0.1,0.3-0.1C22.8,59.6,22.9,59.7,22.9,59.8z"/>
	</g>
</g>
</svg>
