<?xml version="1.0" encoding="utf-8"?>
<!-- Generator: Adobe Illustrator 22.0.1, SVG Export Plug-In . SVG Version: 6.00 Build 0)  -->
<svg version="1.1" id="Layer_1" xmlns="http://www.w3.org/2000/svg" xmlns:xlink="http://www.w3.org/1999/xlink" x="0px" y="0px"
	 viewBox="0 0 100 100" style="enable-background:new 0 0 100 100;" xml:space="preserve">
<style type="text/css">
	.st0{fill:#00B5AD;}
	.st1{fill:#A0CD5D;}
	.st2{fill:#D0E5B0;}
</style>
<g>
	<g>
		<g>
			<g>
				<path class="st0" d="M57.9,52.2c-0.1-0.4-0.4-0.3-0.8-0.4c-0.4-0.1-0.6-0.1-0.9-0.4c-0.3-0.2,0.1-0.6,0.4-1
					c0.3-0.4,0.8-0.8,0.5-0.9c-0.3-0.1-0.9,0.3-1.4,0.4c-0.4,0.1-0.8,0.4-1.4,0.8c-0.6,0.3-0.5,0.4-0.8,1.1c-0.3,0.7-1,0-1.1-0.3
					c-0.2-0.2,0.2-0.9,0.2-1.7s-0.3-0.9-0.6-1.1c-0.3-0.2-0.8,0-1.2-0.2c-0.4-0.2-0.1-0.6,0.2-1c0.2-0.4,0.8-0.1,1.1-0.2
					c0.3-0.1-0.1-0.3-0.5-0.4c-0.4-0.1-0.9,0-1.5,0.1c-0.7,0.1-0.4,0.3-1.1,0.8c-0.6,0.5-0.4,0.3-1.1,0.8c-0.8,0.5-0.2,0.6-0.2,1.6
					c0,1-0.1,1.3-0.5,2.2c-0.3,0.8-0.4,0.8-1.1,1.1c-0.6,0.4-0.9,0.4-1.6,0.7c-0.8,0.3-0.3,0.5-0.6,1.3c-0.3,0.8-0.3,0.8-0.7,1.7
					c-0.3,0.9-0.3,1.5-0.4,2.4c-0.1,0.9-0.9,0.6-1.7,1.3c-0.8,0.7-1.2,0.9-1.7,1.5c-1.1,1-1.9,1.3-2.7,2.1c-0.9,0.8-1.6,1.3-2.7,1.7
					c-1,0.4-1.9,1.5-2.7,2.1c-0.8,0.6-1.4,0-2.1,0.3c-0.8,0.3-0.6,0.4-1.3,1c-0.6,0.6-0.7,0.8-1.3,1.4c-0.7,0.6-0.3,0.4-0.4,1
					c-0.2,0.6,0,0.6-0.4,0.9c-0.4,0.3-0.7,0.2-1.4,0.5c-0.7,0.3-0.5,0.2-0.6,0.6c-0.1,0.3-0.1,0.2-0.4,0.5c-0.3,0.2-0.6,0.4-0.8,0.9
					c-0.2,0.4,0,0.5-0.1,1.2c-0.1,0.7,0,0.6,0,1c0,0.4-0.2,0.1-0.5,0c-0.3-0.1-0.4-0.4-0.8-0.5c-0.5,0-0.5,0.3-0.6,0.4
					c-0.1,0.1-0.2,0.7,0.3,0.8c0.4,0.1,0.5,0.2,0.7,0.7c0.3,0.5-0.1,0.4-0.4,0.7c-0.4,0.2-0.7,0.3-0.9,0.5s-0.1,0.4,0.1,0.8
					c0.2,0.3,0.7,0.1,0.8,0.3c0.1,0.2-0.2,0.2-0.6,0.4c-0.4,0.1-0.4,0.4-0.2,0.6c0.1,0.3,1.1,0.3,1.9,0.2c0.8,0,2.4-0.5,3.1,0
					c0.7,0.6,0.8,1,1.4,1.1c0.6,0.2,1.3,0,1.9,0.6c0.6,0.6,0.3,0.7,1,0.9c0.8,0.3,1.5,0.2,2.3,0.1c0.7-0.1,1.6-0.1,2.4-0.3
					c0.9-0.2,1.4-0.7,2.6-1.8c1.1-1.1,0.8-1,1.3-1.4c0.5-0.5,0.9-0.5,1.4-0.8c0.4-0.3,1.3-0.2,1.3-0.4s-0.2-0.2-0.6-0.4
					c-0.4-0.2-0.1,0-0.2-0.8c-0.1-0.8,0.7-1.4,0.9-1.9c0.2-0.5,1.4-1.3,1.9-2.5c0.5-1.2,0.3-1.2,0.4-2.5c0.2-1.2,0.2-1.1,0.7-2
					c0.5-0.9,1.7-0.7,2.1-1.3c0.4-0.6,1.2-0.8,1.7-1.1c0.5-0.4,1.3-1,2.1-1c0.8,0,0.7,0.5,1,0.6c0.3,0.1,1.2,0.3,1.6,0
					c0.4-0.3,0.1-0.5-0.2-1.1c-0.2-0.6-0.6-0.2-1.1-0.2c-0.5,0-0.4-0.1-0.6-0.9c-0.2-0.9,0.2-0.7,0.6-1.5c0.5-0.8,1.1-1.1,1.7-1.7
					c0.6-0.6,1.5-1.6,2.7-3.1c1.1-1.5,0.6-1.1,1-2.2c0.3-1.1,0.8-1.1,1.5-1.7c0.7-0.6,0.7-0.2,0.8-0.7c0.1-0.5-0.5-1-0.7-1.6
					C57.8,52.4,58,52.6,57.9,52.2L57.9,52.2z"/>
				<path class="st0" d="M79.6,30.3c-0.6,0-0.6-0.8-1.4-0.6c-0.8,0.2-1.4,0.4-2,1.1c-0.6,0.7-2.6,1.5-3.2,1.5
					c-0.6,0.1-1.3-0.4-2.3-0.8c-1-0.4-2.2-0.7-2.9-1.4c-0.6-0.7-1-2.2-1-3.3s-0.6-1.5-0.7-1.9c-0.2-0.4,0-0.8-0.4-1
					c-0.4-0.2-0.3-0.4-0.7-0.6c-0.4-0.2-0.7,0.1-0.4,0.5c0.3,0.4,0.4,0.6,0.4,1.4c0,0.8,0.4,1.7-0.1,1.6c-0.5,0-0.6-0.3-1.2-0.8
					c-0.6-0.5-0.7-0.3-1.4-0.6c-0.6-0.3-1-0.4-0.9-0.8c0-0.4,0.2-0.4-0.2-0.8c-0.4-0.4-0.5-0.6-0.2-1.1c0.3-0.5,0-1.1-0.5-1.5
					c-0.4-0.4-0.6-0.2-0.8-0.8c-0.2-0.6-0.3-0.8-0.6-1.3c-0.4-0.6-0.3-0.8-0.3-1.6c0-0.8,0.1-1.2-0.1-1.5c-0.2-0.2-0.1-0.1-0.4,0.1
					s-0.6,0.5-0.9,0c-0.3-0.5-0.1-0.6-0.3-1.1c-0.2-0.5-0.2-0.5-0.9-0.6c-0.7,0-1.2,0.1-1.4-0.2c-0.2-0.3-0.6-0.9-0.8-0.7
					c-0.2,0.2-0.1,0.6-0.3,0.7c-0.2,0.1-0.5-0.2-0.9-0.4c-0.3-0.2-0.3-0.2-0.5-0.8c-0.2-0.5-0.5-0.6-0.5-0.9c0-0.3,0-0.3,0.2-0.5
					c0.2-0.2,0.5-0.3,0.3-0.5c-0.2-0.2-0.5-0.2-1-0.1c-0.5,0-0.8-0.2-0.8,0.2c-0.1,0.4,0.3,0.9,0.6,1.1c0.4,0.2,0.6,0.3,0.7,0.9
					c0.2,0.5,0.1,0.6,0.6,1.1c0.5,0.5,0.3,0.2,0.5,1c0.2,0.8,0.4,1.5,0.8,1.8c0.4,0.2,0.6,0,0.7-0.2c0-0.2,0.1-0.5,0.5-0.5
					c0.4,0.1,0.6,0.4,0.4,0.6c-0.2,0.2-0.5,0-0.4,0.5c0.1,0.6,0,1,0.6,1.7c0.6,0.7,1,0.8,1,1.3c0.1,0.5,0.1,1.1,0.4,1.3
					c0.3,0.2,0.9,0.1,0.9-0.1c0-0.3,0.2-0.9,0.9-0.4c0.7,0.5,0.3,1,0,1.1c-0.2,0.1-0.3,0.6-0.1,0.7c0.1,0.1,0.4,0.4,0.2,0.5
					c-0.2,0.1-0.6-0.3-0.7-0.1c-0.1,0.2,0.3,0.9,0.5,1.1c0.2,0.2,0.3,0.4,0.4,0.8c0.1,0.4,0.3,0.8,0.6,0.9c0.2,0.1,0.7,0.2,0.7-0.1
					c0.1-0.3,0.1-0.8,0.5-0.4c0.4,0.4,0.6,0.6,0.7,0.9c0,0.3-0.3,0.6-0.6,0.6c-0.3,0-0.8,0-0.6,0.4c0.2,0.4,0,0.6,0.5,1.2
					c0.5,0.6,0.7,0.9,0.8,1.5c0.1,0.6,0.2,1-0.2,1.7s-0.6,1.5-0.6,2.3c0,0.8-0.6,1.9-0.8,2.2c-0.2,0.3-0.4,0.4-1.2,1
					c-0.8,0.6-1.5,1.1-2.1,1.3c-0.6,0.2-0.8,0.5-0.7,0.9c0.1,0.5,0.3,1.1,1.2,1.4c1,0.4,1.4,1,2.1,1.4c0.7,0.4,1.1,0.2,1.7,0.6
					c0.6,0.4,1,0.3,1.5,0.9c0.5,0.6,0.8,1,0.8,1.8c0,0.9,0.3,1-0.3,1.9c-0.6,0.9-0.7,1-1.3,2.1c-0.5,1.1-1.1,1-1.3,1.5
					c-0.2,0.6,0.5,0.6,0.9,0.6c0.4,0,0.5,0.1,0.9,0.3c0.5,0.2,0.5-0.2,0.7,0.2c0.2,0.3-0.2,0.9,0.4,0.9c0.6,0.1,0.5,0,1-0.6
					c0.6-0.6,0.7-0.5,1.6-1c0.8-0.5,1.2-0.3,1.6-1c0.3-0.7,0-0.7,1.1-1.9c1.1-1.2,1.8-1,1.9-1.9c0.1-0.9,1.1-2.1,1.5-3
					c0.3-0.8,1-1.4,0.7-2.1c-0.2-0.7-0.6-0.8-0.6-1.6c0-0.7,1.2-1.8,1.6-1.9c0.4,0,1.4-0.2,2.1-0.1c0.7,0.1,0.7,0.7,1.3,0.3
					c0.6-0.3,0.9-0.4,0.6-0.7C77.6,38,77,38,77.3,37.6c0.3-0.5,0.6-0.9,1.3-1.4s0.7-0.8,0.6-1.8c-0.1-0.9-0.4-1.6,0.1-2.3
					c0.5-0.7,0.5-0.6,0.6-1C80,30.6,80.1,30.3,79.6,30.3L79.6,30.3z"/>
			</g>
			<path class="st0" d="M27.3,87.4c-0.5-0.2-1-0.3-0.8-0.6c0.2-0.3,0.5-0.2,0.4-0.5c-0.2-0.4-1.3-0.7-1.4-0.2
				c-0.2,0.6,0,0.6-0.2,1.2c-0.3,0.6-0.7,0.4-0.7,1.1c0,0.7-0.1,0.8,0.3,0.5c0.4-0.2,0.5-0.3,1.1-0.6c0.6-0.2,1.2,0,1.3-0.2
				C27.5,87.9,27.8,87.6,27.3,87.4L27.3,87.4z"/>
		</g>
	</g>
	<g>
		<g>
			<g>
				<ellipse transform="matrix(0.7557 -0.6549 0.6549 0.7557 2.018 49.9933)" class="st1" cx="68" cy="22.3" rx="4.5" ry="4.5"/>
				<g>
					<g>
						<path class="st1" d="M72.3,25.2L72.3,25.2c0.3-0.5,0.9-0.6,1.4-0.3l0,0l-1.1,1.7l0,0C72.1,26.3,72,25.7,72.3,25.2z"/>
						
							<rect x="71.1" y="23" transform="matrix(-0.5598 0.8286 -0.8286 -0.5598 131.5781 -20.8467)" class="st1" width="0.5" height="3"/>
					</g>
					<g>
						<path class="st1" d="M63.7,19.4L63.7,19.4c-0.3,0.5-0.9,0.6-1.4,0.3l0,0l1.1-1.7l0,0C63.9,18.3,64,18.9,63.7,19.4z"/>
						
							<rect x="64.4" y="18.5" transform="matrix(0.5598 -0.8286 0.8286 0.5598 11.8653 62.4521)" class="st1" width="0.5" height="3"/>
					</g>
				</g>
				<g>
					<g>
						<path class="st1" d="M74.1,21.1L74.1,21.1c-0.1-0.5,0.3-1.1,0.8-1.2l0,0l0.4,2l0,0C74.7,22,74.2,21.6,74.1,21.1z"/>
						<polygon class="st1" points="70.5,22.1 70.4,21.6 74.4,20.8 74.5,21.3 						"/>
					</g>
					<g>
						<path class="st1" d="M62.9,23.3L62.9,23.3c0.1,0.5-0.3,1.1-0.8,1.2l0,0l-0.4-2h0C62.3,22.4,62.8,22.7,62.9,23.3z"/>
						
							<rect x="63.8" y="21.5" transform="matrix(-0.1901 -0.9818 0.9818 -0.1901 53.6577 90.3657)" class="st1" width="0.5" height="3"/>
					</g>
				</g>
				<g>
					<g>
						<path class="st1" d="M70.9,18L70.9,18c-0.5-0.3-0.6-0.9-0.3-1.4l0,0l1.7,1.1l0,0C72,18.2,71.4,18.3,70.9,18z"/>
						
							<rect x="70" y="17.5" transform="matrix(0.8286 0.5598 -0.5598 0.8286 22.6705 -36.0768)" class="st1" width="0.5" height="3"/>
					</g>
					<g>
						<path class="st1" d="M64.4,27.5L64.4,27.5c0.5,0.3,0.6,0.9,0.3,1.4l0,0L63,27.8l0,0C63.4,27.3,64,27.2,64.4,27.5z"/>
						<polygon class="st1" points="66.4,24.2 66.9,24.5 64.5,27.9 64,27.6 						"/>
					</g>
				</g>
				<g>
					<g>
						<path class="st1" d="M66.8,16.4L66.8,16.4c-0.5,0.1-1.1-0.3-1.2-0.8l0,0l2-0.4l0,0C67.7,15.8,67.4,16.3,66.8,16.4z"/>
						<polygon class="st1" points="67.8,19.8 67.3,19.9 66.5,16.1 67,16 						"/>
					</g>
					<g>
						<path class="st1" d="M69,27.4L69,27.4c0.5-0.1,1.1,0.3,1.2,0.8l0,0l-2,0.4l0,0C68.1,28,68.5,27.5,69,27.4z"/>
						<rect x="68.5" y="24.7" transform="matrix(-0.9818 0.19 -0.19 -0.9818 141.2841 38.87)" class="st1" width="0.5" height="3"/>
					</g>
				</g>
			</g>
		</g>
		<path class="st2" d="M68.8,18.9c0.2,0.4-0.5,1.1-1.5,1.5c-1,0.4-2,0.4-2.2-0.1c-0.2-0.4,0.5-1.1,1.5-1.5
			C67.7,18.5,68.6,18.5,68.8,18.9z"/>
		<path class="st2" d="M66.7,22.1c0,0.2-0.4,0.2-0.8,0.1c-0.4-0.1-0.7-0.3-0.7-0.5c0-0.2,0.4-0.2,0.8-0.1
			C66.5,21.7,66.8,21.9,66.7,22.1z"/>
		<path class="st2" d="M68.2,20.9c0,0.2-0.2,0.3-0.5,0.4c-0.3,0-0.5-0.1-0.5-0.2c0-0.2,0.2-0.3,0.5-0.4
			C67.9,20.6,68.2,20.7,68.2,20.9z"/>
		<path class="st2" d="M64.8,21.2c0,0.1-0.2,0.1-0.3,0c-0.1-0.1-0.2-0.2-0.1-0.3c0-0.1,0.2-0.1,0.3,0C64.7,21,64.8,21.1,64.8,21.2z"
			/>
		<path class="st2" d="M65.3,23c0,0.2-0.3,0.3-0.6,0.2c-0.3-0.1-0.5-0.3-0.4-0.4c0-0.2,0.3-0.3,0.6-0.2C65.1,22.7,65.3,22.9,65.3,23
			z"/>
	</g>
	<g>
		<g>
			<g>
				<circle class="st1" cx="56.9" cy="38.4" r="3.2"/>
				<g>
					<g>
						<path class="st1" d="M59.9,40.5L59.9,40.5c0.2-0.3,0.7-0.4,1-0.2l0,0l-0.8,1.2l0,0C59.8,41.2,59.7,40.8,59.9,40.5z"/>
						
							<rect x="59" y="38.9" transform="matrix(-0.5598 0.8286 -0.8286 -0.5598 125.4941 13.2989)" class="st1" width="0.4" height="2.1"/>
					</g>
					<g>
						<path class="st1" d="M53.9,36.4L53.9,36.4c-0.2,0.3-0.7,0.4-1,0.2l0,0l0.8-1.2l0,0C54,35.6,54.1,36,53.9,36.4z"/>
						
							<rect x="54.4" y="35.8" transform="matrix(0.5598 -0.8286 0.8286 0.5598 -6.5087 61.4324)" class="st1" width="0.4" height="2.1"/>
					</g>
				</g>
				<g>
					<g>
						<path class="st1" d="M61.2,37.6L61.2,37.6c-0.1-0.4,0.2-0.8,0.6-0.8l0,0l0.3,1.4l0,0C61.6,38.2,61.2,37.9,61.2,37.6z"/>
						<polygon class="st1" points="58.6,38.3 58.6,37.9 61.4,37.3 61.4,37.7 						"/>
					</g>
					<g>
						<path class="st1" d="M53.3,39.1L53.3,39.1c0.1,0.4-0.2,0.8-0.6,0.8l0,0l-0.3-1.4h0C52.9,38.5,53.2,38.7,53.3,39.1z"/>
						
							<rect x="54" y="37.9" transform="matrix(-0.1901 -0.9818 0.9818 -0.1901 26.193 99.4987)" class="st1" width="0.4" height="2.1"/>
					</g>
				</g>
				<g>
					<g>
						<path class="st1" d="M58.9,35.4L58.9,35.4c-0.3-0.2-0.4-0.7-0.2-1l0,0l1.2,0.8l0,0C59.7,35.5,59.3,35.6,58.9,35.4z"/>
						
							<rect x="58.3" y="35" transform="matrix(0.8286 0.5598 -0.5598 0.8286 30.2241 -26.5433)" class="st1" width="0.4" height="2.1"/>
					</g>
					<g>
						<path class="st1" d="M54.4,42.1L54.4,42.1c0.3,0.2,0.4,0.7,0.2,1l0,0l-1.2-0.8l0,0C53.6,41.9,54.1,41.8,54.4,42.1z"/>
						<polygon class="st1" points="55.8,39.7 56.1,40 54.4,42.4 54.1,42.2 						"/>
					</g>
				</g>
				<g>
					<g>
						<path class="st1" d="M56.1,34.3L56.1,34.3c-0.4,0.1-0.8-0.2-0.8-0.6l0,0l1.4-0.3l0,0C56.7,33.8,56.4,34.2,56.1,34.3z"/>
						<polygon class="st1" points="56.7,36.7 56.4,36.7 55.8,34.1 56.2,34 						"/>
					</g>
					<g>
						<path class="st1" d="M57.6,42L57.6,42c0.4-0.1,0.8,0.2,0.8,0.6l0,0L57,42.8l0,0C56.9,42.4,57.2,42.1,57.6,42z"/>
						
							<rect x="57.2" y="40.1" transform="matrix(-0.9818 0.19 -0.19 -0.9818 121.6244 70.6683)" class="st1" width="0.4" height="2.1"/>
					</g>
				</g>
			</g>
		</g>
		<path class="st2" d="M57.4,36c0.1,0.3-0.4,0.8-1.1,1.1c-0.7,0.3-1.4,0.3-1.5,0c-0.1-0.3,0.4-0.8,1.1-1.1
			C56.6,35.7,57.3,35.7,57.4,36z"/>
		<path class="st2" d="M56,38.3c0,0.1-0.3,0.2-0.6,0.1c-0.3-0.1-0.5-0.2-0.5-0.3c0-0.1,0.3-0.2,0.6-0.1C55.8,38,56,38.1,56,38.3z"/>
		<path class="st2" d="M57,37.4c0,0.1-0.1,0.2-0.3,0.3c-0.2,0-0.4-0.1-0.4-0.2c0-0.1,0.1-0.2,0.3-0.3C56.8,37.2,57,37.3,57,37.4z"/>
		<path class="st2" d="M54.6,37.6c0,0-0.1,0-0.2,0c-0.1-0.1-0.1-0.1-0.1-0.2s0.1,0,0.2,0C54.6,37.5,54.6,37.6,54.6,37.6z"/>
		<path class="st2" d="M55,38.9c0,0.1-0.2,0.2-0.4,0.2c-0.2,0-0.3-0.2-0.3-0.3c0-0.1,0.2-0.2,0.4-0.2C54.8,38.7,55,38.8,55,38.9z"/>
	</g>
	<g>
		<g>
			<g>
				<circle class="st1" cx="44.3" cy="70.4" r="2"/>
				<g>
					<g>
						<path class="st1" d="M46.1,71.7L46.1,71.7c0.1-0.2,0.4-0.3,0.6-0.1l0,0l-0.5,0.7l0,0C46.1,72.1,46,71.9,46.1,71.7z"/>
						
							<rect x="45.6" y="70.7" transform="matrix(-0.5598 0.8286 -0.8286 -0.5598 130.4216 73.4324)" class="st1" width="0.2" height="1.3"/>
					</g>
					<g>
						<path class="st1" d="M42.4,69.1L42.4,69.1c-0.1,0.2-0.4,0.3-0.6,0.1l0,0l0.5-0.7l0,0C42.5,68.6,42.5,68.9,42.4,69.1z"/>
						
							<rect x="42.7" y="68.7" transform="matrix(0.5598 -0.8286 0.8286 0.5598 -38.662 66.0184)" class="st1" width="0.2" height="1.3"/>
					</g>
				</g>
				<g>
					<g>
						<path class="st1" d="M46.9,69.8L46.9,69.8c0-0.2,0.1-0.5,0.4-0.5l0,0l0.2,0.9l0,0C47.2,70.2,47,70.1,46.9,69.8z"/>
						<polygon class="st1" points="45.3,70.3 45.3,70.1 47,69.7 47.1,69.9 						"/>
					</g>
					<g>
						<path class="st1" d="M42,70.8L42,70.8c0,0.2-0.1,0.5-0.4,0.5l0,0l-0.2-0.9h0C41.7,70.4,42,70.6,42,70.8z"/>
						
							<rect x="42.4" y="70" transform="matrix(-0.1901 -0.9818 0.9818 -0.1901 -18.7967 125.9149)" class="st1" width="0.2" height="1.3"/>
					</g>
				</g>
				<g>
					<g>
						<path class="st1" d="M45.5,68.5L45.5,68.5c-0.2-0.1-0.3-0.4-0.1-0.6l0,0l0.7,0.5l0,0C46,68.6,45.7,68.6,45.5,68.5z"/>
						
							<rect x="45.1" y="68.3" transform="matrix(0.8286 0.5598 -0.5598 0.8286 46.3427 -13.5107)" class="st1" width="0.2" height="1.3"/>
					</g>
					<g>
						<path class="st1" d="M42.7,72.7L42.7,72.7c0.2,0.1,0.3,0.4,0.1,0.6l0,0l-0.7-0.5l0,0C42.2,72.6,42.5,72.5,42.7,72.7z"/>
						<polygon class="st1" points="43.6,71.2 43.7,71.3 42.7,72.8 42.5,72.7 						"/>
					</g>
				</g>
				<g>
					<g>
						<path class="st1" d="M43.7,67.8L43.7,67.8c-0.2,0-0.5-0.1-0.5-0.4l0,0l0.9-0.2l0,0C44.1,67.5,44,67.8,43.7,67.8z"/>
						<polygon class="st1" points="44.2,69.3 43.9,69.3 43.6,67.7 43.8,67.6 						"/>
					</g>
					<g>
						<path class="st1" d="M44.7,72.6L44.7,72.6c0.2,0,0.5,0.1,0.5,0.4l0,0l-0.9,0.2l0,0C44.3,72.9,44.4,72.7,44.7,72.6z"/>
						
							<rect x="44.5" y="71.4" transform="matrix(-0.9818 0.19 -0.19 -0.9818 102.0664 134.4045)" class="st1" width="0.2" height="1.3"/>
					</g>
				</g>
			</g>
		</g>
		<path class="st2" d="M44.6,68.9c0.1,0.2-0.2,0.5-0.7,0.7c-0.4,0.2-0.9,0.2-0.9,0c-0.1-0.2,0.2-0.5,0.7-0.7
			C44.1,68.7,44.5,68.7,44.6,68.9z"/>
		<path class="st2" d="M43.7,70.3c0,0.1-0.2,0.1-0.4,0.1c-0.2,0-0.3-0.1-0.3-0.2c0-0.1,0.2-0.1,0.4-0.1
			C43.6,70.1,43.7,70.2,43.7,70.3z"/>
		<path class="st2" d="M44.3,69.7c0,0.1-0.1,0.2-0.2,0.2c-0.1,0-0.2,0-0.2-0.1c0-0.1,0.1-0.2,0.2-0.2C44.2,69.6,44.3,69.7,44.3,69.7
			z"/>
		<path class="st2" d="M42.8,69.9c0,0-0.1,0-0.1,0c0,0-0.1-0.1,0-0.1c0,0,0.1,0,0.1,0C42.8,69.8,42.8,69.9,42.8,69.9z"/>
		<path class="st2" d="M43.1,70.7c0,0.1-0.1,0.1-0.3,0.1c-0.1,0-0.2-0.1-0.2-0.2c0-0.1,0.1-0.1,0.3-0.1C43,70.5,43.1,70.6,43.1,70.7
			z"/>
	</g>
</g>
</svg>
