<?xml version="1.0" encoding="utf-8"?>
<!-- Generator: Adobe Illustrator 22.0.1, SVG Export Plug-In . SVG Version: 6.00 Build 0)  -->
<svg version="1.1" id="Layer_1" xmlns="http://www.w3.org/2000/svg" xmlns:xlink="http://www.w3.org/1999/xlink" x="0px" y="0px"
	 viewBox="0 0 15.9 16.7" style="enable-background:new 0 0 15.9 16.7;" xml:space="preserve">
<style type="text/css">
	.st0{fill:#A0CD5D;}
</style>
<g>
	<g>
		<path class="st0" d="M8,0L8,0C8,0,8,0,8,0z"/>
		<polygon class="st0" points="0,16.7 0,16.7 0,16.7 		"/>
		<path class="st0" d="M0,16.7c0-3.8,2.6-7.2,6.2-8c-1-0.4-1.9-1.3-2.4-2.4C2.9,3.9,3.9,1.3,6.2,0.3C6.8,0.1,7.4,0,8,0H0V16.7z"/>
		<path class="st0" d="M8,0c1.7,0,3.4,1.1,4.1,2.8C13,5,12,7.6,9.7,8.6c3.5,0.9,6.2,4.3,6.2,8.1V0H8z"/>
	</g>
</g>
</svg>
