<?xml version="1.0" encoding="utf-8"?>
<!-- Generator: Adobe Illustrator 22.0.1, SVG Export Plug-In . SVG Version: 6.00 Build 0)  -->
<svg version="1.1" id="Layer_1" xmlns="http://www.w3.org/2000/svg" xmlns:xlink="http://www.w3.org/1999/xlink" x="0px" y="0px"
	 viewBox="0 0 114.2 138.2" style="enable-background:new 0 0 114.2 138.2;" xml:space="preserve">
<style type="text/css">
	.st0{fill:#FFFFFF;}
	.st1{clip-path:url(#SVGID_3_);}
	.st2{fill:#00B5AD;}
	.st3{fill:#8ACECA;}
	.st4{fill:#E0F0EE;}
	.st5{clip-path:url(#SVGID_5_);}
	.st6{fill:#FFCA07;}
	.st7{fill:#FFE193;}
	.st8{fill:#FFF2D4;}
	.st9{fill:#EAAC21;}
	.st10{clip-path:url(#SVGID_7_);}
	.st11{fill:#055065;}
	.st12{enable-background:new    ;}
	.st13{fill:#A0CD5D;}
</style>
<g>
	<g>
		<g>
			<g>
				<path id="SVGID_1_" class="st0" d="M114.2,138.2H0V41.6c0-0.9,0.4-1.8,1.2-2.4L55.3,0.6c1.1-0.8,2.6-0.8,3.7,0l54,38.6
					c0.7,0.6,1.2,1.4,1.2,2.4V138.2z"/>
			</g>
			<g>
				<g>
					<defs>
						<path id="SVGID_2_" d="M114.2,138.2H0V41.6c0-0.9,0.4-1.8,1.2-2.4L55.3,0.6c1.1-0.8,2.6-0.8,3.7,0l54,38.6
							c0.7,0.6,1.2,1.4,1.2,2.4V138.2z"/>
					</defs>
					<clipPath id="SVGID_3_">
						<use xlink:href="#SVGID_2_"  style="overflow:visible;"/>
					</clipPath>
					<g class="st1">
						<g>
							<g>
								<path class="st2" d="M103,136.2H40.9V96.6c0-2.4,2-4.4,4.4-4.4h53.3c2.4,0,4.4,2,4.4,4.4C103,96.6,103,136.2,103,136.2z"/>
							</g>
							<g>
								<path class="st3" d="M103.1,138.2H40.7c-1.9,0-3.4-1.5-3.4-3.4l0,0l0,0h69.3l0,0l0,0C106.6,136.7,105,138.2,103.1,138.2z"/>
							</g>
							<path class="st4" d="M72.4,94.6c0,0.3-0.2,0.5-0.5,0.5s-0.5-0.2-0.5-0.5s0.2-0.5,0.5-0.5C72.2,94.2,72.4,94.4,72.4,94.6z"/>
							<path class="st4" d="M79.3,136.5H64.6c-0.9,0-1.7-0.8-1.7-1.7l0,0H81l0,0C81,135.7,80.2,136.5,79.3,136.5z"/>
						</g>
						<rect id="XMLID_2_" x="44.5" y="96.4" class="st4" width="54.9" height="35.2"/>
					</g>
				</g>
			</g>
			<g>
				<g>
					<defs>
						<path id="SVGID_4_" d="M114.2,138.2H0V41.6c0-0.9,0.4-1.8,1.2-2.4L55.3,0.6c1.1-0.8,2.6-0.8,3.7,0l54,38.6
							c0.7,0.6,1.2,1.4,1.2,2.4V138.2z"/>
					</defs>
					<clipPath id="SVGID_5_">
						<use xlink:href="#SVGID_4_"  style="overflow:visible;"/>
					</clipPath>
					<g class="st5">
						<g>
							<path class="st6" d="M37.4,133.1c0-2.8-2.3-5.1-5.1-5.1h17.6c2.8,0,5.1,2.3,5.1,5.1s-2.3,5.1-5.1,5.1H32.4
								C35.2,138.2,37.4,135.9,37.4,133.1z"/>
							<path class="st7" d="M32.4,128.1c2.8,0,5.1,2.3,5.1,5.1s-2.3,5.1-5.1,5.1H6.9V137h1.9v-7.5H6.9v-1.3L32.4,128.1L32.4,128.1z"
								/>
						</g>
						<path class="st8" d="M8.8,136.9h22.9c2.1,0,3.7-1.7,3.7-3.7l0,0c0-2.1-1.7-3.7-3.7-3.7H8.8V136.9z"/>
						<path class="st9" d="M31.7,129.4c2.1,0,3.7,1.7,3.7,3.7c0,0.2,0,0.4-0.1,0.7c-0.3-1.8-1.8-3.1-3.7-3.1H8.8v-1.3L31.7,129.4
							L31.7,129.4z"/>
					</g>
				</g>
			</g>
			<g>
				<g>
					<defs>
						<path id="SVGID_6_" d="M114.2,138.2H0V41.6c0-0.9,0.4-1.8,1.2-2.4L55.3,0.6c1.1-0.8,2.6-0.8,3.7,0l54,38.6
							c0.7,0.6,1.2,1.4,1.2,2.4V138.2z"/>
					</defs>
					<clipPath id="SVGID_7_">
						<use xlink:href="#SVGID_6_"  style="overflow:visible;"/>
					</clipPath>
					<g class="st10">
						<rect x="20.2" y="106.5" class="st11" width="16.3" height="21.6"/>
						<path class="st11" d="M20.2,126.3c-4.5,0-8.2-3.7-8.2-8.2s3.7-8.2,8.2-8.2s8.2,3.7,8.2,8.2C28.3,122.6,24.7,126.3,20.2,126.3z
							 M20.2,112.7c-3,0-5.5,2.4-5.5,5.5c0,3,2.4,5.5,5.5,5.5c3,0,5.5-2.4,5.5-5.5C25.6,115.1,23.2,112.7,20.2,112.7z"/>
					</g>
				</g>
			</g>
		</g>
	</g>
	<g class="st12">
		<path class="st13" d="M10.9,51.7l5-0.1c0.1,0,0.2,0.1,0.3,0.3c0.1,0.2,0.2,0.4,0.2,0.5c0.2,0.3,0.5,0.5,1,0.5
			c0.4,0,0.8-0.1,1.1-0.3c0.3-0.2,0.4-0.5,0.4-0.8s-0.1-0.6-0.3-0.7c-0.2-0.1-0.4-0.2-0.6-0.4s-0.5-0.2-0.9-0.3s-0.6-0.1-0.6-0.1h0
			L16,50.2c-0.3-0.1-0.6-0.1-0.9-0.2c-1.5-0.4-2.6-0.9-3.3-1.5c-0.7-0.6-1-1.4-1-2.5c0-0.7,0.1-1.4,0.4-2s0.6-1.1,1.1-1.5
			c1.3-1.1,3.1-1.6,5.3-1.6c1.8,0,3.2,0.3,4.3,1h0c0.7,0.5,1.1,0.9,1.4,1.4s0.4,1,0.5,1.7l-0.2,0.2c-1.7,0.1-3.1,0.1-4.4,0.1
			c-0.4,0-0.6-0.1-0.7-0.3c0-0.1-0.1-0.2-0.1-0.3c-0.1-0.2-0.4-0.3-0.8-0.3h0c-0.4,0-0.7,0.1-1,0.3c-0.3,0.2-0.4,0.3-0.4,0.5
			c0,0.2,0,0.3,0.1,0.4c0.1,0.1,0.1,0.2,0.2,0.3s0.2,0.1,0.4,0.2c0.2,0.1,0.3,0.1,0.4,0.1s0.2,0.1,0.4,0.1l0.3,0.1
			c0.1,0,0.5,0.1,1.2,0.3c0.6,0.2,1.2,0.3,1.6,0.4v0c1.3,0.5,2.3,1,2.7,1.7c0.5,0.7,0.7,1.5,0.7,2.4c0,2.4-1.4,3.9-4.3,4.7
			c-0.8,0.2-1.7,0.4-2.7,0.4c-1.2,0-2.3-0.2-3.4-0.5c-1.1-0.3-1.9-0.9-2.3-1.7c-0.3-0.4-0.4-0.7-0.5-1
			C10.9,52.7,10.8,52.3,10.9,51.7C10.8,51.7,10.8,51.7,10.9,51.7z"/>
		<path class="st13" d="M36.9,44.9c0,0.2,0,0.3-0.1,0.3l-3.4,0c0,0.6,0,1.6,0,2.9c0,1.3,0,2.2,0,2.7l0,5c0,0.1-0.1,0.1-0.2,0.1l-2,0
			l0,0l-0.6,0h-1.7c-0.5,0-0.8,0-1,0l-0.2-0.1c0,0,0-0.1-0.1-0.2c0-0.6,0-1.8,0.1-3.7l0.1-5l0-0.2c0-0.6-0.1-1-0.1-1.1
			c0-0.1-0.1-0.2-0.2-0.2c-0.1,0-0.2,0-0.3,0l-0.4,0l-2.3,0c-0.1-0.2-0.1-0.5-0.1-1.1l0-0.8v-0.3c0-1,0-1.5,0-1.6c0,0,0,0,0.1,0
			l12-0.1c0.2,0,0.4,0,0.5,0.1s0.1,0.1,0.1,0.2v2.5L36.9,44.9z"/>
		<path class="st13" d="M51.6,55.7c0,0.1-0.2,0.1-0.5,0.1h-0.9l-0.6,0h-0.6l-0.9,0c-0.9,0-1.7,0-2.3-0.1c0,0,0,0-0.1-0.1l0-0.2
			c-0.1-0.6-0.2-1.3-0.4-1.9l-4,0c0,0.1-0.1,0.4-0.2,1c-0.1,0.5-0.2,0.9-0.3,1.2c-0.1,0.1-0.4,0.1-0.9,0.1l-0.2,0h-0.5l-2.5,0.1
			h-0.3l-0.3,0h-0.7c0,0-0.1-0.1-0.1-0.2c0.6-2.2,1.5-4.9,2.6-8.1L38,47h0l0.3-0.8c0.1-0.3,0.3-0.9,0.7-2.1c0.4-1.1,0.6-1.9,0.7-2.2
			c0.1-0.3,0.2-0.5,0.2-0.5h1.6l3.3,0l0.9,0l0.7,0c0.4,0,0.6,0.1,0.6,0.2c0.6,1.8,1.5,4.3,2.5,7.6c1,3.3,1.6,5.1,1.8,5.6l0.1,0.5
			C51.5,55.4,51.5,55.5,51.6,55.7z M42.3,50.6l0.4,0l2.3,0c-0.1-0.7-0.2-1.3-0.2-1.6l-0.4-1.6c-0.4-1.7-0.6-2.5-0.6-2.5
			c0,0,0-0.1,0-0.1s0,0,0-0.1c0,0,0,0,0-0.1c0,0,0,0,0-0.1c0,0,0,0,0,0c0-0.1-0.1-0.1-0.3-0.2c-0.2,0-0.7,1.9-1.5,5.7l-0.1,0.6H42.3
			z"/>
		<path class="st13" d="M63.7,41.4l0.3,0c0.1,0,0.1,0.1,0.1,0.2l-0.3,0.6v0l-0.6,1.2c-0.9,1.7-1.5,2.8-1.8,3.4l-0.3,0.6
			c-0.3,0.7-0.9,1.8-1.8,3.5c0,0.2,0,0.5,0,1v3.9c0,0.1-0.1,0.2-0.2,0.2l-5.4,0c-0.1-0.2-0.2-0.4-0.2-0.6l0-1.2v-0.3l0-0.3l0-0.7
			c0-1.3-0.3-2.7-1-4.2c-0.1-0.3-0.4-0.8-0.6-1.3l-1.4-2.8c0-0.1-0.1-0.3-0.3-0.6c-0.2-0.3-0.3-0.7-0.5-1v0
			c-0.5-0.8-0.8-1.3-0.8-1.5c0,0,0.1,0,0.3,0h2.4c1.3,0,2.3,0,3,0c0.2,0,0.7,1.5,1.6,4.5l0.4,1.5c0.6-1.7,1.3-3.7,2-6
			c0,0,0.5-0.1,1.4-0.1h1.2c0.3,0,0.5,0,0.7,0H63.7z"/>
		<path class="st13" d="M85.7,55.7c0,0.1-0.2,0.1-0.5,0.1h-0.9l-0.6,0h-0.6l-0.9,0c-0.9,0-1.7,0-2.3-0.1c0,0,0,0-0.1-0.1l0-0.2
			c-0.1-0.6-0.2-1.3-0.4-1.9l-4,0c0,0.1-0.1,0.4-0.2,1c-0.1,0.5-0.2,0.9-0.3,1.2c-0.1,0.1-0.4,0.1-0.9,0.1l-0.2,0h-0.5l-2.5,0.1
			h-0.3l-0.3,0h-0.7c0,0-0.1-0.1-0.1-0.2c0.6-2.2,1.5-4.9,2.6-8.1l0.2-0.7h0l0.3-0.8c0.1-0.3,0.3-0.9,0.7-2.1s0.6-1.9,0.7-2.2
			s0.2-0.5,0.2-0.5h1.6l3.3,0l0.9,0l0.7,0c0.4,0,0.6,0.1,0.6,0.2c0.6,1.8,1.5,4.3,2.5,7.6c1,3.3,1.6,5.1,1.8,5.6l0.1,0.5
			C85.6,55.4,85.6,55.5,85.7,55.7z M76.4,50.6l0.4,0l2.3,0c-0.1-0.7-0.2-1.3-0.2-1.6l-0.4-1.6c-0.4-1.7-0.6-2.5-0.6-2.5
			c0,0,0-0.1,0-0.1c0,0,0,0,0-0.1c0,0,0,0,0-0.1c0,0,0,0,0-0.1c0,0,0,0,0,0c0-0.1-0.1-0.1-0.3-0.2c-0.2,0-0.7,1.9-1.5,5.7l-0.1,0.6
			H76.4z"/>
		<path class="st13" d="M96.7,44.9c0,0.2,0,0.3-0.1,0.3l-3.4,0c0,0.6,0,1.6,0,2.9c0,1.3,0,2.2,0,2.7l0,5c0,0.1-0.1,0.1-0.2,0.1l-2,0
			l0,0l-0.6,0h-1.7c-0.5,0-0.8,0-1,0l-0.2-0.1c0,0,0-0.1-0.1-0.2c0-0.6,0-1.8,0.1-3.7l0.1-5l0-0.2c0-0.6-0.1-1-0.1-1.1
			c0-0.1-0.1-0.2-0.2-0.2c-0.1,0-0.2,0-0.3,0l-0.4,0l-2.3,0c-0.1-0.2-0.1-0.5-0.1-1.1l0-0.8v-0.3c0-1,0-1.5,0-1.6c0,0,0,0,0.1,0
			l12-0.1c0.2,0,0.4,0,0.5,0.1c0.1,0,0.1,0.1,0.1,0.2v2.5L96.7,44.9z"/>
	</g>
	<g class="st12">
		<path class="st13" d="M32.1,75.2l0,1.6c0,0.7,0,1.7,0,3.1C32,80,31.1,80,29.3,80s-3.4,0-4.8-0.1c0,0-0.1-0.1-0.2-0.3v-2.1l0-4
			c0-0.4,0-0.6-0.1-0.7s-0.4-0.1-0.8-0.1h-0.2c-0.8,0-1.5,0-2,0.1v1.8l0,5C21,79.9,19.9,80,17.8,80h-0.6c-1.8,0-3.1,0-3.9-0.1
			c-0.2-0.1-0.2-0.7-0.2-1.8l0.1-2.9l0.1-11.7v-0.6c0-0.1,0-0.6,0-1.4s0-1.3,0.1-1.5h0.1c0.6,0,1,0,1.3,0h1.5l1.6,0h0.5
			c1.5,0,2.3,0.2,2.6,0.5c0.1,0.2,0.2,0.4,0.2,0.8l0,1.6v0.6L21,66.1c0,0.2,0,0.4,0,0.8h0.8l0.3,0h1c0.4,0,0.8,0,1.2-0.1v-3.1l0-1
			v-0.9l0-0.2V61c0-0.5,0-0.8,0.1-0.9c0-0.1,0.2-0.2,0.4-0.2l0.3,0h0.8l2.8-0.1c2.2,0,3.4,0.2,3.4,0.5v0.9l0,0.3l0,0.7v2l0.1,8.3
			c0,0.1,0,0.3,0,0.5v0.6c0,0.3,0,0.6,0,1.1V75.2z"/>
		<path class="st13" d="M33.8,69.8l0-0.3c0.1-1.1,0.2-2,0.4-2.9c0.2-0.8,0.5-1.6,0.8-2.4c0.9-1.6,2.2-2.8,3.9-3.7
			c1.7-0.8,3.5-1.2,5.4-1.2c1.9,0,3.7,0.4,5.2,1.2c0.9,0.5,1.7,1,2.2,1.7c1,1.3,1.7,2.4,2,3.5c0.3,1.1,0.5,2.3,0.5,3.7
			c0,3.1-0.6,5.5-1.9,7.1l-0.6,0.8c-0.8,0.9-1.9,1.7-3.4,2.2c-1.5,0.5-2.9,0.8-4.4,0.8c-2.5,0-4.5-0.5-6.1-1.6
			C35.1,77.1,33.8,74.1,33.8,69.8z M41.3,69.7C41.3,69.7,41.3,69.7,41.3,69.7l0,0.1c0,0.4-0.1,0.8-0.1,1.2c0,0.5,0,0.9,0.1,1.4
			c0.1,0.5,0.2,1,0.4,1.5c0.2,0.5,0.4,0.9,0.8,1.2c0.4,0.3,0.8,0.5,1.3,0.5s0.9-0.1,1.2-0.2s0.6-0.3,0.8-0.5
			c0.2-0.2,0.4-0.5,0.6-0.8c0.4-0.9,0.6-2.4,0.6-4.4c0-2-0.2-3.4-0.7-4.3s-1.2-1.2-2.1-1.2c-0.5,0-0.9,0.1-1.2,0.3s-0.6,0.5-0.8,0.7
			c-0.2,0.2-0.4,0.8-0.5,1.5c-0.2,0.8-0.3,1.5-0.3,2.2L41.3,69.7z"/>
		<path class="st13" d="M63,68.4c-0.1,2.5-0.2,5-0.2,7.6v3.9h-1l-0.3,0l-4.6,0c-0.3,0-0.5,0-0.5,0c0,0,0-0.1,0.1-0.2v-0.1l0-0.1
			c0-0.6-0.1-1.4-0.1-2.3l0.1-14.5l0-0.7v-0.7l0-1.2c0-0.1,0-0.2,0.1-0.3h1.8l1,0c2.4,0,4.2,0,5.3,0.1s1.8,0.1,2.3,0.1
			c0.3,1.5,0.6,3.5,1.1,5.9l0.9,4.7h0.5l1.7-8.5c0-0.1,0.1-0.5,0.2-1.1c0.1-0.6,0.2-1,0.2-1h0.1l8.5-0.1l0.5,0H82
			c0.1,0,0.1,0.2,0.1,0.5l0.1,4.9c0.1,4.1,0.2,7.3,0.2,9.5c0,1.8,0,3.4-0.1,4.9c0,0.1-0.2,0.2-0.5,0.2l-0.6,0c-0.5,0-0.8,0-1,0h-0.7
			c-0.8,0-2.1,0-3.7,0c-0.3-0.3-0.5-1.4-0.5-3.5l0-4.1v-1.1c0-0.9,0-1.6,0-2.1l-0.5-0.1c-0.3,1.1-0.8,3.4-1.7,7l-0.1,0.5
			c-0.1,0.3-0.2,0.7-0.3,1.4c-0.1,0.7-0.3,1.2-0.3,1.6c-0.1,0.1-0.6,0.2-1.4,0.2H71l-1.5,0l-0.8,0h-0.6l-1,0h-0.4
			c-0.4,0-0.6-0.1-0.7-0.3l0,0l-1.2-5.2c0-0.1-0.1-0.4-0.2-0.9c-0.1-0.4-0.2-0.8-0.2-1.1l-1-4.2L63,68.4z"/>
		<path class="st13" d="M84.8,63.5l-0.1-3.4c0,0,0,0,0.1,0c6.6-0.1,11.6-0.2,14.9-0.2c0,0,0.1,0,0.1,0.1v3.7c0,0.4,0,0.6,0,0.9
			c0,0.1-0.3,0.2-0.8,0.2h-0.1c-2.1,0-4.3,0-6.6-0.1c0,0.1,0,0.2,0,0.4c0,0.2,0,0.3,0,0.4L92.2,66c0,0.3-0.1,0.9-0.1,1.7l4-0.1
			c0.7,0,1.2,0,1.5,0h0.2c0.5,0,0.9,0,1,0c0.2,0,0.2,0.1,0.2,0.3l0,0.1v0.3l0.1,3.3l0,0v0c-2.6,0.1-4.8,0.2-6.3,0.2h-0.6V75l7.1-0.2
			c0.4,0,0.6,0.1,0.7,0.2c0,0.2,0,0.5,0,1l0.1,3.5c0,0.2-0.1,0.3-0.3,0.4l-4.3,0c-0.9,0-2.5,0-5.1,0.1L88.3,80
			C86.8,80,85.7,80,85,80l0,0h0c-0.1-0.1-0.2-0.2-0.2-0.2v-0.5l0.1-13.9L84.8,63.5z"/>
	</g>
</g>
</svg>
