<?xml version="1.0" encoding="utf-8"?>
<!-- Generator: Adobe Illustrator 22.0.1, SVG Export Plug-In . SVG Version: 6.00 Build 0)  -->
<svg version="1.1" id="Layer_1" xmlns="http://www.w3.org/2000/svg" xmlns:xlink="http://www.w3.org/1999/xlink" x="0px" y="0px"
	 viewBox="0 0 150 150" style="enable-background:new 0 0 150 150;" xml:space="preserve">
<style type="text/css">
	.st0{clip-path:url(#SVGID_2_);}
	.st1{fill:#00B5AD;}
	.st2{fill:#8ACECA;}
	.st3{fill:#E0F0EE;}
	.st4{fill:#FFCA07;}
	.st5{fill:#FFE193;}
	.st6{fill:#FFF2D4;}
	.st7{fill:#EAAC21;}
	.st8{fill:#055065;}
	.st9{fill:#A0CD5D;}
	.st10{font-family:'BowlbyOne';}
	.st11{font-size:19.3026px;}
	.st12{font-size:26.676px;}
</style>
<g>
	<g>
		<g>
			<defs>
				<path id="SVGID_1_" d="M130.7,145H16.5V48.4c0-0.9,0.4-1.8,1.2-2.4L71.8,7.4c1.1-0.8,2.6-0.8,3.7,0L129.5,46
					c0.7,0.6,1.2,1.4,1.2,2.4V145z"/>
			</defs>
			<use xlink:href="#SVGID_1_"  style="overflow:visible;fill:#FFFFFF;"/>
			<clipPath id="SVGID_2_">
				<use xlink:href="#SVGID_1_"  style="overflow:visible;"/>
			</clipPath>
			<g class="st0">
				<g>
					<g>
						<path class="st1" d="M119.5,143H57.4v-39.6c0-2.4,2-4.4,4.4-4.4h53.3c2.4,0,4.4,2,4.4,4.4V143z"/>
					</g>
					<g>
						<path class="st2" d="M119.6,145H57.2c-1.9,0-3.4-1.5-3.4-3.4l0,0l0,0h69.3l0,0l0,0C123.1,143.5,121.5,145,119.6,145z"/>
					</g>
					<path class="st3" d="M88.9,101.4c0,0.3-0.2,0.5-0.5,0.5c-0.3,0-0.5-0.2-0.5-0.5c0-0.3,0.2-0.5,0.5-0.5
						C88.7,101,88.9,101.2,88.9,101.4z"/>
					<path class="st3" d="M95.8,143.3H81.1c-0.9,0-1.7-0.8-1.7-1.7l0,0h18.1l0,0C97.5,142.5,96.7,143.3,95.8,143.3z"/>
				</g>
				<rect id="XMLID_2_" x="61" y="103.2" class="st3" width="54.9" height="35.2"/>
			</g>
			<g class="st0">
				<g>
					<path class="st4" d="M53.9,139.9c0-2.8-2.3-5.1-5.1-5.1h17.6c2.8,0,5.1,2.3,5.1,5.1c0,2.8-2.3,5.1-5.1,5.1H48.9
						C51.7,145,53.9,142.7,53.9,139.9z"/>
					<path class="st5" d="M48.9,134.9c2.8,0,5.1,2.3,5.1,5.1c0,2.8-2.3,5.1-5.1,5.1H23.4v-1.3h1.9v-7.5h-1.9v-1.3H48.9z"/>
				</g>
				<path class="st6" d="M25.3,143.7h22.9c2.1,0,3.7-1.7,3.7-3.7l0,0c0-2.1-1.7-3.7-3.7-3.7H25.3V143.7z"/>
				<path class="st7" d="M48.2,136.2c2.1,0,3.7,1.7,3.7,3.7c0,0.2,0,0.4-0.1,0.7c-0.3-1.8-1.8-3.1-3.7-3.1H25.3v-1.3H48.2z"/>
			</g>
			<g class="st0">
				<rect x="36.7" y="113.3" class="st8" width="16.3" height="21.6"/>
				<path class="st8" d="M36.7,133.1c-4.5,0-8.2-3.7-8.2-8.2c0-4.5,3.7-8.2,8.2-8.2c4.5,0,8.2,3.7,8.2,8.2
					C44.8,129.4,41.2,133.1,36.7,133.1z M36.7,119.5c-3,0-5.5,2.4-5.5,5.5c0,3,2.4,5.5,5.5,5.5c3,0,5.5-2.4,5.5-5.5
					C42.1,121.9,39.7,119.5,36.7,119.5z"/>
			</g>
		</g>
	</g>
	<text transform="matrix(1 0 0 1 26.7695 62.415)"><tspan x="0" y="0" class="st9 st10 st11">STAY AT </tspan><tspan x="1.5" y="24" class="st9 st10 st12">HOME</tspan></text>
</g>
</svg>
