<?xml version="1.0" encoding="utf-8"?>
<!-- Generator: Adobe Illustrator 22.0.1, SVG Export Plug-In . SVG Version: 6.00 Build 0)  -->
<svg version="1.1" id="Layer_1" xmlns="http://www.w3.org/2000/svg" xmlns:xlink="http://www.w3.org/1999/xlink" x="0px" y="0px"
	 viewBox="0 0 134.9 83.2" style="enable-background:new 0 0 134.9 83.2;" xml:space="preserve">
<style type="text/css">
	.st0{fill:#055065;}
	.st1{fill:#FFFFFF;}
	.st2{fill:#EAAC21;}
	.st3{fill:#FFE193;}
	.st4{fill:#FFCA07;}
</style>
<g>
	<path class="st0" d="M59.2,40.4h26.1l0.1,1.1l-23.5,1c-0.9,0-1.7,0.4-2.4,1.1c-0.6,0.7-0.9,1.5-0.9,2.4c0.1,1.9,1.7,3.3,3.5,3.3
		l23.9-1l0.1,0.9l-15.9,1.3c-0.9,0.1-1.7,0.5-2.3,1.2c-0.6,0.7-0.9,1.6-0.8,2.5s0.5,1.7,1.2,2.3c0.7,0.6,1.6,0.9,2.5,0.8L87.3,56
		h15.3c2.9,0,5.4-1.5,6.8-3.8h25.5V34.6h-24.3v-0.1c0-2-0.7-3.8-1.9-5.2L96.6,13.6c-0.7-0.9-1.7-1.5-2.8-1.6
		c-1.1-0.1-2.2,0.2-3.1,0.9c-0.9,0.7-1.5,1.7-1.6,2.8c-0.1,1.1,0.2,2.2,0.9,3.1l5.9,7.6h-1v-0.1l-29.7-1.9c-0.1,0-0.2,0-0.2,0
		c-0.8,0-1.6,0.3-2.2,0.8c-0.7,0.6-1.1,1.4-1.2,2.3c-0.1,0.9,0.2,1.8,0.8,2.5c0.6,0.7,1.4,1.1,2.3,1.2l19.9,1.3l0.1,1H59.2
		c-1.9,0-3.4,1.5-3.4,3.4S57.3,40.4,59.2,40.4z"/>
	<g>
		<g>
			<ellipse class="st1" cx="15.3" cy="56.7" rx="9.1" ry="9.1"/>
			<path class="st1" d="M18.3,45.9c-0.4,1.8-2.2,2.9-3.9,2.5c-1.8-0.4-2.9-2.2-2.5-3.9c0.4-1.8,2.2-2.9,3.9-2.5
				C17.6,42.4,18.7,44.1,18.3,45.9z"/>
			<path class="st1" d="M4.7,61.1c-0.3,1.3-1.5,2.1-2.8,1.8c-1.3-0.3-2.1-1.5-1.8-2.8s1.5-2.1,2.8-1.8C4.2,58.6,5,59.9,4.7,61.1z"/>
			<path class="st1" d="M23.2,73.8c-0.3,1.3-1.5,2.1-2.8,1.8c-1.3-0.3-2.1-1.5-1.8-2.8s1.5-2.1,2.8-1.8
				C22.7,71.3,23.5,72.5,23.2,73.8z"/>
			<path class="st1" d="M6.9,66.5c-0.1,0.6-0.7,0.9-1.3,0.8S4.7,66.6,4.8,66c0.1-0.6,0.7-0.9,1.3-0.8C6.7,65.4,7,65.9,6.9,66.5z"/>
			<path class="st1" d="M16.4,75.5c-0.1,0.6-0.7,0.9-1.3,0.8s-0.9-0.7-0.8-1.3c0.1-0.6,0.7-0.9,1.3-0.8
				C16.1,74.3,16.5,74.9,16.4,75.5z"/>
			<path class="st1" d="M24.8,74.9c-0.1,0.6-0.7,0.9-1.3,0.8s-0.9-0.7-0.8-1.3c0.1-0.6,0.7-0.9,1.3-0.8
				C24.5,73.8,24.9,74.4,24.8,74.9z"/>
			<path class="st1" d="M19.7,68c-0.4,1.7-2,2.7-3.7,2.3c-1.7-0.4-2.7-2-2.3-3.7s2-2.7,3.7-2.3C19,64.7,20.1,66.3,19.7,68z"/>
			<path class="st1" d="M32.5,71.3c-0.1,0.6-0.7,0.9-1.3,0.8c-0.6-0.1-0.9-0.7-0.8-1.3c0.1-0.6,0.7-0.9,1.3-0.8
				C32.3,70.1,32.6,70.7,32.5,71.3z"/>
			<path class="st1" d="M31.7,68.8c-0.8,3.6-4.5,5.9-8.1,5.1s-5.9-4.5-5.1-8.1c0.8-3.6,4.5-5.9,8.1-5.1
				C30.3,61.5,32.6,65.2,31.7,68.8z"/>
			<path class="st1" d="M31.5,73.6c-0.3,1.3-1.7,2.2-3,1.9c-1.3-0.3-2.2-1.7-1.9-3s1.7-2.2,3-1.9C31,70.9,31.8,72.3,31.5,73.6z"/>
			<path class="st1" d="M14.7,66.2c-0.5,2.3-2.8,3.8-5.2,3.2c-2.3-0.5-3.8-2.8-3.2-5.2c0.5-2.3,2.8-3.8,5.2-3.2
				C13.8,61.6,15.3,63.9,14.7,66.2z"/>
		</g>
		<g>
			<path class="st2" d="M24.7,63.6l-7.1-26.8c-0.9-3.5,1.2-7.1,4.7-8l46.4-12.3c3.5-0.9,7.1,1.2,8,4.7L83.8,48
				c0.9,3.5-1.2,7.1-4.7,8L32.7,68.2C29.2,69.2,25.6,67.1,24.7,63.6z"/>
			<path class="st3" d="M23.2,58l-7.1-26.8c-0.9-3.5,1.2-7.1,4.7-8l46.4-12.3c3.5-0.9,7.1,1.2,8,4.7l7.1,26.8c0.9,3.5-1.2,7.1-4.7,8
				L31.2,62.7C27.7,63.6,24.1,61.5,23.2,58z"/>
			<path class="st4" d="M22.6,28.1l45.5-12c1-0.3,2,0.3,2.2,1.3l6.8,25.9c0.3,1-0.3,2-1.3,2.2l-45.5,12c-1,0.3-2-0.3-2.2-1.3
				l-6.8-25.9C21,29.3,21.6,28.3,22.6,28.1z"/>
			<path class="st2" d="M23.3,30.2l45.2-11.9c1.1-0.3,2.2,0.4,2.5,1.4l-0.6-2.2c-0.3-1.1-1.4-1.7-2.5-1.4L22.7,28
				c-1.1,0.3-1.7,1.4-1.4,2.5l0.6,2.2C21.6,31.6,22.3,30.5,23.3,30.2z"/>
			<g>
				<path class="st2" d="M32,47.1l-0.4-1.6l2.6-0.7l0.5,1.8c0.3,1,0.5,1.7,0.8,2.1c0.3,0.4,0.7,0.5,1.1,0.4c0.5-0.1,0.7-0.4,0.8-0.8
					c0.1-0.4,0-0.9-0.2-1.7s-0.5-1.4-0.9-1.9s-1-1-1.8-1.4l-1.7-1c-0.8-0.5-1.5-1-2-1.6s-0.9-1.4-1.2-2.3c-0.4-1.5-0.4-2.7,0-3.6
					c0.4-0.9,1.3-1.5,2.7-1.9s2.5-0.2,3.2,0.5s1.3,1.9,1.7,3.5l0.3,1.1L35,38.7l-0.3-1.3c-0.2-0.9-0.5-1.5-0.7-1.8
					c-0.3-0.3-0.6-0.5-1-0.3c-0.4,0.1-0.7,0.3-0.8,0.7c-0.1,0.3-0.1,0.8,0.1,1.4c0.2,0.6,0.4,1,0.7,1.3c0.3,0.3,0.7,0.6,1.4,1
					l1.9,1.2c1,0.6,1.7,1.3,2.3,2c0.6,0.7,1,1.6,1.3,2.6c0.4,1.7,0.5,3,0.1,4s-1.2,1.6-2.7,2s-2.6,0.1-3.4-0.7S32.5,48.8,32,47.1z"
					/>
				<path class="st2" d="M49.6,46.7c-0.4,1-1.3,1.7-2.7,2.1c-1.4,0.4-2.5,0.2-3.4-0.5s-1.6-1.9-2-3.7l-2.2-8.3
					c-0.9-3.3,0-5.3,2.7-6.1c1.4-0.4,2.5-0.2,3.4,0.5c0.8,0.7,1.5,1.8,1.9,3.5l2.2,8.3C49.9,44.3,50,45.7,49.6,46.7z M45.1,46.1
					c0.3,0.4,0.7,0.5,1.2,0.4s0.8-0.4,0.8-0.9s-0.1-1.2-0.3-2.3l-2.2-8.4c-0.2-0.9-0.5-1.5-0.7-1.8s-0.6-0.5-1.1-0.3
					c-0.5,0.1-0.7,0.4-0.8,0.9c-0.1,0.4,0,1.1,0.2,1.9l2.2,8.4C44.5,45,44.8,45.7,45.1,46.1z"/>
				<path class="st2" d="M52.5,47.1l-2.2-18.8l3.6-1l7.5,17.4l-2.6,0.7l-1.3-3.1l-2.8,0.8l0.5,3.3L52.5,47.1z M56.7,40.2l-3.6-8.8
					l0,0l1.3,9.4L56.7,40.2z"/>
				<path class="st2" d="M63.3,44.3l-4.8-18.1l4.2-1.1c1.4-0.4,2.5-0.2,3.2,0.5s1.4,1.9,1.8,3.6l0.1,0.4c0.5,1.8,0.6,3.2,0.3,4.3
					C67.8,35,67,35.7,65.6,36l-1.5,0.4l1.9,7.1L63.3,44.3z M63.6,34.1l0.9-0.2c0.6-0.2,0.9-0.5,1-1s-0.1-1.4-0.4-2.6L65,30
					c-0.3-1.1-0.6-1.8-0.9-2.2c-0.3-0.4-0.7-0.5-1.3-0.4l-1,0.3L63.6,34.1z"/>
			</g>
			<g>
				<path class="st3" d="M31.5,45.7l-0.4-1.6l2.6-0.7l0.5,1.8c0.3,1,0.5,1.7,0.8,2.1c0.3,0.4,0.7,0.5,1.1,0.4
					c0.5-0.1,0.7-0.4,0.8-0.8c0.1-0.4,0-0.9-0.2-1.7s-0.5-1.4-0.9-1.9s-1-1-1.8-1.4l-1.7-1c-0.8-0.5-1.5-1-2-1.6s-0.9-1.4-1.2-2.3
					c-0.4-1.5-0.4-2.7,0-3.6c0.4-0.9,1.3-1.5,2.7-1.9s2.5-0.2,3.2,0.5s1.3,1.9,1.7,3.5l0.3,1.1l-2.5,0.7L34.2,36
					c-0.2-0.9-0.5-1.5-0.7-1.8c-0.3-0.3-0.6-0.5-1-0.3c-0.4,0.1-0.7,0.3-0.8,0.7c-0.1,0.3-0.1,0.8,0.1,1.4c0.2,0.6,0.4,1,0.7,1.3
					c0.3,0.3,0.7,0.6,1.4,1l1.9,1.2c1,0.6,1.7,1.3,2.3,2c0.6,0.7,1,1.6,1.3,2.6c0.4,1.7,0.5,3,0.1,4s-1.2,1.6-2.7,2
					c-1.4,0.4-2.5,0.2-3.3-0.6C32.6,48.7,32,47.5,31.5,45.7z"/>
				<path class="st3" d="M49.1,45.4c-0.4,1-1.3,1.7-2.7,2.1C45,47.9,43.9,47.7,43,47s-1.6-1.9-2-3.7L38.8,35c-0.9-3.3,0-5.3,2.7-6.1
					c1.4-0.4,2.5-0.2,3.4,0.5c0.8,0.7,1.5,1.8,1.9,3.5l2.2,8.3C49.5,42.9,49.5,44.3,49.1,45.4z M44.6,44.7c0.3,0.4,0.7,0.5,1.2,0.4
					s0.8-0.4,0.8-0.9s-0.1-1.2-0.3-2.3l-2.2-8.4c-0.2-0.9-0.5-1.5-0.7-1.8c-0.3-0.4-0.6-0.5-1.1-0.3c-0.5,0.1-0.7,0.4-0.8,0.9
					c-0.1,0.4,0,1.1,0.2,1.9l2.2,8.4C44,43.6,44.3,44.4,44.6,44.7z"/>
				<path class="st3" d="M52,45.8L49.8,27l3.6-1l7.5,17.4l-2.6,0.7L57,41l-2.9,0.8l0.5,3.3L52,45.8z M56.2,38.8L52.6,30l0,0l1.3,9.4
					L56.2,38.8z"/>
				<path class="st3" d="M62.9,42.9l-4.8-18.1l4.2-1.1c1.4-0.4,2.5-0.2,3.2,0.5s1.4,1.9,1.8,3.6l0.1,0.4c0.5,1.8,0.6,3.2,0.3,4.3
					c-0.3,1.1-1.1,1.8-2.5,2.1L63.7,35l1.9,7.1L62.9,42.9z M63.1,32.8l0.9-0.2c0.6-0.2,0.9-0.5,1-1s-0.1-1.4-0.4-2.6l-0.1-0.4
					c-0.3-1.1-0.6-1.8-0.9-2.2s-0.7-0.5-1.3-0.4l-1,0.3L63.1,32.8z"/>
			</g>
		</g>
		<g>
			<path class="st1" d="M67.9,9.9c-0.3,3-3,5.2-6.1,4.9c-3.1-0.3-5.2-3-4.9-6.1s3-5.2,6.1-4.9C66.1,4.1,68.3,6.8,67.9,9.9z"/>
			<path class="st1" d="M80.4,9.1c-0.1,1-1,1.8-2,1.7c-1-0.1-1.8-1-1.7-2s1-1.8,2-1.7C79.8,7.2,80.6,8.1,80.4,9.1z"/>
			<path class="st1" d="M58.5,8c-0.1,1-1,1.8-2,1.7c-1-0.1-1.8-1-1.7-2c0.1-1,1-1.8,2-1.7S58.6,7,58.5,8z"/>
			<path class="st1" d="M74.6,8.7c-0.1,1-1,1.8-2,1.7c-1-0.1-1.8-1-1.7-2s1-1.8,2-1.7C74,6.8,74.7,7.7,74.6,8.7z"/>
			<path class="st1" d="M77.3,11.8c0,0.5-0.5,0.8-0.9,0.7c-0.5,0-0.8-0.5-0.7-0.9c0-0.5,0.5-0.8,0.9-0.7S77.3,11.3,77.3,11.8z"/>
			<path class="st1" d="M53,12.8c0,0.5-0.5,0.8-0.9,0.7c-0.5,0-0.8-0.5-0.7-0.9c0-0.5,0.5-0.8,0.9-0.7C52.7,11.9,53,12.3,53,12.8z"
				/>
			<path class="st1" d="M60.5,0.9c0,0.5-0.5,0.8-0.9,0.7s-0.8-0.5-0.7-0.9c0-0.5,0.5-0.8,0.9-0.7C60.2,0.1,60.5,0.5,60.5,0.9z"/>
			<path class="st1" d="M59.9,14.6c-0.1,1.3-1.3,2.2-2.5,2c-1.3-0.1-2.2-1.3-2-2.5c0.1-1.3,1.3-2.2,2.5-2
				C59.1,12.2,60,13.3,59.9,14.6z"/>
			<circle class="st1" cx="70.5" cy="12.4" r="3.7"/>
		</g>
	</g>
	<path class="st0" d="M33.5,66.3h26.1l0.1,1.1l-23.5,1c-0.9,0-1.7,0.4-2.4,1.1c-0.6,0.7-0.9,1.5-0.9,2.4c0.1,1.9,1.7,3.3,3.5,3.3
		l23.9-1l0.1,0.9l-15.9,1.3c-0.9,0.1-1.7,0.5-2.3,1.2c-0.6,0.7-0.9,1.6-0.8,2.5s0.5,1.7,1.2,2.3c0.7,0.6,1.6,0.9,2.5,0.8l16.5-1.3
		h15.3c2.9,0,5.4-1.5,6.8-3.8h51.2V60.6h-50v-0.1c0-2-0.7-3.8-1.9-5.2L70.8,39.6c-0.7-0.9-1.7-1.5-2.8-1.6c-1.1-0.1-2.2,0.2-3.1,0.9
		c-0.9,0.7-1.5,1.7-1.6,2.8s0.2,2.2,0.9,3.1l5.9,7.6h-1v-0.1l-29.7-1.9c-0.1,0-0.2,0-0.2,0c-0.8,0-1.6,0.3-2.2,0.8
		c-0.7,0.6-1.1,1.4-1.2,2.3c-0.1,0.9,0.2,1.8,0.8,2.5c0.6,0.7,1.4,1.1,2.3,1.2l19.9,1.3l0.1,1H33.5c-1.9,0-3.4,1.5-3.4,3.4
		C30.1,64.8,31.6,66.3,33.5,66.3z"/>
</g>
</svg>
