<?xml version="1.0" encoding="utf-8"?>
<!-- Generator: Adobe Illustrator 22.0.1, SVG Export Plug-In . SVG Version: 6.00 Build 0)  -->
<svg version="1.1" id="Layer_1" xmlns="http://www.w3.org/2000/svg" xmlns:xlink="http://www.w3.org/1999/xlink" x="0px" y="0px"
	 viewBox="0 0 200 100" style="enable-background:new 0 0 200 100;" xml:space="preserve">
<style type="text/css">
	.st0{fill:#055065;}
	.st1{fill:#FFFFFF;}
	.st2{fill:#EAAC21;}
	.st3{fill:#FFE193;}
	.st4{fill:#FFCA07;}
</style>
<g>
	<path class="st0" d="M92.5,48.8h26.1l0.1,1.1l-23.5,1c-0.9,0-1.7,0.4-2.4,1.1c-0.6,0.7-0.9,1.5-0.9,2.4c0.1,1.9,1.7,3.3,3.5,3.3
		l23.9-1l0.1,0.9l-15.9,1.3c-0.9,0.1-1.7,0.5-2.3,1.2c-0.6,0.7-0.9,1.6-0.8,2.5c0.1,0.9,0.5,1.7,1.2,2.3c0.7,0.6,1.6,0.9,2.5,0.8
		l16.5-1.3h15.3c2.9,0,5.4-1.5,6.8-3.8l25.5,0V43l-24.3,0v-0.1c0-2-0.7-3.8-1.9-5.2L129.9,22c-0.7-0.9-1.7-1.5-2.8-1.6
		c-1.1-0.1-2.2,0.2-3.1,0.9c-0.9,0.7-1.5,1.7-1.6,2.8c-0.1,1.1,0.2,2.2,0.9,3.1l5.9,7.6h-1l0-0.1l-29.7-1.9c-0.1,0-0.2,0-0.2,0
		c-0.8,0-1.6,0.3-2.2,0.8c-0.7,0.6-1.1,1.4-1.2,2.3c-0.1,0.9,0.2,1.8,0.8,2.5c0.6,0.7,1.4,1.1,2.3,1.2l19.9,1.3l0.1,1H92.5
		c-1.9,0-3.4,1.5-3.4,3.4C89.1,47.2,90.6,48.8,92.5,48.8z"/>
	<g>
		<g>
			
				<ellipse transform="matrix(0.2532 -0.9674 0.9674 0.2532 -26.6377 95.7374)" class="st1" cx="48.7" cy="65.1" rx="9.1" ry="9.1"/>
			<path class="st1" d="M51.6,54.3c-0.4,1.8-2.2,2.9-3.9,2.5c-1.8-0.4-2.9-2.2-2.5-3.9c0.4-1.8,2.2-2.9,3.9-2.5
				C50.9,50.8,52,52.5,51.6,54.3z"/>
			<path class="st1" d="M38,69.5c-0.3,1.3-1.5,2.1-2.8,1.8c-1.3-0.3-2.1-1.5-1.8-2.8c0.3-1.3,1.5-2.1,2.8-1.8
				C37.5,67,38.3,68.3,38,69.5z"/>
			<path class="st1" d="M56.5,82.2c-0.3,1.3-1.5,2.1-2.8,1.8c-1.3-0.3-2.1-1.5-1.8-2.8c0.3-1.3,1.5-2.1,2.8-1.8
				C56,79.7,56.8,80.9,56.5,82.2z"/>
			<path class="st1" d="M40.2,74.9c-0.1,0.6-0.7,0.9-1.3,0.8c-0.6-0.1-0.9-0.7-0.8-1.3c0.1-0.6,0.7-0.9,1.3-0.8
				C40,73.8,40.3,74.3,40.2,74.9z"/>
			<path class="st1" d="M49.7,83.9c-0.1,0.6-0.7,0.9-1.3,0.8c-0.6-0.1-0.9-0.7-0.8-1.3c0.1-0.6,0.7-0.9,1.3-0.8
				C49.4,82.7,49.8,83.3,49.7,83.9z"/>
			<path class="st1" d="M58.1,83.3c-0.1,0.6-0.7,0.9-1.3,0.8c-0.6-0.1-0.9-0.7-0.8-1.3c0.1-0.6,0.7-0.9,1.3-0.8
				C57.8,82.2,58.2,82.8,58.1,83.3z"/>
			<path class="st1" d="M53,76.4c-0.4,1.7-2,2.7-3.7,2.3c-1.7-0.4-2.7-2-2.3-3.7c0.4-1.7,2-2.7,3.7-2.3C52.3,73.1,53.4,74.7,53,76.4
				z"/>
			<path class="st1" d="M65.8,79.7c-0.1,0.6-0.7,0.9-1.3,0.8c-0.6-0.1-0.9-0.7-0.8-1.3c0.1-0.6,0.7-0.9,1.3-0.8
				C65.6,78.5,65.9,79.1,65.8,79.7z"/>
			<path class="st1" d="M65,77.2c-0.8,3.6-4.5,5.9-8.1,5.1c-3.6-0.8-5.9-4.5-5.1-8.1c0.8-3.6,4.5-5.9,8.1-5.1
				C63.6,69.9,65.9,73.6,65,77.2z"/>
			<path class="st1" d="M64.8,82c-0.3,1.3-1.7,2.2-3,1.9c-1.3-0.3-2.2-1.7-1.9-3c0.3-1.3,1.7-2.2,3-1.9C64.3,79.3,65.1,80.7,64.8,82
				z"/>
			<path class="st1" d="M48,74.6c-0.5,2.3-2.8,3.8-5.2,3.2c-2.3-0.5-3.8-2.8-3.2-5.2c0.5-2.3,2.8-3.8,5.2-3.2
				C47.1,70,48.6,72.3,48,74.6z"/>
		</g>
		<g>
			<path class="st2" d="M58,72l-7.1-26.8c-0.9-3.5,1.2-7.1,4.7-8L102,24.9c3.5-0.9,7.1,1.2,8,4.7l7.1,26.8c0.9,3.5-1.2,7.1-4.7,8
				L66,76.6C62.5,77.6,58.9,75.5,58,72z"/>
			<path class="st3" d="M56.5,66.4l-7.1-26.8c-0.9-3.5,1.2-7.1,4.7-8l46.4-12.3c3.5-0.9,7.1,1.2,8,4.7l7.1,26.8
				c0.9,3.5-1.2,7.1-4.7,8L64.5,71.1C61,72,57.4,69.9,56.5,66.4z"/>
			<path class="st4" d="M55.9,36.5l45.5-12c1-0.3,2,0.3,2.2,1.3l6.8,25.9c0.3,1-0.3,2-1.3,2.2l-45.5,12c-1,0.3-2-0.3-2.2-1.3
				l-6.8-25.9C54.3,37.7,54.9,36.7,55.9,36.5z"/>
			<path class="st2" d="M56.6,38.6l45.2-11.9c1.1-0.3,2.2,0.4,2.5,1.4l-0.6-2.2c-0.3-1.1-1.4-1.7-2.5-1.4L56,36.4
				c-1.1,0.3-1.7,1.4-1.4,2.5l0.6,2.2C54.9,40,55.6,38.9,56.6,38.6z"/>
			<g>
				<path class="st2" d="M65.3,55.5l-0.4-1.6l2.6-0.7L68,55c0.3,1,0.5,1.7,0.8,2.1c0.3,0.4,0.7,0.5,1.1,0.4c0.5-0.1,0.7-0.4,0.8-0.8
					c0.1-0.4,0-0.9-0.2-1.7c-0.2-0.8-0.5-1.4-0.9-1.9c-0.4-0.5-1-1-1.8-1.4l-1.7-1c-0.8-0.5-1.5-1-2-1.6c-0.5-0.6-0.9-1.4-1.2-2.3
					c-0.4-1.5-0.4-2.7,0-3.6c0.4-0.9,1.3-1.5,2.7-1.9c1.4-0.4,2.5-0.2,3.2,0.5c0.7,0.7,1.3,1.9,1.7,3.5l0.3,1.1l-2.5,0.7L68,45.8
					c-0.2-0.9-0.5-1.5-0.7-1.8c-0.3-0.3-0.6-0.5-1-0.3c-0.4,0.1-0.7,0.3-0.8,0.7c-0.1,0.3-0.1,0.8,0.1,1.4c0.2,0.6,0.4,1,0.7,1.3
					c0.3,0.3,0.7,0.6,1.4,1l1.9,1.2c1,0.6,1.7,1.3,2.3,2c0.6,0.7,1,1.6,1.3,2.6c0.4,1.7,0.5,3,0.1,4c-0.4,1-1.2,1.6-2.7,2
					S68,60,67.2,59.2S65.8,57.2,65.3,55.5z"/>
				<path class="st2" d="M82.9,55.1c-0.4,1-1.3,1.7-2.7,2.1c-1.4,0.4-2.5,0.2-3.4-0.5c-0.9-0.7-1.6-1.9-2-3.7l-2.2-8.3
					c-0.9-3.3,0-5.3,2.7-6.1c1.4-0.4,2.5-0.2,3.4,0.5c0.8,0.7,1.5,1.8,1.9,3.5l2.2,8.3C83.2,52.7,83.3,54.1,82.9,55.1z M78.4,54.5
					c0.3,0.4,0.7,0.5,1.2,0.4c0.5-0.1,0.8-0.4,0.8-0.9c0-0.5-0.1-1.2-0.3-2.3l-2.2-8.4c-0.2-0.9-0.5-1.5-0.7-1.8s-0.6-0.5-1.1-0.3
					c-0.5,0.1-0.7,0.4-0.8,0.9c-0.1,0.4,0,1.1,0.2,1.9l2.2,8.4C77.8,53.4,78.1,54.1,78.4,54.5z"/>
				<path class="st2" d="M85.8,55.5l-2.2-18.8l3.6-1l7.5,17.4l-2.6,0.7l-1.3-3.1L88,51.5l0.5,3.3L85.8,55.5z M90,48.6l-3.6-8.8l0,0
					l1.3,9.4L90,48.6z"/>
				<path class="st2" d="M96.6,52.7l-4.8-18.1l4.2-1.1c1.4-0.4,2.5-0.2,3.2,0.5c0.7,0.7,1.4,1.9,1.8,3.6l0.1,0.4
					c0.5,1.8,0.6,3.2,0.3,4.3c-0.3,1.1-1.1,1.8-2.5,2.1l-1.5,0.4l1.9,7.1L96.6,52.7z M96.9,42.5l0.9-0.2c0.6-0.2,0.9-0.5,1-1
					c0.1-0.5-0.1-1.4-0.4-2.6l-0.1-0.3c-0.3-1.1-0.6-1.8-0.9-2.2c-0.3-0.4-0.7-0.5-1.3-0.4l-1,0.3L96.9,42.5z"/>
			</g>
			<g>
				<path class="st3" d="M64.8,54.1l-0.4-1.6l2.6-0.7l0.5,1.8c0.3,1,0.5,1.7,0.8,2.1c0.3,0.4,0.7,0.5,1.1,0.4
					c0.5-0.1,0.7-0.4,0.8-0.8c0.1-0.4,0-0.9-0.2-1.7c-0.2-0.8-0.5-1.4-0.9-1.9c-0.4-0.5-1-1-1.8-1.4l-1.7-1c-0.8-0.5-1.5-1-2-1.6
					c-0.5-0.6-0.9-1.4-1.2-2.3c-0.4-1.5-0.4-2.7,0-3.6c0.4-0.9,1.3-1.5,2.7-1.9s2.5-0.2,3.2,0.5c0.7,0.7,1.3,1.9,1.7,3.5l0.3,1.1
					l-2.5,0.7l-0.3-1.3c-0.2-0.9-0.5-1.5-0.7-1.8c-0.3-0.3-0.6-0.5-1-0.3c-0.4,0.1-0.7,0.3-0.8,0.7c-0.1,0.3-0.1,0.8,0.1,1.4
					c0.2,0.6,0.4,1,0.7,1.3c0.3,0.3,0.7,0.6,1.4,1l1.9,1.2c1,0.6,1.7,1.3,2.3,2c0.6,0.7,1,1.6,1.3,2.6c0.4,1.7,0.5,3,0.1,4
					c-0.4,1-1.2,1.6-2.7,2c-1.4,0.4-2.5,0.2-3.3-0.6C65.9,57.1,65.3,55.9,64.8,54.1z"/>
				<path class="st3" d="M82.4,53.8c-0.4,1-1.3,1.7-2.7,2.1c-1.4,0.4-2.5,0.2-3.4-0.5c-0.9-0.7-1.6-1.9-2-3.7l-2.2-8.3
					c-0.9-3.3,0-5.3,2.7-6.1c1.4-0.4,2.5-0.2,3.4,0.5c0.8,0.7,1.5,1.8,1.9,3.5l2.2,8.3C82.8,51.3,82.8,52.7,82.4,53.8z M77.9,53.1
					c0.3,0.4,0.7,0.5,1.2,0.4c0.5-0.1,0.8-0.4,0.8-0.9c0-0.5-0.1-1.2-0.3-2.3l-2.2-8.4c-0.2-0.9-0.5-1.5-0.7-1.8
					c-0.3-0.4-0.6-0.5-1.1-0.3c-0.5,0.1-0.7,0.4-0.8,0.9c-0.1,0.4,0,1.1,0.2,1.9l2.2,8.4C77.3,52,77.6,52.8,77.9,53.1z"/>
				<path class="st3" d="M85.3,54.2l-2.2-18.8l3.6-1l7.5,17.4l-2.6,0.7l-1.3-3.1l-2.9,0.8l0.5,3.3L85.3,54.2z M89.5,47.2l-3.6-8.8
					l0,0l1.3,9.4L89.5,47.2z"/>
				<path class="st3" d="M96.2,51.3l-4.8-18.1l4.2-1.1c1.4-0.4,2.5-0.2,3.2,0.5c0.7,0.7,1.4,1.9,1.8,3.6l0.1,0.4
					c0.5,1.8,0.6,3.2,0.3,4.3c-0.3,1.1-1.1,1.8-2.5,2.1L97,43.4l1.9,7.1L96.2,51.3z M96.4,41.2l0.9-0.2c0.6-0.2,0.9-0.5,1-1
					c0.1-0.5-0.1-1.4-0.4-2.6L97.8,37c-0.3-1.1-0.6-1.8-0.9-2.2c-0.3-0.4-0.7-0.5-1.3-0.4l-1,0.3L96.4,41.2z"/>
			</g>
		</g>
		<g>
			<path class="st1" d="M101.2,18.3c-0.3,3-3,5.2-6.1,4.9s-5.2-3-4.9-6.1s3-5.2,6.1-4.9C99.4,12.5,101.6,15.2,101.2,18.3z"/>
			<path class="st1" d="M113.7,17.5c-0.1,1-1,1.8-2,1.7c-1-0.1-1.8-1-1.7-2s1-1.8,2-1.7C113.1,15.6,113.9,16.5,113.7,17.5z"/>
			<path class="st1" d="M91.8,16.4c-0.1,1-1,1.8-2,1.7c-1-0.1-1.8-1-1.7-2c0.1-1,1-1.8,2-1.7S91.9,15.4,91.8,16.4z"/>
			<path class="st1" d="M107.9,17.1c-0.1,1-1,1.8-2,1.7c-1-0.1-1.8-1-1.7-2s1-1.8,2-1.7C107.3,15.2,108,16.1,107.9,17.1z"/>
			<path class="st1" d="M110.6,20.2c0,0.5-0.5,0.8-0.9,0.7c-0.5,0-0.8-0.5-0.7-0.9c0-0.5,0.5-0.8,0.9-0.7S110.6,19.7,110.6,20.2z"/>
			<path class="st1" d="M86.3,21.2c0,0.5-0.5,0.8-0.9,0.7c-0.5,0-0.8-0.5-0.7-0.9c0-0.5,0.5-0.8,0.9-0.7
				C86,20.3,86.3,20.7,86.3,21.2z"/>
			<path class="st1" d="M93.8,9.3c0,0.5-0.5,0.8-0.9,0.7s-0.8-0.5-0.7-0.9c0-0.5,0.5-0.8,0.9-0.7C93.5,8.5,93.8,8.9,93.8,9.3z"/>
			<path class="st1" d="M93.2,23c-0.1,1.3-1.3,2.2-2.5,2c-1.3-0.1-2.2-1.3-2-2.5c0.1-1.3,1.3-2.2,2.5-2C92.4,20.6,93.3,21.7,93.2,23
				z"/>
			<circle class="st1" cx="103.8" cy="20.8" r="3.7"/>
		</g>
	</g>
	<path class="st0" d="M66.8,74.7h26.1l0.1,1.1l-23.5,1c-0.9,0-1.7,0.4-2.4,1.1c-0.6,0.7-0.9,1.5-0.9,2.4c0.1,1.9,1.7,3.3,3.5,3.3
		l23.9-1l0.1,0.9l-15.9,1.3c-0.9,0.1-1.7,0.5-2.3,1.2c-0.6,0.7-0.9,1.6-0.8,2.5c0.1,0.9,0.5,1.7,1.2,2.3c0.7,0.6,1.6,0.9,2.5,0.8
		l16.5-1.3h15.3c2.9,0,5.4-1.5,6.8-3.8l51.2,0V69l-50,0v-0.1c0-2-0.7-3.8-1.9-5.2L104.1,48c-0.7-0.9-1.7-1.5-2.8-1.6
		c-1.1-0.1-2.2,0.2-3.1,0.9c-0.9,0.7-1.5,1.7-1.6,2.8c-0.1,1.1,0.2,2.2,0.9,3.1l5.9,7.6h-1l0-0.1l-29.7-1.9c-0.1,0-0.2,0-0.2,0
		c-0.8,0-1.6,0.3-2.2,0.8c-0.7,0.6-1.1,1.4-1.2,2.3c-0.1,0.9,0.2,1.8,0.8,2.5c0.6,0.7,1.4,1.1,2.3,1.2l19.9,1.3l0.1,1H66.8
		c-1.9,0-3.4,1.5-3.4,3.4C63.4,73.2,64.9,74.7,66.8,74.7z"/>
</g>
</svg>
