<?xml version="1.0" encoding="utf-8"?>
<!-- Generator: Adobe Illustrator 22.0.1, SVG Export Plug-In . SVG Version: 6.00 Build 0)  -->
<svg version="1.1" id="Layer_1" xmlns="http://www.w3.org/2000/svg" xmlns:xlink="http://www.w3.org/1999/xlink" x="0px" y="0px"
	 viewBox="0 0 145.8 158.1" style="enable-background:new 0 0 145.8 158.1;" xml:space="preserve">
<style type="text/css">
	.st0{fill:#00B5AD;}
	.st1{fill:#A0CD5D;}
	.st2{fill:#D0E5B0;}
</style>
<g>
	<ellipse class="st0" cx="69" cy="69" rx="69" ry="69"/>
	<path class="st1" d="M105.8,10.7c-5.5-3.5-11.5-6.2-17.9-8c-0.4,0.1-0.8,0.2-1.1,0.2c-1.3,0-2.6-0.3-4-0.1C80,3.1,77.9,2.6,75.1,2
		c-2.6-0.6-5-1.4-7.8-1C66.2,1.1,65,1.5,64,1.8c-1.3,0.3-2.4,0.3-3.7,0.5c-1.1,0.2-1.9,0.4-2.9,0.7c-0.7,0.2-2.1,0.8-2.8,0.8
		c0.2-0.7,1.1-1.5,1.6-1.9c-1.8,0.3-3.2,1.6-4.8,1.9c-1,0.2-1.8,0.1-2.9,0.4c-1.2,0.4-2.4,1.3-3.6,1.5c1-0.5,1.9-1.2,2.5-2.2
		c-10.7,3.6-20.3,9.7-28,17.6c1-0.2,3.2-1.7,3.8-2.4c1.5,0.7-0.4,2.8-0.7,3.8c-0.2,0.8,0,1.1-0.6,1.7c-0.3,0.4-1,0.3-1.4,0.7
		c0.2-0.2,0.4,0.2,0.9,0.1c0.6-0.2,0.8-0.4,1.4-0.7c0.9-0.3,1.3-0.4,2,0.2c0.4-1,0-2.2,0.7-3c1-1.2,3.6-1.1,4.2-2.5
		c-0.5,1.1-1.6,2.2-2.4,3.2c-1,1.3-0.9,2.5-1.4,4c-0.4,1.5-1.6,2.3-2.4,3.6c-2.3-1-0.7-2.9,0-4.4c-0.8,0-1.6,0.5-2.2,0.8
		c0-0.3-0.2-0.5-0.2-0.8c-0.8,0.2-2.1,0.5-2.1-0.8c-1.3-0.3-4.8,2.9-4.4,4.3c0.3,0,0.6,0.3,0.9,0.3c0.3,0.9-0.7,1.8-1.2,2.4
		c-0.3,0.3-0.6,0.6-0.8,0.9c-0.3,0.4-0.4,1.3-0.7,1.8c-1.1,1.7-1.9,0.4-1.8-0.9c0-1.2,0.2-1.3-0.2-1.6C4,42.5,0,55.2,0,68.8
		c0,16.4,5.7,31.4,15.3,43.3c-0.3-0.7-0.5-1.4-0.8-1.9c-0.8-1.7-1.5-3.3-2.6-4.7c-0.8-1.1-1.8-2.7-2.3-3.9c-0.5-1.2-0.2-3.2-1.3-4.1
		c0.8-1,0.4-1.1,0.2-2c-0.1-0.4-0.3-0.5-0.3-1c0-0.6,0.4-0.8,0.4-1.2c0.1-1.9-1.3-4.4-2-6.2c-0.5-1.2-1.3-2.2-1.5-3.5
		c-0.2-1.4,0-3.1,0.2-4.4c0.7-4,1.8-7.6,3.4-11.3c0.8-1.8,0.8-3.3,1.4-5.1c0.4-1.2,1.4-2,1.4-3.4c-1.5-0.3-2.6,2.3-4,1.5
		c-1-0.6-0.3-2.7-0.4-3.7c-0.1-1.3-0.5-2.7-0.6-4c-0.1-1.1,0.6-1.8,0.7-2.8c0.1-0.9-0.1-1.5,0.3-2.5c0.6-1.9,0.8-3.4,0.9-5.4
		c0.1-1.4,0.5-2.7,1.5-3.7c-0.5,1.6-0.2,3.9-0.5,5.6c-0.4,2-0.2,4.1-0.7,6c-0.7,2.6-0.6,5-0.9,7.5c1.9-0.7,3.1-1.9,4.7-3.2
		c0.4-0.3,0.9-0.4,1.2-0.9c0.3-0.4,0.3-1.1,0.6-1.3c0.5-0.4,1.7-0.6,2.3-0.8c1-0.4,1.9-0.8,2.5-1.9c0.3-0.6,0.3-1.3,0.5-1.8
		c0.4-0.8,1.4-0.9,1.5-2c0-0.2-0.3-0.8-0.5-1.2c-0.3-0.5-1.1-0.2-1.4-0.5c-0.6-0.8,0.3-2,0.5-2.8c-0.6,0.8-2.1,2.4-3.2,2.2
		c-0.2-1.1-0.5-1.2-0.3-2.3c-1.6-0.6,0.1-4.6,0.6-5.5c1.1,1.2,0.1,3.4,1.1,4.5c1.3,1.5,2.2,0.1,3.1-0.6c0,0.5,0,1.7,0.3,2
		s1.8,0.5,2.2,0.6c0.7,0.2,1.7,0.8,2.5,0.7c0.9-0.1,1.3-1.2,2.2-1c0.1,0.2,0.2,0.3,0.3,0.5c1.6,0.9,0.3,1.6,0.6,2.9
		c0.5,0,1,0,1.5,0.2c-0.1,0.4-0.4,0.8-0.7,1.1c1.1,0,1.7,1.1,2.3,1.9c0.9,1.1,0.7,2.1,0.9,3.6c0.4,3.6,1.6,6.9,2.3,10.3
		c0.3,1.4,0.5,2.5,1.7,3.6c0.7-0.5,0.9-1.4,1.7-1.6c-0.1-0.7,0.9-2.6,1.1-3.5c0.4-1.4,0.7-2.3,0.7-3.9c0-2.7,2.4-3.7,4.5-4.9
		c1.6-0.9,2.5-1.7,3.5-3.2c0.6-0.8,1-1.1,2-1.5c1.3-0.4,4.4,0.3,5.2-0.7c-0.1,0.6,1.5,0.9,1.9,1.3c0.8,0.8,0.6,1.6,1,2.6
		c0.3,0.8,1,1.3,1.1,2.2c0.2,1.1-0.3,1.8-0.5,2.8c1.3,0.2,2.8-0.9,3.9-0.5c1.3,0.5,1.6,2,1.7,3.3c0.1,1.4,0.3,2.7,0.3,3.9
		c0,1.4-0.5,2.6-0.6,3.8c1,1.1,1.9,1.2,2.5,2.6c0.7,1.4,0.5,2.6,1.1,3.9c0.5,1.4,1.8,1.5,2.8,2.4c0.6,0.5,1,0.9,1.6,1.4
		c0.4,0.3,0.9,0.4,1.3,0.9c0.6-1-1-2-1.2-3c-0.3-1.2,0.2-2.3-0.6-3.4c-0.9-1.4-2.9-2-3.9-3.2c-0.9-1-1.1-1.7-1.1-3
		c-0.3,0-0.5-0.2-0.8-0.2c-0.1-1.2-0.1-5.6,1.4-6c0.9-0.2,1.5,0.7,1.6,1.5c1.7,0,1.2,0.1,2.1,1.3c0.6,0.9,0.9,1.2,1.3,2.4
		c0.6-0.2,1-0.8,1.5-0.2c0.5,0.6-0.4,1.3,0,1.8c0.6,0.9,2.3-1.8,2.9-2.3c1.6-1.2,2.9-1.3,2.9-3.6c0-0.9,0.2-2.1,0-2.9
		c-0.3-1.1-1-1.2-2-2c-1.8-1.5-2.8-2.5-3.1-4.7c-0.1-1.4,2.5-3,4-2.8c3.2,0.5,0.4,2.6,0.4,4c0.9,0.2,1.2-0.6,2.1-0.7
		c0.7-1.4-0.5-2.7,1.4-3.6c0.8-0.4,1.7-0.2,2.6-0.5s1.4-1.1,2.1-1.7c0.9-0.6,1.8-0.9,2.5-1.7c1-1.1,1.6-2.5,2.3-3.8
		c0.9-1.9,1.1-3.6,0.5-5.7c-0.2-0.8-0.3-2.5-1.1-3.1c-0.7-0.5-1.6,0.2-1.9-0.9c-0.1-0.1-0.3-0.4-0.1-0.8c0.8-0.1,1.4-0.6,1.2-1.4
		c-0.7,0-1.6-0.1-2.2,0.2c-0.4-0.7-1.5-1.3-1.3-2.3c0.2-0.8,1.3-0.8,1.3-2c0.7,0.5,0.3,1.3,1,1.6c1,0.5,1.2-0.5,2.1-0.7
		c1.2-0.2,1.3,0.5,1.7,1.3c0.6,1.2,0.5,0.7,1.4,1.4c0.8,0.6,0.8,0.4,0.8,1.7c0,0.8-0.3,1.9,0.6,2.2c1.1,0.4,2.4-1.5,2.5-2.4
		c0.1-1.5-1.2-1.2-2.2-2c-0.6-0.4-0.6,0-0.8-0.8c0.1,0.2-0.1-1.9-0.2-1.6c0.3-1.1,1.5-1.2,1-2.6c2.2-0.5,3.3-0.7,3.2-3.2
		c0-0.4,0-1.7-0.1-2.1c-0.2-0.9-1.1-1.3-1.3-2.3c0.5,0.6,1.3,0.7,1.8,1.2c0.4,0.4,0.3,0.7,0.5,1.1c0.6,0.8,1,1.4,2,1.9
		c-0.3-0.6-1-1.1-1.4-1.8c-0.3-0.6-0.2-1.5-0.6-2.1c-0.4-0.5-3.5-2.5-4.1-2.6c-1.1-0.1-1.2,0.8-2.4,0.4c-1.2-0.4-2.3-1.5-1.5-2.8
		c0.7-1,3.5-0.3,4.9-0.3c-0.1-0.5-0.5-0.9-0.8-1.4c1.6,0.4,4.1,2.2,5,3.6c0.8,1.2,0.9,1.8,2.2,2.4c0.8,0.4,1.8,0.5,2.4,1.1
		c-0.7-0.9-1.9-1.6-2.5-2.5c-0.4-0.6-0.4-1.3-0.8-1.8C103.9,10.8,104.9,10.9,105.8,10.7z"/>
	<path class="st1" d="M104,20c-0.1-0.1-0.2-0.1-0.4,0c0.2,0.3,0.5,0.7,0.7,1.1c0.2,0.5,0,0.3-0.1,0.6c-0.2,0.4-0.4,0.9,0.3,1
		c0.1-0.2,0.1-0.4,0.1-0.6c0.4,0,0.7-0.3,1.1-0.2c0.3,0.1,0.4,0.4,0.7,0.3c0.2-0.1,0.3-0.6,0.2-0.7c-0.1-0.6-1.1-0.7-1.6-0.9
		C104.5,20.4,104.4,20.2,104,20z"/>
	<path class="st1" d="M105.4,23.7c-0.6,0.4,0.6,1.6,0.8,2.1c0.1,0.3,0.1,0.8,0.1,1.2c-0.1,0.7-0.2,0.2-0.6,0.2
		c-0.3,0-0.7,0.4-0.8,0.7c-0.1,0.3,0.2,0.7,0.1,0.9s-0.3,0.1-0.5,0.2c-0.1,0.1-0.2,0.4-0.4,0.4c-0.3,0.1-0.8-0.1-1.1,0
		c-0.9,0-2.2,0.7-2.2,1.7c0.8-0.2,2,0,2.6-0.5c0.3-0.3,0.7-0.8,1.3-0.5c0.3,0.2,0.5,0.8,0.8,1.1c0.3-0.3-0.2-0.6-0.2-1
		c0.1-0.3,0.5-0.4,0.8-0.3c0.3,0.2,0.2,0.4,0.7,0.4c0.6,0,0.5-0.4,0.6-0.8c0.2-0.5,0.2-0.1,0.6-0.3c0.5-0.2,0.3-0.6,0.1-1
		s-0.6-0.6-0.6-1.1c0-0.4,0.2-0.8,0.1-1.3C107.3,24.9,106.5,23.9,105.4,23.7z"/>
	<path class="st1" d="M101.5,32.1c-0.4-0.1-0.4,0.6-0.4,0.9c0,0,0.2,0.3,0.2,0.4c0.1,0.2-0.1,0.4,0.1,0.6c0.4,0.5,0.8-0.1,0.9-0.6
		c0.1-0.2,0-0.5,0-0.7s0.3-0.4,0.2-0.6C102.3,32,101.9,31.9,101.5,32.1z"/>
	<path class="st1" d="M94,42.4c-0.9,0.4-1.2,1.7-0.9,2.5c0.1,0.2,0.1,0.4,0.2,0.6s0.3,0.2,0.4,0.4c0.2,0.3,0.2,0.4,0.2,0.8
		c0-0.5,0.2-0.9,0.4-1.3c0.3-0.6,0.1-0.4,0-1S95.3,42.3,94,42.4z"/>
	<path class="st1" d="M95.4,50.9c-1.3,0.1,0.1,2.5-0.2,3.1c-0.2,0.5-0.5,0.8-0.6,1.3c-0.1,0.6-0.1,1.3,0.4,1.7
		c0.4-0.5,0.8,0.5,0.9,0.8c0.1,0.6-0.1,1.2,0.8,1.2c0-0.3,0-0.7,0-1s0-0.4,0.1-0.6c0-0.1,0.2-0.2,0.3-0.3c0.1-0.5-0.2-0.3-0.4-0.7
		c-0.1-0.2-0.1-0.7-0.1-0.9c0.1-0.3,0.4-0.7,0.6-1c0.2-0.5,0.2-1.1,0.1-1.7C96.9,52.1,96.3,51,95.4,50.9z"/>
	<path class="st1" d="M91.2,68c-0.9-0.2-1.2,1.7-1.6,2.2c-0.3,0.3-0.5,0.3-0.9,0.4s-0.7,0.3-1,0.6c-0.6,0.4-0.6,0.5-0.8,1.2
		c-0.1,0.5-0.4,0.6-0.8,0.9c-0.7,0.5-1.4,0.1-2.1,0.4c-0.8,0.4-0.2,0.8-0.2,1.3c0,0.4-0.6,0.3-1,0.3c-0.5,0.1-0.6,0-1-0.1
		c-0.8-0.2-1.2,0.4-1.1,1.2c0.1,0.4,0.4,0.6,0.4,1s-0.2,0.8-0.2,1.2c0,0.6,0.1,1.5,0.8,1.7c0.1,0,0.5,0,0.6,0c0.3,0.2,0,0.7,0,1
		c0,0.6,0.3,0.9,0.7,1.2c0.3,0.2,0.2,0.2,0.6,0.2c0.3,0,0.4-0.2,0.7-0.1c0.2,0,0.3,0.2,0.5,0.3c1,0.5,1.7,0.1,2.7,0.1
		c0.8,0,1,0.6,1.7,0.7c0.6,0.1,1.3,0,1.2-0.7c0.3,0.1,0.8,0.5,1,0.1c0.3-0.4-0.4-1-0.4-1.4c0-0.3,0.3-0.7,0.3-1s0-0.7,0-1
		c0.5-0.3,1.3-0.1,1.6-0.7c0.2-0.4-0.1-1.2-0.1-1.6c0-0.3,0-0.7,0.3-0.9c0.3-0.2,1.1,0.2,1.2-0.3c0.1-0.4-0.9-0.6-1.1-1
		s0-0.7,0.1-1.1c0.1-0.8-0.8-1.3-0.2-2.2c0.2-0.3,1.3-0.2,1.2-0.6c-0.1-0.3-0.6-0.1-0.6-0.6c0.5-0.1,1-0.3,1.6-0.4
		c-0.1-0.8-1.5-0.4-2-0.8c-0.3-0.3-0.4-0.7-0.8-1C91.9,68.1,91.6,68.2,91.2,68z"/>
	<path class="st1" d="M76.1,86.2c-0.3-0.2,0.4-2.1,0.5-2.5c0-0.2,0-0.3-0.1-0.5s-0.3-0.3-0.4-0.4c-0.1-0.3,0.1-0.6,0-0.8
		c-0.2-0.6-1.1-0.5-1.5-0.8s-0.6-0.7-0.9-1.1c-0.2-0.3-0.7-0.6-0.8-0.9c-0.2-0.7,0.7-1.2-0.3-1.7c-0.3-0.2-0.5-0.1-0.8-0.3
		c-0.3-0.2-0.5-0.5-0.8-0.6c-0.6-0.4-1.3-1-2-1.3c-0.3-0.1-0.6-0.1-0.9-0.2c-0.2-0.1-0.4-0.4-0.5-0.6c-0.3-0.3-0.7-0.5-1.1-0.8
		c-0.5-0.4-0.9-0.7-1.4-1c-0.8-0.5-0.5-1.5-1.3-2c-1.2-0.8-2.7,0.2-4-0.3c0.5,0.4,0.6,1.3,1.1,1.7c0.4,0.3,0.9,0.2,1.2,0.6
		c0.4,0.5,0.4,1,1,1.5c0.5,0.4,0.6,0.7,1,1.1c0.4,0.5,0.7,0.2,1.2,0.5c0.3,0.2,0.4,0.6,0.5,0.9c0.1,0.5,0.3,0.7,0.5,1.1
		c0.4,0.9,0.5,1.6,1.4,2.1c1.1,0.7,0.9,1.6,1.6,2.6c0.4,0.6,0.9,1.2,1.4,1.7s1.3,0.8,1.9,1.3c0.5,0.4,0.8,0.6,1.2,1.1
		c0.2,0.3,0.5,0.6,0.9,0.6c0-0.4,0-0.8,0-1.2C75.3,85.8,75.6,86.2,76.1,86.2z"/>
	<path class="st1" d="M76.7,87.1c-0.5,0-1.1,0-0.9,0.7c-0.3,0-0.5,0.1-0.8,0.2c0.3,0.2,1,0.3,1.4,0.3c0.2,0,0.5-0.3,0.5,0.1
		c0,0.2-0.2,0.4-0.3,0.5c0.3,0,0.5,0.1,0.8,0.1c0.5,0.1,0.8,0.1,1.3,0c0.4,0,0.8,0.1,1.2,0.2c0.5,0.1,1.1,0.5,1.6,0.5
		c0.4,0,0.7-0.2,1.1-0.2s0.9,0.1,1.3,0.1c0.5,0,1-0.1,1.5,0c0.5,0,0.8,0.3,1.3,0.4c0.7,0.2,1.9,0.3,2.7,0.2
		c-0.3-0.5-0.9-0.4-1.2-0.8c-0.3-0.3-0.1-0.5-0.7-0.4c-0.3,0-1.1,0.3-1.3-0.2c-0.2-0.6,0.7-0.4,0.7-0.8c-0.3-0.1-0.6,0-1,0
		c-0.4-0.1-0.6-0.4-1.1-0.4c-1-0.1-2-0.4-3-0.1c-1.2,0.4-2.3,0.4-3.5-0.1c-0.3-0.2-0.6-0.4-1-0.3C77,87,76.8,87.1,76.7,87.1z"/>
	<path class="st1" d="M94.8,85.4c-0.1-0.7,0.7-3.3-0.5-3.2c-0.1,0.4-0.3,0.5-0.6,0.2c-0.3-0.4,0-0.8,0.2-1.1c0.4-0.6,0.9-1.1,1-1.9
		c0-0.4,0-0.8,0-1.1c0-0.5,0.2-1.1,0.3-1.6c0.2-0.9,0.7-1.2,1.5-1.1c0.5,0,1-0.1,1.5,0c0.5,0,0.9,0.2,1.5,0.2
		c1.1-0.2,2.3-0.2,2.7-1.4c0.2,1.2-1.2,2.6-2.3,2.8c-1,0.1-3.1-0.9-3.9,0.2c-0.5,0.6-0.3,1.7,0.4,2c0.8,0.5,1.2-0.4,2-0.7
		c0.2-0.1,1.9-0.6,1.9-0.2c0,0.3-1.2,0.7-1.4,0.8c-0.3,0.1-0.7,0.4-1,0.7c-0.3,0.4-0.2,0.3,0,0.8c0.1,0.4,0.2,0.8,0.3,1.2
		c0.1,0.4,0.3,0.5,0.4,0.9s0,0.9-0.1,1.2c-0.5-0.2-0.6,0.1-1,0.2c0-0.5-0.2-1.3-0.4-1.8c-0.2-0.4-0.5-1.5-1.1-1.3
		c-0.2,0.8,0,1.8-0.1,2.6c-0.1,0.6-0.2,1.3-0.1,1.8C95.6,85.9,95.1,85.8,94.8,85.4z"/>
	<path class="st1" d="M91.2,89.6c-0.3,0.6,0.7,1,1.2,0.7c-0.2-0.2-1.1-0.7-1.2-0.5"/>
	<path class="st1" d="M94,90.8c0.4,0.1,0.8,0.2,1.2,0.5c0.3,0.2,0.4,0.7,0.8,0.6C96.1,91.2,94.3,90.4,94,90.8z"/>
	<path class="st1" d="M95.2,89.6c0.5,0.4,1.3,0.4,1.9,0.4s1.2,0.2,1.8,0.1c0.7-0.1,1-0.7,1.5-0.9c0.4-0.2,0.7-0.2,0.9-0.8
		c-0.6,0-1.2,0.4-1.8,0.5c-0.7,0.1-1.3,0.4-2,0.4c-0.5,0-1.1-0.3-1.6-0.3C95.7,89,94.9,89.2,95.2,89.6z"/>
	<path class="st1" d="M99.5,91.3c0.4,0,0.6-0.4,0.8-0.6c0.4-0.4,0.9-0.8,1.3-1.1c0.6-0.4,1.3-0.4,1.8-0.9c-0.2,0.6-1.3,1.2-1.8,1.6
		c-0.3,0.3-0.6,0.8-0.9,1s-0.6,0.2-0.9,0.4c-0.3,0.2-0.6,0.6-1,0.7C98.8,91.8,99.1,91.6,99.5,91.3z"/>
	<path class="st1" d="M125.9,87.9c-0.8-0.7-1.1-1.4-1.3-2.4c-0.1-0.6-1.4-1.2-1.1-1.8c0.2-0.5,1.1-0.1,0.6-0.9
		c-0.3-0.4-0.6-0.5-0.8-0.9c-0.1-0.2-0.2-0.5-0.3-0.7c-0.1-0.4-0.1-0.8-0.4-1.1c-0.5-0.5-1.5-0.7-2.2-0.9c-1.5-0.5-3-1.4-4.6-1.1
		c-0.8,0.2-1,0.9-1.5,1.5c-0.2,0.2-1.2,1.2-1.4,1.2c-0.3,0-0.4-0.9-0.4-1.2c-0.1-0.4-0.2-0.9-0.1-1.4c0.1-0.4,0.3-0.5,0.1-0.8
		c-0.1-0.2-0.7-0.2-0.9-0.3c-0.4-0.1-1-0.2-1.2,0c-0.3,0.3-0.1,0.5-0.6,0.6c-0.4,0.1-0.7,0.1-1.1,0c0.1,1,1,0.4,1.3,1.1
		c0.1,0.2-0.1,0.5,0.1,0.6c0.1,0.1,0.6,0.3,0.7,0.3c0.4,0,0.4-0.3,0.7-0.3c0.3-0.1,0.6,0,0.5,0.4c-0.2,0.6-1.1,0.2-1.5,0.3
		c-1,0.4,0.7,0.8,0.8,1.1c0.1,0.2-0.5,0.9-0.2,1.1c0.5,0.5,1-0.6,1-1c0.6,0.1,1,0.7,1.5,0.9c1.1,0.3,1.7,0.2,2.6,1.1
		c0.7,0.7,0.6,1.7,0,2.3c-0.3,0.4-0.4,0.9-0.7,1.3c-0.1,0.1-0.8,0.6-0.1,0.7c0.2,0,1-0.5,1.3-0.6s0.6-0.3,1-0.3
		c1.1,0.1,0.3,1.6,1.5,1.2c0.9-0.3,2-0.8,2.3-1.8c0.2-0.7,0.3-1.2,1.2-0.8c0.3,0.1,0.8,0.7,1,1c0.2,0.4,0.1,1,0.4,1.4
		C124.4,88,125.3,88,125.9,87.9z"/>
	<path class="st1" d="M108.5,81.7c-0.6-0.2-1.2-0.7-1.9-0.8c-0.7-0.1-1.7,0.1-0.7,0.6c0.7,0.3,1.4,0.1,2,0.4
		c0.2,0.1,0.7,0.4,0.8,0.4C109.1,82.3,108.8,81.9,108.5,81.7z"/>
	<path class="st1" d="M106.3,73.5c-0.5-0.1-1.1,0.9-1.1,1.4c0,0.2,0.2,0.4,0.3,0.6c0.1,0.3,0,0.5-0.1,0.8c0,0.3-0.2,1.2,0,1.4
		c0.6,0.4,0.5-0.7,0.5-0.9c0.2-1,0.6,0.1,1.1,0.1c-0.1-0.5-0.7-0.7-0.8-1.2c0-0.6,0.6-0.5,0.7-1.1c-0.4-0.1-1.1,0.8-1.1,0.1
		c0-0.4,0.4-0.9,0.7-0.9C106.5,73.6,106.5,73.5,106.3,73.5z"/>
	<path class="st1" d="M115.6,98.5c-0.3,0.1-0.9-0.3-1.2-0.5c-0.6-0.4-1.1-0.7-1.6-0.9c-0.3-0.1-0.8-0.5-1-0.8
		c-0.4-0.5,0-0.9,0.3-1.4c0.2-0.2,0.4-0.3,0.5-0.5c0.2-0.2,0.3-0.5,0.5-0.8c0.2-0.2,0.9-0.8,0.8-1.2c-0.2-0.9-2.1,0.1-2.4,0
		c-0.6-0.1-2.3-1.6-2.7-0.5c-0.1,0.4,0.1,0.5-0.3,0.8c-0.2,0.1-0.4,0-0.6,0.1c-0.4,0.1-0.5,0.4-0.7,0.8c-0.4,0.6-0.8,1.2-1.2,1.8
		c-0.2,0.4-0.3,0.6-0.7,0.8c-0.8,0.5-1.1-0.3-2-0.5c-0.5-0.2-0.6,0-1,0.4c-0.6,0.6-1.2,1.1-1.8,1.7c-0.4,0.5-0.6,0.8-0.8,1.4
		c-0.1,0.3-0.1,0.4-0.3,0.5c-0.3,0.1-0.7-0.2-1,0.2c-0.2,0.2-0.2,0.7-0.2,0.9c-0.6-0.1-0.6-1-1.4-0.6c-0.7,0.3-0.7,1.5-1,2.1
		c-0.4,1-0.8,1.3-1.9,1.6c-0.9,0.3-1.5,0.8-2.4,1.2c-0.8,0.3-1.3,0.2-2.1,0.3c-1,0.1-2.5,0.7-3.2,1.4c-0.7,0.8-1,1.9-1.4,2.8
		c-0.1,0.3-0.3,0.7-0.2,0.9c0,0.2,0.1,0.3,0.2,0.5c0.1,0.6-0.4,1-0.4,1.6c0.1,0.6,0.9,1.3,1.2,1.8c0.3,0.5,0.7,1.1,0.9,1.6
		c0.1,0.3,0.2,1.1,0.1,1.4c-0.1,0.2-0.4,0.2-0.4,0.5c0,0.5-0.1,1.7-1,1.7c0.1,0.7,0.5,0.6,1.2,0.7c0.3,0,0.6,0.1,0.9,0.1
		c0.5,0,0.8,0.2,1.2,0.2c0.4,0,0.4-0.1,0.7-0.3c0.4-0.2,0.8-0.3,1.2-0.4c0.7-0.2,1.1-0.7,1.9-0.9c0.6-0.1,1.2-0.2,1.8-0.1
		c0.6,0.1,1.3,0.3,1.8,0.2c0.8-0.2,1.1-1.3,1.8-1.7c0.9-0.6,1.9-1.3,2.9-1.8c0.8-0.4,2.2-0.5,3-0.2c1,0.5,1,1.5,1.7,2.2
		c0.1-0.4,0.9-1.4,1.4-1.4c0,0.6-0.5,0.9,0,1.4c0.2,0.2,0.5,0.1,0.6,0.4c0.1,0.2-0.1,0.6-0.2,0.8c-0.1,0.5-0.3,1,0.3,1.2
		c0.8,0.3,1.6-0.6,2.2-1c0.3-0.2,0.6-0.5,0.9-0.6c0.6-0.2,1.1,0,1.5-0.4c0.4-0.3,0.6-0.8,0.9-1.1c0.6-0.5,1.2-1,1.8-1.5
		c1.2-1.2,1.8-2.9,2.9-4.2c0.7-0.8,1.5-1.5,2-2.4c0.2-0.4,0.3-0.9,0.5-1.4c0.4-0.9,1-1.8,1.2-2.8c0.1-0.6,0-1.2,0-1.8
		c-0.1-0.7-0.1-1.2-0.5-1.8c-0.1-0.2-0.3-0.4-0.2-0.7c-0.7-0.1-0.4-1.5-0.3-1.9c-0.2-0.1-0.3-0.2-0.5-0.3c-0.1-0.7,0.4-1.4,0.5-2.2
		c0.1-0.7,0-1.3,0-2c-1,0-0.9-0.3-0.9-1.3s-0.3-2-0.4-3c-0.7,0.7-0.7,2.2-1.1,3c-0.3,0.7-0.7,1.3-0.7,2.1c0,0.3,0,0.6,0,0.9
		c-0.1,0.7-0.6,1.3-0.9,1.9C116.4,98.1,116,98.9,115.6,98.5z"/>
	<path class="st1" d="M109.3,120.9c-0.9,0.4-1.7,0.7-2.2,1.5c-0.4,0.7-0.2,0.9,0.4,0.3c0.5-0.4,0.6-0.3,1.1-0.3c0.4,0,0.3,0,0.6-0.3
		C109.6,121.7,109.8,121.5,109.3,120.9z"/>
	<path class="st1" d="M100.4,58.8c-0.3,0.7,0.3,0.9,0.7,1.3c0.4,0.4,0.2,0.8,0,1.2c-0.2,0.4-0.5,0.7-0.1,1.1
		c0.3,0.4,0.8,0.4,0.6,1.1c-0.1,0.2-0.2,0.4-0.2,0.6s0,0.7,0.1,0.9c-0.5,0-1,0-1.4-0.1c0.1,0.7-0.9,0.2-1.3,0.4
		c-0.9,0.5-0.2,1.6-0.7,2.2c0.3,0.3,0.7-0.1,1-0.3c0.2-0.1,0.4-0.5,0.6-0.6s0.2,0.1,0.4,0.1c0.6,0,0.8,0,0.8,0.7
		c0,0.3-0.2,0.7-0.1,1c0.2,0.4,1,0.6,1.4,0.5c1.2,0,0.1-0.8,0.3-1.4c0.2-0.6,1.4-0.6,1.3-1.5c0-0.4-0.4-0.7-0.6-1.1
		c-0.1-0.2-0.1-0.5-0.2-0.7c-0.1-0.3-0.2-0.4-0.3-0.7c-0.1-0.3-0.3-0.6-0.4-0.9c-0.1-0.4-0.1-0.7-0.2-1.1c-0.2-0.8,0-1.2-0.8-1.8
		C101,59.3,100.5,59.1,100.4,58.8z"/>
	<path class="st1" d="M98.1,60.4c-0.4,0.3-0.7,0.7-0.6,1.2c0,0.1,0.2,0.6,0.3,0.6c0.2,0,0.3-0.4,0.5-0.5c0.1,0.3,0.1,0.7,0,1
		c0.4-0.3,0.5-1,0.5-1.5C98.6,61.1,98.6,60.8,98.1,60.4z"/>
</g>
<g>
	<g>
		<g>
			<ellipse class="st1" cx="129.2" cy="34.6" rx="8.6" ry="8.6"/>
			<g>
				<g>
					<path class="st1" d="M137.4,40.1L137.4,40.1c0.6-0.9,1.8-1.1,2.7-0.5l0,0l-2.1,3.2l0,0C137,42.2,136.8,41,137.4,40.1z"/>
					
						<rect x="135" y="35.9" transform="matrix(0.5598 -0.8286 0.8286 0.5598 27.4605 129.3889)" class="st1" width="1" height="5.8"/>
				</g>
				<g>
					<path class="st1" d="M121,29.1L121,29.1c-0.6,0.9-1.8,1.1-2.7,0.5l0,0l2.1-3.2l0,0C121.4,27,121.6,28.2,121,29.1z"/>
					
						<rect x="122.5" y="27.5" transform="matrix(0.5598 -0.8286 0.8286 0.5598 28.9562 115.2608)" class="st1" width="1" height="5.8"/>
				</g>
			</g>
			<g>
				<g>
					<path class="st1" d="M140.7,32.3L140.7,32.3c-0.2-1,0.5-2,1.5-2.2l0,0l0.7,3.8l0,0C141.9,34,140.9,33.3,140.7,32.3z"/>
					<polygon class="st1" points="133.9,34.2 133.7,33.2 141.2,31.7 141.4,32.7 					"/>
				</g>
				<g>
					<path class="st1" d="M119.5,36.5L119.5,36.5c0.2,1-0.5,2-1.5,2.2l0,0l-0.7-3.8l0,0C118.3,34.8,119.3,35.4,119.5,36.5z"/>
					
						<rect x="118.8" y="35.5" transform="matrix(0.9818 -0.1901 0.1901 0.9818 -4.6192 23.7995)" class="st1" width="5.8" height="1"/>
				</g>
			</g>
			<g>
				<g>
					<path class="st1" d="M134.7,26.4L134.7,26.4c-0.9-0.6-1.1-1.8-0.5-2.7l0,0l3.2,2.1l0,0C136.8,26.8,135.6,27,134.7,26.4z"/>
					
						<rect x="130.5" y="27.7" transform="matrix(0.5598 -0.8286 0.8286 0.5598 35.3357 123.0102)" class="st1" width="5.8" height="1"/>
				</g>
				<g>
					<path class="st1" d="M122.4,44.5L122.4,44.5c0.9,0.6,1.1,1.8,0.5,2.7l0,0l-3.2-2.1l0,0C120.3,44.1,121.5,43.9,122.4,44.5z"/>
					<polygon class="st1" points="126.2,38.2 127,38.8 122.5,45.3 121.7,44.7 					"/>
				</g>
			</g>
			<g>
				<g>
					<path class="st1" d="M127,23.4L127,23.4c-1,0.2-2-0.5-2.2-1.5l0,0l3.8-0.7l0,0C128.7,22.2,128,23.2,127,23.4z"/>
					<polygon class="st1" points="128.8,29.9 127.8,30.1 126.3,22.9 127.3,22.7 					"/>
				</g>
				<g>
					<path class="st1" d="M131.1,44.3L131.1,44.3c1-0.2,2,0.5,2.2,1.5l0,0l-3.8,0.7l0,0C129.4,45.5,130,44.5,131.1,44.3z"/>
					<rect x="130.2" y="39.1" transform="matrix(0.9818 -0.19 0.19 0.9818 -5.6018 25.5986)" class="st1" width="1" height="5.8"/>
				</g>
			</g>
		</g>
	</g>
	<path class="st2" d="M130.7,28.2c0.3,0.8-1,2.1-2.9,2.9c-1.9,0.8-3.8,0.7-4.1-0.1s1-2.1,2.9-2.9C128.5,27.3,130.3,27.4,130.7,28.2z
		"/>
	<path class="st2" d="M126.7,34.2c-0.1,0.3-0.8,0.4-1.5,0.3c-0.8-0.2-1.3-0.6-1.3-0.9c0.1-0.3,0.8-0.4,1.5-0.3
		C126.2,33.5,126.8,33.9,126.7,34.2z"/>
	<path class="st2" d="M129.5,31.9c0,0.3-0.3,0.7-0.9,0.7c-0.5,0.1-1-0.1-1-0.5c0-0.3,0.3-0.7,0.9-0.7
		C129,31.3,129.5,31.5,129.5,31.9z"/>
	<path class="st2" d="M123,32.5c-0.1,0.1-0.3,0.1-0.5,0s-0.3-0.4-0.2-0.5c0.1-0.1,0.3-0.1,0.5,0C123,32.2,123.1,32.4,123,32.5z"/>
	<path class="st2" d="M124,36c-0.1,0.3-0.6,0.5-1.1,0.4s-0.9-0.5-0.8-0.8c0.1-0.3,0.6-0.5,1.1-0.4C123.7,35.3,124.1,35.7,124,36z"/>
</g>
<g>
	<g>
		<g>
			<ellipse class="st1" cx="139.4" cy="64.4" rx="4" ry="4"/>
			<g>
				<g>
					<path class="st1" d="M142.1,68L142.1,68c0.4-0.3,1-0.2,1.2,0.2l0,0l-1.4,1.1l0,0C141.7,68.9,141.7,68.3,142.1,68z"/>
					
						<rect x="141.3" y="65.9" transform="matrix(0.8005 -0.5994 0.5994 0.8005 -12.0515 98.2274)" class="st1" width="0.5" height="2.7"/>
				</g>
				<g>
					<path class="st1" d="M136.6,60.7L136.6,60.7c-0.4,0.3-1,0.2-1.2-0.2l0,0l1.4-1.1l0,0C137.1,59.8,137,60.4,136.6,60.7z"/>
					
						<rect x="137" y="60.2" transform="matrix(0.8005 -0.5994 0.5994 0.8005 -9.4914 94.5663)" class="st1" width="0.5" height="2.7"/>
				</g>
			</g>
			<g>
				<g>
					<path class="st1" d="M144.8,65.1L144.8,65.1c0.1-0.5,0.5-0.8,1-0.8l0,0l-0.3,1.8l0,0C145.1,66.1,144.7,65.6,144.8,65.1z"/>
					<polygon class="st1" points="141.5,64.9 141.6,64.4 145.1,64.9 145.1,65.4 					"/>
				</g>
				<g>
					<path class="st1" d="M134.9,63.7L134.9,63.7c-0.1,0.5-0.5,0.8-1,0.8l0,0l0.3-1.8l0,0C134.6,62.8,134.9,63.2,134.9,63.7z"/>
					
						<rect x="135.7" y="62.4" transform="matrix(0.1422 -0.9898 0.9898 0.1422 53.4403 189.2629)" class="st1" width="0.5" height="2.7"/>
				</g>
			</g>
			<g>
				<g>
					<path class="st1" d="M143.1,61.6L143.1,61.6c-0.3-0.4-0.2-1,0.2-1.2l0,0l1.1,1.4l0,0C143.9,62.1,143.4,62,143.1,61.6z"/>
					
						<rect x="140.9" y="62" transform="matrix(0.8005 -0.5994 0.5994 0.8005 -8.9296 97.6922)" class="st1" width="2.7" height="0.5"/>
				</g>
				<g>
					<path class="st1" d="M134.9,67.7L134.9,67.7c0.3,0.4,0.2,1-0.2,1.2l0,0l-1.1-1.4l0,0C134,67.2,134.6,67.3,134.9,67.7z"/>
					<polygon class="st1" points="137.5,65.5 137.8,65.9 134.8,68 134.5,67.7 					"/>
				</g>
			</g>
			<g>
				<g>
					<path class="st1" d="M140.1,59.1L140.1,59.1c-0.5-0.1-0.8-0.5-0.8-1l0,0l1.8,0.3l0,0C141,58.8,140.6,59.2,140.1,59.1z"/>
					<polygon class="st1" points="139.9,62.2 139.5,62.2 139.9,58.8 140.4,58.9 					"/>
				</g>
				<g>
					<path class="st1" d="M138.7,68.9L138.7,68.9c0.5,0.1,0.8,0.5,0.8,1l0,0l-1.8-0.3l0,0C137.8,69.2,138.3,68.8,138.7,68.9z"/>
					
						<rect x="137.5" y="67.6" transform="matrix(0.1422 -0.9898 0.9898 0.1422 51.9737 195.6323)" class="st1" width="2.7" height="0.5"/>
				</g>
			</g>
		</g>
	</g>
	<path class="st2" d="M141,61.8c0,0.4-0.8,0.8-1.7,0.8s-1.8-0.3-1.8-0.7c0-0.4,0.8-0.8,1.7-0.8C140.2,61.1,141,61.4,141,61.8z"/>
	<path class="st2" d="M138.4,63.8c-0.1,0.1-0.4,0.1-0.7-0.1s-0.5-0.5-0.4-0.6s0.4-0.1,0.7,0.1S138.4,63.7,138.4,63.8z"/>
	<path class="st2" d="M140,63.2c0,0.2-0.2,0.2-0.5,0.2c-0.2,0-0.4-0.2-0.4-0.4c0-0.2,0.2-0.2,0.5-0.2C139.8,62.9,140,63.1,140,63.2z
		"/>
	<path class="st2" d="M137,62.5c-0.1,0-0.2,0-0.2-0.1c-0.1-0.1-0.1-0.2,0-0.2s0.2,0,0.2,0.1S137,62.5,137,62.5z"/>
	<path class="st2" d="M136.9,64.2c-0.1,0.1-0.3,0.1-0.5,0s-0.3-0.3-0.2-0.5c0.1-0.1,0.3-0.1,0.5,0S137,64.1,136.9,64.2z"/>
</g>
<g>
	<g>
		<g>
			<ellipse class="st1" cx="111.5" cy="148.6" rx="6.2" ry="6.2"/>
			<g>
				<g>
					<path class="st1" d="M117.7,152.1L117.7,152.1c0.4-0.7,1.2-0.9,1.9-0.5l0,0l-1.3,2.4l0,0C117.6,153.6,117.4,152.8,117.7,152.1z
						"/>
					
						<rect x="116" y="149.2" transform="matrix(0.484 -0.8751 0.8751 0.484 -72.3406 179.8314)" class="st1" width="0.7" height="4.2"/>
				</g>
				<g>
					<path class="st1" d="M105.2,145.2L105.2,145.2c-0.4,0.7-1.2,0.9-1.9,0.5l0,0l1.3-2.4l0,0C105.4,143.7,105.6,144.5,105.2,145.2z
						"/>
					
						<rect x="106.4" y="143.9" transform="matrix(0.484 -0.8751 0.8751 0.484 -72.6999 168.7082)" class="st1" width="0.7" height="4.2"/>
				</g>
			</g>
			<g>
				<g>
					<path class="st1" d="M119.7,146.3L119.7,146.3c-0.2-0.7,0.2-1.5,0.9-1.7l0,0l0.8,2.7l0,0C120.6,147.4,119.9,147,119.7,146.3z"
						/>
					<polygon class="st1" points="114.8,148.1 114.6,147.4 120,145.8 120.2,146.5 					"/>
				</g>
				<g>
					<path class="st1" d="M104.6,150.6L104.6,150.6c0.2,0.7-0.2,1.5-0.9,1.7l0,0l-0.8-2.7l0,0C103.7,149.5,104.4,149.9,104.6,150.6z
						"/>
					
						<rect x="104.2" y="149.8" transform="matrix(0.961 -0.2765 0.2765 0.961 -37.3604 35.2369)" class="st1" width="4.2" height="0.7"/>
				</g>
			</g>
			<g>
				<g>
					<path class="st1" d="M114.9,142.4L114.9,142.4c-0.7-0.4-0.9-1.2-0.5-1.9l0,0l2.4,1.3l0,0C116.4,142.5,115.6,142.8,114.9,142.4z
						"/>
					
						<rect x="112.1" y="143.5" transform="matrix(0.484 -0.8751 0.8751 0.484 -66.9836 174.114)" class="st1" width="4.2" height="0.7"/>
				</g>
				<g>
					<path class="st1" d="M107.2,156.2L107.2,156.2c0.7,0.4,0.9,1.2,0.5,1.9l0,0l-2.4-1.3l0,0C105.7,156.1,106.6,155.8,107.2,156.2z
						"/>
					<polygon class="st1" points="109.5,151.4 110.2,151.8 107.3,156.8 106.7,156.4 					"/>
				</g>
			</g>
			<g>
				<g>
					<path class="st1" d="M109.1,140.8L109.1,140.8c-0.7,0.2-1.5-0.2-1.7-0.9l0,0l2.7-0.8l0,0C110.3,139.8,109.9,140.5,109.1,140.8z
						"/>
					<polygon class="st1" points="110.9,145.3 110.2,145.5 108.7,140.4 109.4,140.2 					"/>
				</g>
				<g>
					<path class="st1" d="M113.5,155.5L113.5,155.5c0.7-0.2,1.5,0.2,1.7,0.9l0,0l-2.7,0.8l0,0C112.3,156.5,112.7,155.7,113.5,155.5z
						"/>
					
						<rect x="112.7" y="151.8" transform="matrix(0.961 -0.2765 0.2765 0.961 -38.1425 37.2652)" class="st1" width="0.7" height="4.2"/>
				</g>
			</g>
		</g>
	</g>
	<path class="st2" d="M112.1,144c0.3,0.6-0.6,1.6-1.9,2.3c-1.4,0.7-2.7,0.8-3,0.2s0.6-1.6,1.9-2.3
		C110.5,143.5,111.8,143.4,112.1,144z"/>
	<path class="st2" d="M109.7,148.5c0,0.2-0.5,0.4-1.1,0.3c-0.6-0.1-1-0.3-1-0.6s0.5-0.4,1.1-0.3C109.3,148,109.7,148.3,109.7,148.5z
		"/>
	<path class="st2" d="M111.6,146.7c0.1,0.2-0.2,0.5-0.6,0.6c-0.4,0.1-0.7,0-0.8-0.3c-0.1-0.2,0.2-0.5,0.6-0.6
		S111.5,146.4,111.6,146.7z"/>
	<path class="st2" d="M106.9,147.6c-0.1,0.1-0.2,0.1-0.4,0s-0.2-0.2-0.2-0.3c0.1-0.1,0.2-0.1,0.4,0
		C106.9,147.3,106.9,147.5,106.9,147.6z"/>
	<path class="st2" d="M107.8,150c0,0.2-0.4,0.4-0.8,0.4c-0.4,0-0.7-0.3-0.6-0.5c0-0.2,0.4-0.4,0.8-0.4
		C107.6,149.5,107.9,149.8,107.8,150z"/>
</g>
</svg>
