<?xml version="1.0" encoding="utf-8"?>
<!-- Generator: Adobe Illustrator 22.0.1, SVG Export Plug-In . SVG Version: 6.00 Build 0)  -->
<svg version="1.1" id="Layer_1" xmlns="http://www.w3.org/2000/svg" xmlns:xlink="http://www.w3.org/1999/xlink" x="0px" y="0px"
	 viewBox="0 0 184 192.5" style="enable-background:new 0 0 184 192.5;" xml:space="preserve">
<style type="text/css">
	.st0{fill:#00B5AD;}
	.st1{fill:#A0CD5D;}
	.st2{fill:#D0E5B0;}
</style>
<g>
	<ellipse transform="matrix(0.2347 -0.9721 0.9721 0.2347 -20.1493 159.6683)" class="st0" cx="91.3" cy="92.6" rx="69" ry="69"/>
	<path class="st1" d="M128.1,34.3c-5.5-3.5-11.5-6.2-17.9-8c-0.4,0.1-0.8,0.2-1.1,0.2c-1.3,0-2.6-0.3-4-0.1
		c-2.8,0.3-4.9-0.2-7.7-0.8c-2.6-0.6-5-1.4-7.8-1c-1.1,0.1-2.3,0.5-3.3,0.8c-1.3,0.3-2.4,0.3-3.7,0.5c-1.1,0.2-1.9,0.4-2.9,0.7
		c-0.7,0.2-2.1,0.8-2.8,0.8c0.2-0.7,1.1-1.5,1.6-1.9c-1.8,0.3-3.2,1.6-4.8,1.9c-1,0.2-1.8,0.1-2.9,0.4c-1.2,0.4-2.4,1.3-3.6,1.5
		c1-0.5,1.9-1.2,2.5-2.2c-10.7,3.6-20.3,9.7-28,17.6c1-0.2,3.2-1.7,3.8-2.4c1.5,0.7-0.4,2.8-0.7,3.8c-0.2,0.8,0,1.1-0.6,1.7
		c-0.3,0.4-1,0.3-1.4,0.7c0.2-0.2,0.4,0.2,0.9,0.1c0.6-0.2,0.8-0.4,1.4-0.7c0.9-0.3,1.3-0.4,2,0.2c0.4-1,0-2.2,0.7-3
		c1-1.2,3.6-1.1,4.2-2.5c-0.5,1.1-1.6,2.2-2.4,3.2c-1,1.3-0.9,2.5-1.4,4c-0.4,1.5-1.6,2.3-2.4,3.6c-2.3-1-0.7-2.9,0-4.4
		c-0.8,0-1.6,0.5-2.2,0.8c0-0.3-0.2-0.5-0.2-0.8c-0.8,0.2-2.1,0.5-2.1-0.8c-1.3-0.3-4.8,2.9-4.4,4.3c0.3,0,0.6,0.3,0.9,0.3
		c0.3,0.9-0.7,1.8-1.2,2.4c-0.3,0.3-0.6,0.6-0.8,0.9c-0.3,0.4-0.4,1.3-0.7,1.8c-1.1,1.7-1.9,0.4-1.8-0.9c0-1.2,0.2-1.3-0.2-1.6
		c-6.8,10.7-10.8,23.4-10.8,37c0,16.4,5.7,31.4,15.3,43.3c-0.3-0.7-0.5-1.4-0.8-1.9c-0.8-1.7-1.5-3.3-2.6-4.7
		c-0.8-1.1-1.8-2.7-2.3-3.9c-0.5-1.2-0.2-3.2-1.3-4.1c0.8-1,0.4-1.1,0.2-2c-0.1-0.4-0.3-0.5-0.3-1c0-0.6,0.4-0.8,0.4-1.2
		c0.1-1.9-1.3-4.4-2-6.2c-0.5-1.2-1.3-2.2-1.5-3.5c-0.2-1.4,0-3.1,0.2-4.4c0.7-4,1.8-7.6,3.4-11.3c0.8-1.8,0.8-3.3,1.4-5.1
		c0.4-1.2,1.4-2,1.4-3.4c-1.5-0.3-2.6,2.3-4,1.5c-1-0.6-0.3-2.7-0.4-3.7c-0.1-1.3-0.5-2.7-0.6-4c-0.1-1.1,0.6-1.8,0.7-2.8
		c0.1-0.9-0.1-1.5,0.3-2.5c0.6-1.9,0.8-3.4,0.9-5.4c0.1-1.4,0.5-2.7,1.5-3.7c-0.5,1.6-0.2,3.9-0.5,5.6c-0.4,2-0.2,4.1-0.7,6
		c-0.7,2.6-0.6,5-0.9,7.5c1.9-0.7,3.1-1.9,4.7-3.2c0.4-0.3,0.9-0.4,1.2-0.9c0.3-0.4,0.3-1.1,0.6-1.3c0.5-0.4,1.7-0.6,2.3-0.8
		c1-0.4,1.9-0.8,2.5-1.9c0.3-0.6,0.3-1.3,0.5-1.8c0.4-0.8,1.4-0.9,1.5-2c0-0.2-0.3-0.8-0.5-1.2c-0.3-0.5-1.1-0.2-1.4-0.5
		c-0.6-0.8,0.3-2,0.5-2.8c-0.6,0.8-2.1,2.4-3.2,2.2c-0.2-1.1-0.5-1.2-0.3-2.3c-1.6-0.6,0.1-4.6,0.6-5.5c1.1,1.2,0.1,3.4,1.1,4.5
		c1.3,1.5,2.2,0.1,3.1-0.6c0,0.5,0,1.7,0.3,2c0.3,0.3,1.8,0.5,2.2,0.6c0.7,0.2,1.7,0.8,2.5,0.7c0.9-0.1,1.3-1.2,2.2-1
		c0.1,0.2,0.2,0.3,0.3,0.5c1.6,0.9,0.3,1.6,0.6,2.9c0.5,0,1,0,1.5,0.2c-0.1,0.4-0.4,0.8-0.7,1.1c1.1,0,1.7,1.1,2.3,1.9
		c0.9,1.1,0.7,2.1,0.9,3.6c0.4,3.6,1.6,6.9,2.3,10.3c0.3,1.4,0.5,2.5,1.7,3.6c0.7-0.5,0.9-1.4,1.7-1.6c-0.1-0.7,0.9-2.6,1.1-3.5
		c0.4-1.4,0.7-2.3,0.7-3.9c0-2.7,2.4-3.7,4.5-4.9c1.6-0.9,2.5-1.7,3.5-3.2c0.6-0.8,1-1.1,2-1.5c1.3-0.4,4.4,0.3,5.2-0.7
		c-0.1,0.6,1.5,0.9,1.9,1.3c0.8,0.8,0.6,1.6,1,2.6c0.3,0.8,1,1.3,1.1,2.2c0.2,1.1-0.3,1.8-0.5,2.8c1.3,0.2,2.8-0.9,3.9-0.5
		c1.3,0.5,1.6,2,1.7,3.3c0.1,1.4,0.3,2.7,0.3,3.9c0,1.4-0.5,2.6-0.6,3.8c1,1.1,1.9,1.2,2.5,2.6c0.7,1.4,0.5,2.6,1.1,3.9
		c0.5,1.4,1.8,1.5,2.8,2.4c0.6,0.5,1,0.9,1.6,1.4c0.4,0.3,0.9,0.4,1.3,0.9c0.6-1-1-2-1.2-3c-0.3-1.2,0.2-2.3-0.6-3.4
		c-0.9-1.4-2.9-2-3.9-3.2c-0.9-1-1.1-1.7-1.1-3c-0.3,0-0.5-0.2-0.8-0.2c-0.1-1.2-0.1-5.6,1.4-6c0.9-0.2,1.5,0.7,1.6,1.5
		c1.7,0,1.2,0.1,2.1,1.3c0.6,0.9,0.9,1.2,1.3,2.4c0.6-0.2,1-0.8,1.5-0.2c0.5,0.6-0.4,1.3,0,1.8c0.6,0.9,2.3-1.8,2.9-2.3
		c1.6-1.2,2.9-1.3,2.9-3.6c0-0.9,0.2-2.1,0-2.9c-0.3-1.1-1-1.2-2-2c-1.8-1.5-2.8-2.5-3.1-4.7c-0.1-1.4,2.5-3,4-2.8
		c3.2,0.5,0.4,2.6,0.4,4c0.9,0.2,1.2-0.6,2.1-0.7c0.7-1.4-0.5-2.7,1.4-3.6c0.8-0.4,1.7-0.2,2.6-0.5c0.9-0.3,1.4-1.1,2.1-1.7
		c0.9-0.6,1.8-0.9,2.5-1.7c1-1.1,1.6-2.5,2.3-3.8c0.9-1.9,1.1-3.6,0.5-5.7c-0.2-0.8-0.3-2.5-1.1-3.1c-0.7-0.5-1.6,0.2-1.9-0.9
		c-0.1-0.1-0.3-0.4-0.1-0.8c0.8-0.1,1.4-0.6,1.2-1.4c-0.7,0-1.6-0.1-2.2,0.2c-0.4-0.7-1.5-1.3-1.3-2.3c0.2-0.8,1.3-0.8,1.3-2
		c0.7,0.5,0.3,1.3,1,1.6c1,0.5,1.2-0.5,2.1-0.7c1.2-0.2,1.3,0.5,1.7,1.3c0.6,1.2,0.5,0.7,1.4,1.4c0.8,0.6,0.8,0.4,0.8,1.7
		c0,0.8-0.3,1.9,0.6,2.2c1.1,0.4,2.4-1.5,2.5-2.4c0.1-1.5-1.2-1.2-2.2-2c-0.6-0.4-0.6,0-0.8-0.8c0.1,0.2-0.1-1.9-0.2-1.6
		c0.3-1.1,1.5-1.2,1-2.6c2.2-0.5,3.3-0.7,3.2-3.2c0-0.4,0-1.7-0.1-2.1c-0.2-0.9-1.1-1.3-1.3-2.3c0.5,0.6,1.3,0.7,1.8,1.2
		c0.4,0.4,0.3,0.7,0.5,1.1c0.6,0.8,1,1.4,2,1.9c-0.3-0.6-1-1.1-1.4-1.8c-0.3-0.6-0.2-1.5-0.6-2.1c-0.4-0.5-3.5-2.5-4.1-2.6
		c-1.1-0.1-1.2,0.8-2.4,0.4c-1.2-0.4-2.3-1.5-1.5-2.8c0.7-1,3.5-0.3,4.9-0.3c-0.1-0.5-0.5-0.9-0.8-1.4c1.6,0.4,4.1,2.2,5,3.6
		c0.8,1.2,0.9,1.8,2.2,2.4c0.8,0.4,1.8,0.5,2.4,1.1c-0.7-0.9-1.9-1.6-2.5-2.5c-0.4-0.6-0.4-1.3-0.8-1.8
		C126.2,34.4,127.2,34.5,128.1,34.3z"/>
	<path class="st1" d="M126.3,43.6c-0.1-0.1-0.2-0.1-0.4,0c0.2,0.3,0.5,0.7,0.7,1.1c0.2,0.5,0,0.3-0.1,0.6c-0.2,0.4-0.4,0.9,0.3,1
		c0.1-0.2,0.1-0.4,0.1-0.6c0.4,0,0.7-0.3,1.1-0.2c0.3,0.1,0.4,0.4,0.7,0.3c0.2-0.1,0.3-0.6,0.2-0.7c-0.1-0.6-1.1-0.7-1.6-0.9
		C126.8,44,126.7,43.8,126.3,43.6z"/>
	<path class="st1" d="M127.7,47.3c-0.6,0.4,0.6,1.6,0.8,2.1c0.1,0.3,0.1,0.8,0.1,1.2c-0.1,0.7-0.2,0.2-0.6,0.2
		c-0.3,0-0.7,0.4-0.8,0.7c-0.1,0.3,0.2,0.7,0.1,0.9c-0.1,0.2-0.3,0.1-0.5,0.2c-0.1,0.1-0.2,0.4-0.4,0.4c-0.3,0.1-0.8-0.1-1.1,0
		c-0.9,0-2.2,0.7-2.2,1.7c0.8-0.2,2,0,2.6-0.5c0.3-0.3,0.7-0.8,1.3-0.5c0.3,0.2,0.5,0.8,0.8,1.1c0.3-0.3-0.2-0.6-0.2-1
		c0.1-0.3,0.5-0.4,0.8-0.3c0.3,0.2,0.2,0.4,0.7,0.4c0.6,0,0.5-0.4,0.6-0.8c0.2-0.5,0.2-0.1,0.6-0.3c0.5-0.2,0.3-0.6,0.1-1
		c-0.2-0.4-0.6-0.6-0.6-1.1c0-0.4,0.2-0.8,0.1-1.3C129.6,48.5,128.8,47.5,127.7,47.3z"/>
	<path class="st1" d="M123.8,55.7c-0.4-0.1-0.4,0.6-0.4,0.9c0,0,0.2,0.3,0.2,0.4c0.1,0.2-0.1,0.4,0.1,0.6c0.4,0.5,0.8-0.1,0.9-0.6
		c0.1-0.2,0-0.5,0-0.7c0-0.2,0.3-0.4,0.2-0.6C124.6,55.6,124.2,55.5,123.8,55.7z"/>
	<path class="st1" d="M116.3,66c-0.9,0.4-1.2,1.7-0.9,2.5c0.1,0.2,0.1,0.4,0.2,0.6c0.1,0.2,0.3,0.2,0.4,0.4c0.2,0.3,0.2,0.4,0.2,0.8
		c0-0.5,0.2-0.9,0.4-1.3c0.3-0.6,0.1-0.4,0-1C116.5,67.4,117.6,65.9,116.3,66z"/>
	<path class="st1" d="M117.7,74.5c-1.3,0.1,0.1,2.5-0.2,3.1c-0.2,0.5-0.5,0.8-0.6,1.3c-0.1,0.6-0.1,1.3,0.4,1.7
		c0.4-0.5,0.8,0.5,0.9,0.8c0.1,0.6-0.1,1.2,0.8,1.2c0-0.3,0-0.7,0-1c0-0.3,0-0.4,0.1-0.6c0-0.1,0.2-0.2,0.3-0.3
		c0.1-0.5-0.2-0.3-0.4-0.7c-0.1-0.2-0.1-0.7-0.1-0.9c0.1-0.3,0.4-0.7,0.6-1c0.2-0.5,0.2-1.1,0.1-1.7
		C119.2,75.7,118.6,74.6,117.7,74.5z"/>
	<path class="st1" d="M113.5,91.6c-0.9-0.2-1.2,1.7-1.6,2.2c-0.3,0.3-0.5,0.3-0.9,0.4c-0.4,0.1-0.7,0.3-1,0.6
		c-0.6,0.4-0.6,0.5-0.8,1.2c-0.1,0.5-0.4,0.6-0.8,0.9c-0.7,0.5-1.4,0.1-2.1,0.4c-0.8,0.4-0.2,0.8-0.2,1.3c0,0.4-0.6,0.3-1,0.3
		c-0.5,0.1-0.6,0-1-0.1c-0.8-0.2-1.2,0.4-1.1,1.2c0.1,0.4,0.4,0.6,0.4,1c0,0.4-0.2,0.8-0.2,1.2c0,0.6,0.1,1.5,0.8,1.7
		c0.1,0,0.5,0,0.6,0c0.3,0.2,0,0.7,0,1c0,0.6,0.3,0.9,0.7,1.2c0.3,0.2,0.2,0.2,0.6,0.2c0.3,0,0.4-0.2,0.7-0.1c0.2,0,0.3,0.2,0.5,0.3
		c1,0.5,1.7,0.1,2.7,0.1c0.8,0,1,0.6,1.7,0.7c0.6,0.1,1.3,0,1.2-0.7c0.3,0.1,0.8,0.5,1,0.1c0.3-0.4-0.4-1-0.4-1.4
		c0-0.3,0.3-0.7,0.3-1c0-0.3,0-0.7,0-1c0.5-0.3,1.3-0.1,1.6-0.7c0.2-0.4-0.1-1.2-0.1-1.6c0-0.3,0-0.7,0.3-0.9
		c0.3-0.2,1.1,0.2,1.2-0.3c0.1-0.4-0.9-0.6-1.1-1c-0.2-0.4,0-0.7,0.1-1.1c0.1-0.8-0.8-1.3-0.2-2.2c0.2-0.3,1.3-0.2,1.2-0.6
		c-0.1-0.3-0.6-0.1-0.6-0.6c0.5-0.1,1-0.3,1.6-0.4c-0.1-0.8-1.5-0.4-2-0.8c-0.3-0.3-0.4-0.7-0.8-1C114.2,91.7,113.9,91.8,113.5,91.6
		z"/>
	<path class="st1" d="M98.4,109.8c-0.3-0.2,0.4-2.1,0.5-2.5c0-0.2,0-0.3-0.1-0.5c-0.1-0.2-0.3-0.3-0.4-0.4c-0.1-0.3,0.1-0.6,0-0.8
		c-0.2-0.6-1.1-0.5-1.5-0.8c-0.4-0.3-0.6-0.7-0.9-1.1c-0.2-0.3-0.7-0.6-0.8-0.9c-0.2-0.7,0.7-1.2-0.3-1.7c-0.3-0.2-0.5-0.1-0.8-0.3
		c-0.3-0.2-0.5-0.5-0.8-0.6c-0.6-0.4-1.3-1-2-1.3c-0.3-0.1-0.6-0.1-0.9-0.2c-0.2-0.1-0.4-0.4-0.5-0.6c-0.3-0.3-0.7-0.5-1.1-0.8
		c-0.5-0.4-0.9-0.7-1.4-1c-0.8-0.5-0.5-1.5-1.3-2c-1.2-0.8-2.7,0.2-4-0.3c0.5,0.4,0.6,1.3,1.1,1.7c0.4,0.3,0.9,0.2,1.2,0.6
		c0.4,0.5,0.4,1,1,1.5c0.5,0.4,0.6,0.7,1,1.1c0.4,0.5,0.7,0.2,1.2,0.5c0.3,0.2,0.4,0.6,0.5,0.9c0.1,0.5,0.3,0.7,0.5,1.1
		c0.4,0.9,0.5,1.6,1.4,2.1c1.1,0.7,0.9,1.6,1.6,2.6c0.4,0.6,0.9,1.2,1.4,1.7c0.5,0.5,1.3,0.8,1.9,1.3c0.5,0.4,0.8,0.6,1.2,1.1
		c0.2,0.3,0.5,0.6,0.9,0.6c0-0.4,0-0.8,0-1.2C97.6,109.4,97.9,109.8,98.4,109.8z"/>
	<path class="st1" d="M99,110.7c-0.5,0-1.1,0-0.9,0.7c-0.3,0-0.5,0.1-0.8,0.2c0.3,0.2,1,0.3,1.4,0.3c0.2,0,0.5-0.3,0.5,0.1
		c0,0.2-0.2,0.4-0.3,0.5c0.3,0,0.5,0.1,0.8,0.1c0.5,0.1,0.8,0.1,1.3,0c0.4,0,0.8,0.1,1.2,0.2c0.5,0.1,1.1,0.5,1.6,0.5
		c0.4,0,0.7-0.2,1.1-0.2c0.4,0,0.9,0.1,1.3,0.1c0.5,0,1-0.1,1.5,0c0.5,0,0.8,0.3,1.3,0.4c0.7,0.2,1.9,0.3,2.7,0.2
		c-0.3-0.5-0.9-0.4-1.2-0.8c-0.3-0.3-0.1-0.5-0.7-0.4c-0.3,0-1.1,0.3-1.3-0.2c-0.2-0.6,0.7-0.4,0.7-0.8c-0.3-0.1-0.6,0-1,0
		c-0.4-0.1-0.6-0.4-1.1-0.4c-1-0.1-2-0.4-3-0.1c-1.2,0.4-2.3,0.4-3.5-0.1c-0.3-0.2-0.6-0.4-1-0.3C99.3,110.6,99.1,110.7,99,110.7z"
		/>
	<path class="st1" d="M117.1,109c-0.1-0.7,0.7-3.3-0.5-3.2c-0.1,0.4-0.3,0.5-0.6,0.2c-0.3-0.4,0-0.8,0.2-1.1c0.4-0.6,0.9-1.1,1-1.9
		c0-0.4,0-0.8,0-1.1c0-0.5,0.2-1.1,0.3-1.6c0.2-0.9,0.7-1.2,1.5-1.1c0.5,0,1-0.1,1.5,0c0.5,0,0.9,0.2,1.5,0.2
		c1.1-0.2,2.3-0.2,2.7-1.4c0.2,1.2-1.2,2.6-2.3,2.8c-1,0.1-3.1-0.9-3.9,0.2c-0.5,0.6-0.3,1.7,0.4,2c0.8,0.5,1.2-0.4,2-0.7
		c0.2-0.1,1.9-0.6,1.9-0.2c0,0.3-1.2,0.7-1.4,0.8c-0.3,0.1-0.7,0.4-1,0.7c-0.3,0.4-0.2,0.3,0,0.8c0.1,0.4,0.2,0.8,0.3,1.2
		c0.1,0.4,0.3,0.5,0.4,0.9c0.1,0.4,0,0.9-0.1,1.2c-0.5-0.2-0.6,0.1-1,0.2c0-0.5-0.2-1.3-0.4-1.8c-0.2-0.4-0.5-1.5-1.1-1.3
		c-0.2,0.8,0,1.8-0.1,2.6c-0.1,0.6-0.2,1.3-0.1,1.8C117.9,109.5,117.4,109.4,117.1,109z"/>
	<path class="st1" d="M113.5,113.2c-0.3,0.6,0.7,1,1.2,0.7c-0.2-0.2-1.1-0.7-1.2-0.5"/>
	<path class="st1" d="M116.3,114.4c0.4,0.1,0.8,0.2,1.2,0.5c0.3,0.2,0.4,0.7,0.8,0.6C118.4,114.8,116.6,114,116.3,114.4z"/>
	<path class="st1" d="M117.5,113.2c0.5,0.4,1.3,0.4,1.9,0.4c0.6,0,1.2,0.2,1.8,0.1c0.7-0.1,1-0.7,1.5-0.9c0.4-0.2,0.7-0.2,0.9-0.8
		c-0.6,0-1.2,0.4-1.8,0.5c-0.7,0.1-1.3,0.4-2,0.4c-0.5,0-1.1-0.3-1.6-0.3C118,112.6,117.2,112.8,117.5,113.2z"/>
	<path class="st1" d="M121.8,114.9c0.4,0,0.6-0.4,0.8-0.6c0.4-0.4,0.9-0.8,1.3-1.1c0.6-0.4,1.3-0.4,1.8-0.9
		c-0.2,0.6-1.3,1.2-1.8,1.6c-0.3,0.3-0.6,0.8-0.9,1c-0.3,0.2-0.6,0.2-0.9,0.4c-0.3,0.2-0.6,0.6-1,0.7
		C121.1,115.4,121.4,115.2,121.8,114.9z"/>
	<path class="st1" d="M148.2,111.5c-0.8-0.7-1.1-1.4-1.3-2.4c-0.1-0.6-1.4-1.2-1.1-1.8c0.2-0.5,1.1-0.1,0.6-0.9
		c-0.3-0.4-0.6-0.5-0.8-0.9c-0.1-0.2-0.2-0.5-0.3-0.7c-0.1-0.4-0.1-0.8-0.4-1.1c-0.5-0.5-1.5-0.7-2.2-0.9c-1.5-0.5-3-1.4-4.6-1.1
		c-0.8,0.2-1,0.9-1.5,1.5c-0.2,0.2-1.2,1.2-1.4,1.2c-0.3,0-0.4-0.9-0.4-1.2c-0.1-0.4-0.2-0.9-0.1-1.4c0.1-0.4,0.3-0.5,0.1-0.8
		c-0.1-0.2-0.7-0.2-0.9-0.3c-0.4-0.1-1-0.2-1.2,0c-0.3,0.3-0.1,0.5-0.6,0.6c-0.4,0.1-0.7,0.1-1.1,0c0.1,1,1,0.4,1.3,1.1
		c0.1,0.2-0.1,0.5,0.1,0.6c0.1,0.1,0.6,0.3,0.7,0.3c0.4,0,0.4-0.3,0.7-0.3c0.3-0.1,0.6,0,0.5,0.4c-0.2,0.6-1.1,0.2-1.5,0.3
		c-1,0.4,0.7,0.8,0.8,1.1c0.1,0.2-0.5,0.9-0.2,1.1c0.5,0.5,1-0.6,1-1c0.6,0.1,1,0.7,1.5,0.9c1.1,0.3,1.7,0.2,2.6,1.1
		c0.7,0.7,0.6,1.7,0,2.3c-0.3,0.4-0.4,0.9-0.7,1.3c-0.1,0.1-0.8,0.6-0.1,0.7c0.2,0,1-0.5,1.3-0.6c0.3-0.1,0.6-0.3,1-0.3
		c1.1,0.1,0.3,1.6,1.5,1.2c0.9-0.3,2-0.8,2.3-1.8c0.2-0.7,0.3-1.2,1.2-0.8c0.3,0.1,0.8,0.7,1,1c0.2,0.4,0.1,1,0.4,1.4
		C146.7,111.6,147.6,111.6,148.2,111.5z"/>
	<path class="st1" d="M130.8,105.3c-0.6-0.2-1.2-0.7-1.9-0.8c-0.7-0.1-1.7,0.1-0.7,0.6c0.7,0.3,1.4,0.1,2,0.4
		c0.2,0.1,0.7,0.4,0.8,0.4C131.4,105.9,131.1,105.5,130.8,105.3z"/>
	<path class="st1" d="M128.6,97.1c-0.5-0.1-1.1,0.9-1.1,1.4c0,0.2,0.2,0.4,0.3,0.6c0.1,0.3,0,0.5-0.1,0.8c0,0.3-0.2,1.2,0,1.4
		c0.6,0.4,0.5-0.7,0.5-0.9c0.2-1,0.6,0.1,1.1,0.1c-0.1-0.5-0.7-0.7-0.8-1.2c0-0.6,0.6-0.5,0.7-1.1c-0.4-0.1-1.1,0.8-1.1,0.1
		c0-0.4,0.4-0.9,0.7-0.9C128.8,97.2,128.8,97.1,128.6,97.1z"/>
	<path class="st1" d="M137.9,122.1c-0.3,0.1-0.9-0.3-1.2-0.5c-0.6-0.4-1.1-0.7-1.6-0.9c-0.3-0.1-0.8-0.5-1-0.8
		c-0.4-0.5,0-0.9,0.3-1.4c0.2-0.2,0.4-0.3,0.5-0.5c0.2-0.2,0.3-0.5,0.5-0.8c0.2-0.2,0.9-0.8,0.8-1.2c-0.2-0.9-2.1,0.1-2.4,0
		c-0.6-0.1-2.3-1.6-2.7-0.5c-0.1,0.4,0.1,0.5-0.3,0.8c-0.2,0.1-0.4,0-0.6,0.1c-0.4,0.1-0.5,0.4-0.7,0.8c-0.4,0.6-0.8,1.2-1.2,1.8
		c-0.2,0.4-0.3,0.6-0.7,0.8c-0.8,0.5-1.1-0.3-2-0.5c-0.5-0.2-0.6,0-1,0.4c-0.6,0.6-1.2,1.1-1.8,1.7c-0.4,0.5-0.6,0.8-0.8,1.4
		c-0.1,0.3-0.1,0.4-0.3,0.5c-0.3,0.1-0.7-0.2-1,0.2c-0.2,0.2-0.2,0.7-0.2,0.9c-0.6-0.1-0.6-1-1.4-0.6c-0.7,0.3-0.7,1.5-1,2.1
		c-0.4,1-0.8,1.3-1.9,1.6c-0.9,0.3-1.5,0.8-2.4,1.2c-0.8,0.3-1.3,0.2-2.1,0.3c-1,0.1-2.5,0.7-3.2,1.4c-0.7,0.8-1,1.9-1.4,2.8
		c-0.1,0.3-0.3,0.7-0.2,0.9c0,0.2,0.1,0.3,0.2,0.5c0.1,0.6-0.4,1-0.4,1.6c0.1,0.6,0.9,1.3,1.2,1.8c0.3,0.5,0.7,1.1,0.9,1.6
		c0.1,0.3,0.2,1.1,0.1,1.4c-0.1,0.2-0.4,0.2-0.4,0.5c0,0.5-0.1,1.7-1,1.7c0.1,0.7,0.5,0.6,1.2,0.7c0.3,0,0.6,0.1,0.9,0.1
		c0.5,0,0.8,0.2,1.2,0.2c0.4,0,0.4-0.1,0.7-0.3c0.4-0.2,0.8-0.3,1.2-0.4c0.7-0.2,1.1-0.7,1.9-0.9c0.6-0.1,1.2-0.2,1.8-0.1
		c0.6,0.1,1.3,0.3,1.8,0.2c0.8-0.2,1.1-1.3,1.8-1.7c0.9-0.6,1.9-1.3,2.9-1.8c0.8-0.4,2.2-0.5,3-0.2c1,0.5,1,1.5,1.7,2.2
		c0.1-0.4,0.9-1.4,1.4-1.4c0,0.6-0.5,0.9,0,1.4c0.2,0.2,0.5,0.1,0.6,0.4c0.1,0.2-0.1,0.6-0.2,0.8c-0.1,0.5-0.3,1,0.3,1.2
		c0.8,0.3,1.6-0.6,2.2-1c0.3-0.2,0.6-0.5,0.9-0.6c0.6-0.2,1.1,0,1.5-0.4c0.4-0.3,0.6-0.8,0.9-1.1c0.6-0.5,1.2-1,1.8-1.5
		c1.2-1.2,1.8-2.9,2.9-4.2c0.7-0.8,1.5-1.5,2-2.4c0.2-0.4,0.3-0.9,0.5-1.4c0.4-0.9,1-1.8,1.2-2.8c0.1-0.6,0-1.2,0-1.8
		c-0.1-0.7-0.1-1.2-0.5-1.8c-0.1-0.2-0.3-0.4-0.2-0.7c-0.7-0.1-0.4-1.5-0.3-1.9c-0.2-0.1-0.3-0.2-0.5-0.3c-0.1-0.7,0.4-1.4,0.5-2.2
		c0.1-0.7,0-1.3,0-2c-1,0-0.9-0.3-0.9-1.3c0-1-0.3-2-0.4-3c-0.7,0.7-0.7,2.2-1.1,3c-0.3,0.7-0.7,1.3-0.7,2.1c0,0.3,0,0.6,0,0.9
		c-0.1,0.7-0.6,1.3-0.9,1.9C138.7,121.7,138.3,122.5,137.9,122.1z"/>
	<path class="st1" d="M131.6,144.5c-0.9,0.4-1.7,0.7-2.2,1.5c-0.4,0.7-0.2,0.9,0.4,0.3c0.5-0.4,0.6-0.3,1.1-0.3c0.4,0,0.3,0,0.6-0.3
		C131.9,145.3,132.1,145.1,131.6,144.5z"/>
	<path class="st1" d="M122.7,82.4c-0.3,0.7,0.3,0.9,0.7,1.3c0.4,0.4,0.2,0.8,0,1.2c-0.2,0.4-0.5,0.7-0.1,1.1
		c0.3,0.4,0.8,0.4,0.6,1.1c-0.1,0.2-0.2,0.4-0.2,0.6c0,0.2,0,0.7,0.1,0.9c-0.5,0-1,0-1.4-0.1c0.1,0.7-0.9,0.2-1.3,0.4
		c-0.9,0.5-0.2,1.6-0.7,2.2c0.3,0.3,0.7-0.1,1-0.3c0.2-0.1,0.4-0.5,0.6-0.6c0.2-0.1,0.2,0.1,0.4,0.1c0.6,0,0.8,0,0.8,0.7
		c0,0.3-0.2,0.7-0.1,1c0.2,0.4,1,0.6,1.4,0.5c1.2,0,0.1-0.8,0.3-1.4c0.2-0.6,1.4-0.6,1.3-1.5c0-0.4-0.4-0.7-0.6-1.1
		c-0.1-0.2-0.1-0.5-0.2-0.7c-0.1-0.3-0.2-0.4-0.3-0.7c-0.1-0.3-0.3-0.6-0.4-0.9c-0.1-0.4-0.1-0.7-0.2-1.1c-0.2-0.8,0-1.2-0.8-1.8
		C123.3,82.9,122.8,82.7,122.7,82.4z"/>
	<path class="st1" d="M120.4,84c-0.4,0.3-0.7,0.7-0.6,1.2c0,0.1,0.2,0.6,0.3,0.6c0.2,0,0.3-0.4,0.5-0.5c0.1,0.3,0.1,0.7,0,1
		c0.4-0.3,0.5-1,0.5-1.5C120.9,84.7,120.9,84.4,120.4,84z"/>
</g>
<g>
	<g>
		<g>
			
				<ellipse transform="matrix(0.7557 -0.6549 0.6549 0.7557 -1.1041 113.4376)" class="st1" cx="151.5" cy="58.2" rx="8.6" ry="8.6"/>
			<g>
				<g>
					<path class="st1" d="M159.7,63.7L159.7,63.7c0.6-0.9,1.8-1.1,2.7-0.5l0,0l-2.1,3.2l0,0C159.3,65.8,159.1,64.6,159.7,63.7z"/>
					
						<rect x="157.3" y="59.5" transform="matrix(-0.5598 0.8286 -0.8286 -0.5598 297.831 -33.3425)" class="st1" width="1" height="5.8"/>
				</g>
				<g>
					<path class="st1" d="M143.3,52.7L143.3,52.7c-0.6,0.9-1.8,1.1-2.7,0.5l0,0l2.1-3.2l0,0C143.7,50.6,143.9,51.8,143.3,52.7z"/>
					
						<rect x="144.7" y="51.1" transform="matrix(0.5598 -0.8286 0.8286 0.5598 19.2129 144.0907)" class="st1" width="1" height="5.8"/>
				</g>
			</g>
			<g>
				<g>
					<path class="st1" d="M163,55.9L163,55.9c-0.2-1,0.5-2,1.5-2.2l0,0l0.7,3.8l0,0C164.2,57.6,163.2,56.9,163,55.9z"/>
					<polygon class="st1" points="156.2,57.8 156,56.8 163.5,55.3 163.7,56.3 					"/>
				</g>
				<g>
					<path class="st1" d="M141.8,60.1L141.8,60.1c0.2,1-0.5,2-1.5,2.2l0,0l-0.7-3.8h0C140.6,58.4,141.6,59,141.8,60.1z"/>
					
						<rect x="143.6" y="56.7" transform="matrix(-0.1901 -0.9818 0.9818 -0.1901 112.9031 212.4157)" class="st1" width="1" height="5.8"/>
				</g>
			</g>
			<g>
				<g>
					<path class="st1" d="M157,50L157,50c-0.9-0.6-1.1-1.8-0.5-2.7l0,0l3.2,2.1l0,0C159.1,50.4,157.9,50.6,157,50z"/>
					
						<rect x="155.2" y="49" transform="matrix(0.8286 0.5598 -0.5598 0.8286 55.7644 -78.2878)" class="st1" width="1" height="5.8"/>
				</g>
				<g>
					<path class="st1" d="M144.7,68.1L144.7,68.1c0.9,0.6,1.1,1.8,0.5,2.7l0,0l-3.2-2.1l0,0C142.6,67.7,143.8,67.5,144.7,68.1z"/>
					<polygon class="st1" points="148.5,61.8 149.3,62.4 144.8,68.9 144,68.3 					"/>
				</g>
			</g>
			<g>
				<g>
					<path class="st1" d="M149.3,47L149.3,47c-1,0.2-2-0.5-2.2-1.5l0,0l3.8-0.7l0,0C151,45.8,150.3,46.8,149.3,47z"/>
					<polygon class="st1" points="151.1,53.5 150.1,53.7 148.6,46.5 149.6,46.3 					"/>
				</g>
				<g>
					<path class="st1" d="M153.4,67.9L153.4,67.9c1-0.2,2,0.5,2.2,1.5l0,0l-3.8,0.7l0,0C151.7,69.1,152.3,68.1,153.4,67.9z"/>
					
						<rect x="152.4" y="62.7" transform="matrix(-0.9818 0.19 -0.19 -0.9818 315.5619 101.0004)" class="st1" width="1" height="5.8"/>
				</g>
			</g>
		</g>
	</g>
	<path class="st2" d="M153,51.8c0.3,0.8-1,2.1-2.9,2.9c-1.9,0.8-3.8,0.7-4.1-0.1c-0.3-0.8,1-2.1,2.9-2.9
		C150.8,50.9,152.6,51,153,51.8z"/>
	<path class="st2" d="M149,57.8c-0.1,0.3-0.8,0.4-1.5,0.3c-0.8-0.2-1.3-0.6-1.3-0.9c0.1-0.3,0.8-0.4,1.5-0.3
		C148.5,57.1,149.1,57.5,149,57.8z"/>
	<path class="st2" d="M151.8,55.5c0,0.3-0.3,0.7-0.9,0.7c-0.5,0.1-1-0.1-1-0.5c0-0.3,0.3-0.7,0.9-0.7
		C151.3,54.9,151.8,55.1,151.8,55.5z"/>
	<path class="st2" d="M145.3,56.1c-0.1,0.1-0.3,0.1-0.5,0c-0.2-0.1-0.3-0.4-0.2-0.5c0.1-0.1,0.3-0.1,0.5,0
		C145.3,55.8,145.4,56,145.3,56.1z"/>
	<path class="st2" d="M146.3,59.6c-0.1,0.3-0.6,0.5-1.1,0.4c-0.5-0.1-0.9-0.5-0.8-0.8c0.1-0.3,0.6-0.5,1.1-0.4
		C146,58.9,146.4,59.3,146.3,59.6z"/>
</g>
<g>
	<g>
		<g>
			<ellipse transform="matrix(0.9286 -0.3711 0.3711 0.9286 -21.0989 66.2847)" class="st1" cx="161.7" cy="88" rx="4" ry="4"/>
			<g>
				<g>
					<path class="st1" d="M164.4,91.6L164.4,91.6c0.4-0.3,1-0.2,1.2,0.2l0,0l-1.4,1.1l0,0C164,92.5,164,91.9,164.4,91.6z"/>
					
						<rect x="163.6" y="89.4" transform="matrix(-0.8005 0.5994 -0.5994 -0.8005 349.3419 65.2789)" class="st1" width="0.5" height="2.7"/>
				</g>
				<g>
					<path class="st1" d="M158.9,84.3L158.9,84.3c-0.4,0.3-1,0.2-1.2-0.2l0,0l1.4-1.1l0,0C159.4,83.4,159.3,84,158.9,84.3z"/>
					
						<rect x="159.3" y="83.8" transform="matrix(0.8005 -0.5994 0.5994 0.8005 -19.1931 112.6413)" class="st1" width="0.5" height="2.7"/>
				</g>
			</g>
			<g>
				<g>
					<path class="st1" d="M167.1,88.7L167.1,88.7c0.1-0.5,0.5-0.8,1-0.8l0,0l-0.3,1.8l0,0C167.4,89.7,167,89.2,167.1,88.7z"/>
					<polygon class="st1" points="163.8,88.5 163.9,88 167.4,88.5 167.4,89 					"/>
				</g>
				<g>
					<path class="st1" d="M157.2,87.3L157.2,87.3c-0.1,0.5-0.5,0.8-1,0.8l0,0l0.3-1.8l0,0C156.9,86.4,157.2,86.8,157.2,87.3z"/>
					
						<rect x="158" y="86.1" transform="matrix(0.1422 -0.9898 0.9898 0.1422 49.1345 231.6294)" class="st1" width="0.5" height="2.7"/>
				</g>
			</g>
			<g>
				<g>
					<path class="st1" d="M165.4,85.2L165.4,85.2c-0.3-0.4-0.2-1,0.2-1.2l0,0l1.1,1.4l0,0C166.2,85.7,165.7,85.6,165.4,85.2z"/>
					
						<rect x="164.3" y="84.5" transform="matrix(0.5994 0.8005 -0.8005 0.5994 134.6331 -97.292)" class="st1" width="0.5" height="2.7"/>
				</g>
				<g>
					<path class="st1" d="M157.2,91.3L157.2,91.3c0.3,0.4,0.2,1-0.2,1.2l0,0l-1.1-1.4l0,0C156.3,90.8,156.9,90.9,157.2,91.3z"/>
					<polygon class="st1" points="159.8,89.1 160.1,89.5 157.1,91.6 156.8,91.3 					"/>
				</g>
			</g>
			<g>
				<g>
					<path class="st1" d="M162.4,82.7L162.4,82.7c-0.5-0.1-0.8-0.5-0.8-1l0,0l1.8,0.3l0,0C163.3,82.4,162.9,82.8,162.4,82.7z"/>
					<polygon class="st1" points="162.2,85.8 161.8,85.8 162.2,82.4 162.7,82.5 					"/>
				</g>
				<g>
					<path class="st1" d="M161,92.5L161,92.5c0.5,0.1,0.8,0.5,0.8,1l0,0l-1.8-0.3l0,0C160.1,92.8,160.6,92.4,161,92.5z"/>
					
						<rect x="161" y="90.1" transform="matrix(-0.9898 -0.1422 0.1422 -0.9898 307.7384 204.9068)" class="st1" width="0.5" height="2.7"/>
				</g>
			</g>
		</g>
	</g>
	<path class="st2" d="M163.3,85.4c0,0.4-0.8,0.8-1.7,0.8s-1.8-0.3-1.8-0.7c0-0.4,0.8-0.8,1.7-0.8C162.5,84.7,163.3,85,163.3,85.4z"
		/>
	<path class="st2" d="M160.7,87.4c-0.1,0.1-0.4,0.1-0.7-0.1c-0.3-0.2-0.5-0.5-0.4-0.6c0.1-0.1,0.4-0.1,0.7,0.1
		C160.6,87,160.7,87.3,160.7,87.4z"/>
	<path class="st2" d="M162.3,86.8c0,0.2-0.2,0.2-0.5,0.2c-0.2,0-0.4-0.2-0.4-0.4c0-0.2,0.2-0.2,0.5-0.2
		C162.1,86.5,162.3,86.7,162.3,86.8z"/>
	<path class="st2" d="M159.3,86.1c-0.1,0-0.2,0-0.2-0.1c-0.1-0.1-0.1-0.2,0-0.2c0.1,0,0.2,0,0.2,0.1S159.3,86.1,159.3,86.1z"/>
	<path class="st2" d="M159.2,87.8c-0.1,0.1-0.3,0.1-0.5,0c-0.2-0.1-0.3-0.3-0.2-0.5c0.1-0.1,0.3-0.1,0.5,0
		C159.2,87.4,159.3,87.7,159.2,87.8z"/>
</g>
<g>
	<g>
		<g>
			
				<ellipse transform="matrix(0.6946 -0.7194 0.7194 0.6946 -83.0591 148.8653)" class="st1" cx="133.8" cy="172.2" rx="6.2" ry="6.2"/>
			<g>
				<g>
					<path class="st1" d="M140,175.7L140,175.7c0.4-0.7,1.2-0.9,1.9-0.5l0,0l-1.3,2.4l0,0C139.9,177.2,139.7,176.4,140,175.7z"/>
					
						<rect x="138.2" y="172.8" transform="matrix(-0.484 0.8751 -0.8751 -0.484 358.7026 138.2919)" class="st1" width="0.7" height="4.2"/>
				</g>
				<g>
					<path class="st1" d="M127.5,168.8L127.5,168.8c-0.4,0.7-1.2,0.9-1.9,0.5l0,0l1.3-2.4l0,0C127.7,167.3,127.9,168.1,127.5,168.8z
						"/>
					
						<rect x="128.6" y="167.5" transform="matrix(0.484 -0.8751 0.8751 0.484 -81.8506 200.3862)" class="st1" width="0.7" height="4.2"/>
				</g>
			</g>
			<g>
				<g>
					<path class="st1" d="M142,169.9L142,169.9c-0.2-0.7,0.2-1.5,0.9-1.7l0,0l0.8,2.7l0,0C142.9,171,142.2,170.6,142,169.9z"/>
					<polygon class="st1" points="137.1,171.7 136.9,171 142.3,169.4 142.5,170.1 					"/>
				</g>
				<g>
					<path class="st1" d="M126.9,174.2L126.9,174.2c0.2,0.7-0.2,1.5-0.9,1.7l0,0l-0.8-2.7l0,0C126,173.1,126.7,173.5,126.9,174.2z"
						/>
					
						<rect x="128.2" y="171.7" transform="matrix(-0.2765 -0.961 0.961 -0.2765 -2.9276 345.3248)" class="st1" width="0.7" height="4.2"/>
				</g>
			</g>
			<g>
				<g>
					<path class="st1" d="M137.2,166L137.2,166c-0.7-0.4-0.9-1.2-0.5-1.9l0,0l2.4,1.3l0,0C138.7,166.1,137.9,166.4,137.2,166z"/>
					
						<rect x="136.1" y="165.4" transform="matrix(0.875 0.484 -0.484 0.875 98.1044 -45.1167)" class="st1" width="0.7" height="4.2"/>
				</g>
				<g>
					<path class="st1" d="M129.5,179.8L129.5,179.8c0.7,0.4,0.9,1.2,0.5,1.9l0,0l-2.4-1.3l0,0C128,179.7,128.9,179.4,129.5,179.8z"
						/>
					<polygon class="st1" points="131.8,175 132.5,175.4 129.6,180.4 129,180 					"/>
				</g>
			</g>
			<g>
				<g>
					<path class="st1" d="M131.4,164.4L131.4,164.4c-0.7,0.2-1.5-0.2-1.7-0.9l0,0l2.7-0.8l0,0C132.6,163.4,132.2,164.1,131.4,164.4z
						"/>
					<polygon class="st1" points="133.2,168.9 132.5,169.1 131,164 131.7,163.8 					"/>
				</g>
				<g>
					<path class="st1" d="M135.8,179.1L135.8,179.1c0.7-0.2,1.5,0.2,1.7,0.9l0,0l-2.7,0.8l0,0C134.6,180.1,135,179.3,135.8,179.1z"
						/>
					
						<rect x="134.9" y="175.4" transform="matrix(-0.961 0.2765 -0.2765 -0.961 314.4055 310.701)" class="st1" width="0.7" height="4.2"/>
				</g>
			</g>
		</g>
	</g>
	<path class="st2" d="M134.4,167.6c0.3,0.6-0.6,1.6-1.9,2.3c-1.4,0.7-2.7,0.8-3,0.2c-0.3-0.6,0.6-1.6,1.9-2.3
		C132.8,167.1,134.1,167,134.4,167.6z"/>
	<path class="st2" d="M132,172.1c0,0.2-0.5,0.4-1.1,0.3c-0.6-0.1-1-0.3-1-0.6s0.5-0.4,1.1-0.3C131.6,171.6,132,171.9,132,172.1z"/>
	<path class="st2" d="M133.9,170.3c0.1,0.2-0.2,0.5-0.6,0.6c-0.4,0.1-0.7,0-0.8-0.3c-0.1-0.2,0.2-0.5,0.6-0.6
		C133.5,169.9,133.8,170,133.9,170.3z"/>
	<path class="st2" d="M129.2,171.2c-0.1,0.1-0.2,0.1-0.4,0c-0.2-0.1-0.2-0.2-0.2-0.3c0.1-0.1,0.2-0.1,0.4,0
		C129.2,170.9,129.2,171.1,129.2,171.2z"/>
	<path class="st2" d="M130.1,173.6c0,0.2-0.4,0.4-0.8,0.4c-0.4,0-0.7-0.3-0.6-0.5c0-0.2,0.4-0.4,0.8-0.4
		C129.9,173.1,130.2,173.4,130.1,173.6z"/>
</g>
</svg>
