<?xml version="1.0" encoding="utf-8"?>
<!-- Generator: Adobe Illustrator 22.0.1, SVG Export Plug-In . SVG Version: 6.00 Build 0)  -->
<svg version="1.1" id="Layer_1" xmlns="http://www.w3.org/2000/svg" xmlns:xlink="http://www.w3.org/1999/xlink" x="0px" y="0px"
	 viewBox="0 0 1200 950" style="enable-background:new 0 0 1200 950;" xml:space="preserve">
<style type="text/css">
	.st0{clip-path:url(#SVGID_2_);fill:#FFFFFF;}
	.st1{enable-background:new    ;}
	.st2{fill:#034F63;}
	.st3{clip-path:url(#SVGID_4_);fill:#D2E6B3;}
	.st4{clip-path:url(#SVGID_6_);fill:#D2E6B3;}
	.st5{clip-path:url(#SVGID_8_);fill:#D2E6B3;}
	.st6{clip-path:url(#SVGID_10_);fill:#D2E6B3;}
	.st7{clip-path:url(#SVGID_12_);fill:#FFCA07;}
	.st8{clip-path:url(#SVGID_14_);fill:#FFCA07;}
	.st9{clip-path:url(#SVGID_16_);fill:#055065;}
	.st10{clip-path:url(#SVGID_18_);fill:#055065;}
	.st11{clip-path:url(#SVGID_20_);fill:#FFCA07;}
	.st12{clip-path:url(#SVGID_22_);fill:#FFCA07;}
	.st13{clip-path:url(#SVGID_24_);fill:#055065;}
	.st14{clip-path:url(#SVGID_26_);fill:#055065;}
	.st15{clip-path:url(#SVGID_28_);fill:#FFCA07;}
	.st16{clip-path:url(#SVGID_30_);fill:#FFCA07;}
	.st17{clip-path:url(#SVGID_32_);fill:#00B5AD;}
	.st18{clip-path:url(#SVGID_34_);fill:#00B5AD;}
	.st19{clip-path:url(#SVGID_36_);fill:#FFCA07;}
	.st20{clip-path:url(#SVGID_38_);fill:#FFCA07;}
	.st21{clip-path:url(#SVGID_40_);fill:#00B5AD;}
	.st22{clip-path:url(#SVGID_42_);fill:#00B5AD;}
	.st23{fill:#A1CC5E;}
	.st24{fill:#FFC905;}
	.st25{fill:#FFFFFF;}
</style>
<g>
	<g>
		<defs>
			<rect id="SVGID_1_" y="0" width="1200" height="950"/>
		</defs>
		<clipPath id="SVGID_2_">
			<use xlink:href="#SVGID_1_"  style="overflow:visible;"/>
		</clipPath>
		<path class="st0" d="M1200,930c0,0,0,20-20,20H20c0,0-20,0-20-20V20C0,20,0,0,20,0h1160c0,0,20,0,20,20V930z"/>
	</g>
</g>
<g class="st1">
	<path class="st2" d="M85.8,671.3c0-6.9,1.7-13.4,5-19.6c0.3-0.4,0.6-0.8,1-1c0.4-0.2,0.8-0.3,1.2-0.3c0.5,0,0.8,0.1,1.1,0.4
		c0.3,0.3,0.4,0.6,0.4,1.1c0,0.3-0.1,0.7-0.2,0.9c-2.5,5.9-3.7,12.1-3.7,18.5c0,6.4,1.2,12.5,3.7,18.5c0.1,0.3,0.2,0.6,0.2,0.9
		c0,0.4-0.2,0.8-0.5,1.1c-0.3,0.3-0.7,0.4-1.1,0.4c-0.4,0-0.8-0.1-1.2-0.3c-0.4-0.2-0.7-0.6-1-1C87.4,684.7,85.8,678.2,85.8,671.3z"
		/>
</g>
<g class="st1">
	<path class="st2" d="M118.4,678.3c0.3,0.3,0.4,0.8,0.4,1.3c0,0.9-0.6,1.7-1.7,2.3c-1.1,0.6-2.3,1.1-3.6,1.4
		c-1.3,0.3-2.5,0.5-3.7,0.5c-3.6,0-6.4-1-8.5-3.1c-2.1-2.1-3.1-5-3.1-8.6c0-2.3,0.5-4.4,1.4-6.2c0.9-1.8,2.2-3.2,3.9-4.2
		c1.7-1,3.6-1.5,5.7-1.5c3,0,5.5,1,7.2,2.9c1.8,2,2.7,4.6,2.7,7.9c0,1.2-0.6,1.9-1.7,1.9H103c0.3,4.8,2.6,7.2,6.9,7.2
		c1.1,0,2.1-0.2,3-0.5c0.8-0.3,1.7-0.7,2.7-1.2c0.1-0.1,0.3-0.2,0.8-0.4c0.4-0.2,0.8-0.3,1-0.3C117.8,677.8,118.2,678,118.4,678.3z
		 M104.9,665.4c-1.1,1.2-1.7,2.8-2,4.8h12c-0.1-2.1-0.6-3.7-1.6-4.9s-2.4-1.7-4.1-1.7C107.5,663.7,106,664.2,104.9,665.4z"/>
</g>
<g class="st1">
	<path class="st2" d="M124.4,682.9c-0.6-0.6-0.9-1.3-0.9-2.1c0-0.9,0.3-1.6,0.9-2.2c0.6-0.6,1.3-0.9,2.1-0.9c0.8,0,1.5,0.3,2.1,0.9
		s0.8,1.3,0.8,2.2c0,0.9-0.3,1.6-0.8,2.1c-0.6,0.6-1.3,0.8-2.1,0.8C125.7,683.8,125,683.5,124.4,682.9z"/>
</g>
<g class="st1">
	<path class="st2" d="M155.2,660.9c0.4,0.4,0.6,1,0.6,1.7v19.1c0,3.5-0.9,6.1-2.8,7.9c-1.8,1.8-4.6,2.7-8.2,2.7
		c-3.4,0-6.2-0.6-8.4-1.9c-1.2-0.7-1.7-1.4-1.7-2.3c0-0.5,0.1-1,0.4-1.3s0.7-0.5,1.1-0.5c0.4,0,1,0.2,1.9,0.7
		c1.1,0.5,2.2,0.9,3.1,1.2c1,0.3,2.1,0.4,3.4,0.4c4.3,0,6.4-2.2,6.4-6.5v-3.6c-0.7,1.4-1.6,2.4-3,3.2c-1.3,0.8-2.9,1.1-4.7,1.1
		c-2,0-3.8-0.5-5.3-1.4c-1.6-0.9-2.8-2.3-3.6-4c-0.9-1.7-1.3-3.7-1.3-5.9c0-2.2,0.4-4.2,1.3-5.9c0.9-1.7,2.1-3,3.6-4
		s3.3-1.4,5.3-1.4c1.7,0,3.3,0.4,4.6,1.1c1.3,0.7,2.3,1.8,3,3.2v-2c0-0.7,0.2-1.2,0.6-1.6c0.4-0.4,1-0.6,1.7-0.6
		C154.2,660.3,154.8,660.5,155.2,660.9z M149.4,677.1c1.1-1.3,1.7-3.2,1.7-5.5c0-2.3-0.6-4.2-1.7-5.5c-1.1-1.4-2.7-2-4.8-2
		s-3.7,0.7-4.8,2c-1.2,1.3-1.7,3.2-1.7,5.5c0,2.4,0.6,4.2,1.8,5.5c1.2,1.3,2.8,2,4.8,2C146.7,679.1,148.3,678.4,149.4,677.1z"/>
	<path class="st2" d="M162.6,682.9c-0.6-0.6-0.9-1.3-0.9-2.1c0-0.9,0.3-1.6,0.9-2.2c0.6-0.6,1.3-0.9,2.1-0.9c0.8,0,1.5,0.3,2.1,0.9
		s0.8,1.3,0.8,2.2c0,0.9-0.3,1.6-0.8,2.1c-0.6,0.6-1.3,0.8-2.1,0.8C163.8,683.8,163.1,683.5,162.6,682.9z"/>
</g>
<g class="st1">
	<path class="st2" d="M185.8,683.2c-0.5-0.4-0.7-0.9-0.7-1.7v-28.8c0-0.7,0.2-1.3,0.7-1.7c0.5-0.4,1-0.6,1.7-0.6
		c0.7,0,1.2,0.2,1.7,0.6c0.4,0.4,0.7,1,0.7,1.7v28.8c0,0.7-0.2,1.3-0.7,1.7c-0.4,0.4-1,0.6-1.7,0.6
		C186.9,683.8,186.3,683.6,185.8,683.2z"/>
	<path class="st2" d="M196.7,655c-0.5-0.5-0.8-1.1-0.8-2c0-0.8,0.3-1.5,0.8-1.9c0.5-0.5,1.2-0.7,2.1-0.7c0.9,0,1.6,0.2,2.1,0.7
		c0.5,0.5,0.8,1.1,0.8,1.9c0,0.8-0.3,1.5-0.8,2c-0.5,0.5-1.2,0.7-2.1,0.7C197.9,655.7,197.2,655.5,196.7,655z M197.1,683.2
		c-0.5-0.4-0.7-0.9-0.7-1.7v-18.9c0-0.7,0.2-1.3,0.7-1.7c0.5-0.4,1-0.6,1.7-0.6c0.7,0,1.2,0.2,1.7,0.6c0.4,0.4,0.7,1,0.7,1.7v18.9
		c0,0.7-0.2,1.3-0.7,1.7c-0.4,0.4-1,0.6-1.7,0.6C198.1,683.8,197.6,683.6,197.1,683.2z"/>
	<path class="st2" d="M225.2,661.7c1.5,1,2.7,2.3,3.6,4.1c0.9,1.8,1.3,3.8,1.3,6.2c0,2.3-0.4,4.4-1.3,6.2c-0.9,1.8-2.1,3.2-3.6,4.2
		c-1.5,1-3.3,1.5-5.2,1.5c-1.7,0-3.2-0.4-4.5-1.1c-1.3-0.7-2.3-1.8-3-3.1v1.9c0,0.7-0.2,1.2-0.6,1.7c-0.4,0.4-1,0.6-1.7,0.6
		c-0.7,0-1.3-0.2-1.7-0.6c-0.4-0.4-0.7-1-0.7-1.7v-28.8c0-0.7,0.2-1.2,0.7-1.6c0.5-0.4,1-0.6,1.7-0.6c0.7,0,1.2,0.2,1.7,0.6
		c0.4,0.4,0.6,0.9,0.6,1.6v11.9c0.7-1.4,1.7-2.4,3-3.2c1.3-0.7,2.8-1.1,4.5-1.1C221.9,660.2,223.7,660.7,225.2,661.7z M223.6,678
		c1.1-1.4,1.7-3.4,1.7-6c0-2.5-0.6-4.5-1.7-5.9c-1.1-1.4-2.7-2.1-4.8-2.1s-3.6,0.7-4.7,2.1c-1.1,1.4-1.7,3.4-1.7,6
		c0,2.6,0.6,4.6,1.7,6c1.1,1.4,2.7,2.1,4.7,2.1C220.8,680.1,222.4,679.4,223.6,678z"/>
</g>
<g class="st1">
	<path class="st2" d="M249.4,662.2c0,0.7-0.2,1.2-0.5,1.5c-0.3,0.3-0.9,0.5-1.8,0.6l-1.4,0.1c-2,0.2-3.4,0.9-4.4,2.1
		c-0.9,1.2-1.4,2.6-1.4,4.3v10.7c0,0.7-0.2,1.3-0.7,1.7c-0.4,0.4-1,0.6-1.7,0.6c-0.7,0-1.3-0.2-1.7-0.6c-0.5-0.4-0.7-0.9-0.7-1.7
		v-19c0-0.7,0.2-1.3,0.7-1.7c0.5-0.4,1-0.6,1.7-0.6c0.6,0,1.1,0.2,1.6,0.6s0.6,0.9,0.6,1.6v2.2c0.6-1.4,1.5-2.4,2.7-3.1
		c1.2-0.7,2.5-1.1,4-1.3l0.7,0C248.7,660.2,249.4,660.8,249.4,662.2z"/>
</g>
<g class="st1">
	<path class="st2" d="M268.6,662.5c1.5,1.5,2.2,3.8,2.2,6.9v12.1c0,0.7-0.2,1.3-0.6,1.7c-0.4,0.4-1,0.6-1.7,0.6
		c-0.7,0-1.2-0.2-1.6-0.6c-0.4-0.4-0.6-0.9-0.6-1.6v-1.7c-0.6,1.3-1.5,2.3-2.6,3s-2.5,1-4.1,1c-1.5,0-2.9-0.3-4.1-0.9
		c-1.2-0.6-2.2-1.4-2.9-2.5c-0.7-1.1-1.1-2.3-1.1-3.6c0-1.7,0.4-3,1.3-3.9c0.9-0.9,2.3-1.6,4.2-2.1s4.7-0.6,8.2-0.6h1.1v-1.4
		c0-1.7-0.4-3-1.1-3.8c-0.7-0.8-1.9-1.2-3.4-1.2c-1.1,0-2.1,0.1-3.1,0.4c-1,0.3-2,0.7-3.2,1.2c-0.8,0.5-1.4,0.7-1.8,0.7
		c-0.5,0-0.8-0.2-1.1-0.5c-0.3-0.3-0.4-0.8-0.4-1.3c0-0.5,0.1-0.9,0.4-1.2c0.3-0.4,0.7-0.7,1.3-1c1.1-0.6,2.4-1.1,3.8-1.4
		c1.5-0.4,2.9-0.5,4.2-0.5C264.8,660.2,267.1,661,268.6,662.5z M264.6,678.6c1.1-1.2,1.6-2.7,1.6-4.5v-1.2h-0.8
		c-2.4,0-4.3,0.1-5.6,0.3c-1.3,0.2-2.2,0.6-2.8,1.1c-0.6,0.5-0.8,1.3-0.8,2.2c0,1.1,0.4,2,1.2,2.8c0.8,0.7,1.8,1.1,3,1.1
		C262.1,680.4,263.5,679.8,264.6,678.6z"/>
	<path class="st2" d="M291.4,662.2c0,0.7-0.2,1.2-0.5,1.5c-0.3,0.3-0.9,0.5-1.8,0.6l-1.4,0.1c-2,0.2-3.4,0.9-4.4,2.1
		c-0.9,1.2-1.4,2.6-1.4,4.3v10.7c0,0.7-0.2,1.3-0.7,1.7c-0.4,0.4-1,0.6-1.7,0.6c-0.7,0-1.3-0.2-1.7-0.6c-0.5-0.4-0.7-0.9-0.7-1.7
		v-19c0-0.7,0.2-1.3,0.7-1.7c0.5-0.4,1-0.6,1.7-0.6c0.6,0,1.1,0.2,1.6,0.6s0.6,0.9,0.6,1.6v2.2c0.6-1.4,1.5-2.4,2.7-3.1
		c1.2-0.7,2.5-1.1,4-1.3l0.7,0C290.6,660.2,291.4,660.8,291.4,662.2z"/>
	<path class="st2" d="M294.5,655c-0.5-0.5-0.8-1.1-0.8-2c0-0.8,0.3-1.5,0.8-1.9c0.5-0.5,1.2-0.7,2.1-0.7c0.9,0,1.6,0.2,2.1,0.7
		c0.5,0.5,0.8,1.1,0.8,1.9c0,0.8-0.3,1.5-0.8,2c-0.5,0.5-1.2,0.7-2.1,0.7C295.7,655.7,295,655.5,294.5,655z M294.9,683.2
		c-0.5-0.4-0.7-0.9-0.7-1.7v-18.9c0-0.7,0.2-1.3,0.7-1.7c0.5-0.4,1-0.6,1.7-0.6c0.7,0,1.2,0.2,1.7,0.6c0.4,0.4,0.7,1,0.7,1.7v18.9
		c0,0.7-0.2,1.3-0.7,1.7c-0.4,0.4-1,0.6-1.7,0.6C296,683.8,295.4,683.6,294.9,683.2z"/>
	<path class="st2" d="M324.4,678.3c0.3,0.3,0.4,0.8,0.4,1.3c0,0.9-0.6,1.7-1.7,2.3c-1.1,0.6-2.3,1.1-3.6,1.4
		c-1.3,0.3-2.5,0.5-3.7,0.5c-3.6,0-6.4-1-8.5-3.1c-2.1-2.1-3.1-5-3.1-8.6c0-2.3,0.5-4.4,1.4-6.2c0.9-1.8,2.2-3.2,3.9-4.2
		c1.7-1,3.6-1.5,5.7-1.5c3,0,5.5,1,7.2,2.9c1.8,2,2.7,4.6,2.7,7.9c0,1.2-0.6,1.9-1.7,1.9H309c0.3,4.8,2.6,7.2,6.9,7.2
		c1.1,0,2.1-0.2,3-0.5c0.8-0.3,1.7-0.7,2.7-1.2c0.1-0.1,0.3-0.2,0.8-0.4c0.4-0.2,0.8-0.3,1-0.3C323.8,677.8,324.1,678,324.4,678.3z
		 M310.9,665.4c-1.1,1.2-1.7,2.8-2,4.8h12c-0.1-2.1-0.6-3.7-1.6-4.9s-2.4-1.7-4.1-1.7C313.4,663.7,312,664.2,310.9,665.4z"/>
</g>
<g class="st1">
	<path class="st2" d="M330.3,681.9c-0.6-0.3-1-0.7-1.2-1.1c-0.2-0.4-0.3-0.8-0.3-1.3c0-0.5,0.1-0.9,0.4-1.3c0.3-0.3,0.6-0.5,1.1-0.5
		c0.4,0,1,0.2,1.9,0.7c0.9,0.5,1.8,0.9,2.7,1.2c0.9,0.3,2,0.5,3.3,0.5c1.5,0,2.7-0.3,3.5-0.8c0.8-0.5,1.3-1.3,1.3-2.2
		c0-0.6-0.2-1.1-0.5-1.5s-0.9-0.7-1.7-1c-0.8-0.3-2-0.6-3.6-1c-2.7-0.6-4.7-1.4-5.9-2.4c-1.2-1-1.8-2.4-1.8-4.1
		c0-1.3,0.4-2.5,1.2-3.6c0.8-1.1,1.8-1.9,3.2-2.5c1.4-0.6,2.9-0.9,4.7-0.9c1.2,0,2.5,0.2,3.6,0.5s2.2,0.8,3.1,1.4
		c1,0.7,1.5,1.5,1.5,2.4c0,0.5-0.1,0.9-0.4,1.3c-0.3,0.3-0.6,0.5-1,0.5c-0.3,0-0.6-0.1-0.8-0.2s-0.7-0.3-1.1-0.6
		c-0.8-0.5-1.6-0.9-2.4-1.2c-0.7-0.3-1.6-0.4-2.7-0.4c-1.3,0-2.4,0.3-3.1,0.8c-0.8,0.6-1.2,1.3-1.2,2.3c0,0.9,0.4,1.5,1.1,2
		c0.7,0.5,2.1,0.9,4.1,1.4c2.1,0.4,3.7,0.9,4.9,1.5c1.2,0.6,2,1.3,2.5,2.1c0.5,0.8,0.8,1.9,0.8,3.1c0,2-0.8,3.6-2.5,4.9
		c-1.7,1.2-4,1.8-6.8,1.8C334.9,683.8,332.3,683.2,330.3,681.9z"/>
</g>
<g class="st1">
	<path class="st2" d="M356.8,678.8c0.5,0.7,0.8,1.7,0.8,3c0,2.6-0.9,4.9-2.7,6.9c-0.4,0.4-0.8,0.6-1.2,0.6c-0.4,0-0.7-0.1-1-0.4
		s-0.4-0.6-0.4-1c0-0.3,0.1-0.6,0.4-1c0.9-0.9,1.4-2,1.7-3.2c-0.8-0.1-1.4-0.4-1.9-0.9c-0.5-0.5-0.8-1.2-0.8-2
		c0-0.9,0.3-1.6,0.8-2.2s1.2-0.9,2.1-0.9C355.5,677.7,356.2,678.1,356.8,678.8z"/>
</g>
<g class="st1">
	<path class="st2" d="M408.9,669.4v12.1c0,0.7-0.2,1.3-0.7,1.7c-0.4,0.4-1,0.6-1.7,0.6c-0.7,0-1.2-0.2-1.7-0.6
		c-0.4-0.4-0.7-0.9-0.7-1.7v-12.1c0-1.9-0.3-3.3-1-4.1c-0.7-0.9-1.8-1.3-3.2-1.3c-1.7,0-3.1,0.6-4.1,1.7c-1,1.2-1.5,2.8-1.5,4.8v11
		c0,0.7-0.2,1.3-0.7,1.7c-0.4,0.4-1,0.6-1.7,0.6c-0.7,0-1.2-0.2-1.7-0.6c-0.4-0.4-0.7-0.9-0.7-1.7v-12.1c0-1.9-0.3-3.3-1-4.1
		c-0.7-0.9-1.8-1.3-3.2-1.3c-1.7,0-3.1,0.6-4.1,1.7c-1,1.2-1.5,2.8-1.5,4.8v11c0,0.7-0.2,1.3-0.7,1.7c-0.4,0.4-1,0.6-1.7,0.6
		c-0.7,0-1.3-0.2-1.7-0.6c-0.5-0.4-0.7-0.9-0.7-1.7v-19c0-0.7,0.2-1.2,0.7-1.6c0.5-0.4,1-0.6,1.7-0.6c0.7,0,1.2,0.2,1.6,0.6
		c0.4,0.4,0.6,0.9,0.6,1.6v1.7c0.7-1.3,1.6-2.3,2.8-3c1.2-0.7,2.6-1,4.2-1c1.7,0,3.2,0.4,4.3,1.1c1.1,0.7,2,1.8,2.5,3.3
		c0.7-1.3,1.7-2.4,3-3.2c1.3-0.8,2.9-1.2,4.6-1.2C406.4,660.2,408.9,663.3,408.9,669.4z"/>
	<path class="st2" d="M434.7,660.9c0.4,0.4,0.6,1,0.6,1.7v19c0,0.7-0.2,1.2-0.7,1.6c-0.4,0.4-1,0.6-1.7,0.6c-0.7,0-1.2-0.2-1.6-0.6
		c-0.4-0.4-0.6-0.9-0.6-1.6v-1.8c-0.7,1.3-1.7,2.3-3,3s-2.7,1-4.2,1c-5.5,0-8.3-3-8.3-9.1v-12.1c0-0.7,0.2-1.3,0.6-1.7
		c0.4-0.4,1-0.6,1.7-0.6c0.7,0,1.3,0.2,1.7,0.6c0.4,0.4,0.6,1,0.6,1.7v12.1c0,1.8,0.4,3.2,1.1,4.1s1.9,1.3,3.4,1.3
		c1.8,0,3.3-0.6,4.4-1.8c1.1-1.2,1.7-2.8,1.7-4.7v-11c0-0.7,0.2-1.2,0.7-1.7c0.4-0.4,1-0.6,1.7-0.6
		C433.7,660.3,434.3,660.5,434.7,660.9z"/>
	<path class="st2" d="M442,681.9c-0.6-0.3-1-0.7-1.2-1.1c-0.2-0.4-0.3-0.8-0.3-1.3c0-0.5,0.1-0.9,0.4-1.3c0.3-0.3,0.6-0.5,1.1-0.5
		c0.4,0,1,0.2,1.9,0.7c0.9,0.5,1.8,0.9,2.7,1.2c0.9,0.3,2,0.5,3.3,0.5c1.5,0,2.7-0.3,3.5-0.8c0.8-0.5,1.3-1.3,1.3-2.2
		c0-0.6-0.2-1.1-0.5-1.5s-0.9-0.7-1.7-1c-0.8-0.3-2-0.6-3.6-1c-2.7-0.6-4.7-1.4-5.9-2.4c-1.2-1-1.8-2.4-1.8-4.1
		c0-1.3,0.4-2.5,1.2-3.6c0.8-1.1,1.8-1.9,3.2-2.5c1.4-0.6,2.9-0.9,4.7-0.9c1.2,0,2.5,0.2,3.6,0.5s2.2,0.8,3.1,1.4
		c1,0.7,1.5,1.5,1.5,2.4c0,0.5-0.1,0.9-0.4,1.3c-0.3,0.3-0.6,0.5-1,0.5c-0.3,0-0.6-0.1-0.8-0.2s-0.7-0.3-1.1-0.6
		c-0.8-0.5-1.6-0.9-2.4-1.2c-0.7-0.3-1.6-0.4-2.7-0.4c-1.3,0-2.4,0.3-3.1,0.8c-0.8,0.6-1.2,1.3-1.2,2.3c0,0.9,0.4,1.5,1.1,2
		c0.7,0.5,2.1,0.9,4.1,1.4c2.1,0.4,3.7,0.9,4.9,1.5c1.2,0.6,2,1.3,2.5,2.1c0.5,0.8,0.8,1.9,0.8,3.1c0,2-0.8,3.6-2.5,4.9
		c-1.7,1.2-4,1.8-6.8,1.8C446.6,683.8,444,683.2,442,681.9z"/>
	<path class="st2" d="M483.2,678.3c0.3,0.3,0.4,0.8,0.4,1.3c0,0.9-0.6,1.7-1.7,2.3c-1.1,0.6-2.3,1.1-3.6,1.4
		c-1.3,0.3-2.5,0.5-3.7,0.5c-3.6,0-6.4-1-8.5-3.1c-2.1-2.1-3.1-5-3.1-8.6c0-2.3,0.5-4.4,1.4-6.2c0.9-1.8,2.2-3.2,3.9-4.2
		c1.7-1,3.6-1.5,5.7-1.5c3,0,5.5,1,7.2,2.9c1.8,2,2.7,4.6,2.7,7.9c0,1.2-0.6,1.9-1.7,1.9h-14.4c0.3,4.8,2.6,7.2,6.9,7.2
		c1.1,0,2.1-0.2,3-0.5c0.8-0.3,1.7-0.7,2.7-1.2c0.1-0.1,0.3-0.2,0.8-0.4c0.4-0.2,0.8-0.3,1-0.3C482.6,677.8,482.9,678,483.2,678.3z
		 M469.7,665.4c-1.1,1.2-1.7,2.8-2,4.8h12c-0.1-2.1-0.6-3.7-1.6-4.9s-2.4-1.7-4.1-1.7C472.2,663.7,470.8,664.2,469.7,665.4z"/>
	<path class="st2" d="M508.3,660.9c0.4,0.4,0.6,1,0.6,1.7v19c0,0.7-0.2,1.2-0.7,1.6c-0.4,0.4-1,0.6-1.7,0.6c-0.7,0-1.2-0.2-1.6-0.6
		c-0.4-0.4-0.6-0.9-0.6-1.6v-1.8c-0.7,1.3-1.7,2.3-3,3s-2.7,1-4.2,1c-5.5,0-8.3-3-8.3-9.1v-12.1c0-0.7,0.2-1.3,0.6-1.7
		c0.4-0.4,1-0.6,1.7-0.6c0.7,0,1.3,0.2,1.7,0.6c0.4,0.4,0.6,1,0.6,1.7v12.1c0,1.8,0.4,3.2,1.1,4.1s1.9,1.3,3.4,1.3
		c1.8,0,3.3-0.6,4.4-1.8c1.1-1.2,1.7-2.8,1.7-4.7v-11c0-0.7,0.2-1.2,0.7-1.7c0.4-0.4,1-0.6,1.7-0.6
		C507.3,660.3,507.9,660.5,508.3,660.9z"/>
	<path class="st2" d="M549.3,669.4v12.1c0,0.7-0.2,1.3-0.7,1.7s-1,0.6-1.7,0.6c-0.7,0-1.2-0.2-1.7-0.6c-0.4-0.4-0.7-0.9-0.7-1.7
		v-12.1c0-1.9-0.3-3.3-1-4.1c-0.7-0.9-1.8-1.3-3.2-1.3c-1.7,0-3.1,0.6-4.1,1.7c-1,1.2-1.5,2.8-1.5,4.8v11c0,0.7-0.2,1.3-0.7,1.7
		s-1,0.6-1.7,0.6c-0.7,0-1.2-0.2-1.7-0.6s-0.7-0.9-0.7-1.7v-12.1c0-1.9-0.3-3.3-1-4.1c-0.7-0.9-1.8-1.3-3.2-1.3
		c-1.7,0-3.1,0.6-4.1,1.7c-1,1.2-1.5,2.8-1.5,4.8v11c0,0.7-0.2,1.3-0.7,1.7c-0.4,0.4-1,0.6-1.7,0.6s-1.2-0.2-1.7-0.6
		s-0.7-0.9-0.7-1.7v-19c0-0.7,0.2-1.2,0.7-1.6c0.5-0.4,1-0.6,1.7-0.6c0.7,0,1.2,0.2,1.6,0.6s0.6,0.9,0.6,1.6v1.7
		c0.7-1.3,1.6-2.3,2.8-3c1.2-0.7,2.6-1,4.2-1c1.7,0,3.2,0.4,4.3,1.1s2,1.8,2.5,3.3c0.7-1.3,1.7-2.4,3-3.2c1.3-0.8,2.9-1.2,4.6-1.2
		C546.7,660.2,549.3,663.3,549.3,669.4z"/>
</g>
<g class="st1">
	<path class="st2" d="M555.9,681.9c-0.6-0.3-1-0.7-1.2-1.1c-0.2-0.4-0.3-0.8-0.3-1.3c0-0.5,0.1-0.9,0.4-1.3c0.3-0.3,0.6-0.5,1.1-0.5
		c0.4,0,1,0.2,1.9,0.7c0.9,0.5,1.8,0.9,2.7,1.2c0.9,0.3,2,0.5,3.3,0.5c1.5,0,2.7-0.3,3.5-0.8c0.8-0.5,1.3-1.3,1.3-2.2
		c0-0.6-0.2-1.1-0.5-1.5s-0.9-0.7-1.7-1c-0.8-0.3-2-0.6-3.6-1c-2.7-0.6-4.7-1.4-5.9-2.4c-1.2-1-1.8-2.4-1.8-4.1
		c0-1.3,0.4-2.5,1.2-3.6c0.8-1.1,1.8-1.9,3.2-2.5c1.4-0.6,2.9-0.9,4.7-0.9c1.2,0,2.5,0.2,3.6,0.5s2.2,0.8,3.1,1.4
		c1,0.7,1.5,1.5,1.5,2.4c0,0.5-0.1,0.9-0.4,1.3c-0.3,0.3-0.6,0.5-1,0.5c-0.3,0-0.6-0.1-0.8-0.2s-0.7-0.3-1.1-0.6
		c-0.8-0.5-1.6-0.9-2.4-1.2c-0.7-0.3-1.6-0.4-2.7-0.4c-1.3,0-2.4,0.3-3.1,0.8c-0.8,0.6-1.2,1.3-1.2,2.3c0,0.9,0.4,1.5,1.1,2
		c0.7,0.5,2.1,0.9,4.1,1.4c2.1,0.4,3.7,0.9,4.9,1.5c1.2,0.6,2,1.3,2.5,2.1c0.5,0.8,0.8,1.9,0.8,3.1c0,2-0.8,3.6-2.5,4.9
		c-1.7,1.2-4,1.8-6.8,1.8C560.5,683.8,557.9,683.2,555.9,681.9z"/>
</g>
<g class="st1">
	<path class="st2" d="M582.4,678.8c0.5,0.7,0.8,1.7,0.8,3c0,2.6-0.9,4.9-2.7,6.9c-0.4,0.4-0.8,0.6-1.2,0.6c-0.4,0-0.7-0.1-1-0.4
		s-0.4-0.6-0.4-1c0-0.3,0.1-0.6,0.4-1c0.9-0.9,1.4-2,1.7-3.2c-0.8-0.1-1.4-0.4-1.9-0.9c-0.5-0.5-0.8-1.2-0.8-2
		c0-0.9,0.3-1.6,0.8-2.2s1.2-0.9,2.1-0.9C581.1,677.7,581.8,678.1,582.4,678.8z"/>
</g>
<g class="st1">
	<path class="st2" d="M88.2,744.6c-1.7-1-3-2.3-3.9-4.1c-0.9-1.8-1.4-3.8-1.4-6.2c0-2.4,0.5-4.4,1.4-6.2c0.9-1.8,2.3-3.2,4-4.2
		c1.7-1,3.7-1.5,5.9-1.5c1.2,0,2.4,0.2,3.6,0.5c1.2,0.3,2.3,0.8,3.2,1.4c1,0.7,1.5,1.5,1.5,2.4c0,0.5-0.1,1-0.4,1.3
		c-0.3,0.4-0.6,0.5-1.1,0.5c-0.3,0-0.6-0.1-0.8-0.2c-0.3-0.1-0.6-0.3-1.1-0.6c-0.8-0.5-1.5-0.9-2.2-1.1c-0.7-0.3-1.5-0.4-2.4-0.4
		c-2.1,0-3.8,0.7-4.9,2.1c-1.2,1.4-1.7,3.4-1.7,6c0,2.5,0.6,4.5,1.7,5.9c1.1,1.4,2.8,2.1,4.9,2.1c0.9,0,1.8-0.1,2.5-0.4
		c0.7-0.3,1.4-0.7,2.2-1.1c0.3-0.2,0.7-0.4,1-0.6c0.3-0.2,0.7-0.2,0.9-0.2c0.4,0,0.8,0.2,1.1,0.5c0.3,0.4,0.4,0.8,0.4,1.3
		c0,0.4-0.1,0.8-0.3,1.2c-0.2,0.4-0.6,0.7-1.2,1.1c-0.9,0.6-2,1.1-3.3,1.4c-1.2,0.3-2.5,0.5-3.8,0.5C91.8,746,89.9,745.5,88.2,744.6
		z"/>
	<path class="st2" d="M107,717.1c-0.5-0.5-0.8-1.1-0.8-2c0-0.8,0.3-1.5,0.8-1.9c0.5-0.5,1.2-0.7,2.1-0.7c0.9,0,1.6,0.2,2.1,0.7
		c0.5,0.5,0.8,1.1,0.8,1.9c0,0.8-0.3,1.5-0.8,2c-0.5,0.5-1.2,0.7-2.1,0.7C108.3,717.9,107.5,717.6,107,717.1z M107.5,745.4
		c-0.5-0.4-0.7-0.9-0.7-1.7v-18.9c0-0.7,0.2-1.3,0.7-1.7c0.5-0.4,1-0.6,1.7-0.6c0.7,0,1.2,0.2,1.7,0.6c0.4,0.4,0.7,1,0.7,1.7v18.9
		c0,0.7-0.2,1.3-0.7,1.7c-0.4,0.4-1,0.6-1.7,0.6C108.5,745.9,107.9,745.7,107.5,745.4z"/>
	<path class="st2" d="M138.5,731.6v12.1c0,0.7-0.2,1.3-0.6,1.7c-0.4,0.4-1,0.6-1.7,0.6c-0.7,0-1.3-0.2-1.7-0.6s-0.6-0.9-0.6-1.6
		v-11.9c0-1.9-0.4-3.3-1.1-4.2c-0.8-0.9-2-1.4-3.6-1.4c-1.9,0-3.4,0.6-4.6,1.8c-1.1,1.2-1.7,2.8-1.7,4.8v11c0,0.7-0.2,1.2-0.6,1.6
		c-0.4,0.4-1,0.6-1.7,0.6c-0.7,0-1.3-0.2-1.7-0.6c-0.4-0.4-0.7-0.9-0.7-1.6v-19c0-0.7,0.2-1.2,0.7-1.6c0.5-0.4,1-0.6,1.7-0.6
		c0.7,0,1.2,0.2,1.6,0.6c0.4,0.4,0.6,0.9,0.6,1.6v1.9c0.7-1.4,1.8-2.4,3.1-3.1c1.3-0.7,2.8-1.1,4.5-1.1
		C135.8,722.4,138.5,725.4,138.5,731.6z"/>
	<path class="st2" d="M163.8,740.5c0.3,0.3,0.4,0.8,0.4,1.3c0,0.9-0.6,1.7-1.7,2.3c-1.1,0.6-2.3,1.1-3.6,1.4
		c-1.3,0.3-2.5,0.5-3.7,0.5c-3.6,0-6.4-1-8.5-3.1c-2.1-2.1-3.1-5-3.1-8.6c0-2.3,0.5-4.4,1.4-6.2c0.9-1.8,2.2-3.2,3.9-4.2
		c1.7-1,3.6-1.5,5.7-1.5c3,0,5.5,1,7.2,2.9c1.8,2,2.7,4.6,2.7,7.9c0,1.2-0.6,1.9-1.7,1.9h-14.4c0.3,4.8,2.6,7.2,6.9,7.2
		c1.1,0,2.1-0.2,3-0.5c0.8-0.3,1.7-0.7,2.7-1.2c0.1-0.1,0.3-0.2,0.8-0.4c0.4-0.2,0.8-0.3,1-0.3C163.2,739.9,163.5,740.1,163.8,740.5
		z M150.3,727.5c-1.1,1.2-1.7,2.8-2,4.8h12c-0.1-2.1-0.6-3.7-1.6-4.9s-2.4-1.7-4.1-1.7C152.8,725.8,151.4,726.4,150.3,727.5z"/>
	<path class="st2" d="M203.3,731.6v12.1c0,0.7-0.2,1.3-0.7,1.7c-0.4,0.4-1,0.6-1.7,0.6c-0.7,0-1.2-0.2-1.7-0.6
		c-0.4-0.4-0.7-0.9-0.7-1.7v-12.1c0-1.9-0.3-3.3-1-4.1c-0.7-0.9-1.8-1.3-3.2-1.3c-1.7,0-3.1,0.6-4.1,1.7c-1,1.2-1.5,2.8-1.5,4.8v11
		c0,0.7-0.2,1.3-0.7,1.7c-0.4,0.4-1,0.6-1.7,0.6c-0.7,0-1.2-0.2-1.7-0.6c-0.4-0.4-0.7-0.9-0.7-1.7v-12.1c0-1.9-0.3-3.3-1-4.1
		c-0.7-0.9-1.8-1.3-3.2-1.3c-1.7,0-3.1,0.6-4.1,1.7c-1,1.2-1.5,2.8-1.5,4.8v11c0,0.7-0.2,1.3-0.7,1.7c-0.4,0.4-1,0.6-1.7,0.6
		c-0.7,0-1.3-0.2-1.7-0.6c-0.5-0.4-0.7-0.9-0.7-1.7v-19c0-0.7,0.2-1.2,0.7-1.6c0.5-0.4,1-0.6,1.7-0.6c0.7,0,1.2,0.2,1.6,0.6
		c0.4,0.4,0.6,0.9,0.6,1.6v1.7c0.7-1.3,1.6-2.3,2.8-3c1.2-0.7,2.6-1,4.2-1c1.7,0,3.2,0.4,4.3,1.1c1.1,0.7,2,1.8,2.5,3.3
		c0.7-1.3,1.7-2.4,3-3.2c1.3-0.8,2.9-1.2,4.6-1.2C200.8,722.4,203.3,725.4,203.3,731.6z"/>
	<path class="st2" d="M226.1,724.7c1.5,1.5,2.2,3.8,2.2,6.9v12.1c0,0.7-0.2,1.3-0.6,1.7c-0.4,0.4-1,0.6-1.7,0.6
		c-0.7,0-1.2-0.2-1.6-0.6c-0.4-0.4-0.6-0.9-0.6-1.6V742c-0.6,1.3-1.5,2.3-2.6,3s-2.5,1-4.1,1c-1.5,0-2.9-0.3-4.1-0.9
		c-1.2-0.6-2.2-1.4-2.9-2.5c-0.7-1.1-1.1-2.3-1.1-3.6c0-1.7,0.4-3,1.3-3.9c0.9-0.9,2.3-1.6,4.2-2.1s4.7-0.6,8.2-0.6h1.1V731
		c0-1.7-0.4-3-1.1-3.8c-0.7-0.8-1.9-1.2-3.4-1.2c-1.1,0-2.1,0.1-3.1,0.4c-1,0.3-2,0.7-3.2,1.2c-0.8,0.5-1.4,0.7-1.8,0.7
		c-0.5,0-0.8-0.2-1.1-0.5c-0.3-0.3-0.4-0.8-0.4-1.3c0-0.5,0.1-0.9,0.4-1.2c0.3-0.4,0.7-0.7,1.3-1c1.1-0.6,2.4-1.1,3.8-1.4
		c1.5-0.4,2.9-0.5,4.2-0.5C222.3,722.4,224.6,723.1,226.1,724.7z M222.1,740.8c1.1-1.2,1.6-2.7,1.6-4.5v-1.2h-0.8
		c-2.4,0-4.3,0.1-5.6,0.3c-1.3,0.2-2.2,0.6-2.8,1.1c-0.6,0.5-0.8,1.3-0.8,2.2c0,1.1,0.4,2,1.2,2.8c0.8,0.7,1.8,1.1,3,1.1
		C219.6,742.5,221,741.9,222.1,740.8z"/>
</g>
<g class="st1">
	<path class="st2" d="M234.8,744c-0.6-0.3-1-0.7-1.2-1.1c-0.2-0.4-0.3-0.8-0.3-1.3c0-0.5,0.1-0.9,0.4-1.3c0.3-0.3,0.6-0.5,1.1-0.5
		c0.4,0,1,0.2,1.9,0.7c0.9,0.5,1.8,0.9,2.7,1.2c0.9,0.3,2,0.5,3.3,0.5c1.5,0,2.7-0.3,3.5-0.8c0.8-0.5,1.3-1.3,1.3-2.2
		c0-0.6-0.2-1.1-0.5-1.5s-0.9-0.7-1.7-1c-0.8-0.3-2-0.6-3.6-1c-2.7-0.6-4.7-1.4-5.9-2.4c-1.2-1-1.8-2.4-1.8-4.1
		c0-1.3,0.4-2.5,1.2-3.6c0.8-1.1,1.8-1.9,3.2-2.5c1.4-0.6,2.9-0.9,4.7-0.9c1.2,0,2.5,0.2,3.6,0.5s2.2,0.8,3.1,1.4
		c1,0.7,1.5,1.5,1.5,2.4c0,0.5-0.1,0.9-0.4,1.3c-0.3,0.3-0.6,0.5-1,0.5c-0.3,0-0.6-0.1-0.8-0.2s-0.7-0.3-1.1-0.6
		c-0.8-0.5-1.6-0.9-2.4-1.2c-0.7-0.3-1.6-0.4-2.7-0.4c-1.3,0-2.4,0.3-3.1,0.8c-0.8,0.6-1.2,1.3-1.2,2.3c0,0.9,0.4,1.5,1.1,2
		c0.7,0.5,2.1,0.9,4.1,1.4c2.1,0.4,3.7,0.9,4.9,1.5c1.2,0.6,2,1.3,2.5,2.1c0.5,0.8,0.8,1.9,0.8,3.1c0,2-0.8,3.6-2.5,4.9
		c-1.7,1.2-4,1.8-6.8,1.8C239.4,746,236.8,745.4,234.8,744z"/>
</g>
<g class="st1">
	<path class="st2" d="M261.4,740.9c0.5,0.7,0.8,1.7,0.8,3c0,2.6-0.9,4.9-2.7,6.9c-0.4,0.4-0.8,0.6-1.2,0.6c-0.4,0-0.7-0.1-1-0.4
		s-0.4-0.6-0.4-1c0-0.3,0.1-0.6,0.4-1c0.9-0.9,1.4-2,1.7-3.2c-0.8-0.1-1.4-0.4-1.9-0.9c-0.5-0.5-0.8-1.2-0.8-2
		c0-0.9,0.3-1.6,0.8-2.2s1.2-0.9,2.1-0.9C260.1,739.9,260.8,740.2,261.4,740.9z"/>
</g>
<g class="st1">
	<path class="st2" d="M287.6,717.9c-0.7,0.9-1.1,2.1-1.1,3.8v1.3h4.6c0.7,0,1.2,0.2,1.5,0.5c0.4,0.3,0.5,0.8,0.5,1.3
		c0,0.6-0.2,1-0.5,1.3c-0.4,0.3-0.9,0.5-1.5,0.5h-4.6v17.1c0,0.7-0.2,1.3-0.7,1.7c-0.5,0.4-1,0.6-1.7,0.6c-0.7,0-1.2-0.2-1.7-0.6
		c-0.4-0.4-0.7-1-0.7-1.7v-17.1H279c-0.7,0-1.2-0.2-1.5-0.5c-0.4-0.3-0.5-0.8-0.5-1.3c0-0.6,0.2-1,0.5-1.3c0.4-0.3,0.9-0.5,1.5-0.5
		h2.8v-0.6c0-2.9,0.7-5.1,2.2-6.7c1.5-1.6,3.5-2.5,6.2-2.7l1.2-0.1c1-0.1,1.7,0,2.2,0.3c0.5,0.3,0.7,0.7,0.7,1.4
		c0,1.1-0.7,1.7-2,1.9l-1.2,0.1C289.5,716.5,288.4,717,287.6,717.9z"/>
</g>
<g class="st1">
	<path class="st2" d="M300,744.6c-1.7-1-3-2.3-3.9-4.1c-0.9-1.8-1.4-3.9-1.4-6.2c0-2.4,0.5-4.5,1.4-6.3c0.9-1.8,2.2-3.2,3.9-4.1
		c1.7-1,3.7-1.4,5.9-1.4c2.2,0,4.2,0.5,5.9,1.4c1.7,1,3,2.3,3.9,4.1c0.9,1.8,1.4,3.9,1.4,6.3c0,2.4-0.5,4.4-1.4,6.2
		c-0.9,1.8-2.2,3.2-3.9,4.1c-1.7,1-3.7,1.4-5.9,1.4C303.7,746,301.7,745.5,300,744.6z M310.7,740.2c1.1-1.4,1.7-3.4,1.7-6
		c0-2.6-0.6-4.6-1.7-6c-1.1-1.4-2.7-2.1-4.8-2.1c-2.1,0-3.6,0.7-4.8,2.1c-1.1,1.4-1.7,3.4-1.7,6c0,2.6,0.6,4.6,1.7,6
		c1.1,1.4,2.7,2.1,4.8,2.1C308,742.3,309.6,741.6,310.7,740.2z"/>
	<path class="st2" d="M326.3,744.6c-1.7-1-3-2.3-3.9-4.1c-0.9-1.8-1.4-3.9-1.4-6.2c0-2.4,0.5-4.5,1.4-6.3c0.9-1.8,2.2-3.2,3.9-4.1
		c1.7-1,3.7-1.4,5.9-1.4c2.2,0,4.2,0.5,5.9,1.4c1.7,1,3,2.3,3.9,4.1c0.9,1.8,1.4,3.9,1.4,6.3c0,2.4-0.5,4.4-1.4,6.2
		c-0.9,1.8-2.2,3.2-3.9,4.1c-1.7,1-3.7,1.4-5.9,1.4C330,746,328,745.5,326.3,744.6z M337,740.2c1.1-1.4,1.7-3.4,1.7-6
		c0-2.6-0.6-4.6-1.7-6c-1.1-1.4-2.7-2.1-4.8-2.1c-2.1,0-3.6,0.7-4.8,2.1c-1.1,1.4-1.7,3.4-1.7,6c0,2.6,0.6,4.6,1.7,6
		c1.1,1.4,2.7,2.1,4.8,2.1C334.3,742.3,335.9,741.6,337,740.2z"/>
	<path class="st2" d="M369,713.2c0.4,0.4,0.7,0.9,0.7,1.6v28.8c0,0.7-0.2,1.3-0.6,1.7s-1,0.6-1.7,0.6c-0.7,0-1.3-0.2-1.7-0.6
		c-0.4-0.4-0.6-1-0.6-1.7v-1.9c-0.7,1.4-1.7,2.4-3,3.1c-1.3,0.7-2.8,1.1-4.5,1.1c-2,0-3.7-0.5-5.2-1.5c-1.5-1-2.7-2.4-3.6-4.2
		c-0.9-1.8-1.3-3.9-1.3-6.2c0-2.4,0.4-4.4,1.3-6.2c0.9-1.8,2-3.1,3.6-4.1c1.5-1,3.3-1.4,5.3-1.4c1.7,0,3.2,0.4,4.5,1.1
		c1.3,0.7,2.3,1.8,3,3.1v-11.8c0-0.7,0.2-1.2,0.6-1.6c0.4-0.4,1-0.6,1.7-0.6C368,712.6,368.5,712.8,369,713.2z M363.3,740.2
		c1.1-1.4,1.7-3.4,1.7-6c0-2.6-0.6-4.6-1.7-6c-1.1-1.4-2.7-2.1-4.7-2.1s-3.6,0.7-4.8,2.1c-1.1,1.4-1.7,3.3-1.7,5.9
		c0,2.5,0.6,4.5,1.7,6c1.1,1.4,2.7,2.2,4.8,2.2C360.6,742.3,362.2,741.6,363.3,740.2z"/>
</g>
<g class="st1">
	<path class="st2" d="M88.2,806.7c-1.7-1-3-2.3-3.9-4.1c-0.9-1.8-1.4-3.8-1.4-6.2c0-2.4,0.5-4.4,1.4-6.2c0.9-1.8,2.3-3.2,4-4.2
		c1.7-1,3.7-1.5,5.9-1.5c1.2,0,2.4,0.2,3.6,0.5c1.2,0.3,2.3,0.8,3.2,1.4c1,0.7,1.5,1.5,1.5,2.4c0,0.5-0.1,1-0.4,1.3
		c-0.3,0.4-0.6,0.5-1.1,0.5c-0.3,0-0.6-0.1-0.8-0.2c-0.3-0.1-0.6-0.3-1.1-0.6c-0.8-0.5-1.5-0.9-2.2-1.1c-0.7-0.3-1.5-0.4-2.4-0.4
		c-2.1,0-3.8,0.7-4.9,2.1c-1.2,1.4-1.7,3.4-1.7,6c0,2.5,0.6,4.5,1.7,5.9c1.1,1.4,2.8,2.1,4.9,2.1c0.9,0,1.8-0.1,2.5-0.4
		c0.7-0.3,1.4-0.7,2.2-1.1c0.3-0.2,0.7-0.4,1-0.6c0.3-0.2,0.7-0.2,0.9-0.2c0.4,0,0.8,0.2,1.1,0.5c0.3,0.4,0.4,0.8,0.4,1.3
		c0,0.4-0.1,0.8-0.3,1.2c-0.2,0.4-0.6,0.7-1.2,1.1c-0.9,0.6-2,1.1-3.3,1.4c-1.2,0.3-2.5,0.5-3.8,0.5
		C91.8,808.2,89.9,807.7,88.2,806.7z"/>
	<path class="st2" d="M110.8,806.7c-1.7-1-3-2.3-3.9-4.1c-0.9-1.8-1.4-3.9-1.4-6.2c0-2.4,0.5-4.5,1.4-6.3c0.9-1.8,2.2-3.2,3.9-4.1
		c1.7-1,3.7-1.4,5.9-1.4c2.2,0,4.2,0.5,5.9,1.4c1.7,1,3,2.3,3.9,4.1c0.9,1.8,1.4,3.9,1.4,6.3c0,2.4-0.5,4.4-1.4,6.2
		c-0.9,1.8-2.2,3.2-3.9,4.1c-1.7,1-3.7,1.4-5.9,1.4C114.4,808.2,112.5,807.7,110.8,806.7z M121.4,802.4c1.1-1.4,1.7-3.4,1.7-6
		c0-2.6-0.6-4.6-1.7-6c-1.1-1.4-2.7-2.1-4.8-2.1c-2.1,0-3.6,0.7-4.8,2.1c-1.1,1.4-1.7,3.4-1.7,6c0,2.6,0.6,4.6,1.7,6
		c1.1,1.4,2.7,2.1,4.8,2.1C118.7,804.4,120.3,803.8,121.4,802.4z"/>
	<path class="st2" d="M152.4,785.2c0.4,0.4,0.6,1,0.6,1.7v19c0,0.7-0.2,1.2-0.7,1.6c-0.4,0.4-1,0.6-1.7,0.6c-0.7,0-1.2-0.2-1.6-0.6
		c-0.4-0.4-0.6-0.9-0.6-1.6v-1.8c-0.7,1.3-1.7,2.3-3,3s-2.7,1-4.2,1c-5.5,0-8.3-3-8.3-9.1v-12.1c0-0.7,0.2-1.3,0.6-1.7
		c0.4-0.4,1-0.6,1.7-0.6c0.7,0,1.3,0.2,1.7,0.6c0.4,0.4,0.6,1,0.6,1.7V799c0,1.8,0.4,3.2,1.1,4.1s1.9,1.3,3.4,1.3
		c1.8,0,3.3-0.6,4.4-1.8c1.1-1.2,1.7-2.8,1.7-4.7v-11c0-0.7,0.2-1.2,0.7-1.7c0.4-0.4,1-0.6,1.7-0.6
		C151.4,784.6,152,784.8,152.4,785.2z"/>
</g>
<g class="st1">
	<path class="st2" d="M173.7,786.5c0,0.7-0.2,1.2-0.5,1.5c-0.3,0.3-0.9,0.5-1.8,0.6l-1.4,0.1c-2,0.2-3.4,0.9-4.4,2.1
		c-0.9,1.2-1.4,2.6-1.4,4.3v10.7c0,0.7-0.2,1.3-0.7,1.7c-0.4,0.4-1,0.6-1.7,0.6c-0.7,0-1.3-0.2-1.7-0.6c-0.5-0.4-0.7-0.9-0.7-1.7
		v-19c0-0.7,0.2-1.3,0.7-1.7c0.5-0.4,1-0.6,1.7-0.6c0.6,0,1.1,0.2,1.6,0.6s0.6,0.9,0.6,1.6v2.2c0.6-1.4,1.5-2.4,2.7-3.1
		c1.2-0.7,2.5-1.1,4-1.3l0.7,0C173,784.5,173.7,785.2,173.7,786.5z"/>
</g>
<g class="st1">
	<path class="st2" d="M191.3,805c0.3,0.3,0.4,0.7,0.4,1.2c0,0.6-0.2,1.1-0.7,1.4c-0.5,0.3-1.2,0.5-2.1,0.4l-1.3-0.1
		c-2.5-0.2-4.4-1-5.6-2.3c-1.2-1.4-1.9-3.3-1.9-6v-11h-2.8c-1.4,0-2.1-0.6-2.1-1.8c0-0.6,0.2-1,0.5-1.3c0.4-0.3,0.9-0.5,1.5-0.5h2.8
		v-4.8c0-0.7,0.2-1.3,0.6-1.7c0.4-0.4,1-0.6,1.7-0.6c0.7,0,1.3,0.2,1.7,0.6c0.4,0.4,0.7,1,0.7,1.7v4.8h4.6c0.7,0,1.2,0.2,1.5,0.5
		c0.4,0.3,0.5,0.8,0.5,1.3c0,0.6-0.2,1-0.5,1.4c-0.4,0.3-0.9,0.5-1.5,0.5h-4.6V800c0,1.5,0.3,2.5,0.9,3.2s1.5,1.1,2.8,1.2l1.3,0.1
		C190.5,804.5,191,804.7,191.3,805z"/>
</g>
<g class="st1">
	<path class="st2" d="M195.2,806.2c-0.6-0.3-1-0.7-1.2-1.1c-0.2-0.4-0.3-0.8-0.3-1.3c0-0.5,0.1-0.9,0.4-1.3c0.3-0.3,0.6-0.5,1.1-0.5
		c0.4,0,1,0.2,1.9,0.7c0.9,0.5,1.8,0.9,2.7,1.2c0.9,0.3,2,0.5,3.3,0.5c1.5,0,2.7-0.3,3.5-0.8c0.8-0.5,1.3-1.3,1.3-2.2
		c0-0.6-0.2-1.1-0.5-1.5s-0.9-0.7-1.7-1c-0.8-0.3-2-0.6-3.6-1c-2.7-0.6-4.7-1.4-5.9-2.4c-1.2-1-1.8-2.4-1.8-4.1
		c0-1.3,0.4-2.5,1.2-3.6c0.8-1.1,1.8-1.9,3.2-2.5c1.4-0.6,2.9-0.9,4.7-0.9c1.2,0,2.5,0.2,3.6,0.5s2.2,0.8,3.1,1.4
		c1,0.7,1.5,1.5,1.5,2.4c0,0.5-0.1,0.9-0.4,1.3c-0.3,0.3-0.6,0.5-1,0.5c-0.3,0-0.6-0.1-0.8-0.2s-0.7-0.3-1.1-0.6
		c-0.8-0.5-1.6-0.9-2.4-1.2c-0.7-0.3-1.6-0.4-2.7-0.4c-1.3,0-2.4,0.3-3.1,0.8c-0.8,0.6-1.2,1.3-1.2,2.3c0,0.9,0.4,1.5,1.1,2
		c0.7,0.5,2.1,0.9,4.1,1.4c2.1,0.4,3.7,0.9,4.9,1.5c1.2,0.6,2,1.3,2.5,2.1c0.5,0.8,0.8,1.9,0.8,3.1c0,2-0.8,3.6-2.5,4.9
		c-1.7,1.2-4,1.8-6.8,1.8C199.8,808.2,197.2,807.5,195.2,806.2z"/>
</g>
<g class="st1">
	<path class="st2" d="M221.8,803.1c0.5,0.7,0.8,1.7,0.8,3c0,2.6-0.9,4.9-2.7,6.9c-0.4,0.4-0.8,0.6-1.2,0.6c-0.4,0-0.7-0.1-1-0.4
		s-0.4-0.6-0.4-1c0-0.3,0.1-0.6,0.4-1c0.9-0.9,1.4-2,1.7-3.2c-0.8-0.1-1.4-0.4-1.9-0.9c-0.5-0.5-0.8-1.2-0.8-2
		c0-0.9,0.3-1.6,0.8-2.2s1.2-0.9,2.1-0.9C220.5,802.1,221.2,802.4,221.8,803.1z"/>
	<path class="st2" d="M261.3,785.3c0.4,0.4,0.6,1,0.6,1.7V806c0,3.5-0.9,6.1-2.8,7.9c-1.8,1.8-4.6,2.7-8.2,2.7
		c-3.4,0-6.2-0.6-8.4-1.9c-1.2-0.7-1.7-1.4-1.7-2.3c0-0.5,0.1-1,0.4-1.3s0.7-0.5,1.1-0.5c0.4,0,1,0.2,1.9,0.7
		c1.1,0.5,2.2,0.9,3.1,1.2c1,0.3,2.1,0.4,3.4,0.4c4.3,0,6.4-2.2,6.4-6.5v-3.6c-0.7,1.4-1.6,2.4-3,3.2c-1.3,0.8-2.9,1.1-4.7,1.1
		c-2,0-3.8-0.5-5.3-1.4c-1.6-0.9-2.8-2.3-3.6-4c-0.9-1.7-1.3-3.7-1.3-5.9c0-2.2,0.4-4.2,1.3-5.9c0.9-1.7,2.1-3,3.6-4
		s3.3-1.4,5.3-1.4c1.7,0,3.3,0.4,4.6,1.1c1.3,0.7,2.3,1.8,3,3.2v-2c0-0.7,0.2-1.2,0.6-1.6c0.4-0.4,1-0.6,1.7-0.6
		C260.3,784.6,260.9,784.8,261.3,785.3z M255.5,801.4c1.1-1.3,1.7-3.2,1.7-5.5c0-2.3-0.6-4.2-1.7-5.5c-1.1-1.4-2.7-2-4.8-2
		s-3.7,0.7-4.8,2c-1.2,1.3-1.7,3.2-1.7,5.5c0,2.4,0.6,4.2,1.8,5.5c1.2,1.3,2.8,2,4.8,2C252.8,803.4,254.4,802.7,255.5,801.4z"/>
	<path class="st2" d="M285.5,785c0.4-0.2,0.7-0.3,1.1-0.3c0.6,0,1.1,0.2,1.6,0.6c0.5,0.4,0.7,0.9,0.7,1.4c0,0.3-0.1,0.6-0.2,0.9
		l-13,27.5c-0.2,0.4-0.5,0.8-0.8,1c-0.4,0.2-0.7,0.3-1.1,0.3c-0.6,0-1.1-0.2-1.5-0.6c-0.5-0.4-0.7-0.8-0.7-1.4
		c0-0.2,0.1-0.6,0.2-0.9l3.2-6.9l-9-19.1c-0.1-0.2-0.2-0.5-0.2-0.8c0-0.6,0.2-1.1,0.7-1.5c0.5-0.4,1.1-0.6,1.7-0.6
		c0.9,0,1.6,0.4,2,1.3l7.2,16l7.2-16C284.9,785.6,285.1,785.2,285.5,785z"/>
	<path class="st2" d="M326.5,793.7v12.1c0,0.7-0.2,1.3-0.7,1.7c-0.4,0.4-1,0.6-1.7,0.6c-0.7,0-1.2-0.2-1.7-0.6
		c-0.4-0.4-0.7-0.9-0.7-1.7v-12.1c0-1.9-0.3-3.3-1-4.1c-0.7-0.9-1.8-1.3-3.2-1.3c-1.7,0-3.1,0.6-4.1,1.7c-1,1.2-1.5,2.8-1.5,4.8v11
		c0,0.7-0.2,1.3-0.7,1.7c-0.4,0.4-1,0.6-1.7,0.6c-0.7,0-1.2-0.2-1.7-0.6c-0.4-0.4-0.7-0.9-0.7-1.7v-12.1c0-1.9-0.3-3.3-1-4.1
		c-0.7-0.9-1.8-1.3-3.2-1.3c-1.7,0-3.1,0.6-4.1,1.7c-1,1.2-1.5,2.8-1.5,4.8v11c0,0.7-0.2,1.3-0.7,1.7c-0.4,0.4-1,0.6-1.7,0.6
		c-0.7,0-1.3-0.2-1.7-0.6c-0.5-0.4-0.7-0.9-0.7-1.7v-19c0-0.7,0.2-1.2,0.7-1.6c0.5-0.4,1-0.6,1.7-0.6c0.7,0,1.2,0.2,1.6,0.6
		c0.4,0.4,0.6,0.9,0.6,1.6v1.7c0.7-1.3,1.6-2.3,2.8-3c1.2-0.7,2.6-1,4.2-1c1.7,0,3.2,0.4,4.3,1.1c1.1,0.7,2,1.8,2.5,3.3
		c0.7-1.3,1.7-2.4,3-3.2c1.3-0.8,2.9-1.2,4.6-1.2C323.9,784.5,326.5,787.6,326.5,793.7z"/>
</g>
<g class="st1">
	<path class="st2" d="M333.1,806.2c-0.6-0.3-1-0.7-1.2-1.1c-0.2-0.4-0.3-0.8-0.3-1.3c0-0.5,0.1-0.9,0.4-1.3c0.3-0.3,0.6-0.5,1.1-0.5
		c0.4,0,1,0.2,1.9,0.7c0.9,0.5,1.8,0.9,2.7,1.2c0.9,0.3,2,0.5,3.3,0.5c1.5,0,2.7-0.3,3.5-0.8c0.8-0.5,1.3-1.3,1.3-2.2
		c0-0.6-0.2-1.1-0.5-1.5s-0.9-0.7-1.7-1c-0.8-0.3-2-0.6-3.6-1c-2.7-0.6-4.7-1.4-5.9-2.4c-1.2-1-1.8-2.4-1.8-4.1
		c0-1.3,0.4-2.5,1.2-3.6c0.8-1.1,1.8-1.9,3.2-2.5c1.4-0.6,2.9-0.9,4.7-0.9c1.2,0,2.5,0.2,3.6,0.5s2.2,0.8,3.1,1.4
		c1,0.7,1.5,1.5,1.5,2.4c0,0.5-0.1,0.9-0.4,1.3c-0.3,0.3-0.6,0.5-1,0.5c-0.3,0-0.6-0.1-0.8-0.2s-0.7-0.3-1.1-0.6
		c-0.8-0.5-1.6-0.9-2.4-1.2c-0.7-0.3-1.6-0.4-2.7-0.4c-1.3,0-2.4,0.3-3.1,0.8c-0.8,0.6-1.2,1.3-1.2,2.3c0,0.9,0.4,1.5,1.1,2
		c0.7,0.5,2.1,0.9,4.1,1.4c2.1,0.4,3.7,0.9,4.9,1.5c1.2,0.6,2,1.3,2.5,2.1c0.5,0.8,0.8,1.9,0.8,3.1c0,2-0.8,3.6-2.5,4.9
		c-1.7,1.2-4,1.8-6.8,1.8C337.7,808.2,335.1,807.5,333.1,806.2z"/>
</g>
<g class="st1">
	<path class="st2" d="M359.6,803.1c0.5,0.7,0.8,1.7,0.8,3c0,2.6-0.9,4.9-2.7,6.9c-0.4,0.4-0.8,0.6-1.2,0.6c-0.4,0-0.7-0.1-1-0.4
		s-0.4-0.6-0.4-1c0-0.3,0.1-0.6,0.4-1c0.9-0.9,1.4-2,1.7-3.2c-0.8-0.1-1.4-0.4-1.9-0.9c-0.5-0.5-0.8-1.2-0.8-2
		c0-0.9,0.3-1.6,0.8-2.2s1.2-0.9,2.1-0.9C358.3,802.1,359,802.4,359.6,803.1z"/>
	<path class="st2" d="M396,786c1.5,1,2.7,2.4,3.6,4.2c0.9,1.8,1.3,3.9,1.3,6.2c0,2.3-0.4,4.4-1.3,6.2s-2,3.1-3.6,4.1
		c-1.5,1-3.3,1.4-5.3,1.4c-1.7,0-3.2-0.4-4.5-1.1c-1.3-0.7-2.3-1.8-3-3.1v10.4c0,0.7-0.2,1.2-0.6,1.6c-0.4,0.4-1,0.6-1.7,0.6
		c-0.7,0-1.3-0.2-1.7-0.6c-0.5-0.4-0.7-0.9-0.7-1.6v-27.3c0-0.7,0.2-1.2,0.7-1.7c0.4-0.4,1-0.6,1.7-0.6c0.7,0,1.2,0.2,1.7,0.6
		c0.4,0.4,0.7,1,0.7,1.7v1.9c0.7-1.4,1.7-2.4,3-3.2c1.3-0.7,2.8-1.1,4.5-1.1C392.7,784.5,394.5,785,396,786z M394.4,802.4
		c1.1-1.4,1.7-3.3,1.7-5.9c0-2.6-0.6-4.6-1.7-6c-1.1-1.4-2.7-2.1-4.7-2.1c-2.1,0-3.6,0.7-4.7,2.1c-1.1,1.4-1.7,3.4-1.7,6
		c0,2.6,0.6,4.6,1.7,6c1.1,1.4,2.7,2.1,4.7,2.1S393.3,803.7,394.4,802.4z"/>
	<path class="st2" d="M410.1,806.7c-1.7-1-3-2.3-3.9-4.1c-0.9-1.8-1.4-3.9-1.4-6.2c0-2.4,0.5-4.5,1.4-6.3c0.9-1.8,2.2-3.2,3.9-4.1
		c1.7-1,3.7-1.4,5.9-1.4c2.2,0,4.2,0.5,5.9,1.4c1.7,1,3,2.3,3.9,4.1c0.9,1.8,1.4,3.9,1.4,6.3c0,2.4-0.5,4.4-1.4,6.2
		c-0.9,1.8-2.2,3.2-3.9,4.1c-1.7,1-3.7,1.4-5.9,1.4C413.8,808.2,411.8,807.7,410.1,806.7z M420.8,802.4c1.1-1.4,1.7-3.4,1.7-6
		c0-2.6-0.6-4.6-1.7-6c-1.1-1.4-2.7-2.1-4.8-2.1c-2.1,0-3.6,0.7-4.8,2.1c-1.1,1.4-1.7,3.4-1.7,6c0,2.6,0.6,4.6,1.7,6
		c1.1,1.4,2.7,2.1,4.8,2.1C418.1,804.4,419.7,803.8,420.8,802.4z"/>
	<path class="st2" d="M436.4,806.7c-1.7-1-3-2.3-3.9-4.1c-0.9-1.8-1.4-3.9-1.4-6.2c0-2.4,0.5-4.5,1.4-6.3c0.9-1.8,2.2-3.2,3.9-4.1
		c1.7-1,3.7-1.4,5.9-1.4c2.2,0,4.2,0.5,5.9,1.4c1.7,1,3,2.3,3.9,4.1c0.9,1.8,1.4,3.9,1.4,6.3c0,2.4-0.5,4.4-1.4,6.2
		c-0.9,1.8-2.2,3.2-3.9,4.1c-1.7,1-3.7,1.4-5.9,1.4C440.1,808.2,438.1,807.7,436.4,806.7z M447.1,802.4c1.1-1.4,1.7-3.4,1.7-6
		c0-2.6-0.6-4.6-1.7-6c-1.1-1.4-2.7-2.1-4.8-2.1c-2.1,0-3.6,0.7-4.8,2.1c-1.1,1.4-1.7,3.4-1.7,6c0,2.6,0.6,4.6,1.7,6
		c1.1,1.4,2.7,2.1,4.8,2.1C444.4,804.4,446,803.8,447.1,802.4z"/>
	<path class="st2" d="M459.4,807.5c-0.5-0.4-0.7-0.9-0.7-1.7V777c0-0.7,0.2-1.3,0.7-1.7c0.5-0.4,1-0.6,1.7-0.6
		c0.7,0,1.2,0.2,1.7,0.6c0.4,0.4,0.7,1,0.7,1.7v28.8c0,0.7-0.2,1.3-0.7,1.7c-0.4,0.4-1,0.6-1.7,0.6
		C460.4,808.1,459.8,807.9,459.4,807.5z"/>
</g>
<g class="st1">
	<path class="st2" d="M470.2,806.2c-0.6-0.3-1-0.7-1.2-1.1c-0.2-0.4-0.3-0.8-0.3-1.3c0-0.5,0.1-0.9,0.4-1.3c0.3-0.3,0.6-0.5,1.1-0.5
		c0.4,0,1,0.2,1.9,0.7c0.9,0.5,1.8,0.9,2.7,1.2c0.9,0.3,2,0.5,3.3,0.5c1.5,0,2.7-0.3,3.5-0.8c0.8-0.5,1.3-1.3,1.3-2.2
		c0-0.6-0.2-1.1-0.5-1.5s-0.9-0.7-1.7-1c-0.8-0.3-2-0.6-3.6-1c-2.7-0.6-4.7-1.4-5.9-2.4c-1.2-1-1.8-2.4-1.8-4.1
		c0-1.3,0.4-2.5,1.2-3.6c0.8-1.1,1.8-1.9,3.2-2.5c1.4-0.6,2.9-0.9,4.7-0.9c1.2,0,2.5,0.2,3.6,0.5s2.2,0.8,3.1,1.4
		c1,0.7,1.5,1.5,1.5,2.4c0,0.5-0.1,0.9-0.4,1.3c-0.3,0.3-0.6,0.5-1,0.5c-0.3,0-0.6-0.1-0.8-0.2s-0.7-0.3-1.1-0.6
		c-0.8-0.5-1.6-0.9-2.4-1.2c-0.7-0.3-1.6-0.4-2.7-0.4c-1.3,0-2.4,0.3-3.1,0.8c-0.8,0.6-1.2,1.3-1.2,2.3c0,0.9,0.4,1.5,1.1,2
		c0.7,0.5,2.1,0.9,4.1,1.4c2.1,0.4,3.7,0.9,4.9,1.5c1.2,0.6,2,1.3,2.5,2.1c0.5,0.8,0.8,1.9,0.8,3.1c0,2-0.8,3.6-2.5,4.9
		c-1.7,1.2-4,1.8-6.8,1.8C474.8,808.2,472.2,807.5,470.2,806.2z"/>
</g>
<g class="st1">
	<path class="st2" d="M496.7,803.1c0.5,0.7,0.8,1.7,0.8,3c0,2.6-0.9,4.9-2.7,6.9c-0.4,0.4-0.8,0.6-1.2,0.6c-0.4,0-0.7-0.1-1-0.4
		s-0.4-0.6-0.4-1c0-0.3,0.1-0.6,0.4-1c0.9-0.9,1.4-2,1.7-3.2c-0.8-0.1-1.4-0.4-1.9-0.9c-0.5-0.5-0.8-1.2-0.8-2
		c0-0.9,0.3-1.6,0.8-2.2s1.2-0.9,2.1-0.9C495.4,802.1,496.1,802.4,496.7,803.1z"/>
</g>
<g class="st1">
	<path class="st2" d="M101.7,848.2c1.5,1,2.7,2.4,3.6,4.2c0.9,1.8,1.3,3.9,1.3,6.2c0,2.3-0.4,4.4-1.3,6.2s-2,3.1-3.6,4.1
		c-1.5,1-3.3,1.4-5.3,1.4c-1.7,0-3.2-0.4-4.5-1.1c-1.3-0.7-2.3-1.8-3-3.1v10.4c0,0.7-0.2,1.2-0.6,1.6c-0.4,0.4-1,0.6-1.7,0.6
		c-0.7,0-1.3-0.2-1.7-0.6c-0.5-0.4-0.7-0.9-0.7-1.6v-27.3c0-0.7,0.2-1.2,0.7-1.7c0.4-0.4,1-0.6,1.7-0.6c0.7,0,1.2,0.2,1.7,0.6
		c0.4,0.4,0.7,1,0.7,1.7v1.9c0.7-1.4,1.7-2.4,3-3.2c1.3-0.7,2.8-1.1,4.5-1.1C98.4,846.7,100.2,847.2,101.7,848.2z M100.1,864.5
		c1.1-1.4,1.7-3.3,1.7-5.9c0-2.6-0.6-4.6-1.7-6c-1.1-1.4-2.7-2.1-4.7-2.1c-2.1,0-3.6,0.7-4.7,2.1c-1.1,1.4-1.7,3.4-1.7,6
		c0,2.6,0.6,4.6,1.7,6c1.1,1.4,2.7,2.1,4.7,2.1S99,865.9,100.1,864.5z"/>
	<path class="st2" d="M112.5,869.7c-0.5-0.4-0.7-0.9-0.7-1.7v-28.8c0-0.7,0.2-1.3,0.7-1.7c0.5-0.4,1-0.6,1.7-0.6
		c0.7,0,1.2,0.2,1.7,0.6c0.4,0.4,0.7,1,0.7,1.7V868c0,0.7-0.2,1.3-0.7,1.7c-0.4,0.4-1,0.6-1.7,0.6
		C113.5,870.2,112.9,870,112.5,869.7z"/>
	<path class="st2" d="M139.4,849c1.5,1.5,2.2,3.8,2.2,6.9V868c0,0.7-0.2,1.3-0.6,1.7c-0.4,0.4-1,0.6-1.7,0.6c-0.7,0-1.2-0.2-1.6-0.6
		c-0.4-0.4-0.6-0.9-0.6-1.6v-1.7c-0.6,1.3-1.5,2.3-2.6,3s-2.5,1-4.1,1c-1.5,0-2.9-0.3-4.1-0.9c-1.2-0.6-2.2-1.4-2.9-2.5
		c-0.7-1.1-1.1-2.3-1.1-3.6c0-1.7,0.4-3,1.3-3.9c0.9-0.9,2.3-1.6,4.2-2.1s4.7-0.6,8.2-0.6h1.1v-1.4c0-1.7-0.4-3-1.1-3.8
		c-0.7-0.8-1.9-1.2-3.4-1.2c-1.1,0-2.1,0.1-3.1,0.4c-1,0.3-2,0.7-3.2,1.2c-0.8,0.5-1.4,0.7-1.8,0.7c-0.5,0-0.8-0.2-1.1-0.5
		c-0.3-0.3-0.4-0.8-0.4-1.3c0-0.5,0.1-0.9,0.4-1.2c0.3-0.4,0.7-0.7,1.3-1c1.1-0.6,2.4-1.1,3.8-1.4c1.5-0.4,2.9-0.5,4.2-0.5
		C135.7,846.7,137.9,847.5,139.4,849z M135.4,865.1c1.1-1.2,1.6-2.7,1.6-4.5v-1.2h-0.8c-2.4,0-4.3,0.1-5.6,0.3
		c-1.3,0.2-2.2,0.6-2.8,1.1c-0.6,0.5-0.8,1.3-0.8,2.2c0,1.1,0.4,2,1.2,2.8c0.8,0.7,1.8,1.1,3,1.1
		C132.9,866.8,134.3,866.2,135.4,865.1z"/>
</g>
<g class="st1">
	<path class="st2" d="M165.1,847.2c0.4-0.2,0.7-0.3,1.1-0.3c0.6,0,1.1,0.2,1.6,0.6c0.5,0.4,0.7,0.9,0.7,1.4c0,0.3-0.1,0.6-0.2,0.9
		l-13,27.5c-0.2,0.4-0.5,0.8-0.8,1c-0.4,0.2-0.7,0.3-1.1,0.3c-0.6,0-1.1-0.2-1.5-0.6c-0.5-0.4-0.7-0.8-0.7-1.4
		c0-0.2,0.1-0.6,0.2-0.9l3.2-6.9l-9-19.1c-0.1-0.2-0.2-0.5-0.2-0.8c0-0.6,0.2-1.1,0.7-1.5c0.5-0.4,1.1-0.6,1.7-0.6
		c0.9,0,1.6,0.4,2,1.3l7.2,16l7.2-16C164.4,847.7,164.7,847.4,165.1,847.2z"/>
</g>
<g class="st1">
	<path class="st2" d="M192.5,847.4c0.4,0.4,0.6,1,0.6,1.7v19.1c0,3.5-0.9,6.1-2.8,7.9c-1.8,1.8-4.6,2.7-8.2,2.7
		c-3.4,0-6.2-0.6-8.4-1.9c-1.2-0.7-1.7-1.4-1.7-2.3c0-0.5,0.1-1,0.4-1.3s0.7-0.5,1.1-0.5c0.4,0,1,0.2,1.9,0.7
		c1.1,0.5,2.2,0.9,3.1,1.2c1,0.3,2.1,0.4,3.4,0.4c4.3,0,6.4-2.2,6.4-6.5V865c-0.7,1.4-1.6,2.4-3,3.2c-1.3,0.8-2.9,1.1-4.7,1.1
		c-2,0-3.8-0.5-5.3-1.4c-1.6-0.9-2.8-2.3-3.6-4c-0.9-1.7-1.3-3.7-1.3-5.9c0-2.2,0.4-4.2,1.3-5.9c0.9-1.7,2.1-3,3.6-4
		s3.3-1.4,5.3-1.4c1.7,0,3.3,0.4,4.6,1.1c1.3,0.7,2.3,1.8,3,3.2v-2c0-0.7,0.2-1.2,0.6-1.6c0.4-0.4,1-0.6,1.7-0.6
		C191.5,846.8,192.1,847,192.5,847.4z M186.7,863.6c1.1-1.3,1.7-3.2,1.7-5.5c0-2.3-0.6-4.2-1.7-5.5c-1.1-1.4-2.7-2-4.8-2
		s-3.7,0.7-4.8,2c-1.2,1.3-1.7,3.2-1.7,5.5c0,2.4,0.6,4.2,1.8,5.5c1.2,1.3,2.8,2,4.8,2C184,865.6,185.6,864.9,186.7,863.6z"/>
</g>
<g class="st1">
	<path class="st2" d="M213.9,848.7c0,0.7-0.2,1.2-0.5,1.5c-0.3,0.3-0.9,0.5-1.8,0.6l-1.4,0.1c-2,0.2-3.4,0.9-4.4,2.1
		c-0.9,1.2-1.4,2.6-1.4,4.3V868c0,0.7-0.2,1.3-0.7,1.7c-0.4,0.4-1,0.6-1.7,0.6c-0.7,0-1.3-0.2-1.7-0.6c-0.5-0.4-0.7-0.9-0.7-1.7v-19
		c0-0.7,0.2-1.3,0.7-1.7c0.5-0.4,1-0.6,1.7-0.6c0.6,0,1.1,0.2,1.6,0.6s0.6,0.9,0.6,1.6v2.2c0.6-1.4,1.5-2.4,2.7-3.1
		c1.2-0.7,2.5-1.1,4-1.3l0.7,0C213.2,846.7,213.9,847.3,213.9,848.7z"/>
</g>
<g class="st1">
	<path class="st2" d="M220.3,868.9c-1.7-1-3-2.3-3.9-4.1c-0.9-1.8-1.4-3.9-1.4-6.2c0-2.4,0.5-4.5,1.4-6.3c0.9-1.8,2.2-3.2,3.9-4.1
		c1.7-1,3.7-1.4,5.9-1.4c2.2,0,4.2,0.5,5.9,1.4c1.7,1,3,2.3,3.9,4.1c0.9,1.8,1.4,3.9,1.4,6.3c0,2.4-0.5,4.4-1.4,6.2
		c-0.9,1.8-2.2,3.2-3.9,4.1c-1.7,1-3.7,1.4-5.9,1.4C224,870.3,222,869.8,220.3,868.9z M231,864.5c1.1-1.4,1.7-3.4,1.7-6
		c0-2.6-0.6-4.6-1.7-6c-1.1-1.4-2.7-2.1-4.8-2.1c-2.1,0-3.6,0.7-4.8,2.1c-1.1,1.4-1.7,3.4-1.7,6c0,2.6,0.6,4.6,1.7,6
		c1.1,1.4,2.7,2.1,4.8,2.1C228.3,866.6,229.9,865.9,231,864.5z"/>
	<path class="st2" d="M262,847.4c0.4,0.4,0.6,1,0.6,1.7v19c0,0.7-0.2,1.2-0.7,1.6c-0.4,0.4-1,0.6-1.7,0.6c-0.7,0-1.2-0.2-1.6-0.6
		c-0.4-0.4-0.6-0.9-0.6-1.6v-1.8c-0.7,1.3-1.7,2.3-3,3s-2.7,1-4.2,1c-5.5,0-8.3-3-8.3-9.1v-12.1c0-0.7,0.2-1.3,0.6-1.7
		c0.4-0.4,1-0.6,1.7-0.6c0.7,0,1.3,0.2,1.7,0.6c0.4,0.4,0.6,1,0.6,1.7v12.1c0,1.8,0.4,3.2,1.1,4.1s1.9,1.3,3.4,1.3
		c1.8,0,3.3-0.6,4.4-1.8c1.1-1.2,1.7-2.8,1.7-4.7v-11c0-0.7,0.2-1.2,0.7-1.7c0.4-0.4,1-0.6,1.7-0.6C261,846.8,261.6,847,262,847.4z"
		/>
	<path class="st2" d="M289.6,855.9V868c0,0.7-0.2,1.3-0.6,1.7c-0.4,0.4-1,0.6-1.7,0.6c-0.7,0-1.3-0.2-1.7-0.6s-0.6-0.9-0.6-1.6
		v-11.9c0-1.9-0.4-3.3-1.1-4.2c-0.8-0.9-2-1.4-3.6-1.4c-1.9,0-3.4,0.6-4.6,1.8c-1.1,1.2-1.7,2.8-1.7,4.8v11c0,0.7-0.2,1.2-0.6,1.6
		c-0.4,0.4-1,0.6-1.7,0.6c-0.7,0-1.3-0.2-1.7-0.6c-0.4-0.4-0.7-0.9-0.7-1.6v-19c0-0.7,0.2-1.2,0.7-1.6c0.5-0.4,1-0.6,1.7-0.6
		c0.7,0,1.2,0.2,1.6,0.6c0.4,0.4,0.6,0.9,0.6,1.6v1.9c0.7-1.4,1.8-2.4,3.1-3.1c1.3-0.7,2.8-1.1,4.5-1.1
		C286.9,846.7,289.6,849.8,289.6,855.9z"/>
	<path class="st2" d="M316.4,837.5c0.4,0.4,0.7,0.9,0.7,1.6v28.8c0,0.7-0.2,1.3-0.6,1.7s-1,0.6-1.7,0.6c-0.7,0-1.3-0.2-1.7-0.6
		c-0.4-0.4-0.6-1-0.6-1.7v-1.9c-0.7,1.4-1.7,2.4-3,3.1c-1.3,0.7-2.8,1.1-4.5,1.1c-2,0-3.7-0.5-5.2-1.5c-1.5-1-2.7-2.4-3.6-4.2
		c-0.9-1.8-1.3-3.9-1.3-6.2c0-2.4,0.4-4.4,1.3-6.2c0.9-1.8,2-3.1,3.6-4.1c1.5-1,3.3-1.4,5.3-1.4c1.7,0,3.2,0.4,4.5,1.1
		c1.3,0.7,2.3,1.8,3,3.1V839c0-0.7,0.2-1.2,0.6-1.6c0.4-0.4,1-0.6,1.7-0.6C315.4,836.9,315.9,837.1,316.4,837.5z M310.7,864.5
		c1.1-1.4,1.7-3.4,1.7-6c0-2.6-0.6-4.6-1.7-6c-1.1-1.4-2.7-2.1-4.7-2.1s-3.6,0.7-4.8,2.1c-1.1,1.4-1.7,3.3-1.7,5.9
		c0,2.5,0.6,4.5,1.7,6c1.1,1.4,2.7,2.2,4.8,2.2C308,866.6,309.6,865.9,310.7,864.5z"/>
</g>
<g class="st1">
	<path class="st2" d="M323.7,868.4c-0.6-0.3-1-0.7-1.2-1.1c-0.2-0.4-0.3-0.8-0.3-1.3c0-0.5,0.1-0.9,0.4-1.3c0.3-0.3,0.6-0.5,1.1-0.5
		c0.4,0,1,0.2,1.9,0.7c0.9,0.5,1.8,0.9,2.7,1.2c0.9,0.3,2,0.5,3.3,0.5c1.5,0,2.7-0.3,3.5-0.8c0.8-0.5,1.3-1.3,1.3-2.2
		c0-0.6-0.2-1.1-0.5-1.5s-0.9-0.7-1.7-1c-0.8-0.3-2-0.6-3.6-1c-2.7-0.6-4.7-1.4-5.9-2.4c-1.2-1-1.8-2.4-1.8-4.1
		c0-1.3,0.4-2.5,1.2-3.6c0.8-1.1,1.8-1.9,3.2-2.5c1.4-0.6,2.9-0.9,4.7-0.9c1.2,0,2.5,0.2,3.6,0.5s2.2,0.8,3.1,1.4
		c1,0.7,1.5,1.5,1.5,2.4c0,0.5-0.1,0.9-0.4,1.3c-0.3,0.3-0.6,0.5-1,0.5c-0.3,0-0.6-0.1-0.8-0.2s-0.7-0.3-1.1-0.6
		c-0.8-0.5-1.6-0.9-2.4-1.2c-0.7-0.3-1.6-0.4-2.7-0.4c-1.3,0-2.4,0.3-3.1,0.8c-0.8,0.6-1.2,1.3-1.2,2.3c0,0.9,0.4,1.5,1.1,2
		c0.7,0.5,2.1,0.9,4.1,1.4c2.1,0.4,3.7,0.9,4.9,1.5c1.2,0.6,2,1.3,2.5,2.1c0.5,0.8,0.8,1.9,0.8,3.1c0,2-0.8,3.6-2.5,4.9
		c-1.7,1.2-4,1.8-6.8,1.8C328.3,870.3,325.7,869.7,323.7,868.4z"/>
</g>
<g class="st1">
	<path class="st2" d="M350.3,865.2c0.5,0.7,0.8,1.7,0.8,3c0,2.6-0.9,4.9-2.7,6.9c-0.4,0.4-0.8,0.6-1.2,0.6c-0.4,0-0.7-0.1-1-0.4
		s-0.4-0.6-0.4-1c0-0.3,0.1-0.6,0.4-1c0.9-0.9,1.4-2,1.7-3.2c-0.8-0.1-1.4-0.4-1.9-0.9c-0.5-0.5-0.8-1.2-0.8-2
		c0-0.9,0.3-1.6,0.8-2.2s1.2-0.9,2.1-0.9C349,864.2,349.7,864.6,350.3,865.2z"/>
	<path class="st2" d="M403,855.9V868c0,0.7-0.2,1.3-0.7,1.7c-0.4,0.4-1,0.6-1.7,0.6c-0.7,0-1.2-0.2-1.7-0.6
		c-0.4-0.4-0.7-0.9-0.7-1.7v-12.1c0-1.9-0.3-3.3-1-4.1c-0.7-0.9-1.8-1.3-3.2-1.3c-1.7,0-3.1,0.6-4.1,1.7c-1,1.2-1.5,2.8-1.5,4.8v11
		c0,0.7-0.2,1.3-0.7,1.7c-0.4,0.4-1,0.6-1.7,0.6c-0.7,0-1.2-0.2-1.7-0.6c-0.4-0.4-0.7-0.9-0.7-1.7v-12.1c0-1.9-0.3-3.3-1-4.1
		c-0.7-0.9-1.8-1.3-3.2-1.3c-1.7,0-3.1,0.6-4.1,1.7c-1,1.2-1.5,2.8-1.5,4.8v11c0,0.7-0.2,1.3-0.7,1.7c-0.4,0.4-1,0.6-1.7,0.6
		c-0.7,0-1.3-0.2-1.7-0.6c-0.5-0.4-0.7-0.9-0.7-1.7v-19c0-0.7,0.2-1.2,0.7-1.6c0.5-0.4,1-0.6,1.7-0.6c0.7,0,1.2,0.2,1.6,0.6
		c0.4,0.4,0.6,0.9,0.6,1.6v1.7c0.7-1.3,1.6-2.3,2.8-3c1.2-0.7,2.6-1,4.2-1c1.7,0,3.2,0.4,4.3,1.1c1.1,0.7,2,1.8,2.5,3.3
		c0.7-1.3,1.7-2.4,3-3.2c1.3-0.8,2.9-1.2,4.6-1.2C400.5,846.7,403,849.8,403,855.9z"/>
	<path class="st2" d="M425.7,849c1.5,1.5,2.2,3.8,2.2,6.9V868c0,0.7-0.2,1.3-0.6,1.7c-0.4,0.4-1,0.6-1.7,0.6c-0.7,0-1.2-0.2-1.6-0.6
		c-0.4-0.4-0.6-0.9-0.6-1.6v-1.7c-0.6,1.3-1.5,2.3-2.6,3s-2.5,1-4.1,1c-1.5,0-2.9-0.3-4.1-0.9c-1.2-0.6-2.2-1.4-2.9-2.5
		c-0.7-1.1-1.1-2.3-1.1-3.6c0-1.7,0.4-3,1.3-3.9c0.9-0.9,2.3-1.6,4.2-2.1s4.7-0.6,8.2-0.6h1.1v-1.4c0-1.7-0.4-3-1.1-3.8
		c-0.7-0.8-1.9-1.2-3.4-1.2c-1.1,0-2.1,0.1-3.1,0.4c-1,0.3-2,0.7-3.2,1.2c-0.8,0.5-1.4,0.7-1.8,0.7c-0.5,0-0.8-0.2-1.1-0.5
		c-0.3-0.3-0.4-0.8-0.4-1.3c0-0.5,0.1-0.9,0.4-1.2c0.3-0.4,0.7-0.7,1.3-1c1.1-0.6,2.4-1.1,3.8-1.4c1.5-0.4,2.9-0.5,4.2-0.5
		C422,846.7,424.3,847.5,425.7,849z M421.8,865.1c1.1-1.2,1.6-2.7,1.6-4.5v-1.2h-0.8c-2.4,0-4.3,0.1-5.6,0.3
		c-1.3,0.2-2.2,0.6-2.8,1.1c-0.6,0.5-0.8,1.3-0.8,2.2c0,1.1,0.4,2,1.2,2.8c0.8,0.7,1.8,1.1,3,1.1
		C419.3,866.8,420.7,866.2,421.8,865.1z"/>
	<path class="st2" d="M448.6,848.7c0,0.7-0.2,1.2-0.5,1.5c-0.3,0.3-0.9,0.5-1.8,0.6l-1.4,0.1c-2,0.2-3.4,0.9-4.4,2.1
		c-0.9,1.2-1.4,2.6-1.4,4.3V868c0,0.7-0.2,1.3-0.7,1.7c-0.4,0.4-1,0.6-1.7,0.6c-0.7,0-1.3-0.2-1.7-0.6c-0.5-0.4-0.7-0.9-0.7-1.7v-19
		c0-0.7,0.2-1.3,0.7-1.7c0.5-0.4,1-0.6,1.7-0.6c0.6,0,1.1,0.2,1.6,0.6s0.6,0.9,0.6,1.6v2.2c0.6-1.4,1.5-2.4,2.7-3.1
		c1.2-0.7,2.5-1.1,4-1.3l0.7,0C447.8,846.7,448.6,847.3,448.6,848.7z"/>
</g>
<g class="st1">
	<path class="st2" d="M471.4,868c0,0.6-0.2,1.1-0.6,1.5c-0.4,0.4-0.9,0.7-1.4,0.7c-0.6,0-1.1-0.2-1.6-0.7l-11.6-10.3v8.6
		c0,0.7-0.2,1.3-0.7,1.7c-0.4,0.4-1,0.6-1.7,0.6c-0.7,0-1.3-0.2-1.7-0.6c-0.5-0.4-0.7-1-0.7-1.7v-28.8c0-0.7,0.2-1.3,0.7-1.7
		c0.5-0.4,1-0.6,1.7-0.6c0.7,0,1.2,0.2,1.7,0.6c0.4,0.4,0.7,1,0.7,1.7v18.3l10.6-9.9c0.5-0.5,1-0.7,1.5-0.7c0.6,0,1.1,0.2,1.5,0.7
		c0.4,0.4,0.7,0.9,0.7,1.5c0,0.6-0.3,1.1-0.8,1.6l-8.3,7.6l9.1,8.1C471.1,866.8,471.4,867.4,471.4,868z"/>
</g>
<g class="st1">
	<path class="st2" d="M494,864.8c0.3,0.3,0.4,0.8,0.4,1.3c0,0.9-0.6,1.7-1.7,2.3c-1.1,0.6-2.3,1.1-3.6,1.4c-1.3,0.3-2.5,0.5-3.7,0.5
		c-3.6,0-6.4-1-8.5-3.1c-2.1-2.1-3.1-5-3.1-8.6c0-2.3,0.5-4.4,1.4-6.2c0.9-1.8,2.2-3.2,3.9-4.2c1.7-1,3.6-1.5,5.7-1.5
		c3,0,5.5,1,7.2,2.9c1.8,2,2.7,4.6,2.7,7.9c0,1.2-0.6,1.9-1.7,1.9h-14.4c0.3,4.8,2.6,7.2,6.9,7.2c1.1,0,2.1-0.2,3-0.5
		c0.8-0.3,1.7-0.7,2.7-1.2c0.1-0.1,0.3-0.2,0.8-0.4c0.4-0.2,0.8-0.3,1-0.3C493.4,864.3,493.8,864.4,494,864.8z M480.5,851.9
		c-1.1,1.2-1.7,2.8-2,4.8h12c-0.1-2.1-0.6-3.7-1.6-4.9s-2.4-1.7-4.1-1.7C483.1,850.1,481.6,850.7,480.5,851.9z"/>
</g>
<g class="st1">
	<path class="st2" d="M512.3,867.2c0.3,0.3,0.4,0.7,0.4,1.2c0,0.6-0.2,1.1-0.7,1.4c-0.5,0.3-1.2,0.5-2.1,0.4l-1.3-0.1
		c-2.5-0.2-4.4-1-5.6-2.3c-1.2-1.4-1.9-3.3-1.9-6v-11h-2.8c-1.4,0-2.1-0.6-2.1-1.8c0-0.6,0.2-1,0.5-1.3c0.4-0.3,0.9-0.5,1.5-0.5h2.8
		v-4.8c0-0.7,0.2-1.3,0.6-1.7c0.4-0.4,1-0.6,1.7-0.6c0.7,0,1.3,0.2,1.7,0.6c0.4,0.4,0.7,1,0.7,1.7v4.8h4.6c0.7,0,1.2,0.2,1.5,0.5
		c0.4,0.3,0.5,0.8,0.5,1.3c0,0.6-0.2,1-0.5,1.4c-0.4,0.3-0.9,0.5-1.5,0.5h-4.6v11.3c0,1.5,0.3,2.5,0.9,3.2s1.5,1.1,2.8,1.2l1.3,0.1
		C511.5,866.7,512,866.9,512.3,867.2z"/>
	<path class="st2" d="M516.3,868.4c-0.6-0.3-1-0.7-1.2-1.1c-0.2-0.4-0.3-0.8-0.3-1.3c0-0.5,0.1-0.9,0.4-1.3c0.3-0.3,0.6-0.5,1.1-0.5
		c0.4,0,1,0.2,1.9,0.7c0.9,0.5,1.8,0.9,2.7,1.2c0.9,0.3,2,0.5,3.3,0.5c1.5,0,2.7-0.3,3.5-0.8c0.8-0.5,1.3-1.3,1.3-2.2
		c0-0.6-0.2-1.1-0.5-1.5s-0.9-0.7-1.7-1c-0.8-0.3-2-0.6-3.6-1c-2.7-0.6-4.7-1.4-5.9-2.4c-1.2-1-1.8-2.4-1.8-4.1
		c0-1.3,0.4-2.5,1.2-3.6c0.8-1.1,1.8-1.9,3.2-2.5c1.4-0.6,2.9-0.9,4.7-0.9c1.2,0,2.5,0.2,3.6,0.5s2.2,0.8,3.1,1.4
		c1,0.7,1.5,1.5,1.5,2.4c0,0.5-0.1,0.9-0.4,1.3c-0.3,0.3-0.6,0.5-1,0.5c-0.3,0-0.6-0.1-0.8-0.2s-0.7-0.3-1.1-0.6
		c-0.8-0.5-1.6-0.9-2.4-1.2c-0.7-0.3-1.6-0.4-2.7-0.4c-1.3,0-2.4,0.3-3.1,0.8c-0.8,0.6-1.2,1.3-1.2,2.3c0,0.9,0.4,1.5,1.1,2
		c0.7,0.5,2.1,0.9,4.1,1.4c2.1,0.4,3.7,0.9,4.9,1.5c1.2,0.6,2,1.3,2.5,2.1c0.5,0.8,0.8,1.9,0.8,3.1c0,2-0.8,3.6-2.5,4.9
		c-1.7,1.2-4,1.8-6.8,1.8C520.9,870.3,518.3,869.7,516.3,868.4z"/>
	<path class="st2" d="M540.1,878.3c-0.4,0.2-0.8,0.3-1.2,0.3c-0.5,0-0.8-0.1-1.1-0.4c-0.3-0.3-0.4-0.6-0.4-1.1
		c0-0.3,0.1-0.7,0.2-0.9c2.5-5.9,3.7-12.1,3.7-18.5c0-6.4-1.2-12.6-3.7-18.5c-0.1-0.3-0.2-0.6-0.2-0.9c0-0.4,0.2-0.8,0.5-1.1
		c0.3-0.3,0.7-0.4,1.1-0.4c0.4,0,0.8,0.1,1.2,0.3c0.4,0.2,0.7,0.6,1,1c3.3,6.1,4.9,12.6,4.9,19.6c0,7-1.6,13.5-4.9,19.5
		C540.8,877.7,540.5,878,540.1,878.3z"/>
</g>
<g>
	<g>
		<defs>
			<rect id="SVGID_3_" x="631.6" y="536.8" width="568.4" height="413.2"/>
		</defs>
		<clipPath id="SVGID_4_">
			<use xlink:href="#SVGID_3_"  style="overflow:visible;"/>
		</clipPath>
		<path class="st3" d="M1108.3,815.7l29.9-51.8h-7.9c-6.3,0-10.3-6.9-7.1-12.4l27.7-47.9h-7.7c-4.4,0-7.2-4.8-5-8.6l29.4-50.9
			c1.1-1.9,3-2.9,5-2.9c1.9,0,3.9,1,5,2.9L1207,695c2.2,3.8-0.5,8.6-5,8.6h-7.7l27.7,47.9c3.2,5.5-0.8,12.4-7.1,12.4h-7.9l29.9,51.8
			c4.1,7.2-1,16.1-9.3,16.1h-43v54.9h-11.9h-11.9v-54.9h-43C1109.4,831.8,1104.2,822.8,1108.3,815.7"/>
	</g>
	<g>
		<defs>
			<rect id="SVGID_5_" x="631.6" y="536.8" width="568.4" height="413.2"/>
		</defs>
		<clipPath id="SVGID_6_">
			<use xlink:href="#SVGID_5_"  style="overflow:visible;"/>
		</clipPath>
		<path class="st4" d="M973.5,796.1l37.3-64.6h-9.8c-7.9,0-12.9-8.6-8.9-15.4l34.5-59.7h-9.5c-5.5,0-9-6-6.2-10.7l36.6-63.5
			c1.4-2.4,3.8-3.6,6.2-3.6c2.4,0,4.8,1.2,6.2,3.6l36.6,63.5c2.8,4.8-0.7,10.7-6.2,10.7h-9.5l34.5,59.7c4,6.9-1,15.4-8.9,15.4h-9.8
			l37.3,64.6c5.2,8.9-1.3,20.1-11.6,20.1h-53.7v61.5h-14.9h-14.9v-61.5h-53.7C974.8,816.2,968.3,805,973.5,796.1"/>
	</g>
	<g>
		<defs>
			<rect id="SVGID_7_" x="631.6" y="536.8" width="568.4" height="413.2"/>
		</defs>
		<clipPath id="SVGID_8_">
			<use xlink:href="#SVGID_7_"  style="overflow:visible;"/>
		</clipPath>
		<path class="st5" d="M892.5,806.5l29.4-50.9h-7.7c-6.2,0-10.1-6.8-7-12.2l27.2-47.1h-7.5c-4.3,0-7-4.7-4.9-8.5l28.9-50
			c1.1-1.9,3-2.8,4.9-2.8s3.8,0.9,4.9,2.8l28.9,50c2.2,3.8-0.5,8.5-4.9,8.5H977l27.2,47.1c3.1,5.4-0.8,12.2-7,12.2h-7.7l29.4,50.9
			c4.1,7-1,15.8-9.1,15.8h-42.3v54.5h-11.7h-11.7v-54.5h-42.3C893.5,822.3,888.5,813.5,892.5,806.5"/>
	</g>
	<g>
		<defs>
			<rect id="SVGID_9_" x="631.6" y="536.8" width="568.4" height="413.2"/>
		</defs>
		<clipPath id="SVGID_10_">
			<use xlink:href="#SVGID_9_"  style="overflow:visible;"/>
		</clipPath>
		<path class="st6" d="M669.9,845.7l27.9-48.4h-7.3c-5.9,0-9.6-6.4-6.7-11.6l25.9-44.8h-7.1c-4.1,0-6.7-4.5-4.6-8l27.4-47.5
			c1-1.8,2.8-2.7,4.6-2.7s3.6,0.9,4.6,2.7l27.4,47.5c2.1,3.6-0.5,8-4.6,8h-7.1l25.8,44.8c3,5.1-0.7,11.6-6.7,11.6H762l27.9,48.4
			c3.9,6.7-1,15-8.7,15H741v53.2h-11h-11.1v-53.2h-40.2C670.9,860.8,666.1,852.4,669.9,845.7"/>
	</g>
	<g>
		<defs>
			<rect id="SVGID_11_" x="631.6" y="536.8" width="568.4" height="413.2"/>
		</defs>
		<clipPath id="SVGID_12_">
			<use xlink:href="#SVGID_11_"  style="overflow:visible;"/>
		</clipPath>
		<path class="st7" d="M1032.4,823.2V950h-16.7V826.6C1021.6,826.6,1027.2,825.4,1032.4,823.2"/>
	</g>
	<g>
		<defs>
			<rect id="SVGID_13_" x="631.6" y="536.8" width="568.4" height="413.2"/>
		</defs>
		<clipPath id="SVGID_14_">
			<use xlink:href="#SVGID_13_"  style="overflow:visible;"/>
		</clipPath>
		<path class="st8" d="M1015.8,950h-16.7V823.2c5.3,2.2,10.9,3.4,16.7,3.4V950z"/>
	</g>
	<g>
		<defs>
			<rect id="SVGID_15_" x="631.6" y="536.8" width="568.4" height="413.2"/>
		</defs>
		<clipPath id="SVGID_16_">
			<use xlink:href="#SVGID_15_"  style="overflow:visible;"/>
		</clipPath>
		<path class="st9" d="M1015.8,536.8v289.8c-5.8,0-11.4-1.2-16.7-3.4c-25.1-10.5-43.5-43.9-43.5-83.5
			C955.7,691.7,982.6,536.8,1015.8,536.8"/>
	</g>
	<g>
		<defs>
			<rect id="SVGID_17_" x="631.6" y="536.8" width="568.4" height="413.2"/>
		</defs>
		<clipPath id="SVGID_18_">
			<use xlink:href="#SVGID_17_"  style="overflow:visible;"/>
		</clipPath>
		<path class="st10" d="M1015.8,536.8c33.2,0,60.1,154.8,60.1,202.8c0,39.6-18.4,73.1-43.5,83.5c-5.3,2.2-10.9,3.4-16.7,3.4
			L1015.8,536.8L1015.8,536.8z"/>
	</g>
	<g>
		<defs>
			<rect id="SVGID_19_" x="631.6" y="536.8" width="568.4" height="413.2"/>
		</defs>
		<clipPath id="SVGID_20_">
			<use xlink:href="#SVGID_19_"  style="overflow:visible;"/>
		</clipPath>
		<path class="st11" d="M685.8,841.2V950H674V843.7C678.1,843.7,682.1,842.8,685.8,841.2"/>
	</g>
	<g>
		<defs>
			<rect id="SVGID_21_" x="631.6" y="536.8" width="568.4" height="413.2"/>
		</defs>
		<clipPath id="SVGID_22_">
			<use xlink:href="#SVGID_21_"  style="overflow:visible;"/>
		</clipPath>
		<path class="st12" d="M674,950h-11.8V841.2c3.7,1.6,7.7,2.5,11.8,2.5V950z"/>
	</g>
	<g>
		<defs>
			<rect id="SVGID_23_" x="631.6" y="536.8" width="568.4" height="413.2"/>
		</defs>
		<clipPath id="SVGID_24_">
			<use xlink:href="#SVGID_23_"  style="overflow:visible;"/>
		</clipPath>
		<path class="st13" d="M674,628.5v215.3c-4.1,0-8-0.9-11.8-2.5c-17.7-7.8-30.7-32.6-30.7-62C631.6,743.5,650.6,628.5,674,628.5"/>
	</g>
	<g>
		<defs>
			<rect id="SVGID_25_" x="631.6" y="536.8" width="568.4" height="413.2"/>
		</defs>
		<clipPath id="SVGID_26_">
			<use xlink:href="#SVGID_25_"  style="overflow:visible;"/>
		</clipPath>
		<path class="st14" d="M674,628.5c23.4,0,42.5,115,42.5,150.7c0,29.5-13,54.3-30.7,62c-3.7,1.6-7.7,2.5-11.8,2.5V628.5z"/>
	</g>
	<g>
		<defs>
			<rect id="SVGID_27_" x="631.6" y="536.8" width="568.4" height="413.2"/>
		</defs>
		<clipPath id="SVGID_28_">
			<use xlink:href="#SVGID_27_"  style="overflow:visible;"/>
		</clipPath>
		<rect x="875.9" y="859.2" class="st15" width="15.3" height="90.9"/>
	</g>
	<g>
		<defs>
			<rect id="SVGID_29_" x="631.6" y="536.8" width="568.4" height="413.2"/>
		</defs>
		<clipPath id="SVGID_30_">
			<use xlink:href="#SVGID_29_"  style="overflow:visible;"/>
		</clipPath>
		<rect x="860.5" y="859.2" class="st16" width="15.3" height="90.9"/>
	</g>
	<g>
		<defs>
			<rect id="SVGID_31_" x="631.6" y="536.8" width="568.4" height="413.2"/>
		</defs>
		<clipPath id="SVGID_32_">
			<use xlink:href="#SVGID_31_"  style="overflow:visible;"/>
		</clipPath>
		<path class="st17" d="M793.3,838.5l38.4-66.5h-10.1c-8.2,0-13.3-8.8-9.2-15.9l35.5-61.6h-9.8c-5.7,0-9.2-6.1-6.4-11.1l37.7-65.4
			c1.4-2.5,3.9-3.7,6.4-3.7v244.8h-15.3h-55.3C794.6,859.2,788,847.7,793.3,838.5"/>
	</g>
	<g>
		<defs>
			<rect id="SVGID_33_" x="631.6" y="536.8" width="568.4" height="413.2"/>
		</defs>
		<clipPath id="SVGID_34_">
			<use xlink:href="#SVGID_33_"  style="overflow:visible;"/>
		</clipPath>
		<path class="st18" d="M875.9,614.4c2.5,0,5,1.2,6.4,3.7l37.7,65.4c2.8,4.9-0.7,11.1-6.4,11.1h-9.8l35.5,61.6
			c4.1,7.1-1,15.9-9.2,15.9H920l38.4,66.5c5.3,9.2-1.3,20.7-11.9,20.7h-55.3h-15.3V614.4z"/>
	</g>
	<g>
		<defs>
			<rect id="SVGID_35_" x="631.6" y="536.8" width="568.4" height="413.2"/>
		</defs>
		<clipPath id="SVGID_36_">
			<use xlink:href="#SVGID_35_"  style="overflow:visible;"/>
		</clipPath>
		<rect x="1130.5" y="869.9" class="st19" width="10.5" height="80.1"/>
	</g>
	<g>
		<defs>
			<rect id="SVGID_37_" x="631.6" y="536.8" width="568.4" height="413.2"/>
		</defs>
		<clipPath id="SVGID_38_">
			<use xlink:href="#SVGID_37_"  style="overflow:visible;"/>
		</clipPath>
		<rect x="1120" y="869.9" class="st20" width="10.5" height="80.1"/>
	</g>
	<g>
		<defs>
			<rect id="SVGID_39_" x="631.6" y="536.8" width="568.4" height="413.2"/>
		</defs>
		<clipPath id="SVGID_40_">
			<use xlink:href="#SVGID_39_"  style="overflow:visible;"/>
		</clipPath>
		<path class="st21" d="M1074,855.8l26.3-45.5h-6.9c-5.6,0-9.1-6-6.3-10.9l24.3-42.1h-6.7c-3.9,0-6.3-4.2-4.4-7.6l25.8-44.7
			c1-1.7,2.7-2.5,4.4-2.5v167.4H1120h-37.8C1074.9,869.9,1070.4,862.1,1074,855.8"/>
	</g>
	<g>
		<defs>
			<rect id="SVGID_41_" x="631.6" y="536.8" width="568.4" height="413.2"/>
		</defs>
		<clipPath id="SVGID_42_">
			<use xlink:href="#SVGID_41_"  style="overflow:visible;"/>
		</clipPath>
		<path class="st22" d="M1130.5,702.5c1.7,0,3.4,0.8,4.4,2.5l25.8,44.7c1.9,3.4-0.5,7.6-4.4,7.6h-6.7l24.3,42.1
			c2.8,4.8-0.7,10.9-6.3,10.9h-6.9l26.3,45.5c3.6,6.3-0.9,14.1-8.2,14.1H1141h-10.5V702.5z"/>
	</g>
</g>
<g class="st1">
	<path class="st23" d="M129,134.5c-0.2,0.7-0.3,1.5-0.3,2.3v0.9c0,1.3,0.1,2.3,0.3,2.9c0,3.8,0,6.7,0,8.8c-0.2,0.7-12.6,1-37.3,1
		c-1.1,0-3,0-5.6-0.1c-0.4-0.8-0.6-2-0.6-3.7l0.1-2.5v-8.6l0-7.2v-7.1l0-11.5c0-2.1,0-4.1-0.1-6v-0.4l-0.1-5.4
		c0-3.2,0.3-5.3,0.8-6.2c0.5,0,1.2,0,2.1,0h1.8l6.4-0.1c7.2,0,11.2,0.5,11.9,1.4l-0.3,13.2l-0.1,11.1l0,0.5l-0.2,15.7l1.5,0.9
		c4.6-0.3,9-0.4,13.3-0.4S129,134.1,129,134.5z"/>
</g>
<g class="st1">
	<path class="st23" d="M130.1,120.6l0.1-0.8c0.3-3.2,0.7-5.9,1.2-8.4c0.5-2.4,1.3-4.7,2.5-6.8c2.7-4.7,6.5-8.2,11.3-10.6
		c4.8-2.4,10-3.6,15.6-3.6c5.6,0,10.7,1.1,15.2,3.4c2.7,1.3,4.9,3,6.4,5.1c2.9,3.7,4.9,7.1,5.8,10.2s1.4,6.7,1.4,10.7
		c0,9-1.9,15.9-5.6,20.6l-1.7,2.3c-2.3,2.7-5.7,4.8-9.9,6.3c-4.3,1.5-8.5,2.2-12.7,2.3c-7.2,0-13.1-1.5-17.7-4.5
		C134,141.7,130.1,133,130.1,120.6z M151.9,120.3c0,0,0,0.1,0,0.2v0.1c-0.1,1.1-0.2,2.2-0.2,3.6s0.1,2.7,0.3,4.2
		c0.2,1.5,0.6,2.9,1.1,4.4s1.3,2.6,2.3,3.6c1.1,1,2.4,1.4,3.7,1.4s2.5-0.2,3.5-0.6s1.7-0.9,2.4-1.5c0.6-0.6,1.2-1.4,1.7-2.5
		c1.2-2.7,1.8-7,1.8-12.8c0-5.9-0.7-10-2-12.3c-1.3-2.4-3.4-3.5-6.1-3.5c-1.4,0-2.6,0.3-3.6,1c-1,0.7-1.8,1.3-2.3,2
		c-0.5,0.7-1,2.2-1.6,4.5s-0.8,4.4-0.8,6.4L151.9,120.3z"/>
</g>
<g class="st1">
	<path class="st23" d="M222.1,92.1l6.6,0h14.7c0.1,0,0.2,0,0.2,0.1l1.4,8.8c0.4,2.6,0.9,6.4,1.7,11.6c0.8,5.2,1.3,8.5,1.5,9.8l0.3,2
		h1.4c0.7-7.3,1.9-16.9,3.7-28.8l0.2-0.9c0-0.2,0-0.5,0-0.8c0-0.6,0.1-1.1,0.4-1.5c0.2-0.4,0.9-0.6,2-0.6c8.1,0,14,0.2,17.7,0.7
		c0.1,0.1,0.2,0.4,0.3,0.9c-0.6,2.8-1.6,7.2-3,13.2c-1.4,6-2.4,10.5-3.1,13.7l-0.3,1.4c-0.1,0.2-0.2,0.6-0.5,1.4
		c-0.3,0.8-0.4,1.3-0.4,1.6l-2.6,12l-1.2,5.9c-0.7,3.4-1.1,5.8-1.4,7.2l-0.2-0.1c-1.8,0.1-4.4,0.2-8.1,0.2h-5.9l-2,0
		c-2.8,0-5.4,0.1-7.8,0.2c-0.2,0-0.6-2-1.1-6c-0.5-4-0.8-6.1-0.8-6.4l-0.3-1.9c-0.8-5.3-1.6-10.9-2.4-16.8l-1.4,0
		c-1.4,7.4-2.7,16.4-3.8,27c-0.3,2.8-0.8,4.2-1.6,4.3c-3.6-0.1-7.1-0.2-10.5-0.2c-3.4,0-7.7,0.1-13,0.3c-0.7-0.6-1.3-2.1-1.7-4.6
		l-0.2-1.5c-1-5.1-2.9-14.5-6-28.1l-0.8-3.7c-0.3-1.5-0.9-4.4-1.9-8.7c-1-4.3-1.8-8.2-2.5-11.5c0-0.2,0.2-0.4,0.5-0.5
		c0.6,0.1,1.2,0.1,1.9,0.1h0.5l3.6-0.1l5.2-0.1c1.7,0,3,0,4,0.1h2.4c0.2,0,0.6,0,1.2,0.1h0.5c0.8,0,1.9,6.3,3.4,18.9
		c0.7,5.7,1,9,1.2,10l0.3,2.2l1.5,0c0.9-5.8,2-12.7,3.1-20.5c0-0.9,0.2-2.7,0.6-5.4c0.4-2.7,0.8-4.4,1.2-5
		C221.1,92.1,221.5,92.1,222.1,92.1z"/>
	<path class="st23" d="M320.1,92.2l12.1-0.1c2.6,0,4.9,0.1,7,0.2c5.6,0.2,9.9,1.5,12.8,4c2.9,2.5,4.4,6,4.4,10.5
		c0,3.2-0.9,5.8-2.8,8.1c-1.8,2.2-4.5,4.2-8.1,5.9c5.6,1.8,9,6.1,10.2,12.9c0.3,1.5,0.5,3.2,0.7,5.1s0.3,3.2,0.4,3.9l0.4,1.9
		c0.4,2.3,0.8,3.9,1.1,4.9l-0.2,0.1c-4.3,0.3-8.2,0.4-11.7,0.4s-6.7-0.1-9.4-0.2h-0.2c-0.8,0-1.6-3.7-2.5-11.2l-0.2-1.6
		c-0.1-2.8-0.6-4.6-1.5-5.6c-0.9-1-2.4-1.4-4.5-1.4l-0.5,0h-2v11.5l0,1.2v6.9c-0.1,0.3-0.3,0.4-0.6,0.5c-2.8,0.1-6.7,0.2-11.7,0.2
		c-5.1,0-8.4,0-10,0l-0.2-0.1l-0.1,0c-0.1,0-0.1,0-0.2-0.1l0.1-3.4l0-1.1l0.2-15.7v-2.8l0-2.8l0-9.8l0-1.3l-0.1-8.6l0.2-12.1
		c0-0.2,0.7-0.3,2.2-0.3l2.4,0h2.3l4.8,0L320.1,92.2z M334,104.5c-1.5-0.7-3.5-1-6.1-1h-2.2c-0.3,0.4-0.4,2.5-0.4,6.4
		c0,3.8,0.1,6.4,0.2,7.7c7.9-0.2,11.8-2.9,11.8-8.2C337.4,107.2,336.3,105.6,334,104.5z M358.3,149.4L358.3,149.4
		C358.3,149.4,358.3,149.4,358.3,149.4L358.3,149.4z M358.5,149.3l-0.2,0.1v-0.1C358.3,149.3,358.4,149.3,358.5,149.3z"/>
	<path class="st23" d="M361.8,145c0-5.1,0.1-8.7,0.4-10.7c0-11,0.2-22,0.5-33.2c-0.1-1.6-0.1-3.2-0.1-4.8v-1.2
		c-0.1-0.8-0.2-1.5-0.2-2.1c0-0.6,0.1-1,0.2-1.2c5.4,0.3,10.1,0.5,14.2,0.5c4.1,0,6.8-0.1,8.4-0.2c0.1,0.1,0.1,0.3,0.1,0.6H385v13.7
		l0.3,30.8c0,0.2,0,0.4,0.1,0.6v0.1c0.1,0.2,0.1,0.3,0.1,0.5l0.3,11c-0.1,0.3-0.4,0.5-0.7,0.6h-1.3l-21.2,0.3
		c-0.3-0.1-0.6-0.3-1-0.6l0-0.6L361.8,145z"/>
	<path class="st23" d="M392.1,133.4l20-0.3c0.5,0,0.9,0.4,1.3,1.3c0.3,0.9,0.7,1.5,1,2c0.8,1.2,2.1,1.8,3.9,1.8s3.3-0.4,4.4-1.3
		c1.1-0.8,1.7-1.9,1.7-3.3c0-1.3-0.3-2.2-1-2.7s-1.4-1-2.2-1.4s-2-0.8-3.6-1.1s-2.4-0.4-2.6-0.5h0.1l-2.2-0.6
		c-1.4-0.3-2.5-0.5-3.5-0.8c-6-1.6-10.4-3.6-13.1-6.1c-2.7-2.4-4-5.7-4-9.9c0-3,0.6-5.7,1.7-8.1c1.1-2.4,2.6-4.3,4.3-5.9
		c5.2-4.4,12.3-6.5,21.4-6.5c7.2,0,12.9,1.3,17.1,3.9h0c2.6,1.9,4.5,3.8,5.4,5.7c1,1.9,1.6,4.1,1.9,6.9l-1,1
		c-6.6,0.3-12.5,0.4-17.6,0.4c-1.5,0-2.5-0.5-2.8-1.4c-0.1-0.4-0.3-0.8-0.4-1.1c-0.4-0.9-1.5-1.4-3.4-1.4h-0.2c-1.5,0-2.8,0.3-3.8,1
		s-1.6,1.4-1.6,2c0,0.7,0.1,1.2,0.4,1.6c0.3,0.4,0.6,0.8,0.9,1c0.3,0.3,0.8,0.5,1.5,0.8s1.2,0.4,1.5,0.5c0.3,0.1,0.9,0.2,1.6,0.4
		l1.3,0.3c0.5,0.2,2.1,0.5,4.6,1.1c2.6,0.6,4.7,1.2,6.4,1.7v0c5.4,1.8,9,4.1,11,6.8c2,2.7,2.9,5.9,2.9,9.5c0,9.6-5.7,15.8-17.2,18.7
		c-3.3,0.8-6.9,1.4-10.7,1.8c-4.6,0-9.2-0.7-13.8-2c-4.5-1.4-7.6-3.6-9.1-6.7c-1-1.5-1.7-2.9-2.1-4.1c-0.4-1.2-0.6-3-0.9-5.2
		C391.9,133.4,392,133.4,392.1,133.4z"/>
	<path class="st23" d="M450.2,97.6l-0.1-3.3c0-1.4,0.1-2.2,0.4-2.6c0.7,0,2,0,3.9,0c1.9,0,3.5,0,4.9,0l5.3,0.1
		c1-0.1,2.4-0.1,4.3-0.1c1.9,0,3,0.3,3.6,0.8c-0.1,6.2-0.2,13.5-0.2,21.9l1.3,0.2c0.4-1,1.1-2.5,2.1-4.4c1-2,1.6-3.1,1.7-3.4
		l0.4-0.9c0.1-0.2,0.6-1.2,1.4-2.9c0.8-1.7,1.7-3.7,2.5-5.8c0.9-2.2,1.8-3.8,2.8-5.1c1.8,0,3.9,0,6.4,0s5.5,0,8.9,0.1
		c3.4,0.1,5.9,0.1,7.6,0.1c-7.2,13-12.3,22-15.3,27l0.9,1.4c1,1.3,3.3,5,6.8,11c3.5,6.1,6,10.3,7.6,12.9l0.9,1.5
		c1.1,1.8,1.7,2.9,1.7,3.1s-0.1,0.5-0.2,0.7h-0.2c-1.4-0.1-2.6-0.1-3.4-0.1s-2,0-3.4,0.1h-17c-3.9-7.3-7.9-15.1-12.1-23.6
		c-0.2,2-0.5,6.8-0.9,14.3v0.5l0.1,8.6c-0.3,0.5-1.6,0.7-4,0.7l-0.8,0h-2l-10.7,0.1h-3.5c-0.7,0-1.2-0.3-1.5-0.8l-0.1-0.1v-5.7
		l0.1-5.9v-21.4L450.2,97.6z"/>
	<path class="st23" d="M583.2,134.5c-0.2,0.7-0.3,1.5-0.3,2.3v0.9c0,1.3,0.1,2.3,0.3,2.9c0,3.8,0,6.7,0,8.8c-0.2,0.7-12.6,1-37.3,1
		c-1.1,0-3,0-5.6-0.1c-0.4-0.8-0.6-2-0.6-3.7l0.1-2.5v-8.6l0-7.2v-7.1l0-11.5c0-2.1,0-4.1-0.1-6v-0.4l-0.1-5.4
		c0-3.2,0.3-5.3,0.8-6.2c0.5,0,1.2,0,2.1,0h1.8l6.4-0.1c7.2,0,11.2,0.5,11.9,1.4l-0.3,13.2l-0.1,11.1l0,0.5l-0.2,15.7l1.5,0.9
		c4.6-0.3,9-0.4,13.3-0.4S583.2,134.1,583.2,134.5z"/>
	<path class="st23" d="M584.4,120.6l0.1-0.8c0.3-3.2,0.7-5.9,1.2-8.4c0.5-2.4,1.3-4.7,2.5-6.8c2.7-4.7,6.5-8.2,11.3-10.6
		c4.8-2.4,10-3.6,15.6-3.6c5.6,0,10.7,1.1,15.2,3.4c2.7,1.3,4.9,3,6.4,5.1c2.9,3.7,4.9,7.1,5.8,10.2c0.9,3.1,1.4,6.7,1.4,10.7
		c0,9-1.9,15.9-5.6,20.6l-1.7,2.3c-2.3,2.7-5.7,4.8-9.9,6.3c-4.3,1.5-8.5,2.2-12.7,2.3c-7.2,0-13.1-1.5-17.7-4.5
		C588.3,141.7,584.4,133,584.4,120.6z M606.1,120.3c0,0,0,0.1,0,0.2v0.1c-0.1,1.1-0.2,2.2-0.2,3.6s0.1,2.7,0.3,4.2s0.6,2.9,1.1,4.4
		c0.5,1.5,1.3,2.6,2.3,3.6c1.1,1,2.4,1.4,3.7,1.4s2.5-0.2,3.5-0.6c0.9-0.4,1.7-0.9,2.4-1.5c0.6-0.6,1.2-1.4,1.7-2.5
		c1.2-2.7,1.8-7,1.8-12.8c0-5.9-0.7-10-2-12.3c-1.3-2.4-3.4-3.5-6.1-3.5c-1.4,0-2.6,0.3-3.6,1c-1,0.7-1.8,1.3-2.3,2
		c-0.5,0.7-1,2.2-1.6,4.5s-0.8,4.4-0.8,6.4L606.1,120.3z"/>
	<path class="st23" d="M647.1,118.9c0.6-5.7,1.6-10.1,3-13c2.7-5.6,6.7-9.6,12.1-11.9c4.8-2.1,9.9-3.1,15.5-3.1
		c9.4,0,16.2,2.6,20.5,7.7c2.6,3.1,4.1,6.8,4.5,11.4l0.3,3.6c-0.4,0.4-3.1,0.6-8.1,0.6l-6-0.1h-0.5l-3.3-0.1l-0.9,0h-0.8
		c-0.7,0-1.2-1-1.6-3.1c-0.4-2.1-0.9-3.4-1.7-4.1s-1.6-1-2.6-1s-1.8,0.2-2.6,0.5c-0.7,0.4-1.4,0.8-1.8,1.3c-0.5,0.5-0.9,1.2-1.2,2.1
		c-0.6,1.6-1,3.2-1.1,5c-0.1,1.8-0.2,3.7-0.2,5.9v0.9l-0.2,3.8c0,7,2,10.5,5.9,10.7c1,0,1.7-0.2,2.1-0.5c1.1-1,2-2.9,2.8-5.8
		c0.2-0.6,0.4-1.1,0.6-1.5h1.4l1.7,0h6.1l1.9,0l3.6,0h2.2l2.2,0h1.5c0.3,0,0.5,0.3,0.6,0.8l-0.1,1.2c-0.2,3-0.9,5.7-2.1,8.1
		c-2.1,4.4-5.5,7.7-10.1,9.9s-9.6,3.2-15.1,3.2c-9.6,0-16.8-2.8-21.6-8.5C649.5,137.3,647.1,129.3,647.1,118.9z"/>
	<path class="st23" d="M768.3,149.5c0,0.3-0.7,0.5-2.1,0.5h-3.5l-2.3,0H758l-3.7,0c-3.7,0-6.7-0.1-9.1-0.3c-0.1,0-0.2-0.2-0.3-0.5
		l-0.2-0.8c-0.2-2.6-0.8-5.1-1.8-7.5l-16.2,0.2c-0.1,0.4-0.4,1.7-1,3.8c-0.6,2.1-1,3.7-1.2,4.8c-0.3,0.3-1.5,0.4-3.6,0.4l-0.9,0
		h-2.2l-9.8,0.2h-1.1l-1.1,0h-2.6c-0.2-0.2-0.4-0.4-0.6-0.7c2.5-8.7,5.9-19.5,10.2-32.4l0.9-2.7h0l1-3.1c0.3-1,1.3-3.8,2.8-8.4
		s2.5-7.5,2.9-8.9c0.4-1.3,0.6-2,0.7-2.1h6.3l13.4-0.2l3.6,0.2l3-0.2c1.5,0,2.3,0.3,2.3,0.9c2.5,7,5.9,17.2,10.1,30.4
		c4.2,13.2,6.6,20.6,7.1,22.3l0.5,1.9C767.7,148,767.9,148.7,768.3,149.5z M730.8,128.8l1.5,0l9,0c-0.4-3-0.7-5.2-0.9-6.6l-1.4-6.5
		c-1.5-6.7-2.3-10.1-2.3-10.2c-0.1-0.1-0.1-0.2-0.1-0.4c0-0.1-0.1-0.2-0.1-0.2c0,0-0.1-0.1-0.1-0.2s-0.1-0.2-0.1-0.2
		c0,0-0.1-0.1-0.1-0.2c-0.2-0.3-0.5-0.6-1.1-0.8c-0.7,0.2-2.7,7.7-6.1,22.8l-0.4,2.5H730.8z"/>
	<path class="st23" d="M814.1,134.5c-0.2,0.7-0.3,1.5-0.3,2.3v0.9c0,1.3,0.1,2.3,0.3,2.9c0,3.8,0,6.7,0,8.8c-0.2,0.7-12.6,1-37.3,1
		c-1.1,0-3,0-5.6-0.1c-0.4-0.8-0.6-2-0.6-3.7l0.1-2.5v-8.6l0-7.2v-7.1l0-11.5c0-2.1,0-4.1-0.1-6v-0.4l-0.1-5.4
		c0-3.2,0.3-5.3,0.8-6.2c0.5,0,1.2,0,2.1,0h1.8l6.4-0.1c7.2,0,11.2,0.5,11.9,1.4l-0.3,13.2l-0.1,11.1l0,0.5l-0.2,15.7l1.5,0.9
		c4.6-0.3,9-0.4,13.3-0.4S814,134.1,814.1,134.5z"/>
</g>
<g class="st1">
	<path class="st23" d="M102.1,187.2l12.1-0.1c2.6,0,4.9,0.1,7,0.2c5.6,0.2,9.9,1.5,12.8,4c2.9,2.5,4.4,6,4.4,10.5
		c0,3.2-0.9,5.8-2.8,8.1c-1.8,2.2-4.5,4.2-8.1,5.9c5.6,1.8,9,6.1,10.2,12.9c0.3,1.5,0.5,3.2,0.7,5.1c0.2,1.9,0.3,3.2,0.4,3.9
		l0.4,1.9c0.4,2.3,0.8,3.9,1.1,4.9l-0.2,0.1c-4.3,0.3-8.2,0.4-11.7,0.4c-3.5,0-6.7-0.1-9.4-0.2h-0.2c-0.8,0-1.6-3.7-2.5-11.2
		l-0.2-1.6c-0.1-2.8-0.6-4.6-1.5-5.6c-0.9-1-2.4-1.4-4.5-1.4l-0.5,0h-2v11.5l0,1.2v6.9c-0.1,0.3-0.3,0.4-0.6,0.5
		c-2.8,0.1-6.7,0.2-11.7,0.2c-5.1,0-8.4,0-10,0l-0.2-0.1l-0.1,0c-0.1,0-0.1,0-0.2-0.1l0.1-3.4l0-1.1l0.2-15.7V222l0-2.8l0-9.8l0-1.3
		l-0.1-8.6l0.2-12.1c0-0.2,0.7-0.3,2.2-0.3l2.4,0h2.3l4.8,0L102.1,187.2z M116.1,199.5c-1.5-0.7-3.5-1-6.1-1h-2.2
		c-0.3,0.4-0.4,2.5-0.4,6.4c0,3.8,0.1,6.4,0.2,7.7c7.9-0.2,11.8-2.9,11.8-8.2C119.5,202.2,118.4,200.5,116.1,199.5z M140.4,244.3
		L140.4,244.3C140.4,244.4,140.4,244.4,140.4,244.3L140.4,244.3z M140.6,244.2l-0.2,0.1v-0.1C140.4,244.2,140.5,244.2,140.6,244.2z"
		/>
	<path class="st23" d="M144.3,197.2l-0.2-9.9c0,0,0.1,0,0.3,0.1c19.2-0.3,33.6-0.5,43.3-0.5c0.1,0.1,0.2,0.1,0.2,0.2v10.7
		c0,1,0,1.9-0.1,2.5c-0.1,0.4-0.9,0.6-2.2,0.6h-0.3c-6.1,0-12.5-0.1-19.1-0.3c0,0.2,0,0.6-0.1,1.2c-0.1,0.6-0.1,1-0.1,1.2l-0.2,1.4
		c-0.1,1-0.2,2.6-0.3,5l11.7-0.3c2,0,3.5-0.1,4.4-0.1h0.6c1.5,0,2.5,0,3,0.1c0.5,0.1,0.7,0.3,0.7,0.8l0,0.3v0.9l0.2,9.7l0,0v0
		c-7.7,0.4-13.8,0.6-18.4,0.6H166v9.2l20.5-0.6c1.1,0,1.9,0.2,2.2,0.5c0,0.7,0,1.6,0,2.8l0.3,10.3c0,0.6-0.3,1-0.8,1.1l-12.6-0.1
		c-2.5,0-7.4,0.1-14.7,0.3l-6.2,0.2c-4.4,0.2-7.6,0.2-9.8,0.2l-0.1-0.1h0c-0.3-0.3-0.5-0.5-0.7-0.7v-1.3l0.2-40.4L144.3,197.2z"/>
	<path class="st23" d="M191.3,213.9c0.6-5.7,1.6-10.1,3-13c2.7-5.6,6.7-9.6,12.1-11.9c4.8-2.1,9.9-3.1,15.5-3.1
		c9.4,0,16.2,2.6,20.5,7.7c2.6,3.1,4.1,6.8,4.5,11.4l0.3,3.6c-0.4,0.4-3.1,0.6-8.1,0.6l-6-0.1h-0.5l-3.3-0.1l-0.9,0h-0.8
		c-0.7,0-1.2-1-1.6-3.1c-0.4-2.1-0.9-3.4-1.7-4.1s-1.6-1-2.6-1c-1,0-1.8,0.2-2.6,0.5c-0.7,0.4-1.4,0.8-1.8,1.3
		c-0.5,0.5-0.9,1.2-1.2,2.1c-0.6,1.6-1,3.2-1.1,5c-0.1,1.8-0.2,3.7-0.2,5.9v0.9l-0.2,3.8c0,7,2,10.5,5.9,10.7c1,0,1.7-0.2,2.1-0.5
		c1.1-1,2-2.9,2.8-5.8c0.2-0.6,0.4-1.1,0.6-1.5h1.4l1.7,0h6.1l1.9,0l3.6,0h2.2l2.2,0h1.5c0.3,0,0.5,0.3,0.6,0.8l-0.1,1.2
		c-0.2,3-0.9,5.7-2.1,8.1c-2.1,4.4-5.5,7.7-10.1,9.9s-9.6,3.2-15.1,3.2c-9.6,0-16.8-2.8-21.6-8.5
		C193.7,232.3,191.3,224.3,191.3,213.9z"/>
	<path class="st23" d="M269.4,187.2l12.1-0.1c2.6,0,4.9,0.1,7,0.2c5.6,0.2,9.9,1.5,12.8,4c2.9,2.5,4.4,6,4.4,10.5
		c0,3.2-0.9,5.8-2.8,8.1c-1.8,2.2-4.5,4.2-8.1,5.9c5.6,1.8,9,6.1,10.2,12.9c0.3,1.5,0.5,3.2,0.7,5.1s0.3,3.2,0.4,3.9l0.4,1.9
		c0.4,2.3,0.8,3.9,1.1,4.9l-0.2,0.1c-4.3,0.3-8.2,0.4-11.7,0.4s-6.7-0.1-9.4-0.2h-0.2c-0.8,0-1.6-3.7-2.5-11.2l-0.2-1.6
		c-0.1-2.8-0.6-4.6-1.5-5.6c-0.9-1-2.4-1.4-4.5-1.4l-0.5,0h-2v11.5l0,1.2v6.9c-0.1,0.3-0.3,0.4-0.6,0.5c-2.8,0.1-6.7,0.2-11.7,0.2
		c-5.1,0-8.4,0-10,0l-0.2-0.1l-0.1,0c-0.1,0-0.1,0-0.2-0.1l0.1-3.4l0-1.1l0.2-15.7V222l0-2.8l0-9.8l0-1.3l-0.1-8.6l0.2-12.1
		c0-0.2,0.7-0.3,2.2-0.3l2.4,0h2.3l4.8,0L269.4,187.2z M283.4,199.5c-1.5-0.7-3.5-1-6.1-1h-2.2c-0.3,0.4-0.4,2.5-0.4,6.4
		c0,3.8,0.1,6.4,0.2,7.7c7.9-0.2,11.8-2.9,11.8-8.2C286.7,202.2,285.6,200.5,283.4,199.5z M307.7,244.3L307.7,244.3
		C307.6,244.4,307.6,244.4,307.7,244.3L307.7,244.3z M307.8,244.2l-0.2,0.1v-0.1C307.7,244.2,307.7,244.2,307.8,244.2z"/>
	<path class="st23" d="M311.6,197.2l-0.2-9.9c0,0,0.1,0,0.3,0.1c19.2-0.3,33.6-0.5,43.3-0.5c0.1,0.1,0.2,0.1,0.2,0.2v10.7
		c0,1,0,1.9-0.1,2.5c-0.1,0.4-0.9,0.6-2.2,0.6h-0.3c-6.1,0-12.5-0.1-19.1-0.3c0,0.2,0,0.6-0.1,1.2s-0.1,1-0.1,1.2l-0.2,1.4
		c-0.1,1-0.2,2.6-0.3,5l11.7-0.3c2,0,3.5-0.1,4.4-0.1h0.6c1.5,0,2.5,0,3,0.1c0.5,0.1,0.7,0.3,0.7,0.8l0,0.3v0.9l0.2,9.7l0,0v0
		c-7.7,0.4-13.8,0.6-18.4,0.6h-1.8v9.2l20.5-0.6c1.1,0,1.9,0.2,2.2,0.5c0,0.7,0,1.6,0,2.8l0.3,10.3c0,0.6-0.3,1-0.8,1.1l-12.6-0.1
		c-2.5,0-7.4,0.1-14.7,0.3l-6.2,0.2c-4.4,0.2-7.6,0.2-9.8,0.2l-0.1-0.1h0c-0.3-0.3-0.5-0.5-0.7-0.7v-1.3l0.2-40.4L311.6,197.2z"/>
</g>
<g class="st1">
	<path class="st23" d="M420.9,244.4c0,0.3-0.7,0.5-2.1,0.5h-3.5l-2.3,0h-2.3l-3.7,0c-3.7,0-6.7-0.1-9.1-0.3c-0.1,0-0.2-0.2-0.3-0.5
		l-0.2-0.8c-0.2-2.6-0.8-5.1-1.8-7.5l-16.2,0.2c-0.1,0.4-0.4,1.7-1,3.8c-0.6,2.1-1,3.7-1.2,4.8c-0.3,0.3-1.4,0.4-3.6,0.4l-0.9,0
		h-2.2l-9.8,0.2h-1.1l-1.1,0h-2.6c-0.2-0.2-0.4-0.4-0.6-0.7c2.5-8.7,5.9-19.5,10.2-32.4l0.9-2.7h0l1-3.1c0.3-1,1.3-3.8,2.8-8.4
		s2.5-7.5,2.9-8.9c0.4-1.3,0.6-2,0.7-2.1h6.3l13.4-0.2l3.6,0.2l3-0.2c1.5,0,2.3,0.3,2.3,0.9c2.5,7,5.9,17.2,10.1,30.4
		c4.2,13.2,6.6,20.6,7.1,22.3l0.5,1.9C420.3,243,420.5,243.7,420.9,244.4z M383.4,223.8l1.6,0l9,0c-0.4-3-0.7-5.2-0.9-6.6l-1.4-6.5
		c-1.5-6.7-2.3-10.1-2.3-10.2c-0.1-0.1-0.1-0.2-0.1-0.4c0-0.1-0.1-0.2-0.1-0.2c0,0-0.1-0.1-0.1-0.2c0-0.1-0.1-0.2-0.1-0.2
		c0,0-0.1-0.1-0.1-0.2c-0.2-0.3-0.5-0.6-1.1-0.8c-0.7,0.2-2.7,7.7-6.1,22.8l-0.4,2.5H383.4z"/>
</g>
<g class="st1">
	<path class="st23" d="M465,201.1c0,0.8-0.1,1.2-0.3,1.2l-13.7-0.1c-0.1,2.4-0.1,6.3-0.1,11.5s0,8.8,0,10.8l0.2,20
		c-0.1,0.4-0.4,0.5-0.8,0.6l-8-0.1l0,0l-2.5,0h-6.9c-1.9,0-3.3,0-4.2,0l-0.6-0.6c0,0-0.2-0.2-0.5-0.6c0-2.2,0.1-7.1,0.3-14.8
		l0.4-20.1l-0.1-0.9c-0.2-2.5-0.3-4-0.5-4.4c-0.2-0.5-0.5-0.7-1-0.8c-0.5,0-0.8-0.1-1.1-0.1l-1.5,0.1l-9.4-0.2
		c-0.3-0.7-0.5-2.1-0.5-4.4l0.1-3.3v-1c0-4-0.1-6.2-0.1-6.5c0.1,0,0.2,0,0.3,0.1l48.1-0.4c1,0,1.6,0.1,1.9,0.2
		c0.3,0.1,0.4,0.4,0.4,0.8v10L465,201.1z"/>
	<path class="st23" d="M468.1,240c0-5.1,0.1-8.7,0.4-10.7c0-11,0.2-22,0.5-33.2c-0.1-1.6-0.1-3.2-0.1-4.8v-1.2
		c-0.1-0.8-0.2-1.5-0.2-2.1c0-0.6,0.1-1,0.2-1.2c5.4,0.3,10.1,0.5,14.2,0.5c4.1,0,6.8-0.1,8.4-0.2c0.1,0.1,0.1,0.3,0.1,0.6h-0.3
		v13.7l0.3,30.8c0,0.2,0,0.4,0.1,0.6v0.1c0.1,0.2,0.1,0.3,0.1,0.5l0.3,11c-0.1,0.3-0.4,0.5-0.7,0.6h-1.3l-21.2,0.3
		c-0.3-0.1-0.6-0.3-1-0.6l0-0.6L468.1,240z"/>
	<path class="st23" d="M497.4,215.6l0.1-0.8c0.3-3.2,0.7-5.9,1.2-8.4c0.5-2.4,1.3-4.7,2.5-6.8c2.7-4.7,6.5-8.2,11.3-10.6
		c4.8-2.4,10-3.6,15.6-3.6c5.6,0,10.7,1.1,15.2,3.4c2.7,1.3,4.9,3,6.4,5.1c2.9,3.7,4.9,7.1,5.8,10.2s1.4,6.7,1.4,10.7
		c0,9-1.9,15.9-5.6,20.6l-1.7,2.3c-2.3,2.7-5.7,4.8-9.9,6.3c-4.3,1.5-8.5,2.2-12.7,2.3c-7.2,0-13.1-1.5-17.7-4.5
		C501.3,236.6,497.4,227.9,497.4,215.6z M519.1,215.3c0,0,0,0.1,0,0.2v0.1c-0.1,1.1-0.2,2.2-0.2,3.6s0.1,2.7,0.3,4.2
		c0.2,1.5,0.6,2.9,1.1,4.4s1.3,2.6,2.3,3.6c1.1,1,2.4,1.4,3.7,1.4s2.5-0.2,3.5-0.6s1.7-0.9,2.4-1.5c0.6-0.6,1.2-1.4,1.7-2.5
		c1.2-2.7,1.8-7,1.8-12.8c0-5.9-0.7-10-2-12.3c-1.3-2.4-3.4-3.5-6.1-3.5c-1.4,0-2.6,0.3-3.6,1c-1,0.7-1.8,1.3-2.3,2
		c-0.5,0.7-1,2.2-1.6,4.5s-0.8,4.4-0.8,6.4L519.1,215.3z"/>
	<path class="st23" d="M619.8,217.6l0,2.5v14l0.1,6.7v1.9l0,1.8c-0.2,0.2-0.8,0.3-1.9,0.3h-1l-11.9,0.2c-5,0-8.8,0-11.3,0
		c-0.4-0.4-1.8-4.1-4.1-11l-7.2-19.2l-1.4,0.2l0,3.9v10.2l0.2,10.2v4.2c0,1.1-0.3,1.7-0.8,1.8c-2.5-0.1-4.9-0.1-7.1-0.1h-1.2
		l-5.7,0.2h-0.8l-2.7,0.1l-0.1-0.1c-0.8-0.8-1.2-1.3-1.2-1.7v-0.7l0-0.8l0.2-14.7c0-16.2,0.2-28.4,0.5-36.7l0.1-3.1
		c0-0.2,8.7-0.4,26.1-0.6c0.2,0.1,0.4,0.7,0.7,1.7v-0.1l0.2,0.8c1.9,5.3,4.1,11.5,6.8,18.4s4,10.5,4.1,10.6l1.3-0.1l0.2-30.8
		c0-0.2,1.8-0.3,5.5-0.3l9.5,0.2h2.8C619.7,195.5,619.8,205.7,619.8,217.6z"/>
</g>
<g class="st1">
	<path class="st23" d="M707.4,244.4c0,0.3-0.7,0.5-2.1,0.5h-3.5l-2.3,0h-2.3l-3.7,0c-3.7,0-6.7-0.1-9.1-0.3c-0.1,0-0.2-0.2-0.3-0.5
		l-0.2-0.8c-0.2-2.6-0.8-5.1-1.8-7.5l-16.2,0.2c-0.1,0.4-0.4,1.7-1,3.8c-0.6,2.1-1,3.7-1.2,4.8c-0.3,0.3-1.4,0.4-3.6,0.4l-0.9,0H657
		l-9.8,0.2H646l-1.1,0h-2.6c-0.2-0.2-0.4-0.4-0.6-0.7c2.5-8.7,5.9-19.5,10.2-32.4l0.9-2.7h0l1-3.1c0.3-1,1.3-3.8,2.8-8.4
		c1.5-4.6,2.5-7.5,2.9-8.9c0.4-1.3,0.6-2,0.7-2.1h6.3l13.4-0.2l3.6,0.2l3-0.2c1.5,0,2.3,0.3,2.3,0.9c2.5,7,5.9,17.2,10.1,30.4
		c4.2,13.2,6.6,20.6,7.1,22.3l0.5,1.9C706.8,243,707,243.7,707.4,244.4z M669.9,223.8l1.6,0l9,0c-0.4-3-0.7-5.2-0.9-6.6l-1.4-6.5
		c-1.5-6.7-2.3-10.1-2.3-10.2c-0.1-0.1-0.1-0.2-0.1-0.4s-0.1-0.2-0.1-0.2s-0.1-0.1-0.1-0.2c0-0.1-0.1-0.2-0.1-0.2
		c0,0-0.1-0.1-0.1-0.2c-0.2-0.3-0.5-0.6-1.1-0.8c-0.7,0.2-2.7,7.7-6.1,22.8l-0.4,2.5H669.9z"/>
	<path class="st23" d="M707,213.9c0.6-5.7,1.6-10.1,3-13c2.7-5.6,6.7-9.6,12.1-11.9c4.8-2.1,9.9-3.1,15.5-3.1
		c9.4,0,16.2,2.6,20.5,7.7c2.6,3.1,4.1,6.8,4.5,11.4l0.3,3.6c-0.4,0.4-3.1,0.6-8.1,0.6l-6-0.1h-0.5l-3.3-0.1l-0.9,0h-0.8
		c-0.7,0-1.2-1-1.6-3.1c-0.4-2.1-0.9-3.4-1.7-4.1c-0.7-0.7-1.6-1-2.6-1s-1.8,0.2-2.6,0.5c-0.7,0.4-1.4,0.8-1.8,1.3
		c-0.5,0.5-0.9,1.2-1.2,2.1c-0.6,1.6-1,3.2-1.1,5c-0.1,1.8-0.2,3.7-0.2,5.9v0.9l-0.2,3.8c0,7,2,10.5,5.9,10.7c1,0,1.7-0.2,2.1-0.5
		c1.1-1,2-2.9,2.8-5.8c0.2-0.6,0.4-1.1,0.6-1.5h1.4l1.7,0h6.1l1.9,0l3.6,0h2.2l2.2,0h1.5c0.3,0,0.5,0.3,0.6,0.8l-0.1,1.2
		c-0.2,3-0.9,5.7-2.1,8.1c-2.1,4.4-5.5,7.7-10.1,9.9s-9.6,3.2-15.1,3.2c-9.6,0-16.8-2.8-21.6-8.5C709.4,232.3,707,224.3,707,213.9z"
		/>
	<path class="st23" d="M814.6,201.1c0,0.8-0.1,1.2-0.3,1.2l-13.7-0.1c-0.1,2.4-0.1,6.3-0.1,11.5s0,8.8,0,10.8l0.2,20
		c-0.1,0.4-0.4,0.5-0.8,0.6l-8-0.1l0,0l-2.5,0h-6.9c-1.9,0-3.3,0-4.2,0l-0.6-0.6c0,0-0.2-0.2-0.5-0.6c0-2.2,0.1-7.1,0.3-14.8
		l0.4-20.1l-0.1-0.9c-0.2-2.5-0.3-4-0.5-4.4c-0.2-0.5-0.5-0.7-1-0.8c-0.5,0-0.8-0.1-1.1-0.1l-1.5,0.1l-9.4-0.2
		c-0.3-0.7-0.5-2.1-0.5-4.4l0.1-3.3v-1c0-4-0.1-6.2-0.1-6.5c0.1,0,0.2,0,0.3,0.1l48.1-0.4c1,0,1.6,0.1,1.9,0.2s0.4,0.4,0.4,0.8v10
		L814.6,201.1z"/>
	<path class="st23" d="M817.7,240c0-5.1,0.1-8.7,0.4-10.7c0-11,0.2-22,0.5-33.2c-0.1-1.6-0.1-3.2-0.1-4.8v-1.2
		c-0.1-0.8-0.2-1.5-0.2-2.1c0-0.6,0.1-1,0.2-1.2c5.4,0.3,10.1,0.5,14.2,0.5c4.1,0,6.8-0.1,8.4-0.2c0.1,0.1,0.1,0.3,0.1,0.6h-0.3
		v13.7l0.3,30.8c0,0.2,0,0.4,0.1,0.6v0.1c0.1,0.2,0.1,0.3,0.1,0.5l0.3,11c-0.1,0.3-0.4,0.5-0.7,0.6h-1.3l-21.2,0.3
		c-0.3-0.1-0.6-0.3-1-0.6l0-0.6L817.7,240z"/>
	<path class="st23" d="M886.1,245l-4.8-0.1h-2.8c-0.8,0.1-2.6,0.2-5.2,0.2s-6.7,0.1-12,0.2c-1-0.9-1.9-3.4-2.8-7.7
		c-0.9-4.2-1.9-8.6-3.3-13c-1.3-4.4-2.1-7.3-2.5-8.4l-1.1-4c-0.3-1.2-0.9-3.1-1.7-5.9c-2.5-8.6-4.2-14.9-5-18.9
		c0-0.2,7.4-0.3,22.2-0.3c0.5,0,0.8,0.2,1.1,0.5c2,11.8,4.2,24.7,6.7,38.6l0.3,2h1.5l0.3-2c0.8-4.9,2.3-12.8,4.5-23.8l0.9-4.3
		c0.3-1.4,1-5,2.1-10.7c1.2-0.3,7.6-0.5,19.2-0.5h1.7c0.3,0.2,0.5,0.3,0.6,0.5l-7.6,27.5c-0.6,2-0.9,3.3-1,3.8l-1.8,7
		c-2.8,12.1-4.9,18.6-6.1,19.4c-0.7,0-1.8,0-3.2-0.1H886.1z"/>
	<path class="st23" d="M908.4,240c0-5.1,0.1-8.7,0.4-10.7c0-11,0.2-22,0.5-33.2c-0.1-1.6-0.1-3.2-0.1-4.8v-1.2
		c-0.1-0.8-0.2-1.5-0.2-2.1c0-0.6,0.1-1,0.2-1.2c5.4,0.3,10.1,0.5,14.2,0.5c4.1,0,6.8-0.1,8.4-0.2c0.1,0.1,0.1,0.3,0.1,0.6h-0.3
		v13.7l0.3,30.8c0,0.2,0,0.4,0.1,0.6v0.1c0.1,0.2,0.1,0.3,0.1,0.5l0.3,11c-0.1,0.3-0.4,0.5-0.7,0.6h-1.3l-21.2,0.3
		c-0.3-0.1-0.6-0.3-1-0.6l0-0.6L908.4,240z"/>
	<path class="st23" d="M986.9,201.1c0,0.8-0.1,1.2-0.3,1.2l-13.7-0.1c-0.1,2.4-0.1,6.3-0.1,11.5s0,8.8,0,10.8l0.2,20
		c-0.1,0.4-0.4,0.5-0.8,0.6l-8-0.1l0,0l-2.5,0h-6.9c-1.9,0-3.3,0-4.2,0l-0.6-0.6c0,0-0.2-0.2-0.5-0.6c0-2.2,0.1-7.1,0.3-14.8
		l0.4-20.1l-0.1-0.9c-0.2-2.5-0.3-4-0.5-4.4c-0.2-0.5-0.5-0.7-1-0.8c-0.5,0-0.8-0.1-1.1-0.1l-1.5,0.1l-9.4-0.2
		c-0.3-0.7-0.5-2.1-0.5-4.4l0.1-3.3v-1c0-4-0.1-6.2-0.1-6.5c0.1,0,0.2,0,0.3,0.1l48.1-0.4c1,0,1.6,0.1,1.9,0.2s0.4,0.4,0.4,0.8v10
		L986.9,201.1z"/>
	<path class="st23" d="M990.1,240c0-5.1,0.1-8.7,0.4-10.7c0-11,0.2-22,0.5-33.2c-0.1-1.6-0.1-3.2-0.1-4.8v-1.2
		c-0.1-0.8-0.2-1.5-0.2-2.1c0-0.6,0.1-1,0.2-1.2c5.4,0.3,10.1,0.5,14.2,0.5c4.1,0,6.8-0.1,8.4-0.2c0.1,0.1,0.1,0.3,0.1,0.6h-0.3
		v13.7l0.3,30.8c0,0.2,0,0.4,0.1,0.6v0.1c0.1,0.2,0.1,0.3,0.1,0.5l0.3,11c-0.1,0.3-0.4,0.5-0.7,0.6h-1.3l-21.2,0.3
		c-0.3-0.1-0.6-0.3-1-0.6l0-0.6L990.1,240z"/>
	<path class="st23" d="M1022.3,197.2l-0.2-9.9c0,0,0.1,0,0.3,0.1c19.2-0.3,33.6-0.5,43.3-0.5c0.1,0.1,0.2,0.1,0.2,0.2v10.7
		c0,1,0,1.9-0.1,2.5c-0.1,0.4-0.9,0.6-2.2,0.6h-0.3c-6.1,0-12.5-0.1-19.1-0.3c0,0.2,0,0.6-0.1,1.2s-0.1,1-0.1,1.2l-0.2,1.4
		c-0.1,1-0.2,2.6-0.3,5l11.7-0.3c2,0,3.5-0.1,4.4-0.1h0.6c1.5,0,2.5,0,3,0.1c0.5,0.1,0.7,0.3,0.7,0.8l0,0.3v0.9l0.2,9.7l0,0v0
		c-7.7,0.4-13.8,0.6-18.4,0.6h-1.8v9.2l20.5-0.6c1.1,0,1.9,0.2,2.2,0.5c0,0.7,0,1.6,0,2.8l0.3,10.3c0,0.6-0.3,1-0.8,1.1l-12.6-0.1
		c-2.5,0-7.4,0.1-14.7,0.3l-6.2,0.2c-4.4,0.2-7.6,0.2-9.8,0.2l-0.1-0.1h0c-0.3-0.3-0.5-0.5-0.7-0.7v-1.3l0.2-40.4L1022.3,197.2z"/>
	<path class="st23" d="M1069.7,228.4l20-0.3c0.5,0,0.9,0.4,1.3,1.3c0.3,0.9,0.7,1.5,1,2c0.8,1.2,2.1,1.8,3.9,1.8s3.3-0.4,4.4-1.3
		c1.1-0.8,1.7-1.9,1.7-3.3c0-1.3-0.3-2.2-1-2.7s-1.4-1-2.2-1.4s-2-0.8-3.6-1.1s-2.4-0.4-2.6-0.5h0.1l-2.2-0.6
		c-1.4-0.3-2.5-0.5-3.5-0.8c-6-1.6-10.4-3.6-13.1-6.1c-2.7-2.4-4-5.7-4-9.9c0-3,0.6-5.7,1.7-8.1c1.1-2.4,2.6-4.3,4.3-5.9
		c5.2-4.4,12.3-6.5,21.4-6.5c7.2,0,12.9,1.3,17.1,3.9h0c2.6,1.9,4.5,3.8,5.4,5.7c1,1.9,1.6,4.1,1.9,6.9l-1,1
		c-6.6,0.3-12.5,0.4-17.6,0.4c-1.5,0-2.5-0.5-2.8-1.4c-0.1-0.4-0.3-0.8-0.4-1.1c-0.4-0.9-1.5-1.4-3.4-1.4h-0.2c-1.5,0-2.8,0.3-3.8,1
		s-1.6,1.4-1.6,2c0,0.7,0.1,1.2,0.4,1.6c0.3,0.4,0.6,0.8,0.9,1c0.3,0.3,0.8,0.5,1.5,0.8s1.2,0.4,1.5,0.5c0.3,0.1,0.9,0.2,1.6,0.4
		l1.3,0.3c0.5,0.2,2.1,0.5,4.6,1.1c2.6,0.6,4.7,1.2,6.4,1.7v0c5.4,1.8,9,4.1,11,6.8c2,2.7,2.9,5.9,2.9,9.5c0,9.6-5.7,15.8-17.2,18.7
		c-3.3,0.8-6.9,1.4-10.7,1.8c-4.6,0-9.2-0.7-13.8-2c-4.5-1.4-7.6-3.6-9.1-6.7c-1-1.5-1.7-2.9-2.1-4.1c-0.4-1.2-0.6-3-0.9-5.2
		C1069.5,228.4,1069.6,228.4,1069.7,228.4z"/>
</g>
<g class="st1">
	<path class="st23" d="M145.2,339.4c0,0.3-0.7,0.5-2.1,0.5h-3.5l-2.3,0H135l-3.7,0c-3.7,0-6.7-0.1-9.1-0.3c-0.1,0-0.2-0.2-0.3-0.5
		l-0.2-0.8c-0.2-2.6-0.8-5.1-1.8-7.5l-16.2,0.2c-0.1,0.4-0.4,1.7-1,3.8c-0.6,2.1-1,3.7-1.2,4.8c-0.3,0.3-1.4,0.4-3.6,0.4l-0.9,0
		h-2.2l-9.8,0.2h-1.1l-1.1,0h-2.6c-0.2-0.2-0.4-0.4-0.6-0.7c2.5-8.7,5.9-19.5,10.2-32.4l0.9-2.7h0l1-3.1c0.3-1,1.3-3.8,2.8-8.4
		s2.5-7.5,2.9-8.9c0.4-1.3,0.6-2,0.7-2.1h6.3l13.4-0.2l3.6,0.2l3-0.2c1.5,0,2.3,0.3,2.3,0.9c2.5,7,5.9,17.2,10.1,30.4
		c4.2,13.2,6.6,20.6,7.1,22.3l0.5,1.9C144.6,337.9,144.8,338.7,145.2,339.4z M107.7,318.8l1.6,0l9,0c-0.4-3-0.7-5.2-0.9-6.6
		l-1.4-6.5c-1.5-6.7-2.3-10.1-2.3-10.2c-0.1-0.1-0.1-0.2-0.1-0.4c0-0.1-0.1-0.2-0.1-0.2c0,0-0.1-0.1-0.1-0.2c0-0.1-0.1-0.2-0.1-0.2
		c0,0-0.1-0.1-0.1-0.2c-0.2-0.3-0.5-0.6-1.1-0.8c-0.7,0.2-2.7,7.7-6.1,22.8l-0.4,2.5H107.7z"/>
	<path class="st23" d="M164.1,282.1l12.1-0.1c2.6,0,4.9,0.1,7,0.2c5.6,0.2,9.9,1.5,12.8,4c2.9,2.5,4.4,6,4.4,10.5
		c0,3.2-0.9,5.8-2.8,8.1c-1.8,2.2-4.5,4.2-8.1,5.9c5.6,1.8,9,6.1,10.2,12.9c0.3,1.5,0.5,3.2,0.7,5.1c0.2,1.9,0.3,3.2,0.4,3.9
		l0.4,1.9c0.4,2.3,0.8,3.9,1.1,4.9l-0.2,0.1c-4.3,0.3-8.2,0.4-11.7,0.4c-3.5,0-6.7-0.1-9.4-0.2h-0.2c-0.8,0-1.6-3.7-2.5-11.2
		l-0.2-1.6c-0.1-2.8-0.6-4.6-1.5-5.6c-0.9-1-2.4-1.4-4.5-1.4l-0.5,0h-2v11.5l0,1.2v6.9c-0.1,0.3-0.3,0.4-0.6,0.5
		c-2.8,0.1-6.7,0.2-11.7,0.2c-5.1,0-8.4,0-10,0l-0.2-0.1l-0.1,0c-0.1,0-0.1,0-0.2-0.1l0.1-3.4l0-1.1l0.2-15.7V317l0-2.8l0-9.8l0-1.3
		l-0.1-8.6l0.2-12.1c0-0.2,0.7-0.3,2.2-0.3l2.4,0h2.3l4.8,0L164.1,282.1z M178.1,294.4c-1.5-0.7-3.5-1-6.1-1h-2.2
		c-0.3,0.4-0.4,2.5-0.4,6.4c0,3.8,0.1,6.4,0.2,7.7c7.9-0.2,11.8-2.9,11.8-8.2C181.5,297.2,180.3,295.5,178.1,294.4z M202.4,339.3
		L202.4,339.3C202.4,339.3,202.3,339.3,202.4,339.3L202.4,339.3z M202.6,339.2l-0.2,0.1v-0.1C202.4,339.2,202.4,339.2,202.6,339.2z"
		/>
	<path class="st23" d="M206.3,292.2l-0.2-9.9c0,0,0.1,0,0.3,0.1c19.2-0.3,33.6-0.5,43.3-0.5c0.1,0.1,0.2,0.1,0.2,0.2v10.7
		c0,1,0,1.9-0.1,2.5c-0.1,0.4-0.9,0.6-2.2,0.6h-0.3c-6.1,0-12.5-0.1-19.1-0.3c0,0.2,0,0.6-0.1,1.2s-0.1,1-0.1,1.2l-0.2,1.4
		c-0.1,1-0.2,2.6-0.3,5l11.7-0.3c2,0,3.5-0.1,4.4-0.1h0.6c1.5,0,2.5,0,3,0.1c0.5,0.1,0.7,0.3,0.7,0.8l0,0.3v0.9l0.2,9.7l0,0v0
		c-7.7,0.4-13.8,0.6-18.4,0.6H228v9.2l20.5-0.6c1.1,0,1.9,0.2,2.2,0.5c0,0.7,0,1.6,0,2.8l0.3,10.3c0,0.6-0.3,1-0.8,1.1l-12.6-0.1
		c-2.5,0-7.4,0.1-14.7,0.3l-6.2,0.2c-4.4,0.2-7.6,0.2-9.8,0.2l-0.1-0.1h0c-0.3-0.3-0.5-0.5-0.7-0.7v-1.3l0.2-40.4L206.3,292.2z"/>
</g>
<g class="st1">
	<path class="st23" d="M339.8,339.4c0,0.3-0.7,0.5-2.1,0.5h-3.5l-2.3,0h-2.3l-3.7,0c-3.7,0-6.7-0.1-9.1-0.3c-0.1,0-0.2-0.2-0.3-0.5
		l-0.2-0.8c-0.2-2.6-0.8-5.1-1.8-7.5l-16.2,0.2c-0.1,0.4-0.4,1.7-1,3.8c-0.6,2.1-1,3.7-1.2,4.8c-0.3,0.3-1.4,0.4-3.6,0.4l-0.9,0
		h-2.2l-9.8,0.2h-1.1l-1.1,0h-2.6c-0.2-0.2-0.4-0.4-0.6-0.7c2.5-8.7,5.9-19.5,10.2-32.4l0.9-2.7h0l1-3.1c0.3-1,1.3-3.8,2.8-8.4
		s2.5-7.5,2.9-8.9c0.4-1.3,0.6-2,0.7-2.1h6.3l13.4-0.2l3.6,0.2l3-0.2c1.5,0,2.3,0.3,2.3,0.9c2.5,7,5.9,17.2,10.1,30.4
		c4.2,13.2,6.6,20.6,7.1,22.3l0.5,1.9C339.2,337.9,339.4,338.7,339.8,339.4z M302.3,318.8l1.6,0l9,0c-0.4-3-0.7-5.2-0.9-6.6
		l-1.4-6.5c-1.5-6.7-2.3-10.1-2.3-10.2c-0.1-0.1-0.1-0.2-0.1-0.4c0-0.1-0.1-0.2-0.1-0.2c0,0-0.1-0.1-0.1-0.2c0-0.1-0.1-0.2-0.1-0.2
		c0,0-0.1-0.1-0.1-0.2c-0.2-0.3-0.5-0.6-1.1-0.8c-0.7,0.2-2.7,7.7-6.1,22.8l-0.4,2.5H302.3z"/>
	<path class="st23" d="M385.6,324.5c-0.2,0.7-0.3,1.5-0.3,2.3v0.9c0,1.3,0.1,2.3,0.3,2.9c0,3.8,0,6.7,0,8.8c-0.2,0.7-12.6,1-37.3,1
		c-1.1,0-3,0-5.6-0.1c-0.4-0.8-0.6-2-0.6-3.7l0.1-2.5v-8.6l0-7.2v-7.1l0-11.5c0-2.1,0-4.1-0.1-6v-0.4l-0.1-5.4
		c0-3.2,0.3-5.3,0.8-6.2c0.5,0,1.2,0,2.1,0h1.8l6.4-0.1c7.2,0,11.2,0.5,11.9,1.4l-0.3,13.2l-0.1,11.1l0,0.5l-0.2,15.7l1.5,0.9
		c4.6-0.3,9-0.4,13.3-0.4S385.5,324,385.6,324.5z"/>
	<path class="st23" d="M433.4,324.5c-0.2,0.7-0.3,1.5-0.3,2.3v0.9c0,1.3,0.1,2.3,0.3,2.9c0,3.8,0,6.7,0,8.8c-0.2,0.7-12.6,1-37.3,1
		c-1.1,0-3,0-5.6-0.1c-0.4-0.8-0.6-2-0.6-3.7l0.1-2.5v-8.6l0-7.2v-7.1l0-11.5c0-2.1,0-4.1-0.1-6v-0.4l-0.1-5.4
		c0-3.2,0.3-5.3,0.8-6.2c0.5,0,1.2,0,2.1,0h1.8l6.4-0.1c7.2,0,11.2,0.5,11.9,1.4l-0.3,13.2l-0.1,11.1l0,0.5l-0.2,15.7l1.5,0.9
		c4.6-0.3,9-0.4,13.3-0.4S433.4,324,433.4,324.5z"/>
</g>
<g class="st1">
	<path class="st23" d="M434.5,310.6l0.1-0.8c0.3-3.2,0.7-5.9,1.2-8.4c0.5-2.4,1.3-4.7,2.5-6.8c2.7-4.7,6.5-8.2,11.3-10.6
		c4.8-2.4,10-3.6,15.6-3.6c5.6,0,10.7,1.1,15.2,3.4c2.7,1.3,4.9,3,6.4,5.1c2.9,3.7,4.9,7.1,5.8,10.2s1.4,6.7,1.4,10.7
		c0,9-1.9,15.9-5.6,20.6l-1.7,2.3c-2.3,2.7-5.7,4.8-9.9,6.3c-4.3,1.5-8.5,2.2-12.7,2.3c-7.2,0-13.1-1.5-17.7-4.5
		C438.4,331.6,434.5,322.9,434.5,310.6z M456.3,310.3c0,0,0,0.1,0,0.2v0.1c-0.1,1.1-0.2,2.2-0.2,3.6s0.1,2.7,0.3,4.2
		c0.2,1.5,0.6,2.9,1.1,4.4s1.3,2.6,2.3,3.6c1.1,1,2.4,1.4,3.7,1.4s2.5-0.2,3.5-0.6s1.7-0.9,2.4-1.5c0.6-0.6,1.2-1.4,1.7-2.5
		c1.2-2.7,1.8-7,1.8-12.8c0-5.9-0.7-10-2-12.3c-1.3-2.4-3.4-3.5-6.1-3.5c-1.4,0-2.6,0.3-3.6,1c-1,0.7-1.8,1.3-2.3,2
		c-0.5,0.7-1,2.2-1.6,4.5s-0.8,4.4-0.8,6.4L456.3,310.3z"/>
</g>
<g class="st1">
	<path class="st23" d="M526.6,282l6.6,0h14.7c0.1,0,0.2,0,0.2,0.1l1.4,8.8c0.4,2.6,0.9,6.4,1.7,11.6c0.8,5.2,1.3,8.5,1.5,9.8l0.3,2
		h1.4c0.7-7.3,1.9-16.9,3.7-28.8l0.2-0.9c0-0.2,0-0.5,0-0.8c0-0.6,0.1-1.1,0.4-1.5c0.2-0.4,0.9-0.6,2-0.6c8.1,0,14,0.2,17.7,0.7
		c0.1,0.1,0.2,0.4,0.3,0.9c-0.6,2.8-1.6,7.2-3,13.2c-1.4,6-2.4,10.5-3.1,13.7l-0.3,1.4c-0.1,0.2-0.2,0.6-0.5,1.4
		c-0.3,0.8-0.4,1.3-0.4,1.6l-2.6,12l-1.2,5.9c-0.7,3.4-1.1,5.8-1.4,7.2l-0.2-0.1c-1.8,0.1-4.4,0.2-8.1,0.2h-5.9l-2,0
		c-2.8,0-5.4,0.1-7.8,0.2c-0.2,0-0.6-2-1.1-6c-0.5-4-0.8-6.1-0.8-6.4l-0.3-1.9c-0.8-5.3-1.6-10.9-2.4-16.8l-1.4,0
		c-1.4,7.4-2.7,16.4-3.8,27c-0.3,2.8-0.8,4.2-1.6,4.3c-3.6-0.1-7.1-0.2-10.5-0.2c-3.4,0-7.7,0.1-13,0.3c-0.7-0.6-1.3-2.1-1.7-4.6
		l-0.2-1.5c-1-5.1-2.9-14.5-6-28.1l-0.8-3.7c-0.3-1.5-0.9-4.4-1.9-8.7c-1-4.3-1.8-8.2-2.5-11.5c0-0.2,0.2-0.4,0.5-0.5
		c0.6,0.1,1.2,0.1,1.9,0.1h0.5l3.6-0.1l5.2-0.1c1.7,0,3,0,4,0.1h2.4c0.2,0,0.6,0,1.2,0.1h0.5c0.8,0,1.9,6.3,3.4,18.9
		c0.7,5.7,1,9,1.2,10l0.3,2.2l1.5,0c0.9-5.8,2-12.7,3.1-20.5c0-0.9,0.2-2.7,0.6-5.4c0.4-2.7,0.8-4.4,1.2-5
		C525.6,282,526,282,526.6,282z"/>
	<path class="st23" d="M580.7,292.2l-0.2-9.9c0,0,0.1,0,0.3,0.1c19.2-0.3,33.6-0.5,43.3-0.5c0.1,0.1,0.2,0.1,0.2,0.2v10.7
		c0,1,0,1.9-0.1,2.5c-0.1,0.4-0.9,0.6-2.2,0.6h-0.3c-6.1,0-12.5-0.1-19.1-0.3c0,0.2,0,0.6-0.1,1.2c-0.1,0.6-0.1,1-0.1,1.2l-0.2,1.4
		c-0.1,1-0.2,2.6-0.3,5l11.7-0.3c2,0,3.5-0.1,4.4-0.1h0.6c1.5,0,2.5,0,3,0.1c0.5,0.1,0.7,0.3,0.7,0.8l0,0.3v0.9l0.2,9.7l0,0v0
		c-7.7,0.4-13.8,0.6-18.4,0.6h-1.8v9.2l20.5-0.6c1.1,0,1.9,0.2,2.2,0.5c0,0.7,0,1.6,0,2.8l0.3,10.3c0,0.6-0.3,1-0.8,1.1l-12.6-0.1
		c-2.5,0-7.4,0.1-14.7,0.3l-6.2,0.2c-4.4,0.2-7.6,0.2-9.8,0.2l-0.1-0.1h0c-0.3-0.3-0.5-0.5-0.7-0.7v-1.3l0.2-40.4L580.7,292.2z"/>
	<path class="st23" d="M645.2,281.8l7.1-0.1c12.3,0,21,2,26,6.1c1.1,0.8,2.2,2.1,3.5,3.9c3.7,5.3,5.5,11.2,5.5,17.6
		c0,11.5-3.9,20-11.8,25.4c-4.7,3.3-10.1,5-16.3,5l-0.2,0.2H658l-10.1-0.1c-4.6,0-10.3,0.1-17.1,0.3c-0.5-0.9-0.7-2-0.7-3.2l0-1.4
		v-5.9l0.1-8.4v-13.8c-0.1-3.2-0.1-5.5-0.1-7.1v-6.2l0-0.9v-10.8c0-0.2,1.4-0.4,4.1-0.5c2.7-0.1,4.9-0.2,6.6-0.2H645.2z
		 M661.2,294.9c-1.4-1-3-1.6-4.8-1.7c-0.6,0-1.4,0-2.5-0.1c-1,0-1.8-0.1-2.3-0.1c-0.5,0.7-0.8,1.2-0.9,1.5l-0.7,1.4v2.1
		c0,4.4,0.1,10.3,0.3,17.7l0.2,10.9c0.2,0.8,0.7,1.2,1.5,1.4c2.6,0,4.6-0.2,6-0.5c5-1.8,7.4-7.8,7.4-18.1
		C665.6,301.8,664.1,297,661.2,294.9z"/>
</g>
<g>
	<path class="st24" d="M134,420.9c0,0-53,0-53,53v2.2c0,0,0,53,53,53h692.9c0,0,53,0,53-53v-2.2c0,0,0-53-53-53L134,420.9L134,420.9
		z"/>
</g>
<g class="st1">
	<path class="st25" d="M144.6,498.4c-0.7-0.7-1-1.6-1-2.8v-44.4c0-1.1,0.3-2,1-2.7s1.6-1,2.7-1h17.6c5.5,0,9.7,1.3,12.7,4
		c3,2.7,4.5,6.5,4.5,11.4c0,4.9-1.5,8.7-4.5,11.4c-3,2.7-7.3,4.1-12.7,4.1h-13.8v17.2c0,1.2-0.3,2.1-1,2.8s-1.6,1-2.8,1
		C146.2,499.4,145.3,499,144.6,498.4z M174.9,462.9c0-6.2-3.6-9.3-10.8-9.3h-13v18.8h13C171.3,472.4,174.9,469.2,174.9,462.9z"/>
</g>
<g class="st1">
	<path class="st25" d="M220.1,463.6c0.7,0.6,1,1.5,1,2.6v29.7c0,1-0.3,1.9-1,2.5c-0.7,0.6-1.6,0.9-2.7,0.9c-1,0-1.9-0.3-2.5-0.9
		c-0.6-0.6-0.9-1.4-0.9-2.4v-2.8c-1.1,2-2.7,3.6-4.6,4.7c-2,1.1-4.2,1.6-6.6,1.6c-8.7,0-13-4.8-13-14.3v-19c0-1.1,0.3-2,1-2.6
		c0.7-0.6,1.6-0.9,2.7-0.9c1.1,0,2,0.3,2.7,0.9c0.7,0.6,1,1.5,1,2.6v18.9c0,2.9,0.6,5,1.8,6.4c1.2,1.4,3,2,5.4,2
		c2.9,0,5.2-0.9,6.9-2.8c1.7-1.8,2.6-4.3,2.6-7.4v-17.2c0-1.1,0.3-1.9,1-2.6c0.7-0.7,1.6-1,2.7-1C218.5,462.6,219.4,463,220.1,463.6
		z"/>
	<path class="st25" d="M258.7,464.8c2.4,1.5,4.2,3.7,5.6,6.4c1.3,2.8,2,6,2,9.7c0,3.7-0.7,6.9-2,9.7c-1.3,2.8-3.2,5-5.6,6.6
		c-2.4,1.6-5.1,2.3-8.2,2.3c-2.7,0-5-0.6-7.1-1.7c-2-1.1-3.6-2.8-4.7-4.9v2.9c0,1.1-0.3,1.9-1,2.6s-1.5,1-2.7,1c-1.1,0-2-0.3-2.7-1
		c-0.7-0.7-1-1.5-1-2.6v-45.1c0-1.1,0.4-1.9,1.1-2.6c0.7-0.6,1.6-1,2.7-1c1.1,0,1.9,0.3,2.6,0.9c0.7,0.6,1,1.4,1,2.4v18.7
		c1.1-2.1,2.6-3.8,4.7-5c2-1.2,4.4-1.8,7.1-1.8C253.6,462.5,256.4,463.3,258.7,464.8z M256.2,490.3c1.8-2.2,2.7-5.4,2.7-9.4
		c0-4-0.9-7.1-2.6-9.2c-1.8-2.2-4.2-3.2-7.4-3.2c-3.2,0-5.7,1.1-7.4,3.3c-1.7,2.2-2.6,5.3-2.6,9.3c0,4,0.9,7.2,2.6,9.3
		c1.7,2.2,4.2,3.3,7.4,3.3C251.9,493.7,254.4,492.6,256.2,490.3z"/>
	<path class="st25" d="M275.6,498.5c-0.7-0.6-1.1-1.5-1.1-2.6v-45.1c0-1.2,0.4-2.1,1.1-2.7c0.7-0.6,1.6-0.9,2.7-0.9
		c1.1,0,1.9,0.3,2.6,0.9c0.7,0.6,1,1.5,1,2.7v45.1c0,1.2-0.3,2-1,2.6c-0.7,0.6-1.6,0.9-2.6,0.9C277.2,499.4,276.3,499.1,275.6,498.5
		z"/>
	<path class="st25" d="M292.6,454.3c-0.8-0.8-1.2-1.8-1.2-3.1c0-1.3,0.4-2.3,1.2-3c0.8-0.8,1.9-1.1,3.4-1.1c1.4,0,2.5,0.4,3.3,1.1
		c0.9,0.8,1.3,1.8,1.3,3c0,1.3-0.4,2.3-1.2,3.1c-0.8,0.8-1.9,1.2-3.4,1.2C294.5,455.5,293.4,455.1,292.6,454.3z M293.3,498.5
		c-0.7-0.6-1.1-1.5-1.1-2.6v-29.7c0-1.2,0.4-2.1,1.1-2.7c0.7-0.6,1.6-0.9,2.7-0.9c1.1,0,1.9,0.3,2.6,0.9c0.7,0.6,1,1.5,1,2.7v29.7
		c0,1.2-0.3,2-1,2.6c-0.7,0.6-1.6,0.9-2.6,0.9C294.8,499.4,294,499.1,293.3,498.5z"/>
	<path class="st25" d="M316,497.3c-2.6-1.5-4.6-3.7-6.1-6.4c-1.4-2.8-2.2-6-2.2-9.6c0-3.7,0.7-7,2.2-9.8c1.5-2.8,3.6-5,6.2-6.6
		c2.7-1.6,5.7-2.3,9.2-2.3c1.9,0,3.7,0.3,5.6,0.8c1.9,0.5,3.5,1.3,5,2.2c1.6,1.1,2.3,2.3,2.3,3.7c0,0.8-0.2,1.5-0.7,2.1
		c-0.4,0.6-1,0.8-1.7,0.8c-0.4,0-0.9-0.1-1.3-0.3c-0.4-0.2-1-0.5-1.7-1c-1.2-0.8-2.3-1.4-3.4-1.8c-1-0.4-2.3-0.6-3.8-0.6
		c-3.3,0-5.9,1.1-7.7,3.4c-1.8,2.2-2.7,5.4-2.7,9.3c0,4,0.9,7.1,2.7,9.2c1.8,2.2,4.4,3.2,7.7,3.2c1.5,0,2.8-0.2,3.9-0.7
		c1.1-0.4,2.3-1,3.4-1.8c0.5-0.3,1.1-0.6,1.6-0.9c0.5-0.2,1-0.4,1.5-0.4c0.7,0,1.2,0.3,1.7,0.8c0.4,0.6,0.7,1.3,0.7,2.1
		c0,0.7-0.2,1.3-0.5,1.9c-0.4,0.6-1,1.1-1.9,1.7c-1.5,1-3.2,1.7-5.1,2.3s-3.9,0.8-5.9,0.8C321.7,499.5,318.6,498.8,316,497.3z"/>
</g>
<g class="st1">
	<path class="st25" d="M391,463.2c0.6-0.3,1.2-0.5,1.8-0.5c0.9,0,1.7,0.3,2.4,0.9c0.7,0.6,1.1,1.4,1.1,2.3c0,0.5-0.1,0.9-0.3,1.4
		l-13.9,29.6c-0.3,0.8-0.9,1.4-1.6,1.8c-0.7,0.4-1.4,0.6-2.2,0.6c-0.8,0-1.5-0.2-2.2-0.6c-0.7-0.4-1.2-1-1.6-1.8l-13.9-29.6
		c-0.2-0.4-0.3-0.9-0.3-1.4c0-0.9,0.4-1.6,1.2-2.3c0.8-0.6,1.7-0.9,2.6-0.9c1.4,0,2.5,0.7,3.1,2l11.3,25.1l11.2-25.1
		C390,464.1,390.5,463.6,391,463.2z"/>
</g>
<g class="st1">
	<path class="st25" d="M431.6,490.8c0.4,0.5,0.7,1.2,0.7,2c0,1.4-0.9,2.6-2.6,3.6c-1.7,1-3.6,1.7-5.6,2.3c-2,0.5-4,0.8-5.8,0.8
		c-5.6,0-10.1-1.6-13.4-4.9c-3.3-3.3-4.9-7.8-4.9-13.5c0-3.7,0.7-6.9,2.2-9.7c1.4-2.8,3.5-5,6.1-6.6c2.6-1.6,5.6-2.3,8.9-2.3
		c4.8,0,8.5,1.5,11.3,4.6s4.2,7.2,4.2,12.4c0,1.9-0.9,2.9-2.6,2.9h-22.6c0.5,7.5,4.1,11.3,10.9,11.3c1.8,0,3.4-0.2,4.7-0.7
		c1.3-0.5,2.7-1.1,4.2-1.9c0.1-0.1,0.5-0.3,1.2-0.6c0.7-0.3,1.2-0.5,1.6-0.5C430.6,490,431.1,490.3,431.6,490.8z M410.4,470.6
		c-1.7,1.8-2.7,4.3-3.1,7.6h18.8c-0.1-3.3-1-5.9-2.5-7.6s-3.7-2.7-6.5-2.7C414.4,467.9,412.1,468.8,410.4,470.6z"/>
	<path class="st25" d="M472.6,476.9v19c0,1.1-0.3,2-1,2.6s-1.6,0.9-2.7,0.9c-1.1,0-2-0.3-2.7-0.9c-0.7-0.6-1-1.5-1-2.6v-18.6
		c0-3-0.6-5.2-1.8-6.6c-1.2-1.4-3.1-2.1-5.6-2.1c-3,0-5.4,0.9-7.2,2.8c-1.8,1.9-2.7,4.3-2.7,7.4v17.2c0,1.1-0.3,1.9-1,2.6
		c-0.7,0.6-1.5,0.9-2.7,0.9c-1.1,0-2-0.3-2.7-0.9c-0.7-0.6-1-1.5-1-2.6v-29.7c0-1,0.4-1.9,1.1-2.5c0.7-0.7,1.6-1,2.7-1
		c1.1,0,1.9,0.3,2.6,0.9c0.6,0.6,0.9,1.5,0.9,2.5v3c1.2-2.1,2.8-3.8,4.9-4.9c2.1-1.1,4.5-1.7,7.1-1.7
		C468.4,462.5,472.6,467.3,472.6,476.9z"/>
	<path class="st25" d="M513,463.6c0.7,0.6,1,1.5,1,2.6v29.7c0,1-0.3,1.9-1,2.5c-0.7,0.6-1.6,0.9-2.7,0.9c-1,0-1.9-0.3-2.5-0.9
		c-0.6-0.6-0.9-1.4-0.9-2.4v-2.8c-1.1,2-2.7,3.6-4.6,4.7c-2,1.1-4.2,1.6-6.6,1.6c-8.7,0-13-4.8-13-14.3v-19c0-1.1,0.3-2,1-2.6
		c0.7-0.6,1.6-0.9,2.7-0.9c1.1,0,2,0.3,2.7,0.9c0.7,0.6,1,1.5,1,2.6v18.9c0,2.9,0.6,5,1.8,6.4c1.2,1.4,3,2,5.4,2
		c2.9,0,5.2-0.9,6.9-2.8c1.7-1.8,2.6-4.3,2.6-7.4v-17.2c0-1.1,0.3-1.9,1-2.6c0.7-0.7,1.6-1,2.7-1C511.4,462.6,512.3,463,513,463.6z"
		/>
	<path class="st25" d="M553.8,490.8c0.4,0.5,0.7,1.2,0.7,2c0,1.4-0.9,2.6-2.6,3.6c-1.7,1-3.6,1.7-5.6,2.3c-2,0.5-4,0.8-5.8,0.8
		c-5.6,0-10.1-1.6-13.4-4.9c-3.3-3.3-4.9-7.8-4.9-13.5c0-3.7,0.7-6.9,2.2-9.7c1.4-2.8,3.5-5,6.1-6.6c2.6-1.6,5.6-2.3,8.9-2.3
		c4.8,0,8.5,1.5,11.3,4.6s4.2,7.2,4.2,12.4c0,1.9-0.9,2.9-2.6,2.9h-22.6c0.5,7.5,4.1,11.3,10.9,11.3c1.8,0,3.4-0.2,4.7-0.7
		c1.3-0.5,2.7-1.1,4.2-1.9c0.1-0.1,0.5-0.3,1.2-0.6c0.7-0.3,1.2-0.5,1.6-0.5C552.8,490,553.4,490.3,553.8,490.8z M532.7,470.6
		c-1.7,1.8-2.7,4.3-3.1,7.6h18.8c-0.1-3.3-1-5.9-2.5-7.6s-3.7-2.7-6.5-2.7C536.6,467.9,534.4,468.8,532.7,470.6z"/>
	<path class="st25" d="M563.1,496.5c-0.9-0.5-1.5-1.1-1.9-1.7c-0.4-0.6-0.5-1.2-0.5-2c0-0.8,0.2-1.4,0.7-2c0.4-0.5,1-0.8,1.7-0.8
		c0.6,0,1.6,0.4,3,1.2c1.5,0.8,2.9,1.4,4.3,1.9c1.4,0.5,3.1,0.7,5.2,0.7c2.3,0,4.2-0.4,5.5-1.2c1.3-0.8,2-2,2-3.5
		c0-1-0.3-1.8-0.8-2.3c-0.5-0.6-1.4-1.1-2.7-1.6c-1.3-0.5-3.1-1-5.6-1.5c-4.3-0.9-7.4-2.2-9.2-3.8c-1.9-1.6-2.8-3.7-2.8-6.5
		c0-2.1,0.6-4,1.8-5.7c1.2-1.7,2.9-3,5-3.9c2.1-0.9,4.6-1.4,7.3-1.4c1.9,0,3.8,0.3,5.7,0.8c1.8,0.5,3.5,1.3,4.9,2.2
		c1.6,1.1,2.4,2.3,2.4,3.7c0,0.8-0.2,1.4-0.7,2c-0.5,0.5-1,0.8-1.6,0.8c-0.4,0-0.9-0.1-1.3-0.3c-0.4-0.2-1-0.5-1.8-0.9
		c-1.3-0.8-2.5-1.4-3.7-1.8c-1.1-0.4-2.6-0.7-4.3-0.7c-2,0-3.7,0.4-4.9,1.3c-1.2,0.9-1.9,2.1-1.9,3.6c0,1.4,0.6,2.4,1.7,3.2
		c1.1,0.8,3.3,1.5,6.5,2.2c3.3,0.7,5.8,1.5,7.7,2.3c1.9,0.9,3.2,2,4,3.2c0.8,1.3,1.2,2.9,1.2,4.9c0,3.2-1.3,5.7-4,7.6
		c-2.7,1.9-6.2,2.9-10.6,2.9C570.3,499.5,566.3,498.5,563.1,496.5z"/>
	<path class="st25" d="M623.5,497.3c-2.6-1.5-4.6-3.7-6.1-6.4c-1.4-2.8-2.2-6-2.2-9.6c0-3.7,0.7-7,2.2-9.8c1.5-2.8,3.6-5,6.2-6.6
		c2.7-1.6,5.7-2.3,9.2-2.3c1.9,0,3.7,0.3,5.6,0.8c1.9,0.5,3.5,1.3,5,2.2c1.6,1.1,2.3,2.3,2.3,3.7c0,0.8-0.2,1.5-0.7,2.1
		c-0.4,0.6-1,0.8-1.7,0.8c-0.4,0-0.9-0.1-1.3-0.3c-0.4-0.2-1-0.5-1.7-1c-1.2-0.8-2.3-1.4-3.4-1.8c-1-0.4-2.3-0.6-3.8-0.6
		c-3.3,0-5.9,1.1-7.7,3.4s-2.7,5.4-2.7,9.3c0,4,0.9,7.1,2.7,9.2c1.8,2.2,4.4,3.2,7.7,3.2c1.5,0,2.8-0.2,3.9-0.7
		c1.1-0.4,2.3-1,3.4-1.8c0.5-0.3,1.1-0.6,1.6-0.9c0.5-0.2,1-0.4,1.5-0.4c0.7,0,1.2,0.3,1.7,0.8c0.4,0.6,0.7,1.3,0.7,2.1
		c0,0.7-0.2,1.3-0.5,1.9c-0.4,0.6-1,1.1-1.9,1.7c-1.5,1-3.2,1.7-5.1,2.3s-3.9,0.8-5.9,0.8C629.2,499.5,626.1,498.8,623.5,497.3z"/>
	<path class="st25" d="M653.7,498.5c-0.7-0.6-1.1-1.5-1.1-2.6v-45.1c0-1.2,0.4-2.1,1.1-2.7c0.7-0.6,1.6-0.9,2.7-0.9
		c1.1,0,1.9,0.3,2.6,0.9c0.7,0.6,1,1.5,1,2.7v45.1c0,1.2-0.3,2-1,2.6c-0.7,0.6-1.6,0.9-2.6,0.9C655.3,499.4,654.4,499.1,653.7,498.5
		z"/>
	<path class="st25" d="M676.6,497.3c-2.7-1.5-4.7-3.7-6.1-6.5c-1.4-2.8-2.2-6-2.2-9.8c0-3.7,0.7-7,2.2-9.8c1.4-2.8,3.5-5,6.1-6.5
		c2.7-1.5,5.7-2.3,9.2-2.3s6.6,0.8,9.2,2.3c2.7,1.5,4.7,3.7,6.1,6.5c1.4,2.8,2.2,6.1,2.2,9.8c0,3.7-0.7,7-2.2,9.8
		c-1.4,2.8-3.5,5-6.1,6.5c-2.7,1.5-5.7,2.3-9.2,2.3S679.2,498.8,676.6,497.3z M693.3,490.5c1.7-2.1,2.6-5.3,2.6-9.4
		c0-4.1-0.9-7.2-2.6-9.4c-1.8-2.2-4.2-3.2-7.4-3.2c-3.2,0-5.7,1.1-7.4,3.2c-1.8,2.2-2.6,5.3-2.6,9.4c0,4.1,0.9,7.3,2.6,9.4
		c1.7,2.1,4.2,3.2,7.5,3.2C689.1,493.7,691.6,492.6,693.3,490.5z"/>
	<path class="st25" d="M711.7,496.5c-0.9-0.5-1.5-1.1-1.9-1.7c-0.4-0.6-0.5-1.2-0.5-2c0-0.8,0.2-1.4,0.7-2c0.4-0.5,1-0.8,1.7-0.8
		c0.6,0,1.6,0.4,3,1.2c1.5,0.8,2.9,1.4,4.3,1.9c1.4,0.5,3.1,0.7,5.2,0.7c2.3,0,4.2-0.4,5.5-1.2c1.3-0.8,2-2,2-3.5
		c0-1-0.3-1.8-0.8-2.3c-0.5-0.6-1.4-1.1-2.7-1.6c-1.3-0.5-3.1-1-5.6-1.5c-4.3-0.9-7.4-2.2-9.2-3.8c-1.9-1.6-2.8-3.7-2.8-6.5
		c0-2.1,0.6-4,1.8-5.7c1.2-1.7,2.9-3,5-3.9c2.1-0.9,4.6-1.4,7.3-1.4c1.9,0,3.8,0.3,5.7,0.8c1.8,0.5,3.5,1.3,4.9,2.2
		c1.6,1.1,2.4,2.3,2.4,3.7c0,0.8-0.2,1.4-0.7,2c-0.5,0.5-1,0.8-1.6,0.8c-0.4,0-0.9-0.1-1.3-0.3c-0.4-0.2-1-0.5-1.8-0.9
		c-1.3-0.8-2.5-1.4-3.7-1.8c-1.1-0.4-2.6-0.7-4.3-0.7c-2,0-3.7,0.4-4.9,1.3c-1.2,0.9-1.9,2.1-1.9,3.6c0,1.4,0.6,2.4,1.7,3.2
		c1.1,0.8,3.3,1.5,6.5,2.2c3.3,0.7,5.8,1.5,7.7,2.3c1.9,0.9,3.2,2,4,3.2c0.8,1.3,1.2,2.9,1.2,4.9c0,3.2-1.3,5.7-4,7.6
		c-2.7,1.9-6.2,2.9-10.6,2.9C719,499.5,714.9,498.5,711.7,496.5z"/>
	<path class="st25" d="M776.3,490.8c0.4,0.5,0.7,1.2,0.7,2c0,1.4-0.9,2.6-2.6,3.6c-1.7,1-3.6,1.7-5.6,2.3s-4,0.8-5.8,0.8
		c-5.6,0-10.1-1.6-13.4-4.9c-3.3-3.3-4.9-7.8-4.9-13.5c0-3.7,0.7-6.9,2.2-9.7c1.4-2.8,3.5-5,6.1-6.6c2.6-1.6,5.6-2.3,8.9-2.3
		c4.8,0,8.5,1.5,11.3,4.6s4.2,7.2,4.2,12.4c0,1.9-0.9,2.9-2.6,2.9H752c0.5,7.5,4.1,11.3,10.9,11.3c1.8,0,3.4-0.2,4.7-0.7
		c1.3-0.5,2.7-1.1,4.2-1.9c0.1-0.1,0.5-0.3,1.2-0.6c0.7-0.3,1.2-0.5,1.6-0.5C775.3,490,775.9,490.3,776.3,490.8z M755.1,470.6
		c-1.7,1.8-2.7,4.3-3.1,7.6h18.8c-0.1-3.3-1-5.9-2.5-7.6c-1.5-1.8-3.7-2.7-6.5-2.7C759.1,467.9,756.8,468.8,755.1,470.6z"/>
	<path class="st25" d="M817.2,448.1c0.7,0.6,1,1.5,1,2.6v45.1c0,1.1-0.3,2-1,2.6c-0.7,0.6-1.5,0.9-2.7,0.9c-1.1,0-2-0.3-2.7-0.9
		c-0.7-0.6-1-1.5-1-2.6v-2.9c-1.1,2.1-2.6,3.8-4.7,4.9c-2,1.1-4.4,1.7-7.1,1.7c-3.1,0-5.8-0.8-8.2-2.3c-2.4-1.6-4.3-3.7-5.6-6.6
		c-1.3-2.8-2-6.1-2-9.7c0-3.7,0.7-6.9,2-9.7c1.3-2.8,3.2-4.9,5.6-6.4c2.4-1.5,5.1-2.3,8.3-2.3c2.7,0,5,0.6,7,1.7
		c2,1.1,3.6,2.8,4.6,4.9v-18.5c0-1,0.3-1.8,1-2.4c0.7-0.6,1.5-0.9,2.7-0.9C815.6,447.2,816.5,447.5,817.2,448.1z M808.3,490.4
		c1.8-2.2,2.6-5.3,2.6-9.3c0-4-0.9-7.2-2.6-9.3c-1.7-2.2-4.2-3.3-7.4-3.3c-3.2,0-5.7,1.1-7.5,3.2c-1.8,2.2-2.7,5.2-2.7,9.2
		c0,4,0.9,7.1,2.7,9.4c1.8,2.3,4.3,3.4,7.5,3.4C804.1,493.7,806.5,492.6,808.3,490.4z"/>
</g>
</svg>
