<?xml version="1.0" encoding="utf-8"?>
<!-- Generator: Adobe Illustrator 22.0.1, SVG Export Plug-In . SVG Version: 6.00 Build 0)  -->
<svg version="1.1" id="Layer_1" xmlns="http://www.w3.org/2000/svg" xmlns:xlink="http://www.w3.org/1999/xlink" x="0px" y="0px"
	 viewBox="0 0 1200 950" style="enable-background:new 0 0 1200 950;" xml:space="preserve">
<style type="text/css">
	.st0{clip-path:url(#SVGID_2_);fill:#FFFFFF;}
	.st1{clip-path:url(#SVGID_4_);fill:#034F63;}
	.st2{fill:#FFCA07;}
	.st3{fill:#00B6AE;}
	.st4{fill:#A0CE5E;}
	.st5{fill:#B2D67F;}
	.st6{fill:#6FC6C1;}
	.st7{fill:#C9E2A4;}
	.st8{fill:#FFDC7F;}
	.st9{fill:#88CDCA;}
	.st10{fill:#748798;}
	.st11{clip-path:url(#SVGID_6_);fill:#748798;}
	.st12{clip-path:url(#SVGID_8_);fill:#F7F8F8;}
	.st13{clip-path:url(#SVGID_10_);fill:#4C6C7F;}
	.st14{clip-path:url(#SVGID_12_);fill:#C9E2A4;}
	.st15{clip-path:url(#SVGID_14_);fill:#B2D67F;}
	.st16{clip-path:url(#SVGID_16_);fill:#055065;}
	.st17{clip-path:url(#SVGID_18_);fill:#4C6C7F;}
	.st18{clip-path:url(#SVGID_20_);fill:#748798;}
	.st19{clip-path:url(#SVGID_22_);fill:#748798;}
	.st20{clip-path:url(#SVGID_24_);fill:#748798;}
	.st21{clip-path:url(#SVGID_26_);fill:#748798;}
	.st22{clip-path:url(#SVGID_28_);fill:#748798;}
	.st23{clip-path:url(#SVGID_30_);fill:#748798;}
	.st24{clip-path:url(#SVGID_32_);fill:#F7F8F8;}
	.st25{clip-path:url(#SVGID_34_);fill:#4C6C7F;}
	.st26{clip-path:url(#SVGID_36_);fill:#F7F8F8;}
	.st27{clip-path:url(#SVGID_38_);fill:#F7F8F8;}
	.st28{clip-path:url(#SVGID_40_);fill:#F7F8F8;}
	.st29{clip-path:url(#SVGID_42_);fill:#F7F8F8;}
	.st30{clip-path:url(#SVGID_44_);fill:#F7F8F8;}
	.st31{clip-path:url(#SVGID_46_);fill:#B2D67F;}
	.st32{clip-path:url(#SVGID_48_);fill:#C9E2A4;}
	.st33{clip-path:url(#SVGID_50_);fill:#748798;}
	.st34{clip-path:url(#SVGID_52_);fill:#F7F8F8;}
	.st35{clip-path:url(#SVGID_54_);fill:#4C6C7F;}
	.st36{clip-path:url(#SVGID_56_);fill:#F7F8F8;}
	.st37{clip-path:url(#SVGID_58_);fill:#F7F8F8;}
	.st38{clip-path:url(#SVGID_60_);fill:#F7F8F8;}
	.st39{clip-path:url(#SVGID_62_);fill:#F7F8F8;}
	.st40{clip-path:url(#SVGID_64_);fill:#748798;}
	.st41{clip-path:url(#SVGID_66_);fill:#F7F8F8;}
	.st42{clip-path:url(#SVGID_68_);fill:#4C6C7F;}
	.st43{clip-path:url(#SVGID_70_);fill:#F7F8F8;}
	.st44{clip-path:url(#SVGID_72_);fill:#F7F8F8;}
	.st45{clip-path:url(#SVGID_74_);fill:#F7F8F8;}
	.st46{clip-path:url(#SVGID_76_);fill:#F7F8F8;}
	.st47{clip-path:url(#SVGID_78_);fill:#748798;}
	.st48{clip-path:url(#SVGID_80_);fill:#F7F8F8;}
	.st49{clip-path:url(#SVGID_82_);fill:#055065;}
	.st50{clip-path:url(#SVGID_84_);fill:#F7F8F8;}
	.st51{clip-path:url(#SVGID_86_);fill:#F7F8F8;}
	.st52{clip-path:url(#SVGID_88_);fill:#F7F8F8;}
	.st53{clip-path:url(#SVGID_90_);fill:#F7F8F8;}
	.st54{clip-path:url(#SVGID_92_);fill:#748798;}
	.st55{clip-path:url(#SVGID_94_);fill:#F7F8F8;}
	.st56{clip-path:url(#SVGID_96_);fill:#055065;}
	.st57{clip-path:url(#SVGID_98_);fill:#F7F8F8;}
	.st58{clip-path:url(#SVGID_100_);fill:#F7F8F8;}
	.st59{clip-path:url(#SVGID_102_);fill:#F7F8F8;}
	.st60{clip-path:url(#SVGID_104_);fill:#F7F8F8;}
	.st61{clip-path:url(#SVGID_106_);fill:#FFCA07;}
	.st62{clip-path:url(#SVGID_108_);fill:#FFDC7F;}
	.st63{clip-path:url(#SVGID_110_);fill:#FFDC7F;}
	.st64{clip-path:url(#SVGID_112_);fill:#055065;}
	.st65{clip-path:url(#SVGID_114_);fill:#055065;}
	.st66{clip-path:url(#SVGID_116_);fill:#055065;}
	.st67{clip-path:url(#SVGID_118_);fill:#055065;}
	.st68{clip-path:url(#SVGID_120_);fill:#748798;}
	.st69{clip-path:url(#SVGID_122_);fill:#748798;}
	.st70{clip-path:url(#SVGID_124_);fill:#748798;}
	.st71{clip-path:url(#SVGID_126_);fill:#4C6C7F;}
	.st72{clip-path:url(#SVGID_128_);fill:#4C6C7F;}
	.st73{fill:#4C6C7F;}
	.st74{clip-path:url(#SVGID_130_);fill:#748798;}
	.st75{clip-path:url(#SVGID_132_);fill:#748798;}
	.st76{clip-path:url(#SVGID_134_);fill:#4C6C7F;}
	.st77{clip-path:url(#SVGID_136_);fill:#055065;}
	.st78{clip-path:url(#SVGID_138_);fill:#055065;}
	.st79{clip-path:url(#SVGID_140_);fill:#4C6C7F;}
	.st80{clip-path:url(#SVGID_142_);fill:#4C6C7F;}
	.st81{clip-path:url(#SVGID_144_);fill:#4C6C7F;}
	.st82{clip-path:url(#SVGID_146_);fill:#4C6C7F;}
	.st83{clip-path:url(#SVGID_148_);fill:#748798;}
	.st84{clip-path:url(#SVGID_150_);fill:#748798;}
	.st85{clip-path:url(#SVGID_152_);fill:#748798;}
	.st86{clip-path:url(#SVGID_154_);fill:#4C6C7F;}
	.st87{clip-path:url(#SVGID_156_);fill:#055065;}
	.st88{clip-path:url(#SVGID_158_);fill:#055065;}
	.st89{clip-path:url(#SVGID_160_);fill:#4C6C7F;}
	.st90{clip-path:url(#SVGID_162_);fill:#A0CE5E;}
	.st91{clip-path:url(#SVGID_164_);fill:#A0CE5E;}
	.st92{clip-path:url(#SVGID_166_);fill:#A0CE5E;}
	.st93{clip-path:url(#SVGID_168_);fill:#A0CE5E;}
	.st94{clip-path:url(#SVGID_170_);fill:#A0CE5E;}
	.st95{clip-path:url(#SVGID_172_);fill:#A0CE5E;}
	.st96{clip-path:url(#SVGID_174_);fill:#A0CE5E;}
	.st97{enable-background:new    ;}
	.st98{fill:#034F63;}
	.st99{fill:#00B9B0;}
	.st100{fill:#FFC905;}
</style>
<g>
	<g>
		<defs>
			<rect id="SVGID_1_" y="0" width="1200" height="950"/>
		</defs>
		<clipPath id="SVGID_2_">
			<use xlink:href="#SVGID_1_"  style="overflow:visible;"/>
		</clipPath>
		<path class="st0" d="M1200,930c0,0,0,20-20,20H20c0,0-20,0-20-20V20C0,20,0,0,20,0h1160c0,0,20,0,20,20V930z"/>
	</g>
</g>
<g>
	<g>
		<defs>
			<path id="SVGID_3_" d="M20,0C0,0,0,20,0,20v910c0,20,20,20,20,20h1160c20,0,20-20,20-20V20c0-20-20-20-20-20H20z"/>
		</defs>
		<clipPath id="SVGID_4_">
			<use xlink:href="#SVGID_3_"  style="overflow:visible;"/>
		</clipPath>
		<rect y="928.7" class="st1" width="1200" height="21.3"/>
	</g>
</g>
<polygon class="st2" points="986.2,406.5 986.2,457.6 994.7,457.6 989.4,406.5 "/>
<polygon class="st3" points="670.4,783.1 678,928.6 1035.9,928.6 1035.9,776 "/>
<polygon class="st3" points="919.3,602.5 930.1,920.1 1005.6,919.3 1005.6,602.5 "/>
<rect x="667.2" y="911.6" class="st4" width="358" height="17"/>
<polygon class="st5" points="977.4,701.1 882.9,785.1 658.8,785.1 752.1,701.1 "/>
<polygon class="st4" points="873.3,793.8 671,793.8 658.8,785.1 882.9,785.1 "/>
<polygon class="st6" points="880.3,776 880.3,928.6 1124.2,924.8 1126.7,776 "/>
<polygon class="st6" points="1126.7,776.6 1043,716.1 1044,709.2 1003.5,676.2 880.3,776.6 "/>
<rect x="954.5" y="602.5" class="st3" width="89.5" height="316.5"/>
<rect x="873.9" y="911.6" class="st5" width="264.7" height="17"/>
<rect x="954.5" y="911.6" class="st4" width="31.9" height="17"/>
<polygon class="st7" points="1047.1,720.2 1135.3,789.9 1142,782.3 1067.6,720.2 "/>
<polygon class="st2" points="1009.4,588.3 992.1,446.2 917.6,588.3 "/>
<polygon class="st8" points="1070,588.3 992.1,446.2 955.2,588.3 "/>
<polygon class="st9" points="982,602.5 985.2,911.6 985.4,928.6 1065.5,928.6 1065.7,911.6 1068.3,602.5 "/>
<polygon class="st3" points="982.2,617 982,602.5 1068.3,602.5 1068.2,617 "/>
<rect x="986.7" y="622" class="st3" width="17.5" height="8.6"/>
<rect x="1045.3" y="630.9" class="st3" width="17.5" height="8.6"/>
<rect x="993.7" y="711.6" class="st3" width="17.5" height="8.6"/>
<rect x="994.5" y="818.3" class="st3" width="17.5" height="8.6"/>
<rect x="1043.9" y="834.1" class="st3" width="17.5" height="8.6"/>
<polygon class="st10" points="985.2,911.6 985.4,928.6 1065.5,928.6 1065.7,911.6 "/>
<rect x="908.5" y="588.3" class="st5" width="105.9" height="18.6"/>
<rect x="969.1" y="588.3" class="st7" width="110" height="18.6"/>
<g>
	<g>
		<defs>
			<rect id="SVGID_5_" x="434" y="406.5" width="708" height="522.1"/>
		</defs>
		<clipPath id="SVGID_6_">
			<use xlink:href="#SVGID_5_"  style="overflow:visible;"/>
		</clipPath>
		<path class="st11" d="M1021.1,690.8c14.2,0,25.7-11.5,25.7-25.7s-11.5-25.7-25.7-25.7s-25.7,11.5-25.7,25.7
			S1007,690.8,1021.1,690.8"/>
	</g>
	<g>
		<defs>
			<rect id="SVGID_7_" x="434" y="406.5" width="708" height="522.1"/>
		</defs>
		<clipPath id="SVGID_8_">
			<use xlink:href="#SVGID_7_"  style="overflow:visible;"/>
		</clipPath>
		<path class="st12" d="M1024.8,690.8c14.2,0,25.7-11.5,25.7-25.7s-11.5-25.7-25.7-25.7c-14.2,0-25.7,11.5-25.7,25.7
			S1010.6,690.8,1024.8,690.8"/>
	</g>
	<g>
		<defs>
			<rect id="SVGID_9_" x="434" y="406.5" width="708" height="522.1"/>
		</defs>
		<clipPath id="SVGID_10_">
			<use xlink:href="#SVGID_9_"  style="overflow:visible;"/>
		</clipPath>
		<path class="st13" d="M1002.8,665.1c0-12.2,9.9-22,22-22c12.2,0,22,9.9,22,22c0,12.2-9.8,22-22,22
			C1012.6,687.1,1002.8,677.2,1002.8,665.1"/>
	</g>
	<g>
		<defs>
			<rect id="SVGID_11_" x="434" y="406.5" width="708" height="522.1"/>
		</defs>
		<clipPath id="SVGID_12_">
			<use xlink:href="#SVGID_11_"  style="overflow:visible;"/>
		</clipPath>
		<polygon class="st14" points="954.4,701.1 954.5,701.1 954.5,724.1 873.3,793.8 861.1,785.1 		"/>
	</g>
	<g>
		<defs>
			<rect id="SVGID_13_" x="434" y="406.5" width="708" height="522.1"/>
		</defs>
		<clipPath id="SVGID_14_">
			<use xlink:href="#SVGID_13_"  style="overflow:visible;"/>
		</clipPath>
		<path class="st15" d="M986.4,867.4l7.1,2.9c4.2-13.5,16.8-23.2,31.6-23.2c14.4,0,26.7,9.2,31.3,22.1l7.1-2.9
			c-5.7-15.7-20.7-26.9-38.3-26.9C1007.1,839.4,991.8,851.2,986.4,867.4"/>
	</g>
	<g>
		<defs>
			<rect id="SVGID_15_" x="434" y="406.5" width="708" height="522.1"/>
		</defs>
		<clipPath id="SVGID_16_">
			<use xlink:href="#SVGID_15_"  style="overflow:visible;"/>
		</clipPath>
		<path class="st16" d="M1003.9,880.7v32.4h44.4v-32.4c0-12.3-9.9-22.2-22.2-22.2C1013.9,858.5,1003.9,868.5,1003.9,880.7"/>
	</g>
	<g>
		<defs>
			<rect id="SVGID_17_" x="434" y="406.5" width="708" height="522.1"/>
		</defs>
		<clipPath id="SVGID_18_">
			<use xlink:href="#SVGID_17_"  style="overflow:visible;"/>
		</clipPath>
		<path class="st17" d="M1008.1,880.7v32.4h44.4v-32.4c0-12.3-9.9-22.2-22.2-22.2C1018,858.5,1008.1,868.5,1008.1,880.7"/>
	</g>
	<g>
		<defs>
			<rect id="SVGID_19_" x="434" y="406.5" width="708" height="522.1"/>
		</defs>
		<clipPath id="SVGID_20_">
			<use xlink:href="#SVGID_19_"  style="overflow:visible;"/>
		</clipPath>
		<path class="st18" d="M1012.6,892.5c0-2.3,1.9-4.2,4.2-4.2s4.2,1.9,4.2,4.2s-1.9,4.2-4.2,4.2
			C1014.5,896.8,1012.6,894.9,1012.6,892.5"/>
	</g>
	<g>
		<defs>
			<rect id="SVGID_21_" x="434" y="406.5" width="708" height="522.1"/>
		</defs>
		<clipPath id="SVGID_22_">
			<use xlink:href="#SVGID_21_"  style="overflow:visible;"/>
		</clipPath>
		<rect x="996.9" y="911.5" class="st19" width="55.8" height="11.2"/>
	</g>
	<g>
		<defs>
			<rect id="SVGID_23_" x="434" y="406.5" width="708" height="522.1"/>
		</defs>
		<clipPath id="SVGID_24_">
			<use xlink:href="#SVGID_23_"  style="overflow:visible;"/>
		</clipPath>
		<rect x="996.9" y="918.8" class="st20" width="64.3" height="9.9"/>
	</g>
	<g>
		<defs>
			<rect id="SVGID_25_" x="434" y="406.5" width="708" height="522.1"/>
		</defs>
		<clipPath id="SVGID_26_">
			<use xlink:href="#SVGID_25_"  style="overflow:visible;"/>
		</clipPath>
		<rect x="1008.1" y="911.4" class="st21" width="55.8" height="11.2"/>
	</g>
	<g>
		<defs>
			<rect id="SVGID_27_" x="434" y="406.5" width="708" height="522.1"/>
		</defs>
		<clipPath id="SVGID_28_">
			<use xlink:href="#SVGID_27_"  style="overflow:visible;"/>
		</clipPath>
		<rect x="1018.4" y="918.8" class="st22" width="72.8" height="9.9"/>
	</g>
	<g>
		<defs>
			<rect id="SVGID_29_" x="434" y="406.5" width="708" height="522.1"/>
		</defs>
		<clipPath id="SVGID_30_">
			<use xlink:href="#SVGID_29_"  style="overflow:visible;"/>
		</clipPath>
		<path class="st23" d="M1044,800v-52.9c0-11.2-9.1-20.4-20.4-20.4c-11.2,0-20.4,9.1-20.4,20.4V800H1044z"/>
	</g>
	<g>
		<defs>
			<rect id="SVGID_31_" x="434" y="406.5" width="708" height="522.1"/>
		</defs>
		<clipPath id="SVGID_32_">
			<use xlink:href="#SVGID_31_"  style="overflow:visible;"/>
		</clipPath>
		<path class="st24" d="M1047.9,800v-52.9c0-11.2-9.1-20.4-20.4-20.4c-11.2,0-20.4,9.1-20.4,20.4V800H1047.9z"/>
	</g>
	<g>
		<defs>
			<rect id="SVGID_33_" x="434" y="406.5" width="708" height="522.1"/>
		</defs>
		<clipPath id="SVGID_34_">
			<use xlink:href="#SVGID_33_"  style="overflow:visible;"/>
		</clipPath>
		<path class="st25" d="M1010.9,796.2v-49.1c0-9.2,7.4-16.6,16.6-16.6s16.6,7.4,16.6,16.6v49.1H1010.9z"/>
	</g>
	<g>
		<defs>
			<rect id="SVGID_35_" x="434" y="406.5" width="708" height="522.1"/>
		</defs>
		<clipPath id="SVGID_36_">
			<use xlink:href="#SVGID_35_"  style="overflow:visible;"/>
		</clipPath>
		<rect x="1025.1" y="728.3" class="st26" width="3.6" height="70.2"/>
	</g>
	<g>
		<defs>
			<rect id="SVGID_37_" x="434" y="406.5" width="708" height="522.1"/>
		</defs>
		<clipPath id="SVGID_38_">
			<use xlink:href="#SVGID_37_"  style="overflow:visible;"/>
		</clipPath>
		<rect x="1007.9" y="753.7" class="st27" width="39.2" height="3.6"/>
	</g>
	<g>
		<defs>
			<rect id="SVGID_39_" x="434" y="406.5" width="708" height="522.1"/>
		</defs>
		<clipPath id="SVGID_40_">
			<use xlink:href="#SVGID_39_"  style="overflow:visible;"/>
		</clipPath>
		<rect x="1022.3" y="641.1" class="st28" width="3.6" height="49.7"/>
	</g>
	<g>
		<defs>
			<rect id="SVGID_41_" x="434" y="406.5" width="708" height="522.1"/>
		</defs>
		<clipPath id="SVGID_42_">
			<use xlink:href="#SVGID_41_"  style="overflow:visible;"/>
		</clipPath>
		<rect x="1000.2" y="663.3" class="st29" width="47" height="3.6"/>
	</g>
	<g>
		<defs>
			<rect id="SVGID_43_" x="434" y="406.5" width="708" height="522.1"/>
		</defs>
		<clipPath id="SVGID_44_">
			<use xlink:href="#SVGID_43_"  style="overflow:visible;"/>
		</clipPath>
		<rect x="1007.8" y="776.2" class="st30" width="39.2" height="3.6"/>
	</g>
	<g>
		<defs>
			<rect id="SVGID_45_" x="434" y="406.5" width="708" height="522.1"/>
		</defs>
		<clipPath id="SVGID_46_">
			<use xlink:href="#SVGID_45_"  style="overflow:visible;"/>
		</clipPath>
		<rect x="1002.5" y="800" class="st31" width="44.7" height="4.4"/>
	</g>
	<g>
		<defs>
			<rect id="SVGID_47_" x="434" y="406.5" width="708" height="522.1"/>
		</defs>
		<clipPath id="SVGID_48_">
			<use xlink:href="#SVGID_47_"  style="overflow:visible;"/>
		</clipPath>
		<rect x="1007.1" y="800" class="st32" width="43" height="4.4"/>
	</g>
	<g>
		<defs>
			<rect id="SVGID_49_" x="434" y="406.5" width="708" height="522.1"/>
		</defs>
		<clipPath id="SVGID_50_">
			<use xlink:href="#SVGID_49_"  style="overflow:visible;"/>
		</clipPath>
		<path class="st33" d="M1111.4,900.6v-74.2c0-11.4-9.3-20.7-20.7-20.7c-11.4,0-20.7,9.3-20.7,20.7v74.2H1111.4z"/>
	</g>
	<g>
		<defs>
			<rect id="SVGID_51_" x="434" y="406.5" width="708" height="522.1"/>
		</defs>
		<clipPath id="SVGID_52_">
			<use xlink:href="#SVGID_51_"  style="overflow:visible;"/>
		</clipPath>
		<path class="st34" d="M1115.3,900.6v-74.2c0-11.4-9.3-20.7-20.7-20.7c-11.4,0-20.7,9.3-20.7,20.7v74.2H1115.3z"/>
	</g>
	<g>
		<defs>
			<rect id="SVGID_53_" x="434" y="406.5" width="708" height="522.1"/>
		</defs>
		<clipPath id="SVGID_54_">
			<use xlink:href="#SVGID_53_"  style="overflow:visible;"/>
		</clipPath>
		<path class="st35" d="M1077.7,896.8v-70.3c0-9.3,7.5-16.8,16.8-16.8s16.8,7.5,16.8,16.8v70.3H1077.7z"/>
	</g>
	<g>
		<defs>
			<rect id="SVGID_55_" x="434" y="406.5" width="708" height="522.1"/>
		</defs>
		<clipPath id="SVGID_56_">
			<use xlink:href="#SVGID_55_"  style="overflow:visible;"/>
		</clipPath>
		<rect x="1092.8" y="807.7" class="st36" width="3.6" height="90.9"/>
	</g>
	<g>
		<defs>
			<rect id="SVGID_57_" x="434" y="406.5" width="708" height="522.1"/>
		</defs>
		<clipPath id="SVGID_58_">
			<use xlink:href="#SVGID_57_"  style="overflow:visible;"/>
		</clipPath>
		<rect x="1075.6" y="833.1" class="st37" width="39.2" height="3.6"/>
	</g>
	<g>
		<defs>
			<rect id="SVGID_59_" x="434" y="406.5" width="708" height="522.1"/>
		</defs>
		<clipPath id="SVGID_60_">
			<use xlink:href="#SVGID_59_"  style="overflow:visible;"/>
		</clipPath>
		<rect x="1075.5" y="878" class="st38" width="39.2" height="3.6"/>
	</g>
	<g>
		<defs>
			<rect id="SVGID_61_" x="434" y="406.5" width="708" height="522.1"/>
		</defs>
		<clipPath id="SVGID_62_">
			<use xlink:href="#SVGID_61_"  style="overflow:visible;"/>
		</clipPath>
		<rect x="1075.5" y="855.6" class="st39" width="39.2" height="3.6"/>
	</g>
	<g>
		<defs>
			<rect id="SVGID_63_" x="434" y="406.5" width="708" height="522.1"/>
		</defs>
		<clipPath id="SVGID_64_">
			<use xlink:href="#SVGID_63_"  style="overflow:visible;"/>
		</clipPath>
		<path class="st40" d="M935,900.6v-74.2c0-11.4-9.3-20.7-20.7-20.7s-20.7,9.3-20.7,20.7v74.2H935z"/>
	</g>
	<g>
		<defs>
			<rect id="SVGID_65_" x="434" y="406.5" width="708" height="522.1"/>
		</defs>
		<clipPath id="SVGID_66_">
			<use xlink:href="#SVGID_65_"  style="overflow:visible;"/>
		</clipPath>
		<path class="st41" d="M938.9,900.6v-74.2c0-11.4-9.3-20.7-20.7-20.7s-20.7,9.3-20.7,20.7v74.2H938.9z"/>
	</g>
	<g>
		<defs>
			<rect id="SVGID_67_" x="434" y="406.5" width="708" height="522.1"/>
		</defs>
		<clipPath id="SVGID_68_">
			<use xlink:href="#SVGID_67_"  style="overflow:visible;"/>
		</clipPath>
		<path class="st42" d="M901.3,896.8v-70.3c0-9.3,7.5-16.8,16.8-16.8s16.8,7.5,16.8,16.8v70.3H901.3z"/>
	</g>
	<g>
		<defs>
			<rect id="SVGID_69_" x="434" y="406.5" width="708" height="522.1"/>
		</defs>
		<clipPath id="SVGID_70_">
			<use xlink:href="#SVGID_69_"  style="overflow:visible;"/>
		</clipPath>
		<rect x="916.4" y="807.7" class="st43" width="3.6" height="90.9"/>
	</g>
	<g>
		<defs>
			<rect id="SVGID_71_" x="434" y="406.5" width="708" height="522.1"/>
		</defs>
		<clipPath id="SVGID_72_">
			<use xlink:href="#SVGID_71_"  style="overflow:visible;"/>
		</clipPath>
		<rect x="899.2" y="833.1" class="st44" width="39.2" height="3.6"/>
	</g>
	<g>
		<defs>
			<rect id="SVGID_73_" x="434" y="406.5" width="708" height="522.1"/>
		</defs>
		<clipPath id="SVGID_74_">
			<use xlink:href="#SVGID_73_"  style="overflow:visible;"/>
		</clipPath>
		<rect x="899.1" y="878" class="st45" width="39.2" height="3.6"/>
	</g>
	<g>
		<defs>
			<rect id="SVGID_75_" x="434" y="406.5" width="708" height="522.1"/>
		</defs>
		<clipPath id="SVGID_76_">
			<use xlink:href="#SVGID_75_"  style="overflow:visible;"/>
		</clipPath>
		<rect x="899.1" y="855.6" class="st46" width="39.2" height="3.6"/>
	</g>
	<g>
		<defs>
			<rect id="SVGID_77_" x="434" y="406.5" width="708" height="522.1"/>
		</defs>
		<clipPath id="SVGID_78_">
			<use xlink:href="#SVGID_77_"  style="overflow:visible;"/>
		</clipPath>
		<path class="st47" d="M799,900.6v-74.2c0-11.4,9.3-20.7,20.7-20.7s20.7,9.3,20.7,20.7v74.2H799z"/>
	</g>
	<g>
		<defs>
			<rect id="SVGID_79_" x="434" y="406.5" width="708" height="522.1"/>
		</defs>
		<clipPath id="SVGID_80_">
			<use xlink:href="#SVGID_79_"  style="overflow:visible;"/>
		</clipPath>
		<path class="st48" d="M795.1,900.6v-74.2c0-11.4,9.3-20.7,20.7-20.7s20.7,9.3,20.7,20.7v74.2H795.1z"/>
	</g>
	<g>
		<defs>
			<rect id="SVGID_81_" x="434" y="406.5" width="708" height="522.1"/>
		</defs>
		<clipPath id="SVGID_82_">
			<use xlink:href="#SVGID_81_"  style="overflow:visible;"/>
		</clipPath>
		<path class="st49" d="M832.7,896.8v-70.3c0-9.3-7.5-16.8-16.8-16.8s-16.8,7.5-16.8,16.8v70.3H832.7z"/>
	</g>
	<g>
		<defs>
			<rect id="SVGID_83_" x="434" y="406.5" width="708" height="522.1"/>
		</defs>
		<clipPath id="SVGID_84_">
			<use xlink:href="#SVGID_83_"  style="overflow:visible;"/>
		</clipPath>
		<rect x="814" y="807.7" class="st50" width="3.6" height="90.9"/>
	</g>
	<g>
		<defs>
			<rect id="SVGID_85_" x="434" y="406.5" width="708" height="522.1"/>
		</defs>
		<clipPath id="SVGID_86_">
			<use xlink:href="#SVGID_85_"  style="overflow:visible;"/>
		</clipPath>
		<rect x="795.7" y="833.1" class="st51" width="39.2" height="3.6"/>
	</g>
	<g>
		<defs>
			<rect id="SVGID_87_" x="434" y="406.5" width="708" height="522.1"/>
		</defs>
		<clipPath id="SVGID_88_">
			<use xlink:href="#SVGID_87_"  style="overflow:visible;"/>
		</clipPath>
		<rect x="795.8" y="878" class="st52" width="39.2" height="3.6"/>
	</g>
	<g>
		<defs>
			<rect id="SVGID_89_" x="434" y="406.5" width="708" height="522.1"/>
		</defs>
		<clipPath id="SVGID_90_">
			<use xlink:href="#SVGID_89_"  style="overflow:visible;"/>
		</clipPath>
		<rect x="795.8" y="855.6" class="st53" width="39.2" height="3.6"/>
	</g>
	<g>
		<defs>
			<rect id="SVGID_91_" x="434" y="406.5" width="708" height="522.1"/>
		</defs>
		<clipPath id="SVGID_92_">
			<use xlink:href="#SVGID_91_"  style="overflow:visible;"/>
		</clipPath>
		<path class="st54" d="M704.9,900.6v-74.2c0-11.4,9.3-20.7,20.7-20.7s20.7,9.3,20.7,20.7v74.2H704.9z"/>
	</g>
	<g>
		<defs>
			<rect id="SVGID_93_" x="434" y="406.5" width="708" height="522.1"/>
		</defs>
		<clipPath id="SVGID_94_">
			<use xlink:href="#SVGID_93_"  style="overflow:visible;"/>
		</clipPath>
		<path class="st55" d="M701,900.6v-74.2c0-11.4,9.3-20.7,20.7-20.7s20.7,9.3,20.7,20.7v74.2H701z"/>
	</g>
	<g>
		<defs>
			<rect id="SVGID_95_" x="434" y="406.5" width="708" height="522.1"/>
		</defs>
		<clipPath id="SVGID_96_">
			<use xlink:href="#SVGID_95_"  style="overflow:visible;"/>
		</clipPath>
		<path class="st56" d="M738.5,896.8v-70.3c0-9.3-7.5-16.8-16.8-16.8s-16.8,7.5-16.8,16.8v70.3H738.5z"/>
	</g>
	<g>
		<defs>
			<rect id="SVGID_97_" x="434" y="406.5" width="708" height="522.1"/>
		</defs>
		<clipPath id="SVGID_98_">
			<use xlink:href="#SVGID_97_"  style="overflow:visible;"/>
		</clipPath>
		<rect x="719.9" y="807.7" class="st57" width="3.6" height="90.9"/>
	</g>
	<g>
		<defs>
			<rect id="SVGID_99_" x="434" y="406.5" width="708" height="522.1"/>
		</defs>
		<clipPath id="SVGID_100_">
			<use xlink:href="#SVGID_99_"  style="overflow:visible;"/>
		</clipPath>
		<rect x="701.5" y="833.1" class="st58" width="39.2" height="3.6"/>
	</g>
	<g>
		<defs>
			<rect id="SVGID_101_" x="434" y="406.5" width="708" height="522.1"/>
		</defs>
		<clipPath id="SVGID_102_">
			<use xlink:href="#SVGID_101_"  style="overflow:visible;"/>
		</clipPath>
		<rect x="701.6" y="878" class="st59" width="39.2" height="3.6"/>
	</g>
	<g>
		<defs>
			<rect id="SVGID_103_" x="434" y="406.5" width="708" height="522.1"/>
		</defs>
		<clipPath id="SVGID_104_">
			<use xlink:href="#SVGID_103_"  style="overflow:visible;"/>
		</clipPath>
		<rect x="701.6" y="855.6" class="st60" width="39.2" height="3.6"/>
	</g>
	<g>
		<defs>
			<rect id="SVGID_105_" x="434" y="406.5" width="708" height="522.1"/>
		</defs>
		<clipPath id="SVGID_106_">
			<use xlink:href="#SVGID_105_"  style="overflow:visible;"/>
		</clipPath>
		<polygon class="st61" points="1004.4,428.1 1004.4,420.8 973.7,421.3 973.7,428.3 		"/>
	</g>
	<g>
		<defs>
			<rect id="SVGID_107_" x="434" y="406.5" width="708" height="522.1"/>
		</defs>
		<clipPath id="SVGID_108_">
			<use xlink:href="#SVGID_107_"  style="overflow:visible;"/>
		</clipPath>
		<polygon class="st62" points="989.4,457.6 997.9,457.6 996.4,406.8 989.4,406.5 		"/>
	</g>
	<g>
		<defs>
			<rect id="SVGID_109_" x="434" y="406.5" width="708" height="522.1"/>
		</defs>
		<clipPath id="SVGID_110_">
			<use xlink:href="#SVGID_109_"  style="overflow:visible;"/>
		</clipPath>
		<polygon class="st63" points="1008.2,428.1 1008.2,420.8 977.5,421.3 977.5,428.3 		"/>
	</g>
	<g>
		<defs>
			<rect id="SVGID_111_" x="434" y="406.5" width="708" height="522.1"/>
		</defs>
		<clipPath id="SVGID_112_">
			<use xlink:href="#SVGID_111_"  style="overflow:visible;"/>
		</clipPath>
		<polygon class="st64" points="532.3,923.7 543.3,923.7 537.8,865.8 532.8,867.1 		"/>
	</g>
	<g>
		<defs>
			<rect id="SVGID_113_" x="434" y="406.5" width="708" height="522.1"/>
		</defs>
		<clipPath id="SVGID_114_">
			<use xlink:href="#SVGID_113_"  style="overflow:visible;"/>
		</clipPath>
		<polygon class="st65" points="524.5,890.9 556.6,880.7 519,880.7 519,890.9 		"/>
	</g>
	<g>
		<defs>
			<rect id="SVGID_115_" x="434" y="406.5" width="708" height="522.1"/>
		</defs>
		<clipPath id="SVGID_116_">
			<use xlink:href="#SVGID_115_"  style="overflow:visible;"/>
		</clipPath>
		<polygon class="st66" points="521.8,924 553.8,924 527.3,916.8 521.8,917.6 		"/>
	</g>
	<g>
		<defs>
			<rect id="SVGID_117_" x="434" y="406.5" width="708" height="522.1"/>
		</defs>
		<clipPath id="SVGID_118_">
			<use xlink:href="#SVGID_117_"  style="overflow:visible;"/>
		</clipPath>
		<rect x="516.3" y="921.4" class="st67" width="43" height="7.2"/>
	</g>
	<g>
		<defs>
			<rect id="SVGID_119_" x="434" y="406.5" width="708" height="522.1"/>
		</defs>
		<clipPath id="SVGID_120_">
			<use xlink:href="#SVGID_119_"  style="overflow:visible;"/>
		</clipPath>
		<polygon class="st68" points="537.8,923.7 548.8,923.7 548.1,867.3 537.8,865.8 		"/>
	</g>
	<g>
		<defs>
			<rect id="SVGID_121_" x="434" y="406.5" width="708" height="522.1"/>
		</defs>
		<clipPath id="SVGID_122_">
			<use xlink:href="#SVGID_121_"  style="overflow:visible;"/>
		</clipPath>
		<polygon class="st69" points="562.1,888.5 562.1,879.5 524.5,880.7 524.5,890.9 		"/>
	</g>
	<g>
		<defs>
			<rect id="SVGID_123_" x="434" y="406.5" width="708" height="522.1"/>
		</defs>
		<clipPath id="SVGID_124_">
			<use xlink:href="#SVGID_123_"  style="overflow:visible;"/>
		</clipPath>
		<polygon class="st70" points="527.3,924 559.3,924 559.3,918 527.3,916.8 		"/>
	</g>
	<g>
		<defs>
			<rect id="SVGID_125_" x="434" y="406.5" width="708" height="522.1"/>
		</defs>
		<clipPath id="SVGID_126_">
			<use xlink:href="#SVGID_125_"  style="overflow:visible;"/>
		</clipPath>
		<polygon class="st71" points="521.8,928.6 564.8,928.6 564.8,920.4 521.8,921.4 		"/>
	</g>
	<g>
		<defs>
			<rect id="SVGID_127_" x="434" y="406.5" width="708" height="522.1"/>
		</defs>
		<clipPath id="SVGID_128_">
			<use xlink:href="#SVGID_127_"  style="overflow:visible;"/>
		</clipPath>
		<path class="st72" d="M436.5,924.8c1.2-19.3,11.6-34.3,23.8-34c3.3,0.1,5.3,0.1,5.3,0.1l16.6,35.1L436.5,924.8z"/>
	</g>
	<g>
		
			<rect x="442" y="877.3" transform="matrix(2.768470e-02 -0.9996 0.9996 2.768470e-02 -432.0802 1317.7141)" class="st73" width="38.6" height="7.3"/>
	</g>
	<g>
		
			<rect x="458.1" y="862.6" transform="matrix(2.743787e-02 -0.9996 0.9996 2.743787e-02 -425.9121 1312.3799)" class="st73" width="6.8" height="25"/>
	</g>
	<g>
		
			<rect x="445.7" y="877.5" transform="matrix(2.765459e-02 -0.9996 0.9996 2.765459e-02 -428.6775 1321.5609)" class="st10" width="38.6" height="7.3"/>
	</g>
	<g>
		<defs>
			<rect id="SVGID_129_" x="434" y="406.5" width="708" height="522.1"/>
		</defs>
		<clipPath id="SVGID_130_">
			<use xlink:href="#SVGID_129_"  style="overflow:visible;"/>
		</clipPath>
		<polygon class="st74" points="477.6,878.9 477.8,872.1 452.8,871.4 452.6,878.2 		"/>
	</g>
	<g>
		<defs>
			<rect id="SVGID_131_" x="434" y="406.5" width="708" height="522.1"/>
		</defs>
		<clipPath id="SVGID_132_">
			<use xlink:href="#SVGID_131_"  style="overflow:visible;"/>
		</clipPath>
		<path class="st75" d="M441.8,925c1.2-19.3,11.6-34.3,23.8-34c12.2,0.3,21.7,16,21.8,35.3L441.8,925z"/>
	</g>
	<g>
		<defs>
			<rect id="SVGID_133_" x="434" y="406.5" width="708" height="522.1"/>
		</defs>
		<clipPath id="SVGID_134_">
			<use xlink:href="#SVGID_133_"  style="overflow:visible;"/>
		</clipPath>
		<path class="st76" d="M452.1,917.6c0.7-10.8,6.5-19.1,13.2-19c6.8,0.2,12.1,8.9,12.2,19.7L452.1,917.6z"/>
	</g>
	<g>
		<defs>
			<rect id="SVGID_135_" x="434" y="406.5" width="708" height="522.1"/>
		</defs>
		<clipPath id="SVGID_136_">
			<use xlink:href="#SVGID_135_"  style="overflow:visible;"/>
		</clipPath>
		<path class="st77" d="M456.4,904c1.9-1.7,4.1-2.6,6.4-2.5c6.1,0.2,11.1,7.3,12,16.7l2.7,0.1c-0.1-10.8-5.4-19.5-12.2-19.7
			C461.9,898.5,458.8,900.6,456.4,904"/>
	</g>
	<g>
		<defs>
			<rect id="SVGID_137_" x="434" y="406.5" width="708" height="522.1"/>
		</defs>
		<clipPath id="SVGID_138_">
			<use xlink:href="#SVGID_137_"  style="overflow:visible;"/>
		</clipPath>
		<rect x="434" y="923.9" class="st78" width="45.4" height="4.7"/>
	</g>
	<g>
		<defs>
			<rect id="SVGID_139_" x="434" y="406.5" width="708" height="522.1"/>
		</defs>
		<clipPath id="SVGID_140_">
			<use xlink:href="#SVGID_139_"  style="overflow:visible;"/>
		</clipPath>
		<rect x="440.5" y="923.9" class="st79" width="48.8" height="4.7"/>
	</g>
	<g>
		<defs>
			<rect id="SVGID_141_" x="434" y="406.5" width="708" height="522.1"/>
		</defs>
		<clipPath id="SVGID_142_">
			<use xlink:href="#SVGID_141_"  style="overflow:visible;"/>
		</clipPath>
		<path class="st80" d="M597,923.9v-20.2c0-8.9,7.2-16.1,16.1-16.1h6c8.9,0,16.1,7.2,16.1,16.1v20.2H597z"/>
	</g>
	<g>
		<defs>
			<rect id="SVGID_143_" x="434" y="406.5" width="708" height="522.1"/>
		</defs>
		<clipPath id="SVGID_144_">
			<use xlink:href="#SVGID_143_"  style="overflow:visible;"/>
		</clipPath>
		<polygon class="st81" points="616.6,896 623.1,896 623.1,862 617.6,862 		"/>
	</g>
	<g>
		<defs>
			<rect id="SVGID_145_" x="434" y="406.5" width="708" height="522.1"/>
		</defs>
		<clipPath id="SVGID_146_">
			<use xlink:href="#SVGID_145_"  style="overflow:visible;"/>
		</clipPath>
		<polygon class="st82" points="612.1,876.7 621.4,870.3 608.8,870.7 608.8,876.7 		"/>
	</g>
	<g>
		<defs>
			<rect id="SVGID_147_" x="434" y="406.5" width="708" height="522.1"/>
		</defs>
		<clipPath id="SVGID_148_">
			<use xlink:href="#SVGID_147_"  style="overflow:visible;"/>
		</clipPath>
		<polygon class="st83" points="619.9,896 626.8,896 625.7,862 619.9,862 		"/>
	</g>
	<g>
		<defs>
			<rect id="SVGID_149_" x="434" y="406.5" width="708" height="522.1"/>
		</defs>
		<clipPath id="SVGID_150_">
			<use xlink:href="#SVGID_149_"  style="overflow:visible;"/>
		</clipPath>
		<polygon class="st84" points="634.4,876.2 634.4,871.7 612.1,870.7 612.1,876.7 		"/>
	</g>
	<g>
		<defs>
			<rect id="SVGID_151_" x="434" y="406.5" width="708" height="522.1"/>
		</defs>
		<clipPath id="SVGID_152_">
			<use xlink:href="#SVGID_151_"  style="overflow:visible;"/>
		</clipPath>
		<path class="st85" d="M604.5,923.9v-20.2c0-8.9,7.2-16.1,16.1-16.1h6c8.9,0,16.1,7.2,16.1,16.1v20.2H604.5z"/>
	</g>
	<g>
		<defs>
			<rect id="SVGID_153_" x="434" y="406.5" width="708" height="522.1"/>
		</defs>
		<clipPath id="SVGID_154_">
			<use xlink:href="#SVGID_153_"  style="overflow:visible;"/>
		</clipPath>
		<path class="st86" d="M614.1,903.5c0-5.2,4.2-9.4,9.4-9.4s9.4,4.2,9.4,9.4s-4.2,9.4-9.4,9.4C618.4,912.9,614.1,908.7,614.1,903.5"
			/>
	</g>
	<g>
		<defs>
			<rect id="SVGID_155_" x="434" y="406.5" width="708" height="522.1"/>
		</defs>
		<clipPath id="SVGID_156_">
			<use xlink:href="#SVGID_155_"  style="overflow:visible;"/>
		</clipPath>
		<path class="st87" d="M616.5,897.2c1.5-1.1,3.4-1.7,5.5-1.7c5.2,0,9.4,4.2,9.4,9.4c0,2.4-0.9,4.6-2.4,6.3c2.4-1.7,4-4.5,4-7.7
			c0-5.2-4.2-9.4-9.4-9.4C620.8,894.1,618.3,895.3,616.5,897.2"/>
	</g>
	<g>
		<defs>
			<rect id="SVGID_157_" x="434" y="406.5" width="708" height="522.1"/>
		</defs>
		<clipPath id="SVGID_158_">
			<use xlink:href="#SVGID_157_"  style="overflow:visible;"/>
		</clipPath>
		<rect x="595.2" y="923.9" class="st88" width="39.4" height="4.7"/>
	</g>
	<g>
		<defs>
			<rect id="SVGID_159_" x="434" y="406.5" width="708" height="522.1"/>
		</defs>
		<clipPath id="SVGID_160_">
			<use xlink:href="#SVGID_159_"  style="overflow:visible;"/>
		</clipPath>
		<rect x="601.9" y="923.9" class="st89" width="42.1" height="4.7"/>
	</g>
	<g>
		<defs>
			<rect id="SVGID_161_" x="434" y="406.5" width="708" height="522.1"/>
		</defs>
		<clipPath id="SVGID_162_">
			<use xlink:href="#SVGID_161_"  style="overflow:visible;"/>
		</clipPath>
		<polygon class="st90" points="858.3,719.3 837.8,719.3 849.8,710 870.2,710 		"/>
	</g>
	<g>
		<defs>
			<rect id="SVGID_163_" x="434" y="406.5" width="708" height="522.1"/>
		</defs>
		<clipPath id="SVGID_164_">
			<use xlink:href="#SVGID_163_"  style="overflow:visible;"/>
		</clipPath>
		<polygon class="st91" points="766.7,719.3 746.3,719.3 758.2,710 778.6,710 		"/>
	</g>
	<g>
		<defs>
			<rect id="SVGID_165_" x="434" y="406.5" width="708" height="522.1"/>
		</defs>
		<clipPath id="SVGID_166_">
			<use xlink:href="#SVGID_165_"  style="overflow:visible;"/>
		</clipPath>
		<polygon class="st92" points="882.2,738.8 861.7,738.8 873.6,729.5 894.1,729.5 		"/>
	</g>
	<g>
		<defs>
			<rect id="SVGID_167_" x="434" y="406.5" width="708" height="522.1"/>
		</defs>
		<clipPath id="SVGID_168_">
			<use xlink:href="#SVGID_167_"  style="overflow:visible;"/>
		</clipPath>
		<polygon class="st93" points="809.3,748.2 788.9,748.2 800.8,739 821.2,739 		"/>
	</g>
	<g>
		<defs>
			<rect id="SVGID_169_" x="434" y="406.5" width="708" height="522.1"/>
		</defs>
		<clipPath id="SVGID_170_">
			<use xlink:href="#SVGID_169_"  style="overflow:visible;"/>
		</clipPath>
		<polygon class="st94" points="752.8,748.2 732.3,748.2 744.3,739 764.7,739 		"/>
	</g>
	<g>
		<defs>
			<rect id="SVGID_171_" x="434" y="406.5" width="708" height="522.1"/>
		</defs>
		<clipPath id="SVGID_172_">
			<use xlink:href="#SVGID_171_"  style="overflow:visible;"/>
		</clipPath>
		<polygon class="st95" points="841.7,773.7 821.2,773.7 833.2,764.4 853.6,764.4 		"/>
	</g>
	<g>
		<defs>
			<rect id="SVGID_173_" x="434" y="406.5" width="708" height="522.1"/>
		</defs>
		<clipPath id="SVGID_174_">
			<use xlink:href="#SVGID_173_"  style="overflow:visible;"/>
		</clipPath>
		<polygon class="st96" points="721.6,773.7 701.1,773.7 713,764.4 733.5,764.4 		"/>
	</g>
</g>
<g class="st97">
	<path class="st98" d="M113.7,436.8c2.5,1.6,4.5,3.9,5.9,6.9c1.4,3,2.1,6.4,2.1,10.3c0,3.8-0.7,7.2-2.1,10.1
		c-1.4,2.9-3.3,5.2-5.9,6.8s-5.4,2.4-8.7,2.4c-2.8,0-5.3-0.6-7.5-1.8c-2.2-1.2-3.8-2.9-4.9-5.2v17.1c0,1.1-0.3,1.9-1,2.6
		c-0.7,0.6-1.6,1-2.7,1c-1.2,0-2.1-0.3-2.9-1c-0.7-0.7-1.1-1.6-1.1-2.7v-45c0-1.1,0.4-2,1.1-2.7c0.7-0.7,1.7-1,2.8-1
		c1.1,0,2,0.3,2.8,1c0.7,0.7,1.1,1.6,1.1,2.7v3.2c1.1-2.3,2.8-4,4.9-5.2s4.6-1.8,7.5-1.8C108.3,434.3,111.1,435.1,113.7,436.8z
		 M111,463.7c1.8-2.3,2.8-5.5,2.8-9.7c0-4.3-0.9-7.6-2.8-9.9c-1.9-2.4-4.5-3.5-7.8-3.5c-3.4,0-6,1.2-7.8,3.5
		c-1.8,2.3-2.7,5.6-2.7,9.8c0,4.3,0.9,7.5,2.7,9.8c1.8,2.3,4.4,3.5,7.8,3.5C106.6,467.1,109.2,466,111,463.7z"/>
	<path class="st98" d="M161.4,464.1c0.5,0.6,0.7,1.3,0.7,2.2c0,1.5-0.9,2.7-2.8,3.8c-1.8,1-3.8,1.8-5.9,2.4
		c-2.1,0.6-4.2,0.8-6.1,0.8c-5.9,0-10.6-1.7-14.1-5.2c-3.4-3.5-5.1-8.2-5.1-14.2c0-3.8,0.8-7.2,2.3-10.2c1.5-3,3.6-5.3,6.4-6.9
		c2.7-1.6,5.9-2.5,9.3-2.5c5,0,9,1.6,11.9,4.8c2.9,3.2,4.4,7.6,4.4,13.1c0,2-0.9,3.1-2.8,3.1h-23.7c0.5,7.9,4.3,11.9,11.4,11.9
		c1.9,0,3.5-0.3,4.9-0.8c1.4-0.5,2.8-1.2,4.4-2c0.2-0.1,0.6-0.3,1.3-0.7s1.3-0.5,1.7-0.5C160.4,463.3,161,463.6,161.4,464.1z
		 M139.1,442.9c-1.8,1.9-2.9,4.6-3.2,8h19.8c-0.2-3.5-1-6.2-2.7-8c-1.6-1.9-3.9-2.8-6.8-2.8C143.3,440,140.9,441,139.1,442.9z"/>
	<path class="st98" d="M177.5,470.9c-2.8-1.6-4.9-3.9-6.5-6.8c-1.5-2.9-2.3-6.4-2.3-10.3c0-3.9,0.8-7.4,2.3-10.3
		c1.5-2.9,3.7-5.2,6.5-6.8c2.8-1.6,6-2.4,9.7-2.4c3.7,0,6.9,0.8,9.7,2.4c2.8,1.6,4.9,3.9,6.5,6.8c1.5,2.9,2.3,6.4,2.3,10.3
		c0,3.9-0.8,7.3-2.3,10.3c-1.5,2.9-3.7,5.2-6.5,6.8c-2.8,1.6-6,2.4-9.7,2.4C183.6,473.3,180.3,472.5,177.5,470.9z M195.1,463.8
		c1.8-2.3,2.7-5.6,2.7-9.9c0-4.3-0.9-7.6-2.8-9.9c-1.8-2.3-4.5-3.4-7.8-3.4s-6,1.1-7.8,3.4c-1.8,2.3-2.8,5.6-2.8,9.9
		c0,4.4,0.9,7.7,2.7,9.9c1.8,2.3,4.4,3.4,7.9,3.4C190.7,467.1,193.3,466,195.1,463.8z"/>
	<path class="st98" d="M243.1,436.8c2.5,1.6,4.5,3.9,5.9,6.9c1.4,3,2.1,6.4,2.1,10.3c0,3.8-0.7,7.2-2.1,10.1
		c-1.4,2.9-3.3,5.2-5.9,6.8c-2.5,1.6-5.4,2.4-8.7,2.4c-2.8,0-5.3-0.6-7.5-1.8c-2.2-1.2-3.8-2.9-4.9-5.2v17.1c0,1.1-0.3,1.9-1,2.6
		s-1.6,1-2.7,1c-1.2,0-2.1-0.3-2.9-1c-0.7-0.7-1.1-1.6-1.1-2.7v-45c0-1.1,0.4-2,1.1-2.7c0.7-0.7,1.7-1,2.8-1c1.1,0,2,0.3,2.8,1
		c0.7,0.7,1.1,1.6,1.1,2.7v3.2c1.1-2.3,2.8-4,4.9-5.2s4.6-1.8,7.5-1.8C237.6,434.3,240.5,435.1,243.1,436.8z M240.4,463.7
		c1.8-2.3,2.8-5.5,2.8-9.7c0-4.3-0.9-7.6-2.8-9.9c-1.9-2.4-4.5-3.5-7.8-3.5c-3.4,0-6,1.2-7.8,3.5c-1.8,2.3-2.7,5.6-2.7,9.8
		c0,4.3,0.9,7.5,2.7,9.8c1.8,2.3,4.4,3.5,7.8,3.5S238.6,466,240.4,463.7z"/>
	<path class="st98" d="M260.8,472.2c-0.7-0.6-1.1-1.5-1.1-2.8V422c0-1.2,0.4-2.2,1.1-2.8c0.7-0.6,1.7-1,2.8-1s2,0.3,2.8,1
		c0.7,0.6,1.1,1.6,1.1,2.8v47.5c0,1.2-0.4,2.2-1.1,2.8c-0.7,0.6-1.6,0.9-2.8,0.9S261.6,472.8,260.8,472.2z"/>
	<path class="st98" d="M309.4,464.1c0.5,0.6,0.7,1.3,0.7,2.2c0,1.5-0.9,2.7-2.8,3.8c-1.8,1-3.8,1.8-5.9,2.4
		c-2.1,0.6-4.2,0.8-6.1,0.8c-5.9,0-10.6-1.7-14.1-5.2c-3.4-3.5-5.1-8.2-5.1-14.2c0-3.8,0.8-7.2,2.3-10.2c1.5-3,3.6-5.3,6.4-6.9
		c2.7-1.6,5.9-2.5,9.3-2.5c5,0,9,1.6,11.9,4.8c2.9,3.2,4.4,7.6,4.4,13.1c0,2-0.9,3.1-2.8,3.1h-23.7c0.5,7.9,4.3,11.9,11.4,11.9
		c1.9,0,3.5-0.3,4.9-0.8c1.4-0.5,2.8-1.2,4.4-2c0.2-0.1,0.6-0.3,1.3-0.7c0.7-0.3,1.3-0.5,1.7-0.5
		C308.4,463.3,308.9,463.6,309.4,464.1z M287.1,442.9c-1.8,1.9-2.9,4.6-3.2,8h19.8c-0.2-3.5-1-6.2-2.7-8c-1.6-1.9-3.9-2.8-6.8-2.8
		C291.3,440,288.9,441,287.1,442.9z"/>
	<path class="st98" d="M345.7,470.9c-2.7-1.6-4.9-3.8-6.4-6.8c-1.5-2.9-2.3-6.3-2.3-10.1c0-3.9,0.8-7.3,2.3-10.3s3.8-5.3,6.6-6.9
		c2.8-1.6,6-2.5,9.7-2.5c1.9,0,3.9,0.3,5.9,0.8c2,0.6,3.7,1.3,5.3,2.3c1.6,1.1,2.5,2.4,2.5,3.9c0,0.9-0.2,1.6-0.7,2.2
		s-1.1,0.9-1.8,0.9c-0.5,0-0.9-0.1-1.4-0.3s-1.1-0.6-1.8-1c-1.3-0.8-2.5-1.4-3.6-1.9c-1.1-0.4-2.4-0.7-4-0.7c-3.5,0-6.2,1.2-8.1,3.5
		c-1.9,2.4-2.9,5.6-2.9,9.8c0,4.2,0.9,7.4,2.8,9.7c1.9,2.3,4.6,3.4,8.1,3.4c1.5,0,2.9-0.2,4.1-0.7c1.2-0.5,2.4-1.1,3.6-1.8
		c0.6-0.4,1.1-0.7,1.7-0.9c0.6-0.3,1.1-0.4,1.5-0.4c0.7,0,1.3,0.3,1.8,0.9c0.5,0.6,0.7,1.3,0.7,2.2c0,0.7-0.2,1.4-0.6,2
		c-0.4,0.6-1,1.2-2,1.8c-1.5,1-3.3,1.8-5.4,2.4c-2,0.6-4.1,0.8-6.2,0.8C351.6,473.3,348.5,472.5,345.7,470.9z"/>
	<path class="st98" d="M403.2,438.1c2.4,2.5,3.6,6.3,3.6,11.4v19.9c0,1.2-0.3,2.1-1,2.7c-0.7,0.6-1.6,1-2.8,1c-1.1,0-2-0.3-2.7-1
		c-0.7-0.7-1-1.6-1-2.7v-2.8c-1,2.2-2.4,3.8-4.3,5c-1.9,1.2-4.2,1.7-6.7,1.7c-2.5,0-4.7-0.5-6.7-1.5c-2-1-3.6-2.4-4.8-4.1
		c-1.2-1.7-1.8-3.7-1.8-5.9c-0.1-2.8,0.6-4.9,2.1-6.5c1.4-1.6,3.8-2.7,7-3.4c3.2-0.7,7.7-1,13.4-1h1.8v-2.2c0-2.9-0.6-4.9-1.8-6.2
		c-1.2-1.3-3.1-1.9-5.7-1.9c-1.8,0-3.5,0.2-5.1,0.7s-3.3,1.1-5.2,2c-1.4,0.8-2.4,1.2-2.9,1.2c-0.8,0-1.4-0.3-1.9-0.8
		c-0.5-0.6-0.7-1.3-0.7-2.2c0-0.8,0.2-1.4,0.7-2c0.4-0.6,1.1-1.2,2.1-1.7c1.8-1,3.9-1.8,6.3-2.3c2.4-0.6,4.7-0.9,7-0.9
		C397.1,434.3,400.8,435.6,403.2,438.1z M396.6,464.6c1.8-1.9,2.7-4.4,2.7-7.4v-2h-1.4c-4,0-7.1,0.2-9.2,0.5c-2.2,0.4-3.7,1-4.6,1.8
		c-0.9,0.8-1.4,2.1-1.4,3.7c0,1.8,0.7,3.4,2,4.5c1.3,1.2,3,1.8,5,1.8C392.5,467.5,394.8,466.6,396.6,464.6z"/>
	<path class="st98" d="M451.1,449.5v20c0,1.2-0.3,2.1-1,2.7s-1.7,1-2.9,1c-1.2,0-2.1-0.3-2.8-1c-0.7-0.7-1-1.6-1-2.7v-19.6
		c0-3.2-0.6-5.5-1.9-7c-1.3-1.5-3.2-2.2-5.9-2.2c-3.1,0-5.6,1-7.5,2.9c-1.9,1.9-2.8,4.6-2.8,7.8v18.1c0,1.1-0.3,2-1,2.7
		c-0.7,0.7-1.6,1-2.8,1c-1.2,0-2.1-0.3-2.8-1c-0.7-0.7-1.1-1.6-1.1-2.7v-31.3c0-1.1,0.4-2,1.1-2.7c0.7-0.7,1.7-1,2.8-1s2,0.3,2.7,1
		c0.7,0.7,1,1.5,1,2.6v3.2c1.2-2.3,2.9-4,5.1-5.1c2.2-1.2,4.7-1.8,7.5-1.8C446.6,434.3,451.1,439.4,451.1,449.5z"/>
	<path class="st98" d="M515.8,435.5c0.7,0.7,1,1.6,1,2.7v31.5c0,5.7-1.5,10.1-4.6,13c-3,2.9-7.5,4.4-13.5,4.4
		c-5.5,0-10.1-1-13.8-3.2c-1.9-1.1-2.8-2.4-2.8-3.8c0-0.9,0.2-1.6,0.7-2.2c0.5-0.6,1.1-0.8,1.8-0.8c0.7,0,1.7,0.4,3.1,1.2
		c1.8,0.9,3.6,1.5,5.1,2c1.6,0.5,3.5,0.7,5.7,0.7c7.1,0,10.6-3.6,10.6-10.7v-5.9c-1.1,2.3-2.7,4-4.9,5.3c-2.2,1.3-4.8,1.9-7.7,1.9
		c-3.3,0-6.2-0.8-8.8-2.3c-2.6-1.5-4.5-3.7-6-6.5c-1.4-2.8-2.1-6.1-2.1-9.8s0.7-6.9,2.2-9.8c1.4-2.8,3.4-5,6-6.6
		c2.5-1.6,5.4-2.3,8.7-2.3c2.9,0,5.4,0.6,7.6,1.8c2.2,1.2,3.8,3,5,5.2v-3.2c0-1.1,0.3-2,1-2.7c0.7-0.7,1.6-1,2.8-1
		C514.2,434.5,515.1,434.8,515.8,435.5z M506.3,462.1c1.9-2.2,2.8-5.2,2.8-9.1c0-3.8-0.9-6.9-2.8-9.1c-1.9-2.2-4.5-3.3-7.9-3.3
		s-6,1.1-8,3.3c-1.9,2.2-2.9,5.3-2.9,9.1c0,3.9,1,6.9,2.9,9.1c1.9,2.2,4.6,3.3,7.9,3.3C501.8,465.4,504.4,464.3,506.3,462.1z"/>
	<path class="st98" d="M554.6,438.1c2.4,2.5,3.6,6.3,3.6,11.4v19.9c0,1.2-0.3,2.1-1,2.7c-0.7,0.6-1.6,1-2.8,1c-1.1,0-2-0.3-2.7-1
		c-0.7-0.7-1-1.6-1-2.7v-2.8c-1,2.2-2.4,3.8-4.3,5c-1.9,1.2-4.2,1.7-6.7,1.7c-2.5,0-4.7-0.5-6.7-1.5c-2-1-3.6-2.4-4.8-4.1
		c-1.2-1.7-1.8-3.7-1.8-5.9c-0.1-2.8,0.6-4.9,2.1-6.5c1.4-1.6,3.8-2.7,7-3.4c3.2-0.7,7.7-1,13.4-1h1.8v-2.2c0-2.9-0.6-4.9-1.8-6.2
		c-1.2-1.3-3.1-1.9-5.7-1.9c-1.8,0-3.5,0.2-5.1,0.7s-3.3,1.1-5.2,2c-1.4,0.8-2.4,1.2-2.9,1.2c-0.8,0-1.4-0.3-1.9-0.8
		c-0.5-0.6-0.7-1.3-0.7-2.2c0-0.8,0.2-1.4,0.7-2c0.4-0.6,1.1-1.2,2.1-1.7c1.8-1,3.9-1.8,6.3-2.3c2.4-0.6,4.7-0.9,7-0.9
		C548.4,434.3,552.1,435.6,554.6,438.1z M548,464.6c1.8-1.9,2.7-4.4,2.7-7.4v-2h-1.4c-4,0-7.1,0.2-9.2,0.5c-2.2,0.4-3.7,1-4.6,1.8
		c-0.9,0.8-1.4,2.1-1.4,3.7c0,1.8,0.7,3.4,2,4.5c1.3,1.2,3,1.8,5,1.8C543.9,467.5,546.2,466.6,548,464.6z"/>
	<path class="st98" d="M589.6,468.1c0.5,0.5,0.7,1.2,0.7,2c0,1-0.4,1.8-1.2,2.3c-0.8,0.5-2,0.8-3.5,0.7l-2.1-0.2
		c-4.1-0.3-7.2-1.6-9.3-3.8c-2-2.2-3.1-5.5-3.1-9.9v-18.1h-4.6c-2.3,0-3.4-1-3.4-3c0-0.9,0.3-1.7,0.9-2.2c0.6-0.5,1.4-0.8,2.5-0.8
		h4.6v-7.9c0-1.2,0.3-2.1,1-2.8c0.7-0.7,1.6-1,2.8-1c1.2,0,2.1,0.3,2.8,1c0.7,0.7,1.1,1.6,1.1,2.8v7.9h7.6c1.1,0,1.9,0.3,2.5,0.8
		s0.9,1.3,0.9,2.2c0,1-0.3,1.7-0.9,2.2c-0.6,0.5-1.4,0.8-2.5,0.8h-7.6v18.6c0,2.4,0.5,4.2,1.5,5.3s2.5,1.8,4.6,1.9l2.2,0.2
		C588.3,467.3,589.1,467.6,589.6,468.1z"/>
	<path class="st98" d="M629.6,449.5v20c0,1.1-0.4,2-1.1,2.7c-0.7,0.7-1.7,1-2.8,1c-1.2,0-2.1-0.3-2.8-1c-0.7-0.7-1-1.6-1-2.7v-19.9
		c0-3.1-0.6-5.3-1.9-6.8c-1.3-1.4-3.2-2.2-5.9-2.2c-3.1,0-5.6,1-7.5,2.9c-1.9,1.9-2.8,4.6-2.8,7.8v18.1c0,1.1-0.3,2-1,2.7
		c-0.7,0.7-1.6,1-2.8,1c-1.2,0-2.1-0.3-2.8-1c-0.7-0.7-1.1-1.6-1.1-2.7v-47.6c0-1.1,0.4-2,1.1-2.7c0.7-0.7,1.7-1,2.9-1
		c1.1,0,2,0.3,2.7,1c0.7,0.6,1,1.5,1,2.6v19.2c1.3-2.2,3-3.8,5.1-4.9c2.2-1.1,4.6-1.7,7.4-1.7C625.1,434.3,629.6,439.4,629.6,449.5z
		"/>
	<path class="st98" d="M671.3,464.1c0.5,0.6,0.7,1.3,0.7,2.2c0,1.5-0.9,2.7-2.8,3.8c-1.8,1-3.8,1.8-5.9,2.4
		c-2.1,0.6-4.2,0.8-6.1,0.8c-5.9,0-10.6-1.7-14.1-5.2c-3.4-3.5-5.1-8.2-5.1-14.2c0-3.8,0.8-7.2,2.3-10.2c1.5-3,3.6-5.3,6.4-6.9
		c2.7-1.6,5.9-2.5,9.3-2.5c5,0,9,1.6,11.9,4.8c2.9,3.2,4.4,7.6,4.4,13.1c0,2-0.9,3.1-2.8,3.1h-23.7c0.5,7.9,4.3,11.9,11.4,11.9
		c1.9,0,3.5-0.3,4.9-0.8c1.4-0.5,2.8-1.2,4.4-2c0.2-0.1,0.6-0.3,1.3-0.7c0.7-0.3,1.3-0.5,1.7-0.5
		C670.3,463.3,670.8,463.6,671.3,464.1z M649,442.9c-1.8,1.9-2.9,4.6-3.2,8h19.8c-0.2-3.5-1-6.2-2.7-8c-1.6-1.9-3.9-2.8-6.8-2.8
		C653.2,440,650.8,441,649,442.9z"/>
	<path class="st98" d="M704.2,437.6c0,1.1-0.3,2-0.8,2.5c-0.6,0.6-1.5,0.9-2.9,1l-2.3,0.2c-3.2,0.3-5.6,1.4-7.2,3.4
		c-1.6,1.9-2.3,4.3-2.3,7.1v17.6c0,1.2-0.4,2.2-1.1,2.8c-0.7,0.6-1.6,0.9-2.8,0.9s-2.1-0.3-2.8-0.9c-0.7-0.6-1.1-1.5-1.1-2.8v-31.3
		c0-1.2,0.4-2.1,1.1-2.7c0.7-0.6,1.7-1,2.8-1c1,0,1.9,0.3,2.6,1c0.7,0.6,1,1.5,1,2.7v3.7c1-2.3,2.5-4,4.5-5.1
		c1.9-1.2,4.1-1.9,6.6-2.1l1.1-0.1C703,434.3,704.2,435.4,704.2,437.6z"/>
</g>
<g class="st97">
	<path class="st98" d="M741.2,426.9c-1.2,1.4-1.8,3.5-1.8,6.2v2.2h7.6c1.1,0,1.9,0.3,2.5,0.8c0.6,0.5,0.9,1.3,0.9,2.2
		s-0.3,1.7-0.9,2.2c-0.6,0.5-1.4,0.8-2.5,0.8h-7.6v28.1c0,1.2-0.4,2.2-1.1,2.8c-0.7,0.6-1.7,1-2.8,1c-1.1,0-2-0.3-2.8-1
		c-0.7-0.6-1.1-1.6-1.1-2.8v-28.1H727c-1.1,0-1.9-0.3-2.5-0.8c-0.6-0.5-0.9-1.3-0.9-2.2s0.3-1.7,0.9-2.2c0.6-0.5,1.4-0.8,2.5-0.8
		h4.6v-1c0-4.7,1.2-8.4,3.6-11.1c2.4-2.7,5.8-4.2,10.2-4.5l2-0.2c1.6-0.1,2.8,0.1,3.6,0.5c0.7,0.5,1.1,1.2,1.1,2.2
		c0,1.8-1.1,2.8-3.2,3.1l-2,0.2C744.3,424.7,742.4,425.5,741.2,426.9z"/>
</g>
<g class="st97">
	<path class="st98" d="M761.7,470.9c-2.8-1.6-4.9-3.9-6.5-6.8c-1.5-2.9-2.3-6.4-2.3-10.3c0-3.9,0.8-7.4,2.3-10.3
		c1.5-2.9,3.7-5.2,6.5-6.8c2.8-1.6,6-2.4,9.7-2.4c3.7,0,6.9,0.8,9.7,2.4s4.9,3.9,6.5,6.8c1.5,2.9,2.3,6.4,2.3,10.3
		c0,3.9-0.8,7.3-2.3,10.3c-1.5,2.9-3.7,5.2-6.5,6.8s-6,2.4-9.7,2.4C767.7,473.3,764.5,472.5,761.7,470.9z M779.3,463.8
		c1.8-2.3,2.7-5.6,2.7-9.9c0-4.3-0.9-7.6-2.8-9.9c-1.8-2.3-4.5-3.4-7.8-3.4s-6,1.1-7.8,3.4c-1.8,2.3-2.8,5.6-2.8,9.9
		c0,4.4,0.9,7.7,2.7,9.9c1.8,2.3,4.4,3.4,7.9,3.4C774.8,467.1,777.4,466,779.3,463.8z"/>
	<path class="st98" d="M821.8,437.6c0,1.1-0.3,2-0.8,2.5c-0.6,0.6-1.5,0.9-2.9,1l-2.3,0.2c-3.2,0.3-5.6,1.4-7.2,3.4
		c-1.6,1.9-2.3,4.3-2.3,7.1v17.6c0,1.2-0.4,2.2-1.1,2.8c-0.7,0.6-1.6,0.9-2.8,0.9c-1.1,0-2.1-0.3-2.8-0.9c-0.7-0.6-1.1-1.5-1.1-2.8
		v-31.3c0-1.2,0.4-2.1,1.1-2.7c0.7-0.6,1.7-1,2.8-1c1,0,1.9,0.3,2.6,1c0.7,0.6,1,1.5,1,2.7v3.7c1-2.3,2.5-4,4.5-5.1
		c1.9-1.2,4.1-1.9,6.6-2.1l1.1-0.1C820.6,434.3,821.8,435.4,821.8,437.6z"/>
</g>
<g class="st97">
	<path class="st99" d="M113.9,528.2l0,2.3c0,2.2,0,4.2-0.1,6c-1.9,0.2-4.5,0.2-7.8,0.2l-5.6,0v0.7l0,2.1c0,0.6,0,1.1,0.1,1.7
		c4.1-0.3,7.1-0.5,9-0.5c2,0,3.2,0.1,3.6,0.4v8.2c0,0.5-0.1,0.9-0.3,1.1c-0.2,0.2-0.5,0.3-1,0.3h-0.3l-1.3,0
		c-2.9,0.2-6.1,0.3-9.7,0.4l0.2,9.7l0,0.8v2.3c0,0.5-0.1,0.7-0.4,0.8l-14,0.1c0-0.1-0.2-0.3-0.4-0.7c-0.1-1.1-0.1-2-0.1-2.7l0.1-34
		c0-0.2,1.1-0.3,3.3-0.3l0.6,0h1.7l11.8-0.1l8.4,0.1h0.8l0.4,0c0.5,0,0.8,0.1,0.9,0.3C113.8,527.6,113.9,527.8,113.9,528.2z"/>
	<path class="st99" d="M151.5,545l-0.1,6.9c0,2.1-0.3,4-1,5.6c-0.7,1.6-1.6,2.9-2.7,3.9c-3,2.7-7.5,4.1-13.4,4.1s-10.5-1.4-13.8-4.3
		c-1.2-1-2.1-2.3-2.9-3.9c-0.8-1.6-1.3-3.4-1.4-5.4c0.1-6.8,0.1-13.1,0.1-18.9c-0.1,0-0.1-0.9-0.1-2.6s0.1-2.8,0.2-3.2h0.5
		c2.4-0.1,5.7-0.2,9.8-0.2c0.3,0.1,0.8,0.1,1.6,0.1c0.8,0,1.3,0,1.6,0.1l0.8,0.1c0.1,3.2,0.2,7.7,0.2,13.3l-0.1,9.8
		c0,3.3,0.9,4.9,2.8,4.9c0.8,0,1.5-0.3,2-1c0.5-0.7,0.8-1.5,0.9-2.4l0.1-0.2l0.1-8.2l0-0.7c0-3.8,0-7.4-0.1-10.9l0-1.8
		c0-0.7,0-1.4,0-1.9s0.1-1,0.3-1.2c6.3,0,11,0,14.2,0.1c0.1,0.1,0.3,0.2,0.4,0.3h0l0.3,0.2c-0.1,3.1-0.2,7-0.2,11.9v4.2L151.5,545z"
		/>
	<path class="st99" d="M193,546.9l0,1.6v9l0,4.3v1.2l0,1.1c-0.1,0.1-0.5,0.2-1.2,0.2h-0.6l-7.7,0.1c-3.3,0-5.7,0-7.3,0
		c-0.2-0.3-1.1-2.6-2.7-7.1l-4.7-12.4l-0.9,0.1l0,2.5v6.6l0.1,6.6v2.7c0,0.7-0.2,1.1-0.5,1.1c-1.6,0-3.2-0.1-4.6-0.1h-0.8l-3.7,0.1
		h-0.5l-1.8,0l-0.1,0c-0.5-0.5-0.8-0.9-0.8-1.1v-0.4l0-0.5l0.1-9.5c0-10.5,0.1-18.4,0.3-23.7l0-2c0-0.1,5.6-0.3,16.8-0.4
		c0.1,0.1,0.2,0.4,0.4,1.1v-0.1l0.1,0.5c1.2,3.5,2.7,7.4,4.4,11.9c1.7,4.5,2.6,6.8,2.6,6.9l0.8,0l0.1-19.9c0-0.1,1.2-0.2,3.6-0.2
		l6.1,0.1h1.8C192.9,532.6,193,539.2,193,546.9z"/>
	<path class="st99" d="M198.2,533.7l-0.1-6.4c0,0,0.1,0,0.2,0.1c12.4-0.2,21.7-0.3,28-0.3c0.1,0,0.1,0.1,0.1,0.1v6.9
		c0,0.7,0,1.2,0,1.6c-0.1,0.3-0.6,0.4-1.4,0.4h-0.2c-3.9,0-8-0.1-12.3-0.2c0,0.1,0,0.4-0.1,0.8c0,0.4-0.1,0.6-0.1,0.8l-0.1,0.9
		c-0.1,0.6-0.1,1.7-0.2,3.2l7.6-0.2c1.3,0,2.2,0,2.8,0h0.4c1,0,1.6,0,2,0.1c0.3,0.1,0.5,0.2,0.5,0.5l0,0.2v0.6l0.1,6.3l0,0v0
		c-5,0.2-8.9,0.4-11.9,0.4h-1.1v5.9l13.3-0.4c0.7,0,1.2,0.1,1.4,0.3c0,0.4,0,1,0,1.8l0.2,6.6c0,0.4-0.2,0.6-0.5,0.7l-8.1-0.1
		c-1.6,0-4.8,0.1-9.5,0.2l-4,0.1c-2.8,0.1-4.9,0.1-6.3,0.1l-0.1,0h0c-0.2-0.2-0.3-0.3-0.5-0.5v-0.9l0.1-26.1L198.2,533.7z"/>
	<path class="st99" d="M241,527.2l7.8-0.1c1.7,0,3.2,0,4.5,0.1c3.6,0.1,6.4,1,8.3,2.6c1.9,1.6,2.8,3.9,2.8,6.8c0,2-0.6,3.8-1.8,5.2
		c-1.2,1.4-2.9,2.7-5.2,3.8c3.6,1.1,5.8,3.9,6.6,8.3c0.2,1,0.3,2.1,0.4,3.3s0.2,2.1,0.3,2.5l0.2,1.2c0.3,1.5,0.5,2.5,0.7,3.2
		l-0.1,0.1c-2.8,0.2-5.3,0.3-7.6,0.3c-2.3,0-4.3,0-6.1-0.1h-0.1c-0.5,0-1-2.4-1.6-7.2l-0.1-1c-0.1-1.8-0.4-3-0.9-3.6
		c-0.6-0.6-1.5-0.9-2.9-0.9l-0.3,0h-1.3v7.4l0,0.8v4.5c0,0.2-0.2,0.3-0.4,0.3c-1.8,0.1-4.3,0.1-7.6,0.1s-5.4,0-6.5,0l-0.1,0l0,0
		c0,0-0.1,0-0.1-0.1l0-2.2l0-0.7l0.1-10.1v-1.8l0-1.8l0-6.3l0-0.8l-0.1-5.5l0.1-7.8c0-0.1,0.5-0.2,1.4-0.2l1.6,0h1.5l3.1,0
		L241,527.2z M250,535.2c-1-0.4-2.3-0.6-3.9-0.6h-1.4c-0.2,0.3-0.3,1.6-0.3,4.1s0,4.1,0.1,5c5.1-0.1,7.6-1.9,7.6-5.3
		C252.2,536.9,251.4,535.9,250,535.2z M265.7,564.2L265.7,564.2C265.7,564.2,265.6,564.2,265.7,564.2L265.7,564.2z M265.8,564.1
		l-0.1,0.1v0C265.7,564.1,265.7,564.1,265.8,564.1z"/>
	<path class="st99" d="M306.9,564.2c0,0.2-0.5,0.3-1.3,0.3h-2.2l-1.5,0h-1.5l-2.4,0c-2.4,0-4.3-0.1-5.9-0.2c0,0-0.1-0.1-0.2-0.3
		l-0.1-0.5c-0.1-1.7-0.5-3.3-1.1-4.9l-10.5,0.1c-0.1,0.3-0.3,1.1-0.6,2.5c-0.4,1.4-0.6,2.4-0.8,3.1c-0.2,0.2-0.9,0.2-2.3,0.2l-0.6,0
		h-1.4l-6.4,0.1h-0.7l-0.7,0h-1.7c-0.1-0.1-0.2-0.3-0.4-0.4c1.6-5.6,3.8-12.6,6.6-21l0.6-1.7h0l0.7-2c0.2-0.7,0.8-2.5,1.8-5.4
		c1-3,1.6-4.9,1.9-5.7c0.3-0.9,0.4-1.3,0.5-1.3h4.1l8.7-0.1l2.3,0.1l1.9-0.1c1,0,1.5,0.2,1.5,0.6c1.6,4.5,3.8,11.1,6.5,19.6
		c2.7,8.5,4.2,13.3,4.6,14.4l0.3,1.2C306.5,563.3,306.7,563.7,306.9,564.2z M282.7,550.9l1,0l5.8,0c-0.2-1.9-0.4-3.4-0.6-4.3
		l-0.9-4.2c-1-4.3-1.5-6.5-1.5-6.6c0-0.1-0.1-0.2-0.1-0.2c0-0.1,0-0.1-0.1-0.1c0,0,0-0.1-0.1-0.1s0-0.1-0.1-0.1s-0.1-0.1-0.1-0.1
		c-0.1-0.2-0.4-0.4-0.7-0.5c-0.4,0.1-1.8,5-3.9,14.7l-0.3,1.6H282.7z"/>
	<path class="st99" d="M336.5,554.6c-0.1,0.5-0.2,0.9-0.2,1.5v0.6c0,0.9,0.1,1.5,0.2,1.9c0,2.5,0,4.4,0,5.7
		c-0.1,0.4-8.1,0.6-24.1,0.6c-0.7,0-1.9,0-3.6,0c-0.3-0.5-0.4-1.3-0.4-2.4l0-1.6v-5.5l0-4.6V546l0-7.4c0-1.4,0-2.7,0-3.9v-0.3
		l-0.1-3.5c0-2.1,0.2-3.4,0.5-4c0.3,0,0.8,0,1.3,0h1.2l4.1,0c4.7,0,7.2,0.3,7.7,0.9l-0.2,8.5l-0.1,7.2l0,0.3l-0.1,10.2l1,0.6
		c2.9-0.2,5.8-0.3,8.6-0.3S336.4,554.3,336.5,554.6z"/>
	<path class="st99" d="M337.9,553.9l12.9-0.2c0.3,0,0.6,0.3,0.8,0.8s0.4,1,0.6,1.3c0.5,0.8,1.3,1.2,2.5,1.2s2.1-0.3,2.8-0.8
		c0.7-0.5,1.1-1.2,1.1-2.1s-0.2-1.5-0.7-1.8c-0.4-0.3-0.9-0.6-1.4-0.9c-0.5-0.3-1.3-0.5-2.3-0.7c-1-0.2-1.6-0.3-1.7-0.3h0l-1.4-0.4
		c-0.9-0.2-1.6-0.3-2.2-0.5c-3.9-1-6.7-2.4-8.4-3.9c-1.7-1.6-2.6-3.7-2.6-6.4c0-1.9,0.4-3.7,1.1-5.2c0.7-1.5,1.7-2.8,2.8-3.8
		c3.3-2.8,7.9-4.2,13.8-4.2c4.7,0,8.3,0.8,11,2.5h0c1.7,1.2,2.9,2.5,3.5,3.7c0.6,1.2,1,2.7,1.2,4.4l-0.6,0.6
		c-4.3,0.2-8.1,0.2-11.4,0.2c-1,0-1.6-0.3-1.8-0.9c-0.1-0.2-0.2-0.5-0.3-0.7c-0.2-0.6-1-0.9-2.2-0.9H355c-1,0-1.8,0.2-2.5,0.7
		c-0.7,0.4-1,0.9-1,1.3c0,0.4,0.1,0.8,0.3,1c0.2,0.3,0.4,0.5,0.6,0.7c0.2,0.2,0.5,0.3,1,0.5s0.8,0.3,1,0.3c0.2,0.1,0.6,0.2,1,0.3
		l0.9,0.2c0.3,0.1,1.3,0.3,3,0.7s3,0.8,4.1,1.1v0c3.5,1.2,5.8,2.6,7.1,4.4s1.9,3.8,1.9,6.1c0,6.2-3.7,10.2-11.1,12.1
		c-2.1,0.5-4.4,0.9-6.9,1.1c-3,0-6-0.4-8.9-1.3s-4.9-2.3-5.9-4.3c-0.7-1-1.1-1.8-1.3-2.6c-0.2-0.8-0.4-1.9-0.6-3.4
		C337.7,553.9,337.8,553.9,337.9,553.9z"/>
</g>
<g class="st97">
	<path class="st99" d="M425.5,544.6l3.9,0.1h0c1.1,0,1.8,0,2.3,0c0.1,0.1,0.2,0.2,0.3,0.5l-0.1,0.9c-0.2,1.9-0.7,3.7-1.5,5.6
		c-0.8,1.9-2,3.5-3.4,5l4.8,4.9c0.5,0.5,0.8,0.9,1.1,1.3l0.5,0.5c0.6,0.5,0.8,0.9,0.9,1.2c0,0.3-0.5,0.4-1.5,0.4l-1.1,0h-6.3
		c-1.9,0-3.6,0-5.2-0.1c-0.5-0.3-1-0.7-1.4-1.1l-1-0.8l-1.3,0.7c-3.5,1.3-6.4,2-8.7,2.2l-2.2,0.1c-3.2,0-6.1-0.5-8.7-1.4
		s-4.6-2.2-6-3.9c-1.4-1.6-2.1-3.5-2.1-5.5c0-4.8,3.3-8.4,9.8-10.8c-1.7-1.1-3.2-2.5-4.3-4.1c-1.1-1.6-1.7-3-1.7-4.4
		c0-2.5,0.8-4.6,2.5-6.1c1-0.9,2.6-1.8,4.8-2.5c2.2-0.7,4.5-1,7.1-1c5.5,0,9.6,0.9,12.3,2.8c2.1,1.4,3.1,3.4,3.1,6
		c0,1.9-0.6,3.6-1.9,5.1s-3.1,3.2-5.6,5c0.9,0.9,1.5,1.5,2,1.9v0l2.6,2.5c0.9-1.2,1.4-2.2,1.4-3c0.1-0.8,0.2-1.3,0.6-1.5
		C421.8,544.7,423.2,544.6,425.5,544.6z M413,557.1c-0.7-0.6-1.2-1.1-1.6-1.5c-0.4-0.5-0.6-0.7-0.7-0.8l-3.7-3.5
		c-0.2,0-0.4-0.1-0.5-0.3c-0.1-0.2-0.4-0.6-1-1.1c-0.5-0.5-1-0.8-1.5-0.8c-0.9,0.4-1.7,1.2-2.4,2.2s-1.1,2.1-1.1,3.1
		c0,1,0.3,1.9,1,2.7c1.2,1.4,2.8,2.1,4.8,2.1C408.3,559,410.5,558.4,413,557.1z M406.9,540.1L406.9,540.1c0.2,0.1,0.4,0.2,0.6,0.2
		s0.4,0,0.6-0.1c1.8-1.4,3-2.6,3.4-3.6c0.2-0.5,0.3-1.1,0.3-1.8c0-0.7-0.3-1.3-0.8-1.9c-0.9-0.9-2.1-1.4-3.5-1.4s-2.6,0.3-3.4,1
		c-0.9,0.7-1.3,1.6-1.3,2.8C403,537,404.3,538.6,406.9,540.1z"/>
</g>
<g class="st97">
	<path class="st99" d="M479,536.2c0,0.5-0.1,0.8-0.2,0.8L470,537c0,1.6,0,4,0,7.4s0,5.7,0,7l0.1,12.9c-0.1,0.2-0.2,0.3-0.5,0.4
		l-5.2-0.1l0,0l-1.6,0h-4.5c-1.2,0-2.1,0-2.7,0l-0.4-0.4c0,0-0.1-0.1-0.3-0.4c0-1.4,0.1-4.6,0.2-9.5l0.3-13l0-0.6
		c-0.1-1.6-0.2-2.6-0.3-2.9c-0.1-0.3-0.3-0.5-0.6-0.5c-0.3,0-0.5,0-0.7,0l-1,0l-6.1-0.1c-0.2-0.4-0.3-1.4-0.3-2.9l0-2.1v-0.7
		c0-2.6,0-4-0.1-4.2c0,0,0.1,0,0.2,0l31.1-0.3c0.6,0,1,0,1.2,0.1c0.2,0.1,0.2,0.3,0.2,0.5v6.4L479,536.2z"/>
</g>
<g class="st97">
	<path class="st99" d="M517.2,564.2c0,0.2-0.5,0.3-1.3,0.3h-2.2l-1.5,0h-1.5l-2.4,0c-2.4,0-4.3-0.1-5.9-0.2c0,0-0.1-0.1-0.2-0.3
		l-0.1-0.5c-0.1-1.7-0.5-3.3-1.1-4.9l-10.5,0.1c-0.1,0.3-0.3,1.1-0.6,2.5c-0.4,1.4-0.6,2.4-0.8,3.1c-0.2,0.2-0.9,0.2-2.3,0.2l-0.6,0
		h-1.4l-6.4,0.1h-0.7l-0.7,0h-1.7c-0.1-0.1-0.2-0.3-0.4-0.4c1.6-5.6,3.8-12.6,6.6-21l0.6-1.7h0l0.7-2c0.2-0.7,0.8-2.5,1.8-5.4
		c1-3,1.6-4.9,1.9-5.7s0.4-1.3,0.5-1.3h4.1l8.7-0.1l2.3,0.1l1.9-0.1c1,0,1.5,0.2,1.5,0.6c1.6,4.5,3.8,11.1,6.5,19.6
		c2.7,8.5,4.2,13.3,4.6,14.4l0.3,1.2C516.9,563.3,517,563.7,517.2,564.2z M493,550.9l1,0l5.8,0c-0.2-1.9-0.4-3.4-0.6-4.3l-0.9-4.2
		c-1-4.3-1.5-6.5-1.5-6.6c0-0.1-0.1-0.2-0.1-0.2c0-0.1,0-0.1-0.1-0.1c0,0,0-0.1-0.1-0.1s0-0.1-0.1-0.1s-0.1-0.1-0.1-0.1
		c-0.1-0.2-0.4-0.4-0.7-0.5c-0.4,0.1-1.8,5-3.9,14.7l-0.3,1.6H493z"/>
	<path class="st99" d="M555.6,546.9l0,1.6v9l0,4.3v1.2l0,1.1c-0.1,0.1-0.5,0.2-1.2,0.2h-0.6l-7.7,0.1c-3.3,0-5.7,0-7.3,0
		c-0.2-0.3-1.1-2.6-2.7-7.1l-4.7-12.4l-0.9,0.1l0,2.5v6.6l0.1,6.6v2.7c0,0.7-0.2,1.1-0.5,1.1c-1.6,0-3.2-0.1-4.6-0.1h-0.8l-3.7,0.1
		h-0.5l-1.8,0l-0.1,0c-0.5-0.5-0.8-0.9-0.8-1.1v-0.4l0-0.5l0.1-9.5c0-10.5,0.1-18.4,0.3-23.7l0-2c0-0.1,5.6-0.3,16.8-0.4
		c0.1,0.1,0.2,0.4,0.4,1.1v-0.1l0.1,0.5c1.2,3.5,2.7,7.4,4.4,11.9c1.7,4.5,2.6,6.8,2.6,6.9l0.8,0l0.1-19.9c0-0.1,1.2-0.2,3.6-0.2
		l6.1,0.1h1.8C555.5,532.6,555.6,539.2,555.6,546.9z"/>
	<path class="st99" d="M597.4,562.5C597.4,562.6,597.4,562.6,597.4,562.5l0,0.3h0v0c0,0,0,0.1,0,0.1c-0.8,0.6-2.6,1.1-5.6,1.6
		c-3,0.5-5,0.7-6.1,0.7s-1.7,0-1.9,0l-1.2,0.1c-1.3,0.1-2.1,0.1-2.2,0.1c-6.8,0-12-1.7-15.6-5.2c-3.6-3.4-5.4-8.3-5.4-14.6
		c0-6.3,1.9-11.1,5.8-14.4c3.9-3.3,9.1-4.9,15.6-4.9c1.2,0,2.7,0.1,4.5,0.3c1.8,0.2,3.3,0.6,4.7,1c1.6,0.7,3,1.6,4.2,2.9
		c1.2,1.3,1.9,2.7,2.3,4.2c0.1,0.4,0.1,1.1,0.2,2c0.1,0.9,0.2,1.6,0.2,2c-0.1,0.2-0.4,0.4-1.1,0.4l-12.4-0.2c-0.1,0-0.1-0.3-0.2-0.7
		v0.1c-0.3-1.3-0.9-2.1-1.7-2.4c-0.4-0.1-0.9-0.2-1.5-0.2c-0.6,0-1.2,0.1-1.8,0.3c-0.6,0.2-1,0.5-1.4,0.9c-0.4,0.4-0.7,0.8-1,1.3
		c-0.3,0.5-0.5,1-0.7,1.6s-0.3,1.2-0.4,1.8c-0.1,0.6-0.2,1.2-0.2,1.8c0,0.6,0,1.1-0.1,1.7s0,1,0,1.3c0,0.4,0,0.6,0,0.7v1.7
		c0,1.1,0,1.8,0.1,2.2s0.2,0.9,0.3,1.4c0.1,0.5,0.3,0.9,0.5,1.1c0.6,0.9,1.3,1.5,2.1,1.9s1.9,0.5,3.5,0.5s3.1-0.2,4.5-0.7l0.1-3.9
		l-1.8-0.1l-0.2,0.1h-2.5l-0.3,0l-0.6-0.6c0-0.3,0-0.7,0-1.3v-5.5c0-0.3,0.2-0.6,0.6-0.8h1.6c1.4,0,3,0,4.8,0h0.2c1.6,0,2.8,0,3.6,0
		h1.5l0.6,0c2.9,0,4.6,0.2,5,0.6l-0.3,18.5V562.5z"/>
	<path class="st99" d="M601.6,561.3c0-3.3,0.1-5.6,0.3-6.9c0-7.1,0.1-14.2,0.3-21.4c0-1-0.1-2.1-0.1-3.1v-0.8
		c-0.1-0.5-0.1-1-0.1-1.3s0-0.6,0.1-0.8c3.5,0.2,6.5,0.3,9.2,0.3c2.6,0,4.4,0,5.4-0.1c0,0,0.1,0.2,0.1,0.4h-0.2v8.8l0.2,19.9
		c0,0.1,0,0.3,0.1,0.4v0c0,0.1,0.1,0.2,0.1,0.3l0.2,7.1c-0.1,0.2-0.2,0.3-0.4,0.4h-0.8l-13.7,0.2c-0.2-0.1-0.4-0.2-0.6-0.4l0-0.4
		L601.6,561.3z"/>
	<path class="st99" d="M657.8,555.6l0,2.9c0,1.2,0,3.2,0,5.8c-0.2,0.3-2,0.5-5.4,0.5s-6.4,0-9.1-0.1c0,0-0.2-0.2-0.5-0.6v-3.9l0-7.5
		c0-0.7-0.1-1.2-0.2-1.3c-0.2-0.1-0.7-0.2-1.5-0.2h-0.3c-1.5,0-2.8,0.1-3.7,0.2v3.4l0,9.5c-0.2,0.3-2.3,0.4-6.1,0.4h-1.2
		c-3.3,0-5.7,0-7.3-0.1c-0.3-0.1-0.5-1.3-0.5-3.5l0.1-5.4l0.2-21.9v-1.2c0-0.2,0-1.1,0-2.6c0-1.5,0.1-2.4,0.3-2.8h0.1
		c1.1,0,1.9,0,2.4,0h2.7l3,0h0.9c2.8,0,4.4,0.3,4.8,1c0.2,0.3,0.3,0.8,0.3,1.5l-0.1,3.1v1.1l-0.1,4.8c0,0.4,0,0.8,0.1,1.4h1.5l0.6,0
		h2c0.7,0,1.4-0.1,2.2-0.2v-5.8l0-1.8v-1.7l0-0.4V529c0-1,0-1.5,0.1-1.8c0.1-0.2,0.3-0.3,0.7-0.3l0.5,0h1.6l5.3-0.1
		c4.2,0,6.3,0.3,6.3,1v1.7l0,0.6l0,1.3v3.8l0.1,15.6c0,0.3,0,0.6,0,1v1.2c0,0.5,0,1.2,0,2.1V555.6z"/>
	<path class="st99" d="M701.5,564.2c0,0.2-0.5,0.3-1.3,0.3h-2.2l-1.5,0h-1.5l-2.4,0c-2.4,0-4.3-0.1-5.9-0.2c0,0-0.1-0.1-0.2-0.3
		l-0.1-0.5c-0.1-1.7-0.5-3.3-1.1-4.9l-10.5,0.1c-0.1,0.3-0.3,1.1-0.6,2.5c-0.4,1.4-0.6,2.4-0.8,3.1c-0.2,0.2-0.9,0.2-2.3,0.2l-0.6,0
		h-1.4l-6.4,0.1h-0.7l-0.7,0h-1.7c-0.1-0.1-0.2-0.3-0.4-0.4c1.6-5.6,3.8-12.6,6.6-21l0.6-1.7h0l0.7-2c0.2-0.7,0.8-2.5,1.8-5.4
		c1-3,1.6-4.9,1.9-5.7c0.3-0.9,0.4-1.3,0.5-1.3h4.1l8.7-0.1l2.3,0.1l1.9-0.1c1,0,1.5,0.2,1.5,0.6c1.6,4.5,3.8,11.1,6.5,19.6
		c2.7,8.5,4.2,13.3,4.6,14.4l0.3,1.2C701.1,563.3,701.2,563.7,701.5,564.2z M677.3,550.9l1,0l5.8,0c-0.2-1.9-0.4-3.4-0.6-4.3
		l-0.9-4.2c-1-4.3-1.5-6.5-1.5-6.6c0-0.1-0.1-0.2-0.1-0.2c0-0.1,0-0.1-0.1-0.1c0,0,0-0.1-0.1-0.1s0-0.1-0.1-0.1s-0.1-0.1-0.1-0.1
		c-0.1-0.2-0.4-0.4-0.7-0.5c-0.4,0.1-1.8,5-3.9,14.7l-0.3,1.6H677.3z"/>
	<path class="st99" d="M739.8,546.9l0,1.6v9l0,4.3v1.2l0,1.1c-0.1,0.1-0.5,0.2-1.2,0.2H738l-7.7,0.1c-3.3,0-5.7,0-7.3,0
		c-0.2-0.3-1.1-2.6-2.7-7.1l-4.7-12.4l-0.9,0.1l0,2.5v6.6l0.1,6.6v2.7c0,0.7-0.2,1.1-0.5,1.1c-1.6,0-3.2-0.1-4.6-0.1h-0.8l-3.7,0.1
		h-0.5l-1.8,0l-0.1,0c-0.5-0.5-0.8-0.9-0.8-1.1v-0.4l0-0.5l0.1-9.5c0-10.5,0.1-18.4,0.3-23.7l0-2c0-0.1,5.6-0.3,16.8-0.4
		c0.1,0.1,0.2,0.4,0.4,1.1v-0.1l0.1,0.5c1.2,3.5,2.7,7.4,4.4,11.9c1.7,4.5,2.6,6.8,2.6,6.9l0.8,0l0.1-19.9c0-0.1,1.2-0.2,3.6-0.2
		l6.1,0.1h1.8C739.7,532.6,739.8,539.2,739.8,546.9z"/>
	<path class="st99" d="M781.6,562.5C781.6,562.6,781.6,562.6,781.6,562.5l0,0.3h0v0c0,0,0,0.1,0,0.1c-0.8,0.6-2.6,1.1-5.6,1.6
		c-3,0.5-5,0.7-6.1,0.7s-1.7,0-1.9,0l-1.2,0.1c-1.3,0.1-2.1,0.1-2.2,0.1c-6.8,0-12-1.7-15.6-5.2c-3.6-3.4-5.4-8.3-5.4-14.6
		c0-6.3,1.9-11.1,5.8-14.4c3.9-3.3,9.1-4.9,15.6-4.9c1.2,0,2.7,0.1,4.5,0.3c1.8,0.2,3.3,0.6,4.7,1c1.6,0.7,3,1.6,4.2,2.9
		c1.2,1.3,1.9,2.7,2.3,4.2c0.1,0.4,0.1,1.1,0.2,2c0.1,0.9,0.2,1.6,0.2,2c-0.1,0.2-0.4,0.4-1,0.4l-12.4-0.2c-0.1,0-0.1-0.3-0.2-0.7
		v0.1c-0.3-1.3-0.9-2.1-1.7-2.4c-0.4-0.1-0.9-0.2-1.5-0.2s-1.2,0.1-1.8,0.3c-0.6,0.2-1,0.5-1.4,0.9c-0.4,0.4-0.7,0.8-1,1.3
		c-0.3,0.5-0.5,1-0.7,1.6s-0.3,1.2-0.4,1.8c-0.1,0.6-0.2,1.2-0.2,1.8c0,0.6,0,1.1-0.1,1.7s0,1,0,1.3c0,0.4,0,0.6,0,0.7v1.7
		c0,1.1,0,1.8,0.1,2.2s0.2,0.9,0.3,1.4c0.1,0.5,0.3,0.9,0.5,1.1c0.6,0.9,1.3,1.5,2.1,1.9c0.7,0.4,1.9,0.5,3.5,0.5s3.1-0.2,4.5-0.7
		l0.1-3.9l-1.8-0.1l-0.2,0.1H765l-0.3,0l-0.6-0.6c0-0.3,0-0.7,0-1.3v-5.5c0-0.3,0.2-0.6,0.6-0.8h1.6c1.4,0,3,0,4.8,0h0.2
		c1.6,0,2.8,0,3.6,0h1.5l0.6,0c2.9,0,4.6,0.2,5,0.6l-0.3,18.5V562.5z"/>
	<path class="st99" d="M824.7,564.2c0,0.2-0.5,0.3-1.3,0.3h-2.2l-1.5,0h-1.5l-2.4,0c-2.4,0-4.3-0.1-5.9-0.2c0,0-0.1-0.1-0.2-0.3
		l-0.1-0.5c-0.1-1.7-0.5-3.3-1.1-4.9l-10.5,0.1c-0.1,0.3-0.3,1.1-0.6,2.5c-0.4,1.4-0.6,2.4-0.8,3.1c-0.2,0.2-0.9,0.2-2.3,0.2l-0.6,0
		h-1.4l-6.4,0.1h-0.7l-0.7,0h-1.7c-0.1-0.1-0.2-0.3-0.4-0.4c1.6-5.6,3.8-12.6,6.6-21l0.6-1.7h0l0.7-2c0.2-0.7,0.8-2.5,1.8-5.4
		c1-3,1.6-4.9,1.9-5.7c0.3-0.9,0.4-1.3,0.5-1.3h4.1l8.7-0.1l2.3,0.1l1.9-0.1c1,0,1.5,0.2,1.5,0.6c1.6,4.5,3.8,11.1,6.5,19.6
		c2.7,8.5,4.2,13.3,4.6,14.4l0.3,1.2C824.4,563.3,824.5,563.7,824.7,564.2z M800.5,550.9l1,0l5.8,0c-0.2-1.9-0.4-3.4-0.6-4.3
		l-0.9-4.2c-1-4.3-1.5-6.5-1.5-6.6c0-0.1-0.1-0.2-0.1-0.2c0-0.1,0-0.1-0.1-0.1c0,0,0-0.1-0.1-0.1s0-0.1-0.1-0.1s-0.1-0.1-0.1-0.1
		c-0.1-0.2-0.4-0.4-0.7-0.5c-0.4,0.1-1.8,5-3.9,14.7l-0.3,1.6H800.5z"/>
</g>
<g class="st97">
	<path class="st99" d="M102.8,614.6l4.2,0h9.5c0.1,0,0.1,0,0.1,0l0.9,5.7c0.2,1.7,0.6,4.2,1.1,7.5c0.5,3.3,0.8,5.5,1,6.3l0.2,1.3
		h0.9c0.4-4.7,1.2-10.9,2.4-18.6l0.1-0.6c0-0.1,0-0.3,0-0.5c0-0.4,0.1-0.7,0.2-1c0.1-0.3,0.6-0.4,1.3-0.4c5.2,0,9,0.1,11.5,0.4
		c0.1,0.1,0.1,0.3,0.2,0.6c-0.4,1.8-1,4.7-1.9,8.5c-0.9,3.9-1.6,6.8-2,8.8l-0.2,0.9c0,0.1-0.1,0.4-0.3,0.9c-0.2,0.5-0.2,0.8-0.2,1
		l-1.7,7.7l-0.8,3.8c-0.4,2.2-0.7,3.7-0.9,4.7l-0.1,0c-1.1,0.1-2.9,0.1-5.2,0.1h-3.8l-1.3,0c-1.8,0-3.5,0-5,0.1
		c-0.1,0-0.4-1.3-0.7-3.9c-0.3-2.6-0.5-3.9-0.5-4.1l-0.2-1.2c-0.5-3.4-1-7-1.6-10.8l-0.9,0c-0.9,4.8-1.8,10.6-2.5,17.4
		c-0.2,1.8-0.5,2.7-1.1,2.8c-2.3-0.1-4.6-0.1-6.8-0.1s-5,0.1-8.4,0.2c-0.5-0.4-0.8-1.4-1.1-3l-0.1-1c-0.6-3.3-1.9-9.3-3.9-18.2
		l-0.5-2.4c-0.2-0.9-0.6-2.8-1.2-5.6c-0.6-2.8-1.1-5.3-1.6-7.4c0-0.1,0.1-0.2,0.3-0.3c0.4,0,0.8,0.1,1.2,0.1h0.3l2.3-0.1l3.4-0.1
		c1.1,0,2,0,2.6,0.1h1.5c0.1,0,0.4,0,0.8,0h0.3c0.5,0,1.3,4.1,2.2,12.2c0.4,3.7,0.7,5.8,0.8,6.4l0.2,1.4l1,0c0.6-3.8,1.3-8.2,2-13.2
		c0-0.6,0.1-1.8,0.4-3.5s0.5-2.8,0.8-3.2C102.1,614.6,102.4,614.6,102.8,614.6z"/>
	<path class="st99" d="M137.7,621.1l-0.1-6.4c0,0,0.1,0,0.2,0.1c12.4-0.2,21.7-0.3,28-0.3c0.1,0,0.1,0.1,0.1,0.1v6.9
		c0,0.7,0,1.2,0,1.6c-0.1,0.3-0.6,0.4-1.4,0.4h-0.2c-3.9,0-8-0.1-12.3-0.2c0,0.1,0,0.4-0.1,0.8c0,0.4-0.1,0.6-0.1,0.8l-0.1,0.9
		c-0.1,0.6-0.1,1.7-0.2,3.2l7.6-0.2c1.3,0,2.2,0,2.8,0h0.4c1,0,1.6,0,2,0.1c0.3,0.1,0.5,0.2,0.5,0.5l0,0.2v0.6l0.1,6.3l0,0v0
		c-5,0.2-8.9,0.4-11.9,0.4h-1.1v5.9l13.3-0.4c0.7,0,1.2,0.1,1.4,0.3c0,0.4,0,1,0,1.8l0.2,6.6c0,0.4-0.2,0.6-0.5,0.7l-8.1-0.1
		c-1.6,0-4.8,0.1-9.5,0.2l-4,0.1c-2.8,0.1-4.9,0.1-6.3,0.1l-0.1,0h0c-0.2-0.2-0.3-0.3-0.5-0.5v-0.9l0.1-26.1L137.7,621.1z"/>
	<path class="st99" d="M179.4,614.4l4.6-0.1c8,0,13.6,1.3,16.8,4c0.7,0.5,1.4,1.4,2.2,2.5c2.4,3.4,3.5,7.2,3.5,11.4
		c0,7.4-2.5,12.9-7.6,16.4c-3,2.1-6.5,3.2-10.5,3.2l-0.1,0.1h-0.6l-6.5-0.1c-2.9,0-6.6,0.1-11.1,0.2c-0.3-0.6-0.5-1.3-0.5-2.1l0-0.9
		v-3.8l0-5.4V631c0-2.1,0-3.6,0-4.6v-4l0-0.6v-7c0-0.1,0.9-0.2,2.7-0.3c1.8-0.1,3.2-0.1,4.2-0.1H179.4z M189.7,622.9
		c-0.9-0.7-2-1-3.1-1.1c-0.4,0-0.9,0-1.6,0c-0.7,0-1.2,0-1.5,0c-0.3,0.4-0.5,0.8-0.6,1l-0.4,0.9v1.4c0,2.8,0.1,6.6,0.2,11.5l0.1,7.1
		c0.1,0.5,0.4,0.8,1,0.9c1.7,0,3-0.1,3.9-0.3c3.2-1.1,4.8-5,4.8-11.7C192.5,627.3,191.6,624.2,189.7,622.9z"/>
	<path class="st99" d="M219.6,614.4l4.6-0.1c8,0,13.6,1.3,16.8,4c0.7,0.5,1.4,1.4,2.2,2.5c2.4,3.4,3.5,7.2,3.5,11.4
		c0,7.4-2.5,12.9-7.6,16.4c-3,2.1-6.5,3.2-10.5,3.2l-0.1,0.1h-0.6l-6.5-0.1c-2.9,0-6.6,0.1-11.1,0.2c-0.3-0.6-0.5-1.3-0.5-2.1l0-0.9
		v-3.8l0-5.4V631c0-2.1,0-3.6,0-4.6v-4l0-0.6v-7c0-0.1,0.9-0.2,2.7-0.3c1.8-0.1,3.2-0.1,4.2-0.1H219.6z M230,622.9
		c-0.9-0.7-2-1-3.1-1.1c-0.4,0-0.9,0-1.6,0c-0.7,0-1.2,0-1.5,0c-0.3,0.4-0.5,0.8-0.6,1l-0.4,0.9v1.4c0,2.8,0.1,6.6,0.2,11.5l0.1,7.1
		c0.1,0.5,0.4,0.8,1,0.9c1.7,0,3-0.1,3.9-0.3c3.2-1.1,4.8-5,4.8-11.7C232.8,627.3,231.9,624.2,230,622.9z"/>
	<path class="st99" d="M249.8,648.7c0-3.3,0.1-5.6,0.3-6.9c0-7.1,0.1-14.2,0.3-21.4c0-1-0.1-2.1-0.1-3.1v-0.8
		c-0.1-0.5-0.1-1-0.1-1.3s0-0.6,0.1-0.8c3.5,0.2,6.5,0.3,9.2,0.3c2.6,0,4.4,0,5.4-0.1c0,0,0.1,0.2,0.1,0.4h-0.2v8.8l0.2,19.9
		c0,0.1,0,0.3,0.1,0.4v0c0,0.1,0.1,0.2,0.1,0.3l0.2,7.1c-0.1,0.2-0.2,0.3-0.4,0.4H264l-13.7,0.2c-0.2-0.1-0.4-0.2-0.6-0.4l0-0.4
		L249.8,648.7z"/>
	<path class="st99" d="M307.6,634.3l0,1.6v9l0,4.3v1.2l0,1.1c-0.1,0.1-0.5,0.2-1.2,0.2h-0.6l-7.7,0.1c-3.3,0-5.7,0-7.3,0
		c-0.2-0.3-1.1-2.6-2.7-7.1l-4.7-12.4l-0.9,0.1l0,2.5v6.6l0.1,6.6v2.7c0,0.7-0.2,1.1-0.5,1.1c-1.6,0-3.2-0.1-4.6-0.1h-0.8l-3.7,0.1
		h-0.5l-1.8,0l-0.1,0c-0.5-0.5-0.8-0.9-0.8-1.1v-0.4l0-0.5l0.1-9.5c0-10.5,0.1-18.4,0.3-23.7l0-2c0-0.1,5.6-0.3,16.8-0.4
		c0.1,0.1,0.2,0.4,0.4,1.1v-0.1l0.1,0.5c1.2,3.5,2.7,7.4,4.4,11.9c1.7,4.5,2.6,6.8,2.6,6.9l0.8,0l0.1-19.9c0-0.1,1.2-0.2,3.6-0.2
		l6.1,0.1h1.8C307.6,620,307.6,626.6,307.6,634.3z"/>
	<path class="st99" d="M349.4,649.9C349.4,650,349.5,650,349.4,649.9l0,0.3h0v0c0,0,0,0.1,0,0.1c-0.8,0.6-2.6,1.1-5.6,1.6
		c-3,0.5-5,0.7-6.1,0.7s-1.7,0-1.9,0l-1.2,0.1c-1.3,0.1-2.1,0.1-2.2,0.1c-6.8,0-12-1.7-15.6-5.2c-3.6-3.4-5.4-8.3-5.4-14.6
		c0-6.3,1.9-11.1,5.8-14.4c3.9-3.3,9.1-4.9,15.6-4.9c1.2,0,2.7,0.1,4.5,0.3c1.8,0.2,3.3,0.6,4.7,1c1.6,0.7,3,1.6,4.2,2.9
		c1.2,1.3,1.9,2.7,2.3,4.2c0.1,0.4,0.1,1.1,0.2,2c0.1,0.9,0.2,1.6,0.2,2c-0.1,0.2-0.4,0.4-1,0.4l-12.4-0.2c-0.1,0-0.1-0.3-0.2-0.7
		v0.1c-0.3-1.3-0.9-2.1-1.7-2.4c-0.4-0.1-0.9-0.2-1.5-0.2s-1.2,0.1-1.8,0.3c-0.6,0.2-1,0.5-1.4,0.9c-0.4,0.4-0.7,0.8-1,1.3
		c-0.3,0.5-0.5,1-0.7,1.6s-0.3,1.2-0.4,1.8c-0.1,0.6-0.2,1.2-0.2,1.8c0,0.6,0,1.1-0.1,1.7s0,1,0,1.3c0,0.4,0,0.6,0,0.7v1.7
		c0,1.1,0,1.8,0.1,2.2s0.2,0.9,0.3,1.4c0.1,0.5,0.3,0.9,0.5,1.1c0.6,0.9,1.3,1.5,2.1,1.9c0.7,0.4,1.9,0.5,3.5,0.5s3.1-0.2,4.5-0.7
		l0.1-3.9l-1.8-0.1l-0.2,0.1h-2.5l-0.3,0l-0.6-0.6c0-0.3,0-0.7,0-1.3v-5.5c0-0.3,0.2-0.6,0.6-0.8h1.6c1.4,0,3,0,4.8,0h0.2
		c1.6,0,2.8,0,3.6,0h1.5l0.6,0c2.9,0,4.6,0.2,5,0.6l-0.3,18.5V649.9z"/>
</g>
<g class="st97">
	<path class="st99" d="M84.1,691.1c0.4-3.7,1-6.5,2-8.4c1.7-3.6,4.3-6.2,7.8-7.7c3.1-1.4,6.4-2,10-2c6.1,0,10.5,1.7,13.3,5
		c1.7,2,2.6,4.4,2.9,7.4l0.2,2.3c-0.3,0.3-2,0.4-5.3,0.4l-3.9,0h-0.3l-2.1,0l-0.6,0h-0.5c-0.5,0-0.8-0.7-1-2
		c-0.2-1.3-0.6-2.2-1.1-2.7c-0.5-0.4-1-0.6-1.7-0.6c-0.6,0-1.2,0.1-1.7,0.3c-0.5,0.2-0.9,0.5-1.2,0.8c-0.3,0.3-0.6,0.8-0.8,1.4
		c-0.4,1-0.6,2.1-0.7,3.2s-0.1,2.4-0.1,3.8v0.6l-0.1,2.5c0,4.5,1.3,6.8,3.8,6.9c0.7,0,1.1-0.1,1.4-0.3c0.7-0.6,1.3-1.9,1.8-3.7
		c0.1-0.4,0.3-0.7,0.4-1h0.9l1.1,0h4l1.2,0l2.3,0h1.4l1.4,0h1c0.2,0,0.3,0.2,0.4,0.5l-0.1,0.8c-0.1,1.9-0.6,3.7-1.3,5.2
		c-1.4,2.9-3.6,5-6.5,6.4c-3,1.4-6.2,2.1-9.8,2.1c-6.2,0-10.9-1.8-14-5.5C85.6,703,84.1,697.9,84.1,691.1z"/>
	<path class="st99" d="M123.7,680.4l-0.1-6.4c0,0,0.1,0,0.2,0.1c12.4-0.2,21.7-0.3,28-0.3c0.1,0,0.1,0.1,0.1,0.1v6.9
		c0,0.7,0,1.2,0,1.6c-0.1,0.3-0.6,0.4-1.4,0.4h-0.2c-3.9,0-8-0.1-12.3-0.2c0,0.1,0,0.4-0.1,0.8c0,0.4-0.1,0.6-0.1,0.8l-0.1,0.9
		c-0.1,0.6-0.1,1.7-0.2,3.2l7.6-0.2c1.3,0,2.2,0,2.8,0h0.4c1,0,1.6,0,2,0.1c0.3,0.1,0.5,0.2,0.5,0.5l0,0.2v0.6l0.1,6.3l0,0v0
		c-5,0.2-8.9,0.4-11.9,0.4h-1.1v5.9l13.3-0.4c0.7,0,1.2,0.1,1.4,0.3c0,0.4,0,1,0,1.8l0.2,6.6c0,0.4-0.2,0.6-0.5,0.7l-8.1-0.1
		c-1.6,0-4.8,0.1-9.5,0.2l-4,0.1c-2.8,0.1-4.9,0.1-6.3,0.1l-0.1,0h0c-0.2-0.2-0.3-0.3-0.5-0.5V710l0.1-26.1L123.7,680.4z"/>
	<path class="st99" d="M166.4,673.9l7.8-0.1c1.7,0,3.2,0,4.5,0.1c3.6,0.1,6.4,1,8.3,2.6c1.9,1.6,2.8,3.9,2.8,6.8
		c0,2-0.6,3.8-1.8,5.2c-1.2,1.4-2.9,2.7-5.2,3.8c3.6,1.1,5.8,3.9,6.6,8.3c0.2,1,0.3,2.1,0.4,3.3s0.2,2.1,0.3,2.5l0.2,1.2
		c0.3,1.5,0.5,2.5,0.7,3.2l-0.1,0.1c-2.8,0.2-5.3,0.3-7.6,0.3c-2.3,0-4.3,0-6.1-0.1h-0.1c-0.5,0-1-2.4-1.6-7.2l-0.1-1
		c-0.1-1.8-0.4-3-0.9-3.6c-0.6-0.6-1.5-0.9-2.9-0.9l-0.3,0H170v7.4l0,0.8v4.5c0,0.2-0.2,0.3-0.4,0.3c-1.8,0.1-4.3,0.1-7.6,0.1
		c-3.3,0-5.4,0-6.5,0l-0.1,0l0,0c0,0-0.1,0-0.1-0.1l0-2.2l0-0.7l0.1-10.1v-1.8l0-1.8l0-6.3l0-0.8l-0.1-5.5l0.1-7.8
		c0-0.1,0.5-0.2,1.4-0.2l1.6,0h1.5l3.1,0L166.4,673.9z M175.5,681.8c-1-0.4-2.3-0.6-3.9-0.6h-1.4c-0.2,0.3-0.3,1.6-0.3,4.1
		s0,4.1,0.1,5c5.1-0.1,7.6-1.9,7.6-5.3C177.6,683.6,176.9,682.5,175.5,681.8z M191.2,710.8L191.2,710.8
		C191.1,710.8,191.1,710.8,191.2,710.8L191.2,710.8z M191.3,710.7l-0.1,0.1v0C191.2,710.7,191.2,710.7,191.3,710.7z"/>
	<path class="st99" d="M193.7,680.4l-0.1-6.4c0,0,0.1,0,0.2,0.1c12.4-0.2,21.7-0.3,28-0.3c0.1,0,0.1,0.1,0.1,0.1v6.9
		c0,0.7,0,1.2,0,1.6c-0.1,0.3-0.6,0.4-1.4,0.4h-0.2c-3.9,0-8-0.1-12.3-0.2c0,0.1,0,0.4-0.1,0.8c0,0.4-0.1,0.6-0.1,0.8l-0.1,0.9
		c-0.1,0.6-0.1,1.7-0.2,3.2l7.6-0.2c1.3,0,2.2,0,2.8,0h0.4c1,0,1.6,0,2,0.1c0.3,0.1,0.5,0.2,0.5,0.5l0,0.2v0.6l0.1,6.3l0,0v0
		c-5,0.2-8.9,0.4-11.9,0.4h-1.1v5.9l13.3-0.4c0.7,0,1.2,0.1,1.4,0.3c0,0.4,0,1,0,1.8l0.2,6.6c0,0.4-0.2,0.6-0.5,0.7l-8.1-0.1
		c-1.6,0-4.8,0.1-9.5,0.2l-4,0.1c-2.8,0.1-4.9,0.1-6.3,0.1l-0.1,0h0c-0.2-0.2-0.3-0.3-0.5-0.5V710l0.1-26.1L193.7,680.4z"/>
	<path class="st99" d="M238.2,689.6c-0.2,4.6-0.3,9.3-0.3,14.2v7.3h-1.8l-0.6,0l-8.7,0.1c-0.6,0-0.8,0-0.9,0c0,0,0-0.2,0.1-0.4v-0.1
		l0-0.1c-0.1-1.2-0.1-2.6-0.1-4.3l0.1-27.3l0-1.3v-1.2l0-2.3c0-0.2,0.1-0.3,0.3-0.5h3.3l2,0c4.6,0,7.9,0.1,9.9,0.2
		c2,0.1,3.4,0.2,4.3,0.2c0.5,2.8,1.2,6.5,2.1,11.1l1.7,8.7h0.9l3.1-16c0-0.2,0.2-1,0.3-2.1s0.3-1.8,0.4-2h0.1l15.9-0.1l1,0h2.7
		c0.1,0.1,0.2,0.4,0.2,0.9l0.2,9.2c0.2,7.7,0.3,13.6,0.4,17.9c0,3.3,0,6.4-0.1,9.3c0,0.2-0.4,0.3-1,0.3l-1.1,0c-0.9,0-1.5,0-2,0
		h-1.3c-1.6,0-3.9,0-7,0c-0.6-0.5-0.9-2.7-0.9-6.5l0-7.7v-2c0-1.7,0-3,0-3.9l-0.9-0.2c-0.5,2-1.6,6.4-3.1,13.2l-0.2,1
		c-0.1,0.5-0.3,1.4-0.6,2.7c-0.3,1.3-0.5,2.3-0.6,2.9c-0.2,0.2-1.1,0.3-2.6,0.3h-0.3l-2.7-0.1l-1.5,0h-1.1l-1.9,0h-0.7
		c-0.8,0-1.2-0.2-1.2-0.5l0,0l-2.2-9.7c-0.1-0.2-0.2-0.8-0.4-1.6c-0.2-0.8-0.4-1.5-0.4-2.1l-1.8-7.9L238.2,689.6z"/>
	<path class="st99" d="M277.2,692.2l0-0.5c0.2-2,0.5-3.8,0.8-5.4c0.3-1.6,0.9-3,1.6-4.4c1.7-3,4.2-5.3,7.3-6.9
		c3.1-1.6,6.5-2.3,10.1-2.3s6.9,0.7,9.8,2.2c1.8,0.9,3.1,2,4.1,3.3c1.9,2.4,3.2,4.6,3.8,6.6s0.9,4.3,0.9,6.9
		c0,5.8-1.2,10.3-3.6,13.3l-1.1,1.5c-1.5,1.8-3.7,3.1-6.4,4.1c-2.8,1-5.5,1.4-8.2,1.5c-4.7,0-8.5-1-11.5-2.9
		C279.7,705.8,277.2,700.2,277.2,692.2z M291.3,692c0,0,0,0.1,0,0.1v0.1c-0.1,0.7-0.1,1.4-0.1,2.3s0.1,1.7,0.2,2.7
		c0.1,0.9,0.4,1.9,0.7,2.8s0.8,1.7,1.5,2.3c0.7,0.6,1.5,0.9,2.4,0.9c0.9,0,1.6-0.1,2.2-0.4c0.6-0.3,1.1-0.6,1.5-1
		c0.4-0.4,0.8-0.9,1.1-1.6c0.8-1.8,1.2-4.5,1.2-8.3c0-3.8-0.4-6.5-1.3-8c-0.9-1.5-2.2-2.3-3.9-2.3c-0.9,0-1.6,0.2-2.3,0.6
		c-0.7,0.4-1.2,0.9-1.5,1.3c-0.3,0.5-0.7,1.4-1,2.9c-0.4,1.5-0.5,2.8-0.5,4.1L291.3,692z"/>
	<path class="st99" d="M356.3,693.5l0,1.6v9l0,4.3v1.2l0,1.1c-0.1,0.1-0.5,0.2-1.2,0.2h-0.6l-7.7,0.1c-3.3,0-5.7,0-7.3,0
		c-0.2-0.3-1.1-2.6-2.7-7.1l-4.7-12.4l-0.9,0.1l0,2.5v6.6l0.1,6.6v2.7c0,0.7-0.2,1.1-0.5,1.1c-1.6,0-3.2-0.1-4.6-0.1h-0.8l-3.7,0.1
		h-0.5l-1.8,0l-0.1,0c-0.5-0.5-0.8-0.9-0.8-1.1v-0.4l0-0.5l0.1-9.5c0-10.5,0.1-18.4,0.3-23.7l0-2c0-0.1,5.6-0.3,16.8-0.4
		c0.1,0.1,0.2,0.4,0.4,1.1v-0.1l0.1,0.5c1.2,3.5,2.7,7.4,4.4,11.9c1.7,4.5,2.6,6.8,2.6,6.9l0.8,0l0.1-19.9c0-0.1,1.2-0.2,3.6-0.2
		l6.1,0.1h1.8C356.2,679.3,356.3,685.8,356.3,693.5z"/>
	<path class="st99" d="M361.2,708c0-3.3,0.1-5.6,0.3-6.9c0-7.1,0.1-14.2,0.3-21.4c0-1-0.1-2.1-0.1-3.1v-0.8c-0.1-0.5-0.1-1-0.1-1.3
		s0-0.6,0.1-0.8c3.5,0.2,6.5,0.3,9.2,0.3c2.6,0,4.4,0,5.4-0.1c0,0,0.1,0.2,0.1,0.4h-0.2v8.8l0.2,19.9c0,0.1,0,0.3,0.1,0.4v0
		c0,0.1,0.1,0.2,0.1,0.3l0.2,7.1c-0.1,0.2-0.2,0.3-0.4,0.4h-0.8l-13.7,0.2c-0.2-0.1-0.4-0.2-0.6-0.4l0-0.4L361.2,708z"/>
	<path class="st99" d="M382.1,680.4l-0.1-6.4c0,0,0.1,0,0.2,0.1c12.4-0.2,21.7-0.3,28-0.3c0.1,0,0.1,0.1,0.1,0.1v6.9
		c0,0.7,0,1.2,0,1.6c-0.1,0.3-0.6,0.4-1.4,0.4h-0.2c-3.9,0-8-0.1-12.3-0.2c0,0.1,0,0.4-0.1,0.8c0,0.4-0.1,0.6-0.1,0.8l-0.1,0.9
		c-0.1,0.6-0.1,1.7-0.2,3.2l7.6-0.2c1.3,0,2.2,0,2.8,0h0.4c1,0,1.6,0,2,0.1c0.3,0.1,0.5,0.2,0.5,0.5l0,0.2v0.6l0.1,6.3l0,0v0
		c-5,0.2-8.9,0.4-11.9,0.4h-1.1v5.9l13.3-0.4c0.7,0,1.2,0.1,1.4,0.3c0,0.4,0,1,0,1.8l0.2,6.6c0,0.4-0.2,0.6-0.5,0.7l-8.1-0.1
		c-1.6,0-4.8,0.1-9.5,0.2l-4,0.1c-2.8,0.1-4.9,0.1-6.3,0.1l-0.1,0h0c-0.2-0.2-0.3-0.3-0.5-0.5V710l0.1-26.1L382.1,680.4z"/>
	<path class="st99" d="M412.7,700.5l12.9-0.2c0.3,0,0.6,0.3,0.8,0.8s0.4,1,0.6,1.3c0.5,0.8,1.3,1.2,2.5,1.2s2.1-0.3,2.8-0.8
		c0.7-0.5,1.1-1.2,1.1-2.1s-0.2-1.5-0.7-1.8c-0.4-0.3-0.9-0.6-1.4-0.9c-0.5-0.3-1.3-0.5-2.3-0.7c-1-0.2-1.6-0.3-1.7-0.3h0l-1.4-0.4
		c-0.9-0.2-1.6-0.3-2.2-0.5c-3.9-1-6.7-2.4-8.4-3.9c-1.7-1.6-2.6-3.7-2.6-6.4c0-1.9,0.4-3.7,1.1-5.2c0.7-1.5,1.7-2.8,2.8-3.8
		c3.3-2.8,7.9-4.2,13.8-4.2c4.7,0,8.3,0.8,11,2.5h0c1.7,1.2,2.9,2.5,3.5,3.7c0.6,1.2,1,2.7,1.2,4.4l-0.6,0.6
		c-4.3,0.2-8.1,0.2-11.4,0.2c-1,0-1.6-0.3-1.8-0.9c-0.1-0.2-0.2-0.5-0.3-0.7c-0.2-0.6-1-0.9-2.2-0.9h-0.1c-1,0-1.8,0.2-2.5,0.7
		c-0.7,0.4-1,0.9-1,1.3c0,0.4,0.1,0.8,0.3,1c0.2,0.3,0.4,0.5,0.6,0.7c0.2,0.2,0.5,0.3,1,0.5s0.8,0.3,1,0.3c0.2,0.1,0.6,0.2,1,0.3
		l0.9,0.2c0.3,0.1,1.3,0.3,3,0.7s3,0.8,4.1,1.1v0c3.5,1.2,5.8,2.6,7.1,4.4s1.9,3.8,1.9,6.1c0,6.2-3.7,10.2-11.1,12.1
		c-2.1,0.5-4.4,0.9-6.9,1.1c-3,0-6-0.4-8.9-1.3s-4.9-2.3-5.9-4.3c-0.7-1-1.1-1.8-1.3-2.6c-0.2-0.8-0.4-1.9-0.6-3.4
		C412.5,700.5,412.6,700.5,412.7,700.5z"/>
</g>
<g class="st97">
	<path class="st98" d="M87.8,753.1c0-7.2,1.7-14,5.2-20.4c0.3-0.5,0.6-0.8,1-1c0.4-0.2,0.8-0.4,1.2-0.4c0.5,0,0.9,0.1,1.2,0.4
		c0.3,0.3,0.5,0.7,0.5,1.1c0,0.4-0.1,0.7-0.2,1c-2.6,6.2-3.8,12.6-3.8,19.3c0,6.6,1.3,13.1,3.8,19.3c0.1,0.3,0.2,0.6,0.2,1
		c0,0.5-0.2,0.8-0.5,1.1c-0.3,0.3-0.7,0.4-1.2,0.4c-0.4,0-0.8-0.1-1.2-0.4c-0.4-0.2-0.7-0.6-1-1C89.6,767.1,87.8,760.3,87.8,753.1z"
		/>
</g>
<g class="st97">
	<path class="st98" d="M128.9,751.2v12.7c0,0.7-0.2,1.3-0.7,1.7s-1,0.6-1.8,0.6c-0.7,0-1.3-0.2-1.8-0.6c-0.4-0.4-0.7-1-0.7-1.7
		v-12.4c0-2-0.4-3.5-1.2-4.4c-0.8-0.9-2-1.4-3.7-1.4c-2,0-3.6,0.6-4.8,1.8c-1.2,1.2-1.8,2.9-1.8,5v11.4c0,0.7-0.2,1.3-0.7,1.7
		c-0.4,0.4-1,0.6-1.8,0.6c-0.7,0-1.3-0.2-1.8-0.6c-0.5-0.4-0.7-1-0.7-1.7V744c0-0.7,0.2-1.2,0.7-1.7c0.5-0.4,1.1-0.7,1.8-0.7
		c0.7,0,1.3,0.2,1.7,0.6c0.4,0.4,0.6,1,0.6,1.7v2c0.8-1.4,1.9-2.5,3.3-3.3c1.4-0.7,3-1.1,4.7-1.1
		C126.1,741.6,128.9,744.8,128.9,751.2z"/>
</g>
<g class="st97">
	<path class="st98" d="M139.7,764.8c-1.8-1-3.1-2.4-4.1-4.3c-1-1.9-1.4-4-1.4-6.5c0-2.5,0.5-4.7,1.4-6.5c1-1.9,2.3-3.3,4.1-4.3
		c1.8-1,3.8-1.5,6.2-1.5c2.3,0,4.4,0.5,6.2,1.5c1.8,1,3.1,2.4,4.1,4.3c1,1.9,1.4,4,1.4,6.5c0,2.5-0.5,4.6-1.4,6.5
		c-1,1.9-2.3,3.3-4.1,4.3c-1.8,1-3.8,1.5-6.2,1.5C143.6,766.3,141.5,765.8,139.7,764.8z M150.9,760.2c1.2-1.4,1.7-3.5,1.7-6.3
		c0-2.7-0.6-4.8-1.8-6.3s-2.8-2.2-5-2.2c-2.1,0-3.8,0.7-5,2.2c-1.2,1.4-1.8,3.5-1.8,6.3c0,2.8,0.6,4.8,1.7,6.3
		c1.2,1.4,2.8,2.1,5,2.1C148.1,762.4,149.7,761.7,150.9,760.2z"/>
</g>
<g class="st97">
	<path class="st98" d="M176.1,763c0.3,0.3,0.5,0.7,0.5,1.3c0,0.6-0.3,1.1-0.8,1.5c-0.5,0.3-1.2,0.5-2.2,0.4l-1.3-0.1
		c-2.6-0.2-4.6-1-5.9-2.4c-1.3-1.4-1.9-3.5-1.9-6.3V746h-2.9c-1.4,0-2.1-0.6-2.1-1.9c0-0.6,0.2-1,0.6-1.4c0.4-0.3,0.9-0.5,1.6-0.5
		h2.9v-5c0-0.7,0.2-1.3,0.7-1.8s1-0.6,1.8-0.6c0.7,0,1.3,0.2,1.8,0.6c0.5,0.4,0.7,1,0.7,1.8v5h4.8c0.7,0,1.2,0.2,1.6,0.5
		c0.4,0.3,0.6,0.8,0.6,1.4c0,0.6-0.2,1.1-0.6,1.4c-0.4,0.3-0.9,0.5-1.6,0.5h-4.8v11.8c0,1.5,0.3,2.6,0.9,3.4
		c0.6,0.7,1.6,1.1,2.9,1.2l1.4,0.1C175.2,762.5,175.7,762.7,176.1,763z"/>
</g>
<g class="st97">
	<path class="st98" d="M207.8,743.7c0,0.7-0.2,1.2-0.5,1.6c-0.4,0.4-1,0.6-1.8,0.6l-1.5,0.1c-2,0.2-3.6,0.9-4.5,2.1
		c-1,1.2-1.5,2.7-1.5,4.5v11.1c0,0.8-0.2,1.4-0.7,1.8c-0.5,0.4-1,0.6-1.8,0.6c-0.7,0-1.3-0.2-1.8-0.6c-0.5-0.4-0.7-1-0.7-1.8V744
		c0-0.7,0.2-1.3,0.7-1.7c0.5-0.4,1.1-0.6,1.8-0.6c0.6,0,1.2,0.2,1.6,0.6c0.4,0.4,0.7,1,0.7,1.7v2.3c0.6-1.4,1.6-2.5,2.8-3.3
		c1.2-0.7,2.6-1.2,4.2-1.3l0.7,0C207,741.6,207.8,742.3,207.8,743.7z"/>
</g>
<g class="st97">
	<path class="st98" d="M230,760.5c0.3,0.4,0.4,0.8,0.4,1.4c0,0.9-0.6,1.7-1.8,2.4c-1.1,0.6-2.4,1.2-3.7,1.5
		c-1.3,0.4-2.6,0.5-3.9,0.5c-3.8,0-6.7-1.1-8.9-3.3c-2.2-2.2-3.3-5.2-3.3-9c0-2.4,0.5-4.6,1.4-6.5c1-1.9,2.3-3.3,4-4.4
		c1.7-1,3.7-1.6,5.9-1.6c3.2,0,5.7,1,7.5,3.1c1.8,2,2.8,4.8,2.8,8.3c0,1.3-0.6,1.9-1.8,1.9h-15c0.3,5,2.7,7.5,7.3,7.5
		c1.2,0,2.2-0.2,3.1-0.5c0.9-0.3,1.8-0.7,2.8-1.3c0.1-0.1,0.4-0.2,0.8-0.4c0.4-0.2,0.8-0.3,1.1-0.3C229.3,760,229.7,760.1,230,760.5
		z M215.9,747c-1.1,1.2-1.8,2.9-2,5.1h12.6c-0.1-2.2-0.7-3.9-1.7-5.1c-1-1.2-2.5-1.8-4.3-1.8C218.5,745.2,217,745.8,215.9,747z"/>
	<path class="st98" d="M240.1,764.8c-1.7-1-3.1-2.4-4-4.3c-1-1.8-1.4-4-1.4-6.4c0-2.5,0.5-4.6,1.5-6.5c1-1.9,2.4-3.3,4.2-4.4
		c1.8-1,3.8-1.6,6.1-1.6c1.2,0,2.5,0.2,3.7,0.5c1.2,0.4,2.4,0.8,3.3,1.5c1,0.7,1.6,1.5,1.6,2.5c0,0.6-0.1,1-0.4,1.4
		c-0.3,0.4-0.7,0.6-1.1,0.6c-0.3,0-0.6-0.1-0.9-0.2c-0.3-0.1-0.7-0.4-1.1-0.7c-0.8-0.5-1.6-0.9-2.3-1.2c-0.7-0.3-1.5-0.4-2.5-0.4
		c-2.2,0-3.9,0.7-5.1,2.2s-1.8,3.6-1.8,6.2c0,2.7,0.6,4.7,1.8,6.2c1.2,1.4,2.9,2.2,5.1,2.2c1,0,1.8-0.1,2.6-0.4
		c0.7-0.3,1.5-0.7,2.3-1.2c0.4-0.2,0.7-0.4,1.1-0.6c0.4-0.2,0.7-0.2,1-0.2c0.5,0,0.8,0.2,1.1,0.6c0.3,0.4,0.4,0.8,0.4,1.4
		c0,0.5-0.1,0.9-0.4,1.2c-0.2,0.4-0.7,0.8-1.2,1.1c-1,0.6-2.1,1.2-3.4,1.5c-1.3,0.4-2.6,0.5-3.9,0.5
		C243.9,766.3,241.9,765.8,240.1,764.8z"/>
	<path class="st98" d="M279.2,760.5c0.3,0.4,0.4,0.8,0.4,1.4c0,0.9-0.6,1.7-1.8,2.4c-1.1,0.6-2.4,1.2-3.7,1.5
		c-1.3,0.4-2.6,0.5-3.9,0.5c-3.8,0-6.7-1.1-8.9-3.3c-2.2-2.2-3.3-5.2-3.3-9c0-2.4,0.5-4.6,1.4-6.5c1-1.9,2.3-3.3,4-4.4
		c1.7-1,3.7-1.6,5.9-1.6c3.2,0,5.7,1,7.5,3.1c1.8,2,2.8,4.8,2.8,8.3c0,1.3-0.6,1.9-1.8,1.9h-15c0.3,5,2.7,7.5,7.3,7.5
		c1.2,0,2.2-0.2,3.1-0.5c0.9-0.3,1.8-0.7,2.8-1.3c0.1-0.1,0.4-0.2,0.8-0.4c0.4-0.2,0.8-0.3,1.1-0.3
		C278.6,760,278.9,760.1,279.2,760.5z M265.1,747c-1.1,1.2-1.8,2.9-2,5.1h12.6c-0.1-2.2-0.7-3.9-1.7-5.1c-1-1.2-2.5-1.8-4.3-1.8
		C267.8,745.2,266.3,745.8,265.1,747z"/>
</g>
<g class="st97">
	<path class="st98" d="M303.5,743.2c1.6,1,2.9,2.5,3.7,4.4c0.9,1.9,1.3,4.1,1.3,6.5c0,2.4-0.4,4.6-1.3,6.4c-0.9,1.8-2.1,3.3-3.7,4.3
		c-1.6,1-3.4,1.5-5.5,1.5c-1.8,0-3.4-0.4-4.7-1.1c-1.4-0.8-2.4-1.9-3.1-3.3v10.9c0,0.7-0.2,1.2-0.7,1.6c-0.4,0.4-1,0.6-1.7,0.6
		c-0.7,0-1.4-0.2-1.8-0.6c-0.5-0.4-0.7-1-0.7-1.7v-28.5c0-0.7,0.2-1.3,0.7-1.7c0.5-0.4,1.1-0.7,1.8-0.7c0.7,0,1.3,0.2,1.8,0.7
		c0.5,0.4,0.7,1,0.7,1.7v2c0.7-1.4,1.8-2.5,3.1-3.3c1.4-0.8,2.9-1.2,4.7-1.2C300.1,741.6,301.9,742.1,303.5,743.2z M301.8,760.2
		c1.2-1.4,1.8-3.5,1.8-6.2c0-2.7-0.6-4.8-1.8-6.3c-1.2-1.5-2.8-2.2-4.9-2.2c-2.1,0-3.8,0.7-4.9,2.2c-1.2,1.5-1.7,3.5-1.7,6.2
		s0.6,4.8,1.7,6.2c1.2,1.5,2.8,2.2,4.9,2.2C299,762.4,300.7,761.7,301.8,760.2z"/>
</g>
<g class="st97">
	<path class="st98" d="M327.2,763c0.3,0.3,0.5,0.7,0.5,1.3c0,0.6-0.3,1.1-0.8,1.5c-0.5,0.3-1.2,0.5-2.2,0.4l-1.3-0.1
		c-2.6-0.2-4.6-1-5.9-2.4s-1.9-3.5-1.9-6.3V746h-2.9c-1.4,0-2.1-0.6-2.1-1.9c0-0.6,0.2-1,0.6-1.4c0.4-0.3,0.9-0.5,1.6-0.5h2.9v-5
		c0-0.7,0.2-1.3,0.7-1.8c0.4-0.4,1-0.6,1.8-0.6c0.7,0,1.3,0.2,1.8,0.6s0.7,1,0.7,1.8v5h4.8c0.7,0,1.2,0.2,1.6,0.5
		c0.4,0.3,0.6,0.8,0.6,1.4c0,0.6-0.2,1.1-0.6,1.4c-0.4,0.3-0.9,0.5-1.6,0.5h-4.8v11.8c0,1.5,0.3,2.6,0.9,3.4
		c0.6,0.7,1.6,1.1,2.9,1.2l1.4,0.1C326.3,762.5,326.8,762.7,327.2,763z"/>
	<path class="st98" d="M331.4,736.2c-0.6-0.5-0.8-1.2-0.8-2c0-0.8,0.3-1.5,0.8-2c0.6-0.5,1.3-0.8,2.2-0.8c0.9,0,1.6,0.3,2.2,0.8
		c0.6,0.5,0.9,1.2,0.9,2c0,0.8-0.3,1.5-0.8,2c-0.6,0.5-1.3,0.8-2.2,0.8C332.7,736.9,332,736.7,331.4,736.2z M331.9,765.6
		c-0.5-0.4-0.7-1-0.7-1.8v-19.8c0-0.8,0.2-1.4,0.7-1.8c0.5-0.4,1.1-0.6,1.8-0.6s1.3,0.2,1.8,0.6c0.5,0.4,0.7,1,0.7,1.8v19.8
		c0,0.8-0.2,1.4-0.7,1.8c-0.5,0.4-1,0.6-1.8,0.6S332.3,766,331.9,765.6z"/>
	<path class="st98" d="M347.1,764.8c-1.8-1-3.1-2.4-4.1-4.3c-1-1.9-1.4-4-1.4-6.5c0-2.5,0.5-4.7,1.4-6.5s2.3-3.3,4.1-4.3
		c1.8-1,3.8-1.5,6.2-1.5s4.4,0.5,6.2,1.5c1.8,1,3.1,2.4,4.1,4.3s1.4,4,1.4,6.5c0,2.5-0.5,4.6-1.4,6.5c-1,1.9-2.3,3.3-4.1,4.3
		c-1.8,1-3.8,1.5-6.2,1.5S348.9,765.8,347.1,764.8z M358.2,760.2c1.2-1.4,1.7-3.5,1.7-6.3c0-2.7-0.6-4.8-1.8-6.3s-2.8-2.2-5-2.2
		s-3.8,0.7-5,2.2c-1.2,1.4-1.8,3.5-1.8,6.3c0,2.8,0.6,4.8,1.7,6.3c1.2,1.4,2.8,2.1,5,2.1C355.4,762.4,357.1,761.7,358.2,760.2z"/>
	<path class="st98" d="M391.7,751.2v12.7c0,0.7-0.2,1.3-0.7,1.7c-0.4,0.4-1,0.6-1.8,0.6c-0.7,0-1.3-0.2-1.8-0.6
		c-0.4-0.4-0.7-1-0.7-1.7v-12.4c0-2-0.4-3.5-1.2-4.4c-0.8-0.9-2-1.4-3.7-1.4c-2,0-3.6,0.6-4.8,1.8c-1.2,1.2-1.8,2.9-1.8,5v11.4
		c0,0.7-0.2,1.3-0.7,1.7c-0.4,0.4-1,0.6-1.8,0.6s-1.3-0.2-1.8-0.6c-0.5-0.4-0.7-1-0.7-1.7V744c0-0.7,0.2-1.2,0.7-1.7
		c0.5-0.4,1.1-0.7,1.8-0.7s1.3,0.2,1.7,0.6c0.4,0.4,0.6,1,0.6,1.7v2c0.8-1.4,1.9-2.5,3.3-3.3s3-1.1,4.7-1.1
		C388.9,741.6,391.7,744.8,391.7,751.2z"/>
	<path class="st98" d="M398.6,764.2c-0.6-0.4-1-0.7-1.2-1.1c-0.2-0.4-0.4-0.8-0.4-1.3c0-0.5,0.1-1,0.4-1.3c0.3-0.4,0.7-0.5,1.1-0.5
		c0.4,0,1.1,0.3,2,0.8c1,0.5,1.9,0.9,2.8,1.3s2.1,0.5,3.5,0.5c1.6,0,2.8-0.3,3.6-0.8c0.9-0.6,1.3-1.3,1.3-2.3c0-0.6-0.2-1.2-0.5-1.6
		s-0.9-0.7-1.8-1c-0.8-0.3-2.1-0.6-3.7-1c-2.9-0.6-4.9-1.5-6.2-2.5c-1.2-1.1-1.9-2.5-1.9-4.3c0-1.4,0.4-2.7,1.2-3.8
		c0.8-1.1,1.9-2,3.4-2.6c1.4-0.6,3-0.9,4.9-0.9c1.3,0,2.6,0.2,3.8,0.5c1.2,0.3,2.3,0.8,3.3,1.5c1.1,0.7,1.6,1.5,1.6,2.5
		c0,0.5-0.2,1-0.5,1.3c-0.3,0.4-0.7,0.5-1.1,0.5c-0.3,0-0.6-0.1-0.9-0.2s-0.7-0.3-1.2-0.6c-0.9-0.5-1.7-0.9-2.5-1.2
		c-0.8-0.3-1.7-0.4-2.8-0.4c-1.4,0-2.5,0.3-3.3,0.9s-1.2,1.4-1.2,2.4c0,0.9,0.4,1.6,1.1,2.1c0.8,0.5,2.2,1,4.3,1.4
		c2.2,0.5,3.9,1,5.1,1.6c1.2,0.6,2.1,1.3,2.7,2.2c0.5,0.9,0.8,2,0.8,3.3c0,2.1-0.9,3.8-2.7,5.1c-1.8,1.3-4.1,1.9-7.1,1.9
		C403.4,766.3,400.7,765.6,398.6,764.2z"/>
	<path class="st98" d="M423.4,774.6c-0.4,0.2-0.8,0.4-1.2,0.4c-0.5,0-0.9-0.1-1.2-0.4c-0.3-0.3-0.5-0.7-0.5-1.1c0-0.4,0.1-0.7,0.2-1
		c2.6-6.2,3.8-12.6,3.8-19.3c0-6.7-1.3-13.1-3.8-19.3c-0.1-0.3-0.2-0.6-0.2-1c0-0.5,0.2-0.8,0.5-1.1c0.3-0.3,0.7-0.4,1.2-0.4
		c0.4,0,0.8,0.1,1.2,0.4s0.7,0.6,1,1c3.4,6.4,5.2,13.2,5.2,20.4c0,7.3-1.7,14.1-5.2,20.4C424.1,774,423.8,774.3,423.4,774.6z"/>
</g>
<g class="st97">
	<path class="st98" d="M157.7,219.4l-0.1,13.6c0,4.2-0.7,7.9-2,11.1c-1.3,3.2-3.1,5.8-5.3,7.8c-6,5.4-14.8,8.2-26.6,8.2
		c-11.7,0-20.8-2.8-27.3-8.5c-2.3-2-4.2-4.5-5.8-7.7c-1.6-3.2-2.5-6.7-2.8-10.7c0.2-13.5,0.2-26,0.2-37.5c-0.2,0-0.2-1.7-0.2-5.1
		c0-3.4,0.1-5.5,0.4-6.3h1c4.8-0.3,11.3-0.4,19.5-0.4c0.6,0.1,1.6,0.2,3.2,0.2c1.5,0,2.6,0.1,3.2,0.1l1.5,0.2
		c0.2,6.4,0.4,15.2,0.4,26.5l-0.3,19.5c0,6.5,1.9,9.7,5.6,9.7c1.6,0,2.9-0.7,4-2.1c1.1-1.4,1.7-3,1.7-4.7l0.2-0.5l0.1-16.4l0-1.5
		c0-7.5-0.1-14.8-0.3-21.8l-0.1-3.5c-0.1-1.4-0.1-2.7-0.1-3.8s0.2-1.9,0.5-2.3c12.5,0,21.9,0,28.3,0.1c0.2,0.2,0.5,0.4,0.9,0.6h0
		l0.5,0.3c-0.3,6.1-0.4,14-0.4,23.6v8.4L157.7,219.4z"/>
	<path class="st98" d="M166.8,224.9l0.1-20v-20.3c0.1,0,0.4,0,0.9,0h1.8c0.7,0,1.2,0,1.6-0.1l6-0.2c1.6-0.1,2.8-0.1,3.6-0.1h7.7
		l14.3-0.3c1.9,0,4.1,0.1,6.4,0.2h0.3c1.1-0.1,1.8-0.1,2.1-0.1c6.5,0,12,2.1,16.6,6.2c2.2,2,4,4.5,5.3,7.6s1.9,6.3,1.9,9.6
		s-0.3,6.1-1,8.5c-0.7,2.3-1.6,4.3-2.6,5.9c-4.3,6.5-12.5,10.4-24.8,11.5l-10.5,0.4c-0.3,7.8-0.5,13.8-0.5,18.1l0,1.5v3.9
		c-0.1,0.5-0.4,0.8-0.7,0.9l-27.7,0.4c-0.6-1.6-0.8-4-0.8-7.5V224.9z M209.3,204.1c-1.3-3.4-4.7-5.2-10.3-5.4c-0.8,0-1.9,0-3.4,0
		c-0.4,0-0.6,4.8-0.7,14.3l-0.1,3.6l0.1,2.9c4-0.1,7.5-0.9,10.5-2.5c3-1.6,4.5-4.6,4.5-8.8C210,206.3,209.7,205,209.3,204.1z"/>
</g>
<g class="st97">
	<path class="st98" d="M147.6,312.8c0,1.1-0.1,1.6-0.3,1.6l-17.6-0.1c-0.1,3.1-0.1,8-0.1,14.7c0,6.7,0,11.3,0,13.9l0.2,25.7
		c-0.2,0.5-0.5,0.7-1,0.7l-10.2-0.1l0,0l-3.2,0h-8.9c-2.4,0-4.2,0-5.4,0l-0.8-0.7c0,0-0.2-0.3-0.6-0.8c0-2.8,0.1-9.2,0.3-19
		l0.5-25.8l-0.1-1.2c-0.2-3.2-0.4-5.1-0.7-5.7c-0.2-0.6-0.6-0.9-1.2-1c-0.6,0-1.1-0.1-1.4-0.1l-1.9,0.1l-12-0.2
		c-0.4-0.8-0.6-2.7-0.6-5.7l0.1-4.3v-1.3c0-5.2-0.1-7.9-0.1-8.3c0.1,0,0.2,0,0.4,0.1l61.8-0.5c1.3,0,2.1,0.1,2.4,0.3
		c0.3,0.2,0.5,0.5,0.5,1V309L147.6,312.8z"/>
</g>
<g class="st97">
	<path class="st98" d="M146.5,331.5l0.1-1.1c0.4-4,0.9-7.6,1.6-10.8c0.6-3.1,1.7-6,3.2-8.8c3.5-6,8.3-10.5,14.5-13.6
		c6.2-3.1,12.9-4.6,20.1-4.6c7.2,0,13.7,1.4,19.5,4.3c3.5,1.7,6.2,3.9,8.2,6.5c3.8,4.7,6.3,9.1,7.5,13.1c1.2,4,1.8,8.6,1.8,13.8
		c0,11.6-2.4,20.4-7.2,26.5l-2.2,3c-3,3.5-7.3,6.2-12.8,8.1c-5.5,1.9-11,2.9-16.4,2.9c-9.3,0-16.9-1.9-22.8-5.8
		C151.6,358.5,146.5,347.3,146.5,331.5z M174.5,331.1c0,0,0,0.1,0,0.2v0.1c-0.1,1.4-0.2,2.9-0.2,4.6s0.1,3.5,0.4,5.3
		c0.3,1.9,0.7,3.8,1.4,5.6c0.6,1.9,1.6,3.4,2.9,4.6c1.4,1.2,3,1.8,4.8,1.8c1.8,0,3.3-0.2,4.5-0.8c1.2-0.5,2.2-1.1,3.1-1.9
		s1.5-1.8,2.2-3.2c1.6-3.5,2.3-9,2.3-16.4c0-7.5-0.9-12.8-2.6-15.9c-1.7-3-4.3-4.5-7.8-4.5c-1.7,0-3.3,0.4-4.6,1.3
		c-1.3,0.8-2.3,1.7-3,2.6c-0.7,0.9-1.3,2.8-2,5.8c-0.7,2.9-1,5.7-1,8.2L174.5,331.1z"/>
</g>
<g class="st97">
	<path class="st100" d="M382.5,196.5l-0.2,35.8c0,23.9,0.2,44.4,0.6,61.7l1.1,75.7c-2,1.9-7.3,2.8-15.7,2.8l-10.5-0.2h-2.1l-5,0.1
		h-5l-7.7,0.1c-8.2,0-16.3-0.1-24.4-0.4l-1.9-3c-0.8-1.1-1.2-3.7-1.2-7.7c0-4,0.3-30.3,1-79.1l0.5-33.4c-13.3,9.1-26.3,15.6-39,19.6
		c-0.6-0.1-0.9-0.4-1-1.1v-12.9l-0.1-5.5c0-21.4,0.2-32.1,0.5-32.2c0.3-0.1,1.5-0.8,3.6-1.9c2.1-1.1,4.4-2.2,7.1-3.3
		c2.7-1.1,4.3-1.8,4.8-2.2c0.5-0.4,1.2-0.8,1.9-1.1c20.9-10,33.6-18.6,38.3-25.8l37.5,0.7c7.5,0,13-0.2,16.6-0.5
		c0.2,0.5,0.4,2.8,0.4,6.8V196.5z"/>
</g>
<g class="st97">
	<path class="st100" d="M565.3,325.9c-9.1,24.5-26.9,40.1-53.3,46.5c-8.1,2-17,3-26.6,3c-9.6,0-18.6-1.2-27-3.7
		c-15.4-4.5-27.5-12.5-36.4-24.1c-8.9-11.6-14.7-25.2-17.4-40.9c-0.7-3.5-1.5-10.6-2.3-21.2l-0.6-8c0-38.2,11.8-65.8,35.3-82.9
		c13.7-9.9,30.8-15.9,51.3-17.9h1.7c27.9,0,48.9,8.8,62.9,26.3c14,17.5,21,43,21,76.6C574.1,295.4,571.2,310.7,565.3,325.9z
		 M504.3,224.9c-1.5-2.4-3.5-4.2-6-5.4c-2.5-1.3-5.4-1.9-8.7-1.9c-3.3,0-6.3,0.7-9,2.1c-2.6,1.4-4.8,3.2-6.6,5.3
		c-1.7,2.1-3.2,5-4.4,8.7c-3.2,9.7-4.9,23.4-4.9,40.8c0,16.7,0.4,27.5,1.3,32.2c1.9,10.2,4.4,17.6,7.6,22.1
		c3.2,4.5,7.7,6.7,13.5,6.7c9.2,0,15.6-4.7,19.1-14.1c3-8,4.5-20.2,4.5-36.6v-2.3c0.3-5,0.5-10.9,0.5-17.8c0-6.9-0.1-11.6-0.2-14.2
		c-0.2-2.6-0.4-5.6-0.9-9c-0.4-3.5-1.1-6.5-2.1-9.1C507.1,229.8,505.8,227.3,504.3,224.9z"/>
</g>
<g>
	<path class="st99" d="M699.1,214.5c12-5.2,17.7-19,12.7-31.1c-5.1-12.2-19.1-18-31.3-13c-12.2,5.1-18,19.1-12.9,31.3
		c2.5,6,7.1,10.4,12.7,12.8c-18.9,4.6-32.9,22.8-32.9,43H732C732,237.3,717.9,219.2,699.1,214.5"/>
	<path class="st99" d="M796.6,214.5c12-5.2,17.7-19,12.7-31.1c-5.1-12.2-19.1-18-31.3-13c-12.2,5.1-18,19.1-12.9,31.3
		c2.5,6,7.1,10.4,12.7,12.8c-18.9,4.6-32.9,22.8-32.9,43h84.7C829.5,237.3,815.4,219.2,796.6,214.5"/>
	<path class="st99" d="M894.1,214.5c12-5.2,17.7-19,12.7-31.1c-5.1-12.2-19.1-18-31.3-13c-12.2,5.1-18,19.1-12.9,31.3
		c2.5,6,7.1,10.4,12.7,12.8c-18.9,4.6-32.9,22.8-32.9,43H927C927,237.3,912.9,219.2,894.1,214.5"/>
	<path class="st99" d="M991.6,214.5c12-5.2,17.7-19,12.7-31.1c-5.1-12.2-19.1-18-31.3-13c-12.2,5.1-18,19.1-12.9,31.3
		c2.5,6,7.1,10.4,12.7,12.8c-18.9,4.6-32.9,22.8-32.9,43h84.7C1024.5,237.3,1010.4,219.2,991.6,214.5"/>
	<path class="st99" d="M1089.1,214.5c12-5.2,17.7-19,12.7-31.1c-5.1-12.2-19.1-18-31.3-13c-12.2,5.1-18,19.1-12.9,31.3
		c2.5,6,7.1,10.4,12.7,12.8c-18.9,4.6-32.9,22.8-32.9,43h84.7C1122,237.3,1107.9,219.2,1089.1,214.5"/>
	<path class="st99" d="M695.9,325.4c12-5.2,17.7-19,12.7-31.1c-5.1-12.2-19.1-18-31.3-13c-12.2,5.1-18,19.1-13,31.3
		c2.5,6,7.1,10.4,12.7,12.8c-18.9,4.7-32.9,22.8-32.9,43h84.7C728.8,348.2,714.8,330.1,695.9,325.4"/>
	<path class="st99" d="M793.4,325.4c12-5.2,17.7-19,12.7-31.1c-5.1-12.2-19.1-18-31.3-13c-12.2,5.1-18,19.1-12.9,31.3
		c2.5,6,7.1,10.4,12.7,12.8c-18.9,4.7-32.9,22.8-32.9,43h84.7C826.3,348.2,812.3,330.1,793.4,325.4"/>
	<path class="st99" d="M890.9,325.4c12-5.2,17.7-19,12.7-31.1c-5.1-12.2-19.1-18-31.3-13c-12.2,5.1-18,19.1-13,31.3
		c2.5,6,7.1,10.4,12.7,12.8c-18.9,4.7-32.9,22.8-32.9,43h84.7C923.9,348.2,909.8,330.1,890.9,325.4"/>
	<path class="st99" d="M988.5,325.4c12-5.2,17.7-19,12.7-31.1c-5.1-12.2-19.1-18-31.3-13c-12.2,5.1-18,19.1-12.9,31.3
		c2.5,6,7.1,10.4,12.7,12.8c-18.9,4.7-32.9,22.8-32.9,43h84.7C1021.4,348.2,1007.3,330.1,988.5,325.4"/>
	<path class="st99" d="M1086,325.4c12-5.2,17.7-19,12.7-31.1c-5.1-12.2-19.1-18-31.3-13c-12.2,5.1-18,19.1-13,31.3
		c2.5,6,7.1,10.4,12.7,12.8c-18.9,4.7-32.9,22.8-32.9,43h84.7C1118.9,348.2,1104.8,330.1,1086,325.4"/>
</g>
</svg>
