<?xml version="1.0" encoding="utf-8"?>
<!-- Generator: Adobe Illustrator 22.0.1, SVG Export Plug-In . SVG Version: 6.00 Build 0)  -->
<svg version="1.1" id="Layer_1" xmlns="http://www.w3.org/2000/svg" xmlns:xlink="http://www.w3.org/1999/xlink" x="0px" y="0px"
	 viewBox="0 0 1200 950" style="enable-background:new 0 0 1200 950;" xml:space="preserve">
<style type="text/css">
	.st0{clip-path:url(#SVGID_2_);fill:#FFFFFF;}
	.st1{clip-path:url(#SVGID_4_);fill:#D9F5F2;}
	.st2{enable-background:new    ;}
	.st3{fill:#00B9B0;}
	.st4{fill:#A1CC5E;}
	.st5{clip-path:url(#SVGID_6_);fill:#034F63;}
	.st6{fill:#FFFFFF;}
	.st7{fill:#034F63;}
	.st8{fill:none;stroke:#00B9B0;stroke-width:6;stroke-miterlimit:10;}
	.st9{clip-path:url(#SVGID_8_);fill:#025064;}
	.st10{clip-path:url(#SVGID_10_);fill:#C58570;}
	.st11{clip-path:url(#SVGID_12_);fill:#BC7057;}
	.st12{clip-path:url(#SVGID_14_);fill:#FFC906;}
	.st13{clip-path:url(#SVGID_16_);fill:#FFE174;}
	.st14{clip-path:url(#SVGID_18_);fill:#025064;}
	.st15{clip-path:url(#SVGID_20_);fill:#A0CD5E;}
	.st16{clip-path:url(#SVGID_22_);fill:#A0CD5E;}
	.st17{clip-path:url(#SVGID_24_);fill:#A0CD5E;}
	.st18{clip-path:url(#SVGID_26_);fill:#A0CD5E;}
	.st19{clip-path:url(#SVGID_28_);fill:#BC7057;}
	.st20{clip-path:url(#SVGID_30_);fill:#FFE174;}
	.st21{clip-path:url(#SVGID_32_);fill:#C58570;}
	.st22{clip-path:url(#SVGID_34_);fill:#FFC906;}
	.st23{clip-path:url(#SVGID_36_);fill:#FFC906;}
	.st24{clip-path:url(#SVGID_38_);fill:#FFC906;}
	.st25{clip-path:url(#SVGID_40_);fill:#25687A;}
	.st26{clip-path:url(#SVGID_42_);fill:#FFC906;}
	.st27{clip-path:url(#SVGID_44_);fill:#025064;}
	.st28{clip-path:url(#SVGID_46_);fill:#A0CD5E;}
	.st29{clip-path:url(#SVGID_48_);fill:#025064;}
	.st30{clip-path:url(#SVGID_50_);fill:#C8E2A2;}
	.st31{clip-path:url(#SVGID_52_);fill:#141B21;}
	.st32{clip-path:url(#SVGID_54_);fill:#C58570;}
	.st33{clip-path:url(#SVGID_56_);fill:#C8E2A2;}
	.st34{clip-path:url(#SVGID_58_);fill:#F9F2EA;}
	.st35{fill:none;stroke:#00B9B0;stroke-width:10;stroke-linecap:round;stroke-miterlimit:10;}
	.st36{fill:none;stroke:#00B9B0;stroke-width:8;stroke-linecap:round;stroke-miterlimit:10;}
</style>
<g>
	<g>
		<defs>
			<rect id="SVGID_1_" y="0" width="1200" height="950"/>
		</defs>
		<clipPath id="SVGID_2_">
			<use xlink:href="#SVGID_1_"  style="overflow:visible;"/>
		</clipPath>
		<path class="st0" d="M1200,930c0,0,0,20-20,20H20c0,0-20,0-20-20V20C0,20,0,0,20,0h1160c0,0,20,0,20,20V930z"/>
	</g>
</g>
<g>
	<g>
		<defs>
			<rect id="SVGID_3_" y="0" width="1200" height="950"/>
		</defs>
		<clipPath id="SVGID_4_">
			<use xlink:href="#SVGID_3_"  style="overflow:visible;"/>
		</clipPath>
		<path class="st1" d="M97.4,81c0,0-17.4,0-17.4,21v516.8c0,0,0,21,17.4,21h1005.2c0,0,17.4,0,17.4-21V102c0,0,0-21-17.4-21H97.4z"
			/>
	</g>
</g>
<g class="st2">
	<path class="st3" d="M146.7,187.8l0.1-14.2v-14.4c0,0,0.3,0,0.7,0h1.3c0.5,0,0.9,0,1.1-0.1l4.3-0.2c1.1,0,2-0.1,2.6-0.1h5.5
		l10.1-0.2c1.4,0,2.9,0.1,4.6,0.2h0.2c0.8,0,1.3-0.1,1.5-0.1c4.6,0,8.5,1.5,11.8,4.4c1.6,1.4,2.8,3.2,3.8,5.4
		c0.9,2.2,1.4,4.5,1.4,6.9c0,2.4-0.2,4.4-0.7,6c-0.5,1.7-1.1,3.1-1.9,4.2c-3,4.6-8.9,7.4-17.6,8.1l-7.5,0.3
		c-0.2,5.5-0.3,9.8-0.3,12.9l0,1.1v2.8c-0.1,0.3-0.3,0.5-0.5,0.7l-19.7,0.3c-0.4-1.1-0.6-2.9-0.6-5.3V187.8z M176.9,172.9
		c-0.9-2.4-3.4-3.7-7.3-3.9c-0.6,0-1.4,0-2.4,0c-0.3,0-0.4,3.4-0.5,10.2l-0.1,2.6l0.1,2.1c2.8,0,5.3-0.6,7.5-1.8
		c2.2-1.2,3.2-3.2,3.2-6.3C177.4,174.5,177.2,173.6,176.9,172.9z"/>
	<path class="st3" d="M249.3,198.8l0,4.1c0,1.7,0,4.5,0.1,8.2c-0.3,0.4-2.9,0.7-7.7,0.7c-4.8,0-9.1-0.1-12.8-0.2
		c0,0-0.3-0.3-0.7-0.9v-5.5l0.1-10.6c0-1-0.1-1.6-0.3-1.8c-0.2-0.2-0.9-0.3-2.1-0.3h-0.5c-2.2,0-3.9,0.1-5.2,0.3v4.8l-0.1,13.4
		c-0.3,0.4-3.2,0.6-8.7,0.6h-1.7c-4.7,0-8.1-0.1-10.3-0.2c-0.4-0.1-0.7-1.8-0.7-4.9l0.2-7.6l0.3-30.9v-1.7c0-0.3,0-1.5,0-3.6
		s0.1-3.4,0.4-3.9h0.2c1.5,0,2.6,0.1,3.3,0.1h3.9l4.2-0.1h1.3c3.9,0,6.2,0.4,6.8,1.3c0.3,0.5,0.5,1.2,0.5,2.1l-0.1,4.3v1.6l-0.2,6.8
		c0,0.5,0,1.2,0.1,2h2.1l0.9,0h2.8c1,0,2-0.1,3.1-0.2v-8.2l0-2.6v-2.4l0-0.6v-1.8c0-1.4,0.1-2.2,0.2-2.5c0.1-0.3,0.5-0.4,1-0.4
		l0.7,0h2.2l7.5-0.2c5.9,0,8.9,0.5,8.9,1.4v2.5l0,0.8l0,1.8v5.4l0.2,22c0,0.4,0,0.9-0.1,1.5v1.7c0,0.7,0,1.7,0.1,2.9V198.8z"/>
</g>
<g class="st2">
	<path class="st3" d="M305.3,158.5l1.1,0c0.2,0.1,0.4,0.4,0.5,0.9l-1,2v0l-2.2,4.3c-3.4,6.3-5.6,10.4-6.6,12.5l-1.2,2.2
		c-1.3,2.4-3.4,6.7-6.5,12.9c0,0.8-0.1,2-0.1,3.5v14.3c-0.1,0.4-0.3,0.6-0.7,0.6l-19.8,0.1c-0.5-0.6-0.8-1.4-0.8-2.2l0.1-4.3v-1l0-1
		l0-2.5c0-4.8-1.2-10-3.7-15.5c-0.5-1.2-1.3-2.8-2.3-4.9l-5.1-10.3c-0.1-0.3-0.5-1-1.1-2.1c-0.6-1.2-1.3-2.4-2-3.7v0
		c-1.8-2.8-2.8-4.7-2.8-5.6c0-0.1,0.4-0.2,1.1-0.2h8.9c4.9,0,8.6,0,11.1,0.1c0.7,0.1,2.7,5.7,5.8,16.6l1.6,5.5
		c2.3-6.3,4.8-13.6,7.4-22c0-0.2,1.7-0.3,5.1-0.3h4.4c1.1,0,1.9,0,2.7,0.1H305.3z"/>
</g>
<g class="st2">
	<path class="st3" d="M305.2,196.3l18.3-0.3c0.5,0,0.8,0.4,1.2,1.2c0.3,0.8,0.6,1.4,0.9,1.9c0.7,1.1,1.9,1.7,3.5,1.7s3-0.4,4-1.2
		c1-0.8,1.5-1.8,1.5-3s-0.3-2.1-0.9-2.5c-0.6-0.4-1.3-0.9-2-1.3c-0.7-0.4-1.8-0.8-3.3-1c-1.4-0.2-2.2-0.4-2.4-0.4h0.1l-2-0.5
		c-1.3-0.2-2.3-0.5-3.2-0.8c-5.5-1.5-9.5-3.3-11.9-5.6s-3.7-5.2-3.7-9c0-2.7,0.5-5.2,1.5-7.4s2.3-4,4-5.4c4.7-4,11.2-6,19.5-6
		c6.6,0,11.8,1.2,15.6,3.6h0c2.4,1.8,4.1,3.5,5,5.2c0.9,1.7,1.5,3.8,1.7,6.3l-0.9,0.9c-6.1,0.2-11.4,0.3-16.1,0.3
		c-1.4,0-2.2-0.4-2.5-1.2c-0.1-0.3-0.2-0.7-0.4-1c-0.3-0.8-1.4-1.2-3.1-1.2h-0.1c-1.4,0-2.5,0.3-3.5,0.9c-1,0.6-1.5,1.2-1.5,1.8
		c0,0.6,0.1,1.1,0.4,1.5c0.3,0.4,0.5,0.7,0.8,0.9c0.3,0.2,0.8,0.5,1.4,0.7c0.6,0.2,1.1,0.4,1.4,0.5c0.3,0.1,0.8,0.2,1.5,0.4l1.2,0.3
		c0.5,0.1,1.9,0.5,4.2,1c2.3,0.6,4.3,1.1,5.9,1.6v0c4.9,1.7,8.2,3.7,10,6.2s2.7,5.4,2.7,8.6c0,8.8-5.2,14.5-15.7,17.1
		c-3,0.8-6.3,1.3-9.7,1.6c-4.2,0-8.4-0.6-12.6-1.9c-4.1-1.2-6.9-3.3-8.3-6.1c-0.9-1.4-1.6-2.6-1.9-3.7c-0.3-1.1-0.6-2.7-0.8-4.8
		C304.9,196.3,305,196.3,305.2,196.3z"/>
	<path class="st3" d="M357.8,206.9c0-4.7,0.1-7.9,0.4-9.7c0-10,0.1-20.1,0.4-30.3c-0.1-1.5-0.1-2.9-0.1-4.4v-1.1
		c-0.1-0.7-0.1-1.3-0.1-1.9c0-0.6,0.1-0.9,0.2-1.1c4.9,0.3,9.2,0.4,12.9,0.4c3.7,0,6.2-0.1,7.6-0.2c0,0.1,0.1,0.3,0.1,0.6H379v12.5
		l0.2,28.1c0,0.2,0,0.4,0.1,0.5v0.1c0.1,0.1,0.1,0.3,0.1,0.4l0.3,10c-0.1,0.3-0.3,0.4-0.6,0.6h-1.2l-19.3,0.3
		c-0.2-0.1-0.5-0.3-0.9-0.5l0-0.6L357.8,206.9z"/>
	<path class="st3" d="M385,183.1c0.6-5.2,1.5-9.2,2.8-11.8c2.5-5.1,6.1-8.7,11-10.9c4.4-1.9,9.1-2.9,14.2-2.9c8.6,0,14.8,2.3,18.7,7
		c2.4,2.8,3.7,6.2,4.1,10.4l0.3,3.2c-0.4,0.4-2.9,0.6-7.4,0.6l-5.5-0.1h-0.4l-3-0.1l-0.8,0h-0.7c-0.6,0-1.1-0.9-1.5-2.8
		c-0.3-1.9-0.8-3.1-1.5-3.7c-0.7-0.6-1.5-0.9-2.4-0.9c-0.9,0-1.7,0.2-2.4,0.5c-0.7,0.3-1.2,0.7-1.7,1.2c-0.4,0.4-0.8,1.1-1.1,1.9
		c-0.6,1.4-0.9,2.9-1,4.5c-0.1,1.6-0.2,3.4-0.2,5.4v0.8l-0.1,3.5c0,6.4,1.8,9.6,5.4,9.7c0.9,0,1.6-0.2,1.9-0.5
		c1-0.9,1.9-2.6,2.6-5.3c0.2-0.6,0.4-1,0.6-1.3h1.3l1.6,0h5.6l1.7,0l3.3,0h2l2,0h1.4c0.3,0,0.5,0.3,0.6,0.7l-0.1,1.1
		c-0.2,2.7-0.8,5.2-1.9,7.4c-2,4.1-5,7.1-9.2,9c-4.2,2-8.8,3-13.8,3c-8.8,0-15.4-2.6-19.7-7.8C387.2,199.9,385,192.5,385,183.1z"/>
	<path class="st3" d="M495.6,211c0,0.3-0.7,0.4-1.9,0.4h-3.2l-2.1,0h-2.1l-3.3,0c-3.3,0-6.1-0.1-8.3-0.2c-0.1,0-0.2-0.2-0.2-0.4
		l-0.2-0.7c-0.2-2.4-0.7-4.7-1.6-6.9l-14.8,0.1c-0.1,0.4-0.4,1.6-0.9,3.5c-0.5,1.9-0.9,3.4-1.1,4.4c-0.2,0.2-1.3,0.3-3.3,0.3l-0.9,0
		h-2l-9,0.2h-1l-1,0h-2.4c-0.2-0.2-0.3-0.4-0.5-0.6c2.3-8,5.4-17.8,9.4-29.6l0.8-2.5h0l0.9-2.9c0.3-0.9,1.2-3.5,2.6-7.7
		c1.4-4.2,2.3-6.9,2.7-8.1s0.6-1.9,0.6-1.9h5.7l12.3-0.2l3.3,0.2l2.7-0.2c1.4,0,2.1,0.3,2.1,0.8c2.3,6.4,5.4,15.7,9.2,27.7
		c3.8,12.1,6,18.8,6.5,20.3l0.5,1.7C495.1,209.6,495.3,210.3,495.6,211z M461.5,192.1l1.4,0l8.2,0c-0.3-2.7-0.6-4.8-0.8-6l-1.3-5.9
		c-1.4-6.1-2.1-9.2-2.1-9.3c0-0.1-0.1-0.2-0.1-0.3c0-0.1-0.1-0.2-0.1-0.2c0,0-0.1-0.1-0.1-0.2c0-0.1-0.1-0.2-0.1-0.2
		c0,0-0.1-0.1-0.1-0.2c-0.2-0.3-0.5-0.5-1-0.7c-0.6,0.1-2.5,7.1-5.6,20.8l-0.4,2.3H461.5z"/>
	<path class="st3" d="M537.5,197.3c-0.2,0.6-0.2,1.3-0.2,2.1v0.8c0,1.2,0.1,2.1,0.2,2.6c0,3.5,0,6.2,0,8c-0.1,0.6-11.5,0.9-34.1,0.9
		c-1,0-2.8,0-5.1-0.1c-0.4-0.7-0.6-1.8-0.6-3.4l0.1-2.2v-7.8l0-6.6v-6.5l0-10.5c0-1.9,0-3.8-0.1-5.5v-0.4l-0.1-5
		c0-2.9,0.2-4.8,0.7-5.7c0.5,0,1.1,0,1.9,0h1.7l5.8-0.1c6.6,0,10.2,0.4,10.9,1.2l-0.3,12l-0.1,10.1l0,0.4l-0.1,14.4l1.4,0.8
		c4.2-0.3,8.2-0.4,12.1-0.4C535.5,196.7,537.4,196.9,537.5,197.3z"/>
	<path class="st3" d="M579.8,158.4l6.5-0.1c11.3,0,19.2,1.9,23.7,5.6c1,0.7,2,1.9,3.2,3.6c3.3,4.9,5,10.2,5,16.1
		c0,10.5-3.6,18.2-10.8,23.2c-4.3,3-9.3,4.5-14.8,4.6l-0.1,0.1h-0.9l-9.2-0.1c-4.2,0-9.4,0.1-15.6,0.3c-0.4-0.8-0.7-1.8-0.7-2.9
		l0-1.2v-5.4l0.1-7.7v-12.6c0-2.9-0.1-5.1-0.1-6.5v-5.7l0-0.8V159c0-0.2,1.3-0.3,3.8-0.5c2.5-0.1,4.5-0.2,6-0.2H579.8z M594.4,170.3
		c-1.3-0.9-2.8-1.5-4.3-1.6c-0.6,0-1.3,0-2.3-0.1c-1,0-1.7,0-2.1-0.1c-0.4,0.6-0.7,1.1-0.8,1.4l-0.6,1.3v1.9c0,4,0.1,9.4,0.3,16.2
		l0.2,10c0.1,0.7,0.6,1.1,1.4,1.3c2.4,0,4.2-0.2,5.5-0.5c4.5-1.6,6.8-7.1,6.8-16.5C598.4,176.6,597.1,172.2,594.4,170.3z"/>
	<path class="st3" d="M622.5,206.9c0-4.7,0.1-7.9,0.4-9.7c0-10,0.1-20.1,0.4-30.3c-0.1-1.5-0.1-2.9-0.1-4.4v-1.1
		c-0.1-0.7-0.1-1.3-0.1-1.9c0-0.6,0.1-0.9,0.2-1.1c4.9,0.3,9.2,0.4,12.9,0.4c3.7,0,6.2-0.1,7.6-0.2c0,0.1,0.1,0.3,0.1,0.6h-0.2v12.5
		l0.2,28.1c0,0.2,0,0.4,0.1,0.5v0.1c0.1,0.1,0.1,0.3,0.1,0.4l0.3,10c-0.1,0.3-0.3,0.4-0.6,0.6h-1.2l-19.3,0.3
		c-0.2-0.1-0.5-0.3-0.9-0.5l0-0.6L622.5,206.9z"/>
	<path class="st3" d="M650.1,196.3l18.3-0.3c0.5,0,0.8,0.4,1.2,1.2c0.3,0.8,0.6,1.4,0.9,1.9c0.7,1.1,1.9,1.7,3.5,1.7s3-0.4,4-1.2
		s1.5-1.8,1.5-3s-0.3-2.1-0.9-2.5c-0.6-0.4-1.3-0.9-2-1.3s-1.8-0.8-3.3-1c-1.4-0.2-2.2-0.4-2.4-0.4h0.1l-2-0.5
		c-1.3-0.2-2.3-0.5-3.2-0.8c-5.5-1.5-9.5-3.3-11.9-5.6c-2.5-2.2-3.7-5.2-3.7-9c0-2.7,0.5-5.2,1.5-7.4s2.3-4,4-5.4
		c4.7-4,11.2-6,19.5-6c6.6,0,11.8,1.2,15.6,3.6h0c2.4,1.8,4.1,3.5,5,5.2s1.5,3.8,1.7,6.3l-0.9,0.9c-6.1,0.2-11.4,0.3-16.1,0.3
		c-1.4,0-2.2-0.4-2.5-1.2c-0.1-0.3-0.2-0.7-0.4-1c-0.3-0.8-1.4-1.2-3.1-1.2h-0.1c-1.4,0-2.5,0.3-3.5,0.9c-1,0.6-1.5,1.2-1.5,1.8
		c0,0.6,0.1,1.1,0.4,1.5c0.3,0.4,0.5,0.7,0.8,0.9c0.3,0.2,0.8,0.5,1.4,0.7c0.6,0.2,1.1,0.4,1.4,0.5c0.3,0.1,0.8,0.2,1.5,0.4l1.2,0.3
		c0.5,0.1,1.9,0.5,4.2,1c2.3,0.6,4.3,1.1,5.9,1.6v0c4.9,1.7,8.2,3.7,10,6.2c1.8,2.5,2.7,5.4,2.7,8.6c0,8.8-5.2,14.5-15.7,17.1
		c-3,0.8-6.3,1.3-9.7,1.6c-4.2,0-8.4-0.6-12.6-1.9c-4.1-1.2-6.9-3.3-8.3-6.1c-0.9-1.4-1.6-2.6-1.9-3.7c-0.3-1.1-0.6-2.7-0.8-4.8
		C649.9,196.3,650,196.3,650.1,196.3z"/>
</g>
<g class="st2">
	<path class="st3" d="M745.3,171.4c0,0.8-0.1,1.1-0.2,1.1l-12.5-0.1c0,2.2-0.1,5.7-0.1,10.5c0,4.7,0,8,0,9.9l0.1,18.3
		c-0.1,0.3-0.3,0.5-0.7,0.5l-7.3-0.1l0,0l-2.3,0h-6.3c-1.7,0-3,0-3.8,0l-0.6-0.5c0,0-0.2-0.2-0.4-0.6c0-2,0.1-6.5,0.2-13.5l0.4-18.4
		l-0.1-0.9c-0.2-2.3-0.3-3.6-0.5-4.1c-0.2-0.4-0.4-0.7-0.9-0.7c-0.4,0-0.8-0.1-1-0.1l-1.4,0.1l-8.6-0.1c-0.3-0.6-0.4-1.9-0.4-4
		l0.1-3v-0.9c0-3.7-0.1-5.6-0.1-5.9c0,0,0.1,0,0.3,0.1l43.9-0.4c0.9,0,1.5,0.1,1.7,0.2c0.2,0.1,0.3,0.4,0.3,0.7v9.1L745.3,171.4z"/>
</g>
<g class="st2">
	<path class="st3" d="M799.3,211c0,0.3-0.7,0.4-1.9,0.4h-3.2l-2.1,0H790l-3.3,0c-3.3,0-6.1-0.1-8.3-0.2c-0.1,0-0.2-0.2-0.2-0.4
		l-0.2-0.7c-0.2-2.4-0.7-4.7-1.6-6.9l-14.8,0.1c-0.1,0.4-0.4,1.6-0.9,3.5c-0.5,1.9-0.9,3.4-1.1,4.4c-0.2,0.2-1.3,0.3-3.3,0.3l-0.9,0
		h-2l-9,0.2h-1l-1,0H740c-0.2-0.2-0.3-0.4-0.5-0.6c2.3-8,5.4-17.8,9.4-29.6l0.8-2.5h0l0.9-2.9c0.3-0.9,1.2-3.5,2.6-7.7
		c1.4-4.2,2.3-6.9,2.7-8.1c0.4-1.2,0.6-1.9,0.6-1.9h5.7l12.3-0.2l3.3,0.2l2.7-0.2c1.4,0,2.1,0.3,2.1,0.8c2.3,6.4,5.4,15.7,9.2,27.7
		c3.8,12.1,6,18.8,6.5,20.3l0.5,1.7C798.8,209.6,799,210.3,799.3,211z M765.2,192.1l1.4,0l8.3,0c-0.3-2.7-0.6-4.8-0.8-6l-1.3-5.9
		c-1.4-6.1-2.1-9.2-2.1-9.3c0-0.1-0.1-0.2-0.1-0.3c0-0.1-0.1-0.2-0.1-0.2c0,0-0.1-0.1-0.1-0.2c0-0.1-0.1-0.2-0.1-0.2
		c0,0-0.1-0.1-0.1-0.2c-0.2-0.3-0.5-0.5-1-0.7c-0.6,0.1-2.5,7.1-5.6,20.8l-0.4,2.3H765.2z"/>
	<path class="st3" d="M853.5,186.4l0,2.3v12.8l0.1,6.1v1.7l0,1.6c-0.1,0.2-0.7,0.3-1.7,0.3H851l-10.8,0.1c-4.6,0-8,0-10.3,0
		c-0.3-0.4-1.6-3.7-3.8-10l-6.6-17.5l-1.2,0.2l0,3.5v9.4l0.1,9.4v3.9c0,1-0.2,1.6-0.7,1.6c-2.3-0.1-4.5-0.1-6.5-0.1h-1.1l-5.2,0.1
		h-0.7l-2.5,0.1l-0.1-0.1c-0.8-0.7-1.1-1.2-1.1-1.6v-0.6l0-0.7l0.2-13.5c0-14.8,0.1-25.9,0.4-33.5l0.1-2.9c0-0.2,7.9-0.4,23.8-0.6
		c0.1,0.1,0.3,0.6,0.6,1.5v-0.1l0.2,0.7c1.7,4.9,3.8,10.5,6.2,16.8s3.7,9.5,3.7,9.7l1.2-0.1l0.1-28.1c0-0.2,1.7-0.3,5-0.3l8.7,0.2
		h2.6C853.4,166.3,853.5,175.5,853.5,186.4z"/>
	<path class="st3" d="M858.6,183.1c0.6-5.2,1.5-9.2,2.8-11.8c2.5-5.1,6.1-8.7,11-10.9c4.3-1.9,9.1-2.9,14.2-2.9
		c8.6,0,14.8,2.3,18.7,7c2.4,2.8,3.7,6.2,4.1,10.4l0.3,3.2c-0.4,0.4-2.9,0.6-7.4,0.6l-5.5-0.1h-0.4l-3-0.1l-0.8,0h-0.7
		c-0.6,0-1.1-0.9-1.5-2.8c-0.3-1.9-0.8-3.1-1.5-3.7c-0.7-0.6-1.5-0.9-2.4-0.9c-0.9,0-1.7,0.2-2.4,0.5c-0.7,0.3-1.2,0.7-1.7,1.2
		c-0.4,0.4-0.8,1.1-1.1,1.9c-0.6,1.4-0.9,2.9-1,4.5c-0.1,1.6-0.2,3.4-0.2,5.4v0.8l-0.1,3.5c0,6.4,1.8,9.6,5.4,9.7
		c0.9,0,1.6-0.2,1.9-0.5c1-0.9,1.9-2.6,2.6-5.3c0.2-0.6,0.4-1,0.6-1.3h1.3l1.6,0h5.6l1.7,0l3.3,0h2l2,0h1.4c0.3,0,0.5,0.3,0.6,0.7
		l-0.1,1.1c-0.2,2.7-0.8,5.2-1.9,7.4c-2,4.1-5,7.1-9.2,9c-4.2,2-8.8,3-13.8,3c-8.8,0-15.4-2.6-19.7-7.8
		C860.8,199.9,858.6,192.5,858.6,183.1z"/>
	<path class="st3" d="M914.2,206.9c0-4.7,0.1-7.9,0.4-9.7c0-10,0.1-20.1,0.4-30.3c-0.1-1.5-0.1-2.9-0.1-4.4v-1.1
		c-0.1-0.7-0.1-1.3-0.1-1.9c0-0.6,0.1-0.9,0.2-1.1c4.9,0.3,9.2,0.4,12.9,0.4c3.7,0,6.2-0.1,7.6-0.2c0,0.1,0.1,0.3,0.1,0.6h-0.2v12.5
		l0.2,28.1c0,0.2,0,0.4,0.1,0.5v0.1c0.1,0.1,0.1,0.3,0.1,0.4l0.3,10c-0.1,0.3-0.3,0.4-0.6,0.6h-1.2l-19.3,0.3
		c-0.2-0.1-0.5-0.3-0.9-0.5l0-0.6L914.2,206.9z"/>
	<path class="st3" d="M995.9,186.4l0,2.3v12.8l0.1,6.1v1.7l0,1.6c-0.1,0.2-0.7,0.3-1.7,0.3h-0.9l-10.8,0.1c-4.6,0-8,0-10.3,0
		c-0.3-0.4-1.6-3.7-3.8-10l-6.6-17.5l-1.2,0.2l0,3.5v9.4l0.1,9.4v3.9c0,1-0.2,1.6-0.7,1.6c-2.3-0.1-4.5-0.1-6.5-0.1h-1.1l-5.2,0.1
		h-0.7l-2.5,0.1l-0.1-0.1c-0.8-0.7-1.1-1.2-1.1-1.6v-0.6l0-0.7l0.2-13.5c0-14.8,0.1-25.9,0.4-33.5l0.1-2.9c0-0.2,7.9-0.4,23.8-0.6
		c0.1,0.1,0.3,0.6,0.6,1.5v-0.1l0.2,0.7c1.7,4.9,3.8,10.5,6.2,16.8s3.7,9.5,3.7,9.7l1.2-0.1l0.1-28.1c0-0.2,1.7-0.3,5-0.3l8.7,0.2
		h2.6C995.8,166.3,995.9,175.5,995.9,186.4z"/>
	<path class="st3" d="M1055,208.6c0,0,0,0.1,0,0.1l-0.1,0.3h0v0.1c0,0,0,0.1,0,0.1c-1.1,0.8-3.7,1.6-7.9,2.3c-4.2,0.7-7.1,1-8.7,1
		s-2.5,0-2.6,0l-1.8,0.1c-1.8,0.1-2.9,0.2-3.2,0.2c-9.7,0-17-2.4-22.1-7.3c-5.1-4.9-7.6-11.8-7.6-20.7c0-8.9,2.7-15.7,8.2-20.4
		c5.4-4.6,12.8-6.9,22.1-6.9c1.7,0,3.8,0.2,6.3,0.5c2.5,0.3,4.7,0.8,6.6,1.4c2.3,0.9,4.3,2.3,5.9,4.1s2.7,3.8,3.2,5.9
		c0.1,0.6,0.2,1.5,0.3,2.8c0.1,1.3,0.2,2.2,0.3,2.8c-0.1,0.3-0.6,0.5-1.5,0.5l-17.5-0.3c-0.1,0-0.2-0.4-0.3-0.9v0.1
		c-0.4-1.9-1.2-3-2.5-3.4c-0.6-0.2-1.3-0.3-2.2-0.3s-1.7,0.2-2.5,0.4c-0.8,0.3-1.5,0.7-2,1.2c-0.5,0.5-1,1.1-1.4,1.8
		c-0.4,0.7-0.7,1.5-0.9,2.3s-0.4,1.6-0.6,2.5c-0.2,0.9-0.3,1.7-0.3,2.5c0,0.8-0.1,1.6-0.1,2.4s0,1.4,0,1.9c0,0.5,0,0.8,0,1v2.4
		c0,1.5,0.1,2.5,0.2,3.1c0.1,0.6,0.3,1.2,0.5,1.9c0.2,0.7,0.4,1.2,0.7,1.6c0.9,1.3,1.9,2.1,2.9,2.6s2.7,0.7,4.9,0.7
		c2.2,0,4.3-0.3,6.3-1l0.2-5.5l-2.5-0.2l-0.3,0.2h-3.6l-0.4,0l-0.9-0.9c0-0.4-0.1-1-0.1-1.9v-7.7c0-0.4,0.3-0.8,0.8-1.2h2.3
		c2,0,4.2,0,6.7,0.1h0.3c2.3,0,4,0.1,5.1,0.1h2.1l0.8,0c4.1,0,6.4,0.3,7,0.8l-0.4,26.2V208.6z"/>
</g>
<g class="st2">
	<path class="st4" d="M348.3,307.5c-0.5-0.4-0.7-1-0.7-1.8c0-0.7,0.2-1.3,0.7-1.8c0.5-0.4,1.1-0.7,1.9-0.7c0.8,0,1.4,0.2,1.9,0.7
		c0.5,0.4,0.7,1,0.7,1.8c0,0.7-0.2,1.3-0.7,1.8c-0.5,0.5-1.1,0.7-1.9,0.7C349.4,308.2,348.7,308,348.3,307.5z M348.7,333.1
		c-0.4-0.3-0.6-0.8-0.6-1.5v-17.1c0-0.7,0.2-1.2,0.6-1.5c0.4-0.4,0.9-0.5,1.5-0.5c0.6,0,1.1,0.2,1.5,0.5c0.4,0.4,0.6,0.9,0.6,1.5
		v17.1c0,0.7-0.2,1.2-0.6,1.5c-0.4,0.3-0.9,0.5-1.5,0.5C349.6,333.6,349.1,333.4,348.7,333.1z"/>
	<path class="st4" d="M376.8,320.6v11c0,0.6-0.2,1.1-0.6,1.5s-0.9,0.5-1.6,0.5c-0.6,0-1.2-0.2-1.5-0.5s-0.6-0.9-0.6-1.5v-10.8
		c0-1.7-0.3-3-1-3.8c-0.7-0.8-1.8-1.2-3.2-1.2c-1.7,0-3.1,0.5-4.1,1.6c-1,1.1-1.6,2.5-1.6,4.3v9.9c0,0.6-0.2,1.1-0.6,1.5
		s-0.9,0.5-1.5,0.5c-0.6,0-1.2-0.2-1.6-0.5c-0.4-0.4-0.6-0.9-0.6-1.5v-17.2c0-0.6,0.2-1.1,0.6-1.5c0.4-0.4,0.9-0.6,1.5-0.6
		c0.6,0,1.1,0.2,1.5,0.5c0.4,0.4,0.5,0.8,0.5,1.4v1.7c0.7-1.2,1.6-2.2,2.8-2.8c1.2-0.6,2.6-1,4.1-1
		C374.3,312.2,376.8,315,376.8,320.6z"/>
	<path class="st4" d="M397.3,332.3c-1.5-0.9-2.7-2.1-3.5-3.7c-0.8-1.6-1.2-3.5-1.2-5.6c0-2.1,0.4-4,1.3-5.7c0.9-1.6,2.1-2.9,3.6-3.8
		c1.5-0.9,3.3-1.4,5.3-1.4c1.1,0,2.1,0.2,3.2,0.5c1.1,0.3,2,0.7,2.9,1.3c0.9,0.6,1.4,1.3,1.4,2.2c0,0.5-0.1,0.9-0.4,1.2
		c-0.3,0.3-0.6,0.5-1,0.5c-0.3,0-0.5-0.1-0.8-0.2c-0.3-0.1-0.6-0.3-1-0.6c-0.7-0.5-1.4-0.8-2-1c-0.6-0.2-1.3-0.4-2.2-0.4
		c-1.9,0-3.4,0.6-4.5,1.9c-1.1,1.3-1.6,3.1-1.6,5.4c0,2.3,0.5,4.1,1.6,5.3c1,1.3,2.5,1.9,4.4,1.9c0.8,0,1.6-0.1,2.2-0.4
		c0.6-0.3,1.3-0.6,2-1c0.3-0.2,0.6-0.4,0.9-0.5c0.3-0.1,0.6-0.2,0.8-0.2c0.4,0,0.7,0.2,1,0.5c0.3,0.3,0.4,0.7,0.4,1.2
		c0,0.4-0.1,0.8-0.3,1.1c-0.2,0.3-0.6,0.7-1.1,1c-0.8,0.6-1.8,1-3,1.3c-1.1,0.3-2.3,0.5-3.4,0.5
		C400.5,333.7,398.8,333.2,397.3,332.3z"/>
	<path class="st4" d="M417.7,332.3c-1.5-0.9-2.7-2.1-3.5-3.7c-0.8-1.6-1.2-3.5-1.2-5.6c0-2.2,0.4-4.1,1.2-5.7c0.8-1.6,2-2.9,3.5-3.7
		c1.5-0.9,3.3-1.3,5.3-1.3c2,0,3.8,0.4,5.3,1.3c1.5,0.9,2.7,2.1,3.5,3.7c0.8,1.6,1.2,3.5,1.2,5.7c0,2.1-0.4,4-1.2,5.6
		c-0.8,1.6-2,2.9-3.5,3.7c-1.5,0.9-3.3,1.3-5.3,1.3C421,333.7,419.3,333.2,417.7,332.3z M427.4,328.4c1-1.2,1.5-3.1,1.5-5.4
		c0-2.4-0.5-4.2-1.5-5.4c-1-1.3-2.4-1.9-4.3-1.9c-1.9,0-3.3,0.6-4.3,1.9c-1,1.3-1.5,3.1-1.5,5.4c0,2.4,0.5,4.2,1.5,5.4
		c1,1.2,2.4,1.9,4.3,1.9C424.9,330.3,426.4,329.7,427.4,328.4z"/>
	<path class="st4" d="M456.4,320.6v11c0,0.6-0.2,1.1-0.6,1.5s-0.9,0.5-1.6,0.5c-0.6,0-1.2-0.2-1.5-0.5s-0.6-0.9-0.6-1.5v-10.8
		c0-1.7-0.3-3-1-3.8c-0.7-0.8-1.8-1.2-3.2-1.2c-1.7,0-3.1,0.5-4.1,1.6c-1,1.1-1.6,2.5-1.6,4.3v9.9c0,0.6-0.2,1.1-0.6,1.5
		s-0.9,0.5-1.5,0.5c-0.6,0-1.2-0.2-1.6-0.5c-0.4-0.4-0.6-0.9-0.6-1.5v-17.2c0-0.6,0.2-1.1,0.6-1.5c0.4-0.4,0.9-0.6,1.5-0.6
		c0.6,0,1.1,0.2,1.5,0.5c0.4,0.4,0.5,0.8,0.5,1.4v1.7c0.7-1.2,1.6-2.2,2.8-2.8c1.2-0.6,2.6-1,4.1-1C454,312.2,456.4,315,456.4,320.6
		z"/>
	<path class="st4" d="M473.7,330.8c0.3,0.3,0.4,0.6,0.4,1.1c0,0.6-0.2,1-0.7,1.3c-0.4,0.3-1.1,0.4-1.9,0.4l-1.1-0.1
		c-2.3-0.2-4-0.9-5.1-2.1c-1.1-1.2-1.7-3-1.7-5.4V316H461c-1.2,0-1.9-0.5-1.9-1.6c0-0.5,0.2-0.9,0.5-1.2c0.3-0.3,0.8-0.4,1.4-0.4
		h2.5v-4.3c0-0.6,0.2-1.2,0.6-1.5c0.4-0.4,0.9-0.5,1.5-0.5c0.6,0,1.2,0.2,1.6,0.5c0.4,0.4,0.6,0.9,0.6,1.5v4.3h4.2
		c0.6,0,1,0.1,1.4,0.4c0.3,0.3,0.5,0.7,0.5,1.2c0,0.5-0.2,0.9-0.5,1.2c-0.3,0.3-0.8,0.4-1.4,0.4h-4.2v10.2c0,1.3,0.3,2.3,0.8,2.9
		s1.4,1,2.5,1.1l1.2,0.1C472.9,330.4,473.4,330.5,473.7,330.8z"/>
</g>
<g class="st2">
	<path class="st4" d="M490,314.1c0,0.6-0.2,1.1-0.5,1.4c-0.3,0.3-0.8,0.5-1.6,0.5l-1.3,0.1c-1.8,0.2-3.1,0.8-3.9,1.9
		c-0.9,1.1-1.3,2.4-1.3,3.9v9.7c0,0.7-0.2,1.2-0.6,1.5c-0.4,0.3-0.9,0.5-1.5,0.5c-0.6,0-1.1-0.2-1.5-0.5c-0.4-0.3-0.6-0.8-0.6-1.5
		v-17.2c0-0.6,0.2-1.1,0.6-1.5c0.4-0.4,0.9-0.5,1.5-0.5c0.6,0,1,0.2,1.4,0.5c0.4,0.4,0.6,0.8,0.6,1.5v2c0.6-1.2,1.4-2.2,2.4-2.8
		c1.1-0.6,2.3-1,3.6-1.1l0.6,0C489.3,312.2,490,312.8,490,314.1z"/>
</g>
<g class="st2">
	<path class="st4" d="M495.9,332.3c-1.5-0.9-2.7-2.1-3.5-3.7c-0.8-1.6-1.2-3.5-1.2-5.6c0-2.2,0.4-4.1,1.2-5.7c0.8-1.6,2-2.9,3.5-3.7
		c1.5-0.9,3.3-1.3,5.3-1.3c2,0,3.8,0.4,5.3,1.3c1.5,0.9,2.7,2.1,3.5,3.7c0.8,1.6,1.2,3.5,1.2,5.7c0,2.1-0.4,4-1.2,5.6
		c-0.8,1.6-2,2.9-3.5,3.7c-1.5,0.9-3.3,1.3-5.3,1.3C499.2,333.7,497.4,333.2,495.9,332.3z M505.5,328.4c1-1.2,1.5-3.1,1.5-5.4
		c0-2.4-0.5-4.2-1.5-5.4c-1-1.3-2.4-1.9-4.3-1.9c-1.9,0-3.3,0.6-4.3,1.9c-1,1.3-1.5,3.1-1.5,5.4c0,2.4,0.5,4.2,1.5,5.4
		c1,1.2,2.4,1.9,4.3,1.9C503.1,330.3,504.5,329.7,505.5,328.4z"/>
	<path class="st4" d="M516.7,333.1c-0.4-0.3-0.6-0.8-0.6-1.5v-26.1c0-0.7,0.2-1.2,0.6-1.5c0.4-0.4,0.9-0.5,1.5-0.5
		c0.6,0,1.1,0.2,1.5,0.5c0.4,0.4,0.6,0.9,0.6,1.5v26.1c0,0.7-0.2,1.2-0.6,1.5c-0.4,0.3-0.9,0.5-1.5,0.5
		C517.6,333.6,517.1,333.4,516.7,333.1z"/>
	<path class="st4" d="M526.9,333.1c-0.4-0.3-0.6-0.8-0.6-1.5v-26.1c0-0.7,0.2-1.2,0.6-1.5c0.4-0.4,0.9-0.5,1.5-0.5
		c0.6,0,1.1,0.2,1.5,0.5c0.4,0.4,0.6,0.9,0.6,1.5v26.1c0,0.7-0.2,1.2-0.6,1.5c-0.4,0.3-0.9,0.5-1.5,0.5
		C527.8,333.6,527.3,333.4,526.9,333.1z"/>
	<path class="st4" d="M553.6,328.6c0.3,0.3,0.4,0.7,0.4,1.2c0,0.8-0.5,1.5-1.5,2.1c-1,0.6-2.1,1-3.2,1.3c-1.2,0.3-2.3,0.5-3.4,0.5
		c-3.3,0-5.8-1-7.7-2.9c-1.9-1.9-2.8-4.5-2.8-7.8c0-2.1,0.4-4,1.2-5.6c0.8-1.6,2-2.9,3.5-3.8c1.5-0.9,3.2-1.4,5.1-1.4
		c2.8,0,4.9,0.9,6.5,2.7c1.6,1.8,2.4,4.2,2.4,7.2c0,1.1-0.5,1.7-1.5,1.7h-13c0.3,4.4,2.4,6.5,6.3,6.5c1,0,1.9-0.1,2.7-0.4
		s1.6-0.6,2.4-1.1c0.1-0.1,0.3-0.2,0.7-0.4c0.4-0.2,0.7-0.3,0.9-0.3C553,328.2,553.3,328.3,553.6,328.6z M541.3,316.9
		c-1,1-1.6,2.5-1.8,4.4h10.9c-0.1-1.9-0.6-3.4-1.5-4.4c-0.9-1-2.1-1.5-3.7-1.5C543.6,315.4,542.3,315.9,541.3,316.9z"/>
	<path class="st4" d="M577.2,303.9c0.4,0.4,0.6,0.9,0.6,1.5v26.1c0,0.6-0.2,1.2-0.6,1.5c-0.4,0.4-0.9,0.5-1.5,0.5
		c-0.6,0-1.2-0.2-1.5-0.5s-0.6-0.9-0.6-1.5v-1.7c-0.6,1.2-1.5,2.2-2.7,2.8s-2.5,1-4.1,1c-1.8,0-3.4-0.5-4.7-1.4
		c-1.4-0.9-2.5-2.2-3.3-3.8c-0.8-1.6-1.2-3.5-1.2-5.6c0-2.1,0.4-4,1.2-5.6c0.8-1.6,1.9-2.8,3.2-3.7c1.4-0.9,3-1.3,4.8-1.3
		c1.5,0,2.9,0.3,4.1,1c1.2,0.7,2.1,1.6,2.7,2.8v-10.7c0-0.6,0.2-1.1,0.6-1.4c0.4-0.4,0.9-0.5,1.5-0.5S576.8,303.6,577.2,303.9z
		 M572.1,328.4c1-1.3,1.5-3.1,1.5-5.4c0-2.3-0.5-4.1-1.5-5.4c-1-1.3-2.4-1.9-4.3-1.9s-3.3,0.6-4.3,1.9c-1,1.3-1.5,3-1.5,5.3
		s0.5,4.1,1.6,5.4c1,1.3,2.5,2,4.3,2C569.6,330.3,571.1,329.6,572.1,328.4z"/>
</g>
<g class="st2">
	<path class="st4" d="M365.1,378.3c0.3,0.3,0.4,0.7,0.4,1.2c0,0.8-0.5,1.5-1.5,2.1c-1,0.6-2.1,1-3.2,1.3c-1.2,0.3-2.3,0.5-3.4,0.5
		c-3.3,0-5.8-1-7.7-2.9c-1.9-1.9-2.8-4.5-2.8-7.8c0-2.1,0.4-4,1.2-5.6c0.8-1.6,2-2.9,3.5-3.8c1.5-0.9,3.2-1.4,5.1-1.4
		c2.8,0,4.9,0.9,6.5,2.7c1.6,1.8,2.4,4.2,2.4,7.2c0,1.1-0.5,1.7-1.5,1.7h-13c0.3,4.4,2.4,6.5,6.3,6.5c1,0,1.9-0.1,2.7-0.4
		s1.6-0.6,2.4-1.1c0.1-0.1,0.3-0.2,0.7-0.4c0.4-0.2,0.7-0.3,0.9-0.3C364.6,377.8,364.9,378,365.1,378.3z M352.9,366.6
		c-1,1-1.6,2.5-1.8,4.4H362c-0.1-1.9-0.6-3.4-1.5-4.4c-0.9-1-2.1-1.5-3.7-1.5C355.2,365,353.9,365.6,352.9,366.6z"/>
	<path class="st4" d="M388.9,370.2v11c0,0.6-0.2,1.1-0.6,1.5s-0.9,0.5-1.6,0.5c-0.6,0-1.2-0.2-1.5-0.5s-0.6-0.9-0.6-1.5v-10.8
		c0-1.7-0.3-3-1-3.8c-0.7-0.8-1.8-1.2-3.2-1.2c-1.7,0-3.1,0.5-4.1,1.6c-1,1.1-1.6,2.5-1.6,4.3v9.9c0,0.6-0.2,1.1-0.6,1.5
		s-0.9,0.5-1.5,0.5c-0.6,0-1.2-0.2-1.6-0.5c-0.4-0.4-0.6-0.9-0.6-1.5V364c0-0.6,0.2-1.1,0.6-1.5c0.4-0.4,0.9-0.6,1.5-0.6
		c0.6,0,1.1,0.2,1.5,0.5c0.4,0.4,0.5,0.8,0.5,1.4v1.7c0.7-1.2,1.6-2.2,2.8-2.8c1.2-0.6,2.6-1,4.1-1
		C386.4,361.9,388.9,364.7,388.9,370.2z"/>
</g>
<g class="st2">
	<path class="st4" d="M410.1,362.3c0.3-0.2,0.7-0.3,1-0.3c0.5,0,1,0.2,1.4,0.5c0.4,0.4,0.6,0.8,0.6,1.3c0,0.3-0.1,0.5-0.2,0.8
		l-8.1,17.1c-0.2,0.5-0.5,0.8-0.9,1c-0.4,0.2-0.8,0.4-1.3,0.4s-0.9-0.1-1.3-0.4c-0.4-0.2-0.7-0.6-0.9-1l-8.1-17.1
		c-0.1-0.2-0.2-0.5-0.2-0.8c0-0.5,0.2-0.9,0.7-1.3c0.5-0.4,1-0.5,1.5-0.5c0.8,0,1.4,0.4,1.8,1.2l6.5,14.5l6.5-14.5
		C409.6,362.8,409.8,362.5,410.1,362.3z"/>
</g>
<g class="st2">
	<path class="st4" d="M417.5,357.2c-0.5-0.4-0.7-1-0.7-1.8c0-0.7,0.2-1.3,0.7-1.8c0.5-0.4,1.1-0.7,1.9-0.7c0.8,0,1.4,0.2,1.9,0.7
		c0.5,0.4,0.7,1,0.7,1.8c0,0.7-0.2,1.3-0.7,1.8c-0.5,0.5-1.1,0.7-1.9,0.7C418.6,357.9,417.9,357.6,417.5,357.2z M417.9,382.7
		c-0.4-0.3-0.6-0.8-0.6-1.5v-17.1c0-0.7,0.2-1.2,0.6-1.5c0.4-0.4,0.9-0.5,1.5-0.5c0.6,0,1.1,0.2,1.5,0.5c0.4,0.4,0.6,0.9,0.6,1.5
		v17.1c0,0.7-0.2,1.2-0.6,1.5c-0.4,0.3-0.9,0.5-1.5,0.5C418.8,383.2,418.3,383.1,417.9,382.7z"/>
</g>
<g class="st2">
	<path class="st4" d="M440.4,363.7c0,0.6-0.2,1.1-0.5,1.4c-0.3,0.3-0.8,0.5-1.6,0.5l-1.3,0.1c-1.8,0.2-3.1,0.8-3.9,1.9
		c-0.9,1.1-1.3,2.4-1.3,3.9v9.7c0,0.7-0.2,1.2-0.6,1.5c-0.4,0.3-0.9,0.5-1.5,0.5c-0.6,0-1.1-0.2-1.5-0.5c-0.4-0.3-0.6-0.8-0.6-1.5
		V364c0-0.6,0.2-1.1,0.6-1.5c0.4-0.4,0.9-0.5,1.5-0.5c0.6,0,1,0.2,1.4,0.5c0.4,0.4,0.6,0.8,0.6,1.5v2c0.6-1.2,1.4-2.2,2.4-2.8
		c1.1-0.6,2.3-1,3.6-1.1l0.6,0C439.7,361.9,440.4,362.5,440.4,363.7z"/>
</g>
<g class="st2">
	<path class="st4" d="M446.2,382c-1.5-0.9-2.7-2.1-3.5-3.7c-0.8-1.6-1.2-3.5-1.2-5.6c0-2.2,0.4-4.1,1.2-5.7c0.8-1.6,2-2.9,3.5-3.7
		c1.5-0.9,3.3-1.3,5.3-1.3c2,0,3.8,0.4,5.3,1.3c1.5,0.9,2.7,2.1,3.5,3.7c0.8,1.6,1.2,3.5,1.2,5.7c0,2.1-0.4,4-1.2,5.6
		c-0.8,1.6-2,2.9-3.5,3.7c-1.5,0.9-3.3,1.3-5.3,1.3C449.5,383.3,447.7,382.9,446.2,382z M455.8,378.1c1-1.2,1.5-3.1,1.5-5.4
		c0-2.4-0.5-4.2-1.5-5.4c-1-1.3-2.4-1.9-4.3-1.9c-1.9,0-3.3,0.6-4.3,1.9c-1,1.3-1.5,3.1-1.5,5.4c0,2.4,0.5,4.2,1.5,5.4
		c1,1.2,2.4,1.9,4.3,1.9C453.4,379.9,454.8,379.3,455.8,378.1z"/>
	<path class="st4" d="M484.8,370.2v11c0,0.6-0.2,1.1-0.6,1.5s-0.9,0.5-1.6,0.5c-0.6,0-1.2-0.2-1.5-0.5s-0.6-0.9-0.6-1.5v-10.8
		c0-1.7-0.3-3-1-3.8c-0.7-0.8-1.8-1.2-3.2-1.2c-1.7,0-3.1,0.5-4.1,1.6c-1,1.1-1.6,2.5-1.6,4.3v9.9c0,0.6-0.2,1.1-0.6,1.5
		s-0.9,0.5-1.5,0.5c-0.6,0-1.2-0.2-1.6-0.5c-0.4-0.4-0.6-0.9-0.6-1.5V364c0-0.6,0.2-1.1,0.6-1.5c0.4-0.4,0.9-0.6,1.5-0.6
		c0.6,0,1.1,0.2,1.5,0.5c0.4,0.4,0.5,0.8,0.5,1.4v1.7c0.7-1.2,1.6-2.2,2.8-2.8c1.2-0.6,2.6-1,4.1-1
		C482.4,361.9,484.8,364.7,484.8,370.2z"/>
	<path class="st4" d="M521.2,370.2v11c0,0.6-0.2,1.1-0.6,1.5c-0.4,0.4-0.9,0.5-1.6,0.5c-0.6,0-1.1-0.2-1.5-0.5
		c-0.4-0.4-0.6-0.9-0.6-1.5v-10.9c0-1.7-0.3-3-0.9-3.7c-0.6-0.8-1.6-1.2-2.9-1.2c-1.5,0-2.8,0.5-3.7,1.6c-0.9,1.1-1.4,2.5-1.4,4.3
		v9.9c0,0.6-0.2,1.1-0.6,1.5c-0.4,0.4-0.9,0.5-1.6,0.5c-0.6,0-1.1-0.2-1.5-0.5s-0.6-0.9-0.6-1.5v-10.9c0-1.7-0.3-3-0.9-3.7
		c-0.6-0.8-1.6-1.2-2.9-1.2c-1.5,0-2.8,0.5-3.7,1.6c-0.9,1.1-1.4,2.5-1.4,4.3v9.9c0,0.6-0.2,1.1-0.6,1.5c-0.4,0.4-0.9,0.5-1.5,0.5
		c-0.6,0-1.1-0.2-1.5-0.5c-0.4-0.4-0.6-0.9-0.6-1.5V364c0-0.6,0.2-1.1,0.6-1.5c0.4-0.4,0.9-0.5,1.5-0.5c0.6,0,1.1,0.2,1.5,0.5
		c0.4,0.4,0.6,0.8,0.6,1.5v1.6c0.6-1.2,1.5-2.1,2.6-2.7c1.1-0.6,2.4-0.9,3.8-0.9c1.6,0,2.9,0.3,3.9,1c1,0.6,1.8,1.6,2.3,3
		c0.6-1.2,1.5-2.2,2.7-2.9c1.2-0.7,2.6-1.1,4.1-1.1C518.9,361.9,521.2,364.7,521.2,370.2z"/>
	<path class="st4" d="M544.2,378.3c0.3,0.3,0.4,0.7,0.4,1.2c0,0.8-0.5,1.5-1.5,2.1c-1,0.6-2.1,1-3.2,1.3c-1.2,0.3-2.3,0.5-3.4,0.5
		c-3.3,0-5.8-1-7.7-2.9c-1.9-1.9-2.8-4.5-2.8-7.8c0-2.1,0.4-4,1.2-5.6c0.8-1.6,2-2.9,3.5-3.8c1.5-0.9,3.2-1.4,5.1-1.4
		c2.8,0,4.9,0.9,6.5,2.7c1.6,1.8,2.4,4.2,2.4,7.2c0,1.1-0.5,1.7-1.5,1.7h-13c0.3,4.4,2.4,6.5,6.3,6.5c1,0,1.9-0.1,2.7-0.4
		s1.6-0.6,2.4-1.1c0.1-0.1,0.3-0.2,0.7-0.4c0.4-0.2,0.7-0.3,0.9-0.3C543.6,377.8,543.9,378,544.2,378.3z M531.9,366.6
		c-1,1-1.6,2.5-1.8,4.4H541c-0.1-1.9-0.6-3.4-1.5-4.4c-0.9-1-2.1-1.5-3.7-1.5C534.2,365,532.9,365.6,531.9,366.6z"/>
	<path class="st4" d="M567.9,370.2v11c0,0.6-0.2,1.1-0.6,1.5s-0.9,0.5-1.6,0.5c-0.6,0-1.2-0.2-1.5-0.5s-0.6-0.9-0.6-1.5v-10.8
		c0-1.7-0.3-3-1-3.8c-0.7-0.8-1.8-1.2-3.2-1.2c-1.7,0-3.1,0.5-4.1,1.6c-1,1.1-1.6,2.5-1.6,4.3v9.9c0,0.6-0.2,1.1-0.6,1.5
		s-0.9,0.5-1.5,0.5c-0.6,0-1.2-0.2-1.6-0.5c-0.4-0.4-0.6-0.9-0.6-1.5V364c0-0.6,0.2-1.1,0.6-1.5c0.4-0.4,0.9-0.6,1.5-0.6
		c0.6,0,1.1,0.2,1.5,0.5c0.4,0.4,0.5,0.8,0.5,1.4v1.7c0.7-1.2,1.6-2.2,2.8-2.8c1.2-0.6,2.6-1,4.1-1
		C565.4,361.9,567.9,364.7,567.9,370.2z"/>
	<path class="st4" d="M585.1,380.5c0.3,0.3,0.4,0.6,0.4,1.1c0,0.6-0.2,1-0.7,1.3c-0.4,0.3-1.1,0.4-1.9,0.4l-1.1-0.1
		c-2.3-0.2-4-0.9-5.1-2.1c-1.1-1.2-1.7-3-1.7-5.4v-9.9h-2.5c-1.2,0-1.9-0.5-1.9-1.6c0-0.5,0.2-0.9,0.5-1.2c0.3-0.3,0.8-0.4,1.4-0.4
		h2.5v-4.3c0-0.6,0.2-1.2,0.6-1.5c0.4-0.4,0.9-0.5,1.5-0.5c0.6,0,1.2,0.2,1.6,0.5c0.4,0.4,0.6,0.9,0.6,1.5v4.3h4.2
		c0.6,0,1,0.1,1.4,0.4c0.3,0.3,0.5,0.7,0.5,1.2c0,0.5-0.2,0.9-0.5,1.2c-0.3,0.3-0.8,0.4-1.4,0.4h-4.2v10.2c0,1.3,0.3,2.3,0.8,2.9
		s1.4,1,2.5,1.1l1.2,0.1C584.4,380,584.9,380.2,585.1,380.5z"/>
	<path class="st4" d="M588.7,381.5c-0.5-0.3-0.9-0.6-1.1-1c-0.2-0.3-0.3-0.7-0.3-1.1c0-0.4,0.1-0.8,0.4-1.1c0.3-0.3,0.6-0.5,1-0.5
		c0.4,0,0.9,0.2,1.7,0.7c0.8,0.5,1.7,0.8,2.5,1.1c0.8,0.3,1.8,0.4,3,0.4c1.4,0,2.4-0.2,3.2-0.7c0.8-0.5,1.1-1.2,1.1-2
		c0-0.6-0.1-1-0.4-1.4c-0.3-0.3-0.8-0.6-1.5-0.9c-0.7-0.3-1.8-0.6-3.3-0.9c-2.5-0.5-4.3-1.3-5.3-2.2c-1.1-0.9-1.6-2.2-1.6-3.7
		c0-1.2,0.4-2.3,1.1-3.3c0.7-1,1.7-1.7,2.9-2.3c1.2-0.5,2.6-0.8,4.2-0.8c1.1,0,2.2,0.1,3.3,0.4c1.1,0.3,2,0.7,2.8,1.3
		c0.9,0.6,1.4,1.3,1.4,2.2c0,0.5-0.1,0.8-0.4,1.1s-0.6,0.5-0.9,0.5c-0.3,0-0.5-0.1-0.8-0.2c-0.3-0.1-0.6-0.3-1-0.5
		c-0.8-0.4-1.5-0.8-2.1-1.1c-0.7-0.3-1.5-0.4-2.5-0.4c-1.2,0-2.1,0.3-2.8,0.8c-0.7,0.5-1.1,1.2-1.1,2.1c0,0.8,0.3,1.4,1,1.8
		s1.9,0.9,3.7,1.2c1.9,0.4,3.4,0.8,4.4,1.4c1.1,0.5,1.8,1.1,2.3,1.9c0.5,0.7,0.7,1.7,0.7,2.8c0,1.8-0.8,3.3-2.3,4.4
		c-1.5,1.1-3.6,1.7-6.1,1.7C592.9,383.3,590.6,382.7,588.7,381.5z"/>
</g>
<g class="st2">
	<path class="st4" d="M348.7,432.4c-0.4-0.3-0.6-0.8-0.6-1.5v-26.1c0-0.7,0.2-1.2,0.6-1.5c0.4-0.4,0.9-0.5,1.5-0.5
		c0.6,0,1.1,0.2,1.5,0.5c0.4,0.4,0.6,0.9,0.6,1.5v26.1c0,0.7-0.2,1.2-0.6,1.5c-0.4,0.3-0.9,0.5-1.5,0.5
		C349.6,432.9,349.1,432.7,348.7,432.4z"/>
	<path class="st4" d="M358.5,406.9c-0.5-0.4-0.7-1-0.7-1.8c0-0.7,0.2-1.3,0.7-1.8c0.5-0.4,1.1-0.7,1.9-0.7c0.8,0,1.4,0.2,1.9,0.7
		c0.5,0.4,0.7,1,0.7,1.8c0,0.7-0.2,1.3-0.7,1.8c-0.5,0.5-1.1,0.7-1.9,0.7C359.6,407.5,358.9,407.3,358.5,406.9z M358.9,432.4
		c-0.4-0.3-0.6-0.8-0.6-1.5v-17.1c0-0.7,0.2-1.2,0.6-1.5c0.4-0.4,0.9-0.5,1.5-0.5c0.6,0,1.1,0.2,1.5,0.5c0.4,0.4,0.6,0.9,0.6,1.5
		v17.1c0,0.7-0.2,1.2-0.6,1.5c-0.4,0.3-0.9,0.5-1.5,0.5C359.8,432.9,359.3,432.7,358.9,432.4z"/>
</g>
<g class="st2">
	<path class="st4" d="M386.5,430.9c0,0.5-0.2,1-0.5,1.4c-0.4,0.4-0.8,0.6-1.3,0.6c-0.5,0-1-0.2-1.4-0.6l-10.5-9.3v7.8
		c0,0.7-0.2,1.2-0.6,1.5c-0.4,0.4-0.9,0.5-1.5,0.5c-0.6,0-1.1-0.2-1.5-0.5c-0.4-0.4-0.6-0.9-0.6-1.5v-26c0-0.7,0.2-1.2,0.6-1.5
		c0.4-0.4,0.9-0.5,1.5-0.5c0.6,0,1.1,0.2,1.5,0.5c0.4,0.4,0.6,0.9,0.6,1.5v16.5l9.6-9c0.5-0.4,0.9-0.6,1.4-0.6c0.5,0,1,0.2,1.4,0.6
		c0.4,0.4,0.6,0.9,0.6,1.4c0,0.5-0.2,1-0.7,1.5l-7.5,6.9l8.3,7.3C386.3,429.8,386.5,430.3,386.5,430.9z"/>
</g>
<g class="st2">
	<path class="st4" d="M407,428c0.3,0.3,0.4,0.7,0.4,1.2c0,0.8-0.5,1.5-1.5,2.1c-1,0.6-2.1,1-3.2,1.3c-1.2,0.3-2.3,0.5-3.4,0.5
		c-3.3,0-5.8-1-7.7-2.9c-1.9-1.9-2.8-4.5-2.8-7.8c0-2.1,0.4-4,1.2-5.6c0.8-1.6,2-2.9,3.5-3.8c1.5-0.9,3.2-1.4,5.1-1.4
		c2.8,0,4.9,0.9,6.5,2.7c1.6,1.8,2.4,4.2,2.4,7.2c0,1.1-0.5,1.7-1.5,1.7h-13c0.3,4.4,2.4,6.5,6.3,6.5c1,0,1.9-0.1,2.7-0.4
		s1.6-0.6,2.4-1.1c0.1-0.1,0.3-0.2,0.7-0.4c0.4-0.2,0.7-0.3,0.9-0.3C406.5,427.5,406.8,427.7,407,428z M394.8,416.3
		c-1,1-1.6,2.5-1.8,4.4h10.9c-0.1-1.9-0.6-3.4-1.5-4.4c-0.9-1-2.1-1.5-3.7-1.5C397.1,414.7,395.8,415.2,394.8,416.3z"/>
	<path class="st4" d="M423.5,431.2c-0.5-0.3-0.9-0.6-1.1-1c-0.2-0.3-0.3-0.7-0.3-1.1c0-0.4,0.1-0.8,0.4-1.1c0.3-0.3,0.6-0.5,1-0.5
		c0.4,0,0.9,0.2,1.7,0.7c0.8,0.5,1.7,0.8,2.5,1.1c0.8,0.3,1.8,0.4,3,0.4c1.4,0,2.4-0.2,3.2-0.7c0.8-0.5,1.1-1.2,1.1-2
		c0-0.6-0.1-1-0.4-1.4s-0.8-0.6-1.5-0.9c-0.7-0.3-1.8-0.6-3.3-0.9c-2.5-0.5-4.3-1.3-5.3-2.2c-1.1-0.9-1.6-2.2-1.6-3.7
		c0-1.2,0.4-2.3,1.1-3.3c0.7-1,1.7-1.7,2.9-2.3c1.2-0.5,2.6-0.8,4.2-0.8c1.1,0,2.2,0.1,3.3,0.4c1.1,0.3,2,0.7,2.8,1.3
		c0.9,0.6,1.4,1.3,1.4,2.2c0,0.5-0.1,0.8-0.4,1.1c-0.3,0.3-0.6,0.5-1,0.5c-0.3,0-0.5-0.1-0.8-0.2c-0.3-0.1-0.6-0.3-1-0.5
		c-0.8-0.4-1.5-0.8-2.1-1.1c-0.7-0.3-1.5-0.4-2.5-0.4c-1.2,0-2.1,0.3-2.9,0.8c-0.7,0.5-1.1,1.2-1.1,2.1c0,0.8,0.3,1.4,1,1.8
		c0.7,0.4,1.9,0.9,3.7,1.2c1.9,0.4,3.4,0.8,4.4,1.4c1.1,0.5,1.8,1.1,2.3,1.9c0.5,0.7,0.7,1.7,0.7,2.8c0,1.8-0.8,3.3-2.3,4.4
		c-1.5,1.1-3.6,1.7-6.1,1.7C427.7,433,425.4,432.4,423.5,431.2z"/>
	<path class="st4" d="M447.3,431.7c-1.5-0.9-2.7-2.1-3.5-3.7c-0.8-1.6-1.2-3.5-1.2-5.6c0-2.1,0.4-4,1.3-5.7c0.9-1.6,2.1-2.9,3.6-3.8
		c1.5-0.9,3.3-1.4,5.3-1.4c1.1,0,2.1,0.2,3.2,0.5c1.1,0.3,2,0.7,2.9,1.3c0.9,0.6,1.4,1.3,1.4,2.2c0,0.5-0.1,0.9-0.4,1.2
		c-0.3,0.3-0.6,0.5-1,0.5c-0.3,0-0.5-0.1-0.8-0.2c-0.3-0.1-0.6-0.3-1-0.6c-0.7-0.5-1.4-0.8-2-1c-0.6-0.2-1.3-0.4-2.2-0.4
		c-1.9,0-3.4,0.6-4.5,1.9c-1.1,1.3-1.6,3.1-1.6,5.4c0,2.3,0.5,4.1,1.6,5.3c1,1.3,2.5,1.9,4.4,1.9c0.8,0,1.6-0.1,2.2-0.4
		c0.6-0.3,1.3-0.6,2-1c0.3-0.2,0.6-0.4,0.9-0.5c0.3-0.1,0.6-0.2,0.8-0.2c0.4,0,0.7,0.2,1,0.5c0.3,0.3,0.4,0.7,0.4,1.2
		c0,0.4-0.1,0.8-0.3,1.1c-0.2,0.3-0.6,0.7-1.1,1c-0.8,0.6-1.8,1-3,1.3c-1.1,0.3-2.3,0.5-3.4,0.5C450.6,433,448.8,432.6,447.3,431.7z
		"/>
	<path class="st4" d="M482.7,419.9v11c0,0.6-0.2,1.1-0.6,1.5c-0.4,0.4-0.9,0.5-1.6,0.5c-0.6,0-1.2-0.2-1.5-0.5s-0.6-0.9-0.6-1.5
		v-10.9c0-1.7-0.3-2.9-1-3.7c-0.7-0.8-1.8-1.2-3.2-1.2c-1.7,0-3.1,0.5-4.1,1.6c-1,1.1-1.6,2.5-1.6,4.3v9.9c0,0.6-0.2,1.1-0.6,1.5
		s-0.9,0.5-1.5,0.5c-0.6,0-1.2-0.2-1.6-0.5c-0.4-0.4-0.6-0.9-0.6-1.5v-26.1c0-0.6,0.2-1.1,0.6-1.5c0.4-0.4,0.9-0.5,1.6-0.5
		c0.6,0,1.1,0.2,1.5,0.5c0.4,0.4,0.6,0.8,0.6,1.4v10.6c0.7-1.2,1.6-2.1,2.8-2.7c1.2-0.6,2.5-0.9,4.1-0.9
		C480.2,411.6,482.7,414.4,482.7,419.9z"/>
	<path class="st4" d="M492.1,431.7c-1.5-0.9-2.7-2.1-3.5-3.7c-0.8-1.6-1.2-3.5-1.2-5.6c0-2.2,0.4-4.1,1.2-5.7c0.8-1.6,2-2.9,3.5-3.7
		c1.5-0.9,3.3-1.3,5.3-1.3c2,0,3.8,0.4,5.3,1.3c1.5,0.9,2.7,2.1,3.5,3.7c0.8,1.6,1.2,3.5,1.2,5.7c0,2.1-0.4,4-1.2,5.6
		c-0.8,1.6-2,2.9-3.5,3.7c-1.5,0.9-3.3,1.3-5.3,1.3C495.4,433,493.6,432.6,492.1,431.7z M501.8,427.8c1-1.2,1.5-3.1,1.5-5.4
		c0-2.4-0.5-4.2-1.5-5.4c-1-1.3-2.4-1.9-4.3-1.9c-1.9,0-3.3,0.6-4.3,1.9c-1,1.3-1.5,3.1-1.5,5.4c0,2.4,0.5,4.2,1.5,5.4
		c1,1.2,2.4,1.9,4.3,1.9C499.3,429.6,500.8,429,501.8,427.8z"/>
	<path class="st4" d="M515.9,431.7c-1.5-0.9-2.7-2.1-3.5-3.7c-0.8-1.6-1.2-3.5-1.2-5.6c0-2.2,0.4-4.1,1.2-5.7c0.8-1.6,2-2.9,3.5-3.7
		c1.5-0.9,3.3-1.3,5.3-1.3c2,0,3.8,0.4,5.3,1.3c1.5,0.9,2.7,2.1,3.5,3.7c0.8,1.6,1.2,3.5,1.2,5.7c0,2.1-0.4,4-1.2,5.6
		c-0.8,1.6-2,2.9-3.5,3.7c-1.5,0.9-3.3,1.3-5.3,1.3C519.2,433,517.4,432.6,515.9,431.7z M525.6,427.8c1-1.2,1.5-3.1,1.5-5.4
		c0-2.4-0.5-4.2-1.5-5.4c-1-1.3-2.4-1.9-4.3-1.9c-1.9,0-3.3,0.6-4.3,1.9c-1,1.3-1.5,3.1-1.5,5.4c0,2.4,0.5,4.2,1.5,5.4
		c1,1.2,2.4,1.9,4.3,1.9C523.1,429.6,524.6,429,525.6,427.8z"/>
	<path class="st4" d="M536.7,432.4c-0.4-0.3-0.6-0.8-0.6-1.5v-26.1c0-0.7,0.2-1.2,0.6-1.5c0.4-0.4,0.9-0.5,1.5-0.5s1.1,0.2,1.5,0.5
		c0.4,0.4,0.6,0.9,0.6,1.5v26.1c0,0.7-0.2,1.2-0.6,1.5c-0.4,0.3-0.9,0.5-1.5,0.5S537.1,432.7,536.7,432.4z"/>
	<path class="st4" d="M546.4,431.2c-0.5-0.3-0.9-0.6-1.1-1c-0.2-0.3-0.3-0.7-0.3-1.1c0-0.4,0.1-0.8,0.4-1.1c0.3-0.3,0.6-0.5,1-0.5
		c0.4,0,0.9,0.2,1.7,0.7c0.8,0.5,1.7,0.8,2.5,1.1c0.8,0.3,1.8,0.4,3,0.4c1.4,0,2.4-0.2,3.2-0.7c0.8-0.5,1.1-1.2,1.1-2
		c0-0.6-0.1-1-0.4-1.4s-0.8-0.6-1.5-0.9c-0.7-0.3-1.8-0.6-3.3-0.9c-2.5-0.5-4.3-1.3-5.3-2.2c-1.1-0.9-1.6-2.2-1.6-3.7
		c0-1.2,0.4-2.3,1.1-3.3c0.7-1,1.7-1.7,2.9-2.3c1.2-0.5,2.6-0.8,4.2-0.8c1.1,0,2.2,0.1,3.3,0.4c1.1,0.3,2,0.7,2.8,1.3
		c0.9,0.6,1.4,1.3,1.4,2.2c0,0.5-0.1,0.8-0.4,1.1s-0.6,0.5-0.9,0.5c-0.3,0-0.5-0.1-0.8-0.2c-0.3-0.1-0.6-0.3-1-0.5
		c-0.8-0.4-1.5-0.8-2.1-1.1c-0.7-0.3-1.5-0.4-2.5-0.4c-1.2,0-2.1,0.3-2.8,0.8c-0.7,0.5-1.1,1.2-1.1,2.1c0,0.8,0.3,1.4,1,1.8
		s1.9,0.9,3.7,1.2c1.9,0.4,3.4,0.8,4.4,1.4c1.1,0.5,1.8,1.1,2.3,1.9c0.5,0.7,0.7,1.7,0.7,2.8c0,1.8-0.8,3.3-2.3,4.4
		c-1.5,1.1-3.6,1.7-6.1,1.7C550.6,433,548.3,432.4,546.4,431.2z"/>
	<path class="st4" d="M602.9,431.3c0,0.5-0.2,0.9-0.5,1.2c-0.4,0.4-0.8,0.5-1.3,0.5s-0.9-0.2-1.3-0.5l-3.7-3.8
		c-1.3,1.4-2.8,2.4-4.4,3.2c-1.6,0.7-3.4,1.1-5.2,1.1c-1.9,0-3.6-0.3-5.1-1c-1.5-0.6-2.7-1.6-3.5-2.8s-1.2-2.6-1.2-4.2
		c0-1.8,0.5-3.5,1.6-4.9c1.1-1.4,2.8-2.8,5.1-4.1c-1.2-1.2-2-2.4-2.6-3.4c-0.6-1.1-0.8-2.2-0.8-3.3c0-2.1,0.7-3.7,2.2-4.9
		c1.4-1.2,3.3-1.8,5.5-1.8c2.1,0,3.8,0.6,5.1,1.7c1.3,1.1,1.9,2.6,1.9,4.5c0,1.5-0.5,2.9-1.4,4.1c-0.9,1.2-2.4,2.4-4.4,3.6l6.6,6.7
		c0.9-1.9,1.4-4.1,1.6-6.7c0-0.6,0.2-1,0.6-1.4c0.4-0.3,0.8-0.5,1.3-0.5c0.5,0,0.9,0.2,1.3,0.5s0.5,0.8,0.4,1.5
		c-0.3,3.5-1.2,6.5-2.7,9.2l4.1,4.2C602.7,430.4,602.9,430.8,602.9,431.3z M590.5,428.8c1.2-0.6,2.3-1.4,3.2-2.5l-7.9-7.9
		c-1.7,1-3,2.1-3.7,3.1s-1.1,2.1-1.1,3.4c0,1.5,0.5,2.7,1.6,3.5c1.1,0.8,2.5,1.3,4.2,1.3C588.1,429.7,589.3,429.4,590.5,428.8z
		 M585.1,406.7c-0.7,0.7-1,1.5-1,2.6c0,0.8,0.2,1.5,0.6,2.3s1.1,1.6,2.1,2.6c1.6-1,2.8-1.9,3.4-2.7c0.7-0.8,1-1.6,1-2.6
		c0-1-0.3-1.8-0.9-2.4c-0.6-0.6-1.4-0.9-2.4-0.9C586.7,405.7,585.8,406,585.1,406.7z"/>
</g>
<g class="st2">
	<path class="st4" d="M377.8,461.4c0.5,0,1,0.2,1.4,0.5c0.4,0.4,0.6,0.8,0.6,1.4c0,0.3-0.1,0.5-0.2,0.8l-7,17.1
		c-0.2,0.5-0.5,0.8-0.8,1c-0.4,0.2-0.8,0.4-1.3,0.4c-0.5,0-0.9-0.1-1.3-0.4c-0.4-0.2-0.7-0.6-0.8-1l-5.5-13.6l-5.4,13.6
		c-0.2,0.5-0.4,0.8-0.8,1c-0.4,0.2-0.8,0.4-1.3,0.4c-0.5,0-0.9-0.1-1.3-0.4c-0.4-0.2-0.7-0.6-0.9-1l-7-17.1
		c-0.1-0.2-0.2-0.5-0.2-0.7c0-0.6,0.2-1,0.7-1.4c0.5-0.4,1-0.5,1.5-0.5c0.8,0,1.4,0.4,1.7,1.2l5.4,14.4l5.6-14.3
		c0.2-0.4,0.4-0.8,0.8-1c0.4-0.2,0.8-0.3,1.2-0.3c0.4,0,0.8,0.1,1.1,0.3s0.6,0.6,0.8,1l5.6,14.2l5.4-14.3
		C376.4,461.8,377,461.4,377.8,461.4z"/>
</g>
<g class="st2">
	<path class="st4" d="M387.2,481.3c-1.5-0.9-2.7-2.1-3.5-3.7c-0.8-1.6-1.2-3.5-1.2-5.6c0-2.2,0.4-4.1,1.2-5.7c0.8-1.6,2-2.9,3.5-3.7
		c1.5-0.9,3.3-1.3,5.3-1.3c2,0,3.8,0.4,5.3,1.3c1.5,0.9,2.7,2.1,3.5,3.7c0.8,1.6,1.2,3.5,1.2,5.7c0,2.1-0.4,4-1.2,5.6
		c-0.8,1.6-2,2.9-3.5,3.7c-1.5,0.9-3.3,1.3-5.3,1.3C390.5,482.7,388.7,482.2,387.2,481.3z M396.8,477.4c1-1.2,1.5-3.1,1.5-5.4
		c0-2.4-0.5-4.2-1.5-5.4c-1-1.3-2.4-1.9-4.3-1.9c-1.9,0-3.3,0.6-4.3,1.9c-1,1.3-1.5,3.1-1.5,5.4c0,2.4,0.5,4.2,1.5,5.4
		c1,1.2,2.4,1.9,4.3,1.9C394.4,479.3,395.8,478.7,396.8,477.4z"/>
	<path class="st4" d="M420.2,463.1c0,0.6-0.2,1.1-0.5,1.4c-0.3,0.3-0.8,0.5-1.6,0.5l-1.3,0.1c-1.8,0.2-3.1,0.8-3.9,1.9
		c-0.9,1.1-1.3,2.4-1.3,3.9v9.7c0,0.7-0.2,1.2-0.6,1.5c-0.4,0.3-0.9,0.5-1.5,0.5c-0.6,0-1.1-0.2-1.5-0.5c-0.4-0.3-0.6-0.8-0.6-1.5
		v-17.2c0-0.6,0.2-1.1,0.6-1.5c0.4-0.4,0.9-0.5,1.5-0.5c0.6,0,1,0.2,1.4,0.5c0.4,0.4,0.6,0.8,0.6,1.5v2c0.6-1.2,1.4-2.2,2.4-2.8
		c1.1-0.6,2.3-1,3.6-1.1l0.6,0C419.5,461.3,420.2,461.8,420.2,463.1z"/>
	<path class="st4" d="M440.9,480.6c0,0.5-0.2,1-0.5,1.4c-0.4,0.4-0.8,0.6-1.3,0.6c-0.5,0-1-0.2-1.4-0.6l-10.5-9.3v7.8
		c0,0.7-0.2,1.2-0.6,1.5c-0.4,0.4-0.9,0.5-1.5,0.5c-0.6,0-1.1-0.2-1.5-0.5c-0.4-0.4-0.6-0.9-0.6-1.5v-26c0-0.7,0.2-1.2,0.6-1.5
		c0.4-0.4,0.9-0.5,1.5-0.5c0.6,0,1.1,0.2,1.5,0.5c0.4,0.4,0.6,0.9,0.6,1.5V471l9.6-9c0.5-0.4,0.9-0.6,1.4-0.6c0.5,0,1,0.2,1.4,0.6
		c0.4,0.4,0.6,0.9,0.6,1.4c0,0.5-0.2,1-0.7,1.5l-7.5,6.9l8.3,7.3C440.6,479.4,440.9,480,440.9,480.6z"/>
	<path class="st4" d="M460.4,462.6c1.4,0.9,2.5,2.2,3.3,3.8c0.8,1.6,1.2,3.5,1.2,5.7c0,2.1-0.4,4-1.1,5.6c-0.8,1.6-1.8,2.8-3.2,3.7
		c-1.4,0.9-3,1.3-4.8,1.3c-1.5,0-2.9-0.3-4.1-1s-2.1-1.6-2.7-2.8v9.4c0,0.6-0.2,1.1-0.6,1.4s-0.9,0.5-1.5,0.5
		c-0.6,0-1.2-0.2-1.6-0.5c-0.4-0.4-0.6-0.9-0.6-1.5v-24.7c0-0.6,0.2-1.1,0.6-1.5c0.4-0.4,0.9-0.6,1.6-0.6c0.6,0,1.1,0.2,1.5,0.6
		c0.4,0.4,0.6,0.9,0.6,1.5v1.7c0.6-1.2,1.5-2.2,2.7-2.9c1.2-0.7,2.5-1,4.1-1C457.5,461.3,459.1,461.7,460.4,462.6z M459,477.4
		c1-1.3,1.5-3,1.5-5.3c0-2.3-0.5-4.2-1.5-5.4c-1-1.3-2.5-1.9-4.3-1.9c-1.9,0-3.3,0.6-4.3,1.9c-1,1.3-1.5,3.1-1.5,5.4
		c0,2.3,0.5,4.1,1.5,5.4c1,1.3,2.4,1.9,4.3,1.9C456.5,479.3,458,478.7,459,477.4z"/>
	<path class="st4" d="M470.2,482.1c-0.4-0.3-0.6-0.8-0.6-1.5v-26.1c0-0.7,0.2-1.2,0.6-1.5c0.4-0.4,0.9-0.5,1.5-0.5
		c0.6,0,1.1,0.2,1.5,0.5c0.4,0.4,0.6,0.9,0.6,1.5v26.1c0,0.7-0.2,1.2-0.6,1.5c-0.4,0.3-0.9,0.5-1.5,0.5
		C471.1,482.6,470.6,482.4,470.2,482.1z"/>
	<path class="st4" d="M494.6,463.3c1.3,1.4,2,3.5,2,6.3v10.9c0,0.6-0.2,1.1-0.5,1.5s-0.9,0.5-1.5,0.5c-0.6,0-1.1-0.2-1.5-0.5
		s-0.5-0.9-0.5-1.5V479c-0.5,1.2-1.3,2.1-2.4,2.7c-1.1,0.6-2.3,1-3.7,1c-1.4,0-2.6-0.3-3.7-0.8c-1.1-0.5-2-1.3-2.6-2.3s-1-2-1-3.3
		c0-1.5,0.4-2.7,1.1-3.6c0.8-0.9,2.1-1.5,3.8-1.9c1.8-0.4,4.2-0.6,7.4-0.6h1v-1.2c0-1.6-0.3-2.7-1-3.4c-0.6-0.7-1.7-1.1-3.1-1.1
		c-1,0-1.9,0.1-2.8,0.4c-0.9,0.3-1.8,0.6-2.9,1.1c-0.8,0.4-1.3,0.6-1.6,0.6c-0.4,0-0.8-0.2-1-0.5c-0.3-0.3-0.4-0.7-0.4-1.2
		c0-0.4,0.1-0.8,0.4-1.1c0.2-0.3,0.6-0.6,1.2-1c1-0.5,2.1-1,3.5-1.3c1.3-0.3,2.6-0.5,3.8-0.5C491.2,461.3,493.2,461.9,494.6,463.3z
		 M490.9,477.9c1-1.1,1.5-2.4,1.5-4.1v-1.1h-0.8c-2.2,0-3.9,0.1-5.1,0.3c-1.2,0.2-2,0.5-2.5,1c-0.5,0.5-0.8,1.1-0.8,2
		c0,1,0.4,1.8,1.1,2.5c0.7,0.6,1.6,1,2.7,1C488.7,479.5,490,479,490.9,477.9z"/>
	<path class="st4" d="M506,481.3c-1.5-0.9-2.7-2.1-3.5-3.7c-0.8-1.6-1.2-3.5-1.2-5.6c0-2.1,0.4-4,1.3-5.7c0.9-1.6,2.1-2.9,3.6-3.8
		c1.5-0.9,3.3-1.4,5.3-1.4c1.1,0,2.1,0.2,3.2,0.5c1.1,0.3,2,0.7,2.9,1.3c0.9,0.6,1.4,1.3,1.4,2.2c0,0.5-0.1,0.9-0.4,1.2
		c-0.3,0.3-0.6,0.5-1,0.5c-0.3,0-0.5-0.1-0.8-0.2c-0.3-0.1-0.6-0.3-1-0.6c-0.7-0.5-1.4-0.8-2-1c-0.6-0.2-1.3-0.4-2.2-0.4
		c-1.9,0-3.4,0.6-4.5,1.9c-1.1,1.3-1.6,3.1-1.6,5.4c0,2.3,0.5,4.1,1.6,5.3c1,1.3,2.5,1.9,4.4,1.9c0.8,0,1.6-0.1,2.2-0.4
		c0.6-0.3,1.3-0.6,2-1c0.3-0.2,0.6-0.4,0.9-0.5c0.3-0.1,0.6-0.2,0.8-0.2c0.4,0,0.7,0.2,1,0.5c0.3,0.3,0.4,0.7,0.4,1.2
		c0,0.4-0.1,0.8-0.3,1.1c-0.2,0.3-0.6,0.7-1.1,1c-0.8,0.6-1.8,1-3,1.3c-1.1,0.3-2.3,0.5-3.4,0.5C509.2,482.7,507.5,482.2,506,481.3z
		"/>
	<path class="st4" d="M539.9,477.6c0.3,0.3,0.4,0.7,0.4,1.2c0,0.8-0.5,1.5-1.5,2.1c-1,0.6-2.1,1-3.2,1.3s-2.3,0.5-3.4,0.5
		c-3.3,0-5.8-1-7.7-2.9c-1.9-1.9-2.8-4.5-2.8-7.8c0-2.1,0.4-4,1.2-5.6c0.8-1.6,2-2.9,3.5-3.8s3.2-1.4,5.1-1.4c2.8,0,4.9,0.9,6.5,2.7
		c1.6,1.8,2.4,4.2,2.4,7.2c0,1.1-0.5,1.7-1.5,1.7h-13c0.3,4.4,2.4,6.5,6.3,6.5c1,0,1.9-0.1,2.7-0.4s1.6-0.6,2.4-1.1
		c0.1-0.1,0.3-0.2,0.7-0.4c0.4-0.2,0.7-0.3,0.9-0.3C539.3,477.2,539.6,477.3,539.9,477.6z M527.6,465.9c-1,1-1.6,2.5-1.8,4.4h10.9
		c-0.1-1.9-0.6-3.4-1.5-4.4c-0.9-1-2.1-1.5-3.7-1.5C529.9,464.4,528.6,464.9,527.6,465.9z"/>
	<path class="st4" d="M545.2,480.9c-0.5-0.3-0.9-0.6-1.1-1c-0.2-0.3-0.3-0.7-0.3-1.1c0-0.4,0.1-0.8,0.4-1.1c0.3-0.3,0.6-0.5,1-0.5
		c0.4,0,0.9,0.2,1.7,0.7c0.8,0.5,1.7,0.8,2.5,1.1c0.8,0.3,1.8,0.4,3,0.4c1.4,0,2.4-0.2,3.2-0.7c0.8-0.5,1.1-1.2,1.1-2
		c0-0.6-0.1-1-0.4-1.4c-0.3-0.3-0.8-0.6-1.5-0.9c-0.7-0.3-1.8-0.6-3.3-0.9c-2.5-0.5-4.3-1.3-5.3-2.2c-1.1-0.9-1.6-2.2-1.6-3.7
		c0-1.2,0.4-2.3,1.1-3.3c0.7-1,1.7-1.7,2.9-2.3c1.2-0.5,2.6-0.8,4.2-0.8c1.1,0,2.2,0.1,3.3,0.4c1.1,0.3,2,0.7,2.8,1.3
		c0.9,0.6,1.4,1.3,1.4,2.2c0,0.5-0.1,0.8-0.4,1.1s-0.6,0.5-0.9,0.5c-0.3,0-0.5-0.1-0.8-0.2c-0.3-0.1-0.6-0.3-1-0.5
		c-0.8-0.4-1.5-0.8-2.1-1.1c-0.7-0.3-1.5-0.4-2.5-0.4c-1.2,0-2.1,0.3-2.8,0.8c-0.7,0.5-1.1,1.2-1.1,2.1c0,0.8,0.3,1.4,1,1.8
		s1.9,0.9,3.7,1.2c1.9,0.4,3.4,0.8,4.4,1.4c1.1,0.5,1.8,1.1,2.3,1.9c0.5,0.7,0.7,1.7,0.7,2.8c0,1.8-0.8,3.3-2.3,4.4
		c-1.5,1.1-3.6,1.7-6.1,1.7C549.4,482.7,547.1,482.1,545.2,480.9z"/>
</g>
<g>
	<g>
		<defs>
			<rect id="SVGID_5_" y="0" width="1200" height="950"/>
		</defs>
		<clipPath id="SVGID_6_">
			<use xlink:href="#SVGID_5_"  style="overflow:visible;"/>
		</clipPath>
		<path class="st5" d="M233.4,487.8c52.6,0,95.2-42.6,95.2-95.2s-42.6-95.2-95.2-95.2s-95.2,42.6-95.2,95.2
			C138.2,445.2,180.8,487.8,233.4,487.8"/>
	</g>
</g>
<g class="st2">
	<path class="st6" d="M253.7,332.2l-0.1,18.1c0,12,0.1,22.4,0.3,31.1l0.6,38.1c-1,0.9-3.7,1.4-7.9,1.4l-5.3-0.1h-1l-2.5,0.1h-2.5
		l-3.9,0.1c-4.1,0-8.2-0.1-12.3-0.2l-1-1.5c-0.4-0.6-0.6-1.9-0.6-3.9c0-2,0.2-15.3,0.5-39.9l0.2-16.8c-6.7,4.6-13.3,7.9-19.7,9.9
		c-0.3,0-0.5-0.2-0.5-0.6v-6.5l-0.1-2.8c0-10.8,0.1-16.2,0.2-16.2c0.2-0.1,0.8-0.4,1.8-1c1-0.6,2.2-1.1,3.6-1.7
		c1.4-0.5,2.2-0.9,2.4-1.1c0.3-0.2,0.6-0.4,1-0.6c10.5-5,17-9.4,19.3-13l18.9,0.4c3.8,0,6.6-0.1,8.4-0.2c0.1,0.2,0.2,1.4,0.2,3.4
		V332.2z"/>
</g>
<g class="st2">
	<path class="st6" d="M218.7,444.4v7.4c0,0.4-0.1,0.8-0.4,1c-0.3,0.2-0.6,0.4-1,0.4c-0.4,0-0.8-0.1-1-0.4c-0.3-0.2-0.4-0.6-0.4-1
		v-7.3c0-1.2-0.2-2-0.6-2.5c-0.4-0.5-1.1-0.8-2-0.8c-1,0-1.9,0.4-2.5,1.1c-0.6,0.7-0.9,1.7-0.9,2.9v6.7c0,0.4-0.1,0.8-0.4,1
		c-0.3,0.2-0.6,0.4-1,0.4c-0.4,0-0.8-0.1-1-0.4c-0.3-0.2-0.4-0.6-0.4-1v-7.3c0-1.2-0.2-2-0.6-2.5c-0.4-0.5-1.1-0.8-2-0.8
		c-1,0-1.9,0.4-2.5,1.1c-0.6,0.7-0.9,1.7-0.9,2.9v6.7c0,0.4-0.1,0.8-0.4,1c-0.3,0.2-0.6,0.4-1,0.4c-0.4,0-0.8-0.1-1-0.4
		c-0.3-0.2-0.4-0.6-0.4-1v-11.5c0-0.4,0.1-0.7,0.4-1c0.3-0.2,0.6-0.4,1-0.4c0.4,0,0.7,0.1,1,0.4s0.4,0.6,0.4,1v1
		c0.4-0.8,1-1.4,1.7-1.8s1.6-0.6,2.6-0.6c1.1,0,1.9,0.2,2.6,0.7c0.7,0.4,1.2,1.1,1.5,2c0.4-0.8,1-1.5,1.8-1.9
		c0.8-0.5,1.7-0.7,2.8-0.7C217.2,438.9,218.7,440.7,218.7,444.4z"/>
</g>
<g class="st2">
	<path class="st6" d="M234.2,449.9c0.2,0.2,0.3,0.5,0.3,0.8c0,0.5-0.3,1-1,1.4c-0.7,0.4-1.4,0.7-2.2,0.9c-0.8,0.2-1.5,0.3-2.3,0.3
		c-2.2,0-3.9-0.6-5.2-1.9c-1.3-1.3-1.9-3-1.9-5.2c0-1.4,0.3-2.7,0.8-3.8c0.6-1.1,1.3-1.9,2.4-2.6c1-0.6,2.2-0.9,3.4-0.9
		c1.9,0,3.3,0.6,4.4,1.8s1.6,2.8,1.6,4.8c0,0.8-0.3,1.1-1,1.1h-8.8c0.2,2.9,1.6,4.4,4.2,4.4c0.7,0,1.3-0.1,1.8-0.3
		c0.5-0.2,1-0.4,1.6-0.7c0.1,0,0.2-0.1,0.5-0.2c0.3-0.1,0.5-0.2,0.6-0.2C233.8,449.6,234,449.7,234.2,449.9z M225.9,442
		c-0.7,0.7-1.1,1.7-1.2,3h7.3c-0.1-1.3-0.4-2.3-1-3c-0.6-0.7-1.4-1-2.5-1C227.5,441,226.6,441.3,225.9,442z"/>
</g>
<g class="st2">
	<path class="st6" d="M245.3,451.3c0.2,0.2,0.3,0.4,0.3,0.8c0,0.4-0.1,0.7-0.4,0.9c-0.3,0.2-0.7,0.3-1.3,0.2l-0.8-0.1
		c-1.5-0.1-2.7-0.6-3.4-1.4c-0.8-0.8-1.1-2-1.1-3.6v-6.7h-1.7c-0.8,0-1.2-0.4-1.2-1.1c0-0.3,0.1-0.6,0.3-0.8
		c0.2-0.2,0.5-0.3,0.9-0.3h1.7v-2.9c0-0.4,0.1-0.8,0.4-1c0.3-0.2,0.6-0.4,1-0.4c0.4,0,0.8,0.1,1,0.4c0.3,0.2,0.4,0.6,0.4,1v2.9h2.8
		c0.4,0,0.7,0.1,0.9,0.3c0.2,0.2,0.3,0.5,0.3,0.8c0,0.4-0.1,0.6-0.3,0.8c-0.2,0.2-0.5,0.3-0.9,0.3h-2.8v6.9c0,0.9,0.2,1.5,0.6,2
		c0.4,0.4,0.9,0.7,1.7,0.7l0.8,0.1C244.8,451,245.1,451.1,245.3,451.3z"/>
</g>
<g class="st2">
	<path class="st6" d="M256.2,440.1c0,0.4-0.1,0.7-0.3,0.9c-0.2,0.2-0.6,0.3-1.1,0.4l-0.9,0.1c-1.2,0.1-2.1,0.5-2.7,1.2
		c-0.6,0.7-0.9,1.6-0.9,2.6v6.5c0,0.5-0.1,0.8-0.4,1c-0.3,0.2-0.6,0.3-1,0.3c-0.4,0-0.8-0.1-1-0.3c-0.3-0.2-0.4-0.6-0.4-1v-11.5
		c0-0.4,0.1-0.8,0.4-1c0.3-0.2,0.6-0.4,1-0.4c0.4,0,0.7,0.1,1,0.4s0.4,0.6,0.4,1v1.4c0.4-0.8,0.9-1.5,1.6-1.9
		c0.7-0.4,1.5-0.7,2.4-0.8l0.4,0C255.8,438.9,256.2,439.2,256.2,440.1z"/>
</g>
<g class="st2">
	<path class="st6" d="M269.2,449.9c0.2,0.2,0.3,0.5,0.3,0.8c0,0.5-0.3,1-1,1.4c-0.7,0.4-1.4,0.7-2.2,0.9c-0.8,0.2-1.5,0.3-2.3,0.3
		c-2.2,0-3.9-0.6-5.2-1.9c-1.3-1.3-1.9-3-1.9-5.2c0-1.4,0.3-2.7,0.8-3.8c0.6-1.1,1.3-1.9,2.4-2.6c1-0.6,2.2-0.9,3.4-0.9
		c1.9,0,3.3,0.6,4.4,1.8s1.6,2.8,1.6,4.8c0,0.8-0.3,1.1-1,1.1h-8.8c0.2,2.9,1.6,4.4,4.2,4.4c0.7,0,1.3-0.1,1.8-0.3
		c0.5-0.2,1-0.4,1.6-0.7c0.1,0,0.2-0.1,0.5-0.2c0.3-0.1,0.5-0.2,0.6-0.2C268.8,449.6,269,449.7,269.2,449.9z M260.9,442
		c-0.7,0.7-1.1,1.7-1.2,3h7.3c-0.1-1.3-0.4-2.3-1-3c-0.6-0.7-1.4-1-2.5-1C262.5,441,261.6,441.3,260.9,442z"/>
</g>
<g class="st2">
	<path class="st4" d="M869.4,332.3c-1.5-0.9-2.7-2.1-3.5-3.7c-0.8-1.6-1.2-3.5-1.2-5.6c0-2.2,0.4-4.1,1.2-5.7c0.8-1.6,2-2.9,3.5-3.7
		c1.5-0.9,3.3-1.3,5.3-1.3c2,0,3.8,0.4,5.3,1.3c1.5,0.9,2.7,2.1,3.5,3.7c0.8,1.6,1.2,3.5,1.2,5.7c0,2.1-0.4,4-1.2,5.6
		c-0.8,1.6-2,2.9-3.5,3.7c-1.5,0.9-3.3,1.3-5.3,1.3C872.7,333.7,870.9,333.2,869.4,332.3z M879,328.4c1-1.2,1.5-3.1,1.5-5.4
		c0-2.4-0.5-4.2-1.5-5.4c-1-1.3-2.4-1.9-4.3-1.9c-1.9,0-3.3,0.6-4.3,1.9c-1,1.3-1.5,3.1-1.5,5.4c0,2.4,0.5,4.2,1.5,5.4
		c1,1.2,2.4,1.9,4.3,1.9C876.6,330.3,878,329.7,879,328.4z"/>
	<path class="st4" d="M907.1,312.9c0.4,0.4,0.6,0.9,0.6,1.5v17.2c0,0.6-0.2,1.1-0.6,1.4s-0.9,0.5-1.6,0.5c-0.6,0-1.1-0.2-1.4-0.5
		s-0.5-0.8-0.5-1.4V330c-0.6,1.2-1.5,2.1-2.7,2.7c-1.1,0.6-2.4,0.9-3.8,0.9c-5,0-7.5-2.8-7.5-8.3v-11c0-0.6,0.2-1.2,0.6-1.5
		s0.9-0.5,1.6-0.5c0.6,0,1.2,0.2,1.5,0.5s0.6,0.9,0.6,1.5v10.9c0,1.7,0.3,2.9,1,3.7c0.7,0.8,1.7,1.2,3.1,1.2c1.7,0,3-0.5,4-1.6
		c1-1.1,1.5-2.5,1.5-4.3v-9.9c0-0.6,0.2-1.1,0.6-1.5c0.4-0.4,0.9-0.6,1.6-0.6S906.7,312.5,907.1,312.9z"/>
	<path class="st4" d="M925,330.8c0.3,0.3,0.4,0.6,0.4,1.1c0,0.6-0.2,1-0.7,1.3c-0.4,0.3-1.1,0.4-1.9,0.4l-1.1-0.1
		c-2.3-0.2-4-0.9-5.1-2.1c-1.1-1.2-1.7-3-1.7-5.4V316h-2.5c-1.2,0-1.9-0.5-1.9-1.6c0-0.5,0.2-0.9,0.5-1.2c0.3-0.3,0.8-0.4,1.4-0.4
		h2.5v-4.3c0-0.6,0.2-1.2,0.6-1.5c0.4-0.4,0.9-0.5,1.5-0.5s1.2,0.2,1.6,0.5c0.4,0.4,0.6,0.9,0.6,1.5v4.3h4.2c0.6,0,1,0.1,1.4,0.4
		c0.3,0.3,0.5,0.7,0.5,1.2c0,0.5-0.2,0.9-0.5,1.2c-0.3,0.3-0.8,0.4-1.4,0.4h-4.2v10.2c0,1.3,0.3,2.3,0.8,2.9s1.4,1,2.5,1.1l1.2,0.1
		C924.3,330.4,924.7,330.5,925,330.8z"/>
	<path class="st4" d="M928.6,331.9c-0.5-0.3-0.9-0.6-1.1-1c-0.2-0.3-0.3-0.7-0.3-1.1c0-0.4,0.1-0.8,0.4-1.1c0.3-0.3,0.6-0.5,1-0.5
		c0.4,0,0.9,0.2,1.7,0.7c0.8,0.5,1.7,0.8,2.5,1.1c0.8,0.3,1.8,0.4,3,0.4c1.4,0,2.4-0.2,3.2-0.7c0.8-0.5,1.1-1.2,1.1-2
		c0-0.6-0.1-1-0.4-1.4s-0.8-0.6-1.5-0.9c-0.7-0.3-1.8-0.6-3.3-0.9c-2.5-0.5-4.3-1.3-5.3-2.2c-1.1-0.9-1.6-2.2-1.6-3.7
		c0-1.2,0.4-2.3,1.1-3.3c0.7-1,1.7-1.7,2.9-2.3c1.2-0.5,2.6-0.8,4.2-0.8c1.1,0,2.2,0.1,3.3,0.4s2,0.7,2.8,1.3
		c0.9,0.6,1.4,1.3,1.4,2.2c0,0.5-0.1,0.8-0.4,1.1c-0.3,0.3-0.6,0.5-1,0.5c-0.3,0-0.5-0.1-0.8-0.2c-0.3-0.1-0.6-0.3-1-0.5
		c-0.8-0.4-1.5-0.8-2.1-1.1c-0.7-0.3-1.5-0.4-2.5-0.4c-1.2,0-2.1,0.3-2.9,0.8c-0.7,0.5-1.1,1.2-1.1,2.1c0,0.8,0.3,1.4,1,1.8
		c0.7,0.4,1.9,0.9,3.7,1.2c1.9,0.4,3.4,0.8,4.4,1.4c1.1,0.5,1.8,1.1,2.3,1.9c0.5,0.7,0.7,1.7,0.7,2.8c0,1.8-0.8,3.3-2.3,4.4
		c-1.5,1.1-3.6,1.7-6.1,1.7C932.8,333.7,930.5,333.1,928.6,331.9z"/>
	<path class="st4" d="M949.1,307.5c-0.5-0.4-0.7-1-0.7-1.8c0-0.7,0.2-1.3,0.7-1.8c0.5-0.4,1.1-0.7,1.9-0.7c0.8,0,1.4,0.2,1.9,0.7
		c0.5,0.4,0.7,1,0.7,1.8c0,0.7-0.2,1.3-0.7,1.8c-0.5,0.5-1.1,0.7-1.9,0.7C950.2,308.2,949.5,308,949.1,307.5z M949.5,333.1
		c-0.4-0.3-0.6-0.8-0.6-1.5v-17.1c0-0.7,0.2-1.2,0.6-1.5c0.4-0.4,0.9-0.5,1.5-0.5c0.6,0,1.1,0.2,1.5,0.5c0.4,0.4,0.6,0.9,0.6,1.5
		v17.1c0,0.7-0.2,1.2-0.6,1.5c-0.4,0.3-0.9,0.5-1.5,0.5C950.4,333.6,949.9,333.4,949.5,333.1z"/>
	<path class="st4" d="M977.5,303.9c0.4,0.4,0.6,0.9,0.6,1.5v26.1c0,0.6-0.2,1.2-0.6,1.5s-0.9,0.5-1.5,0.5s-1.2-0.2-1.5-0.5
		s-0.6-0.9-0.6-1.5v-1.7c-0.6,1.2-1.5,2.2-2.7,2.8c-1.2,0.7-2.5,1-4.1,1c-1.8,0-3.4-0.5-4.7-1.4c-1.4-0.9-2.5-2.2-3.3-3.8
		c-0.8-1.6-1.2-3.5-1.2-5.6c0-2.1,0.4-4,1.2-5.6c0.8-1.6,1.9-2.8,3.2-3.7c1.4-0.9,3-1.3,4.8-1.3c1.5,0,2.9,0.3,4.1,1
		c1.2,0.7,2.1,1.6,2.7,2.8v-10.7c0-0.6,0.2-1.1,0.6-1.4c0.4-0.4,0.9-0.5,1.5-0.5C976.6,303.4,977.1,303.6,977.5,303.9z M972.3,328.4
		c1-1.3,1.5-3.1,1.5-5.4c0-2.3-0.5-4.1-1.5-5.4c-1-1.3-2.4-1.9-4.3-1.9s-3.3,0.6-4.3,1.9c-1,1.3-1.5,3-1.5,5.3s0.5,4.1,1.6,5.4
		c1,1.3,2.5,2,4.3,2S971.3,329.6,972.3,328.4z"/>
	<path class="st4" d="M1001.1,328.6c0.3,0.3,0.4,0.7,0.4,1.2c0,0.8-0.5,1.5-1.5,2.1c-1,0.6-2.1,1-3.2,1.3s-2.3,0.5-3.4,0.5
		c-3.3,0-5.8-1-7.7-2.9c-1.9-1.9-2.8-4.5-2.8-7.8c0-2.1,0.4-4,1.2-5.6c0.8-1.6,2-2.9,3.5-3.8c1.5-0.9,3.2-1.4,5.1-1.4
		c2.8,0,4.9,0.9,6.5,2.7c1.6,1.8,2.4,4.2,2.4,7.2c0,1.1-0.5,1.7-1.5,1.7h-13c0.3,4.4,2.4,6.5,6.3,6.5c1,0,1.9-0.1,2.7-0.4
		s1.6-0.6,2.4-1.1c0.1-0.1,0.3-0.2,0.7-0.4c0.4-0.2,0.7-0.3,0.9-0.3C1000.5,328.2,1000.9,328.3,1001.1,328.6z M988.9,316.9
		c-1,1-1.6,2.5-1.8,4.4H998c-0.1-1.9-0.6-3.4-1.5-4.4c-0.9-1-2.1-1.5-3.7-1.5C991.2,315.4,989.9,315.9,988.9,316.9z"/>
</g>
<g class="st2">
	<path class="st4" d="M884.3,370.2v11c0,0.6-0.2,1.1-0.6,1.5s-0.9,0.5-1.6,0.5s-1.2-0.2-1.5-0.5s-0.6-0.9-0.6-1.5v-10.9
		c0-1.7-0.3-2.9-1-3.7s-1.8-1.2-3.2-1.2c-1.7,0-3.1,0.5-4.1,1.6c-1,1.1-1.6,2.5-1.6,4.3v9.9c0,0.6-0.2,1.1-0.6,1.5s-0.9,0.5-1.5,0.5
		s-1.2-0.2-1.6-0.5c-0.4-0.4-0.6-0.9-0.6-1.5v-26.1c0-0.6,0.2-1.1,0.6-1.5c0.4-0.4,0.9-0.5,1.6-0.5c0.6,0,1.1,0.2,1.5,0.5
		c0.4,0.4,0.6,0.8,0.6,1.4v10.6c0.7-1.2,1.6-2.1,2.8-2.7c1.2-0.6,2.5-0.9,4.1-0.9C881.8,361.9,884.3,364.7,884.3,370.2z"/>
	<path class="st4" d="M893.7,382c-1.5-0.9-2.7-2.1-3.5-3.7c-0.8-1.6-1.2-3.5-1.2-5.6c0-2.2,0.4-4.1,1.2-5.7c0.8-1.6,2-2.9,3.5-3.7
		c1.5-0.9,3.3-1.3,5.3-1.3c2,0,3.8,0.4,5.3,1.3c1.5,0.9,2.7,2.1,3.5,3.7c0.8,1.6,1.2,3.5,1.2,5.7c0,2.1-0.4,4-1.2,5.6
		c-0.8,1.6-2,2.9-3.5,3.7c-1.5,0.9-3.3,1.3-5.3,1.3C897,383.3,895.2,382.9,893.7,382z M903.4,378.1c1-1.2,1.5-3.1,1.5-5.4
		c0-2.4-0.5-4.2-1.5-5.4c-1-1.3-2.4-1.9-4.3-1.9s-3.3,0.6-4.3,1.9c-1,1.3-1.5,3.1-1.5,5.4c0,2.4,0.5,4.2,1.5,5.4s2.4,1.9,4.3,1.9
		S902.4,379.3,903.4,378.1z"/>
	<path class="st4" d="M944.5,370.2v11c0,0.6-0.2,1.1-0.6,1.5s-0.9,0.5-1.6,0.5c-0.6,0-1.1-0.2-1.5-0.5s-0.6-0.9-0.6-1.5v-10.9
		c0-1.7-0.3-3-0.9-3.7c-0.6-0.8-1.6-1.2-2.9-1.2c-1.5,0-2.8,0.5-3.7,1.6c-0.9,1.1-1.4,2.5-1.4,4.3v9.9c0,0.6-0.2,1.1-0.6,1.5
		c-0.4,0.4-0.9,0.5-1.6,0.5c-0.6,0-1.1-0.2-1.5-0.5s-0.6-0.9-0.6-1.5v-10.9c0-1.7-0.3-3-0.9-3.7c-0.6-0.8-1.6-1.2-2.9-1.2
		c-1.5,0-2.8,0.5-3.7,1.6c-0.9,1.1-1.4,2.5-1.4,4.3v9.9c0,0.6-0.2,1.1-0.6,1.5c-0.4,0.4-0.9,0.5-1.5,0.5s-1.1-0.2-1.5-0.5
		s-0.6-0.9-0.6-1.5V364c0-0.6,0.2-1.1,0.6-1.5s0.9-0.5,1.5-0.5c0.6,0,1.1,0.2,1.5,0.5c0.4,0.4,0.6,0.8,0.6,1.5v1.6
		c0.6-1.2,1.5-2.1,2.6-2.7c1.1-0.6,2.4-0.9,3.8-0.9c1.6,0,2.9,0.3,3.9,1s1.8,1.6,2.3,3c0.6-1.2,1.5-2.2,2.7-2.9
		c1.2-0.7,2.6-1.1,4.1-1.1C942.1,361.9,944.5,364.7,944.5,370.2z"/>
	<path class="st4" d="M967.4,378.3c0.3,0.3,0.4,0.7,0.4,1.2c0,0.8-0.5,1.5-1.5,2.1c-1,0.6-2.1,1-3.2,1.3c-1.2,0.3-2.3,0.5-3.4,0.5
		c-3.3,0-5.8-1-7.7-2.9c-1.9-1.9-2.8-4.5-2.8-7.8c0-2.1,0.4-4,1.2-5.6c0.8-1.6,2-2.9,3.5-3.8s3.2-1.4,5.1-1.4c2.8,0,4.9,0.9,6.5,2.7
		c1.6,1.8,2.4,4.2,2.4,7.2c0,1.1-0.5,1.7-1.5,1.7h-13c0.3,4.4,2.4,6.5,6.3,6.5c1,0,1.9-0.1,2.7-0.4s1.6-0.6,2.4-1.1
		c0.1-0.1,0.3-0.2,0.7-0.4c0.4-0.2,0.7-0.3,1-0.3C966.8,377.8,967.1,378,967.4,378.3z M955.1,366.6c-1,1-1.6,2.5-1.8,4.4h10.9
		c-0.1-1.9-0.6-3.4-1.5-4.4c-0.9-1-2.1-1.5-3.7-1.5C957.4,365,956.1,365.6,955.1,366.6z"/>
</g>
<g class="st2">
	<path class="st4" d="M866,406.9c-0.5-0.4-0.7-1-0.7-1.8c0-0.7,0.2-1.3,0.7-1.8c0.5-0.4,1.1-0.7,1.9-0.7c0.8,0,1.4,0.2,1.9,0.7
		c0.5,0.4,0.7,1,0.7,1.8c0,0.7-0.2,1.3-0.7,1.8c-0.5,0.5-1.1,0.7-1.9,0.7C867.1,407.5,866.4,407.3,866,406.9z M866.4,432.4
		c-0.4-0.3-0.6-0.8-0.6-1.5v-17.1c0-0.7,0.2-1.2,0.6-1.5c0.4-0.4,0.9-0.5,1.5-0.5c0.6,0,1.1,0.2,1.5,0.5c0.4,0.4,0.6,0.9,0.6,1.5
		v17.1c0,0.7-0.2,1.2-0.6,1.5c-0.4,0.3-0.9,0.5-1.5,0.5C867.3,432.9,866.8,432.7,866.4,432.4z"/>
	<path class="st4" d="M894.5,419.9v11c0,0.6-0.2,1.1-0.6,1.5c-0.4,0.4-0.9,0.5-1.6,0.5c-0.6,0-1.2-0.2-1.5-0.5
		c-0.4-0.4-0.6-0.9-0.6-1.5v-10.8c0-1.7-0.3-3-1-3.8c-0.7-0.8-1.8-1.2-3.2-1.2c-1.7,0-3.1,0.5-4.1,1.6c-1,1.1-1.6,2.5-1.6,4.3v9.9
		c0,0.6-0.2,1.1-0.6,1.5c-0.4,0.4-0.9,0.5-1.5,0.5s-1.2-0.2-1.6-0.5c-0.4-0.4-0.6-0.9-0.6-1.5v-17.2c0-0.6,0.2-1.1,0.6-1.5
		s0.9-0.6,1.5-0.6s1.1,0.2,1.5,0.5c0.4,0.4,0.5,0.8,0.5,1.4v1.7c0.7-1.2,1.6-2.2,2.8-2.8c1.2-0.6,2.6-1,4.1-1
		C892,411.6,894.5,414.4,894.5,419.9z"/>
	<path class="st4" d="M903.9,431.7c-1.5-0.9-2.7-2.1-3.5-3.7c-0.8-1.6-1.2-3.5-1.2-5.6c0-2.1,0.4-4,1.3-5.7c0.9-1.6,2.1-2.9,3.6-3.8
		s3.3-1.4,5.3-1.4c1.1,0,2.1,0.2,3.2,0.5c1.1,0.3,2,0.7,2.9,1.3c0.9,0.6,1.4,1.3,1.4,2.2c0,0.5-0.1,0.9-0.4,1.2s-0.6,0.5-1,0.5
		c-0.3,0-0.5-0.1-0.8-0.2c-0.3-0.1-0.6-0.3-1-0.6c-0.7-0.5-1.4-0.8-2-1c-0.6-0.2-1.3-0.4-2.2-0.4c-1.9,0-3.4,0.6-4.5,1.9
		c-1.1,1.3-1.6,3.1-1.6,5.4c0,2.3,0.5,4.1,1.6,5.3c1,1.3,2.5,1.9,4.4,1.9c0.8,0,1.6-0.1,2.2-0.4c0.6-0.3,1.3-0.6,2-1
		c0.3-0.2,0.6-0.4,0.9-0.5c0.3-0.1,0.6-0.2,0.8-0.2c0.4,0,0.7,0.2,1,0.5c0.3,0.3,0.4,0.7,0.4,1.2c0,0.4-0.1,0.8-0.3,1.1
		c-0.2,0.3-0.6,0.7-1.1,1c-0.8,0.6-1.8,1-3,1.3c-1.1,0.3-2.3,0.5-3.4,0.5C907.1,433,905.4,432.6,903.9,431.7z"/>
	<path class="st4" d="M921.3,432.4c-0.4-0.3-0.6-0.8-0.6-1.5v-26.1c0-0.7,0.2-1.2,0.6-1.5c0.4-0.4,0.9-0.5,1.5-0.5s1.1,0.2,1.5,0.5
		c0.4,0.4,0.6,0.9,0.6,1.5v26.1c0,0.7-0.2,1.2-0.6,1.5c-0.4,0.3-0.9,0.5-1.5,0.5S921.7,432.7,921.3,432.4z"/>
</g>
<g class="st2">
	<path class="st4" d="M931,432.1c-0.5-0.5-0.8-1.2-0.8-1.9c0-0.8,0.3-1.4,0.8-2c0.5-0.5,1.2-0.8,1.9-0.8s1.4,0.3,1.9,0.8
		c0.5,0.5,0.8,1.2,0.8,2c0,0.8-0.3,1.4-0.8,1.9s-1.1,0.8-1.9,0.8S931.5,432.7,931,432.1z"/>
</g>
<g class="st2">
	<path class="st4" d="M962.5,412.9c1.4,0.9,2.5,2.2,3.3,3.8c0.8,1.6,1.2,3.5,1.2,5.7c0,2.1-0.4,4-1.1,5.6c-0.8,1.6-1.8,2.8-3.2,3.7
		c-1.4,0.9-3,1.3-4.8,1.3c-1.5,0-2.9-0.3-4.1-1c-1.2-0.7-2.1-1.6-2.7-2.8v9.4c0,0.6-0.2,1.1-0.6,1.4s-0.9,0.5-1.5,0.5
		c-0.6,0-1.2-0.2-1.6-0.5c-0.4-0.4-0.6-0.9-0.6-1.5v-24.7c0-0.6,0.2-1.1,0.6-1.5c0.4-0.4,0.9-0.6,1.6-0.6c0.6,0,1.1,0.2,1.5,0.6
		c0.4,0.4,0.6,0.9,0.6,1.5v1.7c0.6-1.2,1.5-2.2,2.7-2.9c1.2-0.7,2.5-1,4.1-1C959.5,411.6,961.1,412,962.5,412.9z M961,427.7
		c1-1.3,1.5-3,1.5-5.3c0-2.3-0.5-4.2-1.5-5.4s-2.5-1.9-4.3-1.9c-1.9,0-3.3,0.6-4.3,1.9s-1.5,3.1-1.5,5.4c0,2.3,0.5,4.1,1.5,5.4
		s2.4,1.9,4.3,1.9S960,429,961,427.7z"/>
	<path class="st4" d="M989.1,412.2c0.4,0.4,0.6,0.9,0.6,1.5v17.2c0,0.6-0.2,1.1-0.6,1.4s-0.9,0.5-1.6,0.5c-0.6,0-1.1-0.2-1.4-0.5
		c-0.4-0.4-0.5-0.8-0.5-1.4v-1.6c-0.6,1.2-1.5,2.1-2.7,2.7c-1.1,0.6-2.4,0.9-3.8,0.9c-5,0-7.5-2.8-7.5-8.3v-11
		c0-0.6,0.2-1.2,0.6-1.5s0.9-0.5,1.6-0.5c0.6,0,1.2,0.2,1.5,0.5s0.6,0.9,0.6,1.5v10.9c0,1.7,0.3,2.9,1,3.7c0.7,0.8,1.7,1.2,3.1,1.2
		c1.7,0,3-0.5,4-1.6s1.5-2.5,1.5-4.3v-9.9c0-0.6,0.2-1.1,0.6-1.5c0.4-0.4,0.9-0.6,1.6-0.6S988.7,411.9,989.1,412.2z"/>
	<path class="st4" d="M1011.5,412.9c1.4,0.9,2.5,2.1,3.2,3.7c0.8,1.6,1.2,3.5,1.2,5.6c0,2.1-0.4,4-1.2,5.6c-0.8,1.6-1.9,2.9-3.3,3.8
		c-1.4,0.9-3,1.4-4.8,1.4c-1.5,0-2.9-0.3-4.1-1c-1.2-0.7-2.1-1.6-2.7-2.8v1.7c0,0.6-0.2,1.1-0.6,1.5c-0.4,0.4-0.9,0.6-1.5,0.6
		s-1.2-0.2-1.6-0.6c-0.4-0.4-0.6-0.9-0.6-1.5v-26.1c0-0.6,0.2-1.1,0.6-1.5c0.4-0.4,0.9-0.5,1.6-0.5c0.6,0,1.1,0.2,1.5,0.5
		c0.4,0.4,0.6,0.8,0.6,1.4v10.8c0.6-1.2,1.5-2.2,2.7-2.9c1.2-0.7,2.5-1,4.1-1C1008.5,411.6,1010.1,412,1011.5,412.9z M1010,427.7
		c1-1.3,1.5-3.1,1.5-5.4c0-2.3-0.5-4.1-1.5-5.3c-1-1.3-2.4-1.9-4.3-1.9c-1.9,0-3.3,0.6-4.3,1.9c-1,1.3-1.5,3.1-1.5,5.4
		c0,2.3,0.5,4.1,1.5,5.4c1,1.3,2.4,1.9,4.3,1.9C1007.5,429.6,1008.9,429,1010,427.7z"/>
	<path class="st4" d="M1021.2,432.4c-0.4-0.3-0.6-0.8-0.6-1.5v-26.1c0-0.7,0.2-1.2,0.6-1.5c0.4-0.4,0.9-0.5,1.5-0.5
		c0.6,0,1.1,0.2,1.5,0.5c0.4,0.4,0.6,0.9,0.6,1.5v26.1c0,0.7-0.2,1.2-0.6,1.5c-0.4,0.3-0.9,0.5-1.5,0.5
		C1022.1,432.9,1021.6,432.7,1021.2,432.4z"/>
	<path class="st4" d="M1031,406.9c-0.5-0.4-0.7-1-0.7-1.8c0-0.7,0.2-1.3,0.7-1.8c0.5-0.4,1.1-0.7,1.9-0.7c0.8,0,1.4,0.2,1.9,0.7
		c0.5,0.4,0.7,1,0.7,1.8c0,0.7-0.2,1.3-0.7,1.8c-0.5,0.5-1.1,0.7-1.9,0.7S1031.5,407.3,1031,406.9z M1031.4,432.4
		c-0.4-0.3-0.6-0.8-0.6-1.5v-17.1c0-0.7,0.2-1.2,0.6-1.5c0.4-0.4,0.9-0.5,1.5-0.5s1.1,0.2,1.5,0.5c0.4,0.4,0.6,0.9,0.6,1.5v17.1
		c0,0.7-0.2,1.2-0.6,1.5c-0.4,0.3-0.9,0.5-1.5,0.5S1031.8,432.7,1031.4,432.4z"/>
	<path class="st4" d="M1044.6,431.7c-1.5-0.9-2.7-2.1-3.5-3.7c-0.8-1.6-1.2-3.5-1.2-5.6c0-2.1,0.4-4,1.3-5.7
		c0.9-1.6,2.1-2.9,3.6-3.8s3.3-1.4,5.3-1.4c1.1,0,2.1,0.2,3.2,0.5c1.1,0.3,2,0.7,2.9,1.3c0.9,0.6,1.4,1.3,1.4,2.2
		c0,0.5-0.1,0.9-0.4,1.2c-0.3,0.3-0.6,0.5-1,0.5c-0.3,0-0.5-0.1-0.8-0.2c-0.3-0.1-0.6-0.3-1-0.6c-0.7-0.5-1.4-0.8-2-1
		c-0.6-0.2-1.3-0.4-2.2-0.4c-1.9,0-3.4,0.6-4.5,1.9s-1.6,3.1-1.6,5.4c0,2.3,0.5,4.1,1.6,5.3c1,1.3,2.5,1.9,4.4,1.9
		c0.8,0,1.6-0.1,2.2-0.4c0.6-0.3,1.3-0.6,2-1c0.3-0.2,0.6-0.4,0.9-0.5c0.3-0.1,0.6-0.2,0.8-0.2c0.4,0,0.7,0.2,1,0.5
		c0.3,0.3,0.4,0.7,0.4,1.2c0,0.4-0.1,0.8-0.3,1.1c-0.2,0.3-0.6,0.7-1.1,1c-0.8,0.6-1.8,1-3,1.3s-2.3,0.5-3.4,0.5
		C1047.8,433,1046.1,432.6,1044.6,431.7z"/>
</g>
<g class="st2">
	<path class="st4" d="M877.2,479.8c0.3,0.3,0.4,0.6,0.4,1.1c0,0.6-0.2,1-0.7,1.3c-0.4,0.3-1.1,0.4-1.9,0.4l-1.1-0.1
		c-2.3-0.2-4-0.9-5.1-2.1c-1.1-1.2-1.7-3-1.7-5.4v-9.9h-2.5c-1.2,0-1.9-0.5-1.9-1.6c0-0.5,0.2-0.9,0.5-1.2c0.3-0.3,0.8-0.4,1.4-0.4
		h2.5v-4.3c0-0.6,0.2-1.2,0.6-1.5c0.4-0.4,0.9-0.5,1.5-0.5c0.6,0,1.2,0.2,1.6,0.5c0.4,0.4,0.6,0.9,0.6,1.5v4.3h4.2
		c0.6,0,1,0.1,1.4,0.4c0.3,0.3,0.5,0.7,0.5,1.2c0,0.5-0.2,0.9-0.5,1.2c-0.3,0.3-0.8,0.4-1.4,0.4h-4.2v10.2c0,1.3,0.3,2.3,0.8,2.9
		s1.4,1,2.5,1.1l1.2,0.1C876.5,479.4,876.9,479.5,877.2,479.8z"/>
</g>
<g class="st2">
	<path class="st4" d="M893.5,463.1c0,0.6-0.2,1.1-0.5,1.4c-0.3,0.3-0.8,0.5-1.6,0.5l-1.3,0.1c-1.8,0.2-3.1,0.8-3.9,1.9
		c-0.9,1.1-1.3,2.4-1.3,3.9v9.7c0,0.7-0.2,1.2-0.6,1.5c-0.4,0.3-0.9,0.5-1.5,0.5c-0.6,0-1.1-0.2-1.5-0.5c-0.4-0.3-0.6-0.8-0.6-1.5
		v-17.2c0-0.6,0.2-1.1,0.6-1.5c0.4-0.4,0.9-0.5,1.5-0.5c0.6,0,1,0.2,1.4,0.5c0.4,0.4,0.6,0.8,0.6,1.5v2c0.6-1.2,1.4-2.2,2.4-2.8
		c1.1-0.6,2.3-1,3.6-1.1l0.6,0C892.8,461.3,893.5,461.8,893.5,463.1z"/>
</g>
<g class="st2">
	<path class="st4" d="M910.8,463.3c1.3,1.4,2,3.5,2,6.3v10.9c0,0.6-0.2,1.1-0.5,1.5c-0.4,0.4-0.9,0.5-1.5,0.5
		c-0.6,0-1.1-0.2-1.5-0.5c-0.4-0.4-0.5-0.9-0.5-1.5V479c-0.5,1.2-1.3,2.1-2.4,2.7c-1.1,0.6-2.3,1-3.7,1c-1.4,0-2.6-0.3-3.7-0.8
		c-1.1-0.5-2-1.3-2.6-2.3s-1-2-1-3.3c0-1.5,0.4-2.7,1.1-3.6c0.8-0.9,2.1-1.5,3.8-1.9s4.2-0.6,7.4-0.6h1v-1.2c0-1.6-0.3-2.7-1-3.4
		c-0.6-0.7-1.7-1.1-3.1-1.1c-1,0-1.9,0.1-2.8,0.4c-0.9,0.3-1.8,0.6-2.9,1.1c-0.8,0.4-1.3,0.6-1.6,0.6c-0.4,0-0.8-0.2-1-0.5
		s-0.4-0.7-0.4-1.2c0-0.4,0.1-0.8,0.4-1.1s0.6-0.6,1.2-1c1-0.5,2.1-1,3.5-1.3c1.3-0.3,2.6-0.5,3.8-0.5
		C907.4,461.3,909.5,461.9,910.8,463.3z M907.2,477.9c1-1.1,1.5-2.4,1.5-4.1v-1.1h-0.8c-2.2,0-3.9,0.1-5.1,0.3c-1.2,0.2-2,0.5-2.5,1
		c-0.5,0.5-0.8,1.1-0.8,2c0,1,0.4,1.8,1.1,2.5c0.7,0.6,1.6,1,2.7,1C905,479.5,906.2,479,907.2,477.9z"/>
	<path class="st4" d="M937.1,469.6v11c0,0.6-0.2,1.1-0.6,1.5s-0.9,0.5-1.6,0.5c-0.6,0-1.2-0.2-1.5-0.5s-0.6-0.9-0.6-1.5v-10.8
		c0-1.7-0.3-3-1-3.8c-0.7-0.8-1.8-1.2-3.2-1.2c-1.7,0-3.1,0.5-4.1,1.6c-1,1.1-1.6,2.5-1.6,4.3v9.9c0,0.6-0.2,1.1-0.6,1.5
		s-0.9,0.5-1.5,0.5c-0.6,0-1.2-0.2-1.6-0.5c-0.4-0.4-0.6-0.9-0.6-1.5v-17.2c0-0.6,0.2-1.1,0.6-1.5c0.4-0.4,0.9-0.6,1.5-0.6
		c0.6,0,1.1,0.2,1.5,0.5c0.4,0.4,0.5,0.8,0.5,1.4v1.7c0.7-1.2,1.6-2.2,2.8-2.8s2.6-1,4.1-1C934.7,461.3,937.1,464,937.1,469.6z"/>
	<path class="st4" d="M943.1,480.9c-0.5-0.3-0.9-0.6-1.1-1c-0.2-0.3-0.3-0.7-0.3-1.1c0-0.4,0.1-0.8,0.4-1.1c0.3-0.3,0.6-0.5,1-0.5
		c0.4,0,0.9,0.2,1.7,0.7c0.8,0.5,1.7,0.8,2.5,1.1c0.8,0.3,1.8,0.4,3,0.4c1.4,0,2.4-0.2,3.2-0.7c0.8-0.5,1.1-1.2,1.1-2
		c0-0.6-0.1-1-0.4-1.4c-0.3-0.3-0.8-0.6-1.5-0.9c-0.7-0.3-1.8-0.6-3.3-0.9c-2.5-0.5-4.3-1.3-5.3-2.2c-1.1-0.9-1.6-2.2-1.6-3.7
		c0-1.2,0.4-2.3,1.1-3.3c0.7-1,1.7-1.7,2.9-2.3c1.2-0.5,2.6-0.8,4.2-0.8c1.1,0,2.2,0.1,3.3,0.4c1.1,0.3,2,0.7,2.8,1.3
		c0.9,0.6,1.4,1.3,1.4,2.2c0,0.5-0.1,0.8-0.4,1.1s-0.6,0.5-1,0.5c-0.3,0-0.5-0.1-0.8-0.2c-0.3-0.1-0.6-0.3-1-0.5
		c-0.8-0.4-1.5-0.8-2.1-1.1c-0.7-0.3-1.5-0.4-2.5-0.4c-1.2,0-2.1,0.3-2.9,0.8c-0.7,0.5-1.1,1.2-1.1,2.1c0,0.8,0.3,1.4,1,1.8
		c0.7,0.4,1.9,0.9,3.7,1.2c1.9,0.4,3.4,0.8,4.4,1.4c1.1,0.5,1.8,1.1,2.3,1.9c0.5,0.7,0.7,1.7,0.7,2.8c0,1.8-0.8,3.3-2.3,4.4
		c-1.5,1.1-3.6,1.7-6.1,1.7C947.3,482.7,944.9,482.1,943.1,480.9z"/>
	<path class="st4" d="M979.1,462.6c1.4,0.9,2.5,2.2,3.3,3.8c0.8,1.6,1.2,3.5,1.2,5.7c0,2.1-0.4,4-1.1,5.6s-1.8,2.8-3.2,3.7
		c-1.4,0.9-3,1.3-4.8,1.3c-1.5,0-2.9-0.3-4.1-1c-1.2-0.7-2.1-1.6-2.7-2.8v9.4c0,0.6-0.2,1.1-0.6,1.4s-0.9,0.5-1.5,0.5
		c-0.6,0-1.2-0.2-1.6-0.5c-0.4-0.4-0.6-0.9-0.6-1.5v-24.7c0-0.6,0.2-1.1,0.6-1.5c0.4-0.4,0.9-0.6,1.6-0.6c0.6,0,1.1,0.2,1.5,0.6
		c0.4,0.4,0.6,0.9,0.6,1.5v1.7c0.6-1.2,1.5-2.2,2.7-2.9c1.2-0.7,2.5-1,4.1-1C976.1,461.3,977.7,461.7,979.1,462.6z M977.7,477.4
		c1-1.3,1.5-3,1.5-5.3c0-2.3-0.5-4.2-1.5-5.4c-1-1.3-2.5-1.9-4.3-1.9c-1.9,0-3.3,0.6-4.3,1.9c-1,1.3-1.5,3.1-1.5,5.4
		c0,2.3,0.5,4.1,1.5,5.4c1,1.3,2.4,1.9,4.3,1.9C975.2,479.3,976.7,478.7,977.7,477.4z"/>
	<path class="st4" d="M991.9,481.3c-1.5-0.9-2.7-2.1-3.5-3.7c-0.8-1.6-1.2-3.5-1.2-5.6c0-2.2,0.4-4.1,1.2-5.7c0.8-1.6,2-2.9,3.5-3.7
		c1.5-0.9,3.3-1.3,5.3-1.3c2,0,3.8,0.4,5.3,1.3c1.5,0.9,2.7,2.1,3.5,3.7c0.8,1.6,1.2,3.5,1.2,5.7c0,2.1-0.4,4-1.2,5.6
		c-0.8,1.6-2,2.9-3.5,3.7c-1.5,0.9-3.3,1.3-5.3,1.3C995.2,482.7,993.4,482.2,991.9,481.3z M1001.5,477.4c1-1.2,1.5-3.1,1.5-5.4
		c0-2.4-0.5-4.2-1.5-5.4c-1-1.3-2.4-1.9-4.3-1.9c-1.9,0-3.3,0.6-4.3,1.9c-1,1.3-1.5,3.1-1.5,5.4c0,2.4,0.5,4.2,1.5,5.4
		s2.4,1.9,4.3,1.9C999.1,479.3,1000.5,478.7,1001.5,477.4z"/>
</g>
<g class="st2">
	<path class="st4" d="M1024.9,463.1c0,0.6-0.2,1.1-0.5,1.4s-0.8,0.5-1.6,0.5l-1.3,0.1c-1.8,0.2-3.1,0.8-3.9,1.9s-1.3,2.4-1.3,3.9
		v9.7c0,0.7-0.2,1.2-0.6,1.5c-0.4,0.3-0.9,0.5-1.5,0.5s-1.1-0.2-1.5-0.5c-0.4-0.3-0.6-0.8-0.6-1.5v-17.2c0-0.6,0.2-1.1,0.6-1.5
		c0.4-0.4,0.9-0.5,1.5-0.5c0.6,0,1,0.2,1.4,0.5c0.4,0.4,0.6,0.8,0.6,1.5v2c0.6-1.2,1.4-2.2,2.4-2.8c1.1-0.6,2.3-1,3.6-1.1l0.6,0
		C1024.2,461.3,1024.9,461.8,1024.9,463.1z"/>
</g>
<g class="st2">
	<path class="st4" d="M1040.7,479.8c0.3,0.3,0.4,0.6,0.4,1.1c0,0.6-0.2,1-0.7,1.3c-0.4,0.3-1.1,0.4-1.9,0.4l-1.1-0.1
		c-2.3-0.2-4-0.9-5.1-2.1c-1.1-1.2-1.7-3-1.7-5.4v-9.9h-2.5c-1.2,0-1.9-0.5-1.9-1.6c0-0.5,0.2-0.9,0.5-1.2c0.3-0.3,0.8-0.4,1.4-0.4
		h2.5v-4.3c0-0.6,0.2-1.2,0.6-1.5c0.4-0.4,0.9-0.5,1.5-0.5c0.6,0,1.2,0.2,1.6,0.5c0.4,0.4,0.6,0.9,0.6,1.5v4.3h4.2
		c0.6,0,1,0.1,1.4,0.4c0.3,0.3,0.5,0.7,0.5,1.2c0,0.5-0.2,0.9-0.5,1.2c-0.3,0.3-0.8,0.4-1.4,0.4h-4.2v10.2c0,1.3,0.3,2.3,0.8,2.9
		s1.4,1,2.5,1.1l1.2,0.1C1040,479.4,1040.4,479.5,1040.7,479.8z"/>
</g>
<g>
	<path class="st7" d="M751.1,487.8c52.6,0,95.2-42.6,95.2-95.2s-42.6-95.2-95.2-95.2s-95.2,42.6-95.2,95.2
		C655.9,445.2,698.5,487.8,751.1,487.8"/>
</g>
<g class="st2">
	<path class="st6" d="M790.8,405.3l-0.3,12v1.2c0,1-0.5,1.6-1.4,1.7l-25.3-0.6c-17.6,0-36,0.4-55.2,1.2l-0.8-1c-0.7-0.5-1-2.3-1-5.5
		c0-3.2,0-6.6,0.1-10.3v-0.4c0.1-3.4,0.1-5.9,0.1-7.7c0-0.7,3.3-3.1,9.8-7.4l10.6-7.1c7.4-5.1,13-9.4,16.8-12.8
		c6.7-6.1,10.1-11.6,10.1-16.5c0-2.1-0.6-3.8-1.9-5.1c-1.3-1.2-2.9-1.9-4.9-1.9c-2,0-3.6,0.5-4.6,1.4s-1.8,2-2,3.2
		c-0.8,3.4-1.5,5.3-2.1,5.7c-1.3,0-3.2,0.1-5.7,0.1h-18.6l-2.8-0.1h-2.4c-1.4,0-2.2-0.2-2.4-0.6c0.3-5,0.9-8.6,1.7-10.9
		c1.1-3.9,3-7.3,5.7-10.2c2.7-2.9,6-5.1,9.7-6.7c7.3-3,15.6-4.5,24.7-4.5c14.4,0,25.3,3.2,32.8,9.7c5.6,4.8,8.4,11,8.4,18.9
		c0,9.9-4.5,19-13.5,27.2c-4.4,4.1-10.3,8.5-17.6,13.2l-4.3,3.9l30-0.6c2.5,0,4.2,0.9,5.1,2.6C790.4,399.3,790.8,401.9,790.8,405.3z
		"/>
</g>
<g class="st2">
	<path class="st6" d="M729.6,444.4v7.4c0,0.4-0.1,0.8-0.4,1s-0.6,0.4-1,0.4c-0.4,0-0.8-0.1-1-0.4c-0.3-0.2-0.4-0.6-0.4-1v-7.3
		c0-1.2-0.2-2-0.6-2.5c-0.4-0.5-1.1-0.8-2-0.8c-1,0-1.9,0.4-2.5,1.1c-0.6,0.7-0.9,1.7-0.9,2.9v6.7c0,0.4-0.1,0.8-0.4,1
		c-0.3,0.2-0.6,0.4-1.1,0.4c-0.4,0-0.8-0.1-1-0.4s-0.4-0.6-0.4-1v-7.3c0-1.2-0.2-2-0.6-2.5c-0.4-0.5-1.1-0.8-2-0.8
		c-1,0-1.9,0.4-2.5,1.1c-0.6,0.7-0.9,1.7-0.9,2.9v6.7c0,0.4-0.1,0.8-0.4,1s-0.6,0.4-1,0.4c-0.4,0-0.8-0.1-1-0.4s-0.4-0.6-0.4-1
		v-11.5c0-0.4,0.1-0.7,0.4-1c0.3-0.2,0.6-0.4,1-0.4c0.4,0,0.7,0.1,1,0.4c0.3,0.2,0.4,0.6,0.4,1v1c0.4-0.8,1-1.4,1.7-1.8
		s1.6-0.6,2.6-0.6c1.1,0,1.9,0.2,2.6,0.7c0.7,0.4,1.2,1.1,1.5,2c0.4-0.8,1-1.5,1.8-1.9c0.8-0.5,1.7-0.7,2.8-0.7
		C728.1,438.9,729.6,440.7,729.6,444.4z"/>
</g>
<g class="st2">
	<path class="st6" d="M745.1,449.9c0.2,0.2,0.3,0.5,0.3,0.8c0,0.5-0.3,1-1,1.4c-0.7,0.4-1.4,0.7-2.2,0.9c-0.8,0.2-1.5,0.3-2.3,0.3
		c-2.2,0-3.9-0.6-5.2-1.9c-1.3-1.3-1.9-3-1.9-5.2c0-1.4,0.3-2.7,0.8-3.8c0.6-1.1,1.3-1.9,2.4-2.6c1-0.6,2.2-0.9,3.4-0.9
		c1.9,0,3.3,0.6,4.4,1.8s1.6,2.8,1.6,4.8c0,0.8-0.3,1.1-1,1.1h-8.8c0.2,2.9,1.6,4.4,4.2,4.4c0.7,0,1.3-0.1,1.8-0.3
		c0.5-0.2,1.1-0.4,1.6-0.7c0.1,0,0.2-0.1,0.5-0.2c0.3-0.1,0.5-0.2,0.6-0.2C744.7,449.6,744.9,449.7,745.1,449.9z M736.8,442
		c-0.7,0.7-1.1,1.7-1.2,3h7.3c-0.1-1.3-0.4-2.3-1-3s-1.4-1-2.5-1C738.4,441,737.5,441.3,736.8,442z"/>
</g>
<g class="st2">
	<path class="st6" d="M756.1,451.3c0.2,0.2,0.3,0.4,0.3,0.8c0,0.4-0.1,0.7-0.4,0.9c-0.3,0.2-0.7,0.3-1.3,0.2l-0.8-0.1
		c-1.5-0.1-2.7-0.6-3.4-1.4c-0.8-0.8-1.1-2-1.1-3.6v-6.7h-1.7c-0.8,0-1.2-0.4-1.2-1.1c0-0.3,0.1-0.6,0.3-0.8
		c0.2-0.2,0.5-0.3,0.9-0.3h1.7v-2.9c0-0.4,0.1-0.8,0.4-1c0.3-0.2,0.6-0.4,1-0.4c0.4,0,0.8,0.1,1,0.4c0.3,0.2,0.4,0.6,0.4,1v2.9h2.8
		c0.4,0,0.7,0.1,0.9,0.3c0.2,0.2,0.3,0.5,0.3,0.8c0,0.4-0.1,0.6-0.3,0.8c-0.2,0.2-0.5,0.3-0.9,0.3h-2.8v6.9c0,0.9,0.2,1.5,0.6,2
		s0.9,0.7,1.7,0.7l0.8,0.1C755.7,451,756,451.1,756.1,451.3z"/>
</g>
<g class="st2">
	<path class="st6" d="M767.1,440.1c0,0.4-0.1,0.7-0.3,0.9c-0.2,0.2-0.6,0.3-1.1,0.4l-0.9,0.1c-1.2,0.1-2.1,0.5-2.7,1.2
		c-0.6,0.7-0.9,1.6-0.9,2.6v6.5c0,0.5-0.1,0.8-0.4,1c-0.3,0.2-0.6,0.3-1,0.3s-0.8-0.1-1-0.3c-0.3-0.2-0.4-0.6-0.4-1v-11.5
		c0-0.4,0.1-0.8,0.4-1c0.3-0.2,0.6-0.4,1-0.4c0.4,0,0.7,0.1,1,0.4c0.3,0.2,0.4,0.6,0.4,1v1.4c0.4-0.8,0.9-1.5,1.6-1.9
		c0.7-0.4,1.5-0.7,2.4-0.8l0.4,0C766.6,438.9,767.1,439.2,767.1,440.1z"/>
</g>
<g class="st2">
	<path class="st6" d="M780.1,449.9c0.2,0.2,0.3,0.5,0.3,0.8c0,0.5-0.3,1-1,1.4c-0.7,0.4-1.4,0.7-2.2,0.9c-0.8,0.2-1.5,0.3-2.3,0.3
		c-2.2,0-3.9-0.6-5.2-1.9c-1.3-1.3-1.9-3-1.9-5.2c0-1.4,0.3-2.7,0.8-3.8c0.6-1.1,1.3-1.9,2.4-2.6c1-0.6,2.2-0.9,3.4-0.9
		c1.9,0,3.3,0.6,4.4,1.8s1.6,2.8,1.6,4.8c0,0.8-0.3,1.1-1,1.1h-8.8c0.2,2.9,1.6,4.4,4.2,4.4c0.7,0,1.3-0.1,1.8-0.3
		c0.5-0.2,1.1-0.4,1.6-0.7c0.1,0,0.2-0.1,0.5-0.2c0.3-0.1,0.5-0.2,0.6-0.2C779.7,449.6,779.9,449.7,780.1,449.9z M771.8,442
		c-0.7,0.7-1.1,1.7-1.2,3h7.3c-0.1-1.3-0.4-2.3-1-3s-1.4-1-2.5-1C773.4,441,772.5,441.3,771.8,442z"/>
	<path class="st6" d="M783.7,452c-0.3-0.2-0.6-0.4-0.7-0.7c-0.1-0.2-0.2-0.5-0.2-0.8c0-0.3,0.1-0.6,0.3-0.8s0.4-0.3,0.7-0.3
		c0.2,0,0.6,0.2,1.2,0.5c0.6,0.3,1.1,0.5,1.7,0.7s1.2,0.3,2,0.3c0.9,0,1.6-0.2,2.1-0.5c0.5-0.3,0.8-0.8,0.8-1.4
		c0-0.4-0.1-0.7-0.3-0.9c-0.2-0.2-0.5-0.4-1-0.6s-1.2-0.4-2.2-0.6c-1.7-0.4-2.9-0.8-3.6-1.5s-1.1-1.5-1.1-2.5c0-0.8,0.2-1.5,0.7-2.2
		s1.1-1.2,2-1.5s1.8-0.5,2.8-0.5c0.8,0,1.5,0.1,2.2,0.3c0.7,0.2,1.4,0.5,1.9,0.9c0.6,0.4,0.9,0.9,0.9,1.4c0,0.3-0.1,0.6-0.3,0.8
		c-0.2,0.2-0.4,0.3-0.6,0.3c-0.2,0-0.3,0-0.5-0.1c-0.2-0.1-0.4-0.2-0.7-0.4c-0.5-0.3-1-0.5-1.4-0.7c-0.4-0.2-1-0.3-1.7-0.3
		c-0.8,0-1.4,0.2-1.9,0.5c-0.5,0.3-0.7,0.8-0.7,1.4c0,0.5,0.2,0.9,0.7,1.2c0.4,0.3,1.3,0.6,2.5,0.8c1.3,0.3,2.3,0.6,3,0.9
		c0.7,0.3,1.2,0.8,1.5,1.3s0.5,1.1,0.5,1.9c0,1.2-0.5,2.2-1.5,3s-2.4,1.1-4.1,1.1C786.5,453.2,784.9,452.8,783.7,452z"/>
</g>
<line class="st8" x1="141.1" y1="639.9" x2="141.1" y2="580.3"/>
<line class="st8" x1="177.8" y1="639.9" x2="177.8" y2="601.2"/>
<line class="st8" x1="214.5" y1="639.9" x2="214.5" y2="601.2"/>
<line class="st8" x1="251.2" y1="639.9" x2="251.2" y2="601.2"/>
<line class="st8" x1="287.9" y1="639.9" x2="287.9" y2="601.2"/>
<line class="st8" x1="324.7" y1="639.9" x2="324.7" y2="580.3"/>
<line class="st8" x1="361.4" y1="639.9" x2="361.4" y2="601.2"/>
<line class="st8" x1="398.1" y1="639.9" x2="398.1" y2="601.2"/>
<line class="st8" x1="434.8" y1="639.9" x2="434.8" y2="601.2"/>
<line class="st8" x1="471.5" y1="639.9" x2="471.5" y2="601.2"/>
<line class="st8" x1="508.2" y1="639.9" x2="508.2" y2="580.3"/>
<line class="st8" x1="544.9" y1="639.9" x2="544.9" y2="601.2"/>
<line class="st8" x1="581.6" y1="639.9" x2="581.6" y2="601.2"/>
<line class="st8" x1="618.4" y1="639.9" x2="618.4" y2="601.2"/>
<line class="st8" x1="655.1" y1="639.9" x2="655.1" y2="601.2"/>
<line class="st8" x1="691.8" y1="639.9" x2="691.8" y2="580.3"/>
<line class="st8" x1="728.5" y1="639.9" x2="728.5" y2="601.2"/>
<line class="st8" x1="765.2" y1="639.9" x2="765.2" y2="601.2"/>
<line class="st8" x1="875.3" y1="639.9" x2="875.3" y2="580.3"/>
<line class="st8" x1="801.9" y1="639.9" x2="801.9" y2="601.2"/>
<line class="st8" x1="912.1" y1="639.9" x2="912.1" y2="601.2"/>
<line class="st8" x1="838.6" y1="639.9" x2="838.6" y2="601.2"/>
<line class="st8" x1="948.8" y1="639.9" x2="948.8" y2="601.2"/>
<line class="st8" x1="1058.9" y1="639.9" x2="1058.9" y2="580.3"/>
<line class="st8" x1="985.5" y1="639.9" x2="985.5" y2="601.2"/>
<line class="st8" x1="1022.2" y1="639.9" x2="1022.2" y2="601.2"/>
<g>
	<g>
		<defs>
			<rect id="SVGID_7_" x="132" y="616.7" width="172.1" height="333.3"/>
		</defs>
		<clipPath id="SVGID_8_">
			<use xlink:href="#SVGID_7_"  style="overflow:visible;"/>
		</clipPath>
		<path class="st9" d="M256.4,632c0,7.8-6.3,14.1-14.1,14.1s-14.1-6.3-14.1-14.1s6.3-14.1,14.1-14.1
			C250.1,617.9,256.4,624.2,256.4,632"/>
	</g>
	<g>
		<defs>
			<rect id="SVGID_9_" x="132" y="616.7" width="172.1" height="333.3"/>
		</defs>
		<clipPath id="SVGID_10_">
			<use xlink:href="#SVGID_9_"  style="overflow:visible;"/>
		</clipPath>
		<path class="st10" d="M259.2,644.9c-0.2,0.4-0.7,0.5-1.2,0.6c-0.7,0.1-1.5,0.3-2.2,0.4c-0.2,0-0.4,0.1-0.6,0.2
			c-0.2,0.2-0.2,0.5-0.3,0.8c-0.1,2.1-0.5,4.2-1.2,6.1c-0.3,1-0.8,2-1.2,2.9c-0.3,0.5-0.5,1-0.9,1.4c-0.5,0.4-1.2,0.3-1.7,0.3
			c-2.6-0.2-5.2-0.7-7.8-1.3c-0.4,1-0.9,2-1.4,3.1c-1.3,2.7-2.7,5.5-2.9,8.5c-0.3,4.9,4.6,8.4,7.8,11.2c1.6,1.3,3.1,2.7,4.6,4.2
			c0.5,0.5,1,1,1.5,1.5c1.8,1.8,3.3,3.8,4.2,6.2c2.2,5.9-0.4,12.5-3.4,18c-0.8,1.4-1.6,2.9-2,4.4c-0.4,1.7-0.3,3.4-0.2,5.2
			c0.5,7.9,2,15.8,1.8,23.8c-0.1,4.5-1,9-2.4,13.3c-0.2,0.5-0.4,1.1-0.6,1.6c-1.8,4.8-4.5,9.1-6.2,13.9c-4,10.9-5.1,22.4-7.5,33.7
			c-2.4,11.7-5.1,23.4-8.7,34.8c-0.5,1.5-1,2.9-1.5,4.4c-5.2,15.3-11.3,30.2-17.6,45c-2,4.8-4,9.6-6,14.3c-0.9,2.3-2,4.5-2.9,6.7
			c-1.7,3.9-3.4,7.7-5,11.6c-1.4,3.3-2.9,6.7-4.2,10.1c-0.3,0.7-0.6,1.5-0.8,2.3c0,0.2-0.1,0.3-0.1,0.5s0.2,0.5,0.2,0.6
			c0.6,2.4,1,4.8,1.7,7.2c0.3,0.9,0.5,1.8,0.8,2.7c0.1,0.2,0.1,0.5,0.2,0.7c0,0.1,0.1,0.3,0.1,0.4c0.1,0.3,0.2,0.6,0.5,0.8
			c0.5,0.3,1,0.5,1.6,0.6c0.6,0.2,1.2,0.4,1.8,0.6c0.4,0.1,1.1,0.2,1.3,0.7c0.1,0.3,0.2,0.7,0,1h-7.9l0,0c-0.5-0.1-0.7-0.5-1-0.8
			c-2.3-2.2-4.6-4.4-6.9-6.6c-1.8-1.8-3.6-3.5-5.4-5.3c-0.1-0.1,0.4-0.8,0.5-0.9c0.4-0.7,0.8-1.3,1.1-2c0.6-1,1.1-2,1.7-2.9l0.6-1.1
			l0.2-0.4l0.3-0.5c0.1-0.3,0.3-0.5,0.4-0.8c0.7-1.5,0.8-3.4,1.1-4.9c0.3-2,0.6-4,0.9-5.9c0.1-0.9,0.3-1.9,0.4-2.8
			c0.5-3.1,1.1-6.1,1.6-9.2c0.6-4,1.2-8,2-11.9c0.6-3.2,1.4-6.5,2.3-9.6c2.7-9.5,6.6-18.8,12.7-26.7c3.1-4,7.2-8.4,7.1-13.9
			c-0.1-9.6-2.6-19.1-3.3-28.7c-0.8-11.9-1.8-23.7-2.3-35.6c-0.5-11-0.1-22.6,6.6-31.9c0.4-0.6,0.8-1.1,1.2-1.7
			c2.9-3.8,6-7.4,8.2-11.6c2-3.8,3-8.2,2.2-12.5c-0.9-4.6-3.3-8.6-4.9-12.9c-2.5-6.8-5.2-14-4.9-21.4c0.3-7.3,4.2-13.5,8.5-19.1
			c0.8-1.1,1.6-2.1,2.4-3.2c1.1-1.6,2.1-3.3,2.8-5.2c1.2-3.3-0.2-6.9-1.8-9.9c-1.2-2.2-2.5-4.4-3.2-6.8c-0.7-2.4-0.8-5.1-0.5-7.6
			c0.8-5.5,3.9-10.6,8.8-13.3c3.8-2.1,8.6-3.4,12.9-2.6c1,0.2,2.1,0.4,3,0.7c1,0.3,1.2,0.9,1.7,1.7c0.9,1.3,1.7,2.6,2.5,4
			c0.7,1.3,1.5,2.7,2,4c1.1,3,2.3,6,4.2,8.5c1.3,1.7,2.8,3.1,4.2,4.7C259.1,643.6,259.5,644.4,259.2,644.9"/>
	</g>
	<g>
		<defs>
			<rect id="SVGID_11_" x="132" y="616.7" width="172.1" height="333.3"/>
		</defs>
		<clipPath id="SVGID_12_">
			<use xlink:href="#SVGID_11_"  style="overflow:visible;"/>
		</clipPath>
		<path class="st11" d="M297.3,946.4h-7.9c-0.5-0.1-0.7-0.5-1-0.8c-2.3-2.2-4.6-4.4-6.9-6.6c-1.8-1.8-3.6-3.5-5.4-5.3
			c-0.1-0.1,0.4-0.8,0.5-0.9c0.4-0.7,0.8-1.3,1.1-2c0.6-1,1.1-2,1.7-2.9l0.1-0.1v-0.1c-0.8-2.2-1.8-4.4-2.9-6.5
			c-5.1-10.3-10.9-20.2-13.9-31.3c-2.1-7.6-2.9-15.8-2.1-23.7c0.5-5.1,1.6-11-1.4-15.5c-4.2-6.6-10.1-12.2-15-18.3
			c-11.4-14.3-21.4-29.9-30-46.1c-4.2-7.9-7.5-16.8-6.3-25.7l38.2,0.1c0.2,0.9,0.3,1.5,0.3,1.7c2.8,12.7,8.8,24.4,13.4,36.6
			c5.3,14.1,10.6,28.5,14,43.2c3.8,15.7,6.5,31.6,9.1,47.5c0.3,2,0.6,4,1,6c1,6.2,1.9,12.3,2.9,18.5c0.9,6,1.7,12.2,2.9,18.2
			c0.4,2.3,1,4.6,1.6,6.8c0.3,1.1,0.7,2.3,1,3.4c0.1,0.3,0.1,0.5,0.2,0.7s0.2,0.3,0.4,0.5c0.5,0.3,1,0.5,1.6,0.6
			c0.6,0.2,1.2,0.4,1.8,0.6c0.4,0.1,1.1,0.2,1.3,0.7C297.4,945.7,297.5,946.1,297.3,946.4"/>
	</g>
	<g>
		<defs>
			<rect id="SVGID_13_" x="132" y="616.7" width="172.1" height="333.3"/>
		</defs>
		<clipPath id="SVGID_14_">
			<use xlink:href="#SVGID_13_"  style="overflow:visible;"/>
		</clipPath>
		<path class="st12" d="M271.9,828.4c-0.1-0.3-0.2-0.7-0.3-1c-3.2-10-6.8-19.8-10.8-29.5c-3.8-9.3-8.1-18.6-9.4-28.6
			c-1.7-13.1,1.7-26.4,0.2-39.6c-0.7-5.7-2.2-11.5-0.7-17c1.2-4.5,4.4-8.3,5.5-12.8c1.1-4.4,0.1-9.2-2.7-12.8
			c-0.7-0.9-1.6-1.8-2.6-2.4c-1.3-0.8-2.9-1.2-4.4-1.6c-9.4-2.7-17.8-8.7-23.4-16.8c-0.1-0.2-0.3-0.5-0.5-0.8
			c-1.5-1.8-3.9,2.3-4.5,3.2c-2.2,3.3-4.3,6.8-5.7,10.5c-2,5.5-2,11.3-0.9,17c0.3,1.8,0.7,3.6,1.3,5.4c2.9,8.6,9.2,16.6,8.1,25.6
			c-1.3,10.7-12.2,17.1-19,25.5c-10.4,12.8-13.1,40.2-34.9,38.9c-5.3-0.3-10.3-3.4-15.6-1.3c-4.4,1.7-7,6.4-7.4,11
			c-0.4,4.7,1.3,9.3,3.4,13.4c7.2,13.7,20.4,23.5,34.8,28.8c14.5,5.3,30.2,6.3,45.6,5.5c14.7-0.8,30.1-3.5,41.3-12.9
			c1.1-0.9,2.2-2,2.7-3.3C272.6,831.4,272.3,829.9,271.9,828.4"/>
	</g>
	<g>
		<defs>
			<rect id="SVGID_15_" x="132" y="616.7" width="172.1" height="333.3"/>
		</defs>
		<clipPath id="SVGID_16_">
			<use xlink:href="#SVGID_15_"  style="overflow:visible;"/>
		</clipPath>
		<path class="st13" d="M252.1,755.2c0.1-0.1,0.2-0.2,0.3-0.3c0.5-0.7,0.9-1.5,1.2-2.4c0.2-0.8,0.4-1.7,0.2-2.6
			c-0.4-1.6-2.7-1.8-4.1-1.9c-3-0.2-6.1-0.6-9.1-1.1c-3.8-0.7-7.6-1.5-11.3-2.6c-3.2-0.9-6.3-2-9.4-3.3c-2.4-0.9-6.6-3.6-8.8-1
			c-0.6,0.7-1.1,1.4-1.4,2.2c-0.3,0.6-0.7,1.3-0.7,1.9c-0.1,1,1.1,1.2,1.8,1.6c0.9,0.4,1.7,0.9,2.6,1.3c1.7,0.8,3.5,1.6,5.2,2.3
			c3.5,1.5,7.1,2.7,10.8,3.6c0.6,0.1,1.2,0.3,1.8,0.4c3.4,0.7,6.8,1.2,10.2,1.6c3.1,0.3,6.2,0.5,9.4,0.6
			C251.2,755.6,251.7,755.5,252.1,755.2"/>
	</g>
	<g>
		<defs>
			<rect id="SVGID_17_" x="132" y="616.7" width="172.1" height="333.3"/>
		</defs>
		<clipPath id="SVGID_18_">
			<use xlink:href="#SVGID_17_"  style="overflow:visible;"/>
		</clipPath>
		<path class="st14" d="M246.6,618.4c-0.9-0.4-1.9-0.8-2.9-1c-6.8-1.7-13.7-0.3-19.6,3.2c-4.7,2.8-7.9,8.3-10.2,13.1
			c-5,10.2-7.5,22-14.9,30.9c-0.9,1-1.8,2-2.8,2.9c-4.4,4.1-10.7,6.7-16.5,5.3c-6.4-1.6-10.7-7.5-16.6-10.4
			c-7.4-3.7-17-1.9-23.2,3.7c-6.1,5.6-8.8,14.5-7.5,22.7s6.3,15.6,12.9,20.6c6.6,5,14.9,7.7,23.2,8.4c9.3,0.8,19.1-0.8,27.1-5.6
			s14.4-12.9,16-22.1c1-5.5,1.1-11.5,7.1-13.8c1.7-0.7,3.5-0.9,5.2-1.6c1.5-0.7,2.8-1.6,4-2.8c2.3-2.3,3.8-5.1,4.9-8.1
			c1.7-4.5,2.4-9.8,0.2-14.1c-1.2-2.3-3.1-4.2-4.1-6.6c-1-2.4-0.7-5.8,1.7-6.8c2.3-1,5.2,1.3,4.8,3.8c5.3-1.3,10.1-4.5,13.2-8.9
			c2-2.7,3.3-6.4,1.8-9.4C249.4,620.2,248.1,619.1,246.6,618.4"/>
	</g>
	<g>
		<defs>
			<rect id="SVGID_19_" x="132" y="616.7" width="172.1" height="333.3"/>
		</defs>
		<clipPath id="SVGID_20_">
			<use xlink:href="#SVGID_19_"  style="overflow:visible;"/>
		</clipPath>
		<path class="st15" d="M174.7,946.1c0.2,0.1,0.4,0.2,0.6,0.3c1.4-2.2,2.7-4.4,4.1-6.6c0.1-0.9-1.4-2.1-2.1-2.6
			c-0.3-0.2-0.8-0.5-1.1-0.3s-0.4,0.8-0.5,1.2c-0.1,0.5-0.2,1.1-0.4,1.6c-0.4,1.8-1,3.5-1.4,5.2c0,0.1-0.1,0.4-0.1,0.6
			C174.1,945.7,174.4,946,174.7,946.1"/>
	</g>
	<g>
		<defs>
			<rect id="SVGID_21_" x="132" y="616.7" width="172.1" height="333.3"/>
		</defs>
		<clipPath id="SVGID_22_">
			<use xlink:href="#SVGID_21_"  style="overflow:visible;"/>
		</clipPath>
		<path class="st16" d="M196.7,950h-7.9l0,0c-0.5-0.1-0.7-0.5-1-0.8c-2.3-2.2-4.6-4.4-6.9-6.6c-1.8-1.8-3.6-3.5-5.4-5.3
			c-0.1-0.1,0.4-0.8,0.5-0.9c0.4-0.7,0.8-1.3,1.1-2c0.6-1,1.1-2,1.7-2.9l0.6-1.1l0,0c0.2,0.8,0.6,1.5,1,2.2s0.9,1.5,1.3,2.2
			c2.2,3.6,4.6,7.4,7.8,10.2c0.6,0.5,1.2,1,2,1.3c0.1,0.3,0.2,0.6,0.5,0.8c0.5,0.3,1,0.5,1.6,0.6c0.6,0.2,1.2,0.4,1.8,0.6
			c0.4,0.1,1.1,0.2,1.3,0.7C196.8,949.3,196.9,949.7,196.7,950"/>
	</g>
	<g>
		<defs>
			<rect id="SVGID_23_" x="132" y="616.7" width="172.1" height="333.3"/>
		</defs>
		<clipPath id="SVGID_24_">
			<use xlink:href="#SVGID_23_"  style="overflow:visible;"/>
		</clipPath>
		<path class="st17" d="M275.2,942.9c0.2,0.1,0.4,0.2,0.6,0.3c1.4-2.2,2.7-4.4,4.1-6.6c0.1-0.9-1.4-2.1-2.1-2.6
			c-0.3-0.2-0.8-0.5-1.1-0.3c-0.3,0.2-0.4,0.8-0.5,1.2c-0.1,0.5-0.2,1.1-0.4,1.6c-0.4,1.8-1,3.5-1.4,5.2c0,0.1-0.1,0.4-0.1,0.6
			C274.7,942.5,274.9,942.7,275.2,942.9"/>
	</g>
	<g>
		<defs>
			<rect id="SVGID_25_" x="132" y="616.7" width="172.1" height="333.3"/>
		</defs>
		<clipPath id="SVGID_26_">
			<use xlink:href="#SVGID_25_"  style="overflow:visible;"/>
		</clipPath>
		<path class="st18" d="M297.3,946.4h-7.9c-0.5-0.1-0.7-0.5-1-0.8c-2.3-2.2-4.6-4.4-6.9-6.6c-1.8-1.8-3.6-3.5-5.4-5.3
			c-0.1-0.1,0.4-0.8,0.5-0.9c0.4-0.7,0.8-1.3,1.1-2c0.6-1,1.1-2,1.7-2.9l0.1-0.1v-0.1l0,0c1,0.9,1.6,2.1,2.4,3.2
			c0.9,1.3,1.8,2.6,2.8,3.9c2,2.8,4.2,5.5,6.7,7.7c0.3,0.3,0.7,0.5,1,0.6c0.1,0.2,0.2,0.3,0.4,0.5c0.5,0.3,1,0.5,1.6,0.6
			c0.6,0.2,1.2,0.4,1.8,0.6c0.4,0.1,1.1,0.2,1.3,0.7C297.4,945.7,297.5,946.1,297.3,946.4"/>
	</g>
	<g>
		<defs>
			<rect id="SVGID_27_" x="132" y="616.7" width="172.1" height="333.3"/>
		</defs>
		<clipPath id="SVGID_28_">
			<use xlink:href="#SVGID_27_"  style="overflow:visible;"/>
		</clipPath>
		<path class="st19" d="M216.7,687.1c0,1.9,0.2,3.7,0.7,5.5c0.1,0.5,0.2,1,0.4,1.5c1.4,5.2,3.4,10.1,5.2,15.2c1.1,3,2.2,5.9,3.3,8.8
			c0.6,1.5,1.1,3,1.7,4.5c0.3,0.8,0.6,1.6,0.9,2.3c0.2,0.4,0.8,1.6,0.7,2c1.3,3.6,2.7,7.4,5.8,9.8c2.3,1.8,5.3,2.5,8.2,3.1
			c3.4,0.8,6.8,1.5,10.2,2.3c10.9,2.5,21.9,4.9,32.8,7.4c5,1.1,10.2,2.4,14.4,5.3c0.6,0.5,1.3,1,2.1,0.9c3-0.1-1.2-5.8-1.8-6.7
			c-1.7-2.5-3.8-4.9-6.7-6.1c-2.7-1.2-5.7-1.2-8.7-1.6c-8.7-1.2-16.6-5.5-24.7-9.1c-6.1-2.7-12.2-4.9-18.8-4.9
			c-2.3-9.5-4.5-18.9-6.7-28.4c-0.9-3.7-1.8-7.5-3.4-11c-1.5-3.4-4-7.3-7.6-8.8c-1.7-0.7-3.8-0.8-5.4,0.2
			C217,681,216.6,684.5,216.7,687.1"/>
	</g>
	<g>
		<defs>
			<rect id="SVGID_29_" x="132" y="616.7" width="172.1" height="333.3"/>
		</defs>
		<clipPath id="SVGID_30_">
			<use xlink:href="#SVGID_29_"  style="overflow:visible;"/>
		</clipPath>
		<path class="st20" d="M235.8,697.7c-0.4-1.8-0.9-3.6-1.4-5.3c-0.8-2.7-1.7-5.5-3.2-7.9c-2.4-3.9-8.2-8.4-12.6-4.3
			c-0.7,0.7-1.3,1.6-1.7,2.5c-1,2.7-0.6,5.4-0.1,8.1c1.1,5.7,3,11.2,4.8,16.7l15-5.7C236.4,700.4,236.1,699.1,235.8,697.7"/>
	</g>
</g>
<g>
	<g>
		<defs>
			<rect id="SVGID_31_" x="852.3" y="604.8" width="189.6" height="345.2"/>
		</defs>
		<clipPath id="SVGID_32_">
			<use xlink:href="#SVGID_31_"  style="overflow:visible;"/>
		</clipPath>
		<path class="st21" d="M935.1,631.4c1.7-2.8,3.1-5.7,4.9-8.5c2-3.1,4.1-6.3,6.9-8.7c3.1-2.6,7.1-3.9,11.1-3.9
			c4.3,0,8.6,2.1,11.1,5.5c1.5,2.1,2.3,4.7,2.4,7.2c0.3,4.8,0.2,9.6,0.8,14.4c0.5,4.3,1.3,8.6,2.5,12.8c0.9,3.2,2.1,6.3,3.5,9.3
			c0.7,1.5,1.5,2.9,2.3,4.3c0.2,0.4,2.5,4.2,2.7,4.1c-8,3.8-15.4,8.8-21.9,14.8c0.1-0.1-1.2-2.8-1.4-3.1c-0.5-1.1-0.9-2.2-1.3-3.3
			c-0.8-2.2-1.5-4.4-2.1-6.7c-1.2-4.5-2-9.2-2.5-13.8c-0.1-0.8-0.1-1.6-0.2-2.4c-0.1-0.7-0.2-1.4-0.7-2c-0.8-1-2.4-1.2-3.6-0.9
			c-1.4,0.4-2.6,1.2-3.9,1.6c-2.1,0.7-7.2,1-7.8-2c-0.4-2-0.7-3.9-0.8-6c-0.1-1.9,0.3-3.9,0.1-5.8c-0.1-0.8-0.3-1.7-0.9-2.3
			c-0.5-0.6-1.5-0.8-2.1-1.3C933.3,634,934.5,632.3,935.1,631.4"/>
	</g>
	<g>
		<defs>
			<rect id="SVGID_33_" x="852.3" y="604.8" width="189.6" height="345.2"/>
		</defs>
		<clipPath id="SVGID_34_">
			<use xlink:href="#SVGID_33_"  style="overflow:visible;"/>
		</clipPath>
		<path class="st22" d="M950.9,688.6c-3.8,9.9-6.3,20.3-9.6,30.3c-3.3,10.1-7.4,20.1-13.7,28.5c-0.7,0.9-1.4,1.9-1.2,3
			c0.1,0.5,0.3,0.9,0.6,1.4c1.9,3.4,3.3,7.2,4.1,11.1c2.3-6.6,6.5-12.4,9-18.9c1.1-2.9,1.9-5.9,2.7-8.9c4.2-15.7,8.4-31.5,12.1-47.4
			c0.8-3.4,3.1-10.2,1.4-13.5c-1.1,1.1-1.3,3.4-1.8,4.9C953.4,682.3,952.1,685.5,950.9,688.6"/>
	</g>
	<g>
		<defs>
			<rect id="SVGID_35_" x="852.3" y="604.8" width="189.6" height="345.2"/>
		</defs>
		<clipPath id="SVGID_36_">
			<use xlink:href="#SVGID_35_"  style="overflow:visible;"/>
		</clipPath>
		<path class="st23" d="M957.5,674.7c0.3-0.6,0.2-1.4,0-2.1c-0.2-0.8-0.4-1.6-0.8-2.2c-0.5-0.6-1.2-1.1-2-1
			c-0.6,0.1-1.1,0.6-1.4,1.2c-0.3,0.6-0.4,1.2-0.4,1.8s0,1.2,0,1.8c0,0.8,0.2,1.7,0.8,2.3c0.7,0.7,1.8,0.6,2.7,0.6
			c0.2,0,0.5,0,0.6-0.2c0.1-0.1,0.2-0.3,0.2-0.5C957.3,675.9,957.4,675.3,957.5,674.7"/>
	</g>
	<g>
		<defs>
			<rect id="SVGID_37_" x="852.3" y="604.8" width="189.6" height="345.2"/>
		</defs>
		<clipPath id="SVGID_38_">
			<use xlink:href="#SVGID_37_"  style="overflow:visible;"/>
		</clipPath>
		<path class="st24" d="M1029.8,916.5c-2.8,2.2-5.2,5-7.1,8.1c-0.3,0.5-0.5,0.9-0.7,1.5c-0.1,0.5-0.2,1-0.2,1.5
			c-0.2,3.6-0.4,7.1-0.9,10.7c-0.2,1.8-0.4,3.6-0.7,5.4c-0.1,0.8-0.1,1.4-0.6,1.9c-0.6,0.6-1.4,1-2.2,1.3c-1.1,0.5-2.2,1.1-3.4,1.6
			c-0.3,0.1-0.6,0.3-0.8,0.5s-0.3,0.6-0.1,0.9c0.1,0.2,3.1-0.1,3.4-0.1c1.2,0,2.4-0.1,3.6-0.2c1.2-0.1,2.4-0.1,3.6-0.2
			c0.5,0,1,0,1.4-0.2c0.4-0.3,0.8-1,1.1-1.4c3-3.8,5.9-7.6,8.7-11.5c2.3-3.1,4.5-6.1,6.8-9.2c0.1-0.1-5.7-7.3-6.2-8
			C1033.8,916.3,1033.1,913.9,1029.8,916.5"/>
	</g>
	<g>
		<defs>
			<rect id="SVGID_39_" x="852.3" y="604.8" width="189.6" height="345.2"/>
		</defs>
		<clipPath id="SVGID_40_">
			<use xlink:href="#SVGID_39_"  style="overflow:visible;"/>
		</clipPath>
		<path class="st25" d="M939.4,795.7c7.1,19,14.3,38,24.7,55.4c3.8,6.4,8.1,12.5,12.3,18.7c4,5.7,7.9,11.5,11.9,17.2
			c5.1,7.4,10.2,14.7,15.2,22.1c2.4,3.4,4.9,6.7,7.3,10c2,2.8,3.7,6.1,4.8,9.4c0.5,1.6,8.1-3.6,9.2-4.3c4.1-2.4,8.1-5,12-7.8
			c0.1-0.1,0.2-0.1,0.3-0.3c0.1-0.2,0-0.4-0.1-0.6c-1.7-3.3-2.6-6.9-3.5-10.5c-0.9-3.5-2-6.9-3.3-10.2
			c-4.8-12.1-12.5-22.5-18.4-34.1c-1-2.1-2-4.1-2.9-6.3c-3.9-9.6-5.7-20-8-30.1c-3.3-14.7-7.5-29.2-12.8-43.4
			c-2.4-6.5-5.1-13.1-9.1-18.7c-4-5.5-9.4-10-15.9-11.8L939.4,795.7z"/>
	</g>
	<g>
		<defs>
			<rect id="SVGID_41_" x="852.3" y="604.8" width="189.6" height="345.2"/>
		</defs>
		<clipPath id="SVGID_42_">
			<use xlink:href="#SVGID_41_"  style="overflow:visible;"/>
		</clipPath>
		<path class="st26" d="M892.6,930.2c-3-2-6.3-3.5-9.7-4.3c-0.5-0.1-1-0.2-1.6-0.2c-0.5,0-1,0.2-1.5,0.3c-8.8,2.5-17.8,4.2-26.9,5.1
			c-0.2,0.5-0.4,1.1-0.6,1.6c11.3,4.7,22.8,8.7,34.4,12.6c0.1,0,5-7.8,5.5-8.5C894.1,934,896.2,932.6,892.6,930.2"/>
	</g>
	<g>
		<defs>
			<rect id="SVGID_43_" x="852.3" y="604.8" width="189.6" height="345.2"/>
		</defs>
		<clipPath id="SVGID_44_">
			<use xlink:href="#SVGID_43_"  style="overflow:visible;"/>
		</clipPath>
		<path class="st27" d="M945.1,780.7c-12.4,17-24.9,34.2-34.2,53.3c-3.4,7-6.4,14.3-9.3,21.5c-2.4,5.9-4.8,11.7-7.2,17.6
			c-3.4,8.3-6.7,16.5-10.1,24.8c-3.2,7.8-5.7,15.8-11,22.5c2.9,3.3,6.6,5.9,10.5,8.1c3.8,2.2,8,4.3,12.3,5.3c0.4,0.1,0.8,0.1,1.1,0
			c0.7-0.3,1.3-1.6,1.8-2.2c5.3-6.1,11-12.1,15-19.2c6.7-11.8,11.1-24.8,18.8-36c6.1-8.9,14.1-16.3,21.6-24
			c10.9-11.2,21.1-23.1,30.4-35.8c4.3-5.8,8.5-11.9,11.1-18.7c2.5-6.6,3.4-14.2,1.3-20.9L945.1,780.7z"/>
	</g>
	<g>
		<defs>
			<rect id="SVGID_45_" x="852.3" y="604.8" width="189.6" height="345.2"/>
		</defs>
		<clipPath id="SVGID_46_">
			<use xlink:href="#SVGID_45_"  style="overflow:visible;"/>
		</clipPath>
		<path class="st28" d="M998.7,692.5c-0.1-0.4-0.2-0.8-0.3-1.2c-1.9-6.9-4.7-13.7-8.4-19.8c-2.8-4.6-6.8-10.3-12.7-10.4
			c-0.8,0-1.7,0-2.5,0.1c-4,0.3-7.5,2-11,3.9c-1.9,1.1-4.2,2-5.8,3.5c-2.4,2.2-1.3,3.9-2,6.8c-3.6,14-7.6,28.1-11.1,42.2
			c-2.1,8.5-4.1,17-5.7,25.6c-1.5,8-3.2,16.7-0.9,24.7c1.4,4.7,3.9,9,6.8,12.9l52.4-3.7c4.6-8.6,4.5-19.9,4.8-29.3
			C1002.7,729.4,1003.4,710.4,998.7,692.5"/>
	</g>
	<g>
		<defs>
			<rect id="SVGID_47_" x="852.3" y="604.8" width="189.6" height="345.2"/>
		</defs>
		<clipPath id="SVGID_48_">
			<use xlink:href="#SVGID_47_"  style="overflow:visible;"/>
		</clipPath>
		<path class="st29" d="M965.8,647c0.9,1.8,2.5,2.4,4.2,3.2c0.5,0.2,6.1,1.9,6.1,1.9c-0.1-1,0.6-1.8,1.3-2.6
			c6.1-6.8,10.9-15.6,10.2-25.1c-0.4-5.7-2.9-11.4-7.2-15.1c-3-2.5-6.7-4.1-10.6-4.3c-4.3-0.3-8.6,0.9-12.9,1.8
			c-4.3,0.8-8.9,1.3-12.8-0.5c-1.3-0.6-2.6-1.4-3.9-0.8c-0.9,0.4-1.4,1.3-1.7,2.2c-0.6,2-0.2,4.2,0.3,6.2c2.5,9,9,16.9,17.5,20.9
			c0.3,0.2,0.7,0.3,1.1,0.2c0.5-0.1,0.8-0.7,0.8-1.2s-0.1-1-0.2-1.5c-0.2-2.1,1.3-4.2,3.4-4.8c2-0.6,4.3,0.3,5.7,1.9
			c1.4,1.6,1.9,3.9,1.5,6c-0.4,2-1.5,3.8-2.2,5.8C965.4,642.9,964.9,645.1,965.8,647"/>
	</g>
	<g>
		<defs>
			<rect id="SVGID_49_" x="852.3" y="604.8" width="189.6" height="345.2"/>
		</defs>
		<clipPath id="SVGID_50_">
			<use xlink:href="#SVGID_49_"  style="overflow:visible;"/>
		</clipPath>
		<path class="st30" d="M975.4,663.1c1.1-0.6,2.2-1.2,3.3-1.8c0.1-0.1,0.2-0.1,0.2-0.2c0-0.1,0-0.2,0-0.3c-0.4-2.1-1.2-4-1.8-6
			c0,0.2-7.7,3.9-8.3,4.2c-3.1,1.5-6.3,3-9.4,4.6c-0.5,0.2-6.1,2.8-5.8,3.6c0.7,2,1.5,4,2.5,6c0.2,0.3,12.7-6.5,13.7-7.1
			C971.7,665.1,973.6,664.1,975.4,663.1"/>
	</g>
	<g>
		<defs>
			<rect id="SVGID_51_" x="852.3" y="604.8" width="189.6" height="345.2"/>
		</defs>
		<clipPath id="SVGID_52_">
			<use xlink:href="#SVGID_51_"  style="overflow:visible;"/>
		</clipPath>
		<path class="st31" d="M998.2,779.3c0-0.1,0.1-0.2,0.1-0.2c0.1-0.2,0.1-0.4,0.2-0.6c0.1-0.4,0.1-0.9,0.1-1.3c0-0.7-0.1-1.3-0.1-2
			v-0.1l-54.6,3.9c0,0.2-0.2,0.5-0.3,0.7c-0.1,0.3-0.2,0.5-0.2,0.8c-0.1,0.5-0.1,1-0.1,1.4c0,0.1,0.1,1.4,0.1,1.4l54.9-3.9
			C998.1,779.4,998.1,779.4,998.2,779.3"/>
	</g>
	<g>
		<defs>
			<rect id="SVGID_53_" x="852.3" y="604.8" width="189.6" height="345.2"/>
		</defs>
		<clipPath id="SVGID_54_">
			<use xlink:href="#SVGID_53_"  style="overflow:visible;"/>
		</clipPath>
		<path class="st32" d="M946.6,787.4c-0.3,0.2-0.6,0.3-0.8,0.6s-0.2,0.6-0.3,0.9c-0.2,1.7-0.5,3.5-0.7,5.2c-0.1,0.4-0.1,0.8,0,1.2
			c0.3,1.2,1.9,2.1,2.8,2.7c1.7,1.1,5.7,2.7,7.8,2.2c4.6-1.1,7.4-6.7,8.3-10.8c0-0.2,0.1-0.4,0-0.6c0-0.1-0.1-0.2-0.2-0.3
			c-1.8-1.8-4.9-4.5-7.5-4.9c-1.4-0.2-3.1,0.8-4.3,1.3C949.9,785.7,948.2,786.5,946.6,787.4"/>
	</g>
	<g>
		<defs>
			<rect id="SVGID_55_" x="852.3" y="604.8" width="189.6" height="345.2"/>
		</defs>
		<clipPath id="SVGID_56_">
			<use xlink:href="#SVGID_55_"  style="overflow:visible;"/>
		</clipPath>
		<path class="st33" d="M963.8,711c-1.8-7.6-3.6-15.3-4.3-23.2c-0.2-2.9-0.3-6,0.6-8.8c1.2-3.8,4.3-7,8.1-8.2s8.1-0.5,11.3,1.8
			c4,3,5.9,8,7.5,12.8c4.9,14.7,8.3,29.9,10.4,45.3c0.4,3.1,0.8,6.3,0.2,9.4c-0.6,3.4-2.2,6.6-3.9,9.6
			c-7.5,13.7-16.1,26.9-25.6,39.3c-4.1-3.5-8.5-6.7-13.1-9.4c5.8-10.9,8.8-22.9,11.5-34.9c1.1-5,2.7-9.7,1.8-14.8
			C967.1,723.6,965.3,717.3,963.8,711"/>
	</g>
	<g>
		<defs>
			<rect id="SVGID_57_" x="852.3" y="604.8" width="189.6" height="345.2"/>
		</defs>
		<clipPath id="SVGID_58_">
			<use xlink:href="#SVGID_57_"  style="overflow:visible;"/>
		</clipPath>
		<path class="st34" d="M964.4,785.8c-1.6-1.2-3.2-2.3-4.8-3.4c-1.3-0.9-2.9-1.9-4.3-3c-0.4,0.5-0.9,1-1.3,1.4
			c-0.7,0.8-1.4,1.8-2.1,2.6c0.1,0.1,0.2,0.2,0.3,0.3c2.8,2.7,5.7,5.2,8.9,7.4c1.1,0.8,2.3,1.6,3.2,2.6c1.7-1.4,3.1-3.1,4.1-5.1
			C967,787.6,965.4,786.6,964.4,785.8"/>
	</g>
</g>
<line class="st35" x1="329.4" y1="797" x2="865.9" y2="797"/>
<polyline class="st36" points="340.9,807.7 329.4,797 340.9,786.3 "/>
<polyline class="st36" points="854.4,786.3 865.9,797 854.4,807.7 "/>
</svg>
